  0
SECTION
  2
HEADER
  9
$ACADVER
  1
AC1032
  9
$ACADMAINTVER
 90
4
  9
$DWGCODEPAGE
  3
ANSI_1252
  9
$LASTSAVEDBY
  1
jpgreen
  9
$REQUIREDVERSIONS
160
0
  9
$INSBASE
 10
0.0
 20
0.0
 30
0.0
  9
$EXTMIN
 10
-46250.0
 20
-47600.0
 30
0.0
  9
$EXTMAX
 10
52260.70941336971
 20
46250.0
 30
0.0
  9
$LIMMIN
 10
0.0
 20
0.0
  9
$LIMMAX
 10
0.0
 20
0.0
  9
$ORTHOMODE
 70
0
  9
$REGENMODE
 70
1
  9
$FILLMODE
 70
1
  9
$QTEXTMODE
 70
0
  9
$MIRRTEXT
 70
1
  9
$LTSCALE
 40
1.0
  9
$ATTMODE
 70
1
  9
$TEXTSIZE
 40
0.0
  9
$TRACEWID
 40
0.05
  9
$TEXTSTYLE
  7
STANDARD
  9
$CLAYER
  8
0
  9
$CELTYPE
  6
CONTINUOUS
  9
$CECOLOR
 62
256
  9
$CELTSCALE
 40
1.0
  9
$DISPSILH
 70
0
  9
$DIMSCALE
 40
1.0
  9
$DIMASZ
 40
0.18
  9
$DIMEXO
 40
0.0625
  9
$DIMDLI
 40
0.38
  9
$DIMRND
 40
0.0
  9
$DIMDLE
 40
0.0
  9
$DIMEXE
 40
0.18
  9
$DIMTP
 40
0.0
  9
$DIMTM
 40
0.0
  9
$DIMTXT
 40
0.18
  9
$DIMCEN
 40
0.09
  9
$DIMTSZ
 40
0.0
  9
$DIMTOL
 70
0
  9
$DIMLIM
 70
0
  9
$DIMTIH
 70
1
  9
$DIMTOH
 70
1
  9
$DIMSE1
 70
0
  9
$DIMSE2
 70
0
  9
$DIMTAD
 70
0
  9
$DIMZIN
 70
0
  9
$DIMBLK
  1

  9
$DIMASO
 70
1
  9
$DIMSHO
 70
1
  9
$DIMPOST
  1

  9
$DIMAPOST
  1

  9
$DIMALT
 70
0
  9
$DIMALTD
 70
2
  9
$DIMALTF
 40
25.4
  9
$DIMLFAC
 40
1.0
  9
$DIMTOFL
 70
0
  9
$DIMTVP
 40
0.0
  9
$DIMTIX
 70
0
  9
$DIMSOXD
 70
0
  9
$DIMSAH
 70
0
  9
$DIMBLK1
  1

  9
$DIMBLK2
  1

  9
$DIMSTYLE
  2
STANDARD
  9
$DIMCLRD
 70
0
  9
$DIMCLRE
 70
0
  9
$DIMCLRT
 70
0
  9
$DIMTFAC
 40
1.0
  9
$DIMGAP
 40
0.09
  9
$DIMJUST
 70
0
  9
$DIMSD1
 70
0
  9
$DIMSD2
 70
0
  9
$DIMTOLJ
 70
1
  9
$DIMTZIN
 70
0
  9
$DIMALTZ
 70
0
  9
$DIMALTTZ
 70
0
  9
$DIMUPT
 70
0
  9
$DIMDEC
 70
4
  9
$DIMTDEC
 70
4
  9
$DIMALTU
 70
2
  9
$DIMALTTD
 70
2
  9
$DIMTXSTY
  7
STANDARD
  9
$DIMAUNIT
 70
0
  9
$DIMADEC
 70
0
  9
$DIMALTRND
 40
0.0
  9
$DIMAZIN
 70
0
  9
$DIMDSEP
 70
46
  9
$DIMATFIT
 70
3
  9
$DIMFRAC
 70
0
  9
$DIMLDRBLK
  1

  9
$DIMLUNIT
 70
2
  9
$DIMLWD
 70
-2
  9
$DIMLWE
 70
-2
  9
$DIMTMOVE
 70
0
  9
$DIMFXL
 40
1.0
  9
$DIMFXLON
 70
0
  9
$DIMJOGANG
 40
0.7853981633974483
  9
$DIMTFILL
 70
0
  9
$DIMTFILLCLR
 70
0
  9
$DIMARCSYM
 70
0
  9
$DIMLTYPE
  6

  9
$DIMLTEX1
  6

  9
$DIMLTEX2
  6

  9
$DIMTXTDIRECTION
 70
0
  9
$LUNITS
 70
2
  9
$LUPREC
 70
4
  9
$SKETCHINC
 40
0.1
  9
$FILLETRAD
 40
0.0
  9
$AUNITS
 70
0
  9
$AUPREC
 70
0
  9
$MENU
  1
acad
  9
$ELEVATION
 40
0.0
  9
$PELEVATION
 40
0.0
  9
$THICKNESS
 40
0.0
  9
$LIMCHECK
 70
0
  9
$CHAMFERA
 40
0.0
  9
$CHAMFERB
 40
0.0
  9
$CHAMFERC
 40
0.0
  9
$CHAMFERD
 40
0.0
  9
$SKPOLY
 70
0
  9
$TDCREATE
 40
2460243.4242476854
  9
$TDUCREATE
 40
2440587.999988426
  9
$TDUPDATE
 40
2460243.4242476854
  9
$TDUUPDATE
 40
2459921.742835649
  9
$TDINDWG
 40
0.0946527778
  9
$TDUSRTIMER
 40
0.0946527778
  9
$USRTIMER
 70
1
  9
$ANGBASE
 50
0.0
  9
$ANGDIR
 70
0
  9
$PDMODE
 70
0
  9
$PDSIZE
 40
0.0
  9
$PLINEWID
 40
0.0
  9
$SPLFRAME
 70
0
  9
$SPLINETYPE
 70
6
  9
$SPLINESEGS
 70
8
  9
$HANDSEED
  5
276A6
  9
$SURFTAB1
 70
6
  9
$SURFTAB2
 70
6
  9
$SURFTYPE
 70
6
  9
$SURFU
 70
6
  9
$SURFV
 70
6
  9
$UCSBASE
  2

  9
$UCSNAME
  2

  9
$UCSORG
 10
0.0
 20
0.0
 30
0.0
  9
$UCSXDIR
 10
1.0
 20
0.0
 30
0.0
  9
$UCSYDIR
 10
0.0
 20
1.0
 30
0.0
  9
$UCSORTHOREF
  2

  9
$UCSORTHOVIEW
 70
0
  9
$UCSORGTOP
 10
0.0
 20
0.0
 30
0.0
  9
$UCSORGBOTTOM
 10
0.0
 20
0.0
 30
0.0
  9
$UCSORGLEFT
 10
0.0
 20
0.0
 30
0.0
  9
$UCSORGRIGHT
 10
0.0
 20
0.0
 30
0.0
  9
$UCSORGFRONT
 10
0.0
 20
0.0
 30
0.0
  9
$UCSORGBACK
 10
0.0
 20
0.0
 30
0.0
  9
$PUCSBASE
  2

  9
$PUCSNAME
  2

  9
$PUCSORG
 10
0.0
 20
0.0
 30
0.0
  9
$PUCSXDIR
 10
1.0
 20
0.0
 30
0.0
  9
$PUCSYDIR
 10
0.0
 20
1.0
 30
0.0
  9
$PUCSORTHOREF
  2

  9
$PUCSORTHOVIEW
 70
0
  9
$PUCSORGTOP
 10
0.0
 20
0.0
 30
0.0
  9
$PUCSORGBOTTOM
 10
0.0
 20
0.0
 30
0.0
  9
$PUCSORGLEFT
 10
0.0
 20
0.0
 30
0.0
  9
$PUCSORGRIGHT
 10
0.0
 20
0.0
 30
0.0
  9
$PUCSORGFRONT
 10
0.0
 20
0.0
 30
0.0
  9
$PUCSORGBACK
 10
0.0
 20
0.0
 30
0.0
  9
$USERI1
 70
-4
  9
$USERI2
 70
0
  9
$USERI3
 70
0
  9
$USERI4
 70
0
  9
$USERI5
 70
0
  9
$USERR1
 40
0.0
  9
$USERR2
 40
0.0
  9
$USERR3
 40
0.0
  9
$USERR4
 40
0.0
  9
$USERR5
 40
0.0
  9
$WORLDVIEW
 70
1
  9
$SHADEDGE
 70
3
  9
$SHADEDIF
 70
70
  9
$TILEMODE
 70
1
  9
$MAXACTVP
 70
16
  9
$PINSBASE
 10
0.0
 20
0.0
 30
0.0
  9
$PLIMCHECK
 70
0
  9
$PEXTMIN
 10
1e+20
 20
1e+20
 30
1e+20
  9
$PEXTMAX
 10
-1e+20
 20
-1e+20
 30
-1e+20
  9
$PLIMMIN
 10
0.0
 20
0.0
  9
$PLIMMAX
 10
12.0
 20
9.0
  9
$UNITMODE
 70
0
  9
$VISRETAIN
 70
0
  9
$PLINEGEN
 70
1
  9
$PSLTSCALE
 70
0
  9
$TREEDEPTH
 70
3020
  9
$CMLSTYLE
  2
STANDARD
  9
$CMLJUST
 70
0
  9
$CMLSCALE
 40
1.0
  9
$PROXYGRAPHICS
 70
0
  9
$MEASUREMENT
 70
0
  9
$CELWEIGHT
370
-1
  9
$ENDCAPS
280
0
  9
$JOINSTYLE
280
0
  9
$LWDISPLAY
290
0
  9
$INSUNITS
 70
0
  9
$HYPERLINKBASE
  1

  9
$STYLESHEET
  1

  9
$XEDIT
290
1
  9
$CEPSNTYPE
380
0
  9
$PSTYLEMODE
290
1
  9
$FINGERPRINTGUID
  2
75877676-7359-11EE-91BB-00D861F9C1E4
  9
$VERSIONGUID
  2
758ABE40-7359-11EE-8918-00D861F9C1E4
  9
$EXTNAMES
290
1
  9
$PSVPSCALE
 40
0.0
  9
$OLESTARTUP
290
0
  9
$SORTENTS
280
127
  9
$INDEXCTL
280
0
  9
$HIDETEXT
280
0
  9
$XCLIPFRAME
280
2
  9
$HALOGAP
280
0
  9
$OBSCOLOR
 70
257
  9
$OBSLTYPE
280
0
  9
$INTERSECTIONDISPLAY
280
0
  9
$INTERSECTIONCOLOR
 70
257
  9
$DIMASSOC
280
1
  9
$PROJECTNAME
  1

  9
$CAMERADISPLAY
290
0
  9
$LENSLENGTH
 40
50.0
  9
$CAMERAHEIGHT
 40
0.0
  9
$STEPSPERSEC
 40
2.0
  9
$STEPSIZE
 40
6.0
  9
$3DDWFPREC
 40
2.0
  9
$PSOLWIDTH
 40
0.25
  9
$PSOLHEIGHT
 40
4.0
  9
$LOFTANG1
 40
1.570796326794896
  9
$LOFTANG2
 40
1.570796326794896
  9
$LOFTMAG1
 40
0.0
  9
$LOFTMAG2
 40
0.0
  9
$LOFTPARAM
 70
7
  9
$LOFTNORMALS
280
1
  9
$LATITUDE
 40
37.795
  9
$LONGITUDE
 40
-122.394
  9
$NORTHDIRECTION
 40
0.0
  9
$TIMEZONE
 70
-8000
  9
$LIGHTGLYPHDISPLAY
280
1
  9
$TILEMODELIGHTSYNCH
280
1
  9
$CMATERIAL
347
27624
  9
$SOLIDHIST
280
0
  9
$SHOWHIST
280
1
  9
$DWFFRAME
280
2
  9
$DGNFRAME
280
0
  9
$REALWORLDSCALE
290
1
  9
$INTERFERECOLOR
 62
1
  9
$INTERFEREOBJVS
345
27646
  9
$INTERFEREVPVS
346
27643
  9
$CSHADOW
280
0
  9
$SHADOWPLANELOCATION
 40
0.0
  0
ENDSEC
  0
SECTION
  2
CLASSES
  0
CLASS
  1
IMAGE
  2
AcDbRasterImage
  3
ISM
 90
2175
 91
0
280
0
281
1
  0
CLASS
  1
DICTIONARYVAR
  2
AcDbDictionaryVar
  3
ObjectDBX Classes
 90
0
 91
18
280
0
281
0
  0
CLASS
  1
RASTERVARIABLES
  2
AcDbRasterVariables
  3
ISM
 90
0
 91
0
280
0
281
0
  0
CLASS
  1
IMAGEDEF
  2
AcDbRasterImageDef
  3
ISM
 90
0
 91
0
280
0
281
0
  0
CLASS
  1
IMAGEDEF_REACTOR
  2
AcDbRasterImageDefReactor
  3
ISM
 90
1
 91
0
280
0
281
0
  0
CLASS
  1
IDBUFFER
  2
AcDbIdBuffer
  3
ObjectDBX Classes
 90
0
 91
0
280
0
281
0
  0
CLASS
  1
SPATIAL_FILTER
  2
AcDbSpatialFilter
  3
ObjectDBX Classes
 90
0
 91
0
280
0
281
0
  0
CLASS
  1
SORTENTSTABLE
  2
AcDbSortentsTable
  3
ObjectDBX Classes
 90
0
 91
0
280
0
281
0
  0
CLASS
  1
LAYER_INDEX
  2
AcDbLayerIndex
  3
ObjectDBX Classes
 90
0
 91
0
280
0
281
0
  0
CLASS
  1
SPATIAL_INDEX
  2
AcDbSpatialIndex
  3
ObjectDBX Classes
 90
0
 91
0
280
0
281
0
  0
CLASS
  1
OBJECT_PTR
  2
CAseDLPNTableRecord
  3
ASE-LPNTableRecord
 90
1
 91
0
280
0
281
0
  0
CLASS
  1
PLOTSETTINGS
  2
AcDbPlotSettings
  3
ObjectDBX Classes
 90
0
 91
0
280
0
281
0
  0
CLASS
  1
ACDBDICTIONARYWDFLT
  2
AcDbDictionaryWithDefault
  3
ObjectDBX Classes
 90
0
 91
1
280
0
281
0
  0
CLASS
  1
WIPEOUT
  2
AcDbWipeout
  3
WipeOut|Product Desc: Object Enabler for WipeOut entity | Company: Autodesk, Inc. | WEB Address: www.autodesk.com
 90
2175
 91
0
280
0
281
1
  0
CLASS
  1
WIPEOUTVARIABLES
  2
AcDbWipeoutVariables
  3
"WipeOut|Product Desc:     WipeOut Dbx Application|Company:          Autodesk, Inc.|WEB Address:      www.autodesk.com"
 90
0
 91
0
280
0
281
0
  0
CLASS
  1
RTEXT
  2
RText
  3
RText|AutoCAD Express Tool|expresstools@autodesk.com
 90
3071
 91
0
280
0
281
1
  0
CLASS
  1
ARCALIGNEDTEXT
  2
AcDbArcAlignedText
  3
ATEXT|AutoCAD Express Tool|expresstools@autodesk.com
 90
0
 91
0
280
0
281
1
  0
CLASS
  1
MATERIAL
  2
AcDbMaterial
  3
ObjectDBX Classes
 90
1153
 91
3
280
0
281
0
  0
CLASS
  1
VISUALSTYLE
  2
AcDbVisualStyle
  3
ObjectDBX Classes
 90
4095
 91
24
280
0
281
0
  0
CLASS
  1
TABLESTYLE
  2
AcDbTableStyle
  3
ObjectDBX Classes
 90
4095
 91
1
280
0
281
0
  0
CLASS
  1
SCALE
  2
AcDbScale
  3
ObjectDBX Classes
 90
1153
 91
17
280
0
281
0
  0
CLASS
  1
MLEADERSTYLE
  2
AcDbMLeaderStyle
  3
ACDB_MLEADERSTYLE_CLASS
 90
4095
 91
1
280
0
281
0
  0
CLASS
  1
ACDBSECTIONVIEWSTYLE
  2
AcDbSectionViewStyle
  3
ObjectDBX Classes
 90
1025
 91
1
280
0
281
0
  0
CLASS
  1
ACDBDETAILVIEWSTYLE
  2
AcDbDetailViewStyle
  3
ObjectDBX Classes
 90
1025
 91
1
280
0
281
0
  0
CLASS
  1
CELLSTYLEMAP
  2
AcDbCellStyleMap
  3
ObjectDBX Classes
 90
1152
 91
1
280
0
281
0
  0
CLASS
  1
SUN
  2
AcDbSun
  3
SCENEOE
 90
1153
 91
0
280
0
281
0
  0
CLASS
  1
MENTALRAYRENDERSETTINGS
  2
AcDbMentalRayRenderSettings
  3
SCENEOE
 90
1024
 91
0
280
0
281
0
  0
CLASS
  1
ACDBPLACEHOLDER
  2
AcDbPlaceHolder
  3
ObjectDBX Classes
 90
0
 91
0
280
0
281
0
  0
CLASS
  1
LAYOUT
  2
AcDbLayout
  3
ObjectDBX Classes
 90
0
 91
0
280
0
281
0
  0
ENDSEC
  0
SECTION
  2
TABLES
  0
TABLE
  2
VPORT
  5
7
330
0
100
AcDbSymbolTable
 70
1
  0
VPORT
  5
13
330
7
100
AcDbSymbolTableRecord
100
AcDbViewportTableRecord
  2
*ACTIVE
 70
0
 10
0.0
 20
0.0
 11
1.0
 21
1.0
 12
-18475.11099226572
 22
-4398.821011825202
 13
0.0
 23
0.0
 14
1.0
 24
1.0
 15
0.0
 25
0.0
 16
0.0
 26
0.0
 36
1.0
 17
0.0
 27
0.0
 37
0.0
 40
153408.4141307865
 41
2.065662002152852
 42
50.0
 43
0.0
 44
0.0
 50
0.0
 51
0.0
 71
0
 72
100
 73
1
 74
1
 75
0
 76
0
 77
0
 78
0
281
0
 65
1
110
0.0
120
0.0
130
0.0
111
1.0
121
0.0
131
0.0
112
0.0
122
1.0
132
0.0
 79
0
146
0.0
 60
3
 61
5
348
27642
292
1
282
1
141
0.0
142
0.0
 63
250
421
3355443
1001
ACAD_NAV_VCDISPLAY
1070
3
  0
ENDTAB
  0
TABLE
  2
LTYPE
  5
4
330
0
100
AcDbSymbolTable
 70
3
  0
LTYPE
  5
10
330
4
100
AcDbSymbolTableRecord
100
AcDbLinetypeTableRecord
  2
BYBLOCK
 70
0
  3

 72
65
 73
0
 40
0.0
  0
LTYPE
  5
11
330
4
100
AcDbSymbolTableRecord
100
AcDbLinetypeTableRecord
  2
BYLAYER
 70
0
  3

 72
65
 73
0
 40
0.0
  0
LTYPE
  5
12
330
4
100
AcDbSymbolTableRecord
100
AcDbLinetypeTableRecord
  2
CONTINUOUS
 70
0
  3
Solid Line
 72
65
 73
0
 40
0.0
  0
ENDTAB
  0
TABLE
  2
LAYER
  5
2
330
0
100
AcDbSymbolTable
 70
8
  0
LAYER
  5
6BE8
102
{ACAD_XDICTIONARY
360
27685
102
}
330
2
100
AcDbSymbolTableRecord
100
AcDbLayerTableRecord
  2
0
 70
0
 62
7
  6
CONTINUOUS
370
-3
390
27622
347
27634
348
0
  0
LAYER
  5
6BE9
102
{ACAD_XDICTIONARY
360
27687
102
}
330
2
100
AcDbSymbolTableRecord
100
AcDbLayerTableRecord
  2
PHOTOPLOT
 70
0
 62
199
  6
CONTINUOUS
370
-3
390
27622
347
27634
348
0
  0
LAYER
  5
6BEA
102
{ACAD_XDICTIONARY
360
27689
102
}
330
2
100
AcDbSymbolTableRecord
100
AcDbLayerTableRecord
  2
PIN_NOTATIONS
 70
0
 62
221
  6
CONTINUOUS
370
-3
390
27622
347
27634
348
0
  0
LAYER
  5
6BEB
102
{ACAD_XDICTIONARY
360
2768B
102
}
330
2
100
AcDbSymbolTableRecord
100
AcDbLayerTableRecord
  2
SOLDERMASK_PADS_BTM
 70
0
 62
12
  6
CONTINUOUS
370
-3
390
27622
347
27634
348
0
  0
LAYER
  5
6BEC
102
{ACAD_XDICTIONARY
360
2768D
102
}
330
2
100
AcDbSymbolTableRecord
100
AcDbLayerTableRecord
  2
TEXT_BSR
 70
0
 62
170
  6
CONTINUOUS
370
-3
390
27622
347
27634
348
0
  0
LAYER
  5
6BED
102
{ACAD_XDICTIONARY
360
2768F
102
}
330
2
100
AcDbSymbolTableRecord
100
AcDbLayerTableRecord
  2
PKG_OUTLINE
 70
0
 62
81
  6
CONTINUOUS
370
-3
390
27622
347
27634
348
0
  0
LAYER
  5
2769F
330
2
100
AcDbSymbolTableRecord
100
AcDbLayerTableRecord
  2
Defpoints
 70
0
 62
7
  6
Continuous
290
0
370
-3
390
27622
347
27634
  0
LAYER
  5
276A0
330
2
100
AcDbSymbolTableRecord
100
AcDbLayerTableRecord
  2
jigstreet
 70
0
 62
7
  6
Continuous
370
-3
390
27622
347
27634
  0
ENDTAB
  0
TABLE
  2
STYLE
  5
3
330
0
100
AcDbSymbolTable
 70
3
  0
STYLE
  5
6BEE
330
3
100
AcDbSymbolTableRecord
100
AcDbTextStyleTableRecord
  2
STANDARD
 70
0
 40
0.0
 41
1.0
 50
0.0
 71
0
 42
0.0
  3
txt
  4

  0
STYLE
  5
6BEF
330
3
100
AcDbSymbolTableRecord
100
AcDbTextStyleTableRecord
  2
ARIAL
 70
0
 40
0.0
 41
1.0
 50
0.0
 71
0
 42
0.0
  3
arial.ttf
  4

1001
ACAD
1000
Arial
1071
34
  0
STYLE
  5
6BF0
330
3
100
AcDbSymbolTableRecord
100
AcDbTextStyleTableRecord
  2
VF_STD
 70
0
 40
0.0
 41
1.0
 50
0.0
 71
0
 42
0.0
  3
txt
  4

  0
ENDTAB
  0
TABLE
  2
VIEW
  5
5
330
0
100
AcDbSymbolTable
 70
0
  0
ENDTAB
  0
TABLE
  2
UCS
  5
6
330
0
100
AcDbSymbolTable
 70
0
  0
ENDTAB
  0
TABLE
  2
APPID
  5
8
330
0
100
AcDbSymbolTable
 70
4
  0
APPID
  5
14
330
8
100
AcDbSymbolTableRecord
100
AcDbRegAppTableRecord
  2
ACAD
 70
0
  0
APPID
  5
27678
330
8
100
AcDbSymbolTableRecord
100
AcDbRegAppTableRecord
  2
DCO15
 70
0
  0
APPID
  5
2767A
330
8
100
AcDbSymbolTableRecord
100
AcDbRegAppTableRecord
  2
ACAD_NAV_VCDISPLAY
 70
0
  0
APPID
  5
276A5
330
8
100
AcDbSymbolTableRecord
100
AcDbRegAppTableRecord
  2
HATCHBACKGROUNDCOLOR
 70
0
  0
ENDTAB
  0
TABLE
  2
DIMSTYLE
  5
9
330
0
100
AcDbSymbolTable
 70
1
100
AcDbDimStyleTable
  0
DIMSTYLE
105
15
330
9
100
AcDbSymbolTableRecord
100
AcDbDimStyleTableRecord
  2
STANDARD
 70
0
 40
1.0
 41
2.5
 42
0.625
 43
3.75
 44
1.25
 45
0.0
 46
0.0
 47
0.0
 48
0.0
 49
2.5
140
2.5
141
2.5
142
0.0
143
0.03937007874
144
1.0
145
0.0
146
1.0
147
0.625
148
0.0
 69
0
 70
0
 71
0
 72
0
 73
0
 74
0
 75
0
 76
0
 77
1
 78
8
 79
0
170
0
171
3
172
1
173
0
174
0
175
0
176
0
177
0
178
0
179
0
271
0
272
2
273
2
274
3
275
0
276
0
277
2
278
44
279
0
280
0
281
0
282
0
283
0
284
8
285
0
286
0
288
0
289
3
290
0
371
-2
372
-2
  0
ENDTAB
  0
TABLE
  2
BLOCK_RECORD
  5
1
330
0
100
AcDbSymbolTable
 70
2
  0
BLOCK_RECORD
  5
A
330
1
100
AcDbSymbolTableRecord
100
AcDbBlockTableRecord
  2
*MODEL_SPACE
340
27672
 70
0
280
1
281
0
  0
BLOCK_RECORD
  5
B
330
1
100
AcDbSymbolTableRecord
100
AcDbBlockTableRecord
  2
*PAPER_SPACE
340
27673
 70
0
280
1
281
0
  0
ENDTAB
  0
ENDSEC
  0
SECTION
  2
BLOCKS
  0
BLOCK
  5
C
330
A
100
AcDbEntity
  8
0
100
AcDbBlockBegin
  2
*MODEL_SPACE
 70
0
 10
0.0
 20
0.0
 30
0.0
  3
*MODEL_SPACE
  1

  0
ENDBLK
  5
D
330
A
100
AcDbEntity
  8
0
100
AcDbBlockEnd
  0
BLOCK
  5
E
330
B
100
AcDbEntity
 67
1
  8
0
100
AcDbBlockBegin
  2
*PAPER_SPACE
 70
0
 10
0.0
 20
0.0
 30
0.0
  3
*PAPER_SPACE
  1

  0
ENDBLK
  5
F
330
B
100
AcDbEntity
 67
1
  8
0
100
AcDbBlockEnd
  0
ENDSEC
  0
SECTION
  2
ENTITIES
  0
SOLID
  5
122
330
A
100
AcDbEntity
  8
SOLDERMASK_PADS_BTM
100
AcDbTrace
 10
11100.0
 20
-130.0
 30
0.0
 11
11420.0
 21
-130.0
 31
0.0
 12
11100.0
 22
230.0
 32
0.0
 13
11420.0
 23
230.0
 33
0.0
  0
SOLID
  5
123
330
A
100
AcDbEntity
  8
SOLDERMASK_PADS_BTM
100
AcDbTrace
 10
10580.0
 20
-130.0
 30
0.0
 11
10900.0
 21
-130.0
 31
0.0
 12
10580.0
 22
230.0
 32
0.0
 13
10900.0
 23
230.0
 33
0.0
  0
LWPOLYLINE
  5
124
330
A
100
AcDbEntity
  8
SOLDERMASK_PADS_BTM
100
AcDbPolyline
 90
4
 70
1
 10
-9630.294000000002
 20
-274.264
 10
-9856.568000000001
 20
-47.99
 10
-9602.009999999998
 20
206.568
 10
-9375.735999999999
 20
-19.706
  0
HATCH
  5
125
330
A
100
AcDbEntity
  8
SOLDERMASK_PADS_BTM
100
AcDbHatch
 10
0.0
 20
0.0
 30
0.0
210
0.0
220
0.0
230
1.0
  2
SOLID
 70
1
 71
1
 91
1
 92
2
 72
0
 73
1
 93
4
 10
-9630.294000000002
 20
-274.264
 10
-9856.568000000001
 20
-47.99
 10
-9602.009999999998
 20
206.568
 10
-9375.735999999999
 20
-19.706
 97
1
330
292
 75
0
 76
1
 98
1
 10
0.0
 20
0.0
450
0
451
0
460
0.0
461
0.0
452
0
462
0.0
453
2
463
0
421
0
463
1
421
16777215
470

  0
LWPOLYLINE
  5
126
330
A
100
AcDbEntity
  8
SOLDERMASK_PADS_BTM
100
AcDbPolyline
 90
4
 70
1
 10
-9997.990000000002
 20
93.43200000000002
 10
-10224.264
 20
319.706
 10
-9969.706000000002
 20
574.264
 10
-9743.431999999999
 20
347.99
  0
HATCH
  5
127
330
A
100
AcDbEntity
  8
SOLDERMASK_PADS_BTM
100
AcDbHatch
 10
0.0
 20
0.0
 30
0.0
210
0.0
220
0.0
230
1.0
  2
SOLID
 70
1
 71
1
 91
1
 92
2
 72
0
 73
1
 93
4
 10
-9997.990000000002
 20
93.43200000000002
 10
-10224.264
 20
319.706
 10
-9969.706000000002
 20
574.264
 10
-9743.431999999999
 20
347.99
 97
1
330
294
 75
0
 76
1
 98
1
 10
0.0
 20
0.0
450
0
451
0
460
0.0
461
0.0
452
0
462
0.0
453
2
463
0
421
0
463
1
421
16777215
470

  0
SOLID
  5
128
330
A
100
AcDbEntity
  8
SOLDERMASK_PADS_BTM
100
AcDbTrace
 10
-7950.0
 20
-109.289
 30
0.0
 11
-7630.0
 21
-109.289
 31
0.0
 12
-7950.0
 22
250.711
 32
0.0
 13
-7630.0
 23
250.711
 33
0.0
  0
SOLID
  5
129
330
A
100
AcDbEntity
  8
SOLDERMASK_PADS_BTM
100
AcDbTrace
 10
-8470.0
 20
-109.289
 30
0.0
 11
-8150.0
 21
-109.289
 31
0.0
 12
-8470.0
 22
250.711
 32
0.0
 13
-8150.0
 23
250.711
 33
0.0
  0
SOLID
  5
12A
330
A
100
AcDbEntity
  8
SOLDERMASK_PADS_BTM
100
AcDbTrace
 10
-11230.0
 20
-299.289
 30
0.0
 11
-10870.0
 21
-299.289
 31
0.0
 12
-11230.0
 22
20.711
 32
0.0
 13
-10870.0
 23
20.711
 33
0.0
  0
SOLID
  5
12B
330
A
100
AcDbEntity
  8
SOLDERMASK_PADS_BTM
100
AcDbTrace
 10
-11230.0
 20
220.711
 30
0.0
 11
-10870.0
 21
220.711
 31
0.0
 12
-11230.0
 22
540.711
 32
0.0
 13
-10870.0
 23
540.711
 33
0.0
  0
SOLID
  5
12C
330
A
100
AcDbEntity
  8
SOLDERMASK_PADS_BTM
100
AcDbTrace
 10
7820.0
 20
-320.0
 30
0.0
 11
8180.0
 21
-320.0
 31
0.0
 12
7820.0
 22
0.0
 32
0.0
 13
8180.0
 23
0.0
 33
0.0
  0
SOLID
  5
12D
330
A
100
AcDbEntity
  8
SOLDERMASK_PADS_BTM
100
AcDbTrace
 10
7820.0
 20
200.0
 30
0.0
 11
8180.0
 21
200.0
 31
0.0
 12
7820.0
 22
520.0
 32
0.0
 13
8180.0
 23
520.0
 33
0.0
  0
CIRCLE
  5
12E
330
A
100
AcDbEntity
  8
SOLDERMASK_PADS_BTM
100
AcDbCircle
 10
-13059.529
 20
-4635.086
 30
0.0
 40
250.0
  0
HATCH
  5
12F
330
A
100
AcDbEntity
  8
SOLDERMASK_PADS_BTM
100
AcDbHatch
 10
0.0
 20
0.0
 30
0.0
210
0.0
220
0.0
230
1.0
  2
SOLID
 70
1
 71
1
 91
1
 92
1
 93
1
 72
2
 10
-13059.529
 20
-4635.086
 40
250.0
 50
0.0
 51
360.0
 73
0
 97
1
330
302
 75
0
 76
1
 98
1
 10
0.0
 20
0.0
450
0
451
0
460
0.0
461
0.0
452
0
462
0.0
453
2
463
0
421
0
463
1
421
16777215
470

  0
CIRCLE
  5
130
330
A
100
AcDbEntity
  8
SOLDERMASK_PADS_BTM
100
AcDbCircle
 10
-5982.874999999999
 20
4717.728
 30
0.0
 40
250.0
  0
HATCH
  5
131
330
A
100
AcDbEntity
  8
SOLDERMASK_PADS_BTM
100
AcDbHatch
 10
0.0
 20
0.0
 30
0.0
210
0.0
220
0.0
230
1.0
  2
SOLID
 70
1
 71
1
 91
1
 92
1
 93
1
 72
2
 10
-5982.874999999999
 20
4717.728
 40
250.0
 50
0.0
 51
360.0
 73
0
 97
1
330
304
 75
0
 76
1
 98
1
 10
0.0
 20
0.0
450
0
451
0
460
0.0
461
0.0
452
0
462
0.0
453
2
463
0
421
0
463
1
421
16777215
470

  0
CIRCLE
  5
132
330
A
100
AcDbEntity
  8
SOLDERMASK_PADS_BTM
100
AcDbCircle
 10
6046.259
 20
-4737.244
 30
0.0
 40
250.0
  0
HATCH
  5
133
330
A
100
AcDbEntity
  8
SOLDERMASK_PADS_BTM
100
AcDbHatch
 10
0.0
 20
0.0
 30
0.0
210
0.0
220
0.0
230
1.0
  2
SOLID
 70
1
 71
1
 91
1
 92
1
 93
1
 72
2
 10
6046.259
 20
-4737.244
 40
250.0
 50
0.0
 51
360.0
 73
0
 97
1
330
306
 75
0
 76
1
 98
1
 10
0.0
 20
0.0
450
0
451
0
460
0.0
461
0.0
452
0
462
0.0
453
2
463
0
421
0
463
1
421
16777215
470

  0
CIRCLE
  5
134
330
A
100
AcDbEntity
  8
SOLDERMASK_PADS_BTM
100
AcDbCircle
 10
13100.136
 20
4621.234
 30
0.0
 40
250.0
  0
HATCH
  5
135
330
A
100
AcDbEntity
  8
SOLDERMASK_PADS_BTM
100
AcDbHatch
 10
0.0
 20
0.0
 30
0.0
210
0.0
220
0.0
230
1.0
  2
SOLID
 70
1
 71
1
 91
1
 92
1
 93
1
 72
2
 10
13100.136
 20
4621.234
 40
250.0
 50
0.0
 51
360.0
 73
0
 97
1
330
308
 75
0
 76
1
 98
1
 10
0.0
 20
0.0
450
0
451
0
460
0.0
461
0.0
452
0
462
0.0
453
2
463
0
421
0
463
1
421
16777215
470

  0
LWPOLYLINE
  5
136
330
A
100
AcDbEntity
  8
SOLDERMASK_PADS_BTM
100
AcDbPolyline
 90
3
 70
1
 10
45780.0
 20
-45280.0
 10
45780.0
 20
-45780.0
 10
45280.0
 20
-45780.0
  0
HATCH
  5
137
330
A
100
AcDbEntity
  8
SOLDERMASK_PADS_BTM
100
AcDbHatch
 10
0.0
 20
0.0
 30
0.0
210
0.0
220
0.0
230
1.0
  2
SOLID
 70
1
 71
1
 91
1
 92
2
 72
0
 73
1
 93
3
 10
45780.0
 20
-45280.0
 10
45780.0
 20
-45780.0
 10
45280.0
 20
-45780.0
 97
1
330
310
 75
0
 76
1
 98
1
 10
0.0
 20
0.0
450
0
451
0
460
0.0
461
0.0
452
0
462
0.0
453
2
463
0
421
0
463
1
421
16777215
470

  0
CIRCLE
  5
1976
330
A
100
AcDbEntity
  8
SOLDERMASK_PADS_BTM
100
AcDbCircle
 10
14444.7
 20
-6248.94
 30
0.0
 40
200.0
  0
HATCH
  5
1977
330
A
100
AcDbEntity
  8
SOLDERMASK_PADS_BTM
100
AcDbHatch
 10
0.0
 20
0.0
 30
0.0
210
0.0
220
0.0
230
1.0
  2
SOLID
 70
1
 71
1
 91
1
 92
1
 93
1
 72
2
 10
14444.7
 20
-6248.94
 40
200.0
 50
0.0
 51
360.0
 73
0
 97
1
330
6518
 75
0
 76
1
 98
1
 10
0.0
 20
0.0
450
0
451
0
460
0.0
461
0.0
452
0
462
0.0
453
2
463
0
421
0
463
1
421
16777215
470

  0
CIRCLE
  5
1978
330
A
100
AcDbEntity
  8
SOLDERMASK_PADS_BTM
100
AcDbCircle
 10
13644.7
 20
-6248.94
 30
0.0
 40
200.0
  0
HATCH
  5
1979
330
A
100
AcDbEntity
  8
SOLDERMASK_PADS_BTM
100
AcDbHatch
 10
0.0
 20
0.0
 30
0.0
210
0.0
220
0.0
230
1.0
  2
SOLID
 70
1
 71
1
 91
1
 92
1
 93
1
 72
2
 10
13644.7
 20
-6248.94
 40
200.0
 50
0.0
 51
360.0
 73
0
 97
1
330
6520
 75
0
 76
1
 98
1
 10
0.0
 20
0.0
450
0
451
0
460
0.0
461
0.0
452
0
462
0.0
453
2
463
0
421
0
463
1
421
16777215
470

  0
CIRCLE
  5
197A
330
A
100
AcDbEntity
  8
SOLDERMASK_PADS_BTM
100
AcDbCircle
 10
-13676.5
 20
-6248.94
 30
0.0
 40
200.0
  0
HATCH
  5
197B
330
A
100
AcDbEntity
  8
SOLDERMASK_PADS_BTM
100
AcDbHatch
 10
0.0
 20
0.0
 30
0.0
210
0.0
220
0.0
230
1.0
  2
SOLID
 70
1
 71
1
 91
1
 92
1
 93
1
 72
2
 10
-13676.5
 20
-6248.94
 40
200.0
 50
0.0
 51
360.0
 73
0
 97
1
330
6522
 75
0
 76
1
 98
1
 10
0.0
 20
0.0
450
0
451
0
460
0.0
461
0.0
452
0
462
0.0
453
2
463
0
421
0
463
1
421
16777215
470

  0
CIRCLE
  5
197C
330
A
100
AcDbEntity
  8
SOLDERMASK_PADS_BTM
100
AcDbCircle
 10
-14476.5
 20
-6248.94
 30
0.0
 40
200.0
  0
HATCH
  5
197D
330
A
100
AcDbEntity
  8
SOLDERMASK_PADS_BTM
100
AcDbHatch
 10
0.0
 20
0.0
 30
0.0
210
0.0
220
0.0
230
1.0
  2
SOLID
 70
1
 71
1
 91
1
 92
1
 93
1
 72
2
 10
-14476.5
 20
-6248.94
 40
200.0
 50
0.0
 51
360.0
 73
0
 97
1
330
6524
 75
0
 76
1
 98
1
 10
0.0
 20
0.0
450
0
451
0
460
0.0
461
0.0
452
0
462
0.0
453
2
463
0
421
0
463
1
421
16777215
470

  0
CIRCLE
  5
1A0A
330
A
100
AcDbEntity
  8
SOLDERMASK_PADS_BTM
100
AcDbCircle
 10
14844.7
 20
-5556.119999999999
 30
0.0
 40
200.0
  0
HATCH
  5
1A0B
330
A
100
AcDbEntity
  8
SOLDERMASK_PADS_BTM
100
AcDbHatch
 10
0.0
 20
0.0
 30
0.0
210
0.0
220
0.0
230
1.0
  2
SOLID
 70
1
 71
1
 91
1
 92
1
 93
1
 72
2
 10
14844.7
 20
-5556.119999999999
 40
200.0
 50
0.0
 51
360.0
 73
0
 97
1
330
6666
 75
0
 76
1
 98
1
 10
0.0
 20
0.0
450
0
451
0
460
0.0
461
0.0
452
0
462
0.0
453
2
463
0
421
0
463
1
421
16777215
470

  0
CIRCLE
  5
1A0C
330
A
100
AcDbEntity
  8
SOLDERMASK_PADS_BTM
100
AcDbCircle
 10
14044.7
 20
-5556.121
 30
0.0
 40
200.0
  0
HATCH
  5
1A0D
330
A
100
AcDbEntity
  8
SOLDERMASK_PADS_BTM
100
AcDbHatch
 10
0.0
 20
0.0
 30
0.0
210
0.0
220
0.0
230
1.0
  2
SOLID
 70
1
 71
1
 91
1
 92
1
 93
1
 72
2
 10
14044.7
 20
-5556.121
 40
200.0
 50
0.0
 51
360.0
 73
0
 97
1
330
6668
 75
0
 76
1
 98
1
 10
0.0
 20
0.0
450
0
451
0
460
0.0
461
0.0
452
0
462
0.0
453
2
463
0
421
0
463
1
421
16777215
470

  0
CIRCLE
  5
1A90
330
A
100
AcDbEntity
  8
SOLDERMASK_PADS_BTM
100
AcDbCircle
 10
14444.7
 20
-4863.3
 30
0.0
 40
200.0
  0
HATCH
  5
1A91
330
A
100
AcDbEntity
  8
SOLDERMASK_PADS_BTM
100
AcDbHatch
 10
0.0
 20
0.0
 30
0.0
210
0.0
220
0.0
230
1.0
  2
SOLID
 70
1
 71
1
 91
1
 92
1
 93
1
 72
2
 10
14444.7
 20
-4863.3
 40
200.0
 50
0.0
 51
360.0
 73
0
 97
1
330
6800
 75
0
 76
1
 98
1
 10
0.0
 20
0.0
450
0
451
0
460
0.0
461
0.0
452
0
462
0.0
453
2
463
0
421
0
463
1
421
16777215
470

  0
CIRCLE
  5
1DA4
330
A
100
AcDbEntity
  8
SOLDERMASK_PADS_BTM
100
AcDbCircle
 10
14444.7
 20
-2092.02
 30
0.0
 40
200.0
  0
HATCH
  5
1DA5
330
A
100
AcDbEntity
  8
SOLDERMASK_PADS_BTM
100
AcDbHatch
 10
0.0
 20
0.0
 30
0.0
210
0.0
220
0.0
230
1.0
  2
SOLID
 70
1
 71
1
 91
1
 92
1
 93
1
 72
2
 10
14444.7
 20
-2092.02
 40
200.0
 50
0.0
 51
360.0
 73
0
 97
1
330
7588
 75
0
 76
1
 98
1
 10
0.0
 20
0.0
450
0
451
0
460
0.0
461
0.0
452
0
462
0.0
453
2
463
0
421
0
463
1
421
16777215
470

  0
CIRCLE
  5
1E22
330
A
100
AcDbEntity
  8
SOLDERMASK_PADS_BTM
100
AcDbCircle
 10
14844.7
 20
-1399.2
 30
0.0
 40
200.0
  0
HATCH
  5
1E23
330
A
100
AcDbEntity
  8
SOLDERMASK_PADS_BTM
100
AcDbHatch
 10
0.0
 20
0.0
 30
0.0
210
0.0
220
0.0
230
1.0
  2
SOLID
 70
1
 71
1
 91
1
 92
1
 93
1
 72
2
 10
14844.7
 20
-1399.2
 40
200.0
 50
0.0
 51
360.0
 73
0
 97
1
330
7714
 75
0
 76
1
 98
1
 10
0.0
 20
0.0
450
0
451
0
460
0.0
461
0.0
452
0
462
0.0
453
2
463
0
421
0
463
1
421
16777215
470

  0
CIRCLE
  5
1E24
330
A
100
AcDbEntity
  8
SOLDERMASK_PADS_BTM
100
AcDbCircle
 10
14044.7
 20
-1399.2
 30
0.0
 40
200.0
  0
HATCH
  5
1E25
330
A
100
AcDbEntity
  8
SOLDERMASK_PADS_BTM
100
AcDbHatch
 10
0.0
 20
0.0
 30
0.0
210
0.0
220
0.0
230
1.0
  2
SOLID
 70
1
 71
1
 91
1
 92
1
 93
1
 72
2
 10
14044.7
 20
-1399.2
 40
200.0
 50
0.0
 51
360.0
 73
0
 97
1
330
7716
 75
0
 76
1
 98
1
 10
0.0
 20
0.0
450
0
451
0
460
0.0
461
0.0
452
0
462
0.0
453
2
463
0
421
0
463
1
421
16777215
470

  0
CIRCLE
  5
1E9E
330
A
100
AcDbEntity
  8
SOLDERMASK_PADS_BTM
100
AcDbCircle
 10
14444.7
 20
-706.38
 30
0.0
 40
200.0
  0
HATCH
  5
1E9F
330
A
100
AcDbEntity
  8
SOLDERMASK_PADS_BTM
100
AcDbHatch
 10
0.0
 20
0.0
 30
0.0
210
0.0
220
0.0
230
1.0
  2
SOLID
 70
1
 71
1
 91
1
 92
1
 93
1
 72
2
 10
14444.7
 20
-706.38
 40
200.0
 50
0.0
 51
360.0
 73
0
 97
1
330
7838
 75
0
 76
1
 98
1
 10
0.0
 20
0.0
450
0
451
0
460
0.0
461
0.0
452
0
462
0.0
453
2
463
0
421
0
463
1
421
16777215
470

  0
CIRCLE
  5
1F0C
330
A
100
AcDbEntity
  8
SOLDERMASK_PADS_BTM
100
AcDbCircle
 10
14844.7
 20
-13.559
 30
0.0
 40
200.0
  0
HATCH
  5
1F0D
330
A
100
AcDbEntity
  8
SOLDERMASK_PADS_BTM
100
AcDbHatch
 10
0.0
 20
0.0
 30
0.0
210
0.0
220
0.0
230
1.0
  2
SOLID
 70
1
 71
1
 91
1
 92
1
 93
1
 72
2
 10
14844.7
 20
-13.559
 40
200.0
 50
0.0
 51
360.0
 73
0
 97
1
330
7948
 75
0
 76
1
 98
1
 10
0.0
 20
0.0
450
0
451
0
460
0.0
461
0.0
452
0
462
0.0
453
2
463
0
421
0
463
1
421
16777215
470

  0
CIRCLE
  5
1F0E
330
A
100
AcDbEntity
  8
SOLDERMASK_PADS_BTM
100
AcDbCircle
 10
14044.7
 20
-13.56
 30
0.0
 40
200.0
  0
HATCH
  5
1F0F
330
A
100
AcDbEntity
  8
SOLDERMASK_PADS_BTM
100
AcDbHatch
 10
0.0
 20
0.0
 30
0.0
210
0.0
220
0.0
230
1.0
  2
SOLID
 70
1
 71
1
 91
1
 92
1
 93
1
 72
2
 10
14044.7
 20
-13.56
 40
200.0
 50
0.0
 51
360.0
 73
0
 97
1
330
7950
 75
0
 76
1
 98
1
 10
0.0
 20
0.0
450
0
451
0
460
0.0
461
0.0
452
0
462
0.0
453
2
463
0
421
0
463
1
421
16777215
470

  0
CIRCLE
  5
1F70
330
A
100
AcDbEntity
  8
SOLDERMASK_PADS_BTM
100
AcDbCircle
 10
14444.7
 20
679.26
 30
0.0
 40
200.0
  0
HATCH
  5
1F71
330
A
100
AcDbEntity
  8
SOLDERMASK_PADS_BTM
100
AcDbHatch
 10
0.0
 20
0.0
 30
0.0
210
0.0
220
0.0
230
1.0
  2
SOLID
 70
1
 71
1
 91
1
 92
1
 93
1
 72
2
 10
14444.7
 20
679.26
 40
200.0
 50
0.0
 51
360.0
 73
0
 97
1
330
8048
 75
0
 76
1
 98
1
 10
0.0
 20
0.0
450
0
451
0
460
0.0
461
0.0
452
0
462
0.0
453
2
463
0
421
0
463
1
421
16777215
470

  0
CIRCLE
  5
1FCA
330
A
100
AcDbEntity
  8
SOLDERMASK_PADS_BTM
100
AcDbCircle
 10
14844.7
 20
1372.08
 30
0.0
 40
200.0
  0
HATCH
  5
1FCB
330
A
100
AcDbEntity
  8
SOLDERMASK_PADS_BTM
100
AcDbHatch
 10
0.0
 20
0.0
 30
0.0
210
0.0
220
0.0
230
1.0
  2
SOLID
 70
1
 71
1
 91
1
 92
1
 93
1
 72
2
 10
14844.7
 20
1372.08
 40
200.0
 50
0.0
 51
360.0
 73
0
 97
1
330
8138
 75
0
 76
1
 98
1
 10
0.0
 20
0.0
450
0
451
0
460
0.0
461
0.0
452
0
462
0.0
453
2
463
0
421
0
463
1
421
16777215
470

  0
CIRCLE
  5
1FCC
330
A
100
AcDbEntity
  8
SOLDERMASK_PADS_BTM
100
AcDbCircle
 10
14044.701
 20
1372.08
 30
0.0
 40
200.0
  0
HATCH
  5
1FCD
330
A
100
AcDbEntity
  8
SOLDERMASK_PADS_BTM
100
AcDbHatch
 10
0.0
 20
0.0
 30
0.0
210
0.0
220
0.0
230
1.0
  2
SOLID
 70
1
 71
1
 91
1
 92
1
 93
1
 72
2
 10
14044.701
 20
1372.08
 40
200.0
 50
0.0
 51
360.0
 73
0
 97
1
330
8140
 75
0
 76
1
 98
1
 10
0.0
 20
0.0
450
0
451
0
460
0.0
461
0.0
452
0
462
0.0
453
2
463
0
421
0
463
1
421
16777215
470

  0
CIRCLE
  5
202E
330
A
100
AcDbEntity
  8
SOLDERMASK_PADS_BTM
100
AcDbCircle
 10
14444.7
 20
2064.9
 30
0.0
 40
200.0
  0
HATCH
  5
202F
330
A
100
AcDbEntity
  8
SOLDERMASK_PADS_BTM
100
AcDbHatch
 10
0.0
 20
0.0
 30
0.0
210
0.0
220
0.0
230
1.0
  2
SOLID
 70
1
 71
1
 91
1
 92
1
 93
1
 72
2
 10
14444.7
 20
2064.9
 40
200.0
 50
0.0
 51
360.0
 73
0
 97
1
330
8238
 75
0
 76
1
 98
1
 10
0.0
 20
0.0
450
0
451
0
460
0.0
461
0.0
452
0
462
0.0
453
2
463
0
421
0
463
1
421
16777215
470

  0
CIRCLE
  5
2090
330
A
100
AcDbEntity
  8
SOLDERMASK_PADS_BTM
100
AcDbCircle
 10
14844.701
 20
2757.72
 30
0.0
 40
200.0
  0
HATCH
  5
2091
330
A
100
AcDbEntity
  8
SOLDERMASK_PADS_BTM
100
AcDbHatch
 10
0.0
 20
0.0
 30
0.0
210
0.0
220
0.0
230
1.0
  2
SOLID
 70
1
 71
1
 91
1
 92
1
 93
1
 72
2
 10
14844.701
 20
2757.72
 40
200.0
 50
0.0
 51
360.0
 73
0
 97
1
330
8336
 75
0
 76
1
 98
1
 10
0.0
 20
0.0
450
0
451
0
460
0.0
461
0.0
452
0
462
0.0
453
2
463
0
421
0
463
1
421
16777215
470

  0
CIRCLE
  5
2092
330
A
100
AcDbEntity
  8
SOLDERMASK_PADS_BTM
100
AcDbCircle
 10
14044.7
 20
2757.72
 30
0.0
 40
200.0
  0
HATCH
  5
2093
330
A
100
AcDbEntity
  8
SOLDERMASK_PADS_BTM
100
AcDbHatch
 10
0.0
 20
0.0
 30
0.0
210
0.0
220
0.0
230
1.0
  2
SOLID
 70
1
 71
1
 91
1
 92
1
 93
1
 72
2
 10
14044.7
 20
2757.72
 40
200.0
 50
0.0
 51
360.0
 73
0
 97
1
330
8338
 75
0
 76
1
 98
1
 10
0.0
 20
0.0
450
0
451
0
460
0.0
461
0.0
452
0
462
0.0
453
2
463
0
421
0
463
1
421
16777215
470

  0
CIRCLE
  5
20E8
330
A
100
AcDbEntity
  8
SOLDERMASK_PADS_BTM
100
AcDbCircle
 10
14444.7
 20
3450.54
 30
0.0
 40
200.0
  0
HATCH
  5
20E9
330
A
100
AcDbEntity
  8
SOLDERMASK_PADS_BTM
100
AcDbHatch
 10
0.0
 20
0.0
 30
0.0
210
0.0
220
0.0
230
1.0
  2
SOLID
 70
1
 71
1
 91
1
 92
1
 93
1
 72
2
 10
14444.7
 20
3450.54
 40
200.0
 50
0.0
 51
360.0
 73
0
 97
1
330
8424
 75
0
 76
1
 98
1
 10
0.0
 20
0.0
450
0
451
0
460
0.0
461
0.0
452
0
462
0.0
453
2
463
0
421
0
463
1
421
16777215
470

  0
CIRCLE
  5
2132
330
A
100
AcDbEntity
  8
SOLDERMASK_PADS_BTM
100
AcDbCircle
 10
14844.7
 20
4143.36
 30
0.0
 40
200.0
  0
HATCH
  5
2133
330
A
100
AcDbEntity
  8
SOLDERMASK_PADS_BTM
100
AcDbHatch
 10
0.0
 20
0.0
 30
0.0
210
0.0
220
0.0
230
1.0
  2
SOLID
 70
1
 71
1
 91
1
 92
1
 93
1
 72
2
 10
14844.7
 20
4143.36
 40
200.0
 50
0.0
 51
360.0
 73
0
 97
1
330
8498
 75
0
 76
1
 98
1
 10
0.0
 20
0.0
450
0
451
0
460
0.0
461
0.0
452
0
462
0.0
453
2
463
0
421
0
463
1
421
16777215
470

  0
CIRCLE
  5
2134
330
A
100
AcDbEntity
  8
SOLDERMASK_PADS_BTM
100
AcDbCircle
 10
14044.701
 20
4143.36
 30
0.0
 40
200.0
  0
HATCH
  5
2135
330
A
100
AcDbEntity
  8
SOLDERMASK_PADS_BTM
100
AcDbHatch
 10
0.0
 20
0.0
 30
0.0
210
0.0
220
0.0
230
1.0
  2
SOLID
 70
1
 71
1
 91
1
 92
1
 93
1
 72
2
 10
14044.701
 20
4143.36
 40
200.0
 50
0.0
 51
360.0
 73
0
 97
1
330
8500
 75
0
 76
1
 98
1
 10
0.0
 20
0.0
450
0
451
0
460
0.0
461
0.0
452
0
462
0.0
453
2
463
0
421
0
463
1
421
16777215
470

  0
CIRCLE
  5
218E
330
A
100
AcDbEntity
  8
SOLDERMASK_PADS_BTM
100
AcDbCircle
 10
14444.7
 20
4836.18
 30
0.0
 40
200.0
  0
HATCH
  5
218F
330
A
100
AcDbEntity
  8
SOLDERMASK_PADS_BTM
100
AcDbHatch
 10
0.0
 20
0.0
 30
0.0
210
0.0
220
0.0
230
1.0
  2
SOLID
 70
1
 71
1
 91
1
 92
1
 93
1
 72
2
 10
14444.7
 20
4836.18
 40
200.0
 50
0.0
 51
360.0
 73
0
 97
1
330
8590
 75
0
 76
1
 98
1
 10
0.0
 20
0.0
450
0
451
0
460
0.0
461
0.0
452
0
462
0.0
453
2
463
0
421
0
463
1
421
16777215
470

  0
CIRCLE
  5
21FA
330
A
100
AcDbEntity
  8
SOLDERMASK_PADS_BTM
100
AcDbCircle
 10
14844.7
 20
5528.998999999999
 30
0.0
 40
200.0
  0
HATCH
  5
21FB
330
A
100
AcDbEntity
  8
SOLDERMASK_PADS_BTM
100
AcDbHatch
 10
0.0
 20
0.0
 30
0.0
210
0.0
220
0.0
230
1.0
  2
SOLID
 70
1
 71
1
 91
1
 92
1
 93
1
 72
2
 10
14844.7
 20
5528.998999999999
 40
200.0
 50
0.0
 51
360.0
 73
0
 97
1
330
8698
 75
0
 76
1
 98
1
 10
0.0
 20
0.0
450
0
451
0
460
0.0
461
0.0
452
0
462
0.0
453
2
463
0
421
0
463
1
421
16777215
470

  0
CIRCLE
  5
21FC
330
A
100
AcDbEntity
  8
SOLDERMASK_PADS_BTM
100
AcDbCircle
 10
14044.7
 20
5529.0
 30
0.0
 40
200.0
  0
HATCH
  5
21FD
330
A
100
AcDbEntity
  8
SOLDERMASK_PADS_BTM
100
AcDbHatch
 10
0.0
 20
0.0
 30
0.0
210
0.0
220
0.0
230
1.0
  2
SOLID
 70
1
 71
1
 91
1
 92
1
 93
1
 72
2
 10
14044.7
 20
5529.0
 40
200.0
 50
0.0
 51
360.0
 73
0
 97
1
330
8700
 75
0
 76
1
 98
1
 10
0.0
 20
0.0
450
0
451
0
460
0.0
461
0.0
452
0
462
0.0
453
2
463
0
421
0
463
1
421
16777215
470

  0
CIRCLE
  5
226A
330
A
100
AcDbEntity
  8
SOLDERMASK_PADS_BTM
100
AcDbCircle
 10
14444.7
 20
6221.82
 30
0.0
 40
200.0
  0
HATCH
  5
226B
330
A
100
AcDbEntity
  8
SOLDERMASK_PADS_BTM
100
AcDbHatch
 10
0.0
 20
0.0
 30
0.0
210
0.0
220
0.0
230
1.0
  2
SOLID
 70
1
 71
1
 91
1
 92
1
 93
1
 72
2
 10
14444.7
 20
6221.82
 40
200.0
 50
0.0
 51
360.0
 73
0
 97
1
330
8810
 75
0
 76
1
 98
1
 10
0.0
 20
0.0
450
0
451
0
460
0.0
461
0.0
452
0
462
0.0
453
2
463
0
421
0
463
1
421
16777215
470

  0
CIRCLE
  5
226C
330
A
100
AcDbEntity
  8
SOLDERMASK_PADS_BTM
100
AcDbCircle
 10
13644.7
 20
6221.82
 30
0.0
 40
200.0
  0
HATCH
  5
226D
330
A
100
AcDbEntity
  8
SOLDERMASK_PADS_BTM
100
AcDbHatch
 10
0.0
 20
0.0
 30
0.0
210
0.0
220
0.0
230
1.0
  2
SOLID
 70
1
 71
1
 91
1
 92
1
 93
1
 72
2
 10
13644.7
 20
6221.82
 40
200.0
 50
0.0
 51
360.0
 73
0
 97
1
330
8812
 75
0
 76
1
 98
1
 10
0.0
 20
0.0
450
0
451
0
460
0.0
461
0.0
452
0
462
0.0
453
2
463
0
421
0
463
1
421
16777215
470

  0
CIRCLE
  5
226E
330
A
100
AcDbEntity
  8
SOLDERMASK_PADS_BTM
100
AcDbCircle
 10
12844.7
 20
6221.821
 30
0.0
 40
200.0
  0
HATCH
  5
226F
330
A
100
AcDbEntity
  8
SOLDERMASK_PADS_BTM
100
AcDbHatch
 10
0.0
 20
0.0
 30
0.0
210
0.0
220
0.0
230
1.0
  2
SOLID
 70
1
 71
1
 91
1
 92
1
 93
1
 72
2
 10
12844.7
 20
6221.821
 40
200.0
 50
0.0
 51
360.0
 73
0
 97
1
330
8814
 75
0
 76
1
 98
1
 10
0.0
 20
0.0
450
0
451
0
460
0.0
461
0.0
452
0
462
0.0
453
2
463
0
421
0
463
1
421
16777215
470

  0
CIRCLE
  5
2270
330
A
100
AcDbEntity
  8
SOLDERMASK_PADS_BTM
100
AcDbCircle
 10
12044.7
 20
6221.82
 30
0.0
 40
200.0
  0
HATCH
  5
2271
330
A
100
AcDbEntity
  8
SOLDERMASK_PADS_BTM
100
AcDbHatch
 10
0.0
 20
0.0
 30
0.0
210
0.0
220
0.0
230
1.0
  2
SOLID
 70
1
 71
1
 91
1
 92
1
 93
1
 72
2
 10
12044.7
 20
6221.82
 40
200.0
 50
0.0
 51
360.0
 73
0
 97
1
330
8816
 75
0
 76
1
 98
1
 10
0.0
 20
0.0
450
0
451
0
460
0.0
461
0.0
452
0
462
0.0
453
2
463
0
421
0
463
1
421
16777215
470

  0
CIRCLE
  5
2272
330
A
100
AcDbEntity
  8
SOLDERMASK_PADS_BTM
100
AcDbCircle
 10
11244.701
 20
6221.82
 30
0.0
 40
200.0
  0
HATCH
  5
2273
330
A
100
AcDbEntity
  8
SOLDERMASK_PADS_BTM
100
AcDbHatch
 10
0.0
 20
0.0
 30
0.0
210
0.0
220
0.0
230
1.0
  2
SOLID
 70
1
 71
1
 91
1
 92
1
 93
1
 72
2
 10
11244.701
 20
6221.82
 40
200.0
 50
0.0
 51
360.0
 73
0
 97
1
330
8818
 75
0
 76
1
 98
1
 10
0.0
 20
0.0
450
0
451
0
460
0.0
461
0.0
452
0
462
0.0
453
2
463
0
421
0
463
1
421
16777215
470

  0
CIRCLE
  5
2274
330
A
100
AcDbEntity
  8
SOLDERMASK_PADS_BTM
100
AcDbCircle
 10
10444.7
 20
6221.82
 30
0.0
 40
200.0
  0
HATCH
  5
2275
330
A
100
AcDbEntity
  8
SOLDERMASK_PADS_BTM
100
AcDbHatch
 10
0.0
 20
0.0
 30
0.0
210
0.0
220
0.0
230
1.0
  2
SOLID
 70
1
 71
1
 91
1
 92
1
 93
1
 72
2
 10
10444.7
 20
6221.82
 40
200.0
 50
0.0
 51
360.0
 73
0
 97
1
330
8820
 75
0
 76
1
 98
1
 10
0.0
 20
0.0
450
0
451
0
460
0.0
461
0.0
452
0
462
0.0
453
2
463
0
421
0
463
1
421
16777215
470

  0
CIRCLE
  5
2276
330
A
100
AcDbEntity
  8
SOLDERMASK_PADS_BTM
100
AcDbCircle
 10
9644.7
 20
6221.82
 30
0.0
 40
200.0
  0
HATCH
  5
2277
330
A
100
AcDbEntity
  8
SOLDERMASK_PADS_BTM
100
AcDbHatch
 10
0.0
 20
0.0
 30
0.0
210
0.0
220
0.0
230
1.0
  2
SOLID
 70
1
 71
1
 91
1
 92
1
 93
1
 72
2
 10
9644.7
 20
6221.82
 40
200.0
 50
0.0
 51
360.0
 73
0
 97
1
330
8822
 75
0
 76
1
 98
1
 10
0.0
 20
0.0
450
0
451
0
460
0.0
461
0.0
452
0
462
0.0
453
2
463
0
421
0
463
1
421
16777215
470

  0
CIRCLE
  5
2278
330
A
100
AcDbEntity
  8
SOLDERMASK_PADS_BTM
100
AcDbCircle
 10
8844.7
 20
6221.82
 30
0.0
 40
200.0
  0
HATCH
  5
2279
330
A
100
AcDbEntity
  8
SOLDERMASK_PADS_BTM
100
AcDbHatch
 10
0.0
 20
0.0
 30
0.0
210
0.0
220
0.0
230
1.0
  2
SOLID
 70
1
 71
1
 91
1
 92
1
 93
1
 72
2
 10
8844.7
 20
6221.82
 40
200.0
 50
0.0
 51
360.0
 73
0
 97
1
330
8824
 75
0
 76
1
 98
1
 10
0.0
 20
0.0
450
0
451
0
460
0.0
461
0.0
452
0
462
0.0
453
2
463
0
421
0
463
1
421
16777215
470

  0
CIRCLE
  5
227A
330
A
100
AcDbEntity
  8
SOLDERMASK_PADS_BTM
100
AcDbCircle
 10
8044.7
 20
6221.82
 30
0.0
 40
200.0
  0
HATCH
  5
227B
330
A
100
AcDbEntity
  8
SOLDERMASK_PADS_BTM
100
AcDbHatch
 10
0.0
 20
0.0
 30
0.0
210
0.0
220
0.0
230
1.0
  2
SOLID
 70
1
 71
1
 91
1
 92
1
 93
1
 72
2
 10
8044.7
 20
6221.82
 40
200.0
 50
0.0
 51
360.0
 73
0
 97
1
330
8826
 75
0
 76
1
 98
1
 10
0.0
 20
0.0
450
0
451
0
460
0.0
461
0.0
452
0
462
0.0
453
2
463
0
421
0
463
1
421
16777215
470

  0
CIRCLE
  5
227C
330
A
100
AcDbEntity
  8
SOLDERMASK_PADS_BTM
100
AcDbCircle
 10
7244.7
 20
6221.821
 30
0.0
 40
200.0
  0
HATCH
  5
227D
330
A
100
AcDbEntity
  8
SOLDERMASK_PADS_BTM
100
AcDbHatch
 10
0.0
 20
0.0
 30
0.0
210
0.0
220
0.0
230
1.0
  2
SOLID
 70
1
 71
1
 91
1
 92
1
 93
1
 72
2
 10
7244.7
 20
6221.821
 40
200.0
 50
0.0
 51
360.0
 73
0
 97
1
330
8828
 75
0
 76
1
 98
1
 10
0.0
 20
0.0
450
0
451
0
460
0.0
461
0.0
452
0
462
0.0
453
2
463
0
421
0
463
1
421
16777215
470

  0
CIRCLE
  5
227E
330
A
100
AcDbEntity
  8
SOLDERMASK_PADS_BTM
100
AcDbCircle
 10
6444.7
 20
6221.82
 30
0.0
 40
200.0
  0
HATCH
  5
227F
330
A
100
AcDbEntity
  8
SOLDERMASK_PADS_BTM
100
AcDbHatch
 10
0.0
 20
0.0
 30
0.0
210
0.0
220
0.0
230
1.0
  2
SOLID
 70
1
 71
1
 91
1
 92
1
 93
1
 72
2
 10
6444.7
 20
6221.82
 40
200.0
 50
0.0
 51
360.0
 73
0
 97
1
330
8830
 75
0
 76
1
 98
1
 10
0.0
 20
0.0
450
0
451
0
460
0.0
461
0.0
452
0
462
0.0
453
2
463
0
421
0
463
1
421
16777215
470

  0
CIRCLE
  5
5374
330
A
100
AcDbEntity
  8
SOLDERMASK_PADS_BTM
100
AcDbCircle
 10
4000.0
 20
-5196.15
 30
0.0
 40
200.0
  0
HATCH
  5
5375
330
A
100
AcDbEntity
  8
SOLDERMASK_PADS_BTM
100
AcDbHatch
 10
0.0
 20
0.0
 30
0.0
210
0.0
220
0.0
230
1.0
  2
SOLID
 70
1
 71
1
 91
1
 92
1
 93
1
 72
2
 10
4000.0
 20
-5196.15
 40
200.0
 50
0.0
 51
360.0
 73
0
 97
1
330
21364
 75
0
 76
1
 98
1
 10
0.0
 20
0.0
450
0
451
0
460
0.0
461
0.0
452
0
462
0.0
453
2
463
0
421
0
463
1
421
16777215
470

  0
CIRCLE
  5
5376
330
A
100
AcDbEntity
  8
SOLDERMASK_PADS_BTM
100
AcDbCircle
 10
4000.0
 20
5196.15
 30
0.0
 40
200.0
  0
HATCH
  5
5377
330
A
100
AcDbEntity
  8
SOLDERMASK_PADS_BTM
100
AcDbHatch
 10
0.0
 20
0.0
 30
0.0
210
0.0
220
0.0
230
1.0
  2
SOLID
 70
1
 71
1
 91
1
 92
1
 93
1
 72
2
 10
4000.0
 20
5196.15
 40
200.0
 50
0.0
 51
360.0
 73
0
 97
1
330
21366
 75
0
 76
1
 98
1
 10
0.0
 20
0.0
450
0
451
0
460
0.0
461
0.0
452
0
462
0.0
453
2
463
0
421
0
463
1
421
16777215
470

  0
CIRCLE
  5
537A
330
A
100
AcDbEntity
  8
SOLDERMASK_PADS_BTM
100
AcDbCircle
 10
4000.001
 20
3464.1
 30
0.0
 40
200.0
  0
HATCH
  5
537B
330
A
100
AcDbEntity
  8
SOLDERMASK_PADS_BTM
100
AcDbHatch
 10
0.0
 20
0.0
 30
0.0
210
0.0
220
0.0
230
1.0
  2
SOLID
 70
1
 71
1
 91
1
 92
1
 93
1
 72
2
 10
4000.001
 20
3464.1
 40
200.0
 50
0.0
 51
360.0
 73
0
 97
1
330
21370
 75
0
 76
1
 98
1
 10
0.0
 20
0.0
450
0
451
0
460
0.0
461
0.0
452
0
462
0.0
453
2
463
0
421
0
463
1
421
16777215
470

  0
CIRCLE
  5
537C
330
A
100
AcDbEntity
  8
SOLDERMASK_PADS_BTM
100
AcDbCircle
 10
4000.0
 20
0.0
 30
0.0
 40
200.0
  0
HATCH
  5
537D
330
A
100
AcDbEntity
  8
SOLDERMASK_PADS_BTM
100
AcDbHatch
 10
0.0
 20
0.0
 30
0.0
210
0.0
220
0.0
230
1.0
  2
SOLID
 70
1
 71
1
 91
1
 92
1
 93
1
 72
2
 10
4000.0
 20
0.0
 40
200.0
 50
0.0
 51
360.0
 73
0
 97
1
330
21372
 75
0
 76
1
 98
1
 10
0.0
 20
0.0
450
0
451
0
460
0.0
461
0.0
452
0
462
0.0
453
2
463
0
421
0
463
1
421
16777215
470

  0
CIRCLE
  5
537E
330
A
100
AcDbEntity
  8
SOLDERMASK_PADS_BTM
100
AcDbCircle
 10
4000.0
 20
1732.05
 30
0.0
 40
200.0
  0
HATCH
  5
537F
330
A
100
AcDbEntity
  8
SOLDERMASK_PADS_BTM
100
AcDbHatch
 10
0.0
 20
0.0
 30
0.0
210
0.0
220
0.0
230
1.0
  2
SOLID
 70
1
 71
1
 91
1
 92
1
 93
1
 72
2
 10
4000.0
 20
1732.05
 40
200.0
 50
0.0
 51
360.0
 73
0
 97
1
330
21374
 75
0
 76
1
 98
1
 10
0.0
 20
0.0
450
0
451
0
460
0.0
461
0.0
452
0
462
0.0
453
2
463
0
421
0
463
1
421
16777215
470

  0
CIRCLE
  5
5380
330
A
100
AcDbEntity
  8
SOLDERMASK_PADS_BTM
100
AcDbCircle
 10
4000.001
 20
-3464.1
 30
0.0
 40
200.0
  0
HATCH
  5
5381
330
A
100
AcDbEntity
  8
SOLDERMASK_PADS_BTM
100
AcDbHatch
 10
0.0
 20
0.0
 30
0.0
210
0.0
220
0.0
230
1.0
  2
SOLID
 70
1
 71
1
 91
1
 92
1
 93
1
 72
2
 10
4000.001
 20
-3464.1
 40
200.0
 50
0.0
 51
360.0
 73
0
 97
1
330
21376
 75
0
 76
1
 98
1
 10
0.0
 20
0.0
450
0
451
0
460
0.0
461
0.0
452
0
462
0.0
453
2
463
0
421
0
463
1
421
16777215
470

  0
CIRCLE
  5
5382
330
A
100
AcDbEntity
  8
SOLDERMASK_PADS_BTM
100
AcDbCircle
 10
4000.0
 20
-1732.05
 30
0.0
 40
200.0
  0
HATCH
  5
5383
330
A
100
AcDbEntity
  8
SOLDERMASK_PADS_BTM
100
AcDbHatch
 10
0.0
 20
0.0
 30
0.0
210
0.0
220
0.0
230
1.0
  2
SOLID
 70
1
 71
1
 91
1
 92
1
 93
1
 72
2
 10
4000.0
 20
-1732.05
 40
200.0
 50
0.0
 51
360.0
 73
0
 97
1
330
21378
 75
0
 76
1
 98
1
 10
0.0
 20
0.0
450
0
451
0
460
0.0
461
0.0
452
0
462
0.0
453
2
463
0
421
0
463
1
421
16777215
470

  0
CIRCLE
  5
5386
330
A
100
AcDbEntity
  8
SOLDERMASK_PADS_BTM
100
AcDbCircle
 10
8844.7
 20
-6248.94
 30
0.0
 40
200.0
  0
HATCH
  5
5387
330
A
100
AcDbEntity
  8
SOLDERMASK_PADS_BTM
100
AcDbHatch
 10
0.0
 20
0.0
 30
0.0
210
0.0
220
0.0
230
1.0
  2
SOLID
 70
1
 71
1
 91
1
 92
1
 93
1
 72
2
 10
8844.7
 20
-6248.94
 40
200.0
 50
0.0
 51
360.0
 73
0
 97
1
330
21382
 75
0
 76
1
 98
1
 10
0.0
 20
0.0
450
0
451
0
460
0.0
461
0.0
452
0
462
0.0
453
2
463
0
421
0
463
1
421
16777215
470

  0
CIRCLE
  5
53CC
330
A
100
AcDbEntity
  8
SOLDERMASK_PADS_BTM
100
AcDbCircle
 10
-14076.501
 20
4143.36
 30
0.0
 40
200.0
  0
HATCH
  5
53CD
330
A
100
AcDbEntity
  8
SOLDERMASK_PADS_BTM
100
AcDbHatch
 10
0.0
 20
0.0
 30
0.0
210
0.0
220
0.0
230
1.0
  2
SOLID
 70
1
 71
1
 91
1
 92
1
 93
1
 72
2
 10
-14076.501
 20
4143.36
 40
200.0
 50
0.0
 51
360.0
 73
0
 97
1
330
21452
 75
0
 76
1
 98
1
 10
0.0
 20
0.0
450
0
451
0
460
0.0
461
0.0
452
0
462
0.0
453
2
463
0
421
0
463
1
421
16777215
470

  0
CIRCLE
  5
53CE
330
A
100
AcDbEntity
  8
SOLDERMASK_PADS_BTM
100
AcDbCircle
 10
-14476.5
 20
-706.38
 30
0.0
 40
200.0
  0
HATCH
  5
53CF
330
A
100
AcDbEntity
  8
SOLDERMASK_PADS_BTM
100
AcDbHatch
 10
0.0
 20
0.0
 30
0.0
210
0.0
220
0.0
230
1.0
  2
SOLID
 70
1
 71
1
 91
1
 92
1
 93
1
 72
2
 10
-14476.5
 20
-706.38
 40
200.0
 50
0.0
 51
360.0
 73
0
 97
1
330
21454
 75
0
 76
1
 98
1
 10
0.0
 20
0.0
450
0
451
0
460
0.0
461
0.0
452
0
462
0.0
453
2
463
0
421
0
463
1
421
16777215
470

  0
CIRCLE
  5
53E8
330
A
100
AcDbEntity
  8
SOLDERMASK_PADS_BTM
100
AcDbCircle
 10
-9676.5
 20
6221.82
 30
0.0
 40
200.0
  0
HATCH
  5
53E9
330
A
100
AcDbEntity
  8
SOLDERMASK_PADS_BTM
100
AcDbHatch
 10
0.0
 20
0.0
 30
0.0
210
0.0
220
0.0
230
1.0
  2
SOLID
 70
1
 71
1
 91
1
 92
1
 93
1
 72
2
 10
-9676.5
 20
6221.82
 40
200.0
 50
0.0
 51
360.0
 73
0
 97
1
330
21480
 75
0
 76
1
 98
1
 10
0.0
 20
0.0
450
0
451
0
460
0.0
461
0.0
452
0
462
0.0
453
2
463
0
421
0
463
1
421
16777215
470

  0
CIRCLE
  5
53EA
330
A
100
AcDbEntity
  8
SOLDERMASK_PADS_BTM
100
AcDbCircle
 10
-14476.5
 20
4836.18
 30
0.0
 40
200.0
  0
HATCH
  5
53EB
330
A
100
AcDbEntity
  8
SOLDERMASK_PADS_BTM
100
AcDbHatch
 10
0.0
 20
0.0
 30
0.0
210
0.0
220
0.0
230
1.0
  2
SOLID
 70
1
 71
1
 91
1
 92
1
 93
1
 72
2
 10
-14476.5
 20
4836.18
 40
200.0
 50
0.0
 51
360.0
 73
0
 97
1
330
21482
 75
0
 76
1
 98
1
 10
0.0
 20
0.0
450
0
451
0
460
0.0
461
0.0
452
0
462
0.0
453
2
463
0
421
0
463
1
421
16777215
470

  0
CIRCLE
  5
53EC
330
A
100
AcDbEntity
  8
SOLDERMASK_PADS_BTM
100
AcDbCircle
 10
-14076.5
 20
5529.0
 30
0.0
 40
200.0
  0
HATCH
  5
53ED
330
A
100
AcDbEntity
  8
SOLDERMASK_PADS_BTM
100
AcDbHatch
 10
0.0
 20
0.0
 30
0.0
210
0.0
220
0.0
230
1.0
  2
SOLID
 70
1
 71
1
 91
1
 92
1
 93
1
 72
2
 10
-14076.5
 20
5529.0
 40
200.0
 50
0.0
 51
360.0
 73
0
 97
1
330
21484
 75
0
 76
1
 98
1
 10
0.0
 20
0.0
450
0
451
0
460
0.0
461
0.0
452
0
462
0.0
453
2
463
0
421
0
463
1
421
16777215
470

  0
CIRCLE
  5
53EE
330
A
100
AcDbEntity
  8
SOLDERMASK_PADS_BTM
100
AcDbCircle
 10
-14476.5
 20
6221.82
 30
0.0
 40
200.0
  0
HATCH
  5
53EF
330
A
100
AcDbEntity
  8
SOLDERMASK_PADS_BTM
100
AcDbHatch
 10
0.0
 20
0.0
 30
0.0
210
0.0
220
0.0
230
1.0
  2
SOLID
 70
1
 71
1
 91
1
 92
1
 93
1
 72
2
 10
-14476.5
 20
6221.82
 40
200.0
 50
0.0
 51
360.0
 73
0
 97
1
330
21486
 75
0
 76
1
 98
1
 10
0.0
 20
0.0
450
0
451
0
460
0.0
461
0.0
452
0
462
0.0
453
2
463
0
421
0
463
1
421
16777215
470

  0
CIRCLE
  5
53F8
330
A
100
AcDbEntity
  8
SOLDERMASK_PADS_BTM
100
AcDbCircle
 10
-14076.5
 20
-13.56
 30
0.0
 40
200.0
  0
HATCH
  5
53F9
330
A
100
AcDbEntity
  8
SOLDERMASK_PADS_BTM
100
AcDbHatch
 10
0.0
 20
0.0
 30
0.0
210
0.0
220
0.0
230
1.0
  2
SOLID
 70
1
 71
1
 91
1
 92
1
 93
1
 72
2
 10
-14076.5
 20
-13.56
 40
200.0
 50
0.0
 51
360.0
 73
0
 97
1
330
21496
 75
0
 76
1
 98
1
 10
0.0
 20
0.0
450
0
451
0
460
0.0
461
0.0
452
0
462
0.0
453
2
463
0
421
0
463
1
421
16777215
470

  0
CIRCLE
  5
53FA
330
A
100
AcDbEntity
  8
SOLDERMASK_PADS_BTM
100
AcDbCircle
 10
-14076.501
 20
1372.08
 30
0.0
 40
200.0
  0
HATCH
  5
53FB
330
A
100
AcDbEntity
  8
SOLDERMASK_PADS_BTM
100
AcDbHatch
 10
0.0
 20
0.0
 30
0.0
210
0.0
220
0.0
230
1.0
  2
SOLID
 70
1
 71
1
 91
1
 92
1
 93
1
 72
2
 10
-14076.501
 20
1372.08
 40
200.0
 50
0.0
 51
360.0
 73
0
 97
1
330
21498
 75
0
 76
1
 98
1
 10
0.0
 20
0.0
450
0
451
0
460
0.0
461
0.0
452
0
462
0.0
453
2
463
0
421
0
463
1
421
16777215
470

  0
CIRCLE
  5
53FC
330
A
100
AcDbEntity
  8
SOLDERMASK_PADS_BTM
100
AcDbCircle
 10
-14076.5
 20
2757.72
 30
0.0
 40
200.0
  0
HATCH
  5
53FD
330
A
100
AcDbEntity
  8
SOLDERMASK_PADS_BTM
100
AcDbHatch
 10
0.0
 20
0.0
 30
0.0
210
0.0
220
0.0
230
1.0
  2
SOLID
 70
1
 71
1
 91
1
 92
1
 93
1
 72
2
 10
-14076.5
 20
2757.72
 40
200.0
 50
0.0
 51
360.0
 73
0
 97
1
330
21500
 75
0
 76
1
 98
1
 10
0.0
 20
0.0
450
0
451
0
460
0.0
461
0.0
452
0
462
0.0
453
2
463
0
421
0
463
1
421
16777215
470

  0
CIRCLE
  5
53FE
330
A
100
AcDbEntity
  8
SOLDERMASK_PADS_BTM
100
AcDbCircle
 10
-14476.5
 20
679.26
 30
0.0
 40
200.0
  0
HATCH
  5
53FF
330
A
100
AcDbEntity
  8
SOLDERMASK_PADS_BTM
100
AcDbHatch
 10
0.0
 20
0.0
 30
0.0
210
0.0
220
0.0
230
1.0
  2
SOLID
 70
1
 71
1
 91
1
 92
1
 93
1
 72
2
 10
-14476.5
 20
679.26
 40
200.0
 50
0.0
 51
360.0
 73
0
 97
1
330
21502
 75
0
 76
1
 98
1
 10
0.0
 20
0.0
450
0
451
0
460
0.0
461
0.0
452
0
462
0.0
453
2
463
0
421
0
463
1
421
16777215
470

  0
CIRCLE
  5
5400
330
A
100
AcDbEntity
  8
SOLDERMASK_PADS_BTM
100
AcDbCircle
 10
-14476.5
 20
2064.9
 30
0.0
 40
200.0
  0
HATCH
  5
5401
330
A
100
AcDbEntity
  8
SOLDERMASK_PADS_BTM
100
AcDbHatch
 10
0.0
 20
0.0
 30
0.0
210
0.0
220
0.0
230
1.0
  2
SOLID
 70
1
 71
1
 91
1
 92
1
 93
1
 72
2
 10
-14476.5
 20
2064.9
 40
200.0
 50
0.0
 51
360.0
 73
0
 97
1
330
21504
 75
0
 76
1
 98
1
 10
0.0
 20
0.0
450
0
451
0
460
0.0
461
0.0
452
0
462
0.0
453
2
463
0
421
0
463
1
421
16777215
470

  0
CIRCLE
  5
5402
330
A
100
AcDbEntity
  8
SOLDERMASK_PADS_BTM
100
AcDbCircle
 10
-14476.5
 20
3450.54
 30
0.0
 40
200.0
  0
HATCH
  5
5403
330
A
100
AcDbEntity
  8
SOLDERMASK_PADS_BTM
100
AcDbHatch
 10
0.0
 20
0.0
 30
0.0
210
0.0
220
0.0
230
1.0
  2
SOLID
 70
1
 71
1
 91
1
 92
1
 93
1
 72
2
 10
-14476.5
 20
3450.54
 40
200.0
 50
0.0
 51
360.0
 73
0
 97
1
330
21506
 75
0
 76
1
 98
1
 10
0.0
 20
0.0
450
0
451
0
460
0.0
461
0.0
452
0
462
0.0
453
2
463
0
421
0
463
1
421
16777215
470

  0
CIRCLE
  5
5404
330
A
100
AcDbEntity
  8
SOLDERMASK_PADS_BTM
100
AcDbCircle
 10
-14076.5
 20
-4170.48
 30
0.0
 40
200.0
  0
HATCH
  5
5405
330
A
100
AcDbEntity
  8
SOLDERMASK_PADS_BTM
100
AcDbHatch
 10
0.0
 20
0.0
 30
0.0
210
0.0
220
0.0
230
1.0
  2
SOLID
 70
1
 71
1
 91
1
 92
1
 93
1
 72
2
 10
-14076.5
 20
-4170.48
 40
200.0
 50
0.0
 51
360.0
 73
0
 97
1
330
21508
 75
0
 76
1
 98
1
 10
0.0
 20
0.0
450
0
451
0
460
0.0
461
0.0
452
0
462
0.0
453
2
463
0
421
0
463
1
421
16777215
470

  0
CIRCLE
  5
5406
330
A
100
AcDbEntity
  8
SOLDERMASK_PADS_BTM
100
AcDbCircle
 10
-14076.5
 20
-2784.84
 30
0.0
 40
200.0
  0
HATCH
  5
5407
330
A
100
AcDbEntity
  8
SOLDERMASK_PADS_BTM
100
AcDbHatch
 10
0.0
 20
0.0
 30
0.0
210
0.0
220
0.0
230
1.0
  2
SOLID
 70
1
 71
1
 91
1
 92
1
 93
1
 72
2
 10
-14076.5
 20
-2784.84
 40
200.0
 50
0.0
 51
360.0
 73
0
 97
1
330
21510
 75
0
 76
1
 98
1
 10
0.0
 20
0.0
450
0
451
0
460
0.0
461
0.0
452
0
462
0.0
453
2
463
0
421
0
463
1
421
16777215
470

  0
CIRCLE
  5
5408
330
A
100
AcDbEntity
  8
SOLDERMASK_PADS_BTM
100
AcDbCircle
 10
-14076.5
 20
-1399.2
 30
0.0
 40
200.0
  0
HATCH
  5
5409
330
A
100
AcDbEntity
  8
SOLDERMASK_PADS_BTM
100
AcDbHatch
 10
0.0
 20
0.0
 30
0.0
210
0.0
220
0.0
230
1.0
  2
SOLID
 70
1
 71
1
 91
1
 92
1
 93
1
 72
2
 10
-14076.5
 20
-1399.2
 40
200.0
 50
0.0
 51
360.0
 73
0
 97
1
330
21512
 75
0
 76
1
 98
1
 10
0.0
 20
0.0
450
0
451
0
460
0.0
461
0.0
452
0
462
0.0
453
2
463
0
421
0
463
1
421
16777215
470

  0
CIRCLE
  5
540A
330
A
100
AcDbEntity
  8
SOLDERMASK_PADS_BTM
100
AcDbCircle
 10
-14476.5
 20
-4863.3
 30
0.0
 40
200.0
  0
HATCH
  5
540B
330
A
100
AcDbEntity
  8
SOLDERMASK_PADS_BTM
100
AcDbHatch
 10
0.0
 20
0.0
 30
0.0
210
0.0
220
0.0
230
1.0
  2
SOLID
 70
1
 71
1
 91
1
 92
1
 93
1
 72
2
 10
-14476.5
 20
-4863.3
 40
200.0
 50
0.0
 51
360.0
 73
0
 97
1
330
21514
 75
0
 76
1
 98
1
 10
0.0
 20
0.0
450
0
451
0
460
0.0
461
0.0
452
0
462
0.0
453
2
463
0
421
0
463
1
421
16777215
470

  0
CIRCLE
  5
540C
330
A
100
AcDbEntity
  8
SOLDERMASK_PADS_BTM
100
AcDbCircle
 10
-14476.5
 20
-3477.66
 30
0.0
 40
200.0
  0
HATCH
  5
540D
330
A
100
AcDbEntity
  8
SOLDERMASK_PADS_BTM
100
AcDbHatch
 10
0.0
 20
0.0
 30
0.0
210
0.0
220
0.0
230
1.0
  2
SOLID
 70
1
 71
1
 91
1
 92
1
 93
1
 72
2
 10
-14476.5
 20
-3477.66
 40
200.0
 50
0.0
 51
360.0
 73
0
 97
1
330
21516
 75
0
 76
1
 98
1
 10
0.0
 20
0.0
450
0
451
0
460
0.0
461
0.0
452
0
462
0.0
453
2
463
0
421
0
463
1
421
16777215
470

  0
CIRCLE
  5
540E
330
A
100
AcDbEntity
  8
SOLDERMASK_PADS_BTM
100
AcDbCircle
 10
-14476.5
 20
-2092.02
 30
0.0
 40
200.0
  0
HATCH
  5
540F
330
A
100
AcDbEntity
  8
SOLDERMASK_PADS_BTM
100
AcDbHatch
 10
0.0
 20
0.0
 30
0.0
210
0.0
220
0.0
230
1.0
  2
SOLID
 70
1
 71
1
 91
1
 92
1
 93
1
 72
2
 10
-14476.5
 20
-2092.02
 40
200.0
 50
0.0
 51
360.0
 73
0
 97
1
330
21518
 75
0
 76
1
 98
1
 10
0.0
 20
0.0
450
0
451
0
460
0.0
461
0.0
452
0
462
0.0
453
2
463
0
421
0
463
1
421
16777215
470

  0
CIRCLE
  5
5410
330
A
100
AcDbEntity
  8
SOLDERMASK_PADS_BTM
100
AcDbCircle
 10
-9676.5
 20
-6248.94
 30
0.0
 40
200.0
  0
HATCH
  5
5411
330
A
100
AcDbEntity
  8
SOLDERMASK_PADS_BTM
100
AcDbHatch
 10
0.0
 20
0.0
 30
0.0
210
0.0
220
0.0
230
1.0
  2
SOLID
 70
1
 71
1
 91
1
 92
1
 93
1
 72
2
 10
-9676.5
 20
-6248.94
 40
200.0
 50
0.0
 51
360.0
 73
0
 97
1
330
21520
 75
0
 76
1
 98
1
 10
0.0
 20
0.0
450
0
451
0
460
0.0
461
0.0
452
0
462
0.0
453
2
463
0
421
0
463
1
421
16777215
470

  0
CIRCLE
  5
5412
330
A
100
AcDbEntity
  8
SOLDERMASK_PADS_BTM
100
AcDbCircle
 10
-14076.5
 20
-5556.121
 30
0.0
 40
200.0
  0
HATCH
  5
5413
330
A
100
AcDbEntity
  8
SOLDERMASK_PADS_BTM
100
AcDbHatch
 10
0.0
 20
0.0
 30
0.0
210
0.0
220
0.0
230
1.0
  2
SOLID
 70
1
 71
1
 91
1
 92
1
 93
1
 72
2
 10
-14076.5
 20
-5556.121
 40
200.0
 50
0.0
 51
360.0
 73
0
 97
1
330
21522
 75
0
 76
1
 98
1
 10
0.0
 20
0.0
450
0
451
0
460
0.0
461
0.0
452
0
462
0.0
453
2
463
0
421
0
463
1
421
16777215
470

  0
CIRCLE
  5
5428
330
A
100
AcDbEntity
  8
SOLDERMASK_PADS_BTM
100
AcDbCircle
 10
14044.7
 20
-4170.48
 30
0.0
 40
200.0
  0
HATCH
  5
5429
330
A
100
AcDbEntity
  8
SOLDERMASK_PADS_BTM
100
AcDbHatch
 10
0.0
 20
0.0
 30
0.0
210
0.0
220
0.0
230
1.0
  2
SOLID
 70
1
 71
1
 91
1
 92
1
 93
1
 72
2
 10
14044.7
 20
-4170.48
 40
200.0
 50
0.0
 51
360.0
 73
0
 97
1
330
21544
 75
0
 76
1
 98
1
 10
0.0
 20
0.0
450
0
451
0
460
0.0
461
0.0
452
0
462
0.0
453
2
463
0
421
0
463
1
421
16777215
470

  0
CIRCLE
  5
542A
330
A
100
AcDbEntity
  8
SOLDERMASK_PADS_BTM
100
AcDbCircle
 10
14044.7
 20
-2784.84
 30
0.0
 40
200.0
  0
HATCH
  5
542B
330
A
100
AcDbEntity
  8
SOLDERMASK_PADS_BTM
100
AcDbHatch
 10
0.0
 20
0.0
 30
0.0
210
0.0
220
0.0
230
1.0
  2
SOLID
 70
1
 71
1
 91
1
 92
1
 93
1
 72
2
 10
14044.7
 20
-2784.84
 40
200.0
 50
0.0
 51
360.0
 73
0
 97
1
330
21546
 75
0
 76
1
 98
1
 10
0.0
 20
0.0
450
0
451
0
460
0.0
461
0.0
452
0
462
0.0
453
2
463
0
421
0
463
1
421
16777215
470

  0
CIRCLE
  5
542C
330
A
100
AcDbEntity
  8
SOLDERMASK_PADS_BTM
100
AcDbCircle
 10
14444.7
 20
-3477.66
 30
0.0
 40
200.0
  0
HATCH
  5
542D
330
A
100
AcDbEntity
  8
SOLDERMASK_PADS_BTM
100
AcDbHatch
 10
0.0
 20
0.0
 30
0.0
210
0.0
220
0.0
230
1.0
  2
SOLID
 70
1
 71
1
 91
1
 92
1
 93
1
 72
2
 10
14444.7
 20
-3477.66
 40
200.0
 50
0.0
 51
360.0
 73
0
 97
1
330
21548
 75
0
 76
1
 98
1
 10
0.0
 20
0.0
450
0
451
0
460
0.0
461
0.0
452
0
462
0.0
453
2
463
0
421
0
463
1
421
16777215
470

  0
CIRCLE
  5
542E
330
A
100
AcDbEntity
  8
SOLDERMASK_PADS_BTM
100
AcDbCircle
 10
14844.7
 20
-4170.48
 30
0.0
 40
200.0
  0
HATCH
  5
542F
330
A
100
AcDbEntity
  8
SOLDERMASK_PADS_BTM
100
AcDbHatch
 10
0.0
 20
0.0
 30
0.0
210
0.0
220
0.0
230
1.0
  2
SOLID
 70
1
 71
1
 91
1
 92
1
 93
1
 72
2
 10
14844.7
 20
-4170.48
 40
200.0
 50
0.0
 51
360.0
 73
0
 97
1
330
21550
 75
0
 76
1
 98
1
 10
0.0
 20
0.0
450
0
451
0
460
0.0
461
0.0
452
0
462
0.0
453
2
463
0
421
0
463
1
421
16777215
470

  0
CIRCLE
  5
5430
330
A
100
AcDbEntity
  8
SOLDERMASK_PADS_BTM
100
AcDbCircle
 10
14844.7
 20
-2784.84
 30
0.0
 40
200.0
  0
HATCH
  5
5431
330
A
100
AcDbEntity
  8
SOLDERMASK_PADS_BTM
100
AcDbHatch
 10
0.0
 20
0.0
 30
0.0
210
0.0
220
0.0
230
1.0
  2
SOLID
 70
1
 71
1
 91
1
 92
1
 93
1
 72
2
 10
14844.7
 20
-2784.84
 40
200.0
 50
0.0
 51
360.0
 73
0
 97
1
330
21552
 75
0
 76
1
 98
1
 10
0.0
 20
0.0
450
0
451
0
460
0.0
461
0.0
452
0
462
0.0
453
2
463
0
421
0
463
1
421
16777215
470

  0
CIRCLE
  5
5434
330
A
100
AcDbEntity
  8
SOLDERMASK_PADS_BTM
100
AcDbCircle
 10
12844.7
 20
-6248.94
 30
0.0
 40
200.0
  0
HATCH
  5
5435
330
A
100
AcDbEntity
  8
SOLDERMASK_PADS_BTM
100
AcDbHatch
 10
0.0
 20
0.0
 30
0.0
210
0.0
220
0.0
230
1.0
  2
SOLID
 70
1
 71
1
 91
1
 92
1
 93
1
 72
2
 10
12844.7
 20
-6248.94
 40
200.0
 50
0.0
 51
360.0
 73
0
 97
1
330
21556
 75
0
 76
1
 98
1
 10
0.0
 20
0.0
450
0
451
0
460
0.0
461
0.0
452
0
462
0.0
453
2
463
0
421
0
463
1
421
16777215
470

  0
CIRCLE
  5
5436
330
A
100
AcDbEntity
  8
SOLDERMASK_PADS_BTM
100
AcDbCircle
 10
12044.7
 20
-6248.94
 30
0.0
 40
200.0
  0
HATCH
  5
5437
330
A
100
AcDbEntity
  8
SOLDERMASK_PADS_BTM
100
AcDbHatch
 10
0.0
 20
0.0
 30
0.0
210
0.0
220
0.0
230
1.0
  2
SOLID
 70
1
 71
1
 91
1
 92
1
 93
1
 72
2
 10
12044.7
 20
-6248.94
 40
200.0
 50
0.0
 51
360.0
 73
0
 97
1
330
21558
 75
0
 76
1
 98
1
 10
0.0
 20
0.0
450
0
451
0
460
0.0
461
0.0
452
0
462
0.0
453
2
463
0
421
0
463
1
421
16777215
470

  0
CIRCLE
  5
5438
330
A
100
AcDbEntity
  8
SOLDERMASK_PADS_BTM
100
AcDbCircle
 10
11244.7
 20
-6248.94
 30
0.0
 40
200.0
  0
HATCH
  5
5439
330
A
100
AcDbEntity
  8
SOLDERMASK_PADS_BTM
100
AcDbHatch
 10
0.0
 20
0.0
 30
0.0
210
0.0
220
0.0
230
1.0
  2
SOLID
 70
1
 71
1
 91
1
 92
1
 93
1
 72
2
 10
11244.7
 20
-6248.94
 40
200.0
 50
0.0
 51
360.0
 73
0
 97
1
330
21560
 75
0
 76
1
 98
1
 10
0.0
 20
0.0
450
0
451
0
460
0.0
461
0.0
452
0
462
0.0
453
2
463
0
421
0
463
1
421
16777215
470

  0
CIRCLE
  5
543A
330
A
100
AcDbEntity
  8
SOLDERMASK_PADS_BTM
100
AcDbCircle
 10
10444.7
 20
-6248.94
 30
0.0
 40
200.0
  0
HATCH
  5
543B
330
A
100
AcDbEntity
  8
SOLDERMASK_PADS_BTM
100
AcDbHatch
 10
0.0
 20
0.0
 30
0.0
210
0.0
220
0.0
230
1.0
  2
SOLID
 70
1
 71
1
 91
1
 92
1
 93
1
 72
2
 10
10444.7
 20
-6248.94
 40
200.0
 50
0.0
 51
360.0
 73
0
 97
1
330
21562
 75
0
 76
1
 98
1
 10
0.0
 20
0.0
450
0
451
0
460
0.0
461
0.0
452
0
462
0.0
453
2
463
0
421
0
463
1
421
16777215
470

  0
CIRCLE
  5
543C
330
A
100
AcDbEntity
  8
SOLDERMASK_PADS_BTM
100
AcDbCircle
 10
9644.7
 20
-6248.94
 30
0.0
 40
200.0
  0
HATCH
  5
543D
330
A
100
AcDbEntity
  8
SOLDERMASK_PADS_BTM
100
AcDbHatch
 10
0.0
 20
0.0
 30
0.0
210
0.0
220
0.0
230
1.0
  2
SOLID
 70
1
 71
1
 91
1
 92
1
 93
1
 72
2
 10
9644.7
 20
-6248.94
 40
200.0
 50
0.0
 51
360.0
 73
0
 97
1
330
21564
 75
0
 76
1
 98
1
 10
0.0
 20
0.0
450
0
451
0
460
0.0
461
0.0
452
0
462
0.0
453
2
463
0
421
0
463
1
421
16777215
470

  0
CIRCLE
  5
5454
330
A
100
AcDbEntity
  8
SOLDERMASK_PADS_BTM
100
AcDbCircle
 10
4500.0
 20
4330.125
 30
0.0
 40
200.0
  0
HATCH
  5
5455
330
A
100
AcDbEntity
  8
SOLDERMASK_PADS_BTM
100
AcDbHatch
 10
0.0
 20
0.0
 30
0.0
210
0.0
220
0.0
230
1.0
  2
SOLID
 70
1
 71
1
 91
1
 92
1
 93
1
 72
2
 10
4500.0
 20
4330.125
 40
200.0
 50
0.0
 51
360.0
 73
0
 97
1
330
21588
 75
0
 76
1
 98
1
 10
0.0
 20
0.0
450
0
451
0
460
0.0
461
0.0
452
0
462
0.0
453
2
463
0
421
0
463
1
421
16777215
470

  0
CIRCLE
  5
5456
330
A
100
AcDbEntity
  8
SOLDERMASK_PADS_BTM
100
AcDbCircle
 10
4500.0
 20
6062.176
 30
0.0
 40
200.0
  0
HATCH
  5
5457
330
A
100
AcDbEntity
  8
SOLDERMASK_PADS_BTM
100
AcDbHatch
 10
0.0
 20
0.0
 30
0.0
210
0.0
220
0.0
230
1.0
  2
SOLID
 70
1
 71
1
 91
1
 92
1
 93
1
 72
2
 10
4500.0
 20
6062.176
 40
200.0
 50
0.0
 51
360.0
 73
0
 97
1
330
21590
 75
0
 76
1
 98
1
 10
0.0
 20
0.0
450
0
451
0
460
0.0
461
0.0
452
0
462
0.0
453
2
463
0
421
0
463
1
421
16777215
470

  0
CIRCLE
  5
5458
330
A
100
AcDbEntity
  8
SOLDERMASK_PADS_BTM
100
AcDbCircle
 10
5644.7
 20
6221.82
 30
0.0
 40
200.0
  0
HATCH
  5
5459
330
A
100
AcDbEntity
  8
SOLDERMASK_PADS_BTM
100
AcDbHatch
 10
0.0
 20
0.0
 30
0.0
210
0.0
220
0.0
230
1.0
  2
SOLID
 70
1
 71
1
 91
1
 92
1
 93
1
 72
2
 10
5644.7
 20
6221.82
 40
200.0
 50
0.0
 51
360.0
 73
0
 97
1
330
21592
 75
0
 76
1
 98
1
 10
0.0
 20
0.0
450
0
451
0
460
0.0
461
0.0
452
0
462
0.0
453
2
463
0
421
0
463
1
421
16777215
470

  0
CIRCLE
  5
545C
330
A
100
AcDbEntity
  8
SOLDERMASK_PADS_BTM
100
AcDbCircle
 10
4500.0
 20
866.0249999999999
 30
0.0
 40
200.0
  0
HATCH
  5
545D
330
A
100
AcDbEntity
  8
SOLDERMASK_PADS_BTM
100
AcDbHatch
 10
0.0
 20
0.0
 30
0.0
210
0.0
220
0.0
230
1.0
  2
SOLID
 70
1
 71
1
 91
1
 92
1
 93
1
 72
2
 10
4500.0
 20
866.0249999999999
 40
200.0
 50
0.0
 51
360.0
 73
0
 97
1
330
21596
 75
0
 76
1
 98
1
 10
0.0
 20
0.0
450
0
451
0
460
0.0
461
0.0
452
0
462
0.0
453
2
463
0
421
0
463
1
421
16777215
470

  0
CIRCLE
  5
545E
330
A
100
AcDbEntity
  8
SOLDERMASK_PADS_BTM
100
AcDbCircle
 10
4500.0
 20
-4330.125
 30
0.0
 40
200.0
  0
HATCH
  5
545F
330
A
100
AcDbEntity
  8
SOLDERMASK_PADS_BTM
100
AcDbHatch
 10
0.0
 20
0.0
 30
0.0
210
0.0
220
0.0
230
1.0
  2
SOLID
 70
1
 71
1
 91
1
 92
1
 93
1
 72
2
 10
4500.0
 20
-4330.125
 40
200.0
 50
0.0
 51
360.0
 73
0
 97
1
330
21598
 75
0
 76
1
 98
1
 10
0.0
 20
0.0
450
0
451
0
460
0.0
461
0.0
452
0
462
0.0
453
2
463
0
421
0
463
1
421
16777215
470

  0
CIRCLE
  5
5460
330
A
100
AcDbEntity
  8
SOLDERMASK_PADS_BTM
100
AcDbCircle
 10
4500.0
 20
-866.0249999999999
 30
0.0
 40
200.0
  0
HATCH
  5
5461
330
A
100
AcDbEntity
  8
SOLDERMASK_PADS_BTM
100
AcDbHatch
 10
0.0
 20
0.0
 30
0.0
210
0.0
220
0.0
230
1.0
  2
SOLID
 70
1
 71
1
 91
1
 92
1
 93
1
 72
2
 10
4500.0
 20
-866.0249999999999
 40
200.0
 50
0.0
 51
360.0
 73
0
 97
1
330
21600
 75
0
 76
1
 98
1
 10
0.0
 20
0.0
450
0
451
0
460
0.0
461
0.0
452
0
462
0.0
453
2
463
0
421
0
463
1
421
16777215
470

  0
CIRCLE
  5
5462
330
A
100
AcDbEntity
  8
SOLDERMASK_PADS_BTM
100
AcDbCircle
 10
8044.7
 20
-6248.94
 30
0.0
 40
200.0
  0
HATCH
  5
5463
330
A
100
AcDbEntity
  8
SOLDERMASK_PADS_BTM
100
AcDbHatch
 10
0.0
 20
0.0
 30
0.0
210
0.0
220
0.0
230
1.0
  2
SOLID
 70
1
 71
1
 91
1
 92
1
 93
1
 72
2
 10
8044.7
 20
-6248.94
 40
200.0
 50
0.0
 51
360.0
 73
0
 97
1
330
21602
 75
0
 76
1
 98
1
 10
0.0
 20
0.0
450
0
451
0
460
0.0
461
0.0
452
0
462
0.0
453
2
463
0
421
0
463
1
421
16777215
470

  0
CIRCLE
  5
5464
330
A
100
AcDbEntity
  8
SOLDERMASK_PADS_BTM
100
AcDbCircle
 10
7244.7
 20
-6248.94
 30
0.0
 40
200.0
  0
HATCH
  5
5465
330
A
100
AcDbEntity
  8
SOLDERMASK_PADS_BTM
100
AcDbHatch
 10
0.0
 20
0.0
 30
0.0
210
0.0
220
0.0
230
1.0
  2
SOLID
 70
1
 71
1
 91
1
 92
1
 93
1
 72
2
 10
7244.7
 20
-6248.94
 40
200.0
 50
0.0
 51
360.0
 73
0
 97
1
330
21604
 75
0
 76
1
 98
1
 10
0.0
 20
0.0
450
0
451
0
460
0.0
461
0.0
452
0
462
0.0
453
2
463
0
421
0
463
1
421
16777215
470

  0
CIRCLE
  5
5466
330
A
100
AcDbEntity
  8
SOLDERMASK_PADS_BTM
100
AcDbCircle
 10
6444.7
 20
-6248.94
 30
0.0
 40
200.0
  0
HATCH
  5
5467
330
A
100
AcDbEntity
  8
SOLDERMASK_PADS_BTM
100
AcDbHatch
 10
0.0
 20
0.0
 30
0.0
210
0.0
220
0.0
230
1.0
  2
SOLID
 70
1
 71
1
 91
1
 92
1
 93
1
 72
2
 10
6444.7
 20
-6248.94
 40
200.0
 50
0.0
 51
360.0
 73
0
 97
1
330
21606
 75
0
 76
1
 98
1
 10
0.0
 20
0.0
450
0
451
0
460
0.0
461
0.0
452
0
462
0.0
453
2
463
0
421
0
463
1
421
16777215
470

  0
CIRCLE
  5
5468
330
A
100
AcDbEntity
  8
SOLDERMASK_PADS_BTM
100
AcDbCircle
 10
5644.7
 20
-6248.94
 30
0.0
 40
200.0
  0
HATCH
  5
5469
330
A
100
AcDbEntity
  8
SOLDERMASK_PADS_BTM
100
AcDbHatch
 10
0.0
 20
0.0
 30
0.0
210
0.0
220
0.0
230
1.0
  2
SOLID
 70
1
 71
1
 91
1
 92
1
 93
1
 72
2
 10
5644.7
 20
-6248.94
 40
200.0
 50
0.0
 51
360.0
 73
0
 97
1
330
21608
 75
0
 76
1
 98
1
 10
0.0
 20
0.0
450
0
451
0
460
0.0
461
0.0
452
0
462
0.0
453
2
463
0
421
0
463
1
421
16777215
470

  0
CIRCLE
  5
546A
330
A
100
AcDbEntity
  8
SOLDERMASK_PADS_BTM
100
AcDbCircle
 10
4500.0
 20
-6062.176
 30
0.0
 40
200.0
  0
HATCH
  5
546B
330
A
100
AcDbEntity
  8
SOLDERMASK_PADS_BTM
100
AcDbHatch
 10
0.0
 20
0.0
 30
0.0
210
0.0
220
0.0
230
1.0
  2
SOLID
 70
1
 71
1
 91
1
 92
1
 93
1
 72
2
 10
4500.0
 20
-6062.176
 40
200.0
 50
0.0
 51
360.0
 73
0
 97
1
330
21610
 75
0
 76
1
 98
1
 10
0.0
 20
0.0
450
0
451
0
460
0.0
461
0.0
452
0
462
0.0
453
2
463
0
421
0
463
1
421
16777215
470

  0
CIRCLE
  5
54DC
330
A
100
AcDbEntity
  8
SOLDERMASK_PADS_BTM
100
AcDbCircle
 10
3500.0
 20
4330.125
 30
0.0
 40
200.0
  0
HATCH
  5
54DD
330
A
100
AcDbEntity
  8
SOLDERMASK_PADS_BTM
100
AcDbHatch
 10
0.0
 20
0.0
 30
0.0
210
0.0
220
0.0
230
1.0
  2
SOLID
 70
1
 71
1
 91
1
 92
1
 93
1
 72
2
 10
3500.0
 20
4330.125
 40
200.0
 50
0.0
 51
360.0
 73
0
 97
1
330
21724
 75
0
 76
1
 98
1
 10
0.0
 20
0.0
450
0
451
0
460
0.0
461
0.0
452
0
462
0.0
453
2
463
0
421
0
463
1
421
16777215
470

  0
CIRCLE
  5
54DE
330
A
100
AcDbEntity
  8
SOLDERMASK_PADS_BTM
100
AcDbCircle
 10
3500.0
 20
6062.175
 30
0.0
 40
200.0
  0
HATCH
  5
54DF
330
A
100
AcDbEntity
  8
SOLDERMASK_PADS_BTM
100
AcDbHatch
 10
0.0
 20
0.0
 30
0.0
210
0.0
220
0.0
230
1.0
  2
SOLID
 70
1
 71
1
 91
1
 92
1
 93
1
 72
2
 10
3500.0
 20
6062.175
 40
200.0
 50
0.0
 51
360.0
 73
0
 97
1
330
21726
 75
0
 76
1
 98
1
 10
0.0
 20
0.0
450
0
451
0
460
0.0
461
0.0
452
0
462
0.0
453
2
463
0
421
0
463
1
421
16777215
470

  0
CIRCLE
  5
5502
330
A
100
AcDbEntity
  8
SOLDERMASK_PADS_BTM
100
AcDbCircle
 10
3500.0
 20
866.0249999999999
 30
0.0
 40
200.0
  0
HATCH
  5
5503
330
A
100
AcDbEntity
  8
SOLDERMASK_PADS_BTM
100
AcDbHatch
 10
0.0
 20
0.0
 30
0.0
210
0.0
220
0.0
230
1.0
  2
SOLID
 70
1
 71
1
 91
1
 92
1
 93
1
 72
2
 10
3500.0
 20
866.0249999999999
 40
200.0
 50
0.0
 51
360.0
 73
0
 97
1
330
21762
 75
0
 76
1
 98
1
 10
0.0
 20
0.0
450
0
451
0
460
0.0
461
0.0
452
0
462
0.0
453
2
463
0
421
0
463
1
421
16777215
470

  0
CIRCLE
  5
5504
330
A
100
AcDbEntity
  8
SOLDERMASK_PADS_BTM
100
AcDbCircle
 10
3500.0
 20
2598.075
 30
0.0
 40
200.0
  0
HATCH
  5
5505
330
A
100
AcDbEntity
  8
SOLDERMASK_PADS_BTM
100
AcDbHatch
 10
0.0
 20
0.0
 30
0.0
210
0.0
220
0.0
230
1.0
  2
SOLID
 70
1
 71
1
 91
1
 92
1
 93
1
 72
2
 10
3500.0
 20
2598.075
 40
200.0
 50
0.0
 51
360.0
 73
0
 97
1
330
21764
 75
0
 76
1
 98
1
 10
0.0
 20
0.0
450
0
451
0
460
0.0
461
0.0
452
0
462
0.0
453
2
463
0
421
0
463
1
421
16777215
470

  0
CIRCLE
  5
5528
330
A
100
AcDbEntity
  8
SOLDERMASK_PADS_BTM
100
AcDbCircle
 10
3500.0
 20
-4330.125
 30
0.0
 40
200.0
  0
HATCH
  5
5529
330
A
100
AcDbEntity
  8
SOLDERMASK_PADS_BTM
100
AcDbHatch
 10
0.0
 20
0.0
 30
0.0
210
0.0
220
0.0
230
1.0
  2
SOLID
 70
1
 71
1
 91
1
 92
1
 93
1
 72
2
 10
3500.0
 20
-4330.125
 40
200.0
 50
0.0
 51
360.0
 73
0
 97
1
330
21800
 75
0
 76
1
 98
1
 10
0.0
 20
0.0
450
0
451
0
460
0.0
461
0.0
452
0
462
0.0
453
2
463
0
421
0
463
1
421
16777215
470

  0
CIRCLE
  5
552A
330
A
100
AcDbEntity
  8
SOLDERMASK_PADS_BTM
100
AcDbCircle
 10
3500.0
 20
-2598.075
 30
0.0
 40
200.0
  0
HATCH
  5
552B
330
A
100
AcDbEntity
  8
SOLDERMASK_PADS_BTM
100
AcDbHatch
 10
0.0
 20
0.0
 30
0.0
210
0.0
220
0.0
230
1.0
  2
SOLID
 70
1
 71
1
 91
1
 92
1
 93
1
 72
2
 10
3500.0
 20
-2598.075
 40
200.0
 50
0.0
 51
360.0
 73
0
 97
1
330
21802
 75
0
 76
1
 98
1
 10
0.0
 20
0.0
450
0
451
0
460
0.0
461
0.0
452
0
462
0.0
453
2
463
0
421
0
463
1
421
16777215
470

  0
CIRCLE
  5
552C
330
A
100
AcDbEntity
  8
SOLDERMASK_PADS_BTM
100
AcDbCircle
 10
3500.0
 20
-866.0249999999999
 30
0.0
 40
200.0
  0
HATCH
  5
552D
330
A
100
AcDbEntity
  8
SOLDERMASK_PADS_BTM
100
AcDbHatch
 10
0.0
 20
0.0
 30
0.0
210
0.0
220
0.0
230
1.0
  2
SOLID
 70
1
 71
1
 91
1
 92
1
 93
1
 72
2
 10
3500.0
 20
-866.0249999999999
 40
200.0
 50
0.0
 51
360.0
 73
0
 97
1
330
21804
 75
0
 76
1
 98
1
 10
0.0
 20
0.0
450
0
451
0
460
0.0
461
0.0
452
0
462
0.0
453
2
463
0
421
0
463
1
421
16777215
470

  0
CIRCLE
  5
554C
330
A
100
AcDbEntity
  8
SOLDERMASK_PADS_BTM
100
AcDbCircle
 10
3500.0
 20
-6062.175
 30
0.0
 40
200.0
  0
HATCH
  5
554D
330
A
100
AcDbEntity
  8
SOLDERMASK_PADS_BTM
100
AcDbHatch
 10
0.0
 20
0.0
 30
0.0
210
0.0
220
0.0
230
1.0
  2
SOLID
 70
1
 71
1
 91
1
 92
1
 93
1
 72
2
 10
3500.0
 20
-6062.175
 40
200.0
 50
0.0
 51
360.0
 73
0
 97
1
330
21836
 75
0
 76
1
 98
1
 10
0.0
 20
0.0
450
0
451
0
460
0.0
461
0.0
452
0
462
0.0
453
2
463
0
421
0
463
1
421
16777215
470

  0
CIRCLE
  5
558E
330
A
100
AcDbEntity
  8
SOLDERMASK_PADS_BTM
100
AcDbCircle
 10
-4000.0
 20
-5196.15
 30
0.0
 40
200.0
  0
HATCH
  5
558F
330
A
100
AcDbEntity
  8
SOLDERMASK_PADS_BTM
100
AcDbHatch
 10
0.0
 20
0.0
 30
0.0
210
0.0
220
0.0
230
1.0
  2
SOLID
 70
1
 71
1
 91
1
 92
1
 93
1
 72
2
 10
-4000.0
 20
-5196.15
 40
200.0
 50
0.0
 51
360.0
 73
0
 97
1
330
21902
 75
0
 76
1
 98
1
 10
0.0
 20
0.0
450
0
451
0
460
0.0
461
0.0
452
0
462
0.0
453
2
463
0
421
0
463
1
421
16777215
470

  0
CIRCLE
  5
55D6
330
A
100
AcDbEntity
  8
SOLDERMASK_PADS_BTM
100
AcDbCircle
 10
-4500.0
 20
4330.125
 30
0.0
 40
200.0
  0
HATCH
  5
55D7
330
A
100
AcDbEntity
  8
SOLDERMASK_PADS_BTM
100
AcDbHatch
 10
0.0
 20
0.0
 30
0.0
210
0.0
220
0.0
230
1.0
  2
SOLID
 70
1
 71
1
 91
1
 92
1
 93
1
 72
2
 10
-4500.0
 20
4330.125
 40
200.0
 50
0.0
 51
360.0
 73
0
 97
1
330
21974
 75
0
 76
1
 98
1
 10
0.0
 20
0.0
450
0
451
0
460
0.0
461
0.0
452
0
462
0.0
453
2
463
0
421
0
463
1
421
16777215
470

  0
CIRCLE
  5
55D8
330
A
100
AcDbEntity
  8
SOLDERMASK_PADS_BTM
100
AcDbCircle
 10
-4500.0
 20
6062.176
 30
0.0
 40
200.0
  0
HATCH
  5
55D9
330
A
100
AcDbEntity
  8
SOLDERMASK_PADS_BTM
100
AcDbHatch
 10
0.0
 20
0.0
 30
0.0
210
0.0
220
0.0
230
1.0
  2
SOLID
 70
1
 71
1
 91
1
 92
1
 93
1
 72
2
 10
-4500.0
 20
6062.176
 40
200.0
 50
0.0
 51
360.0
 73
0
 97
1
330
21976
 75
0
 76
1
 98
1
 10
0.0
 20
0.0
450
0
451
0
460
0.0
461
0.0
452
0
462
0.0
453
2
463
0
421
0
463
1
421
16777215
470

  0
CIRCLE
  5
55DA
330
A
100
AcDbEntity
  8
SOLDERMASK_PADS_BTM
100
AcDbCircle
 10
-4000.0
 20
5196.15
 30
0.0
 40
200.0
  0
HATCH
  5
55DB
330
A
100
AcDbEntity
  8
SOLDERMASK_PADS_BTM
100
AcDbHatch
 10
0.0
 20
0.0
 30
0.0
210
0.0
220
0.0
230
1.0
  2
SOLID
 70
1
 71
1
 91
1
 92
1
 93
1
 72
2
 10
-4000.0
 20
5196.15
 40
200.0
 50
0.0
 51
360.0
 73
0
 97
1
330
21978
 75
0
 76
1
 98
1
 10
0.0
 20
0.0
450
0
451
0
460
0.0
461
0.0
452
0
462
0.0
453
2
463
0
421
0
463
1
421
16777215
470

  0
CIRCLE
  5
55DE
330
A
100
AcDbEntity
  8
SOLDERMASK_PADS_BTM
100
AcDbCircle
 10
-3500.0
 20
4330.125
 30
0.0
 40
200.0
  0
HATCH
  5
55DF
330
A
100
AcDbEntity
  8
SOLDERMASK_PADS_BTM
100
AcDbHatch
 10
0.0
 20
0.0
 30
0.0
210
0.0
220
0.0
230
1.0
  2
SOLID
 70
1
 71
1
 91
1
 92
1
 93
1
 72
2
 10
-3500.0
 20
4330.125
 40
200.0
 50
0.0
 51
360.0
 73
0
 97
1
330
21982
 75
0
 76
1
 98
1
 10
0.0
 20
0.0
450
0
451
0
460
0.0
461
0.0
452
0
462
0.0
453
2
463
0
421
0
463
1
421
16777215
470

  0
CIRCLE
  5
55E0
330
A
100
AcDbEntity
  8
SOLDERMASK_PADS_BTM
100
AcDbCircle
 10
-3500.0
 20
6062.175
 30
0.0
 40
200.0
  0
HATCH
  5
55E1
330
A
100
AcDbEntity
  8
SOLDERMASK_PADS_BTM
100
AcDbHatch
 10
0.0
 20
0.0
 30
0.0
210
0.0
220
0.0
230
1.0
  2
SOLID
 70
1
 71
1
 91
1
 92
1
 93
1
 72
2
 10
-3500.0
 20
6062.175
 40
200.0
 50
0.0
 51
360.0
 73
0
 97
1
330
21984
 75
0
 76
1
 98
1
 10
0.0
 20
0.0
450
0
451
0
460
0.0
461
0.0
452
0
462
0.0
453
2
463
0
421
0
463
1
421
16777215
470

  0
CIRCLE
  5
55FC
330
A
100
AcDbEntity
  8
SOLDERMASK_PADS_BTM
100
AcDbCircle
 10
-4500.0
 20
866.0249999999999
 30
0.0
 40
200.0
  0
HATCH
  5
55FD
330
A
100
AcDbEntity
  8
SOLDERMASK_PADS_BTM
100
AcDbHatch
 10
0.0
 20
0.0
 30
0.0
210
0.0
220
0.0
230
1.0
  2
SOLID
 70
1
 71
1
 91
1
 92
1
 93
1
 72
2
 10
-4500.0
 20
866.0249999999999
 40
200.0
 50
0.0
 51
360.0
 73
0
 97
1
330
22012
 75
0
 76
1
 98
1
 10
0.0
 20
0.0
450
0
451
0
460
0.0
461
0.0
452
0
462
0.0
453
2
463
0
421
0
463
1
421
16777215
470

  0
CIRCLE
  5
55FE
330
A
100
AcDbEntity
  8
SOLDERMASK_PADS_BTM
100
AcDbCircle
 10
-4000.001
 20
3464.1
 30
0.0
 40
200.0
  0
HATCH
  5
55FF
330
A
100
AcDbEntity
  8
SOLDERMASK_PADS_BTM
100
AcDbHatch
 10
0.0
 20
0.0
 30
0.0
210
0.0
220
0.0
230
1.0
  2
SOLID
 70
1
 71
1
 91
1
 92
1
 93
1
 72
2
 10
-4000.001
 20
3464.1
 40
200.0
 50
0.0
 51
360.0
 73
0
 97
1
330
22014
 75
0
 76
1
 98
1
 10
0.0
 20
0.0
450
0
451
0
460
0.0
461
0.0
452
0
462
0.0
453
2
463
0
421
0
463
1
421
16777215
470

  0
CIRCLE
  5
5600
330
A
100
AcDbEntity
  8
SOLDERMASK_PADS_BTM
100
AcDbCircle
 10
-4000.0
 20
0.0
 30
0.0
 40
200.0
  0
HATCH
  5
5601
330
A
100
AcDbEntity
  8
SOLDERMASK_PADS_BTM
100
AcDbHatch
 10
0.0
 20
0.0
 30
0.0
210
0.0
220
0.0
230
1.0
  2
SOLID
 70
1
 71
1
 91
1
 92
1
 93
1
 72
2
 10
-4000.0
 20
0.0
 40
200.0
 50
0.0
 51
360.0
 73
0
 97
1
330
22016
 75
0
 76
1
 98
1
 10
0.0
 20
0.0
450
0
451
0
460
0.0
461
0.0
452
0
462
0.0
453
2
463
0
421
0
463
1
421
16777215
470

  0
CIRCLE
  5
5602
330
A
100
AcDbEntity
  8
SOLDERMASK_PADS_BTM
100
AcDbCircle
 10
-4000.0
 20
1732.05
 30
0.0
 40
200.0
  0
HATCH
  5
5603
330
A
100
AcDbEntity
  8
SOLDERMASK_PADS_BTM
100
AcDbHatch
 10
0.0
 20
0.0
 30
0.0
210
0.0
220
0.0
230
1.0
  2
SOLID
 70
1
 71
1
 91
1
 92
1
 93
1
 72
2
 10
-4000.0
 20
1732.05
 40
200.0
 50
0.0
 51
360.0
 73
0
 97
1
330
22018
 75
0
 76
1
 98
1
 10
0.0
 20
0.0
450
0
451
0
460
0.0
461
0.0
452
0
462
0.0
453
2
463
0
421
0
463
1
421
16777215
470

  0
CIRCLE
  5
5604
330
A
100
AcDbEntity
  8
SOLDERMASK_PADS_BTM
100
AcDbCircle
 10
-3500.0
 20
866.0249999999999
 30
0.0
 40
200.0
  0
HATCH
  5
5605
330
A
100
AcDbEntity
  8
SOLDERMASK_PADS_BTM
100
AcDbHatch
 10
0.0
 20
0.0
 30
0.0
210
0.0
220
0.0
230
1.0
  2
SOLID
 70
1
 71
1
 91
1
 92
1
 93
1
 72
2
 10
-3500.0
 20
866.0249999999999
 40
200.0
 50
0.0
 51
360.0
 73
0
 97
1
330
22020
 75
0
 76
1
 98
1
 10
0.0
 20
0.0
450
0
451
0
460
0.0
461
0.0
452
0
462
0.0
453
2
463
0
421
0
463
1
421
16777215
470

  0
CIRCLE
  5
5606
330
A
100
AcDbEntity
  8
SOLDERMASK_PADS_BTM
100
AcDbCircle
 10
-3500.0
 20
2598.075
 30
0.0
 40
200.0
  0
HATCH
  5
5607
330
A
100
AcDbEntity
  8
SOLDERMASK_PADS_BTM
100
AcDbHatch
 10
0.0
 20
0.0
 30
0.0
210
0.0
220
0.0
230
1.0
  2
SOLID
 70
1
 71
1
 91
1
 92
1
 93
1
 72
2
 10
-3500.0
 20
2598.075
 40
200.0
 50
0.0
 51
360.0
 73
0
 97
1
330
22022
 75
0
 76
1
 98
1
 10
0.0
 20
0.0
450
0
451
0
460
0.0
461
0.0
452
0
462
0.0
453
2
463
0
421
0
463
1
421
16777215
470

  0
CIRCLE
  5
561E
330
A
100
AcDbEntity
  8
SOLDERMASK_PADS_BTM
100
AcDbCircle
 10
-4500.0
 20
-4330.125
 30
0.0
 40
200.0
  0
HATCH
  5
561F
330
A
100
AcDbEntity
  8
SOLDERMASK_PADS_BTM
100
AcDbHatch
 10
0.0
 20
0.0
 30
0.0
210
0.0
220
0.0
230
1.0
  2
SOLID
 70
1
 71
1
 91
1
 92
1
 93
1
 72
2
 10
-4500.0
 20
-4330.125
 40
200.0
 50
0.0
 51
360.0
 73
0
 97
1
330
22046
 75
0
 76
1
 98
1
 10
0.0
 20
0.0
450
0
451
0
460
0.0
461
0.0
452
0
462
0.0
453
2
463
0
421
0
463
1
421
16777215
470

  0
CIRCLE
  5
5620
330
A
100
AcDbEntity
  8
SOLDERMASK_PADS_BTM
100
AcDbCircle
 10
-4500.0
 20
-866.0249999999999
 30
0.0
 40
200.0
  0
HATCH
  5
5621
330
A
100
AcDbEntity
  8
SOLDERMASK_PADS_BTM
100
AcDbHatch
 10
0.0
 20
0.0
 30
0.0
210
0.0
220
0.0
230
1.0
  2
SOLID
 70
1
 71
1
 91
1
 92
1
 93
1
 72
2
 10
-4500.0
 20
-866.0249999999999
 40
200.0
 50
0.0
 51
360.0
 73
0
 97
1
330
22048
 75
0
 76
1
 98
1
 10
0.0
 20
0.0
450
0
451
0
460
0.0
461
0.0
452
0
462
0.0
453
2
463
0
421
0
463
1
421
16777215
470

  0
CIRCLE
  5
5622
330
A
100
AcDbEntity
  8
SOLDERMASK_PADS_BTM
100
AcDbCircle
 10
-4000.001
 20
-3464.1
 30
0.0
 40
200.0
  0
HATCH
  5
5623
330
A
100
AcDbEntity
  8
SOLDERMASK_PADS_BTM
100
AcDbHatch
 10
0.0
 20
0.0
 30
0.0
210
0.0
220
0.0
230
1.0
  2
SOLID
 70
1
 71
1
 91
1
 92
1
 93
1
 72
2
 10
-4000.001
 20
-3464.1
 40
200.0
 50
0.0
 51
360.0
 73
0
 97
1
330
22050
 75
0
 76
1
 98
1
 10
0.0
 20
0.0
450
0
451
0
460
0.0
461
0.0
452
0
462
0.0
453
2
463
0
421
0
463
1
421
16777215
470

  0
CIRCLE
  5
5624
330
A
100
AcDbEntity
  8
SOLDERMASK_PADS_BTM
100
AcDbCircle
 10
-4000.0
 20
-1732.05
 30
0.0
 40
200.0
  0
HATCH
  5
5625
330
A
100
AcDbEntity
  8
SOLDERMASK_PADS_BTM
100
AcDbHatch
 10
0.0
 20
0.0
 30
0.0
210
0.0
220
0.0
230
1.0
  2
SOLID
 70
1
 71
1
 91
1
 92
1
 93
1
 72
2
 10
-4000.0
 20
-1732.05
 40
200.0
 50
0.0
 51
360.0
 73
0
 97
1
330
22052
 75
0
 76
1
 98
1
 10
0.0
 20
0.0
450
0
451
0
460
0.0
461
0.0
452
0
462
0.0
453
2
463
0
421
0
463
1
421
16777215
470

  0
CIRCLE
  5
5626
330
A
100
AcDbEntity
  8
SOLDERMASK_PADS_BTM
100
AcDbCircle
 10
-3500.0
 20
-4330.125
 30
0.0
 40
200.0
  0
HATCH
  5
5627
330
A
100
AcDbEntity
  8
SOLDERMASK_PADS_BTM
100
AcDbHatch
 10
0.0
 20
0.0
 30
0.0
210
0.0
220
0.0
230
1.0
  2
SOLID
 70
1
 71
1
 91
1
 92
1
 93
1
 72
2
 10
-3500.0
 20
-4330.125
 40
200.0
 50
0.0
 51
360.0
 73
0
 97
1
330
22054
 75
0
 76
1
 98
1
 10
0.0
 20
0.0
450
0
451
0
460
0.0
461
0.0
452
0
462
0.0
453
2
463
0
421
0
463
1
421
16777215
470

  0
CIRCLE
  5
5628
330
A
100
AcDbEntity
  8
SOLDERMASK_PADS_BTM
100
AcDbCircle
 10
-3500.0
 20
-2598.075
 30
0.0
 40
200.0
  0
HATCH
  5
5629
330
A
100
AcDbEntity
  8
SOLDERMASK_PADS_BTM
100
AcDbHatch
 10
0.0
 20
0.0
 30
0.0
210
0.0
220
0.0
230
1.0
  2
SOLID
 70
1
 71
1
 91
1
 92
1
 93
1
 72
2
 10
-3500.0
 20
-2598.075
 40
200.0
 50
0.0
 51
360.0
 73
0
 97
1
330
22056
 75
0
 76
1
 98
1
 10
0.0
 20
0.0
450
0
451
0
460
0.0
461
0.0
452
0
462
0.0
453
2
463
0
421
0
463
1
421
16777215
470

  0
CIRCLE
  5
562A
330
A
100
AcDbEntity
  8
SOLDERMASK_PADS_BTM
100
AcDbCircle
 10
-3500.0
 20
-866.0249999999999
 30
0.0
 40
200.0
  0
HATCH
  5
562B
330
A
100
AcDbEntity
  8
SOLDERMASK_PADS_BTM
100
AcDbHatch
 10
0.0
 20
0.0
 30
0.0
210
0.0
220
0.0
230
1.0
  2
SOLID
 70
1
 71
1
 91
1
 92
1
 93
1
 72
2
 10
-3500.0
 20
-866.0249999999999
 40
200.0
 50
0.0
 51
360.0
 73
0
 97
1
330
22058
 75
0
 76
1
 98
1
 10
0.0
 20
0.0
450
0
451
0
460
0.0
461
0.0
452
0
462
0.0
453
2
463
0
421
0
463
1
421
16777215
470

  0
CIRCLE
  5
5642
330
A
100
AcDbEntity
  8
SOLDERMASK_PADS_BTM
100
AcDbCircle
 10
-4500.0
 20
-6062.176
 30
0.0
 40
200.0
  0
HATCH
  5
5643
330
A
100
AcDbEntity
  8
SOLDERMASK_PADS_BTM
100
AcDbHatch
 10
0.0
 20
0.0
 30
0.0
210
0.0
220
0.0
230
1.0
  2
SOLID
 70
1
 71
1
 91
1
 92
1
 93
1
 72
2
 10
-4500.0
 20
-6062.176
 40
200.0
 50
0.0
 51
360.0
 73
0
 97
1
330
22082
 75
0
 76
1
 98
1
 10
0.0
 20
0.0
450
0
451
0
460
0.0
461
0.0
452
0
462
0.0
453
2
463
0
421
0
463
1
421
16777215
470

  0
CIRCLE
  5
5648
330
A
100
AcDbEntity
  8
SOLDERMASK_PADS_BTM
100
AcDbCircle
 10
-3500.0
 20
-6062.175
 30
0.0
 40
200.0
  0
HATCH
  5
5649
330
A
100
AcDbEntity
  8
SOLDERMASK_PADS_BTM
100
AcDbHatch
 10
0.0
 20
0.0
 30
0.0
210
0.0
220
0.0
230
1.0
  2
SOLID
 70
1
 71
1
 91
1
 92
1
 93
1
 72
2
 10
-3500.0
 20
-6062.175
 40
200.0
 50
0.0
 51
360.0
 73
0
 97
1
330
22088
 75
0
 76
1
 98
1
 10
0.0
 20
0.0
450
0
451
0
460
0.0
461
0.0
452
0
462
0.0
453
2
463
0
421
0
463
1
421
16777215
470

  0
CIRCLE
  5
56D6
330
A
100
AcDbEntity
  8
SOLDERMASK_PADS_BTM
100
AcDbCircle
 10
-5676.501
 20
6221.82
 30
0.0
 40
200.0
  0
HATCH
  5
56D7
330
A
100
AcDbEntity
  8
SOLDERMASK_PADS_BTM
100
AcDbHatch
 10
0.0
 20
0.0
 30
0.0
210
0.0
220
0.0
230
1.0
  2
SOLID
 70
1
 71
1
 91
1
 92
1
 93
1
 72
2
 10
-5676.501
 20
6221.82
 40
200.0
 50
0.0
 51
360.0
 73
0
 97
1
330
22230
 75
0
 76
1
 98
1
 10
0.0
 20
0.0
450
0
451
0
460
0.0
461
0.0
452
0
462
0.0
453
2
463
0
421
0
463
1
421
16777215
470

  0
CIRCLE
  5
56D8
330
A
100
AcDbEntity
  8
SOLDERMASK_PADS_BTM
100
AcDbCircle
 10
-6476.5
 20
6221.82
 30
0.0
 40
200.0
  0
HATCH
  5
56D9
330
A
100
AcDbEntity
  8
SOLDERMASK_PADS_BTM
100
AcDbHatch
 10
0.0
 20
0.0
 30
0.0
210
0.0
220
0.0
230
1.0
  2
SOLID
 70
1
 71
1
 91
1
 92
1
 93
1
 72
2
 10
-6476.5
 20
6221.82
 40
200.0
 50
0.0
 51
360.0
 73
0
 97
1
330
22232
 75
0
 76
1
 98
1
 10
0.0
 20
0.0
450
0
451
0
460
0.0
461
0.0
452
0
462
0.0
453
2
463
0
421
0
463
1
421
16777215
470

  0
CIRCLE
  5
56DA
330
A
100
AcDbEntity
  8
SOLDERMASK_PADS_BTM
100
AcDbCircle
 10
-7276.5
 20
6221.821
 30
0.0
 40
200.0
  0
HATCH
  5
56DB
330
A
100
AcDbEntity
  8
SOLDERMASK_PADS_BTM
100
AcDbHatch
 10
0.0
 20
0.0
 30
0.0
210
0.0
220
0.0
230
1.0
  2
SOLID
 70
1
 71
1
 91
1
 92
1
 93
1
 72
2
 10
-7276.5
 20
6221.821
 40
200.0
 50
0.0
 51
360.0
 73
0
 97
1
330
22234
 75
0
 76
1
 98
1
 10
0.0
 20
0.0
450
0
451
0
460
0.0
461
0.0
452
0
462
0.0
453
2
463
0
421
0
463
1
421
16777215
470

  0
CIRCLE
  5
56DC
330
A
100
AcDbEntity
  8
SOLDERMASK_PADS_BTM
100
AcDbCircle
 10
-8076.500000000001
 20
6221.82
 30
0.0
 40
200.0
  0
HATCH
  5
56DD
330
A
100
AcDbEntity
  8
SOLDERMASK_PADS_BTM
100
AcDbHatch
 10
0.0
 20
0.0
 30
0.0
210
0.0
220
0.0
230
1.0
  2
SOLID
 70
1
 71
1
 91
1
 92
1
 93
1
 72
2
 10
-8076.500000000001
 20
6221.82
 40
200.0
 50
0.0
 51
360.0
 73
0
 97
1
330
22236
 75
0
 76
1
 98
1
 10
0.0
 20
0.0
450
0
451
0
460
0.0
461
0.0
452
0
462
0.0
453
2
463
0
421
0
463
1
421
16777215
470

  0
CIRCLE
  5
56DE
330
A
100
AcDbEntity
  8
SOLDERMASK_PADS_BTM
100
AcDbCircle
 10
-8876.5
 20
6221.82
 30
0.0
 40
200.0
  0
HATCH
  5
56DF
330
A
100
AcDbEntity
  8
SOLDERMASK_PADS_BTM
100
AcDbHatch
 10
0.0
 20
0.0
 30
0.0
210
0.0
220
0.0
230
1.0
  2
SOLID
 70
1
 71
1
 91
1
 92
1
 93
1
 72
2
 10
-8876.5
 20
6221.82
 40
200.0
 50
0.0
 51
360.0
 73
0
 97
1
330
22238
 75
0
 76
1
 98
1
 10
0.0
 20
0.0
450
0
451
0
460
0.0
461
0.0
452
0
462
0.0
453
2
463
0
421
0
463
1
421
16777215
470

  0
CIRCLE
  5
56FE
330
A
100
AcDbEntity
  8
SOLDERMASK_PADS_BTM
100
AcDbCircle
 10
-5676.5
 20
-6248.94
 30
0.0
 40
200.0
  0
HATCH
  5
56FF
330
A
100
AcDbEntity
  8
SOLDERMASK_PADS_BTM
100
AcDbHatch
 10
0.0
 20
0.0
 30
0.0
210
0.0
220
0.0
230
1.0
  2
SOLID
 70
1
 71
1
 91
1
 92
1
 93
1
 72
2
 10
-5676.5
 20
-6248.94
 40
200.0
 50
0.0
 51
360.0
 73
0
 97
1
330
22270
 75
0
 76
1
 98
1
 10
0.0
 20
0.0
450
0
451
0
460
0.0
461
0.0
452
0
462
0.0
453
2
463
0
421
0
463
1
421
16777215
470

  0
CIRCLE
  5
5700
330
A
100
AcDbEntity
  8
SOLDERMASK_PADS_BTM
100
AcDbCircle
 10
-6476.5
 20
-6248.94
 30
0.0
 40
200.0
  0
HATCH
  5
5701
330
A
100
AcDbEntity
  8
SOLDERMASK_PADS_BTM
100
AcDbHatch
 10
0.0
 20
0.0
 30
0.0
210
0.0
220
0.0
230
1.0
  2
SOLID
 70
1
 71
1
 91
1
 92
1
 93
1
 72
2
 10
-6476.5
 20
-6248.94
 40
200.0
 50
0.0
 51
360.0
 73
0
 97
1
330
22272
 75
0
 76
1
 98
1
 10
0.0
 20
0.0
450
0
451
0
460
0.0
461
0.0
452
0
462
0.0
453
2
463
0
421
0
463
1
421
16777215
470

  0
CIRCLE
  5
5702
330
A
100
AcDbEntity
  8
SOLDERMASK_PADS_BTM
100
AcDbCircle
 10
-7276.5
 20
-6248.94
 30
0.0
 40
200.0
  0
HATCH
  5
5703
330
A
100
AcDbEntity
  8
SOLDERMASK_PADS_BTM
100
AcDbHatch
 10
0.0
 20
0.0
 30
0.0
210
0.0
220
0.0
230
1.0
  2
SOLID
 70
1
 71
1
 91
1
 92
1
 93
1
 72
2
 10
-7276.5
 20
-6248.94
 40
200.0
 50
0.0
 51
360.0
 73
0
 97
1
330
22274
 75
0
 76
1
 98
1
 10
0.0
 20
0.0
450
0
451
0
460
0.0
461
0.0
452
0
462
0.0
453
2
463
0
421
0
463
1
421
16777215
470

  0
CIRCLE
  5
5704
330
A
100
AcDbEntity
  8
SOLDERMASK_PADS_BTM
100
AcDbCircle
 10
-8076.500000000001
 20
-6248.94
 30
0.0
 40
200.0
  0
HATCH
  5
5705
330
A
100
AcDbEntity
  8
SOLDERMASK_PADS_BTM
100
AcDbHatch
 10
0.0
 20
0.0
 30
0.0
210
0.0
220
0.0
230
1.0
  2
SOLID
 70
1
 71
1
 91
1
 92
1
 93
1
 72
2
 10
-8076.500000000001
 20
-6248.94
 40
200.0
 50
0.0
 51
360.0
 73
0
 97
1
330
22276
 75
0
 76
1
 98
1
 10
0.0
 20
0.0
450
0
451
0
460
0.0
461
0.0
452
0
462
0.0
453
2
463
0
421
0
463
1
421
16777215
470

  0
CIRCLE
  5
5706
330
A
100
AcDbEntity
  8
SOLDERMASK_PADS_BTM
100
AcDbCircle
 10
-8876.5
 20
-6248.94
 30
0.0
 40
200.0
  0
HATCH
  5
5707
330
A
100
AcDbEntity
  8
SOLDERMASK_PADS_BTM
100
AcDbHatch
 10
0.0
 20
0.0
 30
0.0
210
0.0
220
0.0
230
1.0
  2
SOLID
 70
1
 71
1
 91
1
 92
1
 93
1
 72
2
 10
-8876.5
 20
-6248.94
 40
200.0
 50
0.0
 51
360.0
 73
0
 97
1
330
22278
 75
0
 76
1
 98
1
 10
0.0
 20
0.0
450
0
451
0
460
0.0
461
0.0
452
0
462
0.0
453
2
463
0
421
0
463
1
421
16777215
470

  0
CIRCLE
  5
578C
330
A
100
AcDbEntity
  8
SOLDERMASK_PADS_BTM
100
AcDbCircle
 10
-13676.5
 20
4836.18
 30
0.0
 40
200.0
  0
HATCH
  5
578D
330
A
100
AcDbEntity
  8
SOLDERMASK_PADS_BTM
100
AcDbHatch
 10
0.0
 20
0.0
 30
0.0
210
0.0
220
0.0
230
1.0
  2
SOLID
 70
1
 71
1
 91
1
 92
1
 93
1
 72
2
 10
-13676.5
 20
4836.18
 40
200.0
 50
0.0
 51
360.0
 73
0
 97
1
330
22412
 75
0
 76
1
 98
1
 10
0.0
 20
0.0
450
0
451
0
460
0.0
461
0.0
452
0
462
0.0
453
2
463
0
421
0
463
1
421
16777215
470

  0
CIRCLE
  5
578E
330
A
100
AcDbEntity
  8
SOLDERMASK_PADS_BTM
100
AcDbCircle
 10
-13276.5
 20
5529.0
 30
0.0
 40
200.0
  0
HATCH
  5
578F
330
A
100
AcDbEntity
  8
SOLDERMASK_PADS_BTM
100
AcDbHatch
 10
0.0
 20
0.0
 30
0.0
210
0.0
220
0.0
230
1.0
  2
SOLID
 70
1
 71
1
 91
1
 92
1
 93
1
 72
2
 10
-13276.5
 20
5529.0
 40
200.0
 50
0.0
 51
360.0
 73
0
 97
1
330
22414
 75
0
 76
1
 98
1
 10
0.0
 20
0.0
450
0
451
0
460
0.0
461
0.0
452
0
462
0.0
453
2
463
0
421
0
463
1
421
16777215
470

  0
CIRCLE
  5
5790
330
A
100
AcDbEntity
  8
SOLDERMASK_PADS_BTM
100
AcDbCircle
 10
-10476.5
 20
6221.82
 30
0.0
 40
200.0
  0
HATCH
  5
5791
330
A
100
AcDbEntity
  8
SOLDERMASK_PADS_BTM
100
AcDbHatch
 10
0.0
 20
0.0
 30
0.0
210
0.0
220
0.0
230
1.0
  2
SOLID
 70
1
 71
1
 91
1
 92
1
 93
1
 72
2
 10
-10476.5
 20
6221.82
 40
200.0
 50
0.0
 51
360.0
 73
0
 97
1
330
22416
 75
0
 76
1
 98
1
 10
0.0
 20
0.0
450
0
451
0
460
0.0
461
0.0
452
0
462
0.0
453
2
463
0
421
0
463
1
421
16777215
470

  0
CIRCLE
  5
5792
330
A
100
AcDbEntity
  8
SOLDERMASK_PADS_BTM
100
AcDbCircle
 10
-11276.501
 20
6221.82
 30
0.0
 40
200.0
  0
HATCH
  5
5793
330
A
100
AcDbEntity
  8
SOLDERMASK_PADS_BTM
100
AcDbHatch
 10
0.0
 20
0.0
 30
0.0
210
0.0
220
0.0
230
1.0
  2
SOLID
 70
1
 71
1
 91
1
 92
1
 93
1
 72
2
 10
-11276.501
 20
6221.82
 40
200.0
 50
0.0
 51
360.0
 73
0
 97
1
330
22418
 75
0
 76
1
 98
1
 10
0.0
 20
0.0
450
0
451
0
460
0.0
461
0.0
452
0
462
0.0
453
2
463
0
421
0
463
1
421
16777215
470

  0
CIRCLE
  5
5794
330
A
100
AcDbEntity
  8
SOLDERMASK_PADS_BTM
100
AcDbCircle
 10
-12076.5
 20
6221.82
 30
0.0
 40
200.0
  0
HATCH
  5
5795
330
A
100
AcDbEntity
  8
SOLDERMASK_PADS_BTM
100
AcDbHatch
 10
0.0
 20
0.0
 30
0.0
210
0.0
220
0.0
230
1.0
  2
SOLID
 70
1
 71
1
 91
1
 92
1
 93
1
 72
2
 10
-12076.5
 20
6221.82
 40
200.0
 50
0.0
 51
360.0
 73
0
 97
1
330
22420
 75
0
 76
1
 98
1
 10
0.0
 20
0.0
450
0
451
0
460
0.0
461
0.0
452
0
462
0.0
453
2
463
0
421
0
463
1
421
16777215
470

  0
CIRCLE
  5
5796
330
A
100
AcDbEntity
  8
SOLDERMASK_PADS_BTM
100
AcDbCircle
 10
-12876.5
 20
6221.821
 30
0.0
 40
200.0
  0
HATCH
  5
5797
330
A
100
AcDbEntity
  8
SOLDERMASK_PADS_BTM
100
AcDbHatch
 10
0.0
 20
0.0
 30
0.0
210
0.0
220
0.0
230
1.0
  2
SOLID
 70
1
 71
1
 91
1
 92
1
 93
1
 72
2
 10
-12876.5
 20
6221.821
 40
200.0
 50
0.0
 51
360.0
 73
0
 97
1
330
22422
 75
0
 76
1
 98
1
 10
0.0
 20
0.0
450
0
451
0
460
0.0
461
0.0
452
0
462
0.0
453
2
463
0
421
0
463
1
421
16777215
470

  0
CIRCLE
  5
5798
330
A
100
AcDbEntity
  8
SOLDERMASK_PADS_BTM
100
AcDbCircle
 10
-13676.5
 20
6221.82
 30
0.0
 40
200.0
  0
HATCH
  5
5799
330
A
100
AcDbEntity
  8
SOLDERMASK_PADS_BTM
100
AcDbHatch
 10
0.0
 20
0.0
 30
0.0
210
0.0
220
0.0
230
1.0
  2
SOLID
 70
1
 71
1
 91
1
 92
1
 93
1
 72
2
 10
-13676.5
 20
6221.82
 40
200.0
 50
0.0
 51
360.0
 73
0
 97
1
330
22424
 75
0
 76
1
 98
1
 10
0.0
 20
0.0
450
0
451
0
460
0.0
461
0.0
452
0
462
0.0
453
2
463
0
421
0
463
1
421
16777215
470

  0
CIRCLE
  5
57B8
330
A
100
AcDbEntity
  8
SOLDERMASK_PADS_BTM
100
AcDbCircle
 10
-10476.5
 20
-6248.94
 30
0.0
 40
200.0
  0
HATCH
  5
57B9
330
A
100
AcDbEntity
  8
SOLDERMASK_PADS_BTM
100
AcDbHatch
 10
0.0
 20
0.0
 30
0.0
210
0.0
220
0.0
230
1.0
  2
SOLID
 70
1
 71
1
 91
1
 92
1
 93
1
 72
2
 10
-10476.5
 20
-6248.94
 40
200.0
 50
0.0
 51
360.0
 73
0
 97
1
330
22456
 75
0
 76
1
 98
1
 10
0.0
 20
0.0
450
0
451
0
460
0.0
461
0.0
452
0
462
0.0
453
2
463
0
421
0
463
1
421
16777215
470

  0
CIRCLE
  5
57BA
330
A
100
AcDbEntity
  8
SOLDERMASK_PADS_BTM
100
AcDbCircle
 10
-11276.5
 20
-6248.94
 30
0.0
 40
200.0
  0
HATCH
  5
57BB
330
A
100
AcDbEntity
  8
SOLDERMASK_PADS_BTM
100
AcDbHatch
 10
0.0
 20
0.0
 30
0.0
210
0.0
220
0.0
230
1.0
  2
SOLID
 70
1
 71
1
 91
1
 92
1
 93
1
 72
2
 10
-11276.5
 20
-6248.94
 40
200.0
 50
0.0
 51
360.0
 73
0
 97
1
330
22458
 75
0
 76
1
 98
1
 10
0.0
 20
0.0
450
0
451
0
460
0.0
461
0.0
452
0
462
0.0
453
2
463
0
421
0
463
1
421
16777215
470

  0
CIRCLE
  5
57BC
330
A
100
AcDbEntity
  8
SOLDERMASK_PADS_BTM
100
AcDbCircle
 10
-12076.5
 20
-6248.94
 30
0.0
 40
200.0
  0
HATCH
  5
57BD
330
A
100
AcDbEntity
  8
SOLDERMASK_PADS_BTM
100
AcDbHatch
 10
0.0
 20
0.0
 30
0.0
210
0.0
220
0.0
230
1.0
  2
SOLID
 70
1
 71
1
 91
1
 92
1
 93
1
 72
2
 10
-12076.5
 20
-6248.94
 40
200.0
 50
0.0
 51
360.0
 73
0
 97
1
330
22460
 75
0
 76
1
 98
1
 10
0.0
 20
0.0
450
0
451
0
460
0.0
461
0.0
452
0
462
0.0
453
2
463
0
421
0
463
1
421
16777215
470

  0
CIRCLE
  5
57BE
330
A
100
AcDbEntity
  8
SOLDERMASK_PADS_BTM
100
AcDbCircle
 10
-12876.5
 20
-6248.94
 30
0.0
 40
200.0
  0
HATCH
  5
57BF
330
A
100
AcDbEntity
  8
SOLDERMASK_PADS_BTM
100
AcDbHatch
 10
0.0
 20
0.0
 30
0.0
210
0.0
220
0.0
230
1.0
  2
SOLID
 70
1
 71
1
 91
1
 92
1
 93
1
 72
2
 10
-12876.5
 20
-6248.94
 40
200.0
 50
0.0
 51
360.0
 73
0
 97
1
330
22462
 75
0
 76
1
 98
1
 10
0.0
 20
0.0
450
0
451
0
460
0.0
461
0.0
452
0
462
0.0
453
2
463
0
421
0
463
1
421
16777215
470

  0
CIRCLE
  5
5C06
330
A
100
AcDbEntity
  8
SOLDERMASK_PADS_BTM
100
AcDbCircle
 10
4500.0
 20
2598.075
 30
0.0
 40
175.0
  0
HATCH
  5
5C07
330
A
100
AcDbEntity
  8
SOLDERMASK_PADS_BTM
100
AcDbHatch
 10
0.0
 20
0.0
 30
0.0
210
0.0
220
0.0
230
1.0
  2
SOLID
 70
1
 71
1
 91
1
 92
1
 93
1
 72
2
 10
4500.0
 20
2598.075
 40
175.0
 50
0.0
 51
360.0
 73
0
 97
1
330
23558
 75
0
 76
1
 98
1
 10
0.0
 20
0.0
450
0
451
0
460
0.0
461
0.0
452
0
462
0.0
453
2
463
0
421
0
463
1
421
16777215
470

  0
CIRCLE
  5
5C10
330
A
100
AcDbEntity
  8
SOLDERMASK_PADS_BTM
100
AcDbCircle
 10
-4500.0
 20
2598.075
 30
0.0
 40
175.0
  0
HATCH
  5
5C11
330
A
100
AcDbEntity
  8
SOLDERMASK_PADS_BTM
100
AcDbHatch
 10
0.0
 20
0.0
 30
0.0
210
0.0
220
0.0
230
1.0
  2
SOLID
 70
1
 71
1
 91
1
 92
1
 93
1
 72
2
 10
-4500.0
 20
2598.075
 40
175.0
 50
0.0
 51
360.0
 73
0
 97
1
330
23568
 75
0
 76
1
 98
1
 10
0.0
 20
0.0
450
0
451
0
460
0.0
461
0.0
452
0
462
0.0
453
2
463
0
421
0
463
1
421
16777215
470

  0
CIRCLE
  5
5C14
330
A
100
AcDbEntity
  8
SOLDERMASK_PADS_BTM
100
AcDbCircle
 10
-4500.0
 20
-2598.075
 30
0.0
 40
175.0
  0
HATCH
  5
5C15
330
A
100
AcDbEntity
  8
SOLDERMASK_PADS_BTM
100
AcDbHatch
 10
0.0
 20
0.0
 30
0.0
210
0.0
220
0.0
230
1.0
  2
SOLID
 70
1
 71
1
 91
1
 92
1
 93
1
 72
2
 10
-4500.0
 20
-2598.075
 40
175.0
 50
0.0
 51
360.0
 73
0
 97
1
330
23572
 75
0
 76
1
 98
1
 10
0.0
 20
0.0
450
0
451
0
460
0.0
461
0.0
452
0
462
0.0
453
2
463
0
421
0
463
1
421
16777215
470

  0
CIRCLE
  5
6038
330
A
100
AcDbEntity
  8
SOLDERMASK_PADS_BTM
100
AcDbCircle
 10
4500.0
 20
-2598.075
 30
0.0
 40
175.0
  0
HATCH
  5
6039
330
A
100
AcDbEntity
  8
SOLDERMASK_PADS_BTM
100
AcDbHatch
 10
0.0
 20
0.0
 30
0.0
210
0.0
220
0.0
230
1.0
  2
SOLID
 70
1
 71
1
 91
1
 92
1
 93
1
 72
2
 10
4500.0
 20
-2598.075
 40
175.0
 50
0.0
 51
360.0
 73
0
 97
1
330
24632
 75
0
 76
1
 98
1
 10
0.0
 20
0.0
450
0
451
0
460
0.0
461
0.0
452
0
462
0.0
453
2
463
0
421
0
463
1
421
16777215
470

  0
LWPOLYLINE
  5
6BE2
330
A
100
AcDbEntity
  8
SOLDERMASK_PADS_BTM
100
AcDbPolyline
 90
4
 70
1
 10
9419.706
 20
-294.975
 10
9193.431999999999
 20
-68.701
 10
9447.99
 20
185.857
 10
9674.264
 20
-40.417
  0
HATCH
  5
6BE3
330
A
100
AcDbEntity
  8
SOLDERMASK_PADS_BTM
100
AcDbHatch
 10
0.0
 20
0.0
 30
0.0
210
0.0
220
0.0
230
1.0
  2
SOLID
 70
1
 71
1
 91
1
 92
2
 72
0
 73
1
 93
4
 10
9419.706
 20
-294.975
 10
9193.431999999999
 20
-68.701
 10
9447.99
 20
185.857
 10
9674.264
 20
-40.417
 97
1
330
27618
 75
0
 76
1
 98
1
 10
0.0
 20
0.0
450
0
451
0
460
0.0
461
0.0
452
0
462
0.0
453
2
463
0
421
0
463
1
421
16777215
470

  0
LWPOLYLINE
  5
6BE4
330
A
100
AcDbEntity
  8
SOLDERMASK_PADS_BTM
100
AcDbPolyline
 90
4
 70
1
 10
9052.01
 20
72.721
 10
8825.735999999999
 20
298.995
 10
9080.294
 20
553.553
 10
9306.568000000001
 20
327.279
  0
HATCH
  5
6BE5
330
A
100
AcDbEntity
  8
SOLDERMASK_PADS_BTM
100
AcDbHatch
 10
0.0
 20
0.0
 30
0.0
210
0.0
220
0.0
230
1.0
  2
SOLID
 70
1
 71
1
 91
1
 92
2
 72
0
 73
1
 93
4
 10
9052.01
 20
72.721
 10
8825.735999999999
 20
298.995
 10
9080.294
 20
553.553
 10
9306.568000000001
 20
327.279
 97
1
330
27620
 75
0
 76
1
 98
1
 10
0.0
 20
0.0
450
0
451
0
460
0.0
461
0.0
452
0
462
0.0
453
2
463
0
421
0
463
1
421
16777215
470

  0
LWPOLYLINE
  5
6BE7
330
A
100
AcDbEntity
  8
PKG_OUTLINE
100
AcDbPolyline
 90
4
 70
1
 10
-46250.0
 20
-46250.0
 10
-46250.0
 20
46250.0
 10
46250.0
 20
46250.0
 10
46250.0
 20
-46250.0
  0
LWPOLYLINE
  5
276A1
330
A
100
AcDbEntity
  8
jigstreet
100
AcDbPolyline
 90
17
 70
0
 10
8930.0
 20
-525.4513778910604
 10
8930.0
 20
-1045.4513778910602
 10
8928.85047602141
 20
-1068.8504760214103
 10
8905.451377891077
 20
-1070.0000000000002
 10
7094.548622108929
 20
-1070.0000000000002
 10
7071.14952397859
 20
-1068.85047602141
 10
7070.0
 20
-1045.4513778910741
 10
7070.0
 20
-525.4513778910741
 10
7070.0
 20
725.451377891074
 10
7070.0
 20
1245.4513778910741
 10
7071.14952397859
 20
1268.8504760214096
 10
7094.548622108929
 20
1270.0
 10
8905.451377891077
 20
1270.0
 10
8928.85047602141
 20
1268.85047602141
 10
8930.0
 20
1245.4513778910602
 10
8930.0
 20
725.4513778910602
 10
8930.0
 20
-525.4513778910604
  0
LWPOLYLINE
  5
276A2
330
A
100
AcDbEntity
  8
jigstreet
100
AcDbPolyline
 90
17
 70
0
 10
-10120.000000000002
 20
-504.7403778910604
 10
-10120.000000000002
 20
-1024.7403778910602
 10
-10121.14952397859
 20
-1048.13947602141
 10
-10144.548622108925
 20
-1049.289
 10
-11955.451377891073
 20
-1049.289
 10
-11978.850476021411
 20
-1048.13947602141
 10
-11980.0
 20
-1024.7403778910602
 10
-11980.0
 20
-504.7403778910604
 10
-11980.0
 20
746.1623778910605
 10
-11980.0
 20
1266.1623778910603
 10
-11978.850476021411
 20
1289.56147602141
 10
-11955.451377891073
 20
1290.711
 10
-10144.548622108925
 20
1290.711
 10
-10121.14952397859
 20
1289.56147602141
 10
-10120.000000000002
 20
1266.1623778910603
 10
-10120.000000000002
 20
746.1623778910603
 10
-10120.000000000002
 20
-504.7403778910604
  0
LWPOLYLINE
  5
276A3
330
A
100
AcDbEntity
  8
jigstreet
100
AcDbPolyline
 90
17
 70
0
 10
9854.548622108925
 20
980.0
 10
10374.548622108925
 20
980.0
 10
11625.451377891075
 20
980.0
 10
12145.451377891075
 20
980.0
 10
12168.85047602141
 20
978.8504760214099
 10
12170.0
 20
955.4513778910602
 10
12170.0
 20
-855.4513778910604
 10
12168.85047602141
 20
-878.8504760214099
 10
12145.451377891075
 20
-879.9999999999999
 10
11625.451377891075
 20
-879.9999999999999
 10
10374.548622108925
 20
-879.9999999999999
 10
9854.548622108925
 20
-879.9999999999999
 10
9831.14952397859
 20
-878.85047602141
 10
9830.0
 20
-855.4513778910604
 10
9830.0
 20
955.4513778910605
 10
9831.14952397859
 20
978.8504760214099
 10
9854.548622108925
 20
980.0
  0
LWPOLYLINE
  5
276A4
330
A
100
AcDbEntity
  8
jigstreet
100
AcDbPolyline
 90
17
 70
0
 10
-9195.451377891075
 20
1000.7109999999999
 10
-8675.451377891075
 20
1000.7109999999999
 10
-7424.548622108929
 20
1000.7109999999999
 10
-6904.548622108928
 20
1000.7109999999999
 10
-6881.149523978589
 20
999.5614760214098
 10
-6880.0
 20
976.1623778910738
 10
-6880.0
 20
-834.7403778910738
 10
-6881.149523978589
 20
-858.1394760214098
 10
-6904.548622108928
 20
-859.289
 10
-7424.548622108929
 20
-859.289
 10
-8675.451377891075
 20
-859.289
 10
-9195.451377891075
 20
-859.289
 10
-9218.850476021411
 20
-858.1394760214099
 10
-9220.0
 20
-834.7403778910605
 10
-9220.0
 20
976.1623778910604
 10
-9218.850476021411
 20
999.5614760214099
 10
-9195.451377891075
 20
1000.7109999999999
  0
ENDSEC
  0
SECTION
  2
OBJECTS
  0
DICTIONARY
  5
16
330
0
100
AcDbDictionary
281
1
  3
ACAD_CIP_PREVIOUS_PRODUCT_INFO
350
27675
  3
ACAD_COLOR
350
27655
  3
ACAD_DETAILVIEWSTYLE
350
2766F
  3
ACAD_GROUP
350
17
  3
ACAD_LAYOUT
350
27656
  3
ACAD_MATERIAL
350
27623
  3
ACAD_MLEADERSTYLE
350
2766B
  3
ACAD_MLINESTYLE
350
18
  3
ACAD_PLOTSETTINGS
350
27671
  3
ACAD_PLOTSTYLENAME
350
27621
  3
ACAD_SCALELIST
350
27659
  3
ACAD_SECTIONVIEWSTYLE
350
2766D
  3
ACAD_TABLESTYLE
350
27657
  3
ACAD_VISUALSTYLE
350
2763C
  3
ACDB_RECOMPOSE_DATA
350
2769D
  3
AcDbVariableDictionary
350
27691
  3
ASE_INDEX_DICTIONARY
350
27677
  0
DICTIONARY
  5
27685
330
6BE8
100
AcDbDictionary
280
1
281
1
  3
ADSK_XREC_LAYER_RECONCILED
360
27686
  0
DICTIONARY
  5
27687
330
6BE9
100
AcDbDictionary
280
1
281
1
  3
ADSK_XREC_LAYER_RECONCILED
360
27688
  0
DICTIONARY
  5
27689
330
6BEA
100
AcDbDictionary
280
1
281
1
  3
ADSK_XREC_LAYER_RECONCILED
360
2768A
  0
DICTIONARY
  5
2768B
330
6BEB
100
AcDbDictionary
280
1
281
1
  3
ADSK_XREC_LAYER_RECONCILED
360
2768C
  0
DICTIONARY
  5
2768D
330
6BEC
100
AcDbDictionary
280
1
281
1
  3
ADSK_XREC_LAYER_RECONCILED
360
2768E
  0
DICTIONARY
  5
2768F
330
6BED
100
AcDbDictionary
280
1
281
1
  3
ADSK_XREC_LAYER_RECONCILED
360
27690
  0
XRECORD
  5
27675
102
{ACAD_REACTORS
330
16
102
}
330
16
100
AcDbXrecord
280
1
300
ACD
300
2021
300
87393ACD_2021_0F
  0
DICTIONARY
  5
27655
102
{ACAD_REACTORS
330
16
102
}
330
16
100
AcDbDictionary
281
1
  0
DICTIONARY
  5
2766F
102
{ACAD_REACTORS
330
16
102
}
330
16
100
AcDbDictionary
281
1
  3
Imperial24
350
27670
  0
DICTIONARY
  5
17
102
{ACAD_REACTORS
330
16
102
}
330
16
100
AcDbDictionary
281
1
  0
DICTIONARY
  5
27656
102
{ACAD_REACTORS
330
16
102
}
330
16
100
AcDbDictionary
281
1
  3
Layout1
350
27673
  3
Model
350
27672
  0
DICTIONARY
  5
27623
102
{ACAD_REACTORS
330
16
102
}
330
16
100
AcDbDictionary
281
1
  3
ByBlock
350
2762C
  3
ByLayer
350
27624
  3
Global
350
27634
  0
DICTIONARY
  5
2766B
102
{ACAD_REACTORS
330
16
102
}
330
16
100
AcDbDictionary
281
1
  3
Standard
350
2766C
  0
DICTIONARY
  5
18
102
{ACAD_REACTORS
330
16
102
}
330
16
100
AcDbDictionary
281
1
  3
STANDARD
350
19
  3
Standard
350
2769E
  0
DICTIONARY
  5
27671
102
{ACAD_REACTORS
330
16
102
}
330
16
100
AcDbDictionary
281
1
  0
ACDBDICTIONARYWDFLT
  5
27621
102
{ACAD_REACTORS
330
16
102
}
330
16
100
AcDbDictionary
281
1
  3
Normal
350
27622
100
AcDbDictionaryWithDefault
340
27622
  0
DICTIONARY
  5
27659
102
{ACAD_REACTORS
330
16
102
}
330
16
100
AcDbDictionary
281
1
  3
A0
350
2765A
  3
A1
350
2765B
  3
A2
350
2765C
  3
A3
350
2765D
  3
A4
350
2765E
  3
A5
350
2765F
  3
A6
350
27660
  3
A7
350
27661
  3
A8
350
27662
  3
A9
350
27663
  3
B0
350
27664
  3
B1
350
27665
  3
B2
350
27666
  3
B3
350
27667
  3
B4
350
27668
  3
B5
350
27669
  3
B6
350
2766A
  0
DICTIONARY
  5
2766D
102
{ACAD_REACTORS
330
16
102
}
330
16
100
AcDbDictionary
281
1
  3
Imperial24
350
2766E
  0
DICTIONARY
  5
27657
102
{ACAD_REACTORS
330
16
102
}
330
16
100
AcDbDictionary
281
1
  3
Standard
350
27658
  0
DICTIONARY
  5
2763C
102
{ACAD_REACTORS
330
16
102
}
330
16
100
AcDbDictionary
281
1
  3
2dWireframe
350
27642
  3
Basic
350
27641
  3
Brighten
350
27648
  3
ColorChange
350
2764C
  3
Conceptual
350
27645
  3
Dim
350
27647
  3
EdgeColorOff
350
27654
  3
Facepattern
350
2764B
  3
Flat
350
2763D
  3
FlatWithEdges
350
2763E
  3
Gouraud
350
2763F
  3
GouraudWithEdges
350
27640
  3
Hidden
350
27644
  3
JitterOff
350
27652
  3
Linepattern
350
2764A
  3
OverhangOff
350
27653
  3
Realistic
350
27646
  3
Shaded
350
27651
  3
Shaded with edges
350
27650
  3
Shades of Gray
350
2764D
  3
Sketchy
350
2764E
  3
Thicken
350
27649
  3
Wireframe
350
27643
  3
X-Ray
350
2764F
  0
XRECORD
  5
2769D
102
{ACAD_REACTORS
330
16
102
}
330
16
100
AcDbXrecord
280
1
 90
1
330
27658
  0
DICTIONARY
  5
27691
102
{ACAD_REACTORS
330
16
102
}
330
16
100
AcDbDictionary
281
1
  3
CANNOSCALE
350
27697
  3
CMLEADERSTYLE
350
27693
  3
CTABLESTYLE
350
27692
  3
CVIEWDETAILSTYLE
350
27694
  3
CVIEWSECTIONSTYLE
350
27695
  3
LAYEREVAL
350
27699
  3
LAYERNOTIFY
350
2769A
  3
LIGHTINGUNITS
350
27698
  3
MSLTSCALE
350
27696
  0
DICTIONARY
  5
27677
102
{ACAD_REACTORS
330
16
102
}
330
16
100
AcDbDictionary
281
1
  3
ASEBlockHierarchyIndexRecord
350
27679
1001
DCO15
1040
2083815877.0
  0
XRECORD
  5
27686
102
{ACAD_REACTORS
330
27685
102
}
330
27685
100
AcDbXrecord
280
1
290
1
  0
XRECORD
  5
27688
102
{ACAD_REACTORS
330
27687
102
}
330
27687
100
AcDbXrecord
280
1
290
1
  0
XRECORD
  5
2768A
102
{ACAD_REACTORS
330
27689
102
}
330
27689
100
AcDbXrecord
280
1
290
1
  0
XRECORD
  5
2768C
102
{ACAD_REACTORS
330
2768B
102
}
330
2768B
100
AcDbXrecord
280
1
290
1
  0
XRECORD
  5
2768E
102
{ACAD_REACTORS
330
2768D
102
}
330
2768D
100
AcDbXrecord
280
1
290
1
  0
XRECORD
  5
27690
102
{ACAD_REACTORS
330
2768F
102
}
330
2768F
100
AcDbXrecord
280
1
290
1
  0
ACDBDETAILVIEWSTYLE
  5
27670
102
{ACAD_REACTORS
330
2766F
102
}
330
2766F
100
AcDbModelDocViewStyle
 70
0
  3
Imperial24
290
0
300
Imperial24
 90
0
100
AcDbDetailViewStyle
 70
0
 71
0
 90
3
 71
1
340
6BEE
 62
256
 40
0.24
340
0
 62
256
 40
0.24
300

 40
0.36
280
3
 71
2
340
12
 90
25
 62
256
 71
3
340
6BEE
 62
256
 40
0.24
 90
1
 40
0.75
 90
1
300
%<\AcVar ViewType \f "%tc1">% %<\AcVar ViewDetailId>%\PSCALE %<\AcVar ViewScale \f "%sn">%
 71
4
340
12
 90
25
 62
256
340
12
 90
25
 62
256
280
0
  0
LAYOUT
  5
27673
102
{ACAD_REACTORS
330
27656
102
}
330
27656
100
AcDbPlotSettings
  1

  2
Intel Cloud Print
  4

  6

 40
0.0
 41
0.0
 42
0.0
 43
0.0
 44
0.0
 45
0.0
 46
0.0
 47
0.0
 48
0.0
 49
0.0
140
0.0
141
0.0
142
1.0
143
1.0
 70
688
 72
0
 73
0
 74
5
  7

 75
16
 76
0
 77
2
 78
300
147
1.0
148
0.0
149
0.0
100
AcDbLayout
  1
Layout1
 70
0
 71
1
 10
0.0
 20
0.0
 11
12.0
 21
9.0
 12
0.0
 22
0.0
 32
0.0
 14
1e+20
 24
1e+20
 34
1e+20
 15
-1e+20
 25
-1e+20
 35
-1e+20
146
0.0
 13
0.0
 23
0.0
 33
0.0
 16
1.0
 26
0.0
 36
0.0
 17
0.0
 27
1.0
 37
0.0
 76
0
330
B
  0
LAYOUT
  5
27672
102
{ACAD_REACTORS
330
27656
102
}
330
27656
100
AcDbPlotSettings
  1

  2
Intel Cloud Print
  4

  6

 40
0.0
 41
0.0
 42
0.0
 43
0.0
 44
0.0
 45
0.0
 46
0.0
 47
0.0
 48
0.0
 49
0.0
140
0.0
141
0.0
142
1.0
143
1.0
 70
1712
 72
0
 73
0
 74
0
  7

 75
0
 76
0
 77
2
 78
300
147
1.0
148
0.0
149
0.0
100
AcDbLayout
  1
Model
 70
1
 71
0
 10
0.0
 20
0.0
 11
12.0
 21
9.0
 12
0.0
 22
0.0
 32
0.0
 14
0.0
 24
0.0
 34
0.0
 15
0.0
 25
0.0
 35
0.0
146
0.0
 13
0.0
 23
0.0
 33
0.0
 16
1.0
 26
0.0
 36
0.0
 17
0.0
 27
1.0
 37
0.0
 76
0
330
A
331
13
  0
MATERIAL
  5
2762C
102
{ACAD_XDICTIONARY
360
2762D
102
}
102
{ACAD_REACTORS
330
27623
102
}
330
27623
100
AcDbMaterial
  1
ByBlock
  2

 70
0
 40
1.0
 71
0
 41
1.0
 91
-1023410177
 42
1.0
 72
0
  3

 73
1
 74
1
 75
1
 43
0.0208333333333333
 43
0.0
 43
0.0
 43
0.0
 43
0.0
 43
0.0208333333333333
 43
0.0
 43
0.0
 43
0.0
 43
0.0
 43
1.0
 43
0.0
 43
0.0
 43
0.0
 43
0.0
 43
1.0
 44
0.5
 73
0
 45
1.0
 46
1.0
 77
0
  4

 78
1
 79
1
170
1
 47
0.0208333333333333
 47
0.0
 47
0.0
 47
0.0
 47
0.0
 47
0.0208333333333333
 47
0.0
 47
0.0
 47
0.0
 47
0.0
 47
1.0
 47
0.0
 47
0.0
 47
0.0
 47
0.0
 47
1.0
 48
1.0
171
0
  6

172
1
173
1
174
1
 49
0.0208333333333333
 49
0.0
 49
0.0
 49
0.0
 49
0.0
 49
0.0208333333333333
 49
0.0
 49
0.0
 49
0.0
 49
0.0
 49
1.0
 49
0.0
 49
0.0
 49
0.0
 49
0.0
 49
1.0
140
1.0
141
1.0
175
0
  7

176
1
177
1
178
1
142
0.0208333333333333
142
0.0
142
0.0
142
0.0
142
0.0
142
0.0208333333333333
142
0.0
142
0.0
142
0.0
142
0.0
142
1.0
142
0.0
142
0.0
142
0.0
142
0.0
142
1.0
143
1.0
179
0
  8

270
1
271
1
272
1
144
0.0208333333333333
144
0.0
144
0.0
144
0.0
144
0.0
144
0.0208333333333333
144
0.0
144
0.0
144
0.0
144
0.0
144
1.0
144
0.0
144
0.0
144
0.0
144
0.0
144
1.0
145
1.0
146
1.0
273
1
  9

274
1
275
1
276
1
147
0.0208333333333333
147
0.0
147
0.0
147
0.0
147
0.0
147
0.0208333333333333
147
0.0
147
0.0
147
0.0
147
0.0
147
1.0
147
0.0
147
0.0
147
0.0
147
0.0
147
1.0
 42
1.0
 72
1
  3

 73
1
 74
1
 75
1
 94
63
  0
MATERIAL
  5
27624
102
{ACAD_XDICTIONARY
360
27625
102
}
102
{ACAD_REACTORS
330
27623
102
}
330
27623
100
AcDbMaterial
  1
ByLayer
  2

 70
0
 40
1.0
 71
0
 41
1.0
 91
-1023410177
 42
1.0
 72
0
  3

 73
1
 74
1
 75
1
 43
0.0208333333333333
 43
0.0
 43
0.0
 43
0.0
 43
0.0
 43
0.0208333333333333
 43
0.0
 43
0.0
 43
0.0
 43
0.0
 43
1.0
 43
0.0
 43
0.0
 43
0.0
 43
0.0
 43
1.0
 44
0.5
 73
0
 45
1.0
 46
1.0
 77
0
  4

 78
1
 79
1
170
1
 47
0.0208333333333333
 47
0.0
 47
0.0
 47
0.0
 47
0.0
 47
0.0208333333333333
 47
0.0
 47
0.0
 47
0.0
 47
0.0
 47
1.0
 47
0.0
 47
0.0
 47
0.0
 47
0.0
 47
1.0
 48
1.0
171
0
  6

172
1
173
1
174
1
 49
0.0208333333333333
 49
0.0
 49
0.0
 49
0.0
 49
0.0
 49
0.0208333333333333
 49
0.0
 49
0.0
 49
0.0
 49
0.0
 49
1.0
 49
0.0
 49
0.0
 49
0.0
 49
0.0
 49
1.0
140
1.0
141
1.0
175
0
  7

176
1
177
1
178
1
142
0.0208333333333333
142
0.0
142
0.0
142
0.0
142
0.0
142
0.0208333333333333
142
0.0
142
0.0
142
0.0
142
0.0
142
1.0
142
0.0
142
0.0
142
0.0
142
0.0
142
1.0
143
1.0
179
0
  8

270
1
271
1
272
1
144
0.0208333333333333
144
0.0
144
0.0
144
0.0
144
0.0
144
0.0208333333333333
144
0.0
144
0.0
144
0.0
144
0.0
144
1.0
144
0.0
144
0.0
144
0.0
144
0.0
144
1.0
145
1.0
146
1.0
273
1
  9

274
1
275
1
276
1
147
0.0208333333333333
147
0.0
147
0.0
147
0.0
147
0.0
147
0.0208333333333333
147
0.0
147
0.0
147
0.0
147
0.0
147
1.0
147
0.0
147
0.0
147
0.0
147
0.0
147
1.0
 42
1.0
 72
1
  3

 73
1
 74
1
 75
1
 94
63
  0
MATERIAL
  5
27634
102
{ACAD_XDICTIONARY
360
27635
102
}
102
{ACAD_REACTORS
330
27623
102
}
330
27623
100
AcDbMaterial
  1
Global
  2

 70
0
 40
1.0
 71
0
 41
1.0
 91
-1023410177
 42
1.0
 72
0
  3

 73
1
 74
1
 75
1
 43
0.0208333333333333
 43
0.0
 43
0.0
 43
0.0
 43
0.0
 43
0.0208333333333333
 43
0.0
 43
0.0
 43
0.0
 43
0.0
 43
1.0
 43
0.0
 43
0.0
 43
0.0
 43
0.0
 43
1.0
 44
0.5
 73
0
 45
1.0
 46
1.0
 77
0
  4

 78
1
 79
1
170
1
 47
0.0208333333333333
 47
0.0
 47
0.0
 47
0.0
 47
0.0
 47
0.0208333333333333
 47
0.0
 47
0.0
 47
0.0
 47
0.0
 47
1.0
 47
0.0
 47
0.0
 47
0.0
 47
0.0
 47
1.0
 48
1.0
171
0
  6

172
1
173
1
174
1
 49
0.0208333333333333
 49
0.0
 49
0.0
 49
0.0
 49
0.0
 49
0.0208333333333333
 49
0.0
 49
0.0
 49
0.0
 49
0.0
 49
1.0
 49
0.0
 49
0.0
 49
0.0
 49
0.0
 49
1.0
140
1.0
141
1.0
175
0
  7

176
1
177
1
178
1
142
0.0208333333333333
142
0.0
142
0.0
142
0.0
142
0.0
142
0.0208333333333333
142
0.0
142
0.0
142
0.0
142
0.0
142
1.0
142
0.0
142
0.0
142
0.0
142
0.0
142
1.0
143
1.0
179
0
  8

270
1
271
1
272
1
144
0.0208333333333333
144
0.0
144
0.0
144
0.0
144
0.0
144
0.0208333333333333
144
0.0
144
0.0
144
0.0
144
0.0
144
1.0
144
0.0
144
0.0
144
0.0
144
0.0
144
1.0
145
1.0
146
1.0
273
1
  9

274
1
275
1
276
1
147
0.0208333333333333
147
0.0
147
0.0
147
0.0
147
0.0
147
0.0208333333333333
147
0.0
147
0.0
147
0.0
147
0.0
147
1.0
147
0.0
147
0.0
147
0.0
147
0.0
147
1.0
 42
1.0
 72
1
  3

 73
1
 74
1
 75
1
 94
63
  0
MLEADERSTYLE
  5
2766C
102
{ACAD_REACTORS
330
2766B
102
}
330
2766B
100
AcDbMLeaderStyle
179
2
170
2
171
1
172
0
 90
2
 40
0.0
 41
0.0
173
1
 91
-1056964608
340
10
 92
-2
290
1
 42
0.09
291
1
 43
0.36
  3
Standard
 44
0.18
300

342
6BEE
174
1
175
1
176
0
178
6
 93
-1056964608
 45
0.18
292
0
297
0
 46
0.18
293
1
 94
-1056964608
 47
1.0
 49
1.0
140
1.0
294
1
141
0.0
177
0
142
1.0
295
0
296
0
143
0.125
271
0
272
9
273
9
298
0
  0
MLINESTYLE
  5
19
102
{ACAD_REACTORS
330
18
102
}
330
18
100
AcDbMlineStyle
  2
STANDARD
 70
0
  3

 62
0
 51
90.0
 52
90.0
 71
2
 49
0.5
 62
256
  6
BYLAYER
 49
-0.5
 62
256
  6
BYLAYER
  0
ACDBPLACEHOLDER
  5
27622
102
{ACAD_REACTORS
330
27621
102
}
330
27621
  0
SCALE
  5
2765A
102
{ACAD_REACTORS
330
27659
102
}
330
27659
100
AcDbScale
 70
0
300
1:1
140
1.0
141
1.0
290
1
  0
SCALE
  5
2765B
102
{ACAD_REACTORS
330
27659
102
}
330
27659
100
AcDbScale
 70
0
300
1/128" = 1'-0"
140
0.0078125
141
12.0
290
0
  0
SCALE
  5
2765C
102
{ACAD_REACTORS
330
27659
102
}
330
27659
100
AcDbScale
 70
0
300
1/64" = 1'-0"
140
0.015625
141
12.0
290
0
  0
SCALE
  5
2765D
102
{ACAD_REACTORS
330
27659
102
}
330
27659
100
AcDbScale
 70
0
300
1/32" = 1'-0"
140
0.03125
141
12.0
290
0
  0
SCALE
  5
2765E
102
{ACAD_REACTORS
330
27659
102
}
330
27659
100
AcDbScale
 70
0
300
1/16" = 1'-0"
140
0.0625
141
12.0
290
0
  0
SCALE
  5
2765F
102
{ACAD_REACTORS
330
27659
102
}
330
27659
100
AcDbScale
 70
0
300
3/32" = 1'-0"
140
0.09375
141
12.0
290
0
  0
SCALE
  5
27660
102
{ACAD_REACTORS
330
27659
102
}
330
27659
100
AcDbScale
 70
0
300
1/8" = 1'-0"
140
0.125
141
12.0
290
0
  0
SCALE
  5
27661
102
{ACAD_REACTORS
330
27659
102
}
330
27659
100
AcDbScale
 70
0
300
3/16" = 1'-0"
140
0.1875
141
12.0
290
0
  0
SCALE
  5
27662
102
{ACAD_REACTORS
330
27659
102
}
330
27659
100
AcDbScale
 70
0
300
1/4" = 1'-0"
140
0.25
141
12.0
290
0
  0
SCALE
  5
27663
102
{ACAD_REACTORS
330
27659
102
}
330
27659
100
AcDbScale
 70
0
300
3/8" = 1'-0"
140
0.375
141
12.0
290
0
  0
SCALE
  5
27664
102
{ACAD_REACTORS
330
27659
102
}
330
27659
100
AcDbScale
 70
0
300
1/2" = 1'-0"
140
0.5
141
12.0
290
0
  0
SCALE
  5
27665
102
{ACAD_REACTORS
330
27659
102
}
330
27659
100
AcDbScale
 70
0
300
3/4" = 1'-0"
140
0.75
141
12.0
290
0
  0
SCALE
  5
27666
102
{ACAD_REACTORS
330
27659
102
}
330
27659
100
AcDbScale
 70
0
300
1" = 1'-0"
140
1.0
141
12.0
290
0
  0
SCALE
  5
27667
102
{ACAD_REACTORS
330
27659
102
}
330
27659
100
AcDbScale
 70
0
300
1-1/2" = 1'-0"
140
1.5
141
12.0
290
0
  0
SCALE
  5
27668
102
{ACAD_REACTORS
330
27659
102
}
330
27659
100
AcDbScale
 70
0
300
3" = 1'-0"
140
3.0
141
12.0
290
0
  0
SCALE
  5
27669
102
{ACAD_REACTORS
330
27659
102
}
330
27659
100
AcDbScale
 70
0
300
6" = 1'-0"
140
6.0
141
12.0
290
0
  0
SCALE
  5
2766A
102
{ACAD_REACTORS
330
27659
102
}
330
27659
100
AcDbScale
 70
0
300
1'-0" = 1'-0"
140
12.0
141
12.0
290
0
  0
ACDBSECTIONVIEWSTYLE
  5
2766E
102
{ACAD_REACTORS
330
2766D
102
}
330
2766D
100
AcDbModelDocViewStyle
 70
0
  3
Imperial24
290
0
300
Imperial24
 90
0
100
AcDbSectionViewStyle
 70
0
 71
0
 90
78
 71
1
340
6BEE
 62
256
 40
0.24
340
0
340
0
 62
256
 40
0.24
300
I, O, Q, S, X, Z
 40
0.48
 90
3
 40
0.18
 90
1
 71
2
340
12
 90
25
 62
256
340
12
 90
50
 62
256
 40
0.24
 40
0.0
 40
0.24
 71
3
340
6BEE
 62
256
 40
0.24
 90
1
 40
0.75
 90
1
300
%<\AcVar ViewType \f "%tc1">% %<\AcVar ViewSectionStartId>%-%<\AcVar ViewSectionEndId>%\PSCALE %<\AcVar ViewScale \f "%sn">%
 71
4
 62
256
 62
257
300
ANSI31
 40
1.0
 90
0
290
0
290
0
 90
6
 40
0.0
 40
1.570796326794896
 40
0.2617993877991494
 40
1.308996938995747
 40
-0.2617993877991494
 40
1.832595714594046
  0
TABLESTYLE
  5
27658
102
{ACAD_XDICTIONARY
360
2769B
102
}
102
{ACAD_REACTORS
330
27657
102
}
330
27657
100
AcDbTableStyle
280
0
  3
Standard
 70
0
 71
0
 40
0.06
 41
0.06
280
0
281
0
  7
STANDARD
140
0.18
170
2
 62
0
 63
7
283
0
 90
512
 91
0
  1

274
-2
284
1
 64
0
275
-2
285
1
 65
0
276
-2
286
1
 66
0
277
-2
287
1
 67
0
278
-2
288
1
 68
0
279
-2
289
1
 69
0
  7
STANDARD
140
0.25
170
5
 62
0
 63
7
283
0
 90
512
 91
0
  1

274
-2
284
1
 64
0
275
-2
285
1
 65
0
276
-2
286
1
 66
0
277
-2
287
1
 67
0
278
-2
288
1
 68
0
279
-2
289
1
 69
0
  7
STANDARD
140
0.18
170
5
 62
0
 63
7
283
0
 90
512
 91
0
  1

274
-2
284
1
 64
0
275
-2
285
1
 65
0
276
-2
286
1
 66
0
277
-2
287
1
 67
0
278
-2
288
1
 68
0
279
-2
289
1
 69
0
  0
VISUALSTYLE
  5
27642
102
{ACAD_REACTORS
330
2763C
102
}
330
2763C
100
AcDbVisualStyle
  2
2dWireframe
 70
4
177
3
291
0
 70
58
 90
0
176
1
 90
2
176
1
 90
0
176
1
 90
0
176
1
 40
0.6
176
1
 40
30.0
176
1
 62
7
420
16777215
176
1
 90
1
176
1
 90
4
176
1
 62
7
176
1
 62
257
176
1
 90
1
176
1
 90
1
176
1
 40
1.0
176
1
 90
0
176
1
 62
257
176
1
 40
1.0
176
1
 90
1
176
1
 90
6
176
1
 90
2
176
1
 62
7
176
1
 90
5
176
1
 90
0
176
1
 90
0
176
1
290
0
176
1
 90
1
176
1
 40
0.0
176
1
 90
0
176
1
290
1
176
1
290
1
176
1
290
0
176
1
290
0
176
1
290
0
176
1
290
0
176
1
290
0
176
1
290
0
176
1
290
0
176
1
 90
50
176
1
 40
0.0
176
1
 40
1.0
176
1
 90
0
176
1
 62
18
420
0
176
1
 90
50
176
1
 90
3
176
1
 62
5
420
255
176
1
290
0
176
1
 90
50
176
1
 90
50
176
1
 90
50
176
1
290
0
176
1
 90
50
176
1
 62
256
176
0
 40
1.0
176
0
 90
2
176
1
  1
strokes_ogs.tif
176
1
290
0
176
1
 40
1.0
176
1
 40
1.0
176
1
  0
VISUALSTYLE
  5
27641
102
{ACAD_REACTORS
330
2763C
102
}
330
2763C
100
AcDbVisualStyle
  2
Basic
 70
7
177
3
291
1
 70
58
 90
1
176
1
 90
0
176
1
 90
1
176
1
 90
0
176
1
 40
0.6
176
1
 40
30.0
176
1
 62
7
420
16777215
176
1
 90
0
176
1
 90
4
176
1
 62
7
176
1
 62
257
176
1
 90
1
176
1
 90
1
176
1
 40
1.0
176
1
 90
8
176
1
 62
7
176
1
 40
1.0
176
1
 90
1
176
1
 90
6
176
1
 90
2
176
1
 62
7
176
1
 90
5
176
1
 90
0
176
1
 90
0
176
1
290
0
176
1
 90
1
176
1
 40
0.0
176
1
 90
0
176
1
290
0
176
1
290
1
176
1
290
1
176
1
290
0
176
1
290
0
176
1
290
0
176
1
290
0
176
1
290
0
176
1
290
0
176
1
 90
50
176
1
 40
0.0
176
1
 40
1.0
176
1
 90
0
176
1
 62
18
420
0
176
1
 90
50
176
1
 90
3
176
1
 62
5
420
255
176
1
290
0
176
1
 90
50
176
1
 90
50
176
1
 90
50
176
1
290
0
176
1
 90
50
176
1
 62
256
176
0
 40
1.0
176
0
 90
2
176
1
  1
strokes_ogs.tif
176
1
290
0
176
1
 40
1.0
176
1
 40
1.0
176
1
  0
VISUALSTYLE
  5
27648
102
{ACAD_REACTORS
330
2763C
102
}
330
2763C
100
AcDbVisualStyle
  2
Brighten
 70
12
177
3
291
1
 70
58
 90
2
176
1
 90
2
176
1
 90
0
176
1
 90
0
176
1
 40
0.6
176
1
 40
30.0
176
1
 62
7
420
16777215
176
1
 90
1
176
1
 90
4
176
1
 62
7
176
1
 62
257
176
1
 90
1
176
1
 90
1
176
1
 40
1.0
176
1
 90
8
176
1
 62
7
176
1
 40
1.0
176
1
 90
1
176
1
 90
6
176
1
 90
2
176
1
 62
7
176
1
 90
5
176
1
 90
0
176
1
 90
0
176
1
290
0
176
1
 90
1
176
1
 40
50.0
176
1
 90
0
176
1
290
0
176
1
290
1
176
1
290
1
176
1
290
0
176
1
290
0
176
1
290
0
176
1
290
0
176
1
290
0
176
1
290
0
176
1
 90
50
176
1
 40
0.0
176
1
 40
1.0
176
1
 90
0
176
1
 62
18
420
0
176
1
 90
50
176
1
 90
3
176
1
 62
5
420
255
176
1
290
0
176
1
 90
50
176
1
 90
50
176
1
 90
50
176
1
290
0
176
1
 90
50
176
1
 62
256
176
0
 40
1.0
176
0
 90
2
176
1
  1
strokes_ogs.tif
176
1
290
0
176
1
 40
1.0
176
1
 40
1.0
176
1
  0
VISUALSTYLE
  5
2764C
102
{ACAD_REACTORS
330
2763C
102
}
330
2763C
100
AcDbVisualStyle
  2
ColorChange
 70
16
177
3
291
1
 70
58
 90
2
176
1
 90
2
176
1
 90
3
176
1
 90
0
176
1
 40
0.6
176
1
 40
30.0
176
1
 62
8
420
8421504
176
1
 90
1
176
1
 90
4
176
1
 62
7
176
1
 62
257
176
1
 90
1
176
1
 90
1
176
1
 40
1.0
176
1
 90
8
176
1
 62
8
420
8421504
176
1
 40
1.0
176
1
 90
1
176
1
 90
6
176
1
 90
2
176
1
 62
7
176
1
 90
5
176
1
 90
0
176
1
 90
0
176
1
290
0
176
1
 90
1
176
1
 40
0.0
176
1
 90
0
176
1
290
0
176
1
290
1
176
1
290
1
176
1
290
0
176
1
290
0
176
1
290
0
176
1
290
0
176
1
290
0
176
1
290
0
176
1
 90
50
176
1
 40
0.0
176
1
 40
1.0
176
1
 90
0
176
1
 62
18
420
0
176
1
 90
50
176
1
 90
3
176
1
 62
5
420
255
176
1
290
0
176
1
 90
50
176
1
 90
50
176
1
 90
50
176
1
290
0
176
1
 90
50
176
1
 62
256
176
0
 40
1.0
176
0
 90
2
176
1
  1
strokes_ogs.tif
176
1
290
0
176
1
 40
1.0
176
1
 40
1.0
176
1
  0
VISUALSTYLE
  5
27645
102
{ACAD_REACTORS
330
2763C
102
}
330
2763C
100
AcDbVisualStyle
  2
Conceptual
 70
9
177
3
291
0
 70
58
 90
3
176
1
 90
2
176
1
 90
0
176
1
 90
0
176
1
 40
0.6
176
1
 40
30.0
176
1
 62
7
420
16777215
176
1
 90
2
176
1
 90
2
176
1
 62
7
176
1
 62
257
176
1
 90
1
176
1
 90
1
176
1
 40
179.0
176
1
 90
8
176
1
 62
7
176
1
 40
1.0
176
1
 90
1
176
1
 90
6
176
1
 90
2
176
1
 62
7
176
1
 90
3
176
1
 90
0
176
1
 90
0
176
1
290
0
176
1
 90
1
176
1
 40
0.0
176
1
 90
0
176
1
290
0
176
1
290
1
176
1
290
1
176
1
290
0
176
1
290
0
176
1
290
0
176
1
290
0
176
1
290
0
176
1
290
0
176
1
 90
50
176
1
 40
0.0
176
1
 40
1.0
176
1
 90
0
176
1
 62
18
420
0
176
1
 90
50
176
1
 90
3
176
1
 62
5
420
255
176
1
290
0
176
1
 90
50
176
1
 90
50
176
1
 90
50
176
1
290
0
176
1
 90
50
176
1
 62
256
176
0
 40
1.0
176
0
 90
2
176
1
  1
strokes_ogs.tif
176
1
290
0
176
1
 40
1.0
176
1
 40
1.0
176
1
  0
VISUALSTYLE
  5
27647
102
{ACAD_REACTORS
330
2763C
102
}
330
2763C
100
AcDbVisualStyle
  2
Dim
 70
11
177
3
291
1
 70
58
 90
2
176
1
 90
2
176
1
 90
0
176
1
 90
0
176
1
 40
0.6
176
1
 40
30.0
176
1
 62
7
420
16777215
176
1
 90
1
176
1
 90
4
176
1
 62
7
176
1
 62
257
176
1
 90
1
176
1
 90
1
176
1
 40
1.0
176
1
 90
8
176
1
 62
7
176
1
 40
1.0
176
1
 90
1
176
1
 90
6
176
1
 90
2
176
1
 62
7
176
1
 90
5
176
1
 90
0
176
1
 90
0
176
1
290
0
176
1
 90
1
176
1
 40
-50.0
176
1
 90
0
176
1
290
0
176
1
290
1
176
1
290
1
176
1
290
0
176
1
290
0
176
1
290
0
176
1
290
0
176
1
290
0
176
1
290
0
176
1
 90
50
176
1
 40
0.0
176
1
 40
1.0
176
1
 90
0
176
1
 62
18
420
0
176
1
 90
50
176
1
 90
3
176
1
 62
5
420
255
176
1
290
0
176
1
 90
50
176
1
 90
50
176
1
 90
50
176
1
290
0
176
1
 90
50
176
1
 62
256
176
0
 40
1.0
176
0
 90
2
176
1
  1
strokes_ogs.tif
176
1
290
0
176
1
 40
1.0
176
1
 40
1.0
176
1
  0
VISUALSTYLE
  5
27654
102
{ACAD_REACTORS
330
2763C
102
}
330
2763C
100
AcDbVisualStyle
  2
EdgeColorOff
 70
22
177
3
291
1
 70
58
 90
2
176
0
 90
2
176
0
 90
0
176
0
 90
0
176
0
 40
0.6
176
0
 40
30.0
176
0
 62
7
420
16777215
176
0
 90
1
176
0
 90
4
176
0
 62
7
176
0
 62
257
176
0
 90
1
176
0
 90
1
176
0
 40
1.0
176
0
 90
8
176
2
 62
7
176
0
 40
1.0
176
0
 90
1
176
0
 90
6
176
0
 90
2
176
0
 62
7
176
0
 90
5
176
0
 90
0
176
0
 90
0
176
0
290
0
176
0
 90
1
176
0
 40
0.0
176
0
 90
0
176
0
290
0
176
1
290
1
176
1
290
1
176
1
290
0
176
1
290
0
176
1
290
0
176
1
290
0
176
1
290
0
176
1
290
0
176
1
 90
50
176
0
 40
0.0
176
0
 40
1.0
176
0
 90
0
176
0
 62
18
420
0
176
0
 90
50
176
0
 90
3
176
0
 62
5
420
255
176
0
290
0
176
1
 90
50
176
0
 90
50
176
0
 90
50
176
0
290
0
176
1
 90
50
176
0
 62
256
176
0
 40
1.0
176
0
 90
2
176
0
  1
strokes_ogs.tif
176
0
290
0
176
1
 40
1.0
176
0
 40
1.0
176
0
  0
VISUALSTYLE
  5
2764B
102
{ACAD_REACTORS
330
2763C
102
}
330
2763C
100
AcDbVisualStyle
  2
Facepattern
 70
15
177
3
291
1
 70
58
 90
2
176
1
 90
2
176
1
 90
0
176
1
 90
0
176
1
 40
0.6
176
1
 40
30.0
176
1
 62
7
420
16777215
176
1
 90
1
176
1
 90
4
176
1
 62
7
176
1
 62
257
176
1
 90
1
176
1
 90
1
176
1
 40
1.0
176
1
 90
8
176
1
 62
7
176
1
 40
1.0
176
1
 90
1
176
1
 90
6
176
1
 90
2
176
1
 62
7
176
1
 90
5
176
1
 90
0
176
1
 90
0
176
1
290
0
176
1
 90
1
176
1
 40
0.0
176
1
 90
0
176
1
290
0
176
1
290
1
176
1
290
1
176
1
290
0
176
1
290
0
176
1
290
0
176
1
290
0
176
1
290
0
176
1
290
0
176
1
 90
50
176
1
 40
0.0
176
1
 40
1.0
176
1
 90
0
176
1
 62
18
420
0
176
1
 90
50
176
1
 90
3
176
1
 62
5
420
255
176
1
290
0
176
1
 90
50
176
1
 90
50
176
1
 90
50
176
1
290
0
176
1
 90
50
176
1
 62
256
176
0
 40
1.0
176
0
 90
2
176
1
  1
strokes_ogs.tif
176
1
290
0
176
1
 40
1.0
176
1
 40
1.0
176
1
  0
VISUALSTYLE
  5
2763D
102
{ACAD_REACTORS
330
2763C
102
}
330
2763C
100
AcDbVisualStyle
  2
Flat
 70
0
177
3
291
1
 70
58
 90
2
176
1
 90
1
176
1
 90
1
176
1
 90
2
176
1
 40
0.6
176
1
 40
30.0
176
1
 62
7
420
16777215
176
1
 90
0
176
1
 90
0
176
1
 62
7
176
1
 62
257
176
1
 90
1
176
1
 90
1
176
1
 40
1.0
176
1
 90
8
176
1
 62
7
176
1
 40
1.0
176
1
 90
1
176
1
 90
6
176
1
 90
2
176
1
 62
7
176
1
 90
5
176
1
 90
0
176
1
 90
0
176
1
290
0
176
1
 90
13
176
1
 40
0.0
176
1
 90
0
176
1
290
0
176
1
290
1
176
1
290
1
176
1
290
0
176
1
290
0
176
1
290
0
176
1
290
0
176
1
290
0
176
1
290
0
176
1
 90
50
176
1
 40
0.0
176
1
 40
1.0
176
1
 90
0
176
1
 62
18
420
0
176
1
 90
50
176
1
 90
3
176
1
 62
5
420
255
176
1
290
0
176
1
 90
50
176
1
 90
50
176
1
 90
50
176
1
290
0
176
1
 90
50
176
1
 62
256
176
0
 40
1.0
176
0
 90
2
176
1
  1
strokes_ogs.tif
176
1
290
0
176
1
 40
1.0
176
1
 40
1.0
176
1
  0
VISUALSTYLE
  5
2763E
102
{ACAD_REACTORS
330
2763C
102
}
330
2763C
100
AcDbVisualStyle
  2
FlatWithEdges
 70
1
177
3
291
1
 70
58
 90
2
176
1
 90
1
176
1
 90
1
176
1
 90
2
176
1
 40
0.6
176
1
 40
30.0
176
1
 62
7
420
16777215
176
1
 90
1
176
1
 90
0
176
1
 62
7
176
1
 62
257
176
1
 90
1
176
1
 90
1
176
1
 40
1.0
176
1
 90
0
176
1
 62
257
176
1
 40
1.0
176
1
 90
1
176
1
 90
6
176
1
 90
2
176
1
 62
7
176
1
 90
5
176
1
 90
0
176
1
 90
0
176
1
290
0
176
1
 90
13
176
1
 40
0.0
176
1
 90
0
176
1
290
0
176
1
290
1
176
1
290
1
176
1
290
0
176
1
290
0
176
1
290
0
176
1
290
0
176
1
290
0
176
1
290
0
176
1
 90
50
176
1
 40
0.0
176
1
 40
1.0
176
1
 90
0
176
1
 62
18
420
0
176
1
 90
50
176
1
 90
3
176
1
 62
5
420
255
176
1
290
0
176
1
 90
50
176
1
 90
50
176
1
 90
50
176
1
290
0
176
1
 90
50
176
1
 62
256
176
0
 40
1.0
176
0
 90
2
176
1
  1
strokes_ogs.tif
176
1
290
0
176
1
 40
1.0
176
1
 40
1.0
176
1
  0
VISUALSTYLE
  5
2763F
102
{ACAD_REACTORS
330
2763C
102
}
330
2763C
100
AcDbVisualStyle
  2
Gouraud
 70
2
177
3
291
1
 70
58
 90
2
176
1
 90
2
176
1
 90
1
176
1
 90
2
176
1
 40
0.6
176
1
 40
30.0
176
1
 62
7
420
16777215
176
1
 90
0
176
1
 90
0
176
1
 62
7
176
1
 62
257
176
1
 90
1
176
1
 90
1
176
1
 40
1.0
176
1
 90
0
176
1
 62
7
176
1
 40
1.0
176
1
 90
1
176
1
 90
6
176
1
 90
2
176
1
 62
7
176
1
 90
5
176
1
 90
0
176
1
 90
0
176
1
290
0
176
1
 90
13
176
1
 40
0.0
176
1
 90
0
176
1
290
0
176
1
290
1
176
1
290
1
176
1
290
0
176
1
290
0
176
1
290
0
176
1
290
0
176
1
290
0
176
1
290
0
176
1
 90
50
176
1
 40
0.0
176
1
 40
1.0
176
1
 90
0
176
1
 62
18
420
0
176
1
 90
50
176
1
 90
3
176
1
 62
5
420
255
176
1
290
0
176
1
 90
50
176
1
 90
50
176
1
 90
50
176
1
290
0
176
1
 90
50
176
1
 62
256
176
0
 40
1.0
176
0
 90
2
176
1
  1
strokes_ogs.tif
176
1
290
0
176
1
 40
1.0
176
1
 40
1.0
176
1
  0
VISUALSTYLE
  5
27640
102
{ACAD_REACTORS
330
2763C
102
}
330
2763C
100
AcDbVisualStyle
  2
GouraudWithEdges
 70
3
177
3
291
1
 70
58
 90
2
176
1
 90
2
176
1
 90
1
176
1
 90
2
176
1
 40
0.6
176
1
 40
30.0
176
1
 62
7
420
16777215
176
1
 90
1
176
1
 90
0
176
1
 62
7
176
1
 62
257
176
1
 90
1
176
1
 90
1
176
1
 40
1.0
176
1
 90
0
176
1
 62
257
176
1
 40
1.0
176
1
 90
1
176
1
 90
6
176
1
 90
2
176
1
 62
7
176
1
 90
5
176
1
 90
0
176
1
 90
0
176
1
290
0
176
1
 90
13
176
1
 40
0.0
176
1
 90
0
176
1
290
0
176
1
290
1
176
1
290
1
176
1
290
0
176
1
290
0
176
1
290
0
176
1
290
0
176
1
290
0
176
1
290
0
176
1
 90
50
176
1
 40
0.0
176
1
 40
1.0
176
1
 90
0
176
1
 62
18
420
0
176
1
 90
50
176
1
 90
3
176
1
 62
5
420
255
176
1
290
0
176
1
 90
50
176
1
 90
50
176
1
 90
50
176
1
290
0
176
1
 90
50
176
1
 62
256
176
0
 40
1.0
176
0
 90
2
176
1
  1
strokes_ogs.tif
176
1
290
0
176
1
 40
1.0
176
1
 40
1.0
176
1
  0
VISUALSTYLE
  5
27644
102
{ACAD_REACTORS
330
2763C
102
}
330
2763C
100
AcDbVisualStyle
  2
Hidden
 70
6
177
3
291
0
 70
58
 90
1
176
1
 90
2
176
1
 90
2
176
1
 90
0
176
1
 40
0.6
176
1
 40
30.0
176
1
 62
7
420
16777215
176
1
 90
2
176
1
 90
2
176
1
 62
7
176
1
 62
257
176
1
 90
2
176
1
 90
1
176
1
 40
40.0
176
1
 90
0
176
1
 62
257
176
1
 40
1.0
176
1
 90
1
176
1
 90
6
176
1
 90
2
176
1
 62
7
176
1
 90
3
176
1
 90
0
176
1
 90
0
176
1
290
0
176
1
 90
1
176
1
 40
0.0
176
1
 90
0
176
1
290
0
176
1
290
1
176
1
290
1
176
1
290
0
176
1
290
0
176
1
290
0
176
1
290
0
176
1
290
0
176
1
290
0
176
1
 90
50
176
1
 40
0.0
176
1
 40
1.0
176
1
 90
0
176
1
 62
18
420
0
176
1
 90
50
176
1
 90
3
176
1
 62
5
420
255
176
1
290
0
176
1
 90
50
176
1
 90
50
176
1
 90
50
176
1
290
0
176
1
 90
50
176
1
 62
256
176
0
 40
1.0
176
0
 90
2
176
1
  1
strokes_ogs.tif
176
1
290
0
176
1
 40
1.0
176
1
 40
1.0
176
1
  0
VISUALSTYLE
  5
27652
102
{ACAD_REACTORS
330
2763C
102
}
330
2763C
100
AcDbVisualStyle
  2
JitterOff
 70
20
177
3
291
1
 70
58
 90
2
176
0
 90
2
176
0
 90
0
176
0
 90
0
176
0
 40
0.6
176
0
 40
30.0
176
0
 62
7
420
16777215
176
0
 90
1
176
0
 90
4
176
0
 62
7
176
0
 62
257
176
0
 90
1
176
0
 90
1
176
0
 40
1.0
176
0
 90
10
176
2
 62
7
176
0
 40
1.0
176
0
 90
1
176
0
 90
6
176
0
 90
2
176
0
 62
7
176
0
 90
5
176
0
 90
0
176
0
 90
0
176
0
290
0
176
0
 90
1
176
0
 40
0.0
176
0
 90
0
176
0
290
0
176
1
290
1
176
1
290
1
176
1
290
0
176
1
290
0
176
1
290
0
176
1
290
0
176
1
290
0
176
1
290
0
176
1
 90
50
176
0
 40
0.0
176
0
 40
1.0
176
0
 90
0
176
0
 62
18
420
0
176
0
 90
50
176
0
 90
3
176
0
 62
5
420
255
176
0
290
0
176
1
 90
50
176
0
 90
50
176
0
 90
50
176
0
290
0
176
1
 90
50
176
0
 62
256
176
0
 40
1.0
176
0
 90
2
176
0
  1
strokes_ogs.tif
176
0
290
0
176
1
 40
1.0
176
0
 40
1.0
176
0
  0
VISUALSTYLE
  5
2764A
102
{ACAD_REACTORS
330
2763C
102
}
330
2763C
100
AcDbVisualStyle
  2
Linepattern
 70
14
177
3
291
1
 70
58
 90
2
176
1
 90
2
176
1
 90
0
176
1
 90
0
176
1
 40
0.6
176
1
 40
30.0
176
1
 62
7
420
16777215
176
1
 90
1
176
1
 90
4
176
1
 62
7
176
1
 62
257
176
1
 90
7
176
1
 90
7
176
1
 40
1.0
176
1
 90
8
176
1
 62
7
176
1
 40
1.0
176
1
 90
1
176
1
 90
6
176
1
 90
2
176
1
 62
7
176
1
 90
5
176
1
 90
0
176
1
 90
0
176
1
290
0
176
1
 90
1
176
1
 40
0.0
176
1
 90
0
176
1
290
0
176
1
290
1
176
1
290
1
176
1
290
0
176
1
290
0
176
1
290
0
176
1
290
0
176
1
290
0
176
1
290
0
176
1
 90
50
176
1
 40
0.0
176
1
 40
1.0
176
1
 90
0
176
1
 62
18
420
0
176
1
 90
50
176
1
 90
3
176
1
 62
5
420
255
176
1
290
0
176
1
 90
50
176
1
 90
50
176
1
 90
50
176
1
290
0
176
1
 90
50
176
1
 62
256
176
0
 40
1.0
176
0
 90
2
176
1
  1
strokes_ogs.tif
176
1
290
0
176
1
 40
1.0
176
1
 40
1.0
176
1
  0
VISUALSTYLE
  5
27653
102
{ACAD_REACTORS
330
2763C
102
}
330
2763C
100
AcDbVisualStyle
  2
OverhangOff
 70
21
177
3
291
1
 70
58
 90
2
176
0
 90
2
176
0
 90
0
176
0
 90
0
176
0
 40
0.6
176
0
 40
30.0
176
0
 62
7
420
16777215
176
0
 90
1
176
0
 90
4
176
0
 62
7
176
0
 62
257
176
0
 90
1
176
0
 90
1
176
0
 40
1.0
176
0
 90
9
176
2
 62
7
176
0
 40
1.0
176
0
 90
1
176
0
 90
6
176
0
 90
2
176
0
 62
7
176
0
 90
5
176
0
 90
0
176
0
 90
0
176
0
290
0
176
0
 90
1
176
0
 40
0.0
176
0
 90
0
176
0
290
0
176
1
290
1
176
1
290
1
176
1
290
0
176
1
290
0
176
1
290
0
176
1
290
0
176
1
290
0
176
1
290
0
176
1
 90
50
176
0
 40
0.0
176
0
 40
1.0
176
0
 90
0
176
0
 62
18
420
0
176
0
 90
50
176
0
 90
3
176
0
 62
5
420
255
176
0
290
0
176
1
 90
50
176
0
 90
50
176
0
 90
50
176
0
290
0
176
1
 90
50
176
0
 62
256
176
0
 40
1.0
176
0
 90
2
176
0
  1
strokes_ogs.tif
176
0
290
0
176
1
 40
1.0
176
0
 40
1.0
176
0
  0
VISUALSTYLE
  5
27646
102
{ACAD_REACTORS
330
2763C
102
}
330
2763C
100
AcDbVisualStyle
  2
Realistic
 70
8
177
3
291
0
 70
58
 90
2
176
1
 90
3
176
1
 90
0
176
1
 90
2
176
1
 40
0.6
176
1
 40
30.0
176
1
 62
7
420
16777215
176
1
 90
0
176
1
 90
0
176
1
 62
7
176
1
 62
257
176
1
 90
1
176
1
 90
1
176
1
 40
1.0
176
1
 90
8
176
1
 62
257
176
1
 40
1.0
176
1
 90
1
176
1
 90
6
176
1
 90
2
176
1
 62
7
176
1
 90
3
176
1
 90
0
176
1
 90
0
176
1
290
0
176
1
 90
13
176
1
 40
0.0
176
1
 90
0
176
1
290
0
176
1
290
1
176
1
290
1
176
1
290
0
176
1
290
0
176
1
290
0
176
1
290
0
176
1
290
0
176
1
290
0
176
1
 90
50
176
1
 40
0.0
176
1
 40
1.0
176
1
 90
0
176
1
 62
18
420
0
176
1
 90
50
176
1
 90
3
176
1
 62
5
420
255
176
1
290
0
176
1
 90
50
176
1
 90
50
176
1
 90
50
176
1
290
0
176
1
 90
50
176
1
 62
256
176
0
 40
1.0
176
0
 90
2
176
1
  1
strokes_ogs.tif
176
1
290
0
176
1
 40
1.0
176
1
 40
1.0
176
1
  0
VISUALSTYLE
  5
27651
102
{ACAD_REACTORS
330
2763C
102
}
330
2763C
100
AcDbVisualStyle
  2
Shaded
 70
27
177
3
291
0
 70
58
 90
2
176
1
 90
2
176
1
 90
1
176
1
 90
2
176
1
 40
0.6
176
1
 40
30.0
176
1
 62
7
420
16777215
176
1
 90
0
176
1
 90
4
176
1
 62
7
176
1
 62
257
176
1
 90
1
176
1
 90
1
176
1
 40
1.0
176
1
 90
8
176
1
 62
257
176
1
 40
1.0
176
1
 90
1
176
1
 90
6
176
1
 90
2
176
1
 62
8
420
7895160
176
1
 90
3
176
1
 90
0
176
1
 90
0
176
1
290
0
176
1
 90
5
176
1
 40
0.0
176
1
 90
0
176
1
290
0
176
1
290
1
176
1
290
1
176
1
290
0
176
1
290
0
176
1
290
0
176
1
290
0
176
1
290
0
176
1
290
0
176
1
 90
50
176
1
 40
0.0
176
1
 40
1.0
176
1
 90
0
176
1
 62
18
420
0
176
1
 90
50
176
1
 90
3
176
1
 62
5
420
255
176
1
290
0
176
1
 90
50
176
1
 90
50
176
1
 90
50
176
1
290
0
176
1
 90
50
176
1
 62
256
176
0
 40
1.0
176
0
 90
2
176
1
  1
strokes_ogs.tif
176
1
290
0
176
1
 40
1.0
176
1
 40
1.0
176
1
  0
VISUALSTYLE
  5
27650
102
{ACAD_REACTORS
330
2763C
102
}
330
2763C
100
AcDbVisualStyle
  2
Shaded with edges
 70
26
177
3
291
0
 70
58
 90
2
176
1
 90
2
176
1
 90
1
176
1
 90
2
176
1
 40
0.6
176
1
 40
30.0
176
1
 62
7
420
16777215
176
1
 90
1
176
1
 90
2
176
1
 62
7
176
1
 62
257
176
1
 90
2
176
1
 90
1
176
1
 40
1.0
176
1
 90
8
176
1
 62
257
176
1
 40
1.0
176
1
 90
1
176
1
 90
6
176
1
 90
2
176
1
 62
7
176
1
 90
3
176
1
 90
0
176
1
 90
0
176
1
290
0
176
1
 90
5
176
1
 40
0.0
176
1
 90
0
176
1
290
0
176
1
290
1
176
1
290
1
176
1
290
0
176
1
290
0
176
1
290
0
176
1
290
0
176
1
290
0
176
1
290
0
176
1
 90
50
176
1
 40
0.0
176
1
 40
1.0
176
1
 90
0
176
1
 62
18
420
0
176
1
 90
50
176
1
 90
3
176
1
 62
5
420
255
176
1
290
0
176
1
 90
50
176
1
 90
50
176
1
 90
50
176
1
290
0
176
1
 90
50
176
1
 62
256
176
0
 40
1.0
176
0
 90
2
176
1
  1
strokes_ogs.tif
176
1
290
0
176
1
 40
1.0
176
1
 40
1.0
176
1
  0
VISUALSTYLE
  5
2764D
102
{ACAD_REACTORS
330
2763C
102
}
330
2763C
100
AcDbVisualStyle
  2
Shades of Gray
 70
23
177
3
291
0
 70
58
 90
2
176
1
 90
2
176
1
 90
3
176
1
 90
0
176
1
 40
0.6
176
1
 40
30.0
176
1
 62
7
420
16777215
176
1
 90
2
176
1
 90
2
176
1
 62
7
176
1
 62
7
176
1
 90
1
176
1
 90
1
176
1
 40
40.0
176
1
 90
8
176
1
 62
7
176
1
 40
1.0
176
1
 90
1
176
1
 90
6
176
1
 90
2
176
1
 62
7
176
1
 90
3
176
1
 90
0
176
1
 90
0
176
1
290
0
176
1
 90
1
176
1
 40
0.0
176
1
 90
0
176
1
290
0
176
1
290
1
176
1
290
1
176
1
290
0
176
1
290
0
176
1
290
0
176
1
290
0
176
1
290
0
176
1
290
0
176
1
 90
50
176
1
 40
0.0
176
1
 40
1.0
176
1
 90
0
176
1
 62
18
420
0
176
1
 90
50
176
1
 90
3
176
1
 62
5
420
255
176
1
290
0
176
1
 90
50
176
1
 90
50
176
1
 90
50
176
1
290
0
176
1
 90
50
176
1
 62
256
176
0
 40
1.0
176
0
 90
2
176
1
  1
strokes_ogs.tif
176
1
290
0
176
1
 40
1.0
176
1
 40
1.0
176
1
  0
VISUALSTYLE
  5
2764E
102
{ACAD_REACTORS
330
2763C
102
}
330
2763C
100
AcDbVisualStyle
  2
Sketchy
 70
24
177
3
291
0
 70
58
 90
1
176
1
 90
2
176
1
 90
2
176
1
 90
0
176
1
 40
0.6
176
1
 40
30.0
176
1
 62
7
420
16777215
176
1
 90
2
176
1
 90
2
176
1
 62
7
176
1
 62
7
176
1
 90
1
176
1
 90
1
176
1
 40
40.0
176
1
 90
11
176
1
 62
7
176
1
 40
1.0
176
1
 90
1
176
1
 90
6
176
1
 90
2
176
1
 62
7
176
1
 90
6
176
1
 90
0
176
1
 90
0
176
1
290
0
176
1
 90
1
176
1
 40
0.0
176
1
 90
0
176
1
290
0
176
1
290
1
176
1
290
1
176
1
290
0
176
1
290
0
176
1
290
0
176
1
290
0
176
1
290
0
176
1
290
0
176
1
 90
50
176
1
 40
0.0
176
1
 40
1.0
176
1
 90
0
176
1
 62
18
420
0
176
1
 90
50
176
1
 90
3
176
1
 62
5
420
255
176
1
290
0
176
1
 90
50
176
1
 90
50
176
1
 90
50
176
1
290
0
176
1
 90
50
176
1
 62
256
176
0
 40
1.0
176
0
 90
2
176
1
  1
strokes_ogs.tif
176
1
290
0
176
1
 40
1.0
176
1
 40
1.0
176
1
  0
VISUALSTYLE
  5
27649
102
{ACAD_REACTORS
330
2763C
102
}
330
2763C
100
AcDbVisualStyle
  2
Thicken
 70
13
177
3
291
1
 70
58
 90
2
176
1
 90
2
176
1
 90
0
176
1
 90
0
176
1
 40
0.6
176
1
 40
30.0
176
1
 62
7
420
16777215
176
1
 90
1
176
1
 90
4
176
1
 62
7
176
1
 62
257
176
1
 90
1
176
1
 90
1
176
1
 40
1.0
176
1
 90
12
176
1
 62
7
176
1
 40
1.0
176
1
 90
1
176
1
 90
6
176
1
 90
2
176
1
 62
7
176
1
 90
5
176
1
 90
0
176
1
 90
0
176
1
290
0
176
1
 90
1
176
1
 40
0.0
176
1
 90
0
176
1
290
0
176
1
290
1
176
1
290
1
176
1
290
0
176
1
290
0
176
1
290
0
176
1
290
0
176
1
290
0
176
1
290
0
176
1
 90
50
176
1
 40
0.0
176
1
 40
1.0
176
1
 90
0
176
1
 62
18
420
0
176
1
 90
50
176
1
 90
3
176
1
 62
5
420
255
176
1
290
0
176
1
 90
50
176
1
 90
50
176
1
 90
50
176
1
290
0
176
1
 90
50
176
1
 62
256
176
0
 40
1.0
176
0
 90
2
176
1
  1
strokes_ogs.tif
176
1
290
0
176
1
 40
1.0
176
1
 40
1.0
176
1
  0
VISUALSTYLE
  5
27643
102
{ACAD_REACTORS
330
2763C
102
}
330
2763C
100
AcDbVisualStyle
  2
Wireframe
 70
5
177
3
291
0
 70
58
 90
0
176
1
 90
2
176
1
 90
0
176
1
 90
0
176
1
 40
0.6
176
1
 40
30.0
176
1
 62
7
420
16777215
176
1
 90
1
176
1
 90
4
176
1
 62
7
176
1
 62
257
176
1
 90
1
176
1
 90
1
176
1
 40
1.0
176
1
 90
0
176
1
 62
257
176
1
 40
1.0
176
1
 90
1
176
1
 90
6
176
1
 90
2
176
1
 62
7
176
1
 90
3
176
1
 90
0
176
1
 90
0
176
1
290
0
176
1
 90
1
176
1
 40
0.0
176
1
 90
0
176
1
290
0
176
1
290
1
176
1
290
1
176
1
290
0
176
1
290
0
176
1
290
0
176
1
290
0
176
1
290
0
176
1
290
0
176
1
 90
50
176
1
 40
0.0
176
1
 40
1.0
176
1
 90
0
176
1
 62
18
420
0
176
1
 90
50
176
1
 90
3
176
1
 62
5
420
255
176
1
290
0
176
1
 90
50
176
1
 90
50
176
1
 90
50
176
1
290
0
176
1
 90
50
176
1
 62
256
176
0
 40
1.0
176
0
 90
2
176
1
  1
strokes_ogs.tif
176
1
290
0
176
1
 40
1.0
176
1
 40
1.0
176
1
  0
VISUALSTYLE
  5
2764F
102
{ACAD_REACTORS
330
2763C
102
}
330
2763C
100
AcDbVisualStyle
  2
X-Ray
 70
25
177
3
291
0
 70
58
 90
2
176
1
 90
2
176
1
 90
1
176
1
 90
1
176
1
 40
0.5
176
1
 40
30.0
176
1
 62
7
420
16777215
176
1
 90
1
176
1
 90
0
176
1
 62
7
176
1
 62
257
176
1
 90
1
176
1
 90
1
176
1
 40
1.0
176
1
 90
8
176
1
 62
7
176
1
 40
1.0
176
1
 90
1
176
1
 90
6
176
1
 90
2
176
1
 62
7
176
1
 90
3
176
1
 90
0
176
1
 90
0
176
1
290
0
176
1
 90
13
176
1
 40
0.0
176
1
 90
0
176
1
290
0
176
1
290
1
176
1
290
1
176
1
290
0
176
1
290
0
176
1
290
0
176
1
290
0
176
1
290
0
176
1
290
0
176
1
 90
50
176
1
 40
0.0
176
1
 40
1.0
176
1
 90
0
176
1
 62
18
420
0
176
1
 90
50
176
1
 90
3
176
1
 62
5
420
255
176
1
290
0
176
1
 90
50
176
1
 90
50
176
1
 90
50
176
1
290
0
176
1
 90
50
176
1
 62
256
176
0
 40
1.0
176
0
 90
2
176
1
  1
strokes_ogs.tif
176
1
290
0
176
1
 40
1.0
176
1
 40
1.0
176
1
  0
DICTIONARYVAR
  5
27697
102
{ACAD_REACTORS
330
27691
102
}
330
27691
100
DictionaryVariables
280
0
  1
1:1
  0
DICTIONARYVAR
  5
27693
102
{ACAD_REACTORS
330
27691
102
}
330
27691
100
DictionaryVariables
280
0
  1
STANDARD
  0
DICTIONARYVAR
  5
27692
102
{ACAD_REACTORS
330
27691
102
}
330
27691
100
DictionaryVariables
280
0
  1
STANDARD
  0
DICTIONARYVAR
  5
27694
102
{ACAD_REACTORS
330
27691
102
}
330
27691
100
DictionaryVariables
280
0
  1
Imperial24
  0
DICTIONARYVAR
  5
27695
102
{ACAD_REACTORS
330
27691
102
}
330
27691
100
DictionaryVariables
280
0
  1
Imperial24
  0
DICTIONARYVAR
  5
27699
102
{ACAD_REACTORS
330
27691
102
}
330
27691
100
DictionaryVariables
280
0
  1
1
  0
DICTIONARYVAR
  5
2769A
102
{ACAD_REACTORS
330
27691
102
}
330
27691
100
DictionaryVariables
280
0
  1
15
  0
DICTIONARYVAR
  5
27698
102
{ACAD_REACTORS
330
27691
102
}
330
27691
100
DictionaryVariables
280
0
  1
0
  0
DICTIONARYVAR
  5
27696
102
{ACAD_REACTORS
330
27691
102
}
330
27691
100
DictionaryVariables
280
0
  1
0
  0
XRECORD
  5
27679
102
{ACAD_REACTORS
330
27677
102
}
330
27677
100
AcDbXrecord
280
1
  0
DICTIONARY
  5
2762D
330
2762C
100
AcDbDictionary
280
1
281
1
  3
BUMPTILE
360
2762F
  3
DIFFUSETILE
360
2762E
  3
OPACITYTILE
360
27632
  3
REFLECTIONTILE
360
27631
  3
REFRACTIONTILE
360
27633
  3
SPECULARTILE
360
27630
  0
DICTIONARY
  5
27625
330
27624
100
AcDbDictionary
280
1
281
1
  3
BUMPTILE
360
27627
  3
DIFFUSETILE
360
27626
  3
OPACITYTILE
360
2762A
  3
REFLECTIONTILE
360
27629
  3
REFRACTIONTILE
360
2762B
  3
SPECULARTILE
360
27628
  0
DICTIONARY
  5
27635
330
27634
100
AcDbDictionary
280
1
281
1
  3
BUMPTILE
360
27637
  3
DIFFUSETILE
360
27636
  3
OPACITYTILE
360
2763A
  3
REFLECTIONTILE
360
27639
  3
REFRACTIONTILE
360
2763B
  3
SPECULARTILE
360
27638
  0
DICTIONARY
  5
2769B
330
27658
100
AcDbDictionary
280
1
281
1
  3
ACAD_ROUNDTRIP_2008_TABLESTYLE_CELLSTYLEMAP
360
2769C
  0
XRECORD
  5
2762F
102
{ACAD_REACTORS
330
2762D
102
}
330
2762D
100
AcDbXrecord
280
1
270
1
271
1
  0
XRECORD
  5
2762E
102
{ACAD_REACTORS
330
2762D
102
}
330
2762D
100
AcDbXrecord
280
1
270
1
271
1
  0
XRECORD
  5
27632
102
{ACAD_REACTORS
330
2762D
102
}
330
2762D
100
AcDbXrecord
280
1
270
1
271
1
  0
XRECORD
  5
27631
102
{ACAD_REACTORS
330
2762D
102
}
330
2762D
100
AcDbXrecord
280
1
270
1
271
1
  0
XRECORD
  5
27633
102
{ACAD_REACTORS
330
2762D
102
}
330
2762D
100
AcDbXrecord
280
1
270
1
271
1
  0
XRECORD
  5
27630
102
{ACAD_REACTORS
330
2762D
102
}
330
2762D
100
AcDbXrecord
280
1
270
1
271
1
  0
XRECORD
  5
27627
102
{ACAD_REACTORS
330
27625
102
}
330
27625
100
AcDbXrecord
280
1
270
1
271
1
  0
XRECORD
  5
27626
102
{ACAD_REACTORS
330
27625
102
}
330
27625
100
AcDbXrecord
280
1
270
1
271
1
  0
XRECORD
  5
2762A
102
{ACAD_REACTORS
330
27625
102
}
330
27625
100
AcDbXrecord
280
1
270
1
271
1
  0
XRECORD
  5
27629
102
{ACAD_REACTORS
330
27625
102
}
330
27625
100
AcDbXrecord
280
1
270
1
271
1
  0
XRECORD
  5
2762B
102
{ACAD_REACTORS
330
27625
102
}
330
27625
100
AcDbXrecord
280
1
270
1
271
1
  0
XRECORD
  5
27628
102
{ACAD_REACTORS
330
27625
102
}
330
27625
100
AcDbXrecord
280
1
270
1
271
1
  0
XRECORD
  5
27637
102
{ACAD_REACTORS
330
27635
102
}
330
27635
100
AcDbXrecord
280
1
270
1
271
1
  0
XRECORD
  5
27636
102
{ACAD_REACTORS
330
27635
102
}
330
27635
100
AcDbXrecord
280
1
270
1
271
1
  0
XRECORD
  5
2763A
102
{ACAD_REACTORS
330
27635
102
}
330
27635
100
AcDbXrecord
280
1
270
1
271
1
  0
XRECORD
  5
27639
102
{ACAD_REACTORS
330
27635
102
}
330
27635
100
AcDbXrecord
280
1
270
1
271
1
  0
XRECORD
  5
2763B
102
{ACAD_REACTORS
330
27635
102
}
330
27635
100
AcDbXrecord
280
1
270
1
271
1
  0
XRECORD
  5
27638
102
{ACAD_REACTORS
330
27635
102
}
330
27635
100
AcDbXrecord
280
1
270
1
271
1
  0
CELLSTYLEMAP
  5
2769C
102
{ACAD_REACTORS
330
2769B
102
}
330
2769B
100
AcDbCellStyleMap
 90
3
300
CELLSTYLE
  1
TABLEFORMAT_BEGIN
 90
5
170
1
 91
0
 92
32768
 62
257
 93
1
300
CONTENTFORMAT
  1
CONTENTFORMAT_BEGIN
 90
0
 91
0
 92
512
 93
0
300

 40
0.0
140
1.0
 94
5
 62
0
340
6BEE
144
0.25
309
CONTENTFORMAT_END
171
0
 94
0
309
TABLEFORMAT_END
  1
CELLSTYLE_BEGIN
 90
1
 91
1
300
_TITLE
309
CELLSTYLE_END
300
CELLSTYLE
  1
TABLEFORMAT_BEGIN
 90
5
170
1
 91
0
 92
0
 62
257
 93
1
300
CONTENTFORMAT
  1
CONTENTFORMAT_BEGIN
 90
0
 91
0
 92
512
 93
0
300

 40
0.0
140
1.0
 94
5
 62
0
340
6BEE
144
0.18
309
CONTENTFORMAT_END
171
0
 94
0
309
TABLEFORMAT_END
  1
CELLSTYLE_BEGIN
 90
2
 91
1
300
_HEADER
309
CELLSTYLE_END
300
CELLSTYLE
  1
TABLEFORMAT_BEGIN
 90
5
170
1
 91
0
 92
0
 62
257
 93
1
300
CONTENTFORMAT
  1
CONTENTFORMAT_BEGIN
 90
0
 91
0
 92
512
 93
0
300

 40
0.0
140
1.0
 94
2
 62
0
340
6BEE
144
0.18
309
CONTENTFORMAT_END
171
0
 94
0
309
TABLEFORMAT_END
  1
CELLSTYLE_BEGIN
 90
3
 91
2
300
_DATA
309
CELLSTYLE_END
  0
MLINESTYLE
  5
2769E
102
{ACAD_REACTORS
330
18
102
}
330
18
100
AcDbMlineStyle
  2
Standard
 70
0
  3

 62
256
 51
90.0
 52
90.0
 71
2
 49
0.5
 62
256
  6
BYLAYER
 49
-0.5
 62
256
  6
BYLAYER
  0
ENDSEC
  0
EOF
