  0
SECTION
  2
HEADER
  9
$ACADVER
  1
AC1027
  9
$ACADMAINTVER
 70
   125
  9
$DWGCODEPAGE
  3
ANSI_1252
  9
$LASTSAVEDBY
  1
rakrick
  9
$REQUIREDVERSIONS
160
                 0
  9
$INSBASE
 10
0.0
 20
0.0
 30
0.0
  9
$EXTMIN
 10
-42000.5
 20
-40000.49999999999
 30
0.0
  9
$EXTMAX
 10
45000.49999999999
 20
40000.49999999999
 30
0.0
  9
$LIMMIN
 10
0.0
 20
0.0
  9
$LIMMAX
 10
0.0
 20
0.0
  9
$ORTHOMODE
 70
     0
  9
$REGENMODE
 70
     1
  9
$FILLMODE
 70
     1
  9
$QTEXTMODE
 70
     0
  9
$MIRRTEXT
 70
     1
  9
$LTSCALE
 40
1.0
  9
$ATTMODE
 70
     1
  9
$TEXTSIZE
 40
0.0
  9
$TRACEWID
 40
0.05
  9
$TEXTSTYLE
  7
STANDARD
  9
$CLAYER
  8
0
  9
$CELTYPE
  6
CONTINUOUS
  9
$CECOLOR
 62
   256
  9
$CELTSCALE
 40
1.0
  9
$DISPSILH
 70
     0
  9
$DIMSCALE
 40
1.0
  9
$DIMASZ
 40
0.18
  9
$DIMEXO
 40
0.0625
  9
$DIMDLI
 40
0.38
  9
$DIMRND
 40
0.0
  9
$DIMDLE
 40
0.0
  9
$DIMEXE
 40
0.18
  9
$DIMTP
 40
0.0
  9
$DIMTM
 40
0.0
  9
$DIMTXT
 40
0.18
  9
$DIMCEN
 40
0.09
  9
$DIMTSZ
 40
0.0
  9
$DIMTOL
 70
     0
  9
$DIMLIM
 70
     0
  9
$DIMTIH
 70
     1
  9
$DIMTOH
 70
     1
  9
$DIMSE1
 70
     0
  9
$DIMSE2
 70
     0
  9
$DIMTAD
 70
     0
  9
$DIMZIN
 70
     0
  9
$DIMBLK
  1

  9
$DIMASO
 70
     1
  9
$DIMSHO
 70
     1
  9
$DIMPOST
  1

  9
$DIMAPOST
  1

  9
$DIMALT
 70
     0
  9
$DIMALTD
 70
     2
  9
$DIMALTF
 40
25.4
  9
$DIMLFAC
 40
1.0
  9
$DIMTOFL
 70
     0
  9
$DIMTVP
 40
0.0
  9
$DIMTIX
 70
     0
  9
$DIMSOXD
 70
     0
  9
$DIMSAH
 70
     0
  9
$DIMBLK1
  1

  9
$DIMBLK2
  1

  9
$DIMSTYLE
  2
STANDARD
  9
$DIMCLRD
 70
     0
  9
$DIMCLRE
 70
     0
  9
$DIMCLRT
 70
     0
  9
$DIMTFAC
 40
1.0
  9
$DIMGAP
 40
0.09
  9
$DIMJUST
 70
     0
  9
$DIMSD1
 70
     0
  9
$DIMSD2
 70
     0
  9
$DIMTOLJ
 70
     1
  9
$DIMTZIN
 70
     0
  9
$DIMALTZ
 70
     0
  9
$DIMALTTZ
 70
     0
  9
$DIMUPT
 70
     0
  9
$DIMDEC
 70
     4
  9
$DIMTDEC
 70
     4
  9
$DIMALTU
 70
     2
  9
$DIMALTTD
 70
     2
  9
$DIMTXSTY
  7
STANDARD
  9
$DIMAUNIT
 70
     0
  9
$DIMADEC
 70
     0
  9
$DIMALTRND
 40
0.0
  9
$DIMAZIN
 70
     0
  9
$DIMDSEP
 70
    46
  9
$DIMATFIT
 70
     3
  9
$DIMFRAC
 70
     0
  9
$DIMLDRBLK
  1

  9
$DIMLUNIT
 70
     2
  9
$DIMLWD
 70
    -2
  9
$DIMLWE
 70
    -2
  9
$DIMTMOVE
 70
     0
  9
$DIMFXL
 40
1.0
  9
$DIMFXLON
 70
     0
  9
$DIMJOGANG
 40
0.7853981633974483
  9
$DIMTFILL
 70
     0
  9
$DIMTFILLCLR
 70
     0
  9
$DIMARCSYM
 70
     0
  9
$DIMLTYPE
  6

  9
$DIMLTEX1
  6

  9
$DIMLTEX2
  6

  9
$DIMTXTDIRECTION
 70
     0
  9
$LUNITS
 70
     2
  9
$LUPREC
 70
     4
  9
$SKETCHINC
 40
0.1
  9
$FILLETRAD
 40
0.0
  9
$AUNITS
 70
     0
  9
$AUPREC
 70
     0
  9
$MENU
  1
acad
  9
$ELEVATION
 40
0.0
  9
$PELEVATION
 40
0.0
  9
$THICKNESS
 40
0.0
  9
$LIMCHECK
 70
     0
  9
$CHAMFERA
 40
0.0
  9
$CHAMFERB
 40
0.0
  9
$CHAMFERC
 40
0.0
  9
$CHAMFERD
 40
0.0
  9
$SKPOLY
 70
     0
  9
$TDCREATE
 40
2414622.957627315
  9
$TDUCREATE
 40
2440587.999988426
  9
$TDUPDATE
 40
2459374.618182871
  9
$TDUUPDATE
 40
2459374.909849537
  9
$TDINDWG
 40
0.0053240741
  9
$TDUSRTIMER
 40
0.0053240741
  9
$USRTIMER
 70
     1
  9
$ANGBASE
 50
0.0
  9
$ANGDIR
 70
     0
  9
$PDMODE
 70
     0
  9
$PDSIZE
 40
0.0
  9
$PLINEWID
 40
0.0
  9
$SPLFRAME
 70
     0
  9
$SPLINETYPE
 70
     6
  9
$SPLINESEGS
 70
     8
  9
$HANDSEED
  5
37C3
  9
$SURFTAB1
 70
     6
  9
$SURFTAB2
 70
     6
  9
$SURFTYPE
 70
     6
  9
$SURFU
 70
     6
  9
$SURFV
 70
     6
  9
$UCSBASE
  2

  9
$UCSNAME
  2

  9
$UCSORG
 10
0.0
 20
0.0
 30
0.0
  9
$UCSXDIR
 10
1.0
 20
0.0
 30
0.0
  9
$UCSYDIR
 10
0.0
 20
1.0
 30
0.0
  9
$UCSORTHOREF
  2

  9
$UCSORTHOVIEW
 70
     0
  9
$UCSORGTOP
 10
0.0
 20
0.0
 30
0.0
  9
$UCSORGBOTTOM
 10
0.0
 20
0.0
 30
0.0
  9
$UCSORGLEFT
 10
0.0
 20
0.0
 30
0.0
  9
$UCSORGRIGHT
 10
0.0
 20
0.0
 30
0.0
  9
$UCSORGFRONT
 10
0.0
 20
0.0
 30
0.0
  9
$UCSORGBACK
 10
0.0
 20
0.0
 30
0.0
  9
$PUCSBASE
  2

  9
$PUCSNAME
  2

  9
$PUCSORG
 10
0.0
 20
0.0
 30
0.0
  9
$PUCSXDIR
 10
1.0
 20
0.0
 30
0.0
  9
$PUCSYDIR
 10
0.0
 20
1.0
 30
0.0
  9
$PUCSORTHOREF
  2

  9
$PUCSORTHOVIEW
 70
     0
  9
$PUCSORGTOP
 10
0.0
 20
0.0
 30
0.0
  9
$PUCSORGBOTTOM
 10
0.0
 20
0.0
 30
0.0
  9
$PUCSORGLEFT
 10
0.0
 20
0.0
 30
0.0
  9
$PUCSORGRIGHT
 10
0.0
 20
0.0
 30
0.0
  9
$PUCSORGFRONT
 10
0.0
 20
0.0
 30
0.0
  9
$PUCSORGBACK
 10
0.0
 20
0.0
 30
0.0
  9
$USERI1
 70
    -4
  9
$USERI2
 70
     0
  9
$USERI3
 70
     0
  9
$USERI4
 70
     0
  9
$USERI5
 70
     0
  9
$USERR1
 40
0.0
  9
$USERR2
 40
0.0
  9
$USERR3
 40
0.0
  9
$USERR4
 40
0.0
  9
$USERR5
 40
0.0
  9
$WORLDVIEW
 70
     1
  9
$SHADEDGE
 70
     3
  9
$SHADEDIF
 70
    70
  9
$TILEMODE
 70
     1
  9
$MAXACTVP
 70
    16
  9
$PINSBASE
 10
0.0
 20
0.0
 30
0.0
  9
$PLIMCHECK
 70
     0
  9
$PEXTMIN
 10
1.000000000000000E+20
 20
1.000000000000000E+20
 30
1.000000000000000E+20
  9
$PEXTMAX
 10
-1.000000000000000E+20
 20
-1.000000000000000E+20
 30
-1.000000000000000E+20
  9
$PLIMMIN
 10
0.0
 20
0.0
  9
$PLIMMAX
 10
12.0
 20
9.0
  9
$UNITMODE
 70
     0
  9
$VISRETAIN
 70
     0
  9
$PLINEGEN
 70
     1
  9
$PSLTSCALE
 70
     0
  9
$TREEDEPTH
 70
  3020
  9
$CMLSTYLE
  2
STANDARD
  9
$CMLJUST
 70
     0
  9
$CMLSCALE
 40
1.0
  9
$PROXYGRAPHICS
 70
     0
  9
$MEASUREMENT
 70
     0
  9
$CELWEIGHT
370
    -1
  9
$ENDCAPS
280
     0
  9
$JOINSTYLE
280
     0
  9
$LWDISPLAY
290
     0
  9
$INSUNITS
 70
     0
  9
$HYPERLINKBASE
  1

  9
$STYLESHEET
  1

  9
$XEDIT
290
     1
  9
$CEPSNTYPE
380
     0
  9
$PSTYLEMODE
290
     1
  9
$FINGERPRINTGUID
  2
{B8E88EDD-8ADC-EA4C-864F-FD87E9ED983D}
  9
$VERSIONGUID
  2
{64D9134A-F623-7A4D-91AC-064EEDEF71EE}
  9
$EXTNAMES
290
     1
  9
$PSVPSCALE
 40
0.0
  9
$OLESTARTUP
290
     0
  9
$SORTENTS
280
   127
  9
$INDEXCTL
280
     0
  9
$HIDETEXT
280
     0
  9
$XCLIPFRAME
280
     2
  9
$HALOGAP
280
     0
  9
$OBSCOLOR
 70
   257
  9
$OBSLTYPE
280
     0
  9
$INTERSECTIONDISPLAY
280
     0
  9
$INTERSECTIONCOLOR
 70
   257
  9
$DIMASSOC
280
     1
  9
$PROJECTNAME
  1

  9
$CAMERADISPLAY
290
     0
  9
$LENSLENGTH
 40
50.0
  9
$CAMERAHEIGHT
 40
0.0
  9
$STEPSPERSEC
 40
2.0
  9
$STEPSIZE
 40
6.0
  9
$3DDWFPREC
 40
2.0
  9
$PSOLWIDTH
 40
0.25
  9
$PSOLHEIGHT
 40
4.0
  9
$LOFTANG1
 40
1.570796326794896
  9
$LOFTANG2
 40
1.570796326794896
  9
$LOFTMAG1
 40
0.0
  9
$LOFTMAG2
 40
0.0
  9
$LOFTPARAM
 70
     7
  9
$LOFTNORMALS
280
     1
  9
$LATITUDE
 40
37.795
  9
$LONGITUDE
 40
-122.394
  9
$NORTHDIRECTION
 40
0.0
  9
$TIMEZONE
 70
 -8000
  9
$LIGHTGLYPHDISPLAY
280
     1
  9
$TILEMODELIGHTSYNCH
280
     1
  9
$CMATERIAL
347
3745
  9
$SOLIDHIST
280
     0
  9
$SHOWHIST
280
     1
  9
$DWFFRAME
280
     2
  9
$DGNFRAME
280
     0
  9
$REALWORLDSCALE
290
     1
  9
$INTERFERECOLOR
 62
     1
  9
$INTERFEREOBJVS
345
3767
  9
$INTERFEREVPVS
346
3764
  9
$CSHADOW
280
     0
  9
$SHADOWPLANELOCATION
 40
0.0
  0
ENDSEC
  0
SECTION
  2
CLASSES
  0
CLASS
  1
IMAGE
  2
AcDbRasterImage
  3
ISM
 90
     2175
 91
        0
280
     0
281
     1
  0
CLASS
  1
DICTIONARYVAR
  2
AcDbDictionaryVar
  3
ObjectDBX Classes
 90
        0
 91
        9
280
     0
281
     0
  0
CLASS
  1
RASTERVARIABLES
  2
AcDbRasterVariables
  3
ISM
 90
        0
 91
        0
280
     0
281
     0
  0
CLASS
  1
IMAGEDEF
  2
AcDbRasterImageDef
  3
ISM
 90
        0
 91
        0
280
     0
281
     0
  0
CLASS
  1
IMAGEDEF_REACTOR
  2
AcDbRasterImageDefReactor
  3
ISM
 90
        1
 91
        0
280
     0
281
     0
  0
CLASS
  1
IDBUFFER
  2
AcDbIdBuffer
  3
ObjectDBX Classes
 90
        0
 91
        0
280
     0
281
     0
  0
CLASS
  1
SPATIAL_FILTER
  2
AcDbSpatialFilter
  3
ObjectDBX Classes
 90
        0
 91
        0
280
     0
281
     0
  0
CLASS
  1
SORTENTSTABLE
  2
AcDbSortentsTable
  3
ObjectDBX Classes
 90
        0
 91
        0
280
     0
281
     0
  0
CLASS
  1
LAYER_INDEX
  2
AcDbLayerIndex
  3
ObjectDBX Classes
 90
        0
 91
        0
280
     0
281
     0
  0
CLASS
  1
SPATIAL_INDEX
  2
AcDbSpatialIndex
  3
ObjectDBX Classes
 90
        0
 91
        0
280
     0
281
     0
  0
CLASS
  1
OBJECT_PTR
  2
CAseDLPNTableRecord
  3
ASE-LPNTableRecord
 90
        1
 91
        0
280
     0
281
     0
  0
CLASS
  1
PLOTSETTINGS
  2
AcDbPlotSettings
  3
ObjectDBX Classes
 90
        0
 91
        0
280
     0
281
     0
  0
CLASS
  1
ACDBDICTIONARYWDFLT
  2
AcDbDictionaryWithDefault
  3
ObjectDBX Classes
 90
        0
 91
        1
280
     0
281
     0
  0
CLASS
  1
WIPEOUT
  2
AcDbWipeout
  3
WipeOut|Product Desc: Object Enabler for WipeOut entity | Company: Autodesk, Inc. | WEB Address: www.autodesk.com
 90
     2175
 91
        0
280
     0
281
     1
  0
CLASS
  1
WIPEOUTVARIABLES
  2
AcDbWipeoutVariables
  3
"WipeOut|Product Desc:     WipeOut Dbx Application|Company:          Autodesk, Inc.|WEB Address:      www.autodesk.com"
 90
        0
 91
        0
280
     0
281
     0
  0
CLASS
  1
RTEXT
  2
RText
  3
RText|AutoCAD Express Tool|expresstools@autodesk.com
 90
     3071
 91
        0
280
     0
281
     1
  0
CLASS
  1
ARCALIGNEDTEXT
  2
AcDbArcAlignedText
  3
ATEXT|AutoCAD Express Tool|expresstools@autodesk.com
 90
        0
 91
        0
280
     0
281
     1
  0
CLASS
  1
MATERIAL
  2
AcDbMaterial
  3
ObjectDBX Classes
 90
     1153
 91
        3
280
     0
281
     0
  0
CLASS
  1
VISUALSTYLE
  2
AcDbVisualStyle
  3
ObjectDBX Classes
 90
     4095
 91
       24
280
     0
281
     0
  0
CLASS
  1
TABLESTYLE
  2
AcDbTableStyle
  3
ObjectDBX Classes
 90
     4095
 91
        1
280
     0
281
     0
  0
CLASS
  1
SCALE
  2
AcDbScale
  3
ObjectDBX Classes
 90
     1153
 91
       17
280
     0
281
     0
  0
CLASS
  1
MLEADERSTYLE
  2
AcDbMLeaderStyle
  3
ACDB_MLEADERSTYLE_CLASS
 90
     4095
 91
        1
280
     0
281
     0
  0
CLASS
  1
ACDBSECTIONVIEWSTYLE
  2
AcDbSectionViewStyle
  3
ObjectDBX Classes
 90
     1025
 91
        1
280
     0
281
     0
  0
CLASS
  1
ACDBDETAILVIEWSTYLE
  2
AcDbDetailViewStyle
  3
ObjectDBX Classes
 90
     1025
 91
        1
280
     0
281
     0
  0
CLASS
  1
CELLSTYLEMAP
  2
AcDbCellStyleMap
  3
ObjectDBX Classes
 90
     1152
 91
        2
280
     0
281
     0
  0
ENDSEC
  0
SECTION
  2
TABLES
  0
TABLE
  2
VPORT
  5
7
330
0
100
AcDbSymbolTable
 70
     1
1001
ACAD
1000
DbSaveVer
1071
       51
  0
VPORT
  5
13
330
7
100
AcDbSymbolTableRecord
100
AcDbViewportTableRecord
  2
*ACTIVE
 70
     0
 10
0.0
 20
0.0
 11
1.0
 21
1.0
 12
-5273.435998672198
 22
-3962.343358406652
 13
0.0
 23
0.0
 14
1.0
 24
1.0
 15
0.0
 25
0.0
 16
0.0
 26
0.0
 36
1.0
 17
0.0
 27
0.0
 37
0.0
 40
69196.65057147777
 41
2.466973886328724
 42
50.0
 43
0.0
 44
0.0
 50
0.0
 51
0.0
 71
     0
 72
   100
 73
     1
 74
     1
 75
     0
 76
     0
 77
     0
 78
     0
281
     0
 65
     1
110
0.0
120
0.0
130
0.0
111
1.0
121
0.0
131
0.0
112
0.0
122
1.0
132
0.0
 79
     0
146
0.0
348
3763
 60
     3
 61
     5
292
     1
282
     1
141
0.0
142
0.0
 63
   250
421
  3355443
1001
ACAD_NAV_VCDISPLAY
1070
     3
  0
ENDTAB
  0
TABLE
  2
LTYPE
  5
4
330
0
100
AcDbSymbolTable
 70
     1
  0
LTYPE
  5
10
330
4
100
AcDbSymbolTableRecord
100
AcDbLinetypeTableRecord
  2
BYBLOCK
 70
     0
  3

 72
    65
 73
     0
 40
0.0
  0
LTYPE
  5
11
330
4
100
AcDbSymbolTableRecord
100
AcDbLinetypeTableRecord
  2
BYLAYER
 70
     0
  3

 72
    65
 73
     0
 40
0.0
  0
LTYPE
  5
12
330
4
100
AcDbSymbolTableRecord
100
AcDbLinetypeTableRecord
  2
CONTINUOUS
 70
     0
  3
Solid Line
 72
    65
 73
     0
 40
0.0
  0
ENDTAB
  0
TABLE
  2
LAYER
  5
2
330
0
100
AcDbSymbolTable
 70
     6
  0
LAYER
  5
F8F
102
{ACAD_XDICTIONARY
360
379A
102
}
330
2
100
AcDbSymbolTableRecord
100
AcDbLayerTableRecord
  2
0
 70
     0
 62
     7
  6
CONTINUOUS
370
    -3
390
3743
347
3755
348
0
  0
LAYER
  5
F90
102
{ACAD_XDICTIONARY
360
379C
102
}
330
2
100
AcDbSymbolTableRecord
100
AcDbLayerTableRecord
  2
PHOTOPLOT
 70
     0
 62
   191
  6
CONTINUOUS
370
    -3
390
3743
347
3755
348
0
  0
LAYER
  5
F91
102
{ACAD_XDICTIONARY
360
379E
102
}
330
2
100
AcDbSymbolTableRecord
100
AcDbLayerTableRecord
  2
PIN_NOTATIONS
 70
     0
 62
   244
  6
CONTINUOUS
370
    -3
390
3743
347
3755
348
0
  0
LAYER
  5
F92
102
{ACAD_XDICTIONARY
360
37A0
102
}
330
2
100
AcDbSymbolTableRecord
100
AcDbLayerTableRecord
  2
SOLDERMASK_PADS_BTM
 70
     0
 62
    12
  6
CONTINUOUS
370
    -3
390
3743
347
3755
348
0
  0
LAYER
  5
F93
102
{ACAD_XDICTIONARY
360
37A2
102
}
330
2
100
AcDbSymbolTableRecord
100
AcDbLayerTableRecord
  2
TEXT_BSR
 70
     0
 62
    90
  6
CONTINUOUS
370
    -3
390
3743
347
3755
348
0
  0
LAYER
  5
F94
102
{ACAD_XDICTIONARY
360
37A4
102
}
330
2
100
AcDbSymbolTableRecord
100
AcDbLayerTableRecord
  2
PKG_OUTLINE
 70
     0
 62
    37
  6
CONTINUOUS
370
    -3
390
3743
347
3755
348
0
  0
ENDTAB
  0
TABLE
  2
STYLE
  5
3
330
0
100
AcDbSymbolTable
 70
     3
  0
STYLE
  5
F95
330
3
100
AcDbSymbolTableRecord
100
AcDbTextStyleTableRecord
  2
STANDARD
 70
     0
 40
0.0
 41
1.0
 50
0.0
 71
     0
 42
0.0
  3
txt
  4

  0
STYLE
  5
F96
330
3
100
AcDbSymbolTableRecord
100
AcDbTextStyleTableRecord
  2
ARIAL
 70
     0
 40
0.0
 41
1.0
 50
0.0
 71
     0
 42
0.0
  3
arial.ttf
  4

1001
ACAD
1000
Arial
1071
       34
  0
STYLE
  5
F97
330
3
100
AcDbSymbolTableRecord
100
AcDbTextStyleTableRecord
  2
VF_STD
 70
     0
 40
0.0
 41
1.0
 50
0.0
 71
     0
 42
0.0
  3
txt
  4

  0
ENDTAB
  0
TABLE
  2
VIEW
  5
5
330
0
100
AcDbSymbolTable
 70
     0
  0
ENDTAB
  0
TABLE
  2
UCS
  5
6
330
0
100
AcDbSymbolTable
 70
     0
  0
ENDTAB
  0
TABLE
  2
APPID
  5
8
330
0
100
AcDbSymbolTable
 70
     4
  0
APPID
  5
14
330
8
100
AcDbSymbolTableRecord
100
AcDbRegAppTableRecord
  2
ACAD
 70
     0
  0
APPID
  5
3798
330
8
100
AcDbSymbolTableRecord
100
AcDbRegAppTableRecord
  2
ACAD_EXEMPT_FROM_CAD_STANDARDS
 70
     0
  0
APPID
  5
37A8
330
8
100
AcDbSymbolTableRecord
100
AcDbRegAppTableRecord
  2
DCO15
 70
     0
  0
APPID
  5
37B4
330
8
100
AcDbSymbolTableRecord
100
AcDbRegAppTableRecord
  2
ACAD_NAV_VCDISPLAY
 70
     0
  0
ENDTAB
  0
TABLE
  2
DIMSTYLE
  5
9
330
0
100
AcDbSymbolTable
 70
     1
100
AcDbDimStyleTable
 71
     0
  0
DIMSTYLE
105
15
330
9
100
AcDbSymbolTableRecord
100
AcDbDimStyleTableRecord
  2
STANDARD
 70
     0
340
17
  0
ENDTAB
  0
TABLE
  2
BLOCK_RECORD
  5
1
330
0
100
AcDbSymbolTable
 70
     0
  0
BLOCK_RECORD
  5
A
330
1
100
AcDbSymbolTableRecord
100
AcDbBlockTableRecord
  2
*MODEL_SPACE
340
3793
 70
     0
280
     1
281
     0
  0
BLOCK_RECORD
  5
B
330
1
100
AcDbSymbolTableRecord
100
AcDbBlockTableRecord
  2
*PAPER_SPACE
340
3794
 70
     0
280
     1
281
     0
  0
ENDTAB
  0
ENDSEC
  0
SECTION
  2
BLOCKS
  0
BLOCK
  5
C
330
A
100
AcDbEntity
  8
0
100
AcDbBlockBegin
  2
*MODEL_SPACE
 70
     0
 10
0.0
 20
0.0
 30
0.0
  3
*MODEL_SPACE
  1

  0
ENDBLK
  5
D
330
A
100
AcDbEntity
  8
0
100
AcDbBlockEnd
  0
BLOCK
  5
E
330
B
100
AcDbEntity
 67
     1
  8
0
100
AcDbBlockBegin
  2
*PAPER_SPACE
 70
     0
 10
0.0
 20
0.0
 30
0.0
  3
*PAPER_SPACE
  1

  0
ENDBLK
  5
F
330
B
100
AcDbEntity
 67
     1
  8
0
100
AcDbBlockEnd
  0
ENDSEC
  0
SECTION
  2
ENTITIES
  0
SOLID
  5
7F
330
A
100
AcDbEntity
  8
SOLDERMASK_PADS_BTM
100
AcDbTrace
 10
5973.587
 20
2642.77
 30
0.0
 11
6173.587
 21
2642.77
 31
0.0
 12
5973.587
 22
3642.77
 32
0.0
 13
6173.587
 23
3642.77
 33
0.0
  0
SOLID
  5
80
330
A
100
AcDbEntity
  8
SOLDERMASK_PADS_BTM
100
AcDbTrace
 10
5573.586999999998
 20
2642.77
 30
0.0
 11
5773.587
 21
2642.77
 31
0.0
 12
5573.586999999998
 22
3642.77
 32
0.0
 13
5773.587
 23
3642.77
 33
0.0
  0
SOLID
  5
81
330
A
100
AcDbEntity
  8
SOLDERMASK_PADS_BTM
100
AcDbTrace
 10
-3050.837
 20
4876.847
 30
0.0
 11
-2850.837
 21
4876.847
 31
0.0
 12
-3050.837
 22
5026.847
 32
0.0
 13
-2850.837
 23
5026.847
 33
0.0
  0
SOLID
  5
82
330
A
100
AcDbEntity
  8
SOLDERMASK_PADS_BTM
100
AcDbTrace
 10
-3050.837
 20
4546.846999999998
 30
0.0
 11
-2850.837
 21
4546.846999999998
 31
0.0
 12
-3050.837
 22
4696.846999999999
 32
0.0
 13
-2850.837
 23
4696.846999999999
 33
0.0
  0
SOLID
  5
83
330
A
100
AcDbEntity
  8
SOLDERMASK_PADS_BTM
100
AcDbTrace
 10
-1415.167
 20
3513.177000000001
 30
0.0
 11
-915.1670000000001
 21
3513.177000000001
 31
0.0
 12
-1415.167
 22
3889.177
 32
0.0
 13
-915.1670000000001
 23
3889.177
 33
0.0
  0
SOLID
  5
84
330
A
100
AcDbEntity
  8
SOLDERMASK_PADS_BTM
100
AcDbTrace
 10
-1415.167
 20
2687.177
 30
0.0
 11
-915.1670000000001
 21
2687.177
 31
0.0
 12
-1415.167
 22
3063.177
 32
0.0
 13
-915.1670000000001
 23
3063.177
 33
0.0
  0
SOLID
  5
85
330
A
100
AcDbEntity
  8
SOLDERMASK_PADS_BTM
100
AcDbTrace
 10
-8034.340999999999
 20
4988.29
 30
0.0
 11
-7834.340999999999
 21
4988.29
 31
0.0
 12
-8034.340999999999
 22
5138.29
 32
0.0
 13
-7834.340999999999
 23
5138.29
 33
0.0
  0
SOLID
  5
86
330
A
100
AcDbEntity
  8
SOLDERMASK_PADS_BTM
100
AcDbTrace
 10
-8034.340999999999
 20
4658.29
 30
0.0
 11
-7834.340999999999
 21
4658.29
 31
0.0
 12
-8034.340999999999
 22
4808.29
 32
0.0
 13
-7834.340999999999
 23
4808.29
 33
0.0
  0
SOLID
  5
87
330
A
100
AcDbEntity
  8
SOLDERMASK_PADS_BTM
100
AcDbTrace
 10
-3661.702
 20
-4316.13
 30
0.0
 11
-3161.702
 21
-4316.13
 31
0.0
 12
-3661.702
 22
-3940.13
 32
0.0
 13
-3161.702
 23
-3940.13
 33
0.0
  0
SOLID
  5
88
330
A
100
AcDbEntity
  8
SOLDERMASK_PADS_BTM
100
AcDbTrace
 10
-3661.702
 20
-3490.13
 30
0.0
 11
-3161.702
 21
-3490.13
 31
0.0
 12
-3661.702
 22
-3114.13
 32
0.0
 13
-3161.702
 23
-3114.13
 33
0.0
  0
SOLID
  5
89
330
A
100
AcDbEntity
  8
SOLDERMASK_PADS_BTM
100
AcDbTrace
 10
-3875.040999999999
 20
4988.29
 30
0.0
 11
-3675.041
 21
4988.29
 31
0.0
 12
-3875.040999999999
 22
5138.29
 32
0.0
 13
-3675.041
 23
5138.29
 33
0.0
  0
SOLID
  5
8A
330
A
100
AcDbEntity
  8
SOLDERMASK_PADS_BTM
100
AcDbTrace
 10
-3875.040999999999
 20
4658.29
 30
0.0
 11
-3675.041
 21
4658.29
 31
0.0
 12
-3875.040999999999
 22
4808.29
 32
0.0
 13
-3675.041
 23
4808.29
 33
0.0
  0
SOLID
  5
8B
330
A
100
AcDbEntity
  8
SOLDERMASK_PADS_BTM
100
AcDbTrace
 10
5973.587
 20
1439.554
 30
0.0
 11
6173.587
 21
1439.554
 31
0.0
 12
5973.587
 22
2439.554
 32
0.0
 13
6173.587
 23
2439.554
 33
0.0
  0
SOLID
  5
8C
330
A
100
AcDbEntity
  8
SOLDERMASK_PADS_BTM
100
AcDbTrace
 10
5573.586999999998
 20
1439.554
 30
0.0
 11
5773.587
 21
1439.554
 31
0.0
 12
5573.586999999998
 22
2439.554
 32
0.0
 13
5773.587
 23
2439.554
 33
0.0
  0
SOLID
  5
8D
330
A
100
AcDbEntity
  8
SOLDERMASK_PADS_BTM
100
AcDbTrace
 10
-1415.167
 20
1310.177
 30
0.0
 11
-915.1670000000001
 21
1310.177
 31
0.0
 12
-1415.167
 22
1686.177
 32
0.0
 13
-915.1670000000001
 23
1686.177
 33
0.0
  0
SOLID
  5
8E
330
A
100
AcDbEntity
  8
SOLDERMASK_PADS_BTM
100
AcDbTrace
 10
-1415.167
 20
2136.177
 30
0.0
 11
-915.1670000000001
 21
2136.177
 31
0.0
 12
-1415.167
 22
2512.177
 32
0.0
 13
-915.1670000000001
 23
2512.177
 33
0.0
  0
SOLID
  5
8F
330
A
100
AcDbEntity
  8
SOLDERMASK_PADS_BTM
100
AcDbTrace
 10
-3661.702
 20
-2113.13
 30
0.0
 11
-3161.702
 21
-2113.13
 31
0.0
 12
-3661.702
 22
-1737.13
 32
0.0
 13
-3161.702
 23
-1737.13
 33
0.0
  0
SOLID
  5
90
330
A
100
AcDbEntity
  8
SOLDERMASK_PADS_BTM
100
AcDbTrace
 10
-3661.702
 20
-2939.13
 30
0.0
 11
-3161.702
 21
-2939.13
 31
0.0
 12
-3661.702
 22
-2563.130000000001
 32
0.0
 13
-3161.702
 23
-2563.130000000001
 33
0.0
  0
SOLID
  5
91
330
A
100
AcDbEntity
  8
SOLDERMASK_PADS_BTM
100
AcDbTrace
 10
5973.587
 20
236.338
 30
0.0
 11
6173.587
 21
236.338
 31
0.0
 12
5973.587
 22
1236.338
 32
0.0
 13
6173.587
 23
1236.338
 33
0.0
  0
SOLID
  5
92
330
A
100
AcDbEntity
  8
SOLDERMASK_PADS_BTM
100
AcDbTrace
 10
5573.586999999998
 20
236.338
 30
0.0
 11
5773.587
 21
236.338
 31
0.0
 12
5573.586999999998
 22
1236.338
 32
0.0
 13
5773.587
 23
1236.338
 33
0.0
  0
SOLID
  5
93
330
A
100
AcDbEntity
  8
SOLDERMASK_PADS_BTM
100
AcDbTrace
 10
-326.704
 20
-4728.814
 30
0.0
 11
-126.704
 21
-4728.814
 31
0.0
 12
-326.704
 22
-3728.814000000002
 32
0.0
 13
-126.704
 23
-3728.814000000002
 33
0.0
  0
SOLID
  5
94
330
A
100
AcDbEntity
  8
SOLDERMASK_PADS_BTM
100
AcDbTrace
 10
-726.7039999999998
 20
-4728.814
 30
0.0
 11
-526.704
 21
-4728.814
 31
0.0
 12
-726.7039999999998
 22
-3728.814000000002
 32
0.0
 13
-526.704
 23
-3728.814000000002
 33
0.0
  0
SOLID
  5
95
330
A
100
AcDbEntity
  8
SOLDERMASK_PADS_BTM
100
AcDbTrace
 10
5973.587
 20
-3448.257
 30
0.0
 11
6173.587
 21
-3448.257
 31
0.0
 12
5973.587
 22
-2448.257
 32
0.0
 13
6173.587
 23
-2448.257
 33
0.0
  0
SOLID
  5
96
330
A
100
AcDbEntity
  8
SOLDERMASK_PADS_BTM
100
AcDbTrace
 10
5573.586999999998
 20
-3448.257
 30
0.0
 11
5773.587
 21
-3448.257
 31
0.0
 12
5573.586999999998
 22
-2448.257
 32
0.0
 13
5773.587
 23
-2448.257
 33
0.0
  0
SOLID
  5
97
330
A
100
AcDbEntity
  8
SOLDERMASK_PADS_BTM
100
AcDbTrace
 10
5973.587
 20
-1041.825
 30
0.0
 11
6173.587
 21
-1041.825
 31
0.0
 12
5973.587
 22
-41.825
 32
0.0
 13
6173.587
 23
-41.825
 33
0.0
  0
SOLID
  5
98
330
A
100
AcDbEntity
  8
SOLDERMASK_PADS_BTM
100
AcDbTrace
 10
5573.586999999998
 20
-1041.825
 30
0.0
 11
5773.587
 21
-1041.825
 31
0.0
 12
5573.586999999998
 22
-41.825
 32
0.0
 13
5773.587
 23
-41.825
 33
0.0
  0
SOLID
  5
99
330
A
100
AcDbEntity
  8
SOLDERMASK_PADS_BTM
100
AcDbTrace
 10
-326.704
 20
-3526.63
 30
0.0
 11
-126.704
 21
-3526.63
 31
0.0
 12
-326.704
 22
-2526.63
 32
0.0
 13
-126.704
 23
-2526.63
 33
0.0
  0
SOLID
  5
9A
330
A
100
AcDbEntity
  8
SOLDERMASK_PADS_BTM
100
AcDbTrace
 10
-726.7039999999998
 20
-3526.63
 30
0.0
 11
-526.704
 21
-3526.63
 31
0.0
 12
-726.7039999999998
 22
-2526.63
 32
0.0
 13
-526.704
 23
-2526.63
 33
0.0
  0
SOLID
  5
9B
330
A
100
AcDbEntity
  8
SOLDERMASK_PADS_BTM
100
AcDbTrace
 10
-9175.497
 20
4101.861
 30
0.0
 11
-9025.496999999999
 21
4101.861
 31
0.0
 12
-9175.497
 22
4301.861
 32
0.0
 13
-9025.496999999999
 23
4301.861
 33
0.0
  0
SOLID
  5
9C
330
A
100
AcDbEntity
  8
SOLDERMASK_PADS_BTM
100
AcDbTrace
 10
-9505.497
 20
4101.861
 30
0.0
 11
-9355.496999999999
 21
4101.861
 31
0.0
 12
-9505.497
 22
4301.861
 32
0.0
 13
-9355.496999999999
 23
4301.861
 33
0.0
  0
SOLID
  5
9D
330
A
100
AcDbEntity
  8
SOLDERMASK_PADS_BTM
100
AcDbTrace
 10
5973.587
 20
-4651.473
 30
0.0
 11
6173.587
 21
-4651.473
 31
0.0
 12
5973.587
 22
-3651.473
 32
0.0
 13
6173.587
 23
-3651.473
 33
0.0
  0
SOLID
  5
9E
330
A
100
AcDbEntity
  8
SOLDERMASK_PADS_BTM
100
AcDbTrace
 10
5573.586999999998
 20
-4651.473
 30
0.0
 11
5773.587
 21
-4651.473
 31
0.0
 12
5573.586999999998
 22
-3651.473
 32
0.0
 13
5773.587
 23
-3651.473
 33
0.0
  0
SOLID
  5
9F
330
A
100
AcDbEntity
  8
SOLDERMASK_PADS_BTM
100
AcDbTrace
 10
5973.587
 20
-2245.041
 30
0.0
 11
6173.587
 21
-2245.041
 31
0.0
 12
5973.587
 22
-1245.041
 32
0.0
 13
6173.587
 23
-1245.041
 33
0.0
  0
SOLID
  5
A0
330
A
100
AcDbEntity
  8
SOLDERMASK_PADS_BTM
100
AcDbTrace
 10
5573.586999999998
 20
-2245.041
 30
0.0
 11
5773.587
 21
-2245.041
 31
0.0
 12
5573.586999999998
 22
-1245.041
 32
0.0
 13
5773.587
 23
-1245.041
 33
0.0
  0
SOLID
  5
A1
330
A
100
AcDbEntity
  8
SOLDERMASK_PADS_BTM
100
AcDbTrace
 10
-326.704
 20
-2324.446
 30
0.0
 11
-126.704
 21
-2324.446
 31
0.0
 12
-326.704
 22
-1324.446
 32
0.0
 13
-126.704
 23
-1324.446
 33
0.0
  0
SOLID
  5
A2
330
A
100
AcDbEntity
  8
SOLDERMASK_PADS_BTM
100
AcDbTrace
 10
-726.7039999999998
 20
-2324.446
 30
0.0
 11
-526.704
 21
-2324.446
 31
0.0
 12
-726.7039999999998
 22
-1324.446
 32
0.0
 13
-526.704
 23
-1324.446
 33
0.0
  0
SOLID
  5
A3
330
A
100
AcDbEntity
  8
SOLDERMASK_PADS_BTM
100
AcDbTrace
 10
6748.586999999999
 20
3845.986
 30
0.0
 11
6948.586999999999
 21
3845.986
 31
0.0
 12
6748.586999999999
 22
4845.985999999999
 32
0.0
 13
6948.586999999999
 23
4845.985999999999
 33
0.0
  0
SOLID
  5
A4
330
A
100
AcDbEntity
  8
SOLDERMASK_PADS_BTM
100
AcDbTrace
 10
6348.587
 20
3845.986
 30
0.0
 11
6548.586999999999
 21
3845.986
 31
0.0
 12
6348.587
 22
4845.985999999999
 32
0.0
 13
6548.586999999999
 23
4845.985999999999
 33
0.0
  0
SOLID
  5
A5
330
A
100
AcDbEntity
  8
SOLDERMASK_PADS_BTM
100
AcDbTrace
 10
-2200.036
 20
-4728.814
 30
0.0
 11
-2000.036
 21
-4728.814
 31
0.0
 12
-2200.036
 22
-3728.814000000002
 32
0.0
 13
-2000.036
 23
-3728.814000000002
 33
0.0
  0
SOLID
  5
A6
330
A
100
AcDbEntity
  8
SOLDERMASK_PADS_BTM
100
AcDbTrace
 10
-1800.036
 20
-4728.814
 30
0.0
 11
-1600.036
 21
-4728.814
 31
0.0
 12
-1800.036
 22
-3728.814000000002
 32
0.0
 13
-1600.036
 23
-3728.814000000002
 33
0.0
  0
SOLID
  5
A7
330
A
100
AcDbEntity
  8
SOLDERMASK_PADS_BTM
100
AcDbTrace
 10
-11419.925
 20
415.648
 30
0.0
 11
-11219.925
 21
415.648
 31
0.0
 12
-11419.925
 22
1415.648
 32
0.0
 13
-11219.925
 23
1415.648
 33
0.0
  0
SOLID
  5
A8
330
A
100
AcDbEntity
  8
SOLDERMASK_PADS_BTM
100
AcDbTrace
 10
-11819.925
 20
415.648
 30
0.0
 11
-11619.925
 21
415.648
 31
0.0
 12
-11819.925
 22
1415.648
 32
0.0
 13
-11619.925
 23
1415.648
 33
0.0
  0
SOLID
  5
A9
330
A
100
AcDbEntity
  8
SOLDERMASK_PADS_BTM
100
AcDbTrace
 10
-9869.925
 20
-779.352
 30
0.0
 11
-8869.925
 21
-779.352
 31
0.0
 12
-9869.925
 22
-579.352
 32
0.0
 13
-8869.925
 23
-579.352
 33
0.0
  0
SOLID
  5
AA
330
A
100
AcDbEntity
  8
SOLDERMASK_PADS_BTM
100
AcDbTrace
 10
-9869.925
 20
-379.352
 30
0.0
 11
-8869.925
 21
-379.352
 31
0.0
 12
-9869.925
 22
-179.352
 32
0.0
 13
-8869.925
 23
-179.352
 33
0.0
  0
SOLID
  5
AB
330
A
100
AcDbEntity
  8
SOLDERMASK_PADS_BTM
100
AcDbTrace
 10
6748.586999999999
 20
2642.77
 30
0.0
 11
6948.586999999999
 21
2642.77
 31
0.0
 12
6748.586999999999
 22
3642.77
 32
0.0
 13
6948.586999999999
 23
3642.77
 33
0.0
  0
SOLID
  5
AC
330
A
100
AcDbEntity
  8
SOLDERMASK_PADS_BTM
100
AcDbTrace
 10
6348.587
 20
2642.77
 30
0.0
 11
6548.586999999999
 21
2642.77
 31
0.0
 12
6348.587
 22
3642.77
 32
0.0
 13
6548.586999999999
 23
3642.77
 33
0.0
  0
SOLID
  5
AD
330
A
100
AcDbEntity
  8
SOLDERMASK_PADS_BTM
100
AcDbTrace
 10
-8246.700000000002
 20
-1271.18
 30
0.0
 11
-8046.699999999999
 21
-1271.18
 31
0.0
 12
-8246.700000000002
 22
-271.18
 32
0.0
 13
-8046.699999999999
 23
-271.18
 33
0.0
  0
SOLID
  5
AE
330
A
100
AcDbEntity
  8
SOLDERMASK_PADS_BTM
100
AcDbTrace
 10
-7846.7
 20
-1271.18
 30
0.0
 11
-7646.7
 21
-1271.18
 31
0.0
 12
-7846.7
 22
-271.18
 32
0.0
 13
-7646.7
 23
-271.18
 33
0.0
  0
SOLID
  5
AF
330
A
100
AcDbEntity
  8
SOLDERMASK_PADS_BTM
100
AcDbTrace
 10
-2200.036
 20
-3526.63
 30
0.0
 11
-2000.036
 21
-3526.63
 31
0.0
 12
-2200.036
 22
-2526.63
 32
0.0
 13
-2000.036
 23
-2526.63
 33
0.0
  0
SOLID
  5
B0
330
A
100
AcDbEntity
  8
SOLDERMASK_PADS_BTM
100
AcDbTrace
 10
-1800.036
 20
-3526.63
 30
0.0
 11
-1600.036
 21
-3526.63
 31
0.0
 12
-1800.036
 22
-2526.63
 32
0.0
 13
-1600.036
 23
-2526.63
 33
0.0
  0
SOLID
  5
B1
330
A
100
AcDbEntity
  8
SOLDERMASK_PADS_BTM
100
AcDbTrace
 10
-12594.925
 20
1978.6
 30
0.0
 11
-12394.925
 21
1978.6
 31
0.0
 12
-12594.925
 22
2978.6
 32
0.0
 13
-12394.925
 23
2978.6
 33
0.0
  0
SOLID
  5
B2
330
A
100
AcDbEntity
  8
SOLDERMASK_PADS_BTM
100
AcDbTrace
 10
-12194.925
 20
1978.6
 30
0.0
 11
-11994.925
 21
1978.6
 31
0.0
 12
-12194.925
 22
2978.6
 32
0.0
 13
-11994.925
 23
2978.6
 33
0.0
  0
SOLID
  5
B3
330
A
100
AcDbEntity
  8
SOLDERMASK_PADS_BTM
100
AcDbTrace
 10
-11187.497
 20
-4136.8
 30
0.0
 11
-10987.497
 21
-4136.8
 31
0.0
 12
-11187.497
 22
-3136.8
 32
0.0
 13
-10987.497
 23
-3136.8
 33
0.0
  0
SOLID
  5
B4
330
A
100
AcDbEntity
  8
SOLDERMASK_PADS_BTM
100
AcDbTrace
 10
-11587.497
 20
-4136.8
 30
0.0
 11
-11387.497
 21
-4136.8
 31
0.0
 12
-11587.497
 22
-3136.8
 32
0.0
 13
-11387.497
 23
-3136.8
 33
0.0
  0
SOLID
  5
B5
330
A
100
AcDbEntity
  8
SOLDERMASK_PADS_BTM
100
AcDbTrace
 10
6748.586999999999
 20
1439.554
 30
0.0
 11
6948.586999999999
 21
1439.554
 31
0.0
 12
6748.586999999999
 22
2439.554
 32
0.0
 13
6948.586999999999
 23
2439.554
 33
0.0
  0
SOLID
  5
B6
330
A
100
AcDbEntity
  8
SOLDERMASK_PADS_BTM
100
AcDbTrace
 10
6348.587
 20
1439.554
 30
0.0
 11
6548.586999999999
 21
1439.554
 31
0.0
 12
6348.587
 22
2439.554
 32
0.0
 13
6548.586999999999
 23
2439.554
 33
0.0
  0
SOLID
  5
B7
330
A
100
AcDbEntity
  8
SOLDERMASK_PADS_BTM
100
AcDbTrace
 10
-10996.7
 20
-4911.8
 30
0.0
 11
-9996.700000000004
 21
-4911.8
 31
0.0
 12
-10996.7
 22
-4711.8
 32
0.0
 13
-9996.700000000004
 23
-4711.8
 33
0.0
  0
SOLID
  5
B8
330
A
100
AcDbEntity
  8
SOLDERMASK_PADS_BTM
100
AcDbTrace
 10
-10996.7
 20
-4511.8
 30
0.0
 11
-9996.700000000004
 21
-4511.8
 31
0.0
 12
-10996.7
 22
-4311.8
 32
0.0
 13
-9996.700000000004
 23
-4311.8
 33
0.0
  0
SOLID
  5
B9
330
A
100
AcDbEntity
  8
SOLDERMASK_PADS_BTM
100
AcDbTrace
 10
-8646.7
 20
-3736.800000000001
 30
0.0
 11
-7646.7
 21
-3736.800000000001
 31
0.0
 12
-8646.7
 22
-3536.8
 32
0.0
 13
-7646.7
 23
-3536.8
 33
0.0
  0
SOLID
  5
BA
330
A
100
AcDbEntity
  8
SOLDERMASK_PADS_BTM
100
AcDbTrace
 10
-8646.7
 20
-4136.8
 30
0.0
 11
-7646.7
 21
-4136.8
 31
0.0
 12
-8646.7
 22
-3936.8
 32
0.0
 13
-7646.7
 23
-3936.8
 33
0.0
  0
SOLID
  5
BB
330
A
100
AcDbEntity
  8
SOLDERMASK_PADS_BTM
100
AcDbTrace
 10
-2200.036
 20
-2324.446
 30
0.0
 11
-2000.036
 21
-2324.446
 31
0.0
 12
-2200.036
 22
-1324.446
 32
0.0
 13
-2000.036
 23
-1324.446
 33
0.0
  0
SOLID
  5
BC
330
A
100
AcDbEntity
  8
SOLDERMASK_PADS_BTM
100
AcDbTrace
 10
-1800.036
 20
-2324.446
 30
0.0
 11
-1600.036
 21
-2324.446
 31
0.0
 12
-1800.036
 22
-1324.446
 32
0.0
 13
-1600.036
 23
-1324.446
 33
0.0
  0
SOLID
  5
BD
330
A
100
AcDbEntity
  8
SOLDERMASK_PADS_BTM
100
AcDbTrace
 10
-10960.182
 20
4876.847
 30
0.0
 11
-10760.182
 21
4876.847
 31
0.0
 12
-10960.182
 22
5026.847
 32
0.0
 13
-10760.182
 23
5026.847
 33
0.0
  0
SOLID
  5
BE
330
A
100
AcDbEntity
  8
SOLDERMASK_PADS_BTM
100
AcDbTrace
 10
-10960.182
 20
4546.846999999998
 30
0.0
 11
-10760.182
 21
4546.846999999998
 31
0.0
 12
-10960.182
 22
4696.846999999999
 32
0.0
 13
-10760.182
 23
4696.846999999999
 33
0.0
  0
SOLID
  5
BF
330
A
100
AcDbEntity
  8
SOLDERMASK_PADS_BTM
100
AcDbTrace
 10
6748.586999999999
 20
236.338
 30
0.0
 11
6948.586999999999
 21
236.338
 31
0.0
 12
6748.586999999999
 22
1236.338
 32
0.0
 13
6948.586999999999
 23
1236.338
 33
0.0
  0
SOLID
  5
C0
330
A
100
AcDbEntity
  8
SOLDERMASK_PADS_BTM
100
AcDbTrace
 10
6348.587
 20
236.338
 30
0.0
 11
6548.586999999999
 21
236.338
 31
0.0
 12
6348.587
 22
1236.338
 32
0.0
 13
6548.586999999999
 23
1236.338
 33
0.0
  0
SOLID
  5
C1
330
A
100
AcDbEntity
  8
SOLDERMASK_PADS_BTM
100
AcDbTrace
 10
-2675.837
 20
4938.29
 30
0.0
 11
-1675.837
 21
4938.29
 31
0.0
 12
-2675.837
 22
5138.29
 32
0.0
 13
-1675.837
 23
5138.29
 33
0.0
  0
SOLID
  5
C2
330
A
100
AcDbEntity
  8
SOLDERMASK_PADS_BTM
100
AcDbTrace
 10
-2675.837
 20
4538.289999999999
 30
0.0
 11
-1675.837
 21
4538.289999999999
 31
0.0
 12
-2675.837
 22
4738.29
 32
0.0
 13
-1675.837
 23
4738.29
 33
0.0
  0
SOLID
  5
C3
330
A
100
AcDbEntity
  8
SOLDERMASK_PADS_BTM
100
AcDbTrace
 10
-1413.37
 20
-4316.13
 30
0.0
 11
-913.3700000000001
 21
-4316.13
 31
0.0
 12
-1413.37
 22
-3940.13
 32
0.0
 13
-913.3700000000001
 23
-3940.13
 33
0.0
  0
SOLID
  5
C4
330
A
100
AcDbEntity
  8
SOLDERMASK_PADS_BTM
100
AcDbTrace
 10
-1413.37
 20
-3490.13
 30
0.0
 11
-913.3700000000001
 21
-3490.13
 31
0.0
 12
-1413.37
 22
-3114.13
 32
0.0
 13
-913.3700000000001
 23
-3114.13
 33
0.0
  0
SOLID
  5
C5
330
A
100
AcDbEntity
  8
SOLDERMASK_PADS_BTM
100
AcDbTrace
 10
-3425.837
 20
4546.846999999998
 30
0.0
 11
-3225.837
 21
4546.846999999998
 31
0.0
 12
-3425.837
 22
4696.846999999999
 32
0.0
 13
-3225.837
 23
4696.846999999999
 33
0.0
  0
SOLID
  5
C6
330
A
100
AcDbEntity
  8
SOLDERMASK_PADS_BTM
100
AcDbTrace
 10
-3425.837
 20
4876.847
 30
0.0
 11
-3225.837
 21
4876.847
 31
0.0
 12
-3425.837
 22
5026.847
 32
0.0
 13
-3225.837
 23
5026.847
 33
0.0
  0
SOLID
  5
C7
330
A
100
AcDbEntity
  8
SOLDERMASK_PADS_BTM
100
AcDbTrace
 10
6748.586999999999
 20
-1041.825
 30
0.0
 11
6948.586999999999
 21
-1041.825
 31
0.0
 12
6748.586999999999
 22
-41.825
 32
0.0
 13
6948.586999999999
 23
-41.825
 33
0.0
  0
SOLID
  5
C8
330
A
100
AcDbEntity
  8
SOLDERMASK_PADS_BTM
100
AcDbTrace
 10
6348.587
 20
-1041.825
 30
0.0
 11
6548.586999999999
 21
-1041.825
 31
0.0
 12
6348.587
 22
-41.825
 32
0.0
 13
6548.586999999999
 23
-41.825
 33
0.0
  0
SOLID
  5
C9
330
A
100
AcDbEntity
  8
SOLDERMASK_PADS_BTM
100
AcDbTrace
 10
-1413.37
 20
-2113.13
 30
0.0
 11
-913.3700000000001
 21
-2113.13
 31
0.0
 12
-1413.37
 22
-1737.13
 32
0.0
 13
-913.3700000000001
 23
-1737.13
 33
0.0
  0
SOLID
  5
CA
330
A
100
AcDbEntity
  8
SOLDERMASK_PADS_BTM
100
AcDbTrace
 10
-1413.37
 20
-2939.13
 30
0.0
 11
-913.3700000000001
 21
-2939.13
 31
0.0
 12
-1413.37
 22
-2563.130000000001
 32
0.0
 13
-913.3700000000001
 23
-2563.130000000001
 33
0.0
  0
SOLID
  5
CB
330
A
100
AcDbEntity
  8
SOLDERMASK_PADS_BTM
100
AcDbTrace
 10
6748.586999999999
 20
-2245.041
 30
0.0
 11
6948.586999999999
 21
-2245.041
 31
0.0
 12
6748.586999999999
 22
-1245.041
 32
0.0
 13
6948.586999999999
 23
-1245.041
 33
0.0
  0
SOLID
  5
CC
330
A
100
AcDbEntity
  8
SOLDERMASK_PADS_BTM
100
AcDbTrace
 10
6348.587
 20
-2245.041
 30
0.0
 11
6548.586999999999
 21
-2245.041
 31
0.0
 12
6348.587
 22
-1245.041
 32
0.0
 13
6548.586999999999
 23
-1245.041
 33
0.0
  0
SOLID
  5
CD
330
A
100
AcDbEntity
  8
SOLDERMASK_PADS_BTM
100
AcDbTrace
 10
6748.586999999999
 20
-3448.257
 30
0.0
 11
6948.586999999999
 21
-3448.257
 31
0.0
 12
6748.586999999999
 22
-2448.257
 32
0.0
 13
6948.586999999999
 23
-2448.257
 33
0.0
  0
SOLID
  5
CE
330
A
100
AcDbEntity
  8
SOLDERMASK_PADS_BTM
100
AcDbTrace
 10
6348.587
 20
-3448.257
 30
0.0
 11
6548.586999999999
 21
-3448.257
 31
0.0
 12
6348.587
 22
-2448.257
 32
0.0
 13
6548.586999999999
 23
-2448.257
 33
0.0
  0
SOLID
  5
CF
330
A
100
AcDbEntity
  8
SOLDERMASK_PADS_BTM
100
AcDbTrace
 10
6748.586999999999
 20
-6089.689
 30
0.0
 11
6948.586999999999
 21
-6089.689
 31
0.0
 12
6748.586999999999
 22
-5089.689
 32
0.0
 13
6948.586999999999
 23
-5089.689
 33
0.0
  0
SOLID
  5
D0
330
A
100
AcDbEntity
  8
SOLDERMASK_PADS_BTM
100
AcDbTrace
 10
6348.587
 20
-6089.689
 30
0.0
 11
6548.586999999999
 21
-6089.689
 31
0.0
 12
6348.587
 22
-5089.689
 32
0.0
 13
6548.586999999999
 23
-5089.689
 33
0.0
  0
SOLID
  5
D1
330
A
100
AcDbEntity
  8
SOLDERMASK_PADS_BTM
100
AcDbTrace
 10
6748.586999999999
 20
-4651.473
 30
0.0
 11
6948.586999999999
 21
-4651.473
 31
0.0
 12
6748.586999999999
 22
-3651.473
 32
0.0
 13
6948.586999999999
 23
-3651.473
 33
0.0
  0
SOLID
  5
D2
330
A
100
AcDbEntity
  8
SOLDERMASK_PADS_BTM
100
AcDbTrace
 10
6348.587
 20
-4651.473
 30
0.0
 11
6548.586999999999
 21
-4651.473
 31
0.0
 12
6348.587
 22
-3651.473
 32
0.0
 13
6548.586999999999
 23
-3651.473
 33
0.0
  0
SOLID
  5
D3
330
A
100
AcDbEntity
  8
SOLDERMASK_PADS_BTM
100
AcDbTrace
 10
-11419.925
 20
1590.648
 30
0.0
 11
-11219.925
 21
1590.648
 31
0.0
 12
-11419.925
 22
2590.648
 32
0.0
 13
-11219.925
 23
2590.648
 33
0.0
  0
SOLID
  5
D4
330
A
100
AcDbEntity
  8
SOLDERMASK_PADS_BTM
100
AcDbTrace
 10
-11819.925
 20
1590.648
 30
0.0
 11
-11619.925
 21
1590.648
 31
0.0
 12
-11819.925
 22
2590.648
 32
0.0
 13
-11619.925
 23
2590.648
 33
0.0
  0
SOLID
  5
D5
330
A
100
AcDbEntity
  8
SOLDERMASK_PADS_BTM
100
AcDbTrace
 10
-8694.924999999999
 20
-699.352
 30
0.0
 11
-8494.925
 21
-699.352
 31
0.0
 12
-8694.924999999999
 22
-549.352
 32
0.0
 13
-8494.925
 23
-549.352
 33
0.0
  0
SOLID
  5
D6
330
A
100
AcDbEntity
  8
SOLDERMASK_PADS_BTM
100
AcDbTrace
 10
-8694.924999999999
 20
-369.352
 30
0.0
 11
-8494.925
 21
-369.352
 31
0.0
 12
-8694.924999999999
 22
-219.352
 32
0.0
 13
-8494.925
 23
-219.352
 33
0.0
  0
SOLID
  5
D7
330
A
100
AcDbEntity
  8
SOLDERMASK_PADS_BTM
100
AcDbTrace
 10
-8246.700000000002
 20
-2446.18
 30
0.0
 11
-8046.699999999999
 21
-2446.18
 31
0.0
 12
-8246.700000000002
 22
-1446.18
 32
0.0
 13
-8046.699999999999
 23
-1446.18
 33
0.0
  0
SOLID
  5
D8
330
A
100
AcDbEntity
  8
SOLDERMASK_PADS_BTM
100
AcDbTrace
 10
-7846.7
 20
-2446.18
 30
0.0
 11
-7646.7
 21
-2446.18
 31
0.0
 12
-7846.7
 22
-1446.18
 32
0.0
 13
-7646.7
 23
-1446.18
 33
0.0
  0
SOLID
  5
D9
330
A
100
AcDbEntity
  8
SOLDERMASK_PADS_BTM
100
AcDbTrace
 10
-12594.925
 20
803.5999999999997
 30
0.0
 11
-12394.925
 21
803.5999999999997
 31
0.0
 12
-12594.925
 22
1803.6
 32
0.0
 13
-12394.925
 23
1803.6
 33
0.0
  0
SOLID
  5
DA
330
A
100
AcDbEntity
  8
SOLDERMASK_PADS_BTM
100
AcDbTrace
 10
-12194.925
 20
803.5999999999997
 30
0.0
 11
-11994.925
 21
803.5999999999997
 31
0.0
 12
-12194.925
 22
1803.6
 32
0.0
 13
-11994.925
 23
1803.6
 33
0.0
  0
SOLID
  5
DB
330
A
100
AcDbEntity
  8
SOLDERMASK_PADS_BTM
100
AcDbTrace
 10
-10812.497
 20
-4136.8
 30
0.0
 11
-10612.497
 21
-4136.8
 31
0.0
 12
-10812.497
 22
-3136.8
 32
0.0
 13
-10612.497
 23
-3136.8
 33
0.0
  0
SOLID
  5
DC
330
A
100
AcDbEntity
  8
SOLDERMASK_PADS_BTM
100
AcDbTrace
 10
-10412.497
 20
-4136.8
 30
0.0
 11
-10212.497
 21
-4136.8
 31
0.0
 12
-10412.497
 22
-3136.8
 32
0.0
 13
-10212.497
 23
-3136.8
 33
0.0
  0
SOLID
  5
DD
330
A
100
AcDbEntity
  8
SOLDERMASK_PADS_BTM
100
AcDbTrace
 10
-9821.700000000001
 20
-4911.8
 30
0.0
 11
-8821.700000000001
 21
-4911.8
 31
0.0
 12
-9821.700000000001
 22
-4711.8
 32
0.0
 13
-8821.700000000001
 23
-4711.8
 33
0.0
  0
SOLID
  5
DE
330
A
100
AcDbEntity
  8
SOLDERMASK_PADS_BTM
100
AcDbTrace
 10
-9821.700000000001
 20
-4511.8
 30
0.0
 11
-8821.700000000001
 21
-4511.8
 31
0.0
 12
-9821.700000000001
 22
-4311.8
 32
0.0
 13
-8821.700000000001
 23
-4311.8
 33
0.0
  0
SOLID
  5
DF
330
A
100
AcDbEntity
  8
SOLDERMASK_PADS_BTM
100
AcDbTrace
 10
10678.0
 20
4318.0
 30
0.0
 11
10878.0
 21
4318.0
 31
0.0
 12
10678.0
 22
5318.0
 32
0.0
 13
10878.0
 23
5318.0
 33
0.0
  0
SOLID
  5
E0
330
A
100
AcDbEntity
  8
SOLDERMASK_PADS_BTM
100
AcDbTrace
 10
10278.0
 20
4318.0
 30
0.0
 11
10478.0
 21
4318.0
 31
0.0
 12
10278.0
 22
5318.0
 32
0.0
 13
10478.0
 23
5318.0
 33
0.0
  0
SOLID
  5
E1
330
A
100
AcDbEntity
  8
SOLDERMASK_PADS_BTM
100
AcDbTrace
 10
-10545.992
 20
4988.29
 30
0.0
 11
-10345.992
 21
4988.29
 31
0.0
 12
-10545.992
 22
5138.29
 32
0.0
 13
-10345.992
 23
5138.29
 33
0.0
  0
SOLID
  5
E2
330
A
100
AcDbEntity
  8
SOLDERMASK_PADS_BTM
100
AcDbTrace
 10
-10545.992
 20
4658.29
 30
0.0
 11
-10345.992
 21
4658.29
 31
0.0
 12
-10545.992
 22
4808.29
 32
0.0
 13
-10345.992
 23
4808.29
 33
0.0
  0
SOLID
  5
E3
330
A
100
AcDbEntity
  8
SOLDERMASK_PADS_BTM
100
AcDbTrace
 10
-6401.706
 20
4988.29
 30
0.0
 11
-6201.706
 21
4988.29
 31
0.0
 12
-6401.706
 22
5138.29
 32
0.0
 13
-6201.706
 23
5138.29
 33
0.0
  0
SOLID
  5
E4
330
A
100
AcDbEntity
  8
SOLDERMASK_PADS_BTM
100
AcDbTrace
 10
-6401.706
 20
4658.29
 30
0.0
 11
-6201.706
 21
4658.29
 31
0.0
 12
-6401.706
 22
4808.29
 32
0.0
 13
-6201.706
 23
4808.29
 33
0.0
  0
SOLID
  5
E5
330
A
100
AcDbEntity
  8
SOLDERMASK_PADS_BTM
100
AcDbTrace
 10
46.49899999999998
 20
3314.808
 30
0.0
 11
246.499
 21
3314.808
 31
0.0
 12
46.49899999999998
 22
4314.808
 32
0.0
 13
246.499
 23
4314.808
 33
0.0
  0
SOLID
  5
E6
330
A
100
AcDbEntity
  8
SOLDERMASK_PADS_BTM
100
AcDbTrace
 10
446.499
 20
3314.808
 30
0.0
 11
646.499
 21
3314.808
 31
0.0
 12
446.499
 22
4314.808
 32
0.0
 13
646.499
 23
4314.808
 33
0.0
  0
SOLID
  5
E7
330
A
100
AcDbEntity
  8
SOLDERMASK_PADS_BTM
100
AcDbTrace
 10
48.29600000000001
 20
-4761.760999999999
 30
0.0
 11
248.296
 21
-4761.760999999999
 31
0.0
 12
48.29600000000001
 22
-3761.761
 32
0.0
 13
248.296
 23
-3761.761
 33
0.0
  0
SOLID
  5
E8
330
A
100
AcDbEntity
  8
SOLDERMASK_PADS_BTM
100
AcDbTrace
 10
448.296
 20
-4761.760999999999
 30
0.0
 11
648.2959999999998
 21
-4761.760999999999
 31
0.0
 12
448.296
 22
-3761.761
 32
0.0
 13
648.2959999999998
 23
-3761.761
 33
0.0
  0
SOLID
  5
E9
330
A
100
AcDbEntity
  8
SOLDERMASK_PADS_BTM
100
AcDbTrace
 10
-8024.497
 20
3801.861
 30
0.0
 11
-7648.496999999998
 21
3801.861
 31
0.0
 12
-8024.497
 22
4301.861
 32
0.0
 13
-7648.496999999998
 23
4301.861
 33
0.0
  0
SOLID
  5
EA
330
A
100
AcDbEntity
  8
SOLDERMASK_PADS_BTM
100
AcDbTrace
 10
-8850.497
 20
3801.861
 30
0.0
 11
-8474.496999999999
 21
3801.861
 31
0.0
 12
-8850.497
 22
4301.861
 32
0.0
 13
-8474.496999999999
 23
4301.861
 33
0.0
  0
SOLID
  5
EB
330
A
100
AcDbEntity
  8
SOLDERMASK_PADS_BTM
100
AcDbTrace
 10
821.4989999999996
 20
3314.808
 30
0.0
 11
1021.499
 21
3314.808
 31
0.0
 12
821.4989999999996
 22
4314.808
 32
0.0
 13
1021.499
 23
4314.808
 33
0.0
  0
SOLID
  5
EC
330
A
100
AcDbEntity
  8
SOLDERMASK_PADS_BTM
100
AcDbTrace
 10
1221.499
 20
3314.808
 30
0.0
 11
1421.499
 21
3314.808
 31
0.0
 12
1221.499
 22
4314.808
 32
0.0
 13
1421.499
 23
4314.808
 33
0.0
  0
SOLID
  5
ED
330
A
100
AcDbEntity
  8
SOLDERMASK_PADS_BTM
100
AcDbTrace
 10
823.296
 20
-4761.760999999999
 30
0.0
 11
1023.296
 21
-4761.760999999999
 31
0.0
 12
823.296
 22
-3761.761
 32
0.0
 13
1023.296
 23
-3761.761
 33
0.0
  0
SOLID
  5
EE
330
A
100
AcDbEntity
  8
SOLDERMASK_PADS_BTM
100
AcDbTrace
 10
1223.296
 20
-4761.760999999999
 30
0.0
 11
1423.296
 21
-4761.760999999999
 31
0.0
 12
1223.296
 22
-3761.761
 32
0.0
 13
1423.296
 23
-3761.761
 33
0.0
  0
SOLID
  5
EF
330
A
100
AcDbEntity
  8
SOLDERMASK_PADS_BTM
100
AcDbTrace
 10
-8024.497
 20
3126.861
 30
0.0
 11
-7648.496999999998
 21
3126.861
 31
0.0
 12
-8024.497
 22
3626.861
 32
0.0
 13
-7648.496999999998
 23
3626.861
 33
0.0
  0
SOLID
  5
F0
330
A
100
AcDbEntity
  8
SOLDERMASK_PADS_BTM
100
AcDbTrace
 10
-8850.497
 20
3126.861
 30
0.0
 11
-8474.496999999999
 21
3126.861
 31
0.0
 12
-8850.497
 22
3626.861
 32
0.0
 13
-8474.496999999999
 23
3626.861
 33
0.0
  0
SOLID
  5
F1
330
A
100
AcDbEntity
  8
SOLDERMASK_PADS_BTM
100
AcDbTrace
 10
1996.499
 20
3314.808
 30
0.0
 11
2196.499
 21
3314.808
 31
0.0
 12
1996.499
 22
4314.808
 32
0.0
 13
2196.499
 23
4314.808
 33
0.0
  0
SOLID
  5
F2
330
A
100
AcDbEntity
  8
SOLDERMASK_PADS_BTM
100
AcDbTrace
 10
1596.499
 20
3314.808
 30
0.0
 11
1796.499
 21
3314.808
 31
0.0
 12
1596.499
 22
4314.808
 32
0.0
 13
1796.499
 23
4314.808
 33
0.0
  0
SOLID
  5
F3
330
A
100
AcDbEntity
  8
SOLDERMASK_PADS_BTM
100
AcDbTrace
 10
1998.296
 20
-4761.760999999999
 30
0.0
 11
2198.296
 21
-4761.760999999999
 31
0.0
 12
1998.296
 22
-3761.761
 32
0.0
 13
2198.296
 23
-3761.761
 33
0.0
  0
SOLID
  5
F4
330
A
100
AcDbEntity
  8
SOLDERMASK_PADS_BTM
100
AcDbTrace
 10
1598.296
 20
-4761.760999999999
 30
0.0
 11
1798.296
 21
-4761.760999999999
 31
0.0
 12
1598.296
 22
-3761.761
 32
0.0
 13
1798.296
 23
-3761.761
 33
0.0
  0
SOLID
  5
F5
330
A
100
AcDbEntity
  8
SOLDERMASK_PADS_BTM
100
AcDbTrace
 10
-8024.497
 20
2451.861
 30
0.0
 11
-7648.496999999998
 21
2451.861
 31
0.0
 12
-8024.497
 22
2951.861
 32
0.0
 13
-7648.496999999998
 23
2951.861
 33
0.0
  0
SOLID
  5
F6
330
A
100
AcDbEntity
  8
SOLDERMASK_PADS_BTM
100
AcDbTrace
 10
-8850.497
 20
2451.861
 30
0.0
 11
-8474.496999999999
 21
2451.861
 31
0.0
 12
-8850.497
 22
2951.861
 32
0.0
 13
-8474.496999999999
 23
2951.861
 33
0.0
  0
SOLID
  5
F7
330
A
100
AcDbEntity
  8
SOLDERMASK_PADS_BTM
100
AcDbTrace
 10
2771.499
 20
3314.808
 30
0.0
 11
2971.499000000001
 21
3314.808
 31
0.0
 12
2771.499
 22
4314.808
 32
0.0
 13
2971.499000000001
 23
4314.808
 33
0.0
  0
SOLID
  5
F8
330
A
100
AcDbEntity
  8
SOLDERMASK_PADS_BTM
100
AcDbTrace
 10
2371.499
 20
3314.808
 30
0.0
 11
2571.499
 21
3314.808
 31
0.0
 12
2371.499
 22
4314.808
 32
0.0
 13
2571.499
 23
4314.808
 33
0.0
  0
SOLID
  5
F9
330
A
100
AcDbEntity
  8
SOLDERMASK_PADS_BTM
100
AcDbTrace
 10
2773.296
 20
-4761.760999999999
 30
0.0
 11
2973.296
 21
-4761.760999999999
 31
0.0
 12
2773.296
 22
-3761.761
 32
0.0
 13
2973.296
 23
-3761.761
 33
0.0
  0
SOLID
  5
FA
330
A
100
AcDbEntity
  8
SOLDERMASK_PADS_BTM
100
AcDbTrace
 10
2373.296
 20
-4761.760999999999
 30
0.0
 11
2573.296
 21
-4761.760999999999
 31
0.0
 12
2373.296
 22
-3761.761
 32
0.0
 13
2573.296
 23
-3761.761
 33
0.0
  0
SOLID
  5
FB
330
A
100
AcDbEntity
  8
SOLDERMASK_PADS_BTM
100
AcDbTrace
 10
-11439.925
 20
2765.648
 30
0.0
 11
-11289.925
 21
2765.648
 31
0.0
 12
-11439.925
 22
2965.648
 32
0.0
 13
-11289.925
 23
2965.648
 33
0.0
  0
SOLID
  5
FC
330
A
100
AcDbEntity
  8
SOLDERMASK_PADS_BTM
100
AcDbTrace
 10
-11769.925
 20
2765.648
 30
0.0
 11
-11619.925
 21
2765.648
 31
0.0
 12
-11769.925
 22
2965.648
 32
0.0
 13
-11619.925
 23
2965.648
 33
0.0
  0
SOLID
  5
FD
330
A
100
AcDbEntity
  8
SOLDERMASK_PADS_BTM
100
AcDbTrace
 10
-8024.497
 20
1776.861
 30
0.0
 11
-7648.496999999998
 21
1776.861
 31
0.0
 12
-8024.497
 22
2276.861
 32
0.0
 13
-7648.496999999998
 23
2276.861
 33
0.0
  0
SOLID
  5
FE
330
A
100
AcDbEntity
  8
SOLDERMASK_PADS_BTM
100
AcDbTrace
 10
-8850.497
 20
1776.861
 30
0.0
 11
-8474.496999999999
 21
1776.861
 31
0.0
 12
-8850.497
 22
2276.861
 32
0.0
 13
-8474.496999999999
 23
2276.861
 33
0.0
  0
SOLID
  5
FF
330
A
100
AcDbEntity
  8
SOLDERMASK_PADS_BTM
100
AcDbTrace
 10
-8124.278000000002
 20
-96.18000000000002
 30
0.0
 11
-7974.278000000001
 21
-96.18000000000002
 31
0.0
 12
-8124.278000000002
 22
103.82
 32
0.0
 13
-7974.278000000001
 23
103.82
 33
0.0
  0
SOLID
  5
100
330
A
100
AcDbEntity
  8
SOLDERMASK_PADS_BTM
100
AcDbTrace
 10
-7794.278
 20
-96.18000000000002
 30
0.0
 11
-7644.277999999999
 21
-96.18000000000002
 31
0.0
 12
-7794.278
 22
103.82
 32
0.0
 13
-7644.277999999999
 23
103.82
 33
0.0
  0
SOLID
  5
101
330
A
100
AcDbEntity
  8
SOLDERMASK_PADS_BTM
100
AcDbTrace
 10
46.49899999999998
 20
2139.808
 30
0.0
 11
246.499
 21
2139.808
 31
0.0
 12
46.49899999999998
 22
3139.808
 32
0.0
 13
246.499
 23
3139.808
 33
0.0
  0
SOLID
  5
102
330
A
100
AcDbEntity
  8
SOLDERMASK_PADS_BTM
100
AcDbTrace
 10
446.499
 20
2139.808
 30
0.0
 11
646.499
 21
2139.808
 31
0.0
 12
446.499
 22
3139.808
 32
0.0
 13
646.499
 23
3139.808
 33
0.0
  0
SOLID
  5
103
330
A
100
AcDbEntity
  8
SOLDERMASK_PADS_BTM
100
AcDbTrace
 10
48.29600000000001
 20
-3586.761
 30
0.0
 11
248.296
 21
-3586.761
 31
0.0
 12
48.29600000000001
 22
-2586.761
 32
0.0
 13
248.296
 23
-2586.761
 33
0.0
  0
SOLID
  5
104
330
A
100
AcDbEntity
  8
SOLDERMASK_PADS_BTM
100
AcDbTrace
 10
448.296
 20
-3586.761
 30
0.0
 11
648.2959999999998
 21
-3586.761
 31
0.0
 12
448.296
 22
-2586.761
 32
0.0
 13
648.2959999999998
 23
-2586.761
 33
0.0
  0
SOLID
  5
105
330
A
100
AcDbEntity
  8
SOLDERMASK_PADS_BTM
100
AcDbTrace
 10
-12594.925
 20
-371.4
 30
0.0
 11
-12394.925
 21
-371.4
 31
0.0
 12
-12594.925
 22
628.6
 32
0.0
 13
-12394.925
 23
628.6
 33
0.0
  0
SOLID
  5
106
330
A
100
AcDbEntity
  8
SOLDERMASK_PADS_BTM
100
AcDbTrace
 10
-12194.925
 20
-371.4
 30
0.0
 11
-11994.925
 21
-371.4
 31
0.0
 12
-12194.925
 22
628.6
 32
0.0
 13
-11994.925
 23
628.6
 33
0.0
  0
SOLID
  5
107
330
A
100
AcDbEntity
  8
SOLDERMASK_PADS_BTM
100
AcDbTrace
 10
-8646.7
 20
-4911.8
 30
0.0
 11
-7646.7
 21
-4911.8
 31
0.0
 12
-8646.7
 22
-4711.8
 32
0.0
 13
-7646.7
 23
-4711.8
 33
0.0
  0
SOLID
  5
108
330
A
100
AcDbEntity
  8
SOLDERMASK_PADS_BTM
100
AcDbTrace
 10
-8646.7
 20
-4511.8
 30
0.0
 11
-7646.7
 21
-4511.8
 31
0.0
 12
-8646.7
 22
-4311.8
 32
0.0
 13
-7646.7
 23
-4311.8
 33
0.0
  0
SOLID
  5
109
330
A
100
AcDbEntity
  8
SOLDERMASK_PADS_BTM
100
AcDbTrace
 10
821.4989999999996
 20
2139.808
 30
0.0
 11
1021.499
 21
2139.808
 31
0.0
 12
821.4989999999996
 22
3139.808
 32
0.0
 13
1021.499
 23
3139.808
 33
0.0
  0
SOLID
  5
10A
330
A
100
AcDbEntity
  8
SOLDERMASK_PADS_BTM
100
AcDbTrace
 10
1221.499
 20
2139.808
 30
0.0
 11
1421.499
 21
2139.808
 31
0.0
 12
1221.499
 22
3139.808
 32
0.0
 13
1421.499
 23
3139.808
 33
0.0
  0
SOLID
  5
10B
330
A
100
AcDbEntity
  8
SOLDERMASK_PADS_BTM
100
AcDbTrace
 10
823.296
 20
-3586.761
 30
0.0
 11
1023.296
 21
-3586.761
 31
0.0
 12
823.296
 22
-2586.761
 32
0.0
 13
1023.296
 23
-2586.761
 33
0.0
  0
SOLID
  5
10C
330
A
100
AcDbEntity
  8
SOLDERMASK_PADS_BTM
100
AcDbTrace
 10
1223.296
 20
-3586.761
 30
0.0
 11
1423.296
 21
-3586.761
 31
0.0
 12
1223.296
 22
-2586.761
 32
0.0
 13
1423.296
 23
-2586.761
 33
0.0
  0
SOLID
  5
10D
330
A
100
AcDbEntity
  8
SOLDERMASK_PADS_BTM
100
AcDbTrace
 10
-10131.802
 20
4876.847
 30
0.0
 11
-9931.802000000001
 21
4876.847
 31
0.0
 12
-10131.802
 22
5026.847
 32
0.0
 13
-9931.802000000001
 23
5026.847
 33
0.0
  0
SOLID
  5
10E
330
A
100
AcDbEntity
  8
SOLDERMASK_PADS_BTM
100
AcDbTrace
 10
-10131.802
 20
4546.846999999998
 30
0.0
 11
-9931.802000000001
 21
4546.846999999998
 31
0.0
 12
-10131.802
 22
4696.846999999999
 32
0.0
 13
-9931.802000000001
 23
4696.846999999999
 33
0.0
  0
SOLID
  5
10F
330
A
100
AcDbEntity
  8
SOLDERMASK_PADS_BTM
100
AcDbTrace
 10
-5997.033
 20
4876.847
 30
0.0
 11
-5797.033
 21
4876.847
 31
0.0
 12
-5997.033
 22
5026.847
 32
0.0
 13
-5797.033
 23
5026.847
 33
0.0
  0
SOLID
  5
110
330
A
100
AcDbEntity
  8
SOLDERMASK_PADS_BTM
100
AcDbTrace
 10
-5997.033
 20
4546.846999999998
 30
0.0
 11
-5797.033
 21
4546.846999999998
 31
0.0
 12
-5997.033
 22
4696.846999999999
 32
0.0
 13
-5797.033
 23
4696.846999999999
 33
0.0
  0
SOLID
  5
111
330
A
100
AcDbEntity
  8
SOLDERMASK_PADS_BTM
100
AcDbTrace
 10
1996.499
 20
2139.808
 30
0.0
 11
2196.499
 21
2139.808
 31
0.0
 12
1996.499
 22
3139.808
 32
0.0
 13
2196.499
 23
3139.808
 33
0.0
  0
SOLID
  5
112
330
A
100
AcDbEntity
  8
SOLDERMASK_PADS_BTM
100
AcDbTrace
 10
1596.499
 20
2139.808
 30
0.0
 11
1796.499
 21
2139.808
 31
0.0
 12
1596.499
 22
3139.808
 32
0.0
 13
1796.499
 23
3139.808
 33
0.0
  0
SOLID
  5
113
330
A
100
AcDbEntity
  8
SOLDERMASK_PADS_BTM
100
AcDbTrace
 10
1998.296
 20
-3586.761
 30
0.0
 11
2198.296
 21
-3586.761
 31
0.0
 12
1998.296
 22
-2586.761
 32
0.0
 13
2198.296
 23
-2586.761
 33
0.0
  0
SOLID
  5
114
330
A
100
AcDbEntity
  8
SOLDERMASK_PADS_BTM
100
AcDbTrace
 10
1598.296
 20
-3586.761
 30
0.0
 11
1798.296
 21
-3586.761
 31
0.0
 12
1598.296
 22
-2586.761
 32
0.0
 13
1798.296
 23
-2586.761
 33
0.0
  0
SOLID
  5
115
330
A
100
AcDbEntity
  8
SOLDERMASK_PADS_BTM
100
AcDbTrace
 10
2771.499
 20
2139.808
 30
0.0
 11
2971.499000000001
 21
2139.808
 31
0.0
 12
2771.499
 22
3139.808
 32
0.0
 13
2971.499000000001
 23
3139.808
 33
0.0
  0
SOLID
  5
116
330
A
100
AcDbEntity
  8
SOLDERMASK_PADS_BTM
100
AcDbTrace
 10
2371.499
 20
2139.808
 30
0.0
 11
2571.499
 21
2139.808
 31
0.0
 12
2371.499
 22
3139.808
 32
0.0
 13
2571.499
 23
3139.808
 33
0.0
  0
SOLID
  5
117
330
A
100
AcDbEntity
  8
SOLDERMASK_PADS_BTM
100
AcDbTrace
 10
2773.296
 20
-3586.761
 30
0.0
 11
2973.296
 21
-3586.761
 31
0.0
 12
2773.296
 22
-2586.761
 32
0.0
 13
2973.296
 23
-2586.761
 33
0.0
  0
SOLID
  5
118
330
A
100
AcDbEntity
  8
SOLDERMASK_PADS_BTM
100
AcDbTrace
 10
2373.296
 20
-3586.761
 30
0.0
 11
2573.296
 21
-3586.761
 31
0.0
 12
2373.296
 22
-2586.761
 32
0.0
 13
2573.296
 23
-2586.761
 33
0.0
  0
SOLID
  5
119
330
A
100
AcDbEntity
  8
SOLDERMASK_PADS_BTM
100
AcDbTrace
 10
1996.499
 20
964.808
 30
0.0
 11
2196.499
 21
964.808
 31
0.0
 12
1996.499
 22
1964.808
 32
0.0
 13
2196.499
 23
1964.808
 33
0.0
  0
SOLID
  5
11A
330
A
100
AcDbEntity
  8
SOLDERMASK_PADS_BTM
100
AcDbTrace
 10
1596.499
 20
964.808
 30
0.0
 11
1796.499
 21
964.808
 31
0.0
 12
1596.499
 22
1964.808
 32
0.0
 13
1796.499
 23
1964.808
 33
0.0
  0
SOLID
  5
11B
330
A
100
AcDbEntity
  8
SOLDERMASK_PADS_BTM
100
AcDbTrace
 10
46.49899999999998
 20
964.808
 30
0.0
 11
246.499
 21
964.808
 31
0.0
 12
46.49899999999998
 22
1964.808
 32
0.0
 13
246.499
 23
1964.808
 33
0.0
  0
SOLID
  5
11C
330
A
100
AcDbEntity
  8
SOLDERMASK_PADS_BTM
100
AcDbTrace
 10
446.499
 20
964.808
 30
0.0
 11
646.499
 21
964.808
 31
0.0
 12
446.499
 22
1964.808
 32
0.0
 13
646.499
 23
1964.808
 33
0.0
  0
SOLID
  5
11D
330
A
100
AcDbEntity
  8
SOLDERMASK_PADS_BTM
100
AcDbTrace
 10
1998.296
 20
-2411.761
 30
0.0
 11
2198.296
 21
-2411.761
 31
0.0
 12
1998.296
 22
-1411.761
 32
0.0
 13
2198.296
 23
-1411.761
 33
0.0
  0
SOLID
  5
11E
330
A
100
AcDbEntity
  8
SOLDERMASK_PADS_BTM
100
AcDbTrace
 10
1598.296
 20
-2411.761
 30
0.0
 11
1798.296
 21
-2411.761
 31
0.0
 12
1598.296
 22
-1411.761
 32
0.0
 13
1798.296
 23
-1411.761
 33
0.0
  0
SOLID
  5
11F
330
A
100
AcDbEntity
  8
SOLDERMASK_PADS_BTM
100
AcDbTrace
 10
48.29600000000001
 20
-2411.761
 30
0.0
 11
248.296
 21
-2411.761
 31
0.0
 12
48.29600000000001
 22
-1411.761
 32
0.0
 13
248.296
 23
-1411.761
 33
0.0
  0
SOLID
  5
120
330
A
100
AcDbEntity
  8
SOLDERMASK_PADS_BTM
100
AcDbTrace
 10
448.296
 20
-2411.761
 30
0.0
 11
648.2959999999998
 21
-2411.761
 31
0.0
 12
448.296
 22
-1411.761
 32
0.0
 13
648.2959999999998
 23
-1411.761
 33
0.0
  0
SOLID
  5
121
330
A
100
AcDbEntity
  8
SOLDERMASK_PADS_BTM
100
AcDbTrace
 10
2771.499
 20
964.808
 30
0.0
 11
2971.499000000001
 21
964.808
 31
0.0
 12
2771.499
 22
1964.808
 32
0.0
 13
2971.499000000001
 23
1964.808
 33
0.0
  0
SOLID
  5
122
330
A
100
AcDbEntity
  8
SOLDERMASK_PADS_BTM
100
AcDbTrace
 10
2371.499
 20
964.808
 30
0.0
 11
2571.499
 21
964.808
 31
0.0
 12
2371.499
 22
1964.808
 32
0.0
 13
2571.499
 23
1964.808
 33
0.0
  0
SOLID
  5
123
330
A
100
AcDbEntity
  8
SOLDERMASK_PADS_BTM
100
AcDbTrace
 10
821.4989999999996
 20
964.808
 30
0.0
 11
1021.499
 21
964.808
 31
0.0
 12
821.4989999999996
 22
1964.808
 32
0.0
 13
1021.499
 23
1964.808
 33
0.0
  0
SOLID
  5
124
330
A
100
AcDbEntity
  8
SOLDERMASK_PADS_BTM
100
AcDbTrace
 10
1221.499
 20
964.808
 30
0.0
 11
1421.499
 21
964.808
 31
0.0
 12
1221.499
 22
1964.808
 32
0.0
 13
1421.499
 23
1964.808
 33
0.0
  0
SOLID
  5
125
330
A
100
AcDbEntity
  8
SOLDERMASK_PADS_BTM
100
AcDbTrace
 10
2773.296
 20
-2411.761
 30
0.0
 11
2973.296
 21
-2411.761
 31
0.0
 12
2773.296
 22
-1411.761
 32
0.0
 13
2973.296
 23
-1411.761
 33
0.0
  0
SOLID
  5
126
330
A
100
AcDbEntity
  8
SOLDERMASK_PADS_BTM
100
AcDbTrace
 10
2373.296
 20
-2411.761
 30
0.0
 11
2573.296
 21
-2411.761
 31
0.0
 12
2373.296
 22
-1411.761
 32
0.0
 13
2573.296
 23
-1411.761
 33
0.0
  0
SOLID
  5
127
330
A
100
AcDbEntity
  8
SOLDERMASK_PADS_BTM
100
AcDbTrace
 10
823.296
 20
-2411.761
 30
0.0
 11
1023.296
 21
-2411.761
 31
0.0
 12
823.296
 22
-1411.761
 32
0.0
 13
1023.296
 23
-1411.761
 33
0.0
  0
SOLID
  5
128
330
A
100
AcDbEntity
  8
SOLDERMASK_PADS_BTM
100
AcDbTrace
 10
1223.296
 20
-2411.761
 30
0.0
 11
1423.296
 21
-2411.761
 31
0.0
 12
1223.296
 22
-1411.761
 32
0.0
 13
1423.296
 23
-1411.761
 33
0.0
  0
SOLID
  5
129
330
A
100
AcDbEntity
  8
SOLDERMASK_PADS_BTM
100
AcDbTrace
 10
3698.587
 20
261.338
 30
0.0
 11
3848.587
 21
261.338
 31
0.0
 12
3698.587
 22
461.338
 32
0.0
 13
3848.587
 23
461.338
 33
0.0
  0
SOLID
  5
12A
330
A
100
AcDbEntity
  8
SOLDERMASK_PADS_BTM
100
AcDbTrace
 10
3368.587
 20
261.338
 30
0.0
 11
3518.587
 21
261.338
 31
0.0
 12
3368.587
 22
461.338
 32
0.0
 13
3518.587
 23
461.338
 33
0.0
  0
SOLID
  5
12B
330
A
100
AcDbEntity
  8
SOLDERMASK_PADS_BTM
100
AcDbTrace
 10
3698.587
 20
-266.825
 30
0.0
 11
3848.587
 21
-266.825
 31
0.0
 12
3698.587
 22
-66.825
 32
0.0
 13
3848.587
 23
-66.825
 33
0.0
  0
SOLID
  5
12C
330
A
100
AcDbEntity
  8
SOLDERMASK_PADS_BTM
100
AcDbTrace
 10
3368.587
 20
-266.825
 30
0.0
 11
3518.587
 21
-266.825
 31
0.0
 12
3368.587
 22
-66.825
 32
0.0
 13
3518.587
 23
-66.825
 33
0.0
  0
SOLID
  5
12D
330
A
100
AcDbEntity
  8
SOLDERMASK_PADS_BTM
100
AcDbTrace
 10
-11819.925
 20
3140.648
 30
0.0
 11
-11619.925
 21
3140.648
 31
0.0
 12
-11819.925
 22
4140.648
 32
0.0
 13
-11619.925
 23
4140.648
 33
0.0
  0
SOLID
  5
12E
330
A
100
AcDbEntity
  8
SOLDERMASK_PADS_BTM
100
AcDbTrace
 10
-11419.925
 20
3140.648
 30
0.0
 11
-11219.925
 21
3140.648
 31
0.0
 12
-11419.925
 22
4140.648
 32
0.0
 13
-11219.925
 23
4140.648
 33
0.0
  0
SOLID
  5
12F
330
A
100
AcDbEntity
  8
SOLDERMASK_PADS_BTM
100
AcDbTrace
 10
3698.587
 20
-641.825
 30
0.0
 11
3848.587
 21
-641.825
 31
0.0
 12
3698.587
 22
-441.8249999999998
 32
0.0
 13
3848.587
 23
-441.8249999999998
 33
0.0
  0
SOLID
  5
130
330
A
100
AcDbEntity
  8
SOLDERMASK_PADS_BTM
100
AcDbTrace
 10
3368.587
 20
-641.825
 30
0.0
 11
3518.587
 21
-641.825
 31
0.0
 12
3368.587
 22
-441.8249999999998
 32
0.0
 13
3518.587
 23
-441.8249999999998
 33
0.0
  0
SOLID
  5
131
330
A
100
AcDbEntity
  8
SOLDERMASK_PADS_BTM
100
AcDbTrace
 10
-8124.278000000002
 20
278.82
 30
0.0
 11
-7974.278000000001
 21
278.82
 31
0.0
 12
-8124.278000000002
 22
478.8199999999998
 32
0.0
 13
-7974.278000000001
 23
478.8199999999998
 33
0.0
  0
SOLID
  5
132
330
A
100
AcDbEntity
  8
SOLDERMASK_PADS_BTM
100
AcDbTrace
 10
-7794.278
 20
278.82
 30
0.0
 11
-7644.277999999999
 21
278.82
 31
0.0
 12
-7794.278
 22
478.8199999999998
 32
0.0
 13
-7644.277999999999
 23
478.8199999999998
 33
0.0
  0
SOLID
  5
133
330
A
100
AcDbEntity
  8
SOLDERMASK_PADS_BTM
100
AcDbTrace
 10
-12594.925
 20
-1546.4
 30
0.0
 11
-12394.925
 21
-1546.4
 31
0.0
 12
-12594.925
 22
-546.3999999999998
 32
0.0
 13
-12394.925
 23
-546.3999999999998
 33
0.0
  0
SOLID
  5
134
330
A
100
AcDbEntity
  8
SOLDERMASK_PADS_BTM
100
AcDbTrace
 10
-12194.925
 20
-1546.4
 30
0.0
 11
-11994.925
 21
-1546.4
 31
0.0
 12
-12194.925
 22
-546.3999999999998
 32
0.0
 13
-11994.925
 23
-546.3999999999998
 33
0.0
  0
SOLID
  5
135
330
A
100
AcDbEntity
  8
SOLDERMASK_PADS_BTM
100
AcDbTrace
 10
3698.587
 20
-1016.825
 30
0.0
 11
3848.587
 21
-1016.825
 31
0.0
 12
3698.587
 22
-816.825
 32
0.0
 13
3848.587
 23
-816.825
 33
0.0
  0
SOLID
  5
136
330
A
100
AcDbEntity
  8
SOLDERMASK_PADS_BTM
100
AcDbTrace
 10
3368.587
 20
-1016.825
 30
0.0
 11
3518.587
 21
-1016.825
 31
0.0
 12
3368.587
 22
-816.825
 32
0.0
 13
3518.587
 23
-816.825
 33
0.0
  0
SOLID
  5
137
330
A
100
AcDbEntity
  8
SOLDERMASK_PADS_BTM
100
AcDbTrace
 10
-9672.599000000001
 20
4988.29
 30
0.0
 11
-9472.599
 21
4988.29
 31
0.0
 12
-9672.599000000001
 22
5138.29
 32
0.0
 13
-9472.599
 23
5138.29
 33
0.0
  0
SOLID
  5
138
330
A
100
AcDbEntity
  8
SOLDERMASK_PADS_BTM
100
AcDbTrace
 10
-9672.599000000001
 20
4658.29
 30
0.0
 11
-9472.599
 21
4658.29
 31
0.0
 12
-9672.599000000001
 22
4808.29
 32
0.0
 13
-9472.599
 23
4808.29
 33
0.0
  0
SOLID
  5
139
330
A
100
AcDbEntity
  8
SOLDERMASK_PADS_BTM
100
AcDbTrace
 10
-5609.978
 20
4988.29
 30
0.0
 11
-5409.978
 21
4988.29
 31
0.0
 12
-5609.978
 22
5138.29
 32
0.0
 13
-5409.978
 23
5138.29
 33
0.0
  0
SOLID
  5
13A
330
A
100
AcDbEntity
  8
SOLDERMASK_PADS_BTM
100
AcDbTrace
 10
-5609.978
 20
4658.29
 30
0.0
 11
-5409.978
 21
4658.29
 31
0.0
 12
-5609.978
 22
4808.29
 32
0.0
 13
-5409.978
 23
4808.29
 33
0.0
  0
SOLID
  5
13B
330
A
100
AcDbEntity
  8
SOLDERMASK_PADS_BTM
100
AcDbTrace
 10
4473.587000000001
 20
4620.986
 30
0.0
 11
4623.587
 21
4620.986
 31
0.0
 12
4473.587000000001
 22
4820.986
 32
0.0
 13
4623.587
 23
4820.986
 33
0.0
  0
SOLID
  5
13C
330
A
100
AcDbEntity
  8
SOLDERMASK_PADS_BTM
100
AcDbTrace
 10
4143.587000000001
 20
4620.986
 30
0.0
 11
4293.587000000001
 21
4620.986
 31
0.0
 12
4143.587000000001
 22
4820.986
 32
0.0
 13
4293.587000000001
 23
4820.986
 33
0.0
  0
SOLID
  5
13D
330
A
100
AcDbEntity
  8
SOLDERMASK_PADS_BTM
100
AcDbTrace
 10
4473.587000000001
 20
4245.986
 30
0.0
 11
4623.587
 21
4245.986
 31
0.0
 12
4473.587000000001
 22
4445.986
 32
0.0
 13
4623.587
 23
4445.986
 33
0.0
  0
SOLID
  5
13E
330
A
100
AcDbEntity
  8
SOLDERMASK_PADS_BTM
100
AcDbTrace
 10
4143.587000000001
 20
4245.986
 30
0.0
 11
4293.587000000001
 21
4245.986
 31
0.0
 12
4143.587000000001
 22
4445.986
 32
0.0
 13
4293.587000000001
 23
4445.986
 33
0.0
  0
SOLID
  5
13F
330
A
100
AcDbEntity
  8
SOLDERMASK_PADS_BTM
100
AcDbTrace
 10
4473.587000000001
 20
3870.986
 30
0.0
 11
4623.587
 21
3870.986
 31
0.0
 12
4473.587000000001
 22
4070.986
 32
0.0
 13
4623.587
 23
4070.986
 33
0.0
  0
SOLID
  5
140
330
A
100
AcDbEntity
  8
SOLDERMASK_PADS_BTM
100
AcDbTrace
 10
4143.587000000001
 20
3870.986
 30
0.0
 11
4293.587000000001
 21
3870.986
 31
0.0
 12
4143.587000000001
 22
4070.986
 32
0.0
 13
4293.587000000001
 23
4070.986
 33
0.0
  0
SOLID
  5
141
330
A
100
AcDbEntity
  8
SOLDERMASK_PADS_BTM
100
AcDbTrace
 10
4473.587000000001
 20
2667.77
 30
0.0
 11
4623.587
 21
2667.77
 31
0.0
 12
4473.587000000001
 22
2867.77
 32
0.0
 13
4623.587
 23
2867.77
 33
0.0
  0
SOLID
  5
142
330
A
100
AcDbEntity
  8
SOLDERMASK_PADS_BTM
100
AcDbTrace
 10
4143.587000000001
 20
2667.77
 30
0.0
 11
4293.587000000001
 21
2667.77
 31
0.0
 12
4143.587000000001
 22
2867.77
 32
0.0
 13
4293.587000000001
 23
2867.77
 33
0.0
  0
SOLID
  5
143
330
A
100
AcDbEntity
  8
SOLDERMASK_PADS_BTM
100
AcDbTrace
 10
4473.587000000001
 20
3417.77
 30
0.0
 11
4623.587
 21
3417.77
 31
0.0
 12
4473.587000000001
 22
3617.77
 32
0.0
 13
4623.587
 23
3617.77
 33
0.0
  0
SOLID
  5
144
330
A
100
AcDbEntity
  8
SOLDERMASK_PADS_BTM
100
AcDbTrace
 10
4143.587000000001
 20
3417.77
 30
0.0
 11
4293.587000000001
 21
3417.77
 31
0.0
 12
4143.587000000001
 22
3617.77
 32
0.0
 13
4293.587000000001
 23
3617.77
 33
0.0
  0
SOLID
  5
145
330
A
100
AcDbEntity
  8
SOLDERMASK_PADS_BTM
100
AcDbTrace
 10
4473.587000000001
 20
2214.554
 30
0.0
 11
4623.587
 21
2214.554
 31
0.0
 12
4473.587000000001
 22
2414.554
 32
0.0
 13
4623.587
 23
2414.554
 33
0.0
  0
SOLID
  5
146
330
A
100
AcDbEntity
  8
SOLDERMASK_PADS_BTM
100
AcDbTrace
 10
4143.587000000001
 20
2214.554
 30
0.0
 11
4293.587000000001
 21
2214.554
 31
0.0
 12
4143.587000000001
 22
2414.554
 32
0.0
 13
4293.587000000001
 23
2414.554
 33
0.0
  0
SOLID
  5
147
330
A
100
AcDbEntity
  8
SOLDERMASK_PADS_BTM
100
AcDbTrace
 10
4473.587000000001
 20
3042.77
 30
0.0
 11
4623.587
 21
3042.77
 31
0.0
 12
4473.587000000001
 22
3242.77
 32
0.0
 13
4623.587
 23
3242.77
 33
0.0
  0
SOLID
  5
148
330
A
100
AcDbEntity
  8
SOLDERMASK_PADS_BTM
100
AcDbTrace
 10
4143.587000000001
 20
3042.77
 30
0.0
 11
4293.587000000001
 21
3042.77
 31
0.0
 12
4143.587000000001
 22
3242.77
 32
0.0
 13
4293.587000000001
 23
3242.77
 33
0.0
  0
SOLID
  5
149
330
A
100
AcDbEntity
  8
SOLDERMASK_PADS_BTM
100
AcDbTrace
 10
4473.587000000001
 20
1839.554
 30
0.0
 11
4623.587
 21
1839.554
 31
0.0
 12
4473.587000000001
 22
2039.554
 32
0.0
 13
4623.587
 23
2039.554
 33
0.0
  0
SOLID
  5
14A
330
A
100
AcDbEntity
  8
SOLDERMASK_PADS_BTM
100
AcDbTrace
 10
4143.587000000001
 20
1839.554
 30
0.0
 11
4293.587000000001
 21
1839.554
 31
0.0
 12
4143.587000000001
 22
2039.554
 32
0.0
 13
4293.587000000001
 23
2039.554
 33
0.0
  0
SOLID
  5
14B
330
A
100
AcDbEntity
  8
SOLDERMASK_PADS_BTM
100
AcDbTrace
 10
4473.587000000001
 20
1464.554
 30
0.0
 11
4623.587
 21
1464.554
 31
0.0
 12
4473.587000000001
 22
1664.554
 32
0.0
 13
4623.587
 23
1664.554
 33
0.0
  0
SOLID
  5
14C
330
A
100
AcDbEntity
  8
SOLDERMASK_PADS_BTM
100
AcDbTrace
 10
4143.587000000001
 20
1464.554
 30
0.0
 11
4293.587000000001
 21
1464.554
 31
0.0
 12
4143.587000000001
 22
1664.554
 32
0.0
 13
4293.587000000001
 23
1664.554
 33
0.0
  0
SOLID
  5
14D
330
A
100
AcDbEntity
  8
SOLDERMASK_PADS_BTM
100
AcDbTrace
 10
-9213.395000000001
 20
4876.847
 30
0.0
 11
-9013.395
 21
4876.847
 31
0.0
 12
-9213.395000000001
 22
5026.847
 32
0.0
 13
-9013.395
 23
5026.847
 33
0.0
  0
SOLID
  5
14E
330
A
100
AcDbEntity
  8
SOLDERMASK_PADS_BTM
100
AcDbTrace
 10
-9213.395000000001
 20
4546.846999999998
 30
0.0
 11
-9013.395
 21
4546.846999999998
 31
0.0
 12
-9213.395000000001
 22
4696.846999999999
 32
0.0
 13
-9013.395
 23
4696.846999999999
 33
0.0
  0
SOLID
  5
14F
330
A
100
AcDbEntity
  8
SOLDERMASK_PADS_BTM
100
AcDbTrace
 10
-5222.923
 20
4876.847
 30
0.0
 11
-5022.923
 21
4876.847
 31
0.0
 12
-5222.923
 22
5026.847
 32
0.0
 13
-5022.923
 23
5026.847
 33
0.0
  0
SOLID
  5
150
330
A
100
AcDbEntity
  8
SOLDERMASK_PADS_BTM
100
AcDbTrace
 10
-5222.923
 20
4546.846999999998
 30
0.0
 11
-5022.923
 21
4546.846999999998
 31
0.0
 12
-5222.923
 22
4696.846999999999
 32
0.0
 13
-5022.923
 23
4696.846999999999
 33
0.0
  0
LWPOLYLINE
  5
155
330
A
100
AcDbEntity
  8
SOLDERMASK_PADS_BTM
100
AcDbPolyline
 90
        3
 70
     1
 43
0.0
 10
21930.0
 20
-17680.0
 10
21930.0
 20
-18180.0
 10
21430.0
 20
-18180.0
  0
HATCH
  5
156
330
A
100
AcDbEntity
  8
SOLDERMASK_PADS_BTM
100
AcDbHatch
 10
0.0
 20
0.0
 30
0.0
210
0.0
220
0.0
230
1.0
  2
SOLID
 70
     1
 71
     1
 91
        1
 92
        2
 72
     0
 73
     1
 93
        3
 10
21930.0
 20
-17680.0
 10
21930.0
 20
-18180.0
 10
21430.0
 20
-18180.0
 97
        1
330
341
 75
     0
 76
     1
 98
        1
 10
0.0
 20
0.0
450
        0
451
        0
460
0.0
461
0.0
452
        0
462
0.0
453
        0
470

  0
SOLID
  5
E9F
330
A
100
AcDbEntity
  8
SOLDERMASK_PADS_BTM
100
AcDbTrace
 10
10680.0
 20
3484.370999999999
 30
0.0
 11
10880.0
 21
3484.370999999999
 31
0.0
 12
10680.0
 22
3634.371
 32
0.0
 13
10880.0
 23
3634.371
 33
0.0
  0
SOLID
  5
EA0
330
A
100
AcDbEntity
  8
SOLDERMASK_PADS_BTM
100
AcDbTrace
 10
10680.0
 20
3814.371
 30
0.0
 11
10880.0
 21
3814.371
 31
0.0
 12
10680.0
 22
3964.371
 32
0.0
 13
10880.0
 23
3964.371
 33
0.0
  0
SOLID
  5
EA1
330
A
100
AcDbEntity
  8
SOLDERMASK_PADS_BTM
100
AcDbTrace
 10
-7071.699999999998
 20
-4728.814
 30
0.0
 11
-6871.7
 21
-4728.814
 31
0.0
 12
-7071.699999999998
 22
-3728.814000000002
 32
0.0
 13
-6871.7
 23
-3728.814000000002
 33
0.0
  0
SOLID
  5
EA2
330
A
100
AcDbEntity
  8
SOLDERMASK_PADS_BTM
100
AcDbTrace
 10
-7471.7
 20
-4728.814
 30
0.0
 11
-7271.7
 21
-4728.814
 31
0.0
 12
-7471.7
 22
-3728.814000000002
 32
0.0
 13
-7271.7
 23
-3728.814000000002
 33
0.0
  0
SOLID
  5
EA3
330
A
100
AcDbEntity
  8
SOLDERMASK_PADS_BTM
100
AcDbTrace
 10
7123.586999999999
 20
3845.986
 30
0.0
 11
7323.586999999999
 21
3845.986
 31
0.0
 12
7123.586999999999
 22
4845.985999999999
 32
0.0
 13
7323.586999999999
 23
4845.985999999999
 33
0.0
  0
SOLID
  5
EA4
330
A
100
AcDbEntity
  8
SOLDERMASK_PADS_BTM
100
AcDbTrace
 10
7523.586999999999
 20
3845.986
 30
0.0
 11
7723.586999999999
 21
3845.986
 31
0.0
 12
7523.586999999999
 22
4845.985999999999
 32
0.0
 13
7723.586999999999
 23
4845.985999999999
 33
0.0
  0
SOLID
  5
EA5
330
A
100
AcDbEntity
  8
SOLDERMASK_PADS_BTM
100
AcDbTrace
 10
-7073.496999999999
 20
3301.861000000001
 30
0.0
 11
-6873.496999999999
 21
3301.861000000001
 31
0.0
 12
-7073.496999999999
 22
4301.861
 32
0.0
 13
-6873.496999999999
 23
4301.861
 33
0.0
  0
SOLID
  5
EA6
330
A
100
AcDbEntity
  8
SOLDERMASK_PADS_BTM
100
AcDbTrace
 10
-7473.496999999999
 20
3301.861000000001
 30
0.0
 11
-7273.496999999998
 21
3301.861000000001
 31
0.0
 12
-7473.496999999999
 22
4301.861
 32
0.0
 13
-7273.496999999998
 23
4301.861
 33
0.0
  0
SOLID
  5
EA7
330
A
100
AcDbEntity
  8
SOLDERMASK_PADS_BTM
100
AcDbTrace
 10
10880.0
 20
789.4589999999998
 30
0.0
 11
11030.0
 21
789.4589999999998
 31
0.0
 12
10880.0
 22
989.4589999999999
 32
0.0
 13
11030.0
 23
989.4589999999999
 33
0.0
  0
SOLID
  5
EA8
330
A
100
AcDbEntity
  8
SOLDERMASK_PADS_BTM
100
AcDbTrace
 10
10550.0
 20
789.4589999999998
 30
0.0
 11
10700.0
 21
789.4589999999998
 31
0.0
 12
10550.0
 22
989.4589999999999
 32
0.0
 13
10700.0
 23
989.4589999999999
 33
0.0
  0
SOLID
  5
EA9
330
A
100
AcDbEntity
  8
SOLDERMASK_PADS_BTM
100
AcDbTrace
 10
-7071.699999999998
 20
-3526.63
 30
0.0
 11
-6871.7
 21
-3526.63
 31
0.0
 12
-7071.699999999998
 22
-2526.63
 32
0.0
 13
-6871.7
 23
-2526.63
 33
0.0
  0
SOLID
  5
EAA
330
A
100
AcDbEntity
  8
SOLDERMASK_PADS_BTM
100
AcDbTrace
 10
-7471.7
 20
-3526.63
 30
0.0
 11
-7271.7
 21
-3526.63
 31
0.0
 12
-7471.7
 22
-2526.63
 32
0.0
 13
-7271.7
 23
-2526.63
 33
0.0
  0
SOLID
  5
EAB
330
A
100
AcDbEntity
  8
SOLDERMASK_PADS_BTM
100
AcDbTrace
 10
7123.586999999999
 20
2642.77
 30
0.0
 11
7323.586999999999
 21
2642.77
 31
0.0
 12
7123.586999999999
 22
3642.77
 32
0.0
 13
7323.586999999999
 23
3642.77
 33
0.0
  0
SOLID
  5
EAC
330
A
100
AcDbEntity
  8
SOLDERMASK_PADS_BTM
100
AcDbTrace
 10
7523.586999999999
 20
2642.77
 30
0.0
 11
7723.586999999999
 21
2642.77
 31
0.0
 12
7523.586999999999
 22
3642.77
 32
0.0
 13
7723.586999999999
 23
3642.77
 33
0.0
  0
SOLID
  5
EAD
330
A
100
AcDbEntity
  8
SOLDERMASK_PADS_BTM
100
AcDbTrace
 10
-7073.496999999999
 20
2099.677
 30
0.0
 11
-6873.496999999999
 21
2099.677
 31
0.0
 12
-7073.496999999999
 22
3099.677
 32
0.0
 13
-6873.496999999999
 23
3099.677
 33
0.0
  0
SOLID
  5
EAE
330
A
100
AcDbEntity
  8
SOLDERMASK_PADS_BTM
100
AcDbTrace
 10
-7473.496999999999
 20
2099.677
 30
0.0
 11
-7273.496999999998
 21
2099.677
 31
0.0
 12
-7473.496999999999
 22
3099.677
 32
0.0
 13
-7273.496999999998
 23
3099.677
 33
0.0
  0
SOLID
  5
EAF
330
A
100
AcDbEntity
  8
SOLDERMASK_PADS_BTM
100
AcDbTrace
 10
-7071.699999999998
 20
-2324.446
 30
0.0
 11
-6871.7
 21
-2324.446
 31
0.0
 12
-7071.699999999998
 22
-1324.446
 32
0.0
 13
-6871.7
 23
-1324.446
 33
0.0
  0
SOLID
  5
EB0
330
A
100
AcDbEntity
  8
SOLDERMASK_PADS_BTM
100
AcDbTrace
 10
-7471.7
 20
-2324.446
 30
0.0
 11
-7271.7
 21
-2324.446
 31
0.0
 12
-7471.7
 22
-1324.446
 32
0.0
 13
-7271.7
 23
-1324.446
 33
0.0
  0
SOLID
  5
EB1
330
A
100
AcDbEntity
  8
SOLDERMASK_PADS_BTM
100
AcDbTrace
 10
7123.586999999999
 20
1439.554
 30
0.0
 11
7323.586999999999
 21
1439.554
 31
0.0
 12
7123.586999999999
 22
2439.554
 32
0.0
 13
7323.586999999999
 23
2439.554
 33
0.0
  0
SOLID
  5
EB2
330
A
100
AcDbEntity
  8
SOLDERMASK_PADS_BTM
100
AcDbTrace
 10
7523.586999999999
 20
1439.554
 30
0.0
 11
7723.586999999999
 21
1439.554
 31
0.0
 12
7523.586999999999
 22
2439.554
 32
0.0
 13
7723.586999999999
 23
2439.554
 33
0.0
  0
SOLID
  5
EB3
330
A
100
AcDbEntity
  8
SOLDERMASK_PADS_BTM
100
AcDbTrace
 10
-7073.496999999999
 20
897.493
 30
0.0
 11
-6873.496999999999
 21
897.493
 31
0.0
 12
-7073.496999999999
 22
1897.493
 32
0.0
 13
-6873.496999999999
 23
1897.493
 33
0.0
  0
SOLID
  5
EB4
330
A
100
AcDbEntity
  8
SOLDERMASK_PADS_BTM
100
AcDbTrace
 10
-7473.496999999999
 20
897.493
 30
0.0
 11
-7273.496999999998
 21
897.493
 31
0.0
 12
-7473.496999999999
 22
1897.493
 32
0.0
 13
-7273.496999999998
 23
1897.493
 33
0.0
  0
SOLID
  5
EB5
330
A
100
AcDbEntity
  8
SOLDERMASK_PADS_BTM
100
AcDbTrace
 10
10880.0
 20
239.947
 30
0.0
 11
11030.0
 21
239.947
 31
0.0
 12
10880.0
 22
439.9469999999998
 32
0.0
 13
11030.0
 23
439.9469999999998
 33
0.0
  0
SOLID
  5
EB6
330
A
100
AcDbEntity
  8
SOLDERMASK_PADS_BTM
100
AcDbTrace
 10
10550.0
 20
239.947
 30
0.0
 11
10700.0
 21
239.947
 31
0.0
 12
10550.0
 22
439.9469999999998
 32
0.0
 13
10700.0
 23
439.9469999999998
 33
0.0
  0
SOLID
  5
EB7
330
A
100
AcDbEntity
  8
SOLDERMASK_PADS_BTM
100
AcDbTrace
 10
1130.906
 20
211.524
 30
0.0
 11
1506.906
 21
211.524
 31
0.0
 12
1130.906
 22
711.5239999999999
 32
0.0
 13
1506.906
 23
711.5239999999999
 33
0.0
  0
SOLID
  5
EB8
330
A
100
AcDbEntity
  8
SOLDERMASK_PADS_BTM
100
AcDbTrace
 10
304.906
 20
211.524
 30
0.0
 11
680.906
 21
211.524
 31
0.0
 12
304.906
 22
711.5239999999999
 32
0.0
 13
680.906
 23
711.5239999999999
 33
0.0
  0
SOLID
  5
EB9
330
A
100
AcDbEntity
  8
SOLDERMASK_PADS_BTM
100
AcDbTrace
 10
3648.587
 20
636.3380000000002
 30
0.0
 11
3848.587
 21
636.3380000000002
 31
0.0
 12
3648.587
 22
1636.338
 32
0.0
 13
3848.587
 23
1636.338
 33
0.0
  0
SOLID
  5
EBA
330
A
100
AcDbEntity
  8
SOLDERMASK_PADS_BTM
100
AcDbTrace
 10
3248.587
 20
636.3380000000002
 30
0.0
 11
3448.587
 21
636.3380000000002
 31
0.0
 12
3248.587
 22
1636.338
 32
0.0
 13
3448.587
 23
1636.338
 33
0.0
  0
SOLID
  5
EBB
330
A
100
AcDbEntity
  8
SOLDERMASK_PADS_BTM
100
AcDbTrace
 10
7123.586999999999
 20
236.338
 30
0.0
 11
7323.586999999999
 21
236.338
 31
0.0
 12
7123.586999999999
 22
1236.338
 32
0.0
 13
7323.586999999999
 23
1236.338
 33
0.0
  0
SOLID
  5
EBC
330
A
100
AcDbEntity
  8
SOLDERMASK_PADS_BTM
100
AcDbTrace
 10
7523.586999999999
 20
236.338
 30
0.0
 11
7723.586999999999
 21
236.338
 31
0.0
 12
7523.586999999999
 22
1236.338
 32
0.0
 13
7723.586999999999
 23
1236.338
 33
0.0
  0
SOLID
  5
EBD
330
A
100
AcDbEntity
  8
SOLDERMASK_PADS_BTM
100
AcDbTrace
 10
-4825.165
 20
3301.861000000001
 30
0.0
 11
-4625.164999999999
 21
3301.861000000001
 31
0.0
 12
-4825.165
 22
4301.861
 32
0.0
 13
-4625.164999999999
 23
4301.861
 33
0.0
  0
SOLID
  5
EBE
330
A
100
AcDbEntity
  8
SOLDERMASK_PADS_BTM
100
AcDbTrace
 10
-5225.165
 20
3301.861000000001
 30
0.0
 11
-5025.165
 21
3301.861000000001
 31
0.0
 12
-5225.165
 22
4301.861
 32
0.0
 13
-5025.165
 23
4301.861
 33
0.0
  0
SOLID
  5
EBF
330
A
100
AcDbEntity
  8
SOLDERMASK_PADS_BTM
100
AcDbTrace
 10
1130.906
 20
-463.4759999999998
 30
0.0
 11
1506.906
 21
-463.4759999999998
 31
0.0
 12
1130.906
 22
36.524
 32
0.0
 13
1506.906
 23
36.524
 33
0.0
  0
SOLID
  5
EC0
330
A
100
AcDbEntity
  8
SOLDERMASK_PADS_BTM
100
AcDbTrace
 10
304.906
 20
-463.4759999999998
 30
0.0
 11
680.906
 21
-463.4759999999998
 31
0.0
 12
304.906
 22
36.524
 32
0.0
 13
680.906
 23
36.524
 33
0.0
  0
SOLID
  5
EC1
330
A
100
AcDbEntity
  8
SOLDERMASK_PADS_BTM
100
AcDbTrace
 10
7123.586999999999
 20
-1041.825
 30
0.0
 11
7323.586999999999
 21
-1041.825
 31
0.0
 12
7123.586999999999
 22
-41.825
 32
0.0
 13
7323.586999999999
 23
-41.825
 33
0.0
  0
SOLID
  5
EC2
330
A
100
AcDbEntity
  8
SOLDERMASK_PADS_BTM
100
AcDbTrace
 10
7523.586999999999
 20
-1041.825
 30
0.0
 11
7723.586999999999
 21
-1041.825
 31
0.0
 12
7523.586999999999
 22
-41.825
 32
0.0
 13
7723.586999999999
 23
-41.825
 33
0.0
  0
SOLID
  5
EC3
330
A
100
AcDbEntity
  8
SOLDERMASK_PADS_BTM
100
AcDbTrace
 10
-4825.165
 20
2099.677
 30
0.0
 11
-4625.164999999999
 21
2099.677
 31
0.0
 12
-4825.165
 22
3099.677
 32
0.0
 13
-4625.164999999999
 23
3099.677
 33
0.0
  0
SOLID
  5
EC4
330
A
100
AcDbEntity
  8
SOLDERMASK_PADS_BTM
100
AcDbTrace
 10
-5225.165
 20
2099.677
 30
0.0
 11
-5025.165
 21
2099.677
 31
0.0
 12
-5225.165
 22
3099.677
 32
0.0
 13
-5025.165
 23
3099.677
 33
0.0
  0
SOLID
  5
EC5
330
A
100
AcDbEntity
  8
SOLDERMASK_PADS_BTM
100
AcDbTrace
 10
1130.906
 20
-1138.476
 30
0.0
 11
1506.906
 21
-1138.476
 31
0.0
 12
1130.906
 22
-638.4759999999999
 32
0.0
 13
1506.906
 23
-638.4759999999999
 33
0.0
  0
SOLID
  5
EC6
330
A
100
AcDbEntity
  8
SOLDERMASK_PADS_BTM
100
AcDbTrace
 10
304.906
 20
-1138.476
 30
0.0
 11
680.906
 21
-1138.476
 31
0.0
 12
304.906
 22
-638.4759999999999
 32
0.0
 13
680.906
 23
-638.4759999999999
 33
0.0
  0
SOLID
  5
EC7
330
A
100
AcDbEntity
  8
SOLDERMASK_PADS_BTM
100
AcDbTrace
 10
3648.587
 20
-2245.041
 30
0.0
 11
3848.587
 21
-2245.041
 31
0.0
 12
3648.587
 22
-1245.041
 32
0.0
 13
3848.587
 23
-1245.041
 33
0.0
  0
SOLID
  5
EC8
330
A
100
AcDbEntity
  8
SOLDERMASK_PADS_BTM
100
AcDbTrace
 10
3248.587
 20
-2245.041
 30
0.0
 11
3448.587
 21
-2245.041
 31
0.0
 12
3248.587
 22
-1245.041
 32
0.0
 13
3448.587
 23
-1245.041
 33
0.0
  0
SOLID
  5
EC9
330
A
100
AcDbEntity
  8
SOLDERMASK_PADS_BTM
100
AcDbTrace
 10
7123.586999999999
 20
-2245.041
 30
0.0
 11
7323.586999999999
 21
-2245.041
 31
0.0
 12
7123.586999999999
 22
-1245.041
 32
0.0
 13
7323.586999999999
 23
-1245.041
 33
0.0
  0
SOLID
  5
ECA
330
A
100
AcDbEntity
  8
SOLDERMASK_PADS_BTM
100
AcDbTrace
 10
7523.586999999999
 20
-2245.041
 30
0.0
 11
7723.586999999999
 21
-2245.041
 31
0.0
 12
7523.586999999999
 22
-1245.041
 32
0.0
 13
7723.586999999999
 23
-1245.041
 33
0.0
  0
SOLID
  5
ECB
330
A
100
AcDbEntity
  8
SOLDERMASK_PADS_BTM
100
AcDbTrace
 10
-4825.165
 20
897.493
 30
0.0
 11
-4625.164999999999
 21
897.493
 31
0.0
 12
-4825.165
 22
1897.493
 32
0.0
 13
-4625.164999999999
 23
1897.493
 33
0.0
  0
SOLID
  5
ECC
330
A
100
AcDbEntity
  8
SOLDERMASK_PADS_BTM
100
AcDbTrace
 10
-5225.165
 20
897.493
 30
0.0
 11
-5025.165
 21
897.493
 31
0.0
 12
-5225.165
 22
1897.493
 32
0.0
 13
-5025.165
 23
1897.493
 33
0.0
  0
SOLID
  5
ECD
330
A
100
AcDbEntity
  8
SOLDERMASK_PADS_BTM
100
AcDbTrace
 10
-8817.47
 20
4988.29
 30
0.0
 11
-8617.47
 21
4988.29
 31
0.0
 12
-8817.47
 22
5138.29
 32
0.0
 13
-8617.47
 23
5138.29
 33
0.0
  0
SOLID
  5
ECE
330
A
100
AcDbEntity
  8
SOLDERMASK_PADS_BTM
100
AcDbTrace
 10
-8817.47
 20
4658.29
 30
0.0
 11
-8617.47
 21
4658.29
 31
0.0
 12
-8817.47
 22
4808.29
 32
0.0
 13
-8617.47
 23
4808.29
 33
0.0
  0
SOLID
  5
ECF
330
A
100
AcDbEntity
  8
SOLDERMASK_PADS_BTM
100
AcDbTrace
 10
-4773.583999999998
 20
4988.29
 30
0.0
 11
-4573.583999999999
 21
4988.29
 31
0.0
 12
-4773.583999999998
 22
5138.29
 32
0.0
 13
-4573.583999999999
 23
5138.29
 33
0.0
  0
SOLID
  5
ED0
330
A
100
AcDbEntity
  8
SOLDERMASK_PADS_BTM
100
AcDbTrace
 10
-4773.583999999998
 20
4658.29
 30
0.0
 11
-4573.583999999999
 21
4658.29
 31
0.0
 12
-4773.583999999998
 22
4808.29
 32
0.0
 13
-4573.583999999999
 23
4808.29
 33
0.0
  0
SOLID
  5
ED1
330
A
100
AcDbEntity
  8
SOLDERMASK_PADS_BTM
100
AcDbTrace
 10
3648.587
 20
-3448.257
 30
0.0
 11
3848.587
 21
-3448.257
 31
0.0
 12
3648.587
 22
-2448.257
 32
0.0
 13
3848.587
 23
-2448.257
 33
0.0
  0
SOLID
  5
ED2
330
A
100
AcDbEntity
  8
SOLDERMASK_PADS_BTM
100
AcDbTrace
 10
3248.587
 20
-3448.257
 30
0.0
 11
3448.587
 21
-3448.257
 31
0.0
 12
3248.587
 22
-2448.257
 32
0.0
 13
3448.587
 23
-2448.257
 33
0.0
  0
SOLID
  5
ED3
330
A
100
AcDbEntity
  8
SOLDERMASK_PADS_BTM
100
AcDbTrace
 10
7123.586999999999
 20
-3448.257
 30
0.0
 11
7323.586999999999
 21
-3448.257
 31
0.0
 12
7123.586999999999
 22
-2448.257
 32
0.0
 13
7323.586999999999
 23
-2448.257
 33
0.0
  0
SOLID
  5
ED4
330
A
100
AcDbEntity
  8
SOLDERMASK_PADS_BTM
100
AcDbTrace
 10
7523.586999999999
 20
-3448.257
 30
0.0
 11
7723.586999999999
 21
-3448.257
 31
0.0
 12
7523.586999999999
 22
-2448.257
 32
0.0
 13
7723.586999999999
 23
-2448.257
 33
0.0
  0
SOLID
  5
ED5
330
A
100
AcDbEntity
  8
SOLDERMASK_PADS_BTM
100
AcDbTrace
 10
-6698.496999999999
 20
3301.861000000001
 30
0.0
 11
-6498.496999999999
 21
3301.861000000001
 31
0.0
 12
-6698.496999999999
 22
4301.861
 32
0.0
 13
-6498.496999999999
 23
4301.861
 33
0.0
  0
SOLID
  5
ED6
330
A
100
AcDbEntity
  8
SOLDERMASK_PADS_BTM
100
AcDbTrace
 10
-6298.497
 20
3301.861000000001
 30
0.0
 11
-6098.497
 21
3301.861000000001
 31
0.0
 12
-6298.497
 22
4301.861
 32
0.0
 13
-6098.497
 23
4301.861
 33
0.0
  0
SOLID
  5
ED7
330
A
100
AcDbEntity
  8
SOLDERMASK_PADS_BTM
100
AcDbTrace
 10
3648.587
 20
-4651.473
 30
0.0
 11
3848.587
 21
-4651.473
 31
0.0
 12
3648.587
 22
-3651.473
 32
0.0
 13
3848.587
 23
-3651.473
 33
0.0
  0
SOLID
  5
ED8
330
A
100
AcDbEntity
  8
SOLDERMASK_PADS_BTM
100
AcDbTrace
 10
3248.587
 20
-4651.473
 30
0.0
 11
3448.587
 21
-4651.473
 31
0.0
 12
3248.587
 22
-3651.473
 32
0.0
 13
3448.587
 23
-3651.473
 33
0.0
  0
SOLID
  5
ED9
330
A
100
AcDbEntity
  8
SOLDERMASK_PADS_BTM
100
AcDbTrace
 10
7123.586999999999
 20
-4651.473
 30
0.0
 11
7323.586999999999
 21
-4651.473
 31
0.0
 12
7123.586999999999
 22
-3651.473
 32
0.0
 13
7323.586999999999
 23
-3651.473
 33
0.0
  0
SOLID
  5
EDA
330
A
100
AcDbEntity
  8
SOLDERMASK_PADS_BTM
100
AcDbTrace
 10
7523.586999999999
 20
-4651.473
 30
0.0
 11
7723.586999999999
 21
-4651.473
 31
0.0
 12
7523.586999999999
 22
-3651.473
 32
0.0
 13
7723.586999999999
 23
-3651.473
 33
0.0
  0
SOLID
  5
EDB
330
A
100
AcDbEntity
  8
SOLDERMASK_PADS_BTM
100
AcDbTrace
 10
-5911.831
 20
3513.177000000001
 30
0.0
 11
-5411.831
 21
3513.177000000001
 31
0.0
 12
-5911.831
 22
3889.177
 32
0.0
 13
-5411.831
 23
3889.177
 33
0.0
  0
SOLID
  5
EDC
330
A
100
AcDbEntity
  8
SOLDERMASK_PADS_BTM
100
AcDbTrace
 10
-5911.831
 20
2687.177
 30
0.0
 11
-5411.831
 21
2687.177
 31
0.0
 12
-5911.831
 22
3063.177
 32
0.0
 13
-5411.831
 23
3063.177
 33
0.0
  0
SOLID
  5
EDD
330
A
100
AcDbEntity
  8
SOLDERMASK_PADS_BTM
100
AcDbTrace
 10
-6698.496999999999
 20
2099.677
 30
0.0
 11
-6498.496999999999
 21
2099.677
 31
0.0
 12
-6698.496999999999
 22
3099.677
 32
0.0
 13
-6498.496999999999
 23
3099.677
 33
0.0
  0
SOLID
  5
EDE
330
A
100
AcDbEntity
  8
SOLDERMASK_PADS_BTM
100
AcDbTrace
 10
-6298.497
 20
2099.677
 30
0.0
 11
-6098.497
 21
2099.677
 31
0.0
 12
-6298.497
 22
3099.677
 32
0.0
 13
-6098.497
 23
3099.677
 33
0.0
  0
SOLID
  5
EDF
330
A
100
AcDbEntity
  8
SOLDERMASK_PADS_BTM
100
AcDbTrace
 10
-4823.367999999998
 20
-4728.814
 30
0.0
 11
-4623.367999999998
 21
-4728.814
 31
0.0
 12
-4823.367999999998
 22
-3728.814000000002
 32
0.0
 13
-4623.367999999998
 23
-3728.814000000002
 33
0.0
  0
SOLID
  5
EE0
330
A
100
AcDbEntity
  8
SOLDERMASK_PADS_BTM
100
AcDbTrace
 10
-5223.367999999998
 20
-4728.814
 30
0.0
 11
-5023.367999999998
 21
-4728.814
 31
0.0
 12
-5223.367999999998
 22
-3728.814000000002
 32
0.0
 13
-5023.367999999998
 23
-3728.814000000002
 33
0.0
  0
SOLID
  5
EE1
330
A
100
AcDbEntity
  8
SOLDERMASK_PADS_BTM
100
AcDbTrace
 10
-1879.844
 20
-463.4759999999998
 30
0.0
 11
-1503.844
 21
-463.4759999999998
 31
0.0
 12
-1879.844
 22
36.524
 32
0.0
 13
-1503.844
 23
36.524
 33
0.0
  0
SOLID
  5
EE2
330
A
100
AcDbEntity
  8
SOLDERMASK_PADS_BTM
100
AcDbTrace
 10
-2705.844
 20
-463.4759999999998
 30
0.0
 11
-2329.844
 21
-463.4759999999998
 31
0.0
 12
-2705.844
 22
36.524
 32
0.0
 13
-2329.844
 23
36.524
 33
0.0
  0
SOLID
  5
EE3
330
A
100
AcDbEntity
  8
SOLDERMASK_PADS_BTM
100
AcDbTrace
 10
-5911.831
 20
1310.177
 30
0.0
 11
-5411.831
 21
1310.177
 31
0.0
 12
-5911.831
 22
1686.177
 32
0.0
 13
-5411.831
 23
1686.177
 33
0.0
  0
SOLID
  5
EE4
330
A
100
AcDbEntity
  8
SOLDERMASK_PADS_BTM
100
AcDbTrace
 10
-5911.831
 20
2136.177
 30
0.0
 11
-5411.831
 21
2136.177
 31
0.0
 12
-5911.831
 22
2512.177
 32
0.0
 13
-5411.831
 23
2512.177
 33
0.0
  0
SOLID
  5
EE5
330
A
100
AcDbEntity
  8
SOLDERMASK_PADS_BTM
100
AcDbTrace
 10
-6698.496999999999
 20
897.493
 30
0.0
 11
-6498.496999999999
 21
897.493
 31
0.0
 12
-6698.496999999999
 22
1897.493
 32
0.0
 13
-6498.496999999999
 23
1897.493
 33
0.0
  0
SOLID
  5
EE6
330
A
100
AcDbEntity
  8
SOLDERMASK_PADS_BTM
100
AcDbTrace
 10
-6298.497
 20
897.493
 30
0.0
 11
-6098.497
 21
897.493
 31
0.0
 12
-6298.497
 22
1897.493
 32
0.0
 13
-6098.497
 23
1897.493
 33
0.0
  0
SOLID
  5
EE7
330
A
100
AcDbEntity
  8
SOLDERMASK_PADS_BTM
100
AcDbTrace
 10
7898.586999999999
 20
3771.99
 30
0.0
 11
8048.586999999999
 21
3771.99
 31
0.0
 12
7898.586999999999
 22
3971.99
 32
0.0
 13
8048.586999999999
 23
3971.99
 33
0.0
  0
SOLID
  5
EE8
330
A
100
AcDbEntity
  8
SOLDERMASK_PADS_BTM
100
AcDbTrace
 10
8228.587
 20
3771.99
 30
0.0
 11
8378.587000000001
 21
3771.99
 31
0.0
 12
8228.587
 22
3971.99
 32
0.0
 13
8378.587000000001
 23
3971.99
 33
0.0
  0
SOLID
  5
EE9
330
A
100
AcDbEntity
  8
SOLDERMASK_PADS_BTM
100
AcDbTrace
 10
10880.0
 20
-135.053
 30
0.0
 11
11030.0
 21
-135.053
 31
0.0
 12
10880.0
 22
64.947
 32
0.0
 13
11030.0
 23
64.947
 33
0.0
  0
SOLID
  5
EEA
330
A
100
AcDbEntity
  8
SOLDERMASK_PADS_BTM
100
AcDbTrace
 10
10550.0
 20
-135.053
 30
0.0
 11
10700.0
 21
-135.053
 31
0.0
 12
10550.0
 22
64.947
 32
0.0
 13
10700.0
 23
64.947
 33
0.0
  0
SOLID
  5
EEB
330
A
100
AcDbEntity
  8
SOLDERMASK_PADS_BTM
100
AcDbTrace
 10
-4823.367999999998
 20
-3526.63
 30
0.0
 11
-4623.367999999998
 21
-3526.63
 31
0.0
 12
-4823.367999999998
 22
-2526.63
 32
0.0
 13
-4623.367999999998
 23
-2526.63
 33
0.0
  0
SOLID
  5
EEC
330
A
100
AcDbEntity
  8
SOLDERMASK_PADS_BTM
100
AcDbTrace
 10
-5223.367999999998
 20
-3526.63
 30
0.0
 11
-5023.367999999998
 21
-3526.63
 31
0.0
 12
-5223.367999999998
 22
-2526.63
 32
0.0
 13
-5023.367999999998
 23
-2526.63
 33
0.0
  0
SOLID
  5
EED
330
A
100
AcDbEntity
  8
SOLDERMASK_PADS_BTM
100
AcDbTrace
 10
-1879.844
 20
-1138.476
 30
0.0
 11
-1503.844
 21
-1138.476
 31
0.0
 12
-1879.844
 22
-638.4759999999999
 32
0.0
 13
-1503.844
 23
-638.4759999999999
 33
0.0
  0
SOLID
  5
EEE
330
A
100
AcDbEntity
  8
SOLDERMASK_PADS_BTM
100
AcDbTrace
 10
-2705.844
 20
-1138.476
 30
0.0
 11
-2329.844
 21
-1138.476
 31
0.0
 12
-2705.844
 22
-638.4759999999999
 32
0.0
 13
-2329.844
 23
-638.4759999999999
 33
0.0
  0
SOLID
  5
EEF
330
A
100
AcDbEntity
  8
SOLDERMASK_PADS_BTM
100
AcDbTrace
 10
-1879.844
 20
211.524
 30
0.0
 11
-1503.844
 21
211.524
 31
0.0
 12
-1879.844
 22
711.5239999999999
 32
0.0
 13
-1503.844
 23
711.5239999999999
 33
0.0
  0
SOLID
  5
EF0
330
A
100
AcDbEntity
  8
SOLDERMASK_PADS_BTM
100
AcDbTrace
 10
-2705.844
 20
211.524
 30
0.0
 11
-2329.844
 21
211.524
 31
0.0
 12
-2705.844
 22
711.5239999999999
 32
0.0
 13
-2329.844
 23
711.5239999999999
 33
0.0
  0
SOLID
  5
EF1
330
A
100
AcDbEntity
  8
SOLDERMASK_PADS_BTM
100
AcDbTrace
 10
4423.587
 20
236.338
 30
0.0
 11
4623.587
 21
236.338
 31
0.0
 12
4423.587
 22
1236.338
 32
0.0
 13
4623.587
 23
1236.338
 33
0.0
  0
SOLID
  5
EF2
330
A
100
AcDbEntity
  8
SOLDERMASK_PADS_BTM
100
AcDbTrace
 10
4023.587
 20
236.338
 30
0.0
 11
4223.587000000001
 21
236.338
 31
0.0
 12
4023.587
 22
1236.338
 32
0.0
 13
4223.587000000001
 23
1236.338
 33
0.0
  0
SOLID
  5
EF3
330
A
100
AcDbEntity
  8
SOLDERMASK_PADS_BTM
100
AcDbTrace
 10
-2576.833000000001
 20
3301.861000000001
 30
0.0
 11
-2376.833
 21
3301.861000000001
 31
0.0
 12
-2576.833000000001
 22
4301.861
 32
0.0
 13
-2376.833
 23
4301.861
 33
0.0
  0
SOLID
  5
EF4
330
A
100
AcDbEntity
  8
SOLDERMASK_PADS_BTM
100
AcDbTrace
 10
-2976.833
 20
3301.861000000001
 30
0.0
 11
-2776.833
 21
3301.861000000001
 31
0.0
 12
-2976.833
 22
4301.861
 32
0.0
 13
-2776.833
 23
4301.861
 33
0.0
  0
SOLID
  5
EF5
330
A
100
AcDbEntity
  8
SOLDERMASK_PADS_BTM
100
AcDbTrace
 10
7898.586999999999
 20
3396.99
 30
0.0
 11
8048.586999999999
 21
3396.99
 31
0.0
 12
7898.586999999999
 22
3596.99
 32
0.0
 13
8048.586999999999
 23
3596.99
 33
0.0
  0
SOLID
  5
EF6
330
A
100
AcDbEntity
  8
SOLDERMASK_PADS_BTM
100
AcDbTrace
 10
8228.587
 20
3396.99
 30
0.0
 11
8378.587000000001
 21
3396.99
 31
0.0
 12
8228.587
 22
3596.99
 32
0.0
 13
8378.587000000001
 23
3596.99
 33
0.0
  0
SOLID
  5
EF7
330
A
100
AcDbEntity
  8
SOLDERMASK_PADS_BTM
100
AcDbTrace
 10
-4823.367999999998
 20
-2324.446
 30
0.0
 11
-4623.367999999998
 21
-2324.446
 31
0.0
 12
-4823.367999999998
 22
-1324.446
 32
0.0
 13
-4623.367999999998
 23
-1324.446
 33
0.0
  0
SOLID
  5
EF8
330
A
100
AcDbEntity
  8
SOLDERMASK_PADS_BTM
100
AcDbTrace
 10
-5223.367999999998
 20
-2324.446
 30
0.0
 11
-5023.367999999998
 21
-2324.446
 31
0.0
 12
-5223.367999999998
 22
-1324.446
 32
0.0
 13
-5023.367999999998
 23
-1324.446
 33
0.0
  0
SOLID
  5
EF9
330
A
100
AcDbEntity
  8
SOLDERMASK_PADS_BTM
100
AcDbTrace
 10
-3256.844
 20
211.524
 30
0.0
 11
-2880.844
 21
211.524
 31
0.0
 12
-3256.844
 22
711.5239999999999
 32
0.0
 13
-2880.844
 23
711.5239999999999
 33
0.0
  0
SOLID
  5
EFA
330
A
100
AcDbEntity
  8
SOLDERMASK_PADS_BTM
100
AcDbTrace
 10
-4082.844
 20
211.524
 30
0.0
 11
-3706.844
 21
211.524
 31
0.0
 12
-4082.844
 22
711.5239999999999
 32
0.0
 13
-3706.844
 23
711.5239999999999
 33
0.0
  0
SOLID
  5
EFB
330
A
100
AcDbEntity
  8
SOLDERMASK_PADS_BTM
100
AcDbTrace
 10
4423.587
 20
-1041.825
 30
0.0
 11
4623.587
 21
-1041.825
 31
0.0
 12
4423.587
 22
-41.825
 32
0.0
 13
4623.587
 23
-41.825
 33
0.0
  0
SOLID
  5
EFC
330
A
100
AcDbEntity
  8
SOLDERMASK_PADS_BTM
100
AcDbTrace
 10
4023.587
 20
-1041.825
 30
0.0
 11
4223.587000000001
 21
-1041.825
 31
0.0
 12
4023.587
 22
-41.825
 32
0.0
 13
4223.587000000001
 23
-41.825
 33
0.0
  0
SOLID
  5
EFD
330
A
100
AcDbEntity
  8
SOLDERMASK_PADS_BTM
100
AcDbTrace
 10
-2576.833000000001
 20
2099.677
 30
0.0
 11
-2376.833
 21
2099.677
 31
0.0
 12
-2576.833000000001
 22
3099.677
 32
0.0
 13
-2376.833
 23
3099.677
 33
0.0
  0
SOLID
  5
EFE
330
A
100
AcDbEntity
  8
SOLDERMASK_PADS_BTM
100
AcDbTrace
 10
-2976.833
 20
2099.677
 30
0.0
 11
-2776.833
 21
2099.677
 31
0.0
 12
-2976.833
 22
3099.677
 32
0.0
 13
-2776.833
 23
3099.677
 33
0.0
  0
SOLID
  5
EFF
330
A
100
AcDbEntity
  8
SOLDERMASK_PADS_BTM
100
AcDbTrace
 10
7898.586999999999
 20
3021.99
 30
0.0
 11
8048.586999999999
 21
3021.99
 31
0.0
 12
7898.586999999999
 22
3221.99
 32
0.0
 13
8048.586999999999
 23
3221.99
 33
0.0
  0
SOLID
  5
F00
330
A
100
AcDbEntity
  8
SOLDERMASK_PADS_BTM
100
AcDbTrace
 10
8228.587
 20
3021.99
 30
0.0
 11
8378.587000000001
 21
3021.99
 31
0.0
 12
8228.587
 22
3221.99
 32
0.0
 13
8378.587000000001
 23
3221.99
 33
0.0
  0
SOLID
  5
F01
330
A
100
AcDbEntity
  8
SOLDERMASK_PADS_BTM
100
AcDbTrace
 10
10880.0
 20
-510.053
 30
0.0
 11
11030.0
 21
-510.053
 31
0.0
 12
10880.0
 22
-310.053
 32
0.0
 13
11030.0
 23
-310.053
 33
0.0
  0
SOLID
  5
F02
330
A
100
AcDbEntity
  8
SOLDERMASK_PADS_BTM
100
AcDbTrace
 10
10550.0
 20
-510.053
 30
0.0
 11
10700.0
 21
-510.053
 31
0.0
 12
10550.0
 22
-310.053
 32
0.0
 13
10700.0
 23
-310.053
 33
0.0
  0
SOLID
  5
F03
330
A
100
AcDbEntity
  8
SOLDERMASK_PADS_BTM
100
AcDbTrace
 10
9822.205
 20
3484.370999999999
 30
0.0
 11
10022.205
 21
3484.370999999999
 31
0.0
 12
9822.205
 22
3634.371
 32
0.0
 13
10022.205
 23
3634.371
 33
0.0
  0
SOLID
  5
F04
330
A
100
AcDbEntity
  8
SOLDERMASK_PADS_BTM
100
AcDbTrace
 10
9822.205
 20
3814.371
 30
0.0
 11
10022.205
 21
3814.371
 31
0.0
 12
9822.205
 22
3964.371
 32
0.0
 13
10022.205
 23
3964.371
 33
0.0
  0
SOLID
  5
F05
330
A
100
AcDbEntity
  8
SOLDERMASK_PADS_BTM
100
AcDbTrace
 10
-6696.699999999998
 20
-4728.814
 30
0.0
 11
-6496.7
 21
-4728.814
 31
0.0
 12
-6696.699999999998
 22
-3728.814000000002
 32
0.0
 13
-6496.7
 23
-3728.814000000002
 33
0.0
  0
SOLID
  5
F06
330
A
100
AcDbEntity
  8
SOLDERMASK_PADS_BTM
100
AcDbTrace
 10
-6296.7
 20
-4728.814
 30
0.0
 11
-6096.7
 21
-4728.814
 31
0.0
 12
-6296.7
 22
-3728.814000000002
 32
0.0
 13
-6096.7
 23
-3728.814000000002
 33
0.0
  0
SOLID
  5
F07
330
A
100
AcDbEntity
  8
SOLDERMASK_PADS_BTM
100
AcDbTrace
 10
-3256.844
 20
-463.4759999999998
 30
0.0
 11
-2880.844
 21
-463.4759999999998
 31
0.0
 12
-3256.844
 22
36.524
 32
0.0
 13
-2880.844
 23
36.524
 33
0.0
  0
SOLID
  5
F08
330
A
100
AcDbEntity
  8
SOLDERMASK_PADS_BTM
100
AcDbTrace
 10
-4082.844
 20
-463.4759999999998
 30
0.0
 11
-3706.844
 21
-463.4759999999998
 31
0.0
 12
-4082.844
 22
36.524
 32
0.0
 13
-3706.844
 23
36.524
 33
0.0
  0
SOLID
  5
F09
330
A
100
AcDbEntity
  8
SOLDERMASK_PADS_BTM
100
AcDbTrace
 10
4423.587
 20
-2245.041
 30
0.0
 11
4623.587
 21
-2245.041
 31
0.0
 12
4423.587
 22
-1245.041
 32
0.0
 13
4623.587
 23
-1245.041
 33
0.0
  0
SOLID
  5
F0A
330
A
100
AcDbEntity
  8
SOLDERMASK_PADS_BTM
100
AcDbTrace
 10
4023.587
 20
-2245.041
 30
0.0
 11
4223.587000000001
 21
-2245.041
 31
0.0
 12
4023.587
 22
-1245.041
 32
0.0
 13
4223.587000000001
 23
-1245.041
 33
0.0
  0
SOLID
  5
F0B
330
A
100
AcDbEntity
  8
SOLDERMASK_PADS_BTM
100
AcDbTrace
 10
-2576.833000000001
 20
897.493
 30
0.0
 11
-2376.833
 21
897.493
 31
0.0
 12
-2576.833000000001
 22
1897.493
 32
0.0
 13
-2376.833
 23
1897.493
 33
0.0
  0
SOLID
  5
F0C
330
A
100
AcDbEntity
  8
SOLDERMASK_PADS_BTM
100
AcDbTrace
 10
-2976.833
 20
897.493
 30
0.0
 11
-2776.833
 21
897.493
 31
0.0
 12
-2976.833
 22
1897.493
 32
0.0
 13
-2776.833
 23
1897.493
 33
0.0
  0
SOLID
  5
F0D
330
A
100
AcDbEntity
  8
SOLDERMASK_PADS_BTM
100
AcDbTrace
 10
7898.586999999999
 20
-3891.473
 30
0.0
 11
8048.586999999999
 21
-3891.473
 31
0.0
 12
7898.586999999999
 22
-3691.473
 32
0.0
 13
8048.586999999999
 23
-3691.473
 33
0.0
  0
SOLID
  5
F0E
330
A
100
AcDbEntity
  8
SOLDERMASK_PADS_BTM
100
AcDbTrace
 10
8228.587
 20
-3891.473
 30
0.0
 11
8378.587000000001
 21
-3891.473
 31
0.0
 12
8228.587
 22
-3691.473
 32
0.0
 13
8378.587000000001
 23
-3691.473
 33
0.0
  0
SOLID
  5
F0F
330
A
100
AcDbEntity
  8
SOLDERMASK_PADS_BTM
100
AcDbTrace
 10
8243.289000000002
 20
1698.503
 30
0.0
 11
8443.289000000001
 21
1698.503
 31
0.0
 12
8243.289000000002
 22
2698.503
 32
0.0
 13
8443.289000000001
 23
2698.503
 33
0.0
  0
SOLID
  5
F10
330
A
100
AcDbEntity
  8
SOLDERMASK_PADS_BTM
100
AcDbTrace
 10
8643.289000000001
 20
1698.503
 30
0.0
 11
8843.289000000003
 21
1698.503
 31
0.0
 12
8643.289000000001
 22
2698.503
 32
0.0
 13
8843.289000000003
 23
2698.503
 33
0.0
  0
SOLID
  5
F11
330
A
100
AcDbEntity
  8
SOLDERMASK_PADS_BTM
100
AcDbTrace
 10
-6696.699999999998
 20
-3526.63
 30
0.0
 11
-6496.7
 21
-3526.63
 31
0.0
 12
-6696.699999999998
 22
-2526.63
 32
0.0
 13
-6496.7
 23
-2526.63
 33
0.0
  0
SOLID
  5
F12
330
A
100
AcDbEntity
  8
SOLDERMASK_PADS_BTM
100
AcDbTrace
 10
-6296.7
 20
-3526.63
 30
0.0
 11
-6096.7
 21
-3526.63
 31
0.0
 12
-6296.7
 22
-2526.63
 32
0.0
 13
-6096.7
 23
-2526.63
 33
0.0
  0
SOLID
  5
F13
330
A
100
AcDbEntity
  8
SOLDERMASK_PADS_BTM
100
AcDbTrace
 10
8570.613000000001
 20
-2273.257
 30
0.0
 11
8720.613000000001
 21
-2273.257
 31
0.0
 12
8570.613000000001
 22
-2073.257
 32
0.0
 13
8720.613000000001
 23
-2073.257
 33
0.0
  0
SOLID
  5
F14
330
A
100
AcDbEntity
  8
SOLDERMASK_PADS_BTM
100
AcDbTrace
 10
8240.613000000001
 20
-2273.257
 30
0.0
 11
8390.613000000001
 21
-2273.257
 31
0.0
 12
8240.613000000001
 22
-2073.257
 32
0.0
 13
8390.613000000001
 23
-2073.257
 33
0.0
  0
SOLID
  5
F15
330
A
100
AcDbEntity
  8
SOLDERMASK_PADS_BTM
100
AcDbTrace
 10
-3256.844
 20
-1138.476
 30
0.0
 11
-2880.844
 21
-1138.476
 31
0.0
 12
-3256.844
 22
-638.4759999999999
 32
0.0
 13
-2880.844
 23
-638.4759999999999
 33
0.0
  0
SOLID
  5
F16
330
A
100
AcDbEntity
  8
SOLDERMASK_PADS_BTM
100
AcDbTrace
 10
-4082.844
 20
-1138.476
 30
0.0
 11
-3706.844
 21
-1138.476
 31
0.0
 12
-4082.844
 22
-638.4759999999999
 32
0.0
 13
-3706.844
 23
-638.4759999999999
 33
0.0
  0
SOLID
  5
F17
330
A
100
AcDbEntity
  8
SOLDERMASK_PADS_BTM
100
AcDbTrace
 10
8590.613000000002
 20
-3448.257
 30
0.0
 11
8790.613000000004
 21
-3448.257
 31
0.0
 12
8590.613000000002
 22
-2448.257
 32
0.0
 13
8790.613000000004
 23
-2448.257
 33
0.0
  0
SOLID
  5
F18
330
A
100
AcDbEntity
  8
SOLDERMASK_PADS_BTM
100
AcDbTrace
 10
8190.613
 20
-3448.257
 30
0.0
 11
8390.613000000001
 21
-3448.257
 31
0.0
 12
8190.613
 22
-2448.257
 32
0.0
 13
8390.613000000001
 23
-2448.257
 33
0.0
  0
SOLID
  5
F19
330
A
100
AcDbEntity
  8
SOLDERMASK_PADS_BTM
100
AcDbTrace
 10
4423.587
 20
-3448.257
 30
0.0
 11
4623.587
 21
-3448.257
 31
0.0
 12
4423.587
 22
-2448.257
 32
0.0
 13
4623.587
 23
-2448.257
 33
0.0
  0
SOLID
  5
F1A
330
A
100
AcDbEntity
  8
SOLDERMASK_PADS_BTM
100
AcDbTrace
 10
4023.587
 20
-3448.257
 30
0.0
 11
4223.587000000001
 21
-3448.257
 31
0.0
 12
4023.587
 22
-2448.257
 32
0.0
 13
4223.587000000001
 23
-2448.257
 33
0.0
  0
SOLID
  5
F1B
330
A
100
AcDbEntity
  8
SOLDERMASK_PADS_BTM
100
AcDbTrace
 10
-11017.51
 20
4101.861
 30
0.0
 11
-10867.51
 21
4101.861
 31
0.0
 12
-11017.51
 22
4301.861
 32
0.0
 13
-10867.51
 23
4301.861
 33
0.0
  0
SOLID
  5
F1C
330
A
100
AcDbEntity
  8
SOLDERMASK_PADS_BTM
100
AcDbTrace
 10
-10687.51
 20
4101.861
 30
0.0
 11
-10537.51
 21
4101.861
 31
0.0
 12
-10687.51
 22
4301.861
 32
0.0
 13
-10537.51
 23
4301.861
 33
0.0
  0
SOLID
  5
F1D
330
A
100
AcDbEntity
  8
SOLDERMASK_PADS_BTM
100
AcDbTrace
 10
-4450.165
 20
3301.861000000001
 30
0.0
 11
-4250.164999999999
 21
3301.861000000001
 31
0.0
 12
-4450.165
 22
4301.861
 32
0.0
 13
-4250.164999999999
 23
4301.861
 33
0.0
  0
SOLID
  5
F1E
330
A
100
AcDbEntity
  8
SOLDERMASK_PADS_BTM
100
AcDbTrace
 10
-4050.164999999998
 20
3301.861000000001
 30
0.0
 11
-3850.165
 21
3301.861000000001
 31
0.0
 12
-4050.164999999998
 22
4301.861
 32
0.0
 13
-3850.165
 23
4301.861
 33
0.0
  0
SOLID
  5
F1F
330
A
100
AcDbEntity
  8
SOLDERMASK_PADS_BTM
100
AcDbTrace
 10
7898.586999999999
 20
-4266.473
 30
0.0
 11
8048.586999999999
 21
-4266.473
 31
0.0
 12
7898.586999999999
 22
-4066.473
 32
0.0
 13
8048.586999999999
 23
-4066.473
 33
0.0
  0
SOLID
  5
F20
330
A
100
AcDbEntity
  8
SOLDERMASK_PADS_BTM
100
AcDbTrace
 10
8228.587
 20
-4266.473
 30
0.0
 11
8378.587000000001
 21
-4266.473
 31
0.0
 12
8228.587
 22
-4066.473
 32
0.0
 13
8378.587000000001
 23
-4066.473
 33
0.0
  0
SOLID
  5
F21
330
A
100
AcDbEntity
  8
SOLDERMASK_PADS_BTM
100
AcDbTrace
 10
-6696.699999999998
 20
-2324.446
 30
0.0
 11
-6496.7
 21
-2324.446
 31
0.0
 12
-6696.699999999998
 22
-1324.446
 32
0.0
 13
-6496.7
 23
-1324.446
 33
0.0
  0
SOLID
  5
F22
330
A
100
AcDbEntity
  8
SOLDERMASK_PADS_BTM
100
AcDbTrace
 10
-6296.7
 20
-2324.446
 30
0.0
 11
-6096.7
 21
-2324.446
 31
0.0
 12
-6296.7
 22
-1324.446
 32
0.0
 13
-6096.7
 23
-1324.446
 33
0.0
  0
SOLID
  5
F23
330
A
100
AcDbEntity
  8
SOLDERMASK_PADS_BTM
100
AcDbTrace
 10
4423.587
 20
-4651.473
 30
0.0
 11
4623.587
 21
-4651.473
 31
0.0
 12
4423.587
 22
-3651.473
 32
0.0
 13
4623.587
 23
-3651.473
 33
0.0
  0
SOLID
  5
F24
330
A
100
AcDbEntity
  8
SOLDERMASK_PADS_BTM
100
AcDbTrace
 10
4023.587
 20
-4651.473
 30
0.0
 11
4223.587000000001
 21
-4651.473
 31
0.0
 12
4023.587
 22
-3651.473
 32
0.0
 13
4223.587000000001
 23
-3651.473
 33
0.0
  0
SOLID
  5
F25
330
A
100
AcDbEntity
  8
SOLDERMASK_PADS_BTM
100
AcDbTrace
 10
-4450.165
 20
2099.677
 30
0.0
 11
-4250.164999999999
 21
2099.677
 31
0.0
 12
-4450.165
 22
3099.677
 32
0.0
 13
-4250.164999999999
 23
3099.677
 33
0.0
  0
SOLID
  5
F26
330
A
100
AcDbEntity
  8
SOLDERMASK_PADS_BTM
100
AcDbTrace
 10
-4050.164999999998
 20
2099.677
 30
0.0
 11
-3850.165
 21
2099.677
 31
0.0
 12
-4050.164999999998
 22
3099.677
 32
0.0
 13
-3850.165
 23
3099.677
 33
0.0
  0
SOLID
  5
F27
330
A
100
AcDbEntity
  8
SOLDERMASK_PADS_BTM
100
AcDbTrace
 10
-8421.545
 20
4876.847
 30
0.0
 11
-8221.545
 21
4876.847
 31
0.0
 12
-8421.545
 22
5026.847
 32
0.0
 13
-8221.545
 23
5026.847
 33
0.0
  0
SOLID
  5
F28
330
A
100
AcDbEntity
  8
SOLDERMASK_PADS_BTM
100
AcDbTrace
 10
-8421.545
 20
4546.846999999998
 30
0.0
 11
-8221.545
 21
4546.846999999998
 31
0.0
 12
-8421.545
 22
4696.846999999999
 32
0.0
 13
-8221.545
 23
4696.846999999999
 33
0.0
  0
SOLID
  5
F29
330
A
100
AcDbEntity
  8
SOLDERMASK_PADS_BTM
100
AcDbTrace
 10
9271.309
 20
-4775.609999999999
 30
0.0
 11
9471.308999999999
 21
-4775.609999999999
 31
0.0
 12
9271.309
 22
-4625.609999999999
 32
0.0
 13
9471.308999999999
 23
-4625.609999999999
 33
0.0
  0
SOLID
  5
F2A
330
A
100
AcDbEntity
  8
SOLDERMASK_PADS_BTM
100
AcDbTrace
 10
9271.309
 20
-4445.61
 30
0.0
 11
9471.308999999999
 21
-4445.61
 31
0.0
 12
9271.309
 22
-4295.609999999999
 32
0.0
 13
9471.308999999999
 23
-4295.609999999999
 33
0.0
  0
SOLID
  5
F2B
330
A
100
AcDbEntity
  8
SOLDERMASK_PADS_BTM
100
AcDbTrace
 10
-5910.034000000002
 20
-4316.13
 30
0.0
 11
-5410.034000000002
 21
-4316.13
 31
0.0
 12
-5910.034000000002
 22
-3940.13
 32
0.0
 13
-5410.034000000002
 23
-3940.13
 33
0.0
  0
SOLID
  5
F2C
330
A
100
AcDbEntity
  8
SOLDERMASK_PADS_BTM
100
AcDbTrace
 10
-5910.034000000002
 20
-3490.13
 30
0.0
 11
-5410.034000000002
 21
-3490.13
 31
0.0
 12
-5910.034000000002
 22
-3114.13
 32
0.0
 13
-5410.034000000002
 23
-3114.13
 33
0.0
  0
SOLID
  5
F2D
330
A
100
AcDbEntity
  8
SOLDERMASK_PADS_BTM
100
AcDbTrace
 10
-4324.244000000001
 20
4876.847
 30
0.0
 11
-4124.244
 21
4876.847
 31
0.0
 12
-4324.244000000001
 22
5026.847
 32
0.0
 13
-4124.244
 23
5026.847
 33
0.0
  0
SOLID
  5
F2E
330
A
100
AcDbEntity
  8
SOLDERMASK_PADS_BTM
100
AcDbTrace
 10
-4324.244000000001
 20
4546.846999999998
 30
0.0
 11
-4124.244
 21
4546.846999999998
 31
0.0
 12
-4324.244000000001
 22
4696.846999999999
 32
0.0
 13
-4124.244
 23
4696.846999999999
 33
0.0
  0
SOLID
  5
F2F
330
A
100
AcDbEntity
  8
SOLDERMASK_PADS_BTM
100
AcDbTrace
 10
5198.587
 20
3845.986
 30
0.0
 11
5398.587
 21
3845.986
 31
0.0
 12
5198.587
 22
4845.985999999999
 32
0.0
 13
5398.587
 23
4845.985999999999
 33
0.0
  0
SOLID
  5
F30
330
A
100
AcDbEntity
  8
SOLDERMASK_PADS_BTM
100
AcDbTrace
 10
4798.587
 20
3845.986
 30
0.0
 11
4998.587
 21
3845.986
 31
0.0
 12
4798.587
 22
4845.985999999999
 32
0.0
 13
4998.587
 23
4845.985999999999
 33
0.0
  0
SOLID
  5
F31
330
A
100
AcDbEntity
  8
SOLDERMASK_PADS_BTM
100
AcDbTrace
 10
-4450.165
 20
897.493
 30
0.0
 11
-4250.164999999999
 21
897.493
 31
0.0
 12
-4450.165
 22
1897.493
 32
0.0
 13
-4250.164999999999
 23
1897.493
 33
0.0
  0
SOLID
  5
F32
330
A
100
AcDbEntity
  8
SOLDERMASK_PADS_BTM
100
AcDbTrace
 10
-4050.164999999998
 20
897.493
 30
0.0
 11
-3850.165
 21
897.493
 31
0.0
 12
-4050.164999999998
 22
1897.493
 32
0.0
 13
-3850.165
 23
1897.493
 33
0.0
  0
SOLID
  5
F33
330
A
100
AcDbEntity
  8
SOLDERMASK_PADS_BTM
100
AcDbTrace
 10
9646.309000000004
 20
-4775.609999999999
 30
0.0
 11
9846.308999999999
 21
-4775.609999999999
 31
0.0
 12
9646.309000000004
 22
-4625.609999999999
 32
0.0
 13
9846.308999999999
 23
-4625.609999999999
 33
0.0
  0
SOLID
  5
F34
330
A
100
AcDbEntity
  8
SOLDERMASK_PADS_BTM
100
AcDbTrace
 10
9646.309000000004
 20
-4445.61
 30
0.0
 11
9846.308999999999
 21
-4445.61
 31
0.0
 12
9646.309000000004
 22
-4295.609999999999
 32
0.0
 13
9846.308999999999
 23
-4295.609999999999
 33
0.0
  0
SOLID
  5
F35
330
A
100
AcDbEntity
  8
SOLDERMASK_PADS_BTM
100
AcDbTrace
 10
9215.213
 20
-3591.987
 30
0.0
 11
10215.213
 21
-3591.987
 31
0.0
 12
9215.213
 22
-3391.987
 32
0.0
 13
10215.213
 23
-3391.987
 33
0.0
  0
SOLID
  5
F36
330
A
100
AcDbEntity
  8
SOLDERMASK_PADS_BTM
100
AcDbTrace
 10
9215.213
 20
-3991.987
 30
0.0
 11
10215.213
 21
-3991.987
 31
0.0
 12
9215.213
 22
-3791.987000000002
 32
0.0
 13
10215.213
 23
-3791.987000000002
 33
0.0
  0
SOLID
  5
F37
330
A
100
AcDbEntity
  8
SOLDERMASK_PADS_BTM
100
AcDbTrace
 10
10255.348
 20
3484.370999999999
 30
0.0
 11
10455.348
 21
3484.370999999999
 31
0.0
 12
10255.348
 22
3634.371
 32
0.0
 13
10455.348
 23
3634.371
 33
0.0
  0
SOLID
  5
F38
330
A
100
AcDbEntity
  8
SOLDERMASK_PADS_BTM
100
AcDbTrace
 10
10255.348
 20
3814.371
 30
0.0
 11
10455.348
 21
3814.371
 31
0.0
 12
10255.348
 22
3964.371
 32
0.0
 13
10455.348
 23
3964.371
 33
0.0
  0
SOLID
  5
F39
330
A
100
AcDbEntity
  8
SOLDERMASK_PADS_BTM
100
AcDbTrace
 10
-5910.034000000002
 20
-2113.13
 30
0.0
 11
-5410.034000000002
 21
-2113.13
 31
0.0
 12
-5910.034000000002
 22
-1737.13
 32
0.0
 13
-5410.034000000002
 23
-1737.13
 33
0.0
  0
SOLID
  5
F3A
330
A
100
AcDbEntity
  8
SOLDERMASK_PADS_BTM
100
AcDbTrace
 10
-5910.034000000002
 20
-2939.13
 30
0.0
 11
-5410.034000000002
 21
-2939.13
 31
0.0
 12
-5910.034000000002
 22
-2563.130000000001
 32
0.0
 13
-5410.034000000002
 23
-2563.130000000001
 33
0.0
  0
SOLID
  5
F3B
330
A
100
AcDbEntity
  8
SOLDERMASK_PADS_BTM
100
AcDbTrace
 10
9215.213
 20
-3216.987
 30
0.0
 11
10215.213
 21
-3216.987
 31
0.0
 12
9215.213
 22
-3016.987
 32
0.0
 13
10215.213
 23
-3016.987
 33
0.0
  0
SOLID
  5
F3C
330
A
100
AcDbEntity
  8
SOLDERMASK_PADS_BTM
100
AcDbTrace
 10
9215.213
 20
-2816.987000000001
 30
0.0
 11
10215.213
 21
-2816.987000000001
 31
0.0
 12
9215.213
 22
-2616.987
 32
0.0
 13
10215.213
 23
-2616.987
 33
0.0
  0
SOLID
  5
F3D
330
A
100
AcDbEntity
  8
SOLDERMASK_PADS_BTM
100
AcDbTrace
 10
9215.213
 20
-1950.507
 30
0.0
 11
10215.213
 21
-1950.507
 31
0.0
 12
9215.213
 22
-1750.507
 32
0.0
 13
10215.213
 23
-1750.507
 33
0.0
  0
SOLID
  5
F3E
330
A
100
AcDbEntity
  8
SOLDERMASK_PADS_BTM
100
AcDbTrace
 10
9215.213
 20
-2350.507
 30
0.0
 11
10215.213
 21
-2350.507
 31
0.0
 12
9215.213
 22
-2150.507
 32
0.0
 13
10215.213
 23
-2150.507
 33
0.0
  0
SOLID
  5
F3F
330
A
100
AcDbEntity
  8
SOLDERMASK_PADS_BTM
100
AcDbTrace
 10
5198.587
 20
2642.77
 30
0.0
 11
5398.587
 21
2642.77
 31
0.0
 12
5198.587
 22
3642.77
 32
0.0
 13
5398.587
 23
3642.77
 33
0.0
  0
SOLID
  5
F40
330
A
100
AcDbEntity
  8
SOLDERMASK_PADS_BTM
100
AcDbTrace
 10
4798.587
 20
2642.77
 30
0.0
 11
4998.587
 21
2642.77
 31
0.0
 12
4798.587
 22
3642.77
 32
0.0
 13
4998.587
 23
3642.77
 33
0.0
  0
SOLID
  5
F41
330
A
100
AcDbEntity
  8
SOLDERMASK_PADS_BTM
100
AcDbTrace
 10
10790.213
 20
-4091.987
 30
0.0
 11
10990.213
 21
-4091.987
 31
0.0
 12
10790.213
 22
-3091.987
 32
0.0
 13
10990.213
 23
-3091.987
 33
0.0
  0
SOLID
  5
F42
330
A
100
AcDbEntity
  8
SOLDERMASK_PADS_BTM
100
AcDbTrace
 10
10390.213
 20
-4091.987
 30
0.0
 11
10590.213
 21
-4091.987
 31
0.0
 12
10390.213
 22
-3091.987
 32
0.0
 13
10590.213
 23
-3091.987
 33
0.0
  0
SOLID
  5
F43
330
A
100
AcDbEntity
  8
SOLDERMASK_PADS_BTM
100
AcDbTrace
 10
-328.501
 20
3301.861000000001
 30
0.0
 11
-128.501
 21
3301.861000000001
 31
0.0
 12
-328.501
 22
4301.861
 32
0.0
 13
-128.501
 23
4301.861
 33
0.0
  0
SOLID
  5
F44
330
A
100
AcDbEntity
  8
SOLDERMASK_PADS_BTM
100
AcDbTrace
 10
-728.501
 20
3301.861000000001
 30
0.0
 11
-528.5009999999998
 21
3301.861000000001
 31
0.0
 12
-728.501
 22
4301.861
 32
0.0
 13
-528.5009999999998
 23
4301.861
 33
0.0
  0
SOLID
  5
F45
330
A
100
AcDbEntity
  8
SOLDERMASK_PADS_BTM
100
AcDbTrace
 10
-3663.499
 20
3513.177000000001
 30
0.0
 11
-3163.499
 21
3513.177000000001
 31
0.0
 12
-3663.499
 22
3889.177
 32
0.0
 13
-3163.499
 23
3889.177
 33
0.0
  0
SOLID
  5
F46
330
A
100
AcDbEntity
  8
SOLDERMASK_PADS_BTM
100
AcDbTrace
 10
-3663.499
 20
2687.177
 30
0.0
 11
-3163.499
 21
2687.177
 31
0.0
 12
-3663.499
 22
3063.177
 32
0.0
 13
-3163.499
 23
3063.177
 33
0.0
  0
SOLID
  5
F47
330
A
100
AcDbEntity
  8
SOLDERMASK_PADS_BTM
100
AcDbTrace
 10
10021.309
 20
-4775.609999999999
 30
0.0
 11
10221.309
 21
-4775.609999999999
 31
0.0
 12
10021.309
 22
-4625.609999999999
 32
0.0
 13
10221.309
 23
-4625.609999999999
 33
0.0
  0
SOLID
  5
F48
330
A
100
AcDbEntity
  8
SOLDERMASK_PADS_BTM
100
AcDbTrace
 10
10021.309
 20
-4445.61
 30
0.0
 11
10221.309
 21
-4445.61
 31
0.0
 12
10021.309
 22
-4295.609999999999
 32
0.0
 13
10221.309
 23
-4295.609999999999
 33
0.0
  0
SOLID
  5
F49
330
A
100
AcDbEntity
  8
SOLDERMASK_PADS_BTM
100
AcDbTrace
 10
10390.213
 20
-2888.771
 30
0.0
 11
10590.213
 21
-2888.771
 31
0.0
 12
10390.213
 22
-1888.771
 32
0.0
 13
10590.213
 23
-1888.771
 33
0.0
  0
SOLID
  5
F4A
330
A
100
AcDbEntity
  8
SOLDERMASK_PADS_BTM
100
AcDbTrace
 10
10790.213
 20
-2888.771
 30
0.0
 11
10990.213
 21
-2888.771
 31
0.0
 12
10790.213
 22
-1888.771
 32
0.0
 13
10990.213
 23
-1888.771
 33
0.0
  0
SOLID
  5
F4B
330
A
100
AcDbEntity
  8
SOLDERMASK_PADS_BTM
100
AcDbTrace
 10
-2575.036
 20
-4728.814
 30
0.0
 11
-2375.036
 21
-4728.814
 31
0.0
 12
-2575.036
 22
-3728.814000000002
 32
0.0
 13
-2375.036
 23
-3728.814000000002
 33
0.0
  0
SOLID
  5
F4C
330
A
100
AcDbEntity
  8
SOLDERMASK_PADS_BTM
100
AcDbTrace
 10
-2975.036
 20
-4728.814
 30
0.0
 11
-2775.036
 21
-4728.814
 31
0.0
 12
-2975.036
 22
-3728.814000000002
 32
0.0
 13
-2775.036
 23
-3728.814000000002
 33
0.0
  0
SOLID
  5
F4D
330
A
100
AcDbEntity
  8
SOLDERMASK_PADS_BTM
100
AcDbTrace
 10
10790.213
 20
1698.503
 30
0.0
 11
10990.213
 21
1698.503
 31
0.0
 12
10790.213
 22
2698.503
 32
0.0
 13
10990.213
 23
2698.503
 33
0.0
  0
SOLID
  5
F4E
330
A
100
AcDbEntity
  8
SOLDERMASK_PADS_BTM
100
AcDbTrace
 10
10390.213
 20
1698.503
 30
0.0
 11
10590.213
 21
1698.503
 31
0.0
 12
10390.213
 22
2698.503
 32
0.0
 13
10590.213
 23
2698.503
 33
0.0
  0
SOLID
  5
F4F
330
A
100
AcDbEntity
  8
SOLDERMASK_PADS_BTM
100
AcDbTrace
 10
-7061.844
 20
-1138.476
 30
0.0
 11
-6685.844
 21
-1138.476
 31
0.0
 12
-7061.844
 22
-638.4759999999999
 32
0.0
 13
-6685.844
 23
-638.4759999999999
 33
0.0
  0
SOLID
  5
F50
330
A
100
AcDbEntity
  8
SOLDERMASK_PADS_BTM
100
AcDbTrace
 10
-6235.844
 20
-1138.476
 30
0.0
 11
-5859.844
 21
-1138.476
 31
0.0
 12
-6235.844
 22
-638.4759999999999
 32
0.0
 13
-5859.844
 23
-638.4759999999999
 33
0.0
  0
SOLID
  5
F51
330
A
100
AcDbEntity
  8
SOLDERMASK_PADS_BTM
100
AcDbTrace
 10
-7061.844
 20
211.524
 30
0.0
 11
-6685.844
 21
211.524
 31
0.0
 12
-7061.844
 22
711.5239999999999
 32
0.0
 13
-6685.844
 23
711.5239999999999
 33
0.0
  0
SOLID
  5
F52
330
A
100
AcDbEntity
  8
SOLDERMASK_PADS_BTM
100
AcDbTrace
 10
-6235.844
 20
211.524
 30
0.0
 11
-5859.844
 21
211.524
 31
0.0
 12
-6235.844
 22
711.5239999999999
 32
0.0
 13
-5859.844
 23
711.5239999999999
 33
0.0
  0
SOLID
  5
F53
330
A
100
AcDbEntity
  8
SOLDERMASK_PADS_BTM
100
AcDbTrace
 10
10390.213
 20
-1685.555
 30
0.0
 11
10590.213
 21
-1685.555
 31
0.0
 12
10390.213
 22
-685.555
 32
0.0
 13
10590.213
 23
-685.555
 33
0.0
  0
SOLID
  5
F54
330
A
100
AcDbEntity
  8
SOLDERMASK_PADS_BTM
100
AcDbTrace
 10
10790.213
 20
-1685.555
 30
0.0
 11
10990.213
 21
-1685.555
 31
0.0
 12
10790.213
 22
-685.555
 32
0.0
 13
10990.213
 23
-685.555
 33
0.0
  0
SOLID
  5
F55
330
A
100
AcDbEntity
  8
SOLDERMASK_PADS_BTM
100
AcDbTrace
 10
5198.587
 20
-1041.825
 30
0.0
 11
5398.587
 21
-1041.825
 31
0.0
 12
5198.587
 22
-41.825
 32
0.0
 13
5398.587
 23
-41.825
 33
0.0
  0
SOLID
  5
F56
330
A
100
AcDbEntity
  8
SOLDERMASK_PADS_BTM
100
AcDbTrace
 10
4798.587
 20
-1041.825
 30
0.0
 11
4998.587
 21
-1041.825
 31
0.0
 12
4798.587
 22
-41.825
 32
0.0
 13
4998.587
 23
-41.825
 33
0.0
  0
SOLID
  5
F57
330
A
100
AcDbEntity
  8
SOLDERMASK_PADS_BTM
100
AcDbTrace
 10
5198.587
 20
1439.554
 30
0.0
 11
5398.587
 21
1439.554
 31
0.0
 12
5198.587
 22
2439.554
 32
0.0
 13
5398.587
 23
2439.554
 33
0.0
  0
SOLID
  5
F58
330
A
100
AcDbEntity
  8
SOLDERMASK_PADS_BTM
100
AcDbTrace
 10
4798.587
 20
1439.554
 30
0.0
 11
4998.587
 21
1439.554
 31
0.0
 12
4798.587
 22
2439.554
 32
0.0
 13
4998.587
 23
2439.554
 33
0.0
  0
SOLID
  5
F59
330
A
100
AcDbEntity
  8
SOLDERMASK_PADS_BTM
100
AcDbTrace
 10
-328.501
 20
2099.677
 30
0.0
 11
-128.501
 21
2099.677
 31
0.0
 12
-328.501
 22
3099.677
 32
0.0
 13
-128.501
 23
3099.677
 33
0.0
  0
SOLID
  5
F5A
330
A
100
AcDbEntity
  8
SOLDERMASK_PADS_BTM
100
AcDbTrace
 10
-728.501
 20
2099.677
 30
0.0
 11
-528.5009999999998
 21
2099.677
 31
0.0
 12
-728.501
 22
3099.677
 32
0.0
 13
-528.5009999999998
 23
3099.677
 33
0.0
  0
SOLID
  5
F5B
330
A
100
AcDbEntity
  8
SOLDERMASK_PADS_BTM
100
AcDbTrace
 10
-3663.499
 20
1310.177
 30
0.0
 11
-3163.499
 21
1310.177
 31
0.0
 12
-3663.499
 22
1686.177
 32
0.0
 13
-3163.499
 23
1686.177
 33
0.0
  0
SOLID
  5
F5C
330
A
100
AcDbEntity
  8
SOLDERMASK_PADS_BTM
100
AcDbTrace
 10
-3663.499
 20
2136.177
 30
0.0
 11
-3163.499
 21
2136.177
 31
0.0
 12
-3663.499
 22
2512.177
 32
0.0
 13
-3163.499
 23
2512.177
 33
0.0
  0
SOLID
  5
F5D
330
A
100
AcDbEntity
  8
SOLDERMASK_PADS_BTM
100
AcDbTrace
 10
-2575.036
 20
-3526.63
 30
0.0
 11
-2375.036
 21
-3526.63
 31
0.0
 12
-2575.036
 22
-2526.63
 32
0.0
 13
-2375.036
 23
-2526.63
 33
0.0
  0
SOLID
  5
F5E
330
A
100
AcDbEntity
  8
SOLDERMASK_PADS_BTM
100
AcDbTrace
 10
-2975.036
 20
-3526.63
 30
0.0
 11
-2775.036
 21
-3526.63
 31
0.0
 12
-2975.036
 22
-2526.63
 32
0.0
 13
-2775.036
 23
-2526.63
 33
0.0
  0
SOLID
  5
F5F
330
A
100
AcDbEntity
  8
SOLDERMASK_PADS_BTM
100
AcDbTrace
 10
-7061.844
 20
-463.4759999999998
 30
0.0
 11
-6685.844
 21
-463.4759999999998
 31
0.0
 12
-7061.844
 22
36.524
 32
0.0
 13
-6685.844
 23
36.524
 33
0.0
  0
SOLID
  5
F60
330
A
100
AcDbEntity
  8
SOLDERMASK_PADS_BTM
100
AcDbTrace
 10
-6235.844
 20
-463.4759999999998
 30
0.0
 11
-5859.844
 21
-463.4759999999998
 31
0.0
 12
-6235.844
 22
36.524
 32
0.0
 13
-5859.844
 23
36.524
 33
0.0
  0
SOLID
  5
F61
330
A
100
AcDbEntity
  8
SOLDERMASK_PADS_BTM
100
AcDbTrace
 10
5198.587
 20
-2245.041
 30
0.0
 11
5398.587
 21
-2245.041
 31
0.0
 12
5198.587
 22
-1245.041
 32
0.0
 13
5398.587
 23
-1245.041
 33
0.0
  0
SOLID
  5
F62
330
A
100
AcDbEntity
  8
SOLDERMASK_PADS_BTM
100
AcDbTrace
 10
4798.587
 20
-2245.041
 30
0.0
 11
4998.587
 21
-2245.041
 31
0.0
 12
4798.587
 22
-1245.041
 32
0.0
 13
4998.587
 23
-1245.041
 33
0.0
  0
SOLID
  5
F63
330
A
100
AcDbEntity
  8
SOLDERMASK_PADS_BTM
100
AcDbTrace
 10
5198.587
 20
236.338
 30
0.0
 11
5398.587
 21
236.338
 31
0.0
 12
5198.587
 22
1236.338
 32
0.0
 13
5398.587
 23
1236.338
 33
0.0
  0
SOLID
  5
F64
330
A
100
AcDbEntity
  8
SOLDERMASK_PADS_BTM
100
AcDbTrace
 10
4798.587
 20
236.338
 30
0.0
 11
4998.587
 21
236.338
 31
0.0
 12
4798.587
 22
1236.338
 32
0.0
 13
4998.587
 23
1236.338
 33
0.0
  0
SOLID
  5
F65
330
A
100
AcDbEntity
  8
SOLDERMASK_PADS_BTM
100
AcDbTrace
 10
-328.501
 20
897.493
 30
0.0
 11
-128.501
 21
897.493
 31
0.0
 12
-328.501
 22
1897.493
 32
0.0
 13
-128.501
 23
1897.493
 33
0.0
  0
SOLID
  5
F66
330
A
100
AcDbEntity
  8
SOLDERMASK_PADS_BTM
100
AcDbTrace
 10
-728.501
 20
897.493
 30
0.0
 11
-528.5009999999998
 21
897.493
 31
0.0
 12
-728.501
 22
1897.493
 32
0.0
 13
-528.5009999999998
 23
1897.493
 33
0.0
  0
SOLID
  5
F67
330
A
100
AcDbEntity
  8
SOLDERMASK_PADS_BTM
100
AcDbTrace
 10
-2575.036
 20
-2324.446
 30
0.0
 11
-2375.036
 21
-2324.446
 31
0.0
 12
-2575.036
 22
-1324.446
 32
0.0
 13
-2375.036
 23
-1324.446
 33
0.0
  0
SOLID
  5
F68
330
A
100
AcDbEntity
  8
SOLDERMASK_PADS_BTM
100
AcDbTrace
 10
-2975.036
 20
-2324.446
 30
0.0
 11
-2775.036
 21
-2324.446
 31
0.0
 12
-2975.036
 22
-1324.446
 32
0.0
 13
-2775.036
 23
-1324.446
 33
0.0
  0
SOLID
  5
F69
330
A
100
AcDbEntity
  8
SOLDERMASK_PADS_BTM
100
AcDbTrace
 10
5198.587
 20
-3448.257
 30
0.0
 11
5398.587
 21
-3448.257
 31
0.0
 12
5198.587
 22
-2448.257
 32
0.0
 13
5398.587
 23
-2448.257
 33
0.0
  0
SOLID
  5
F6A
330
A
100
AcDbEntity
  8
SOLDERMASK_PADS_BTM
100
AcDbTrace
 10
4798.587
 20
-3448.257
 30
0.0
 11
4998.587
 21
-3448.257
 31
0.0
 12
4798.587
 22
-2448.257
 32
0.0
 13
4998.587
 23
-2448.257
 33
0.0
  0
SOLID
  5
F6B
330
A
100
AcDbEntity
  8
SOLDERMASK_PADS_BTM
100
AcDbTrace
 10
-2201.833
 20
3301.861000000001
 30
0.0
 11
-2001.833
 21
3301.861000000001
 31
0.0
 12
-2201.833
 22
4301.861
 32
0.0
 13
-2001.833
 23
4301.861
 33
0.0
  0
SOLID
  5
F6C
330
A
100
AcDbEntity
  8
SOLDERMASK_PADS_BTM
100
AcDbTrace
 10
-1801.833
 20
3301.861000000001
 30
0.0
 11
-1601.833
 21
3301.861000000001
 31
0.0
 12
-1801.833
 22
4301.861
 32
0.0
 13
-1601.833
 23
4301.861
 33
0.0
  0
SOLID
  5
F6D
330
A
100
AcDbEntity
  8
SOLDERMASK_PADS_BTM
100
AcDbTrace
 10
-4448.367999999998
 20
-4728.814
 30
0.0
 11
-4248.367999999998
 21
-4728.814
 31
0.0
 12
-4448.367999999998
 22
-3728.814000000002
 32
0.0
 13
-4248.367999999998
 23
-3728.814000000002
 33
0.0
  0
SOLID
  5
F6E
330
A
100
AcDbEntity
  8
SOLDERMASK_PADS_BTM
100
AcDbTrace
 10
-4048.367999999999
 20
-4728.814
 30
0.0
 11
-3848.368
 21
-4728.814
 31
0.0
 12
-4048.367999999999
 22
-3728.814000000002
 32
0.0
 13
-3848.368
 23
-3728.814000000002
 33
0.0
  0
SOLID
  5
F6F
330
A
100
AcDbEntity
  8
SOLDERMASK_PADS_BTM
100
AcDbTrace
 10
-11419.925
 20
-759.3519999999998
 30
0.0
 11
-11219.925
 21
-759.3519999999998
 31
0.0
 12
-11419.925
 22
240.648
 32
0.0
 13
-11219.925
 23
240.648
 33
0.0
  0
SOLID
  5
F70
330
A
100
AcDbEntity
  8
SOLDERMASK_PADS_BTM
100
AcDbTrace
 10
-11819.925
 20
-759.3519999999998
 30
0.0
 11
-11619.925
 21
-759.3519999999998
 31
0.0
 12
-11819.925
 22
240.648
 32
0.0
 13
-11619.925
 23
240.648
 33
0.0
  0
SOLID
  5
F71
330
A
100
AcDbEntity
  8
SOLDERMASK_PADS_BTM
100
AcDbTrace
 10
-11044.925
 20
-779.352
 30
0.0
 11
-10044.925
 21
-779.352
 31
0.0
 12
-11044.925
 22
-579.352
 32
0.0
 13
-10044.925
 23
-579.352
 33
0.0
  0
SOLID
  5
F72
330
A
100
AcDbEntity
  8
SOLDERMASK_PADS_BTM
100
AcDbTrace
 10
-11044.925
 20
-379.352
 30
0.0
 11
-10044.925
 21
-379.352
 31
0.0
 12
-11044.925
 22
-179.352
 32
0.0
 13
-10044.925
 23
-179.352
 33
0.0
  0
SOLID
  5
F73
330
A
100
AcDbEntity
  8
SOLDERMASK_PADS_BTM
100
AcDbTrace
 10
5198.587
 20
-4651.473
 30
0.0
 11
5398.587
 21
-4651.473
 31
0.0
 12
5198.587
 22
-3651.473
 32
0.0
 13
5398.587
 23
-3651.473
 33
0.0
  0
SOLID
  5
F74
330
A
100
AcDbEntity
  8
SOLDERMASK_PADS_BTM
100
AcDbTrace
 10
4798.587
 20
-4651.473
 30
0.0
 11
4998.587
 21
-4651.473
 31
0.0
 12
4798.587
 22
-3651.473
 32
0.0
 13
4998.587
 23
-3651.473
 33
0.0
  0
SOLID
  5
F75
330
A
100
AcDbEntity
  8
SOLDERMASK_PADS_BTM
100
AcDbTrace
 10
-8899.278
 20
-4.352
 30
0.0
 11
-8699.278000000003
 21
-4.352
 31
0.0
 12
-8899.278
 22
995.648
 32
0.0
 13
-8699.278000000003
 23
995.648
 33
0.0
  0
SOLID
  5
F76
330
A
100
AcDbEntity
  8
SOLDERMASK_PADS_BTM
100
AcDbTrace
 10
-8499.278000000002
 20
-4.352
 30
0.0
 11
-8299.278000000002
 21
-4.352
 31
0.0
 12
-8499.278000000002
 22
995.648
 32
0.0
 13
-8299.278000000002
 23
995.648
 33
0.0
  0
SOLID
  5
F77
330
A
100
AcDbEntity
  8
SOLDERMASK_PADS_BTM
100
AcDbTrace
 10
-2201.833
 20
2099.677
 30
0.0
 11
-2001.833
 21
2099.677
 31
0.0
 12
-2201.833
 22
3099.677
 32
0.0
 13
-2001.833
 23
3099.677
 33
0.0
  0
SOLID
  5
F78
330
A
100
AcDbEntity
  8
SOLDERMASK_PADS_BTM
100
AcDbTrace
 10
-1801.833
 20
2099.677
 30
0.0
 11
-1601.833
 21
2099.677
 31
0.0
 12
-1801.833
 22
3099.677
 32
0.0
 13
-1601.833
 23
3099.677
 33
0.0
  0
SOLID
  5
F79
330
A
100
AcDbEntity
  8
SOLDERMASK_PADS_BTM
100
AcDbTrace
 10
-4448.367999999998
 20
-3526.63
 30
0.0
 11
-4248.367999999998
 21
-3526.63
 31
0.0
 12
-4448.367999999998
 22
-2526.63
 32
0.0
 13
-4248.367999999998
 23
-2526.63
 33
0.0
  0
SOLID
  5
F7A
330
A
100
AcDbEntity
  8
SOLDERMASK_PADS_BTM
100
AcDbTrace
 10
-4048.367999999999
 20
-3526.63
 30
0.0
 11
-3848.368
 21
-3526.63
 31
0.0
 12
-4048.367999999999
 22
-2526.63
 32
0.0
 13
-3848.368
 23
-2526.63
 33
0.0
  0
SOLID
  5
F7B
330
A
100
AcDbEntity
  8
SOLDERMASK_PADS_BTM
100
AcDbTrace
 10
-12594.925
 20
3153.6
 30
0.0
 11
-12394.925
 21
3153.6
 31
0.0
 12
-12594.925
 22
4153.599999999999
 32
0.0
 13
-12394.925
 23
4153.599999999999
 33
0.0
  0
SOLID
  5
F7C
330
A
100
AcDbEntity
  8
SOLDERMASK_PADS_BTM
100
AcDbTrace
 10
-12194.925
 20
3153.6
 30
0.0
 11
-11994.925
 21
3153.6
 31
0.0
 12
-12194.925
 22
4153.599999999999
 32
0.0
 13
-11994.925
 23
4153.599999999999
 33
0.0
  0
SOLID
  5
F7D
330
A
100
AcDbEntity
  8
SOLDERMASK_PADS_BTM
100
AcDbTrace
 10
-11962.497
 20
-4136.8
 30
0.0
 11
-11762.497
 21
-4136.8
 31
0.0
 12
-11962.497
 22
-3136.8
 32
0.0
 13
-11762.497
 23
-3136.8
 33
0.0
  0
SOLID
  5
F7E
330
A
100
AcDbEntity
  8
SOLDERMASK_PADS_BTM
100
AcDbTrace
 10
-12362.497
 20
-4136.8
 30
0.0
 11
-12162.497
 21
-4136.8
 31
0.0
 12
-12362.497
 22
-3136.8
 32
0.0
 13
-12162.497
 23
-3136.8
 33
0.0
  0
SOLID
  5
F7F
330
A
100
AcDbEntity
  8
SOLDERMASK_PADS_BTM
100
AcDbTrace
 10
5973.587
 20
3845.986
 30
0.0
 11
6173.587
 21
3845.986
 31
0.0
 12
5973.587
 22
4845.985999999999
 32
0.0
 13
6173.587
 23
4845.985999999999
 33
0.0
  0
SOLID
  5
F80
330
A
100
AcDbEntity
  8
SOLDERMASK_PADS_BTM
100
AcDbTrace
 10
5573.586999999998
 20
3845.986
 30
0.0
 11
5773.587
 21
3845.986
 31
0.0
 12
5573.586999999998
 22
4845.985999999999
 32
0.0
 13
5773.587
 23
4845.985999999999
 33
0.0
  0
SOLID
  5
F81
330
A
100
AcDbEntity
  8
SOLDERMASK_PADS_BTM
100
AcDbTrace
 10
-12171.7
 20
-4911.8
 30
0.0
 11
-11171.7
 21
-4911.8
 31
0.0
 12
-12171.7
 22
-4711.8
 32
0.0
 13
-11171.7
 23
-4711.8
 33
0.0
  0
SOLID
  5
F82
330
A
100
AcDbEntity
  8
SOLDERMASK_PADS_BTM
100
AcDbTrace
 10
-12171.7
 20
-4511.8
 30
0.0
 11
-11171.7
 21
-4511.8
 31
0.0
 12
-12171.7
 22
-4311.8
 32
0.0
 13
-11171.7
 23
-4311.8
 33
0.0
  0
SOLID
  5
F83
330
A
100
AcDbEntity
  8
SOLDERMASK_PADS_BTM
100
AcDbTrace
 10
-2201.833
 20
897.493
 30
0.0
 11
-2001.833
 21
897.493
 31
0.0
 12
-2201.833
 22
1897.493
 32
0.0
 13
-2001.833
 23
1897.493
 33
0.0
  0
SOLID
  5
F84
330
A
100
AcDbEntity
  8
SOLDERMASK_PADS_BTM
100
AcDbTrace
 10
-1801.833
 20
897.493
 30
0.0
 11
-1601.833
 21
897.493
 31
0.0
 12
-1801.833
 22
1897.493
 32
0.0
 13
-1601.833
 23
1897.493
 33
0.0
  0
SOLID
  5
F85
330
A
100
AcDbEntity
  8
SOLDERMASK_PADS_BTM
100
AcDbTrace
 10
-9821.700000000001
 20
-3736.800000000001
 30
0.0
 11
-8821.700000000001
 21
-3736.800000000001
 31
0.0
 12
-9821.700000000001
 22
-3536.8
 32
0.0
 13
-8821.700000000001
 23
-3536.8
 33
0.0
  0
SOLID
  5
F86
330
A
100
AcDbEntity
  8
SOLDERMASK_PADS_BTM
100
AcDbTrace
 10
-9821.700000000001
 20
-4136.8
 30
0.0
 11
-8821.700000000001
 21
-4136.8
 31
0.0
 12
-9821.700000000001
 22
-3936.8
 32
0.0
 13
-8821.700000000001
 23
-3936.8
 33
0.0
  0
SOLID
  5
F87
330
A
100
AcDbEntity
  8
SOLDERMASK_PADS_BTM
100
AcDbTrace
 10
-4448.367999999998
 20
-2324.446
 30
0.0
 11
-4248.367999999998
 21
-2324.446
 31
0.0
 12
-4448.367999999998
 22
-1324.446
 32
0.0
 13
-4248.367999999998
 23
-1324.446
 33
0.0
  0
SOLID
  5
F88
330
A
100
AcDbEntity
  8
SOLDERMASK_PADS_BTM
100
AcDbTrace
 10
-4048.367999999999
 20
-2324.446
 30
0.0
 11
-3848.368
 21
-2324.446
 31
0.0
 12
-4048.367999999999
 22
-1324.446
 32
0.0
 13
-3848.368
 23
-1324.446
 33
0.0
  0
SOLID
  5
F89
330
A
100
AcDbEntity
  8
SOLDERMASK_PADS_BTM
100
AcDbTrace
 10
-12206.733
 20
4938.29
 30
0.0
 11
-11206.733
 21
4938.29
 31
0.0
 12
-12206.733
 22
5138.29
 32
0.0
 13
-11206.733
 23
5138.29
 33
0.0
  0
SOLID
  5
F8A
330
A
100
AcDbEntity
  8
SOLDERMASK_PADS_BTM
100
AcDbTrace
 10
-12206.733
 20
4538.289999999999
 30
0.0
 11
-11206.733
 21
4538.289999999999
 31
0.0
 12
-12206.733
 22
4738.29
 32
0.0
 13
-11206.733
 23
4738.29
 33
0.0
  0
SOLID
  5
F8B
330
A
100
AcDbEntity
  8
SOLDERMASK_PADS_BTM
100
AcDbTrace
 10
-7626.756999999999
 20
4896.847
 30
0.0
 11
-6626.756999999999
 21
4896.847
 31
0.0
 12
-7626.756999999999
 22
5096.847
 32
0.0
 13
-6626.756999999999
 23
5096.847
 33
0.0
  0
SOLID
  5
F8C
330
A
100
AcDbEntity
  8
SOLDERMASK_PADS_BTM
100
AcDbTrace
 10
-7626.756999999999
 20
4496.846999999998
 30
0.0
 11
-6626.756999999999
 21
4496.846999999998
 31
0.0
 12
-7626.756999999999
 22
4696.846999999999
 32
0.0
 13
-6626.756999999999
 23
4696.846999999999
 33
0.0
  0
LWPOLYLINE
  5
F8E
330
A
100
AcDbEntity
  8
PKG_OUTLINE
100
AcDbPolyline
 90
       12
 70
     1
 43
0.0
 10
-22500.0
 20
-6841.561
 10
-22500.0
 20
-18750.0
 10
22500.0
 20
-18750.0
 10
22500.0
 20
-6841.561
 42
-0.790198
 10
22500.0
 20
-5158.439000000001
 10
22500.0
 20
10158.439
 42
-0.790198
 10
22500.0
 20
11841.561
 10
22500.0
 20
18750.0
 10
-22500.0
 20
18750.0
 10
-22500.0
 20
11841.561
 42
-0.790198
 10
-22500.0
 20
10158.439
 10
-22500.0
 20
-5158.439000000001
 42
-0.790198
  0
ENDSEC
  0
SECTION
  2
OBJECTS
  0
DICTIONARY
  5
16
330
0
100
AcDbDictionary
281
     1
  3
ACAD_CIP_PREVIOUS_PRODUCT_INFO
350
3796
  3
ACAD_COLOR
350
3776
  3
ACAD_DETAILVIEWSTYLE
350
3790
  3
ACAD_GROUP
350
17
  3
ACAD_LAYOUT
350
3777
  3
ACAD_MATERIAL
350
3744
  3
ACAD_MLEADERSTYLE
350
378C
  3
ACAD_MLINESTYLE
350
18
  3
ACAD_PLOTSETTINGS
350
3792
  3
ACAD_PLOTSTYLENAME
350
3742
  3
ACAD_SCALELIST
350
377A
  3
ACAD_SECTIONVIEWSTYLE
350
378E
  3
ACAD_TABLESTYLE
350
3778
  3
ACAD_VISUALSTYLE
350
375D
  3
ACDB_RECOMPOSE_DATA
350
37BE
  3
AcDbVariableDictionary
350
37AA
  3
ASE_INDEX_DICTIONARY
350
37A7
  0
DICTIONARY
  5
379A
330
F8F
100
AcDbDictionary
280
     1
281
     1
  3
ADSK_XREC_LAYER_RECONCILED
360
379B
  0
DICTIONARY
  5
379C
330
F90
100
AcDbDictionary
280
     1
281
     1
  3
ADSK_XREC_LAYER_RECONCILED
360
379D
  0
DICTIONARY
  5
379E
330
F91
100
AcDbDictionary
280
     1
281
     1
  3
ADSK_XREC_LAYER_RECONCILED
360
379F
  0
DICTIONARY
  5
37A0
330
F92
100
AcDbDictionary
280
     1
281
     1
  3
ADSK_XREC_LAYER_RECONCILED
360
37A1
  0
DICTIONARY
  5
37A2
330
F93
100
AcDbDictionary
280
     1
281
     1
  3
ADSK_XREC_LAYER_RECONCILED
360
37A3
  0
DICTIONARY
  5
37A4
330
F94
100
AcDbDictionary
280
     1
281
     1
  3
ADSK_XREC_LAYER_RECONCILED
360
37A5
  0
XRECORD
  5
3796
102
{ACAD_REACTORS
330
16
102
}
330
16
100
AcDbXrecord
280
     1
300
ACD
300
2018
300
86830ACD_2018_0F
  0
DICTIONARY
  5
3776
102
{ACAD_REACTORS
330
16
102
}
330
16
100
AcDbDictionary
281
     1
  0
DICTIONARY
  5
3790
102
{ACAD_REACTORS
330
16
102
}
330
16
100
AcDbDictionary
281
     1
  3
Imperial24
350
3791
  0
DICTIONARY
  5
17
102
{ACAD_REACTORS
330
16
102
}
330
16
100
AcDbDictionary
281
     1
  0
DICTIONARY
  5
3777
102
{ACAD_REACTORS
330
16
102
}
330
16
100
AcDbDictionary
281
     1
  3
Layout1
350
3794
  3
Model
350
3793
  0
DICTIONARY
  5
3744
102
{ACAD_REACTORS
330
16
102
}
330
16
100
AcDbDictionary
281
     1
  3
ByBlock
350
374D
  3
ByLayer
350
3745
  3
Global
350
3755
  0
DICTIONARY
  5
378C
102
{ACAD_REACTORS
330
16
102
}
330
16
100
AcDbDictionary
281
     1
  3
Standard
350
378D
  0
DICTIONARY
  5
18
102
{ACAD_REACTORS
330
16
102
}
330
16
100
AcDbDictionary
281
     1
  3
STANDARD
350
19
  0
DICTIONARY
  5
3792
102
{ACAD_REACTORS
330
16
102
}
330
16
100
AcDbDictionary
281
     1
  0
ACDBDICTIONARYWDFLT
  5
3742
102
{ACAD_REACTORS
330
16
102
}
330
16
100
AcDbDictionary
281
     1
  3
Normal
350
3743
100
AcDbDictionaryWithDefault
340
3743
  0
DICTIONARY
  5
377A
102
{ACAD_REACTORS
330
16
102
}
330
16
100
AcDbDictionary
281
     1
  3
A0
350
377B
  3
A1
350
377C
  3
A2
350
377D
  3
A3
350
377E
  3
A4
350
377F
  3
A5
350
3780
  3
A6
350
3781
  3
A7
350
3782
  3
A8
350
3783
  3
A9
350
3784
  3
B0
350
3785
  3
B1
350
3786
  3
B2
350
3787
  3
B3
350
3788
  3
B4
350
3789
  3
B5
350
378A
  3
B6
350
378B
  0
DICTIONARY
  5
378E
102
{ACAD_REACTORS
330
16
102
}
330
16
100
AcDbDictionary
281
     1
  3
Imperial24
350
378F
  0
DICTIONARY
  5
3778
102
{ACAD_REACTORS
330
16
102
}
330
16
100
AcDbDictionary
281
     1
  3
Standard
350
3779
  0
DICTIONARY
  5
375D
102
{ACAD_REACTORS
330
16
102
}
330
16
100
AcDbDictionary
281
     1
  3
2dWireframe
350
3763
  3
Basic
350
3762
  3
Brighten
350
3769
  3
ColorChange
350
376D
  3
Conceptual
350
3766
  3
Dim
350
3768
  3
EdgeColorOff
350
3775
  3
Facepattern
350
376C
  3
Flat
350
375E
  3
FlatWithEdges
350
375F
  3
Gouraud
350
3760
  3
GouraudWithEdges
350
3761
  3
Hidden
350
3765
  3
JitterOff
350
3773
  3
Linepattern
350
376B
  3
OverhangOff
350
3774
  3
Realistic
350
3767
  3
Shaded
350
3772
  3
Shaded with edges
350
3771
  3
Shades of Gray
350
376E
  3
Sketchy
350
376F
  3
Thicken
350
376A
  3
Wireframe
350
3764
  3
X-Ray
350
3770
  0
XRECORD
  5
37BE
102
{ACAD_REACTORS
330
16
102
}
330
16
100
AcDbXrecord
280
     1
 90
        1
330
3779
  0
DICTIONARY
  5
37AA
102
{ACAD_REACTORS
330
16
102
}
330
16
100
AcDbDictionary
281
     1
  3
CANNOSCALE
350
37B0
  3
CMLEADERSTYLE
350
37AC
  3
CTABLESTYLE
350
37AB
  3
CVIEWDETAILSTYLE
350
37AD
  3
CVIEWSECTIONSTYLE
350
37AE
  3
LAYEREVAL
350
37B2
  3
LAYERNOTIFY
350
37B3
  3
LIGHTINGUNITS
350
37B1
  3
MSLTSCALE
350
37AF
  0
DICTIONARY
  5
37A7
102
{ACAD_REACTORS
330
16
102
}
330
16
100
AcDbDictionary
281
     1
  3
ASEBlockHierarchyIndexRecord
350
37A9
1001
DCO15
1040
2034412148.0
  0
XRECORD
  5
379B
102
{ACAD_REACTORS
330
379A
102
}
330
379A
100
AcDbXrecord
280
     1
290
     1
  0
XRECORD
  5
379D
102
{ACAD_REACTORS
330
379C
102
}
330
379C
100
AcDbXrecord
280
     1
290
     1
  0
XRECORD
  5
379F
102
{ACAD_REACTORS
330
379E
102
}
330
379E
100
AcDbXrecord
280
     1
290
     1
  0
XRECORD
  5
37A1
102
{ACAD_REACTORS
330
37A0
102
}
330
37A0
100
AcDbXrecord
280
     1
290
     1
  0
XRECORD
  5
37A3
102
{ACAD_REACTORS
330
37A2
102
}
330
37A2
100
AcDbXrecord
280
     1
290
     1
  0
XRECORD
  5
37A5
102
{ACAD_REACTORS
330
37A4
102
}
330
37A4
100
AcDbXrecord
280
     1
290
     1
  0
ACDBDETAILVIEWSTYLE
  5
3791
102
{ACAD_XDICTIONARY
360
37C1
102
}
102
{ACAD_REACTORS
330
3790
102
}
330
3790
100
AcDbModelDocViewStyle
 70
     0
  3
Imperial24
290
     0
100
AcDbDetailViewStyle
 70
     0
 71
     0
 90
        3
 71
     1
340
F95
 62
   256
 40
0.24
340
0
 62
   256
 40
0.24
300

 40
0.36
280
     3
 71
     2
340
12
 90
       25
 62
   256
 71
     3
340
F95
 62
   256
 40
0.24
 90
        1
 40
0.75
 90
        1
300
%<\AcVar ViewType \f "%tc1">% %<\AcVar ViewDetailId>%\PSCALE %<\AcVar ViewScale \f "%sn">%
 71
     4
340
12
 90
       25
 62
   256
340
12
 90
       25
 62
   256
280
     0
  0
LAYOUT
  5
3794
102
{ACAD_REACTORS
330
3777
102
}
330
3777
100
AcDbPlotSettings
  1

  2
Intel Cloud Print
  4

  6

 40
0.0
 41
0.0
 42
0.0
 43
0.0
 44
0.0
 45
0.0
 46
0.0
 47
0.0
 48
0.0
 49
0.0
140
0.0
141
0.0
142
1.0
143
1.0
 70
   688
 72
     0
 73
     0
 74
     5
  7

 75
    16
147
1.0
 76
     0
 77
     2
 78
   300
148
0.0
149
0.0
100
AcDbLayout
  1
Layout1
 70
     0
 71
     1
 10
0.0
 20
0.0
 11
12.0
 21
9.0
 12
0.0
 22
0.0
 32
0.0
 14
1.000000000000000E+20
 24
1.000000000000000E+20
 34
1.000000000000000E+20
 15
-1.000000000000000E+20
 25
-1.000000000000000E+20
 35
-1.000000000000000E+20
146
0.0
 13
0.0
 23
0.0
 33
0.0
 16
1.0
 26
0.0
 36
0.0
 17
0.0
 27
1.0
 37
0.0
 76
     0
330
B
  0
LAYOUT
  5
3793
102
{ACAD_REACTORS
330
3777
102
}
330
3777
100
AcDbPlotSettings
  1

  2
Intel Cloud Print
  4

  6

 40
0.0
 41
0.0
 42
0.0
 43
0.0
 44
0.0
 45
0.0
 46
0.0
 47
0.0
 48
0.0
 49
0.0
140
0.0
141
0.0
142
1.0
143
1.0
 70
  1712
 72
     0
 73
     0
 74
     0
  7

 75
     0
147
1.0
 76
     0
 77
     2
 78
   300
148
0.0
149
0.0
100
AcDbLayout
  1
Model
 70
     1
 71
     0
 10
0.0
 20
0.0
 11
12.0
 21
9.0
 12
0.0
 22
0.0
 32
0.0
 14
0.0
 24
0.0
 34
0.0
 15
0.0
 25
0.0
 35
0.0
146
0.0
 13
0.0
 23
0.0
 33
0.0
 16
1.0
 26
0.0
 36
0.0
 17
0.0
 27
1.0
 37
0.0
 76
     0
330
A
331
13
  0
MATERIAL
  5
374D
102
{ACAD_XDICTIONARY
360
374E
102
}
102
{ACAD_REACTORS
330
3744
102
}
330
3744
100
AcDbMaterial
  1
ByBlock
 72
     0
 43
0.0208333333333333
 43
0.0
 43
0.0
 43
0.0
 43
0.0
 43
0.0208333333333333
 43
0.0
 43
0.0
 43
0.0
 43
0.0
 43
1.0
 43
0.0
 43
0.0
 43
0.0
 43
0.0
 43
1.0
 77
     0
 47
0.0208333333333333
 47
0.0
 47
0.0
 47
0.0
 47
0.0
 47
0.0208333333333333
 47
0.0
 47
0.0
 47
0.0
 47
0.0
 47
1.0
 47
0.0
 47
0.0
 47
0.0
 47
0.0
 47
1.0
171
     0
 49
0.0208333333333333
 49
0.0
 49
0.0
 49
0.0
 49
0.0
 49
0.0208333333333333
 49
0.0
 49
0.0
 49
0.0
 49
0.0
 49
1.0
 49
0.0
 49
0.0
 49
0.0
 49
0.0
 49
1.0
175
     0
142
0.0208333333333333
142
0.0
142
0.0
142
0.0
142
0.0
142
0.0208333333333333
142
0.0
142
0.0
142
0.0
142
0.0
142
1.0
142
0.0
142
0.0
142
0.0
142
0.0
142
1.0
179
     0
144
0.0208333333333333
144
0.0
144
0.0
144
0.0
144
0.0
144
0.0208333333333333
144
0.0
144
0.0
144
0.0
144
0.0
144
1.0
144
0.0
144
0.0
144
0.0
144
0.0
144
1.0
147
0.0208333333333333
147
0.0
147
0.0
147
0.0
147
0.0
147
0.0208333333333333
147
0.0
147
0.0
147
0.0
147
0.0
147
1.0
147
0.0
147
0.0
147
0.0
147
0.0
147
1.0
  0
MATERIAL
  5
3745
102
{ACAD_XDICTIONARY
360
3746
102
}
102
{ACAD_REACTORS
330
3744
102
}
330
3744
100
AcDbMaterial
  1
ByLayer
 72
     0
 43
0.0208333333333333
 43
0.0
 43
0.0
 43
0.0
 43
0.0
 43
0.0208333333333333
 43
0.0
 43
0.0
 43
0.0
 43
0.0
 43
1.0
 43
0.0
 43
0.0
 43
0.0
 43
0.0
 43
1.0
 77
     0
 47
0.0208333333333333
 47
0.0
 47
0.0
 47
0.0
 47
0.0
 47
0.0208333333333333
 47
0.0
 47
0.0
 47
0.0
 47
0.0
 47
1.0
 47
0.0
 47
0.0
 47
0.0
 47
0.0
 47
1.0
171
     0
 49
0.0208333333333333
 49
0.0
 49
0.0
 49
0.0
 49
0.0
 49
0.0208333333333333
 49
0.0
 49
0.0
 49
0.0
 49
0.0
 49
1.0
 49
0.0
 49
0.0
 49
0.0
 49
0.0
 49
1.0
175
     0
142
0.0208333333333333
142
0.0
142
0.0
142
0.0
142
0.0
142
0.0208333333333333
142
0.0
142
0.0
142
0.0
142
0.0
142
1.0
142
0.0
142
0.0
142
0.0
142
0.0
142
1.0
179
     0
144
0.0208333333333333
144
0.0
144
0.0
144
0.0
144
0.0
144
0.0208333333333333
144
0.0
144
0.0
144
0.0
144
0.0
144
1.0
144
0.0
144
0.0
144
0.0
144
0.0
144
1.0
147
0.0208333333333333
147
0.0
147
0.0
147
0.0
147
0.0
147
0.0208333333333333
147
0.0
147
0.0
147
0.0
147
0.0
147
1.0
147
0.0
147
0.0
147
0.0
147
0.0
147
1.0
  0
MATERIAL
  5
3755
102
{ACAD_XDICTIONARY
360
3756
102
}
102
{ACAD_REACTORS
330
3744
102
}
330
3744
100
AcDbMaterial
  1
Global
 72
     0
 43
0.0208333333333333
 43
0.0
 43
0.0
 43
0.0
 43
0.0
 43
0.0208333333333333
 43
0.0
 43
0.0
 43
0.0
 43
0.0
 43
1.0
 43
0.0
 43
0.0
 43
0.0
 43
0.0
 43
1.0
 77
     0
 47
0.0208333333333333
 47
0.0
 47
0.0
 47
0.0
 47
0.0
 47
0.0208333333333333
 47
0.0
 47
0.0
 47
0.0
 47
0.0
 47
1.0
 47
0.0
 47
0.0
 47
0.0
 47
0.0
 47
1.0
171
     0
 49
0.0208333333333333
 49
0.0
 49
0.0
 49
0.0
 49
0.0
 49
0.0208333333333333
 49
0.0
 49
0.0
 49
0.0
 49
0.0
 49
1.0
 49
0.0
 49
0.0
 49
0.0
 49
0.0
 49
1.0
175
     0
142
0.0208333333333333
142
0.0
142
0.0
142
0.0
142
0.0
142
0.0208333333333333
142
0.0
142
0.0
142
0.0
142
0.0
142
1.0
142
0.0
142
0.0
142
0.0
142
0.0
142
1.0
179
     0
144
0.0208333333333333
144
0.0
144
0.0
144
0.0
144
0.0
144
0.0208333333333333
144
0.0
144
0.0
144
0.0
144
0.0
144
1.0
144
0.0
144
0.0
144
0.0
144
0.0
144
1.0
147
0.0208333333333333
147
0.0
147
0.0
147
0.0
147
0.0
147
0.0208333333333333
147
0.0
147
0.0
147
0.0
147
0.0
147
1.0
147
0.0
147
0.0
147
0.0
147
0.0
147
1.0
  0
MLEADERSTYLE
  5
378D
102
{ACAD_REACTORS
330
378C
102
}
330
378C
100
AcDbMLeaderStyle
179
     2
170
     2
171
     1
172
     0
 90
        2
 40
0.0
 41
0.0
173
     1
 91
-1056964608
340
10
 92
       -2
290
     1
 42
0.09
291
     1
 43
0.36
  3
Standard
 44
0.18
300

342
F95
174
     1
178
     6
175
     1
176
     0
 93
-1056964608
 45
0.18
292
     0
297
     0
 46
0.18
 94
-1056964608
 47
1.0
 49
1.0
140
1.0
293
     1
141
0.0
294
     1
177
     0
142
1.0
295
     0
296
     0
143
0.125
271
     0
272
     9
273
     9
298
     0
  0
MLINESTYLE
  5
19
102
{ACAD_REACTORS
330
18
102
}
330
18
100
AcDbMlineStyle
  2
STANDARD
 70
     0
  3

 62
     0
 51
90.0
 52
90.0
 71
     2
 49
0.5
 62
   256
  6
BYLAYER
 49
-0.5
 62
   256
  6
BYLAYER
  0
ACDBPLACEHOLDER
  5
3743
102
{ACAD_REACTORS
330
3742
102
}
330
3742
  0
SCALE
  5
377B
102
{ACAD_REACTORS
330
377A
102
}
330
377A
100
AcDbScale
 70
     0
300
1:1
140
1.0
141
1.0
290
     1
  0
SCALE
  5
377C
102
{ACAD_REACTORS
330
377A
102
}
330
377A
100
AcDbScale
 70
     0
300
1/128" = 1'-0"
140
0.0078125
141
12.0
290
     0
  0
SCALE
  5
377D
102
{ACAD_REACTORS
330
377A
102
}
330
377A
100
AcDbScale
 70
     0
300
1/64" = 1'-0"
140
0.015625
141
12.0
290
     0
  0
SCALE
  5
377E
102
{ACAD_REACTORS
330
377A
102
}
330
377A
100
AcDbScale
 70
     0
300
1/32" = 1'-0"
140
0.03125
141
12.0
290
     0
  0
SCALE
  5
377F
102
{ACAD_REACTORS
330
377A
102
}
330
377A
100
AcDbScale
 70
     0
300
1/16" = 1'-0"
140
0.0625
141
12.0
290
     0
  0
SCALE
  5
3780
102
{ACAD_REACTORS
330
377A
102
}
330
377A
100
AcDbScale
 70
     0
300
3/32" = 1'-0"
140
0.09375
141
12.0
290
     0
  0
SCALE
  5
3781
102
{ACAD_REACTORS
330
377A
102
}
330
377A
100
AcDbScale
 70
     0
300
1/8" = 1'-0"
140
0.125
141
12.0
290
     0
  0
SCALE
  5
3782
102
{ACAD_REACTORS
330
377A
102
}
330
377A
100
AcDbScale
 70
     0
300
3/16" = 1'-0"
140
0.1875
141
12.0
290
     0
  0
SCALE
  5
3783
102
{ACAD_REACTORS
330
377A
102
}
330
377A
100
AcDbScale
 70
     0
300
1/4" = 1'-0"
140
0.25
141
12.0
290
     0
  0
SCALE
  5
3784
102
{ACAD_REACTORS
330
377A
102
}
330
377A
100
AcDbScale
 70
     0
300
3/8" = 1'-0"
140
0.375
141
12.0
290
     0
  0
SCALE
  5
3785
102
{ACAD_REACTORS
330
377A
102
}
330
377A
100
AcDbScale
 70
     0
300
1/2" = 1'-0"
140
0.5
141
12.0
290
     0
  0
SCALE
  5
3786
102
{ACAD_REACTORS
330
377A
102
}
330
377A
100
AcDbScale
 70
     0
300
3/4" = 1'-0"
140
0.75
141
12.0
290
     0
  0
SCALE
  5
3787
102
{ACAD_REACTORS
330
377A
102
}
330
377A
100
AcDbScale
 70
     0
300
1" = 1'-0"
140
1.0
141
12.0
290
     0
  0
SCALE
  5
3788
102
{ACAD_REACTORS
330
377A
102
}
330
377A
100
AcDbScale
 70
     0
300
1-1/2" = 1'-0"
140
1.5
141
12.0
290
     0
  0
SCALE
  5
3789
102
{ACAD_REACTORS
330
377A
102
}
330
377A
100
AcDbScale
 70
     0
300
3" = 1'-0"
140
3.0
141
12.0
290
     0
  0
SCALE
  5
378A
102
{ACAD_REACTORS
330
377A
102
}
330
377A
100
AcDbScale
 70
     0
300
6" = 1'-0"
140
6.0
141
12.0
290
     0
  0
SCALE
  5
378B
102
{ACAD_REACTORS
330
377A
102
}
330
377A
100
AcDbScale
 70
     0
300
1'-0" = 1'-0"
140
12.0
141
12.0
290
     0
  0
ACDBSECTIONVIEWSTYLE
  5
378F
102
{ACAD_XDICTIONARY
360
37BF
102
}
102
{ACAD_REACTORS
330
378E
102
}
330
378E
100
AcDbModelDocViewStyle
 70
     0
  3
Imperial24
290
     0
100
AcDbSectionViewStyle
 70
     0
 71
     0
 90
       78
 71
     1
340
F95
 62
   256
 40
0.24
340
0
340
0
 62
   256
 40
0.24
300
I, O, Q, S, X, Z
 40
0.48
 90
        3
 40
0.18
 90
        1
 71
     2
340
12
 90
       25
 62
   256
340
12
 90
       50
 62
   256
 40
0.24
 40
0.0
 40
0.24
 71
     3
340
F95
 62
   256
 40
0.24
 90
        1
 40
0.75
 90
        1
300
%<\AcVar ViewType \f "%tc1">% %<\AcVar ViewSectionStartId>%-%<\AcVar ViewSectionEndId>%\PSCALE %<\AcVar ViewScale \f "%sn">%
 71
     4
 62
   256
 62
   257
300
ANSI31
 40
1.0
 90
        0
290
     0
290
     0
 90
        6
 40
0.0
 40
1.570796326794896
 40
0.2617993877991494
 40
1.308996938995747
 40
-0.2617993877991494
 40
1.832595714594045
  0
TABLESTYLE
  5
3779
102
{ACAD_XDICTIONARY
360
37B5
102
}
102
{ACAD_REACTORS
330
3778
102
}
330
3778
100
AcDbTableStyle
280
     0
  3
Standard
 70
     0
 71
     0
 40
0.06
 41
0.06
280
     0
281
     0
  7
STANDARD
140
0.18
170
     2
 62
     0
 63
     7
283
     0
 90
      512
 91
        0
  1

274
    -2
284
     1
 64
     0
275
    -2
285
     1
 65
     0
276
    -2
286
     1
 66
     0
277
    -2
287
     1
 67
     0
278
    -2
288
     1
 68
     0
279
    -2
289
     1
 69
     0
  7
STANDARD
140
0.25
170
     5
 62
     0
 63
     7
283
     0
 90
      512
 91
        0
  1

274
    -2
284
     1
 64
     0
275
    -2
285
     1
 65
     0
276
    -2
286
     1
 66
     0
277
    -2
287
     1
 67
     0
278
    -2
288
     1
 68
     0
279
    -2
289
     1
 69
     0
  7
STANDARD
140
0.18
170
     5
 62
     0
 63
     7
283
     0
 90
      512
 91
        0
  1

274
    -2
284
     1
 64
     0
275
    -2
285
     1
 65
     0
276
    -2
286
     1
 66
     0
277
    -2
287
     1
 67
     0
278
    -2
288
     1
 68
     0
279
    -2
289
     1
 69
     0
  0
VISUALSTYLE
  5
3763
102
{ACAD_REACTORS
330
375D
102
}
330
375D
100
AcDbVisualStyle
  2
2dWireframe
 70
     4
177
     3
291
     0
 70
    58
 90
        0
176
     1
 90
        2
176
     1
 90
        0
176
     1
 90
        0
176
     1
 40
0.6
176
     1
 40
30.0
176
     1
 62
     7
420
 16777215
176
     1
 90
        1
176
     1
 90
        4
176
     1
 62
     7
176
     1
 62
   257
176
     1
 90
        1
176
     1
 90
        1
176
     1
 40
1.0
176
     1
 90
        0
176
     1
 62
   257
176
     1
 40
1.0
176
     1
 90
        1
176
     1
 90
        6
176
     1
 90
        2
176
     1
 62
     7
176
     1
 90
        5
176
     1
 90
        0
176
     1
 90
        0
176
     1
290
     0
176
     1
 90
        1
176
     1
 40
0.0
176
     1
 90
        0
176
     1
290
     1
176
     1
290
     1
176
     1
290
     0
176
     1
290
     0
176
     1
290
     0
176
     1
290
     0
176
     1
290
     0
176
     1
290
     0
176
     1
290
     0
176
     1
 90
       50
176
     1
 40
0.0
176
     1
 40
1.0
176
     1
 90
        0
176
     1
 62
    18
176
     1
 90
       50
176
     1
 90
        3
176
     1
 62
     5
420
      255
176
     1
290
     0
176
     1
 90
       50
176
     1
 90
       50
176
     1
 90
       50
176
     1
290
     0
176
     1
 90
       50
176
     1
 62
   256
176
     0
 40
1.0
176
     0
 90
        2
176
     1
  1
strokes_ogs.tif
176
     1
290
     0
176
     1
 40
1.0
176
     1
 40
1.0
176
     1
1001
ACAD
1000
AcDbSavedByObjectVersion
1070
     0
  0
VISUALSTYLE
  5
3762
102
{ACAD_REACTORS
330
375D
102
}
330
375D
100
AcDbVisualStyle
  2
Basic
 70
     7
177
     3
291
     1
 70
    58
 90
        1
176
     1
 90
        0
176
     1
 90
        1
176
     1
 90
        0
176
     1
 40
0.6
176
     1
 40
30.0
176
     1
 62
     7
420
 16777215
176
     1
 90
        0
176
     1
 90
        4
176
     1
 62
     7
176
     1
 62
   257
176
     1
 90
        1
176
     1
 90
        1
176
     1
 40
1.0
176
     1
 90
        8
176
     1
 62
     7
176
     1
 40
1.0
176
     1
 90
        1
176
     1
 90
        6
176
     1
 90
        2
176
     1
 62
     7
176
     1
 90
        5
176
     1
 90
        0
176
     1
 90
        0
176
     1
290
     0
176
     1
 90
        1
176
     1
 40
0.0
176
     1
 90
        0
176
     1
290
     0
176
     1
290
     1
176
     1
290
     1
176
     1
290
     0
176
     1
290
     0
176
     1
290
     0
176
     1
290
     0
176
     1
290
     0
176
     1
290
     0
176
     1
 90
       50
176
     1
 40
0.0
176
     1
 40
1.0
176
     1
 90
        0
176
     1
 62
    18
176
     1
 90
       50
176
     1
 90
        3
176
     1
 62
     5
420
      255
176
     1
290
     0
176
     1
 90
       50
176
     1
 90
       50
176
     1
 90
       50
176
     1
290
     0
176
     1
 90
       50
176
     1
 62
   256
176
     0
 40
1.0
176
     0
 90
        2
176
     1
  1
strokes_ogs.tif
176
     1
290
     0
176
     1
 40
1.0
176
     1
 40
1.0
176
     1
1001
ACAD
1000
AcDbSavedByObjectVersion
1070
     0
  0
VISUALSTYLE
  5
3769
102
{ACAD_REACTORS
330
375D
102
}
330
375D
100
AcDbVisualStyle
  2
Brighten
 70
    12
177
     3
291
     1
 70
    58
 90
        2
176
     1
 90
        2
176
     1
 90
        0
176
     1
 90
        0
176
     1
 40
0.6
176
     1
 40
30.0
176
     1
 62
     7
420
 16777215
176
     1
 90
        1
176
     1
 90
        4
176
     1
 62
     7
176
     1
 62
   257
176
     1
 90
        1
176
     1
 90
        1
176
     1
 40
1.0
176
     1
 90
        8
176
     1
 62
     7
176
     1
 40
1.0
176
     1
 90
        1
176
     1
 90
        6
176
     1
 90
        2
176
     1
 62
     7
176
     1
 90
        5
176
     1
 90
        0
176
     1
 90
        0
176
     1
290
     0
176
     1
 90
        1
176
     1
 40
50.0
176
     1
 90
        0
176
     1
290
     0
176
     1
290
     1
176
     1
290
     1
176
     1
290
     0
176
     1
290
     0
176
     1
290
     0
176
     1
290
     0
176
     1
290
     0
176
     1
290
     0
176
     1
 90
       50
176
     1
 40
0.0
176
     1
 40
1.0
176
     1
 90
        0
176
     1
 62
    18
176
     1
 90
       50
176
     1
 90
        3
176
     1
 62
     5
420
      255
176
     1
290
     0
176
     1
 90
       50
176
     1
 90
       50
176
     1
 90
       50
176
     1
290
     0
176
     1
 90
       50
176
     1
 62
   256
176
     0
 40
1.0
176
     0
 90
        2
176
     1
  1
strokes_ogs.tif
176
     1
290
     0
176
     1
 40
1.0
176
     1
 40
1.0
176
     1
1001
ACAD
1000
AcDbSavedByObjectVersion
1070
     0
  0
VISUALSTYLE
  5
376D
102
{ACAD_REACTORS
330
375D
102
}
330
375D
100
AcDbVisualStyle
  2
ColorChange
 70
    16
177
     3
291
     1
 70
    58
 90
        2
176
     1
 90
        2
176
     1
 90
        3
176
     1
 90
        0
176
     1
 40
0.6
176
     1
 40
30.0
176
     1
 62
     8
420
  8421504
176
     1
 90
        1
176
     1
 90
        4
176
     1
 62
     7
176
     1
 62
   257
176
     1
 90
        1
176
     1
 90
        1
176
     1
 40
1.0
176
     1
 90
        8
176
     1
 62
     8
420
  8421504
176
     1
 40
1.0
176
     1
 90
        1
176
     1
 90
        6
176
     1
 90
        2
176
     1
 62
     7
176
     1
 90
        5
176
     1
 90
        0
176
     1
 90
        0
176
     1
290
     0
176
     1
 90
        1
176
     1
 40
0.0
176
     1
 90
        0
176
     1
290
     0
176
     1
290
     1
176
     1
290
     1
176
     1
290
     0
176
     1
290
     0
176
     1
290
     0
176
     1
290
     0
176
     1
290
     0
176
     1
290
     0
176
     1
 90
       50
176
     1
 40
0.0
176
     1
 40
1.0
176
     1
 90
        0
176
     1
 62
    18
176
     1
 90
       50
176
     1
 90
        3
176
     1
 62
     5
420
      255
176
     1
290
     0
176
     1
 90
       50
176
     1
 90
       50
176
     1
 90
       50
176
     1
290
     0
176
     1
 90
       50
176
     1
 62
   256
176
     0
 40
1.0
176
     0
 90
        2
176
     1
  1
strokes_ogs.tif
176
     1
290
     0
176
     1
 40
1.0
176
     1
 40
1.0
176
     1
1001
ACAD
1000
AcDbSavedByObjectVersion
1070
     0
  0
VISUALSTYLE
  5
3766
102
{ACAD_REACTORS
330
375D
102
}
330
375D
100
AcDbVisualStyle
  2
Conceptual
 70
     9
177
     3
291
     0
 70
    58
 90
        3
176
     1
 90
        2
176
     1
 90
        0
176
     1
 90
        0
176
     1
 40
0.6
176
     1
 40
30.0
176
     1
 62
     7
420
 16777215
176
     1
 90
        2
176
     1
 90
        2
176
     1
 62
     7
176
     1
 62
   257
176
     1
 90
        1
176
     1
 90
        1
176
     1
 40
179.0
176
     1
 90
        8
176
     1
 62
     7
176
     1
 40
1.0
176
     1
 90
        1
176
     1
 90
        6
176
     1
 90
        2
176
     1
 62
     7
176
     1
 90
        3
176
     1
 90
        0
176
     1
 90
        0
176
     1
290
     0
176
     1
 90
        1
176
     1
 40
0.0
176
     1
 90
        0
176
     1
290
     0
176
     1
290
     1
176
     1
290
     1
176
     1
290
     0
176
     1
290
     0
176
     1
290
     0
176
     1
290
     0
176
     1
290
     0
176
     1
290
     0
176
     1
 90
       50
176
     1
 40
0.0
176
     1
 40
1.0
176
     1
 90
        0
176
     1
 62
    18
176
     1
 90
       50
176
     1
 90
        3
176
     1
 62
     5
420
      255
176
     1
290
     0
176
     1
 90
       50
176
     1
 90
       50
176
     1
 90
       50
176
     1
290
     0
176
     1
 90
       50
176
     1
 62
   256
176
     0
 40
1.0
176
     0
 90
        2
176
     1
  1
strokes_ogs.tif
176
     1
290
     0
176
     1
 40
1.0
176
     1
 40
1.0
176
     1
1001
ACAD
1000
AcDbSavedByObjectVersion
1070
     0
  0
VISUALSTYLE
  5
3768
102
{ACAD_REACTORS
330
375D
102
}
330
375D
100
AcDbVisualStyle
  2
Dim
 70
    11
177
     3
291
     1
 70
    58
 90
        2
176
     1
 90
        2
176
     1
 90
        0
176
     1
 90
        0
176
     1
 40
0.6
176
     1
 40
30.0
176
     1
 62
     7
420
 16777215
176
     1
 90
        1
176
     1
 90
        4
176
     1
 62
     7
176
     1
 62
   257
176
     1
 90
        1
176
     1
 90
        1
176
     1
 40
1.0
176
     1
 90
        8
176
     1
 62
     7
176
     1
 40
1.0
176
     1
 90
        1
176
     1
 90
        6
176
     1
 90
        2
176
     1
 62
     7
176
     1
 90
        5
176
     1
 90
        0
176
     1
 90
        0
176
     1
290
     0
176
     1
 90
        1
176
     1
 40
-50.0
176
     1
 90
        0
176
     1
290
     0
176
     1
290
     1
176
     1
290
     1
176
     1
290
     0
176
     1
290
     0
176
     1
290
     0
176
     1
290
     0
176
     1
290
     0
176
     1
290
     0
176
     1
 90
       50
176
     1
 40
0.0
176
     1
 40
1.0
176
     1
 90
        0
176
     1
 62
    18
176
     1
 90
       50
176
     1
 90
        3
176
     1
 62
     5
420
      255
176
     1
290
     0
176
     1
 90
       50
176
     1
 90
       50
176
     1
 90
       50
176
     1
290
     0
176
     1
 90
       50
176
     1
 62
   256
176
     0
 40
1.0
176
     0
 90
        2
176
     1
  1
strokes_ogs.tif
176
     1
290
     0
176
     1
 40
1.0
176
     1
 40
1.0
176
     1
1001
ACAD
1000
AcDbSavedByObjectVersion
1070
     0
  0
VISUALSTYLE
  5
3775
102
{ACAD_REACTORS
330
375D
102
}
330
375D
100
AcDbVisualStyle
  2
EdgeColorOff
 70
    22
177
     3
291
     1
 70
    58
 90
        2
176
     0
 90
        2
176
     0
 90
        0
176
     0
 90
        0
176
     0
 40
0.6
176
     0
 40
30.0
176
     0
 62
     7
420
 16777215
176
     0
 90
        1
176
     0
 90
        4
176
     0
 62
     7
176
     0
 62
   257
176
     0
 90
        1
176
     0
 90
        1
176
     0
 40
1.0
176
     0
 90
        8
176
     2
 62
     7
176
     0
 40
1.0
176
     0
 90
        1
176
     0
 90
        6
176
     0
 90
        2
176
     0
 62
     7
176
     0
 90
        5
176
     0
 90
        0
176
     0
 90
        0
176
     0
290
     0
176
     0
 90
        1
176
     0
 40
0.0
176
     0
 90
        0
176
     0
290
     0
176
     1
290
     1
176
     1
290
     1
176
     1
290
     0
176
     1
290
     0
176
     1
290
     0
176
     1
290
     0
176
     1
290
     0
176
     1
290
     0
176
     1
 90
       50
176
     0
 40
0.0
176
     0
 40
1.0
176
     0
 90
        0
176
     0
 62
    18
176
     0
 90
       50
176
     0
 90
        3
176
     0
 62
     5
420
      255
176
     0
290
     0
176
     1
 90
       50
176
     0
 90
       50
176
     0
 90
       50
176
     0
290
     0
176
     1
 90
       50
176
     0
 62
   256
176
     0
 40
1.0
176
     0
 90
        2
176
     0
  1
strokes_ogs.tif
176
     0
290
     0
176
     1
 40
1.0
176
     0
 40
1.0
176
     0
1001
ACAD
1000
AcDbSavedByObjectVersion
1070
     0
  0
VISUALSTYLE
  5
376C
102
{ACAD_REACTORS
330
375D
102
}
330
375D
100
AcDbVisualStyle
  2
Facepattern
 70
    15
177
     3
291
     1
 70
    58
 90
        2
176
     1
 90
        2
176
     1
 90
        0
176
     1
 90
        0
176
     1
 40
0.6
176
     1
 40
30.0
176
     1
 62
     7
420
 16777215
176
     1
 90
        1
176
     1
 90
        4
176
     1
 62
     7
176
     1
 62
   257
176
     1
 90
        1
176
     1
 90
        1
176
     1
 40
1.0
176
     1
 90
        8
176
     1
 62
     7
176
     1
 40
1.0
176
     1
 90
        1
176
     1
 90
        6
176
     1
 90
        2
176
     1
 62
     7
176
     1
 90
        5
176
     1
 90
        0
176
     1
 90
        0
176
     1
290
     0
176
     1
 90
        1
176
     1
 40
0.0
176
     1
 90
        0
176
     1
290
     0
176
     1
290
     1
176
     1
290
     1
176
     1
290
     0
176
     1
290
     0
176
     1
290
     0
176
     1
290
     0
176
     1
290
     0
176
     1
290
     0
176
     1
 90
       50
176
     1
 40
0.0
176
     1
 40
1.0
176
     1
 90
        0
176
     1
 62
    18
176
     1
 90
       50
176
     1
 90
        3
176
     1
 62
     5
420
      255
176
     1
290
     0
176
     1
 90
       50
176
     1
 90
       50
176
     1
 90
       50
176
     1
290
     0
176
     1
 90
       50
176
     1
 62
   256
176
     0
 40
1.0
176
     0
 90
        2
176
     1
  1
strokes_ogs.tif
176
     1
290
     0
176
     1
 40
1.0
176
     1
 40
1.0
176
     1
1001
ACAD
1000
AcDbSavedByObjectVersion
1070
     0
  0
VISUALSTYLE
  5
375E
102
{ACAD_REACTORS
330
375D
102
}
330
375D
100
AcDbVisualStyle
  2
Flat
 70
     0
177
     3
291
     1
 70
    58
 90
        2
176
     1
 90
        1
176
     1
 90
        1
176
     1
 90
        2
176
     1
 40
0.6
176
     1
 40
30.0
176
     1
 62
     7
420
 16777215
176
     1
 90
        0
176
     1
 90
        0
176
     1
 62
     7
176
     1
 62
   257
176
     1
 90
        1
176
     1
 90
        1
176
     1
 40
1.0
176
     1
 90
        8
176
     1
 62
     7
176
     1
 40
1.0
176
     1
 90
        1
176
     1
 90
        6
176
     1
 90
        2
176
     1
 62
     7
176
     1
 90
        5
176
     1
 90
        0
176
     1
 90
        0
176
     1
290
     0
176
     1
 90
       13
176
     1
 40
0.0
176
     1
 90
        0
176
     1
290
     0
176
     1
290
     1
176
     1
290
     1
176
     1
290
     0
176
     1
290
     0
176
     1
290
     0
176
     1
290
     0
176
     1
290
     0
176
     1
290
     0
176
     1
 90
       50
176
     1
 40
0.0
176
     1
 40
1.0
176
     1
 90
        0
176
     1
 62
    18
176
     1
 90
       50
176
     1
 90
        3
176
     1
 62
     5
420
      255
176
     1
290
     0
176
     1
 90
       50
176
     1
 90
       50
176
     1
 90
       50
176
     1
290
     0
176
     1
 90
       50
176
     1
 62
   256
176
     0
 40
1.0
176
     0
 90
        2
176
     1
  1
strokes_ogs.tif
176
     1
290
     0
176
     1
 40
1.0
176
     1
 40
1.0
176
     1
1001
ACAD
1000
AcDbSavedByObjectVersion
1070
     0
  0
VISUALSTYLE
  5
375F
102
{ACAD_REACTORS
330
375D
102
}
330
375D
100
AcDbVisualStyle
  2
FlatWithEdges
 70
     1
177
     3
291
     1
 70
    58
 90
        2
176
     1
 90
        1
176
     1
 90
        1
176
     1
 90
        2
176
     1
 40
0.6
176
     1
 40
30.0
176
     1
 62
     7
420
 16777215
176
     1
 90
        1
176
     1
 90
        0
176
     1
 62
     7
176
     1
 62
   257
176
     1
 90
        1
176
     1
 90
        1
176
     1
 40
1.0
176
     1
 90
        0
176
     1
 62
   257
176
     1
 40
1.0
176
     1
 90
        1
176
     1
 90
        6
176
     1
 90
        2
176
     1
 62
     7
176
     1
 90
        5
176
     1
 90
        0
176
     1
 90
        0
176
     1
290
     0
176
     1
 90
       13
176
     1
 40
0.0
176
     1
 90
        0
176
     1
290
     0
176
     1
290
     1
176
     1
290
     1
176
     1
290
     0
176
     1
290
     0
176
     1
290
     0
176
     1
290
     0
176
     1
290
     0
176
     1
290
     0
176
     1
 90
       50
176
     1
 40
0.0
176
     1
 40
1.0
176
     1
 90
        0
176
     1
 62
    18
176
     1
 90
       50
176
     1
 90
        3
176
     1
 62
     5
420
      255
176
     1
290
     0
176
     1
 90
       50
176
     1
 90
       50
176
     1
 90
       50
176
     1
290
     0
176
     1
 90
       50
176
     1
 62
   256
176
     0
 40
1.0
176
     0
 90
        2
176
     1
  1
strokes_ogs.tif
176
     1
290
     0
176
     1
 40
1.0
176
     1
 40
1.0
176
     1
1001
ACAD
1000
AcDbSavedByObjectVersion
1070
     0
  0
VISUALSTYLE
  5
3760
102
{ACAD_REACTORS
330
375D
102
}
330
375D
100
AcDbVisualStyle
  2
Gouraud
 70
     2
177
     3
291
     1
 70
    58
 90
        2
176
     1
 90
        2
176
     1
 90
        1
176
     1
 90
        2
176
     1
 40
0.6
176
     1
 40
30.0
176
     1
 62
     7
420
 16777215
176
     1
 90
        0
176
     1
 90
        0
176
     1
 62
     7
176
     1
 62
   257
176
     1
 90
        1
176
     1
 90
        1
176
     1
 40
1.0
176
     1
 90
        0
176
     1
 62
     7
176
     1
 40
1.0
176
     1
 90
        1
176
     1
 90
        6
176
     1
 90
        2
176
     1
 62
     7
176
     1
 90
        5
176
     1
 90
        0
176
     1
 90
        0
176
     1
290
     0
176
     1
 90
       13
176
     1
 40
0.0
176
     1
 90
        0
176
     1
290
     0
176
     1
290
     1
176
     1
290
     1
176
     1
290
     0
176
     1
290
     0
176
     1
290
     0
176
     1
290
     0
176
     1
290
     0
176
     1
290
     0
176
     1
 90
       50
176
     1
 40
0.0
176
     1
 40
1.0
176
     1
 90
        0
176
     1
 62
    18
176
     1
 90
       50
176
     1
 90
        3
176
     1
 62
     5
420
      255
176
     1
290
     0
176
     1
 90
       50
176
     1
 90
       50
176
     1
 90
       50
176
     1
290
     0
176
     1
 90
       50
176
     1
 62
   256
176
     0
 40
1.0
176
     0
 90
        2
176
     1
  1
strokes_ogs.tif
176
     1
290
     0
176
     1
 40
1.0
176
     1
 40
1.0
176
     1
1001
ACAD
1000
AcDbSavedByObjectVersion
1070
     0
  0
VISUALSTYLE
  5
3761
102
{ACAD_REACTORS
330
375D
102
}
330
375D
100
AcDbVisualStyle
  2
GouraudWithEdges
 70
     3
177
     3
291
     1
 70
    58
 90
        2
176
     1
 90
        2
176
     1
 90
        1
176
     1
 90
        2
176
     1
 40
0.6
176
     1
 40
30.0
176
     1
 62
     7
420
 16777215
176
     1
 90
        1
176
     1
 90
        0
176
     1
 62
     7
176
     1
 62
   257
176
     1
 90
        1
176
     1
 90
        1
176
     1
 40
1.0
176
     1
 90
        0
176
     1
 62
   257
176
     1
 40
1.0
176
     1
 90
        1
176
     1
 90
        6
176
     1
 90
        2
176
     1
 62
     7
176
     1
 90
        5
176
     1
 90
        0
176
     1
 90
        0
176
     1
290
     0
176
     1
 90
       13
176
     1
 40
0.0
176
     1
 90
        0
176
     1
290
     0
176
     1
290
     1
176
     1
290
     1
176
     1
290
     0
176
     1
290
     0
176
     1
290
     0
176
     1
290
     0
176
     1
290
     0
176
     1
290
     0
176
     1
 90
       50
176
     1
 40
0.0
176
     1
 40
1.0
176
     1
 90
        0
176
     1
 62
    18
176
     1
 90
       50
176
     1
 90
        3
176
     1
 62
     5
420
      255
176
     1
290
     0
176
     1
 90
       50
176
     1
 90
       50
176
     1
 90
       50
176
     1
290
     0
176
     1
 90
       50
176
     1
 62
   256
176
     0
 40
1.0
176
     0
 90
        2
176
     1
  1
strokes_ogs.tif
176
     1
290
     0
176
     1
 40
1.0
176
     1
 40
1.0
176
     1
1001
ACAD
1000
AcDbSavedByObjectVersion
1070
     0
  0
VISUALSTYLE
  5
3765
102
{ACAD_REACTORS
330
375D
102
}
330
375D
100
AcDbVisualStyle
  2
Hidden
 70
     6
177
     3
291
     0
 70
    58
 90
        1
176
     1
 90
        2
176
     1
 90
        2
176
     1
 90
        0
176
     1
 40
0.6
176
     1
 40
30.0
176
     1
 62
     7
420
 16777215
176
     1
 90
        2
176
     1
 90
        2
176
     1
 62
     7
176
     1
 62
   257
176
     1
 90
        2
176
     1
 90
        1
176
     1
 40
40.0
176
     1
 90
        0
176
     1
 62
   257
176
     1
 40
1.0
176
     1
 90
        1
176
     1
 90
        6
176
     1
 90
        2
176
     1
 62
     7
176
     1
 90
        3
176
     1
 90
        0
176
     1
 90
        0
176
     1
290
     0
176
     1
 90
        1
176
     1
 40
0.0
176
     1
 90
        0
176
     1
290
     0
176
     1
290
     1
176
     1
290
     1
176
     1
290
     0
176
     1
290
     0
176
     1
290
     0
176
     1
290
     0
176
     1
290
     0
176
     1
290
     0
176
     1
 90
       50
176
     1
 40
0.0
176
     1
 40
1.0
176
     1
 90
        0
176
     1
 62
    18
176
     1
 90
       50
176
     1
 90
        3
176
     1
 62
     5
420
      255
176
     1
290
     0
176
     1
 90
       50
176
     1
 90
       50
176
     1
 90
       50
176
     1
290
     0
176
     1
 90
       50
176
     1
 62
   256
176
     0
 40
1.0
176
     0
 90
        2
176
     1
  1
strokes_ogs.tif
176
     1
290
     0
176
     1
 40
1.0
176
     1
 40
1.0
176
     1
1001
ACAD
1000
AcDbSavedByObjectVersion
1070
     0
  0
VISUALSTYLE
  5
3773
102
{ACAD_REACTORS
330
375D
102
}
330
375D
100
AcDbVisualStyle
  2
JitterOff
 70
    20
177
     3
291
     1
 70
    58
 90
        2
176
     0
 90
        2
176
     0
 90
        0
176
     0
 90
        0
176
     0
 40
0.6
176
     0
 40
30.0
176
     0
 62
     7
420
 16777215
176
     0
 90
        1
176
     0
 90
        4
176
     0
 62
     7
176
     0
 62
   257
176
     0
 90
        1
176
     0
 90
        1
176
     0
 40
1.0
176
     0
 90
       10
176
     2
 62
     7
176
     0
 40
1.0
176
     0
 90
        1
176
     0
 90
        6
176
     0
 90
        2
176
     0
 62
     7
176
     0
 90
        5
176
     0
 90
        0
176
     0
 90
        0
176
     0
290
     0
176
     0
 90
        1
176
     0
 40
0.0
176
     0
 90
        0
176
     0
290
     0
176
     1
290
     1
176
     1
290
     1
176
     1
290
     0
176
     1
290
     0
176
     1
290
     0
176
     1
290
     0
176
     1
290
     0
176
     1
290
     0
176
     1
 90
       50
176
     0
 40
0.0
176
     0
 40
1.0
176
     0
 90
        0
176
     0
 62
    18
176
     0
 90
       50
176
     0
 90
        3
176
     0
 62
     5
420
      255
176
     0
290
     0
176
     1
 90
       50
176
     0
 90
       50
176
     0
 90
       50
176
     0
290
     0
176
     1
 90
       50
176
     0
 62
   256
176
     0
 40
1.0
176
     0
 90
        2
176
     0
  1
strokes_ogs.tif
176
     0
290
     0
176
     1
 40
1.0
176
     0
 40
1.0
176
     0
1001
ACAD
1000
AcDbSavedByObjectVersion
1070
     0
  0
VISUALSTYLE
  5
376B
102
{ACAD_REACTORS
330
375D
102
}
330
375D
100
AcDbVisualStyle
  2
Linepattern
 70
    14
177
     3
291
     1
 70
    58
 90
        2
176
     1
 90
        2
176
     1
 90
        0
176
     1
 90
        0
176
     1
 40
0.6
176
     1
 40
30.0
176
     1
 62
     7
420
 16777215
176
     1
 90
        1
176
     1
 90
        4
176
     1
 62
     7
176
     1
 62
   257
176
     1
 90
        7
176
     1
 90
        7
176
     1
 40
1.0
176
     1
 90
        8
176
     1
 62
     7
176
     1
 40
1.0
176
     1
 90
        1
176
     1
 90
        6
176
     1
 90
        2
176
     1
 62
     7
176
     1
 90
        5
176
     1
 90
        0
176
     1
 90
        0
176
     1
290
     0
176
     1
 90
        1
176
     1
 40
0.0
176
     1
 90
        0
176
     1
290
     0
176
     1
290
     1
176
     1
290
     1
176
     1
290
     0
176
     1
290
     0
176
     1
290
     0
176
     1
290
     0
176
     1
290
     0
176
     1
290
     0
176
     1
 90
       50
176
     1
 40
0.0
176
     1
 40
1.0
176
     1
 90
        0
176
     1
 62
    18
176
     1
 90
       50
176
     1
 90
        3
176
     1
 62
     5
420
      255
176
     1
290
     0
176
     1
 90
       50
176
     1
 90
       50
176
     1
 90
       50
176
     1
290
     0
176
     1
 90
       50
176
     1
 62
   256
176
     0
 40
1.0
176
     0
 90
        2
176
     1
  1
strokes_ogs.tif
176
     1
290
     0
176
     1
 40
1.0
176
     1
 40
1.0
176
     1
1001
ACAD
1000
AcDbSavedByObjectVersion
1070
     0
  0
VISUALSTYLE
  5
3774
102
{ACAD_REACTORS
330
375D
102
}
330
375D
100
AcDbVisualStyle
  2
OverhangOff
 70
    21
177
     3
291
     1
 70
    58
 90
        2
176
     0
 90
        2
176
     0
 90
        0
176
     0
 90
        0
176
     0
 40
0.6
176
     0
 40
30.0
176
     0
 62
     7
420
 16777215
176
     0
 90
        1
176
     0
 90
        4
176
     0
 62
     7
176
     0
 62
   257
176
     0
 90
        1
176
     0
 90
        1
176
     0
 40
1.0
176
     0
 90
        9
176
     2
 62
     7
176
     0
 40
1.0
176
     0
 90
        1
176
     0
 90
        6
176
     0
 90
        2
176
     0
 62
     7
176
     0
 90
        5
176
     0
 90
        0
176
     0
 90
        0
176
     0
290
     0
176
     0
 90
        1
176
     0
 40
0.0
176
     0
 90
        0
176
     0
290
     0
176
     1
290
     1
176
     1
290
     1
176
     1
290
     0
176
     1
290
     0
176
     1
290
     0
176
     1
290
     0
176
     1
290
     0
176
     1
290
     0
176
     1
 90
       50
176
     0
 40
0.0
176
     0
 40
1.0
176
     0
 90
        0
176
     0
 62
    18
176
     0
 90
       50
176
     0
 90
        3
176
     0
 62
     5
420
      255
176
     0
290
     0
176
     1
 90
       50
176
     0
 90
       50
176
     0
 90
       50
176
     0
290
     0
176
     1
 90
       50
176
     0
 62
   256
176
     0
 40
1.0
176
     0
 90
        2
176
     0
  1
strokes_ogs.tif
176
     0
290
     0
176
     1
 40
1.0
176
     0
 40
1.0
176
     0
1001
ACAD
1000
AcDbSavedByObjectVersion
1070
     0
  0
VISUALSTYLE
  5
3767
102
{ACAD_REACTORS
330
375D
102
}
330
375D
100
AcDbVisualStyle
  2
Realistic
 70
     8
177
     3
291
     0
 70
    58
 90
        2
176
     1
 90
        3
176
     1
 90
        0
176
     1
 90
        2
176
     1
 40
0.6
176
     1
 40
30.0
176
     1
 62
     7
420
 16777215
176
     1
 90
        0
176
     1
 90
        0
176
     1
 62
     7
176
     1
 62
   257
176
     1
 90
        1
176
     1
 90
        1
176
     1
 40
1.0
176
     1
 90
        8
176
     1
 62
   257
176
     1
 40
1.0
176
     1
 90
        1
176
     1
 90
        6
176
     1
 90
        2
176
     1
 62
     7
176
     1
 90
        3
176
     1
 90
        0
176
     1
 90
        0
176
     1
290
     0
176
     1
 90
       13
176
     1
 40
0.0
176
     1
 90
        0
176
     1
290
     0
176
     1
290
     1
176
     1
290
     1
176
     1
290
     0
176
     1
290
     0
176
     1
290
     0
176
     1
290
     0
176
     1
290
     0
176
     1
290
     0
176
     1
 90
       50
176
     1
 40
0.0
176
     1
 40
1.0
176
     1
 90
        0
176
     1
 62
    18
176
     1
 90
       50
176
     1
 90
        3
176
     1
 62
     5
420
      255
176
     1
290
     0
176
     1
 90
       50
176
     1
 90
       50
176
     1
 90
       50
176
     1
290
     0
176
     1
 90
       50
176
     1
 62
   256
176
     0
 40
1.0
176
     0
 90
        2
176
     1
  1
strokes_ogs.tif
176
     1
290
     0
176
     1
 40
1.0
176
     1
 40
1.0
176
     1
1001
ACAD
1000
AcDbSavedByObjectVersion
1070
     0
  0
VISUALSTYLE
  5
3772
102
{ACAD_REACTORS
330
375D
102
}
330
375D
100
AcDbVisualStyle
  2
Shaded
 70
    27
177
     3
291
     0
 70
    58
 90
        2
176
     1
 90
        2
176
     1
 90
        1
176
     1
 90
        2
176
     1
 40
0.6
176
     1
 40
30.0
176
     1
 62
     7
420
 16777215
176
     1
 90
        0
176
     1
 90
        4
176
     1
 62
     7
176
     1
 62
   257
176
     1
 90
        1
176
     1
 90
        1
176
     1
 40
1.0
176
     1
 90
        8
176
     1
 62
   257
176
     1
 40
1.0
176
     1
 90
        1
176
     1
 90
        6
176
     1
 90
        2
176
     1
 62
     8
420
  7895160
176
     1
 90
        3
176
     1
 90
        0
176
     1
 90
        0
176
     1
290
     0
176
     1
 90
        5
176
     1
 40
0.0
176
     1
 90
        0
176
     1
290
     0
176
     1
290
     1
176
     1
290
     1
176
     1
290
     0
176
     1
290
     0
176
     1
290
     0
176
     1
290
     0
176
     1
290
     0
176
     1
290
     0
176
     1
 90
       50
176
     1
 40
0.0
176
     1
 40
1.0
176
     1
 90
        0
176
     1
 62
    18
176
     1
 90
       50
176
     1
 90
        3
176
     1
 62
     5
420
      255
176
     1
290
     0
176
     1
 90
       50
176
     1
 90
       50
176
     1
 90
       50
176
     1
290
     0
176
     1
 90
       50
176
     1
 62
   256
176
     0
 40
1.0
176
     0
 90
        2
176
     1
  1
strokes_ogs.tif
176
     1
290
     0
176
     1
 40
1.0
176
     1
 40
1.0
176
     1
1001
ACAD
1000
AcDbSavedByObjectVersion
1070
     0
  0
VISUALSTYLE
  5
3771
102
{ACAD_REACTORS
330
375D
102
}
330
375D
100
AcDbVisualStyle
  2
Shaded with edges
 70
    26
177
     3
291
     0
 70
    58
 90
        2
176
     1
 90
        2
176
     1
 90
        1
176
     1
 90
        2
176
     1
 40
0.6
176
     1
 40
30.0
176
     1
 62
     7
420
 16777215
176
     1
 90
        1
176
     1
 90
        2
176
     1
 62
     7
176
     1
 62
   257
176
     1
 90
        2
176
     1
 90
        1
176
     1
 40
1.0
176
     1
 90
        8
176
     1
 62
   257
176
     1
 40
1.0
176
     1
 90
        1
176
     1
 90
        6
176
     1
 90
        2
176
     1
 62
     7
176
     1
 90
        3
176
     1
 90
        0
176
     1
 90
        0
176
     1
290
     0
176
     1
 90
        5
176
     1
 40
0.0
176
     1
 90
        0
176
     1
290
     0
176
     1
290
     1
176
     1
290
     1
176
     1
290
     0
176
     1
290
     0
176
     1
290
     0
176
     1
290
     0
176
     1
290
     0
176
     1
290
     0
176
     1
 90
       50
176
     1
 40
0.0
176
     1
 40
1.0
176
     1
 90
        0
176
     1
 62
    18
176
     1
 90
       50
176
     1
 90
        3
176
     1
 62
     5
420
      255
176
     1
290
     0
176
     1
 90
       50
176
     1
 90
       50
176
     1
 90
       50
176
     1
290
     0
176
     1
 90
       50
176
     1
 62
   256
176
     0
 40
1.0
176
     0
 90
        2
176
     1
  1
strokes_ogs.tif
176
     1
290
     0
176
     1
 40
1.0
176
     1
 40
1.0
176
     1
1001
ACAD
1000
AcDbSavedByObjectVersion
1070
     0
  0
VISUALSTYLE
  5
376E
102
{ACAD_REACTORS
330
375D
102
}
330
375D
100
AcDbVisualStyle
  2
Shades of Gray
 70
    23
177
     3
291
     0
 70
    58
 90
        2
176
     1
 90
        2
176
     1
 90
        3
176
     1
 90
        0
176
     1
 40
0.6
176
     1
 40
30.0
176
     1
 62
     7
420
 16777215
176
     1
 90
        2
176
     1
 90
        2
176
     1
 62
     7
176
     1
 62
     7
176
     1
 90
        1
176
     1
 90
        1
176
     1
 40
40.0
176
     1
 90
        8
176
     1
 62
     7
176
     1
 40
1.0
176
     1
 90
        1
176
     1
 90
        6
176
     1
 90
        2
176
     1
 62
     7
176
     1
 90
        3
176
     1
 90
        0
176
     1
 90
        0
176
     1
290
     0
176
     1
 90
        1
176
     1
 40
0.0
176
     1
 90
        0
176
     1
290
     0
176
     1
290
     1
176
     1
290
     1
176
     1
290
     0
176
     1
290
     0
176
     1
290
     0
176
     1
290
     0
176
     1
290
     0
176
     1
290
     0
176
     1
 90
       50
176
     1
 40
0.0
176
     1
 40
1.0
176
     1
 90
        0
176
     1
 62
    18
176
     1
 90
       50
176
     1
 90
        3
176
     1
 62
     5
420
      255
176
     1
290
     0
176
     1
 90
       50
176
     1
 90
       50
176
     1
 90
       50
176
     1
290
     0
176
     1
 90
       50
176
     1
 62
   256
176
     0
 40
1.0
176
     0
 90
        2
176
     1
  1
strokes_ogs.tif
176
     1
290
     0
176
     1
 40
1.0
176
     1
 40
1.0
176
     1
1001
ACAD
1000
AcDbSavedByObjectVersion
1070
     0
  0
VISUALSTYLE
  5
376F
102
{ACAD_REACTORS
330
375D
102
}
330
375D
100
AcDbVisualStyle
  2
Sketchy
 70
    24
177
     3
291
     0
 70
    58
 90
        1
176
     1
 90
        2
176
     1
 90
        2
176
     1
 90
        0
176
     1
 40
0.6
176
     1
 40
30.0
176
     1
 62
     7
420
 16777215
176
     1
 90
        2
176
     1
 90
        2
176
     1
 62
     7
176
     1
 62
     7
176
     1
 90
        1
176
     1
 90
        1
176
     1
 40
40.0
176
     1
 90
       11
176
     1
 62
     7
176
     1
 40
1.0
176
     1
 90
        1
176
     1
 90
        6
176
     1
 90
        2
176
     1
 62
     7
176
     1
 90
        6
176
     1
 90
        0
176
     1
 90
        0
176
     1
290
     0
176
     1
 90
        1
176
     1
 40
0.0
176
     1
 90
        0
176
     1
290
     0
176
     1
290
     1
176
     1
290
     1
176
     1
290
     0
176
     1
290
     0
176
     1
290
     0
176
     1
290
     0
176
     1
290
     0
176
     1
290
     0
176
     1
 90
       50
176
     1
 40
0.0
176
     1
 40
1.0
176
     1
 90
        0
176
     1
 62
    18
176
     1
 90
       50
176
     1
 90
        3
176
     1
 62
     5
420
      255
176
     1
290
     0
176
     1
 90
       50
176
     1
 90
       50
176
     1
 90
       50
176
     1
290
     0
176
     1
 90
       50
176
     1
 62
   256
176
     0
 40
1.0
176
     0
 90
        2
176
     1
  1
strokes_ogs.tif
176
     1
290
     0
176
     1
 40
1.0
176
     1
 40
1.0
176
     1
1001
ACAD
1000
AcDbSavedByObjectVersion
1070
     0
  0
VISUALSTYLE
  5
376A
102
{ACAD_REACTORS
330
375D
102
}
330
375D
100
AcDbVisualStyle
  2
Thicken
 70
    13
177
     3
291
     1
 70
    58
 90
        2
176
     1
 90
        2
176
     1
 90
        0
176
     1
 90
        0
176
     1
 40
0.6
176
     1
 40
30.0
176
     1
 62
     7
420
 16777215
176
     1
 90
        1
176
     1
 90
        4
176
     1
 62
     7
176
     1
 62
   257
176
     1
 90
        1
176
     1
 90
        1
176
     1
 40
1.0
176
     1
 90
       12
176
     1
 62
     7
176
     1
 40
1.0
176
     1
 90
        1
176
     1
 90
        6
176
     1
 90
        2
176
     1
 62
     7
176
     1
 90
        5
176
     1
 90
        0
176
     1
 90
        0
176
     1
290
     0
176
     1
 90
        1
176
     1
 40
0.0
176
     1
 90
        0
176
     1
290
     0
176
     1
290
     1
176
     1
290
     1
176
     1
290
     0
176
     1
290
     0
176
     1
290
     0
176
     1
290
     0
176
     1
290
     0
176
     1
290
     0
176
     1
 90
       50
176
     1
 40
0.0
176
     1
 40
1.0
176
     1
 90
        0
176
     1
 62
    18
176
     1
 90
       50
176
     1
 90
        3
176
     1
 62
     5
420
      255
176
     1
290
     0
176
     1
 90
       50
176
     1
 90
       50
176
     1
 90
       50
176
     1
290
     0
176
     1
 90
       50
176
     1
 62
   256
176
     0
 40
1.0
176
     0
 90
        2
176
     1
  1
strokes_ogs.tif
176
     1
290
     0
176
     1
 40
1.0
176
     1
 40
1.0
176
     1
1001
ACAD
1000
AcDbSavedByObjectVersion
1070
     0
  0
VISUALSTYLE
  5
3764
102
{ACAD_REACTORS
330
375D
102
}
330
375D
100
AcDbVisualStyle
  2
Wireframe
 70
     5
177
     3
291
     0
 70
    58
 90
        0
176
     1
 90
        2
176
     1
 90
        0
176
     1
 90
        0
176
     1
 40
0.6
176
     1
 40
30.0
176
     1
 62
     7
420
 16777215
176
     1
 90
        1
176
     1
 90
        4
176
     1
 62
     7
176
     1
 62
   257
176
     1
 90
        1
176
     1
 90
        1
176
     1
 40
1.0
176
     1
 90
        0
176
     1
 62
   257
176
     1
 40
1.0
176
     1
 90
        1
176
     1
 90
        6
176
     1
 90
        2
176
     1
 62
     7
176
     1
 90
        3
176
     1
 90
        0
176
     1
 90
        0
176
     1
290
     0
176
     1
 90
        1
176
     1
 40
0.0
176
     1
 90
        0
176
     1
290
     0
176
     1
290
     1
176
     1
290
     1
176
     1
290
     0
176
     1
290
     0
176
     1
290
     0
176
     1
290
     0
176
     1
290
     0
176
     1
290
     0
176
     1
 90
       50
176
     1
 40
0.0
176
     1
 40
1.0
176
     1
 90
        0
176
     1
 62
    18
176
     1
 90
       50
176
     1
 90
        3
176
     1
 62
     5
420
      255
176
     1
290
     0
176
     1
 90
       50
176
     1
 90
       50
176
     1
 90
       50
176
     1
290
     0
176
     1
 90
       50
176
     1
 62
   256
176
     0
 40
1.0
176
     0
 90
        2
176
     1
  1
strokes_ogs.tif
176
     1
290
     0
176
     1
 40
1.0
176
     1
 40
1.0
176
     1
1001
ACAD
1000
AcDbSavedByObjectVersion
1070
     0
  0
VISUALSTYLE
  5
3770
102
{ACAD_REACTORS
330
375D
102
}
330
375D
100
AcDbVisualStyle
  2
X-Ray
 70
    25
177
     3
291
     0
 70
    58
 90
        2
176
     1
 90
        2
176
     1
 90
        1
176
     1
 90
        1
176
     1
 40
0.5
176
     1
 40
30.0
176
     1
 62
     7
420
 16777215
176
     1
 90
        1
176
     1
 90
        0
176
     1
 62
     7
176
     1
 62
   257
176
     1
 90
        1
176
     1
 90
        1
176
     1
 40
1.0
176
     1
 90
        8
176
     1
 62
     7
176
     1
 40
1.0
176
     1
 90
        1
176
     1
 90
        6
176
     1
 90
        2
176
     1
 62
     7
176
     1
 90
        3
176
     1
 90
        0
176
     1
 90
        0
176
     1
290
     0
176
     1
 90
       13
176
     1
 40
0.0
176
     1
 90
        0
176
     1
290
     0
176
     1
290
     1
176
     1
290
     1
176
     1
290
     0
176
     1
290
     0
176
     1
290
     0
176
     1
290
     0
176
     1
290
     0
176
     1
290
     0
176
     1
 90
       50
176
     1
 40
0.0
176
     1
 40
1.0
176
     1
 90
        0
176
     1
 62
    18
176
     1
 90
       50
176
     1
 90
        3
176
     1
 62
     5
420
      255
176
     1
290
     0
176
     1
 90
       50
176
     1
 90
       50
176
     1
 90
       50
176
     1
290
     0
176
     1
 90
       50
176
     1
 62
   256
176
     0
 40
1.0
176
     0
 90
        2
176
     1
  1
strokes_ogs.tif
176
     1
290
     0
176
     1
 40
1.0
176
     1
 40
1.0
176
     1
1001
ACAD
1000
AcDbSavedByObjectVersion
1070
     0
  0
DICTIONARYVAR
  5
37B0
102
{ACAD_REACTORS
330
37AA
102
}
330
37AA
100
DictionaryVariables
280
     0
  1
1:1
  0
DICTIONARYVAR
  5
37AC
102
{ACAD_REACTORS
330
37AA
102
}
330
37AA
100
DictionaryVariables
280
     0
  1
STANDARD
  0
DICTIONARYVAR
  5
37AB
102
{ACAD_REACTORS
330
37AA
102
}
330
37AA
100
DictionaryVariables
280
     0
  1
STANDARD
  0
DICTIONARYVAR
  5
37AD
102
{ACAD_REACTORS
330
37AA
102
}
330
37AA
100
DictionaryVariables
280
     0
  1
Imperial24
  0
DICTIONARYVAR
  5
37AE
102
{ACAD_REACTORS
330
37AA
102
}
330
37AA
100
DictionaryVariables
280
     0
  1
Imperial24
  0
DICTIONARYVAR
  5
37B2
102
{ACAD_REACTORS
330
37AA
102
}
330
37AA
100
DictionaryVariables
280
     0
  1
1
  0
DICTIONARYVAR
  5
37B3
102
{ACAD_REACTORS
330
37AA
102
}
330
37AA
100
DictionaryVariables
280
     0
  1
15
  0
DICTIONARYVAR
  5
37B1
102
{ACAD_REACTORS
330
37AA
102
}
330
37AA
100
DictionaryVariables
280
     0
  1
0
  0
DICTIONARYVAR
  5
37AF
102
{ACAD_REACTORS
330
37AA
102
}
330
37AA
100
DictionaryVariables
280
     0
  1
0
  0
XRECORD
  5
37A9
102
{ACAD_REACTORS
330
37A7
102
}
330
37A7
100
AcDbXrecord
280
     1
  0
DICTIONARY
  5
37C1
330
3791
100
AcDbDictionary
280
     1
281
     1
  3
ACAD_XREC_ROUNDTRIP
360
37C2
  0
DICTIONARY
  5
374E
330
374D
100
AcDbDictionary
280
     1
281
     1
  3
BUMPTILE
360
3750
  3
DIFFUSETILE
360
374F
  3
OPACITYTILE
360
3753
  3
REFLECTIONTILE
360
3752
  3
REFRACTIONTILE
360
3754
  3
SPECULARTILE
360
3751
  0
DICTIONARY
  5
3746
330
3745
100
AcDbDictionary
280
     1
281
     1
  3
BUMPTILE
360
3748
  3
DIFFUSETILE
360
3747
  3
OPACITYTILE
360
374B
  3
REFLECTIONTILE
360
374A
  3
REFRACTIONTILE
360
374C
  3
SPECULARTILE
360
3749
  0
DICTIONARY
  5
3756
330
3755
100
AcDbDictionary
280
     1
281
     1
  3
BUMPTILE
360
3758
  3
DIFFUSETILE
360
3757
  3
OPACITYTILE
360
375B
  3
REFLECTIONTILE
360
375A
  3
REFRACTIONTILE
360
375C
  3
SPECULARTILE
360
3759
  0
DICTIONARY
  5
37BF
330
378F
100
AcDbDictionary
280
     1
281
     1
  3
ACAD_XREC_ROUNDTRIP
360
37C0
  0
DICTIONARY
  5
37B5
330
3779
100
AcDbDictionary
280
     1
281
     1
  3
ACAD_ROUNDTRIP_2008_TABLESTYLE_CELLSTYLEMAP
360
37BD
  0
XRECORD
  5
37C2
102
{ACAD_REACTORS
330
37C1
102
}
330
37C1
100
AcDbXrecord
280
     1
102
DISPLAYNAME
  1
Imperial24
102
FLAGS
 90
        0
  0
XRECORD
  5
3750
102
{ACAD_REACTORS
330
374E
102
}
330
374E
100
AcDbXrecord
280
     1
270
     1
271
     1
  0
XRECORD
  5
374F
102
{ACAD_REACTORS
330
374E
102
}
330
374E
100
AcDbXrecord
280
     1
270
     1
271
     1
  0
XRECORD
  5
3753
102
{ACAD_REACTORS
330
374E
102
}
330
374E
100
AcDbXrecord
280
     1
270
     1
271
     1
  0
XRECORD
  5
3752
102
{ACAD_REACTORS
330
374E
102
}
330
374E
100
AcDbXrecord
280
     1
270
     1
271
     1
  0
XRECORD
  5
3754
102
{ACAD_REACTORS
330
374E
102
}
330
374E
100
AcDbXrecord
280
     1
270
     1
271
     1
  0
XRECORD
  5
3751
102
{ACAD_REACTORS
330
374E
102
}
330
374E
100
AcDbXrecord
280
     1
270
     1
271
     1
  0
XRECORD
  5
3748
102
{ACAD_REACTORS
330
3746
102
}
330
3746
100
AcDbXrecord
280
     1
270
     1
271
     1
  0
XRECORD
  5
3747
102
{ACAD_REACTORS
330
3746
102
}
330
3746
100
AcDbXrecord
280
     1
270
     1
271
     1
  0
XRECORD
  5
374B
102
{ACAD_REACTORS
330
3746
102
}
330
3746
100
AcDbXrecord
280
     1
270
     1
271
     1
  0
XRECORD
  5
374A
102
{ACAD_REACTORS
330
3746
102
}
330
3746
100
AcDbXrecord
280
     1
270
     1
271
     1
  0
XRECORD
  5
374C
102
{ACAD_REACTORS
330
3746
102
}
330
3746
100
AcDbXrecord
280
     1
270
     1
271
     1
  0
XRECORD
  5
3749
102
{ACAD_REACTORS
330
3746
102
}
330
3746
100
AcDbXrecord
280
     1
270
     1
271
     1
  0
XRECORD
  5
3758
102
{ACAD_REACTORS
330
3756
102
}
330
3756
100
AcDbXrecord
280
     1
270
     1
271
     1
  0
XRECORD
  5
3757
102
{ACAD_REACTORS
330
3756
102
}
330
3756
100
AcDbXrecord
280
     1
270
     1
271
     1
  0
XRECORD
  5
375B
102
{ACAD_REACTORS
330
3756
102
}
330
3756
100
AcDbXrecord
280
     1
270
     1
271
     1
  0
XRECORD
  5
375A
102
{ACAD_REACTORS
330
3756
102
}
330
3756
100
AcDbXrecord
280
     1
270
     1
271
     1
  0
XRECORD
  5
375C
102
{ACAD_REACTORS
330
3756
102
}
330
3756
100
AcDbXrecord
280
     1
270
     1
271
     1
  0
XRECORD
  5
3759
102
{ACAD_REACTORS
330
3756
102
}
330
3756
100
AcDbXrecord
280
     1
270
     1
271
     1
  0
XRECORD
  5
37C0
102
{ACAD_REACTORS
330
37BF
102
}
330
37BF
100
AcDbXrecord
280
     1
102
DISPLAYNAME
  1
Imperial24
102
FLAGS
 90
        0
  0
CELLSTYLEMAP
  5
37BD
102
{ACAD_REACTORS
330
37B5
102
}
330
37B5
100
AcDbCellStyleMap
 90
        3
300
CELLSTYLE
  1
TABLEFORMAT_BEGIN
 90
        5
170
     1
 91
        0
 92
    32768
 62
   257
 93
        1
300
CONTENTFORMAT
  1
CONTENTFORMAT_BEGIN
 90
        0
 91
        0
 92
      512
 93
        0
300

 40
0.0
140
1.0
 94
        5
 62
     0
340
F95
144
0.25
309
CONTENTFORMAT_END
171
     1
301
MARGIN
  1
CELLMARGIN_BEGIN
 40
0.06
 40
0.06
 40
0.06
 40
0.06
 40
0.18
 40
0.18
309
CELLMARGIN_END
 94
        6
 95
        1
302
GRIDFORMAT
  1
GRIDFORMAT_BEGIN
 90
        0
 91
        1
 62
     0
 92
       -2
340
0
 93
        0
 40
0.045
309
GRIDFORMAT_END
 95
        2
302
GRIDFORMAT
  1
GRIDFORMAT_BEGIN
 90
        0
 91
        1
 62
     0
 92
       -2
340
0
 93
        0
 40
0.045
309
GRIDFORMAT_END
 95
        4
302
GRIDFORMAT
  1
GRIDFORMAT_BEGIN
 90
        0
 91
        1
 62
     0
 92
       -2
340
0
 93
        0
 40
0.045
309
GRIDFORMAT_END
 95
        8
302
GRIDFORMAT
  1
GRIDFORMAT_BEGIN
 90
        0
 91
        1
 62
     0
 92
       -2
340
0
 93
        0
 40
0.045
309
GRIDFORMAT_END
 95
       16
302
GRIDFORMAT
  1
GRIDFORMAT_BEGIN
 90
        0
 91
        1
 62
     0
 92
       -2
340
0
 93
        0
 40
0.045
309
GRIDFORMAT_END
 95
       32
302
GRIDFORMAT
  1
GRIDFORMAT_BEGIN
 90
        0
 91
        1
 62
     0
 92
       -2
340
0
 93
        0
 40
0.045
309
GRIDFORMAT_END
309
TABLEFORMAT_END
  1
CELLSTYLE_BEGIN
 90
        1
 91
        1
300
_TITLE
309
CELLSTYLE_END
300
CELLSTYLE
  1
TABLEFORMAT_BEGIN
 90
        5
170
     1
 91
        0
 92
        0
 62
   257
 93
        1
300
CONTENTFORMAT
  1
CONTENTFORMAT_BEGIN
 90
        0
 91
        0
 92
      512
 93
        0
300

 40
0.0
140
1.0
 94
        5
 62
     0
340
F95
144
0.18
309
CONTENTFORMAT_END
171
     1
301
MARGIN
  1
CELLMARGIN_BEGIN
 40
0.06
 40
0.06
 40
0.06
 40
0.06
 40
0.18
 40
0.18
309
CELLMARGIN_END
 94
        6
 95
        1
302
GRIDFORMAT
  1
GRIDFORMAT_BEGIN
 90
        0
 91
        1
 62
     0
 92
       -2
340
0
 93
        0
 40
0.045
309
GRIDFORMAT_END
 95
        2
302
GRIDFORMAT
  1
GRIDFORMAT_BEGIN
 90
        0
 91
        1
 62
     0
 92
       -2
340
0
 93
        0
 40
0.045
309
GRIDFORMAT_END
 95
        4
302
GRIDFORMAT
  1
GRIDFORMAT_BEGIN
 90
        0
 91
        1
 62
     0
 92
       -2
340
0
 93
        0
 40
0.045
309
GRIDFORMAT_END
 95
        8
302
GRIDFORMAT
  1
GRIDFORMAT_BEGIN
 90
        0
 91
        1
 62
     0
 92
       -2
340
0
 93
        0
 40
0.045
309
GRIDFORMAT_END
 95
       16
302
GRIDFORMAT
  1
GRIDFORMAT_BEGIN
 90
        0
 91
        1
 62
     0
 92
       -2
340
0
 93
        0
 40
0.045
309
GRIDFORMAT_END
 95
       32
302
GRIDFORMAT
  1
GRIDFORMAT_BEGIN
 90
        0
 91
        1
 62
     0
 92
       -2
340
0
 93
        0
 40
0.045
309
GRIDFORMAT_END
309
TABLEFORMAT_END
  1
CELLSTYLE_BEGIN
 90
        2
 91
        1
300
_HEADER
309
CELLSTYLE_END
300
CELLSTYLE
  1
TABLEFORMAT_BEGIN
 90
        5
170
     1
 91
        0
 92
        0
 62
   257
 93
        1
300
CONTENTFORMAT
  1
CONTENTFORMAT_BEGIN
 90
        0
 91
        0
 92
      512
 93
        0
300

 40
0.0
140
1.0
 94
        2
 62
     0
340
F95
144
0.18
309
CONTENTFORMAT_END
171
     1
301
MARGIN
  1
CELLMARGIN_BEGIN
 40
0.06
 40
0.06
 40
0.06
 40
0.06
 40
0.18
 40
0.18
309
CELLMARGIN_END
 94
        6
 95
        1
302
GRIDFORMAT
  1
GRIDFORMAT_BEGIN
 90
        0
 91
        1
 62
     0
 92
       -2
340
0
 93
        0
 40
0.045
309
GRIDFORMAT_END
 95
        2
302
GRIDFORMAT
  1
GRIDFORMAT_BEGIN
 90
        0
 91
        1
 62
     0
 92
       -2
340
0
 93
        0
 40
0.045
309
GRIDFORMAT_END
 95
        4
302
GRIDFORMAT
  1
GRIDFORMAT_BEGIN
 90
        0
 91
        1
 62
     0
 92
       -2
340
0
 93
        0
 40
0.045
309
GRIDFORMAT_END
 95
        8
302
GRIDFORMAT
  1
GRIDFORMAT_BEGIN
 90
        0
 91
        1
 62
     0
 92
       -2
340
0
 93
        0
 40
0.045
309
GRIDFORMAT_END
 95
       16
302
GRIDFORMAT
  1
GRIDFORMAT_BEGIN
 90
        0
 91
        1
 62
     0
 92
       -2
340
0
 93
        0
 40
0.045
309
GRIDFORMAT_END
 95
       32
302
GRIDFORMAT
  1
GRIDFORMAT_BEGIN
 90
        0
 91
        1
 62
     0
 92
       -2
340
0
 93
        0
 40
0.045
309
GRIDFORMAT_END
309
TABLEFORMAT_END
  1
CELLSTYLE_BEGIN
 90
        3
 91
        2
300
_DATA
309
CELLSTYLE_END
  0
ENDSEC
  0
EOF
