  0
SECTION
  2
HEADER
  9
$ACADVER
  1
AC1032
  9
$ACADMAINTVER
 90
4
  9
$DWGCODEPAGE
  3
ANSI_1252
  9
$LASTSAVEDBY
  1
sarevalo
  9
$REQUIREDVERSIONS
160
0
  9
$INSBASE
 10
0.0
 20
0.0
 30
0.0
  9
$EXTMIN
 10
-12500.0
 20
-25000.0
 30
0.0
  9
$EXTMAX
 10
-12475.0
 20
-24950.0
 30
0.0
  9
$LIMMIN
 10
0.0
 20
0.0
  9
$LIMMAX
 10
0.0
 20
0.0
  9
$ORTHOMODE
 70
0
  9
$REGENMODE
 70
1
  9
$FILLMODE
 70
1
  9
$QTEXTMODE
 70
0
  9
$MIRRTEXT
 70
1
  9
$LTSCALE
 40
1.0
  9
$ATTMODE
 70
1
  9
$TEXTSIZE
 40
0.0
  9
$TRACEWID
 40
0.05
  9
$TEXTSTYLE
  7
STANDARD
  9
$CLAYER
  8
0
  9
$CELTYPE
  6
CONTINUOUS
  9
$CECOLOR
 62
256
  9
$CELTSCALE
 40
1.0
  9
$DISPSILH
 70
0
  9
$DIMSCALE
 40
1.0
  9
$DIMASZ
 40
0.18
  9
$DIMEXO
 40
0.0625
  9
$DIMDLI
 40
0.38
  9
$DIMRND
 40
0.0
  9
$DIMDLE
 40
0.0
  9
$DIMEXE
 40
0.18
  9
$DIMTP
 40
0.0
  9
$DIMTM
 40
0.0
  9
$DIMTXT
 40
0.18
  9
$DIMCEN
 40
0.09
  9
$DIMTSZ
 40
0.0
  9
$DIMTOL
 70
0
  9
$DIMLIM
 70
0
  9
$DIMTIH
 70
1
  9
$DIMTOH
 70
1
  9
$DIMSE1
 70
0
  9
$DIMSE2
 70
0
  9
$DIMTAD
 70
0
  9
$DIMZIN
 70
0
  9
$DIMBLK
  1

  9
$DIMASO
 70
1
  9
$DIMSHO
 70
1
  9
$DIMPOST
  1

  9
$DIMAPOST
  1

  9
$DIMALT
 70
0
  9
$DIMALTD
 70
2
  9
$DIMALTF
 40
25.4
  9
$DIMLFAC
 40
1.0
  9
$DIMTOFL
 70
0
  9
$DIMTVP
 40
0.0
  9
$DIMTIX
 70
0
  9
$DIMSOXD
 70
0
  9
$DIMSAH
 70
0
  9
$DIMBLK1
  1

  9
$DIMBLK2
  1

  9
$DIMSTYLE
  2
STANDARD
  9
$DIMCLRD
 70
0
  9
$DIMCLRE
 70
0
  9
$DIMCLRT
 70
0
  9
$DIMTFAC
 40
1.0
  9
$DIMGAP
 40
0.09
  9
$DIMJUST
 70
0
  9
$DIMSD1
 70
0
  9
$DIMSD2
 70
0
  9
$DIMTOLJ
 70
1
  9
$DIMTZIN
 70
0
  9
$DIMALTZ
 70
0
  9
$DIMALTTZ
 70
0
  9
$DIMUPT
 70
0
  9
$DIMDEC
 70
4
  9
$DIMTDEC
 70
4
  9
$DIMALTU
 70
2
  9
$DIMALTTD
 70
2
  9
$DIMTXSTY
  7
STANDARD
  9
$DIMAUNIT
 70
0
  9
$DIMADEC
 70
0
  9
$DIMALTRND
 40
0.0
  9
$DIMAZIN
 70
0
  9
$DIMDSEP
 70
46
  9
$DIMATFIT
 70
3
  9
$DIMFRAC
 70
0
  9
$DIMLDRBLK
  1

  9
$DIMLUNIT
 70
2
  9
$DIMLWD
 70
-2
  9
$DIMLWE
 70
-2
  9
$DIMTMOVE
 70
0
  9
$DIMFXL
 40
1.0
  9
$DIMFXLON
 70
0
  9
$DIMJOGANG
 40
0.7853981633974483
  9
$DIMTFILL
 70
0
  9
$DIMTFILLCLR
 70
0
  9
$DIMARCSYM
 70
0
  9
$DIMLTYPE
  6

  9
$DIMLTEX1
  6

  9
$DIMLTEX2
  6

  9
$DIMTXTDIRECTION
 70
0
  9
$LUNITS
 70
2
  9
$LUPREC
 70
4
  9
$SKETCHINC
 40
0.1
  9
$FILLETRAD
 40
0.0
  9
$AUNITS
 70
0
  9
$AUPREC
 70
0
  9
$MENU
  1
acad
  9
$ELEVATION
 40
0.0
  9
$PELEVATION
 40
0.0
  9
$THICKNESS
 40
0.0
  9
$LIMCHECK
 70
0
  9
$CHAMFERA
 40
0.0
  9
$CHAMFERB
 40
0.0
  9
$CHAMFERC
 40
0.0
  9
$CHAMFERD
 40
0.0
  9
$SKPOLY
 70
0
  9
$TDCREATE
 40
2460236.6607407406
  9
$TDUCREATE
 40
2440587.999988426
  9
$TDUPDATE
 40
2460236.6607407406
  9
$TDUUPDATE
 40
2460133.82912037
  9
$TDINDWG
 40
0.0041666667
  9
$TDUSRTIMER
 40
0.0041666667
  9
$USRTIMER
 70
1
  9
$ANGBASE
 50
0.0
  9
$ANGDIR
 70
0
  9
$PDMODE
 70
0
  9
$PDSIZE
 40
0.0
  9
$PLINEWID
 40
0.0
  9
$SPLFRAME
 70
0
  9
$SPLINETYPE
 70
6
  9
$SPLINESEGS
 70
8
  9
$HANDSEED
  5
4403
  9
$SURFTAB1
 70
6
  9
$SURFTAB2
 70
6
  9
$SURFTYPE
 70
6
  9
$SURFU
 70
6
  9
$SURFV
 70
6
  9
$UCSBASE
  2

  9
$UCSNAME
  2

  9
$UCSORG
 10
0.0
 20
0.0
 30
0.0
  9
$UCSXDIR
 10
1.0
 20
0.0
 30
0.0
  9
$UCSYDIR
 10
0.0
 20
1.0
 30
0.0
  9
$UCSORTHOREF
  2

  9
$UCSORTHOVIEW
 70
0
  9
$UCSORGTOP
 10
0.0
 20
0.0
 30
0.0
  9
$UCSORGBOTTOM
 10
0.0
 20
0.0
 30
0.0
  9
$UCSORGLEFT
 10
0.0
 20
0.0
 30
0.0
  9
$UCSORGRIGHT
 10
0.0
 20
0.0
 30
0.0
  9
$UCSORGFRONT
 10
0.0
 20
0.0
 30
0.0
  9
$UCSORGBACK
 10
0.0
 20
0.0
 30
0.0
  9
$PUCSBASE
  2

  9
$PUCSNAME
  2

  9
$PUCSORG
 10
0.0
 20
0.0
 30
0.0
  9
$PUCSXDIR
 10
1.0
 20
0.0
 30
0.0
  9
$PUCSYDIR
 10
0.0
 20
1.0
 30
0.0
  9
$PUCSORTHOREF
  2

  9
$PUCSORTHOVIEW
 70
0
  9
$PUCSORGTOP
 10
0.0
 20
0.0
 30
0.0
  9
$PUCSORGBOTTOM
 10
0.0
 20
0.0
 30
0.0
  9
$PUCSORGLEFT
 10
0.0
 20
0.0
 30
0.0
  9
$PUCSORGRIGHT
 10
0.0
 20
0.0
 30
0.0
  9
$PUCSORGFRONT
 10
0.0
 20
0.0
 30
0.0
  9
$PUCSORGBACK
 10
0.0
 20
0.0
 30
0.0
  9
$USERI1
 70
-4
  9
$USERI2
 70
0
  9
$USERI3
 70
0
  9
$USERI4
 70
0
  9
$USERI5
 70
0
  9
$USERR1
 40
0.0
  9
$USERR2
 40
0.0
  9
$USERR3
 40
0.0
  9
$USERR4
 40
0.0
  9
$USERR5
 40
0.0
  9
$WORLDVIEW
 70
1
  9
$SHADEDGE
 70
3
  9
$SHADEDIF
 70
70
  9
$TILEMODE
 70
1
  9
$MAXACTVP
 70
16
  9
$PINSBASE
 10
0.0
 20
0.0
 30
0.0
  9
$PLIMCHECK
 70
0
  9
$PEXTMIN
 10
1e+20
 20
1e+20
 30
1e+20
  9
$PEXTMAX
 10
-1e+20
 20
-1e+20
 30
-1e+20
  9
$PLIMMIN
 10
0.0
 20
0.0
  9
$PLIMMAX
 10
12.0
 20
9.0
  9
$UNITMODE
 70
0
  9
$VISRETAIN
 70
0
  9
$PLINEGEN
 70
1
  9
$PSLTSCALE
 70
0
  9
$TREEDEPTH
 70
3020
  9
$CMLSTYLE
  2
STANDARD
  9
$CMLJUST
 70
0
  9
$CMLSCALE
 40
1.0
  9
$PROXYGRAPHICS
 70
0
  9
$MEASUREMENT
 70
0
  9
$CELWEIGHT
370
-1
  9
$ENDCAPS
280
0
  9
$JOINSTYLE
280
0
  9
$LWDISPLAY
290
0
  9
$INSUNITS
 70
0
  9
$HYPERLINKBASE
  1

  9
$STYLESHEET
  1

  9
$XEDIT
290
1
  9
$CEPSNTYPE
380
0
  9
$PSTYLEMODE
290
1
  9
$FINGERPRINTGUID
  2
DF650736-6E08-11EE-9FC8-00D861F9C1E4
  9
$VERSIONGUID
  2
DF667A54-6E08-11EE-8237-00D861F9C1E4
  9
$EXTNAMES
290
1
  9
$PSVPSCALE
 40
0.0
  9
$OLESTARTUP
290
0
  9
$SORTENTS
280
127
  9
$INDEXCTL
280
0
  9
$HIDETEXT
280
0
  9
$XCLIPFRAME
280
2
  9
$HALOGAP
280
0
  9
$OBSCOLOR
 70
257
  9
$OBSLTYPE
280
0
  9
$INTERSECTIONDISPLAY
280
0
  9
$INTERSECTIONCOLOR
 70
257
  9
$DIMASSOC
280
1
  9
$PROJECTNAME
  1

  9
$CAMERADISPLAY
290
0
  9
$LENSLENGTH
 40
50.0
  9
$CAMERAHEIGHT
 40
0.0
  9
$STEPSPERSEC
 40
2.0
  9
$STEPSIZE
 40
6.0
  9
$3DDWFPREC
 40
2.0
  9
$PSOLWIDTH
 40
0.25
  9
$PSOLHEIGHT
 40
4.0
  9
$LOFTANG1
 40
1.570796326794896
  9
$LOFTANG2
 40
1.570796326794896
  9
$LOFTMAG1
 40
0.0
  9
$LOFTMAG2
 40
0.0
  9
$LOFTPARAM
 70
7
  9
$LOFTNORMALS
280
1
  9
$LATITUDE
 40
37.795
  9
$LONGITUDE
 40
-122.394
  9
$NORTHDIRECTION
 40
0.0
  9
$TIMEZONE
 70
-8000
  9
$LIGHTGLYPHDISPLAY
280
1
  9
$TILEMODELIGHTSYNCH
280
1
  9
$CMATERIAL
347
437D
  9
$SOLIDHIST
280
0
  9
$SHOWHIST
280
1
  9
$DWFFRAME
280
2
  9
$DGNFRAME
280
0
  9
$REALWORLDSCALE
290
1
  9
$INTERFERECOLOR
 62
1
  9
$INTERFEREOBJVS
345
439F
  9
$INTERFEREVPVS
346
439C
  9
$CSHADOW
280
0
  9
$SHADOWPLANELOCATION
 40
0.0
  0
ENDSEC
  0
SECTION
  2
CLASSES
  0
CLASS
  1
IMAGE
  2
AcDbRasterImage
  3
ISM
 90
2175
 91
0
280
0
281
1
  0
CLASS
  1
DICTIONARYVAR
  2
AcDbDictionaryVar
  3
ObjectDBX Classes
 90
0
 91
9
280
0
281
0
  0
CLASS
  1
RASTERVARIABLES
  2
AcDbRasterVariables
  3
ISM
 90
0
 91
0
280
0
281
0
  0
CLASS
  1
IMAGEDEF
  2
AcDbRasterImageDef
  3
ISM
 90
0
 91
0
280
0
281
0
  0
CLASS
  1
IMAGEDEF_REACTOR
  2
AcDbRasterImageDefReactor
  3
ISM
 90
1
 91
0
280
0
281
0
  0
CLASS
  1
IDBUFFER
  2
AcDbIdBuffer
  3
ObjectDBX Classes
 90
0
 91
0
280
0
281
0
  0
CLASS
  1
SPATIAL_FILTER
  2
AcDbSpatialFilter
  3
ObjectDBX Classes
 90
0
 91
0
280
0
281
0
  0
CLASS
  1
SORTENTSTABLE
  2
AcDbSortentsTable
  3
ObjectDBX Classes
 90
0
 91
0
280
0
281
0
  0
CLASS
  1
LAYER_INDEX
  2
AcDbLayerIndex
  3
ObjectDBX Classes
 90
0
 91
0
280
0
281
0
  0
CLASS
  1
SPATIAL_INDEX
  2
AcDbSpatialIndex
  3
ObjectDBX Classes
 90
0
 91
0
280
0
281
0
  0
CLASS
  1
OBJECT_PTR
  2
CAseDLPNTableRecord
  3
ASE-LPNTableRecord
 90
1
 91
0
280
0
281
0
  0
CLASS
  1
PLOTSETTINGS
  2
AcDbPlotSettings
  3
ObjectDBX Classes
 90
0
 91
0
280
0
281
0
  0
CLASS
  1
ACDBDICTIONARYWDFLT
  2
AcDbDictionaryWithDefault
  3
ObjectDBX Classes
 90
0
 91
1
280
0
281
0
  0
CLASS
  1
WIPEOUT
  2
AcDbWipeout
  3
WipeOut|Product Desc: Object Enabler for WipeOut entity | Company: Autodesk, Inc. | WEB Address: www.autodesk.com
 90
2175
 91
0
280
0
281
1
  0
CLASS
  1
WIPEOUTVARIABLES
  2
AcDbWipeoutVariables
  3
"WipeOut|Product Desc:     WipeOut Dbx Application|Company:          Autodesk, Inc.|WEB Address:      www.autodesk.com"
 90
0
 91
0
280
0
281
0
  0
CLASS
  1
RTEXT
  2
RText
  3
RText|AutoCAD Express Tool|expresstools@autodesk.com
 90
3071
 91
0
280
0
281
1
  0
CLASS
  1
ARCALIGNEDTEXT
  2
AcDbArcAlignedText
  3
ATEXT|AutoCAD Express Tool|expresstools@autodesk.com
 90
0
 91
0
280
0
281
1
  0
CLASS
  1
MATERIAL
  2
AcDbMaterial
  3
ObjectDBX Classes
 90
1153
 91
3
280
0
281
0
  0
CLASS
  1
VISUALSTYLE
  2
AcDbVisualStyle
  3
ObjectDBX Classes
 90
4095
 91
24
280
0
281
0
  0
CLASS
  1
TABLESTYLE
  2
AcDbTableStyle
  3
ObjectDBX Classes
 90
4095
 91
1
280
0
281
0
  0
CLASS
  1
SCALE
  2
AcDbScale
  3
ObjectDBX Classes
 90
1153
 91
17
280
0
281
0
  0
CLASS
  1
MLEADERSTYLE
  2
AcDbMLeaderStyle
  3
ACDB_MLEADERSTYLE_CLASS
 90
4095
 91
1
280
0
281
0
  0
CLASS
  1
ACDBSECTIONVIEWSTYLE
  2
AcDbSectionViewStyle
  3
ObjectDBX Classes
 90
1025
 91
1
280
0
281
0
  0
CLASS
  1
ACDBDETAILVIEWSTYLE
  2
AcDbDetailViewStyle
  3
ObjectDBX Classes
 90
1025
 91
1
280
0
281
0
  0
CLASS
  1
CELLSTYLEMAP
  2
AcDbCellStyleMap
  3
ObjectDBX Classes
 90
1152
 91
2
280
0
281
0
  0
CLASS
  1
SOLID_BACKGROUND
  2
AcDbSolidBackground
  3
SCENEOE
 90
4095
 91
1
280
0
281
0
  0
CLASS
  1
NPOCOLLECTION
  2
AcDbImpNonPersistentObjectsCollection
  3
ObjectDBX Classes
 90
1153
 91
1
280
0
281
0
  0
CLASS
  1
SUN
  2
AcDbSun
  3
SCENEOE
 90
1153
 91
0
280
0
281
0
  0
CLASS
  1
MENTALRAYRENDERSETTINGS
  2
AcDbMentalRayRenderSettings
  3
SCENEOE
 90
1024
 91
0
280
0
281
0
  0
CLASS
  1
ACDBPLACEHOLDER
  2
AcDbPlaceHolder
  3
ObjectDBX Classes
 90
0
 91
0
280
0
281
0
  0
CLASS
  1
LAYOUT
  2
AcDbLayout
  3
ObjectDBX Classes
 90
0
 91
0
280
0
281
0
  0
ENDSEC
  0
SECTION
  2
TABLES
  0
TABLE
  2
VPORT
  5
7
330
0
100
AcDbSymbolTable
 70
1
  0
VPORT
  5
13
330
7
100
AcDbSymbolTableRecord
100
AcDbViewportTableRecord
  2
*ACTIVE
 70
0
 10
0.0
 20
0.0
 11
1.0
 21
1.0
 12
0.0
 22
0.0
 13
0.0
 23
0.0
 14
1.0
 24
1.0
 15
0.0
 25
0.0
 16
0.0
 26
0.0
 36
201.3456699212295
 17
-12487.5
 27
-24975.0
 37
0.0
 40
55.90169943749474
 41
2.824398249452954
 42
50.0
 43
0.0
 44
0.0
 50
0.0
 51
0.0
 71
0
 72
100
 73
1
 74
1
 75
0
 76
0
 77
0
 78
0
281
0
 65
1
110
0.0
120
0.0
130
0.0
111
1.0
121
0.0
131
0.0
112
0.0
122
1.0
132
0.0
 79
0
146
0.0
 60
3
 61
5
348
439B
292
1
282
1
141
0.0
142
0.0
 63
250
421
3355443
1001
ACAD_NAV_VCDISPLAY
1070
3
  0
ENDTAB
  0
TABLE
  2
LTYPE
  5
4
330
0
100
AcDbSymbolTable
 70
3
  0
LTYPE
  5
10
330
4
100
AcDbSymbolTableRecord
100
AcDbLinetypeTableRecord
  2
BYBLOCK
 70
0
  3

 72
65
 73
0
 40
0.0
  0
LTYPE
  5
11
330
4
100
AcDbSymbolTableRecord
100
AcDbLinetypeTableRecord
  2
BYLAYER
 70
0
  3

 72
65
 73
0
 40
0.0
  0
LTYPE
  5
12
330
4
100
AcDbSymbolTableRecord
100
AcDbLinetypeTableRecord
  2
CONTINUOUS
 70
0
  3
Solid Line
 72
65
 73
0
 40
0.0
  0
ENDTAB
  0
TABLE
  2
LAYER
  5
2
330
0
100
AcDbSymbolTable
 70
8
  0
LAYER
  5
1199
102
{ACAD_XDICTIONARY
360
43ED
102
}
330
2
100
AcDbSymbolTableRecord
100
AcDbLayerTableRecord
  2
0
 70
0
 62
7
  6
CONTINUOUS
370
-3
390
437B
347
438D
348
0
  0
LAYER
  5
119A
102
{ACAD_XDICTIONARY
360
43EF
102
}
330
2
100
AcDbSymbolTableRecord
100
AcDbLayerTableRecord
  2
PHOTOPLOT
 70
0
 62
151
  6
CONTINUOUS
370
-3
390
437B
347
438D
348
0
  0
LAYER
  5
119B
102
{ACAD_XDICTIONARY
360
43F1
102
}
330
2
100
AcDbSymbolTableRecord
100
AcDbLayerTableRecord
  2
PIN_NOTATIONS
 70
0
 62
221
  6
CONTINUOUS
370
-3
390
437B
347
438D
348
0
  0
LAYER
  5
119C
102
{ACAD_XDICTIONARY
360
43F3
102
}
330
2
100
AcDbSymbolTableRecord
100
AcDbLayerTableRecord
  2
SOLDERMASK_PADS_BTM
 70
0
 62
151
  6
CONTINUOUS
370
-3
390
437B
347
438D
348
0
  0
LAYER
  5
119D
102
{ACAD_XDICTIONARY
360
43F5
102
}
330
2
100
AcDbSymbolTableRecord
100
AcDbLayerTableRecord
  2
TEXT_BSR
 70
0
 62
170
  6
CONTINUOUS
370
-3
390
437B
347
438D
348
0
  0
LAYER
  5
119E
102
{ACAD_XDICTIONARY
360
43F7
102
}
330
2
100
AcDbSymbolTableRecord
100
AcDbLayerTableRecord
  2
PKG_OUTLINE
 70
0
 62
81
  6
CONTINUOUS
370
-3
390
437B
347
438D
348
0
  0
LAYER
  5
43FC
330
2
100
AcDbSymbolTableRecord
100
AcDbLayerTableRecord
  2
Defpoints
 70
0
 62
7
  6
Continuous
290
0
370
-3
390
437B
347
438D
  0
LAYER
  5
43FD
330
2
100
AcDbSymbolTableRecord
100
AcDbLayerTableRecord
  2
JIG_STREET
 70
0
 62
7
  6
Continuous
370
-3
390
437B
347
438D
  0
ENDTAB
  0
TABLE
  2
STYLE
  5
3
330
0
100
AcDbSymbolTable
 70
3
  0
STYLE
  5
119F
330
3
100
AcDbSymbolTableRecord
100
AcDbTextStyleTableRecord
  2
STANDARD
 70
0
 40
0.0
 41
1.0
 50
0.0
 71
0
 42
0.0
  3
txt
  4

  0
STYLE
  5
11A0
330
3
100
AcDbSymbolTableRecord
100
AcDbTextStyleTableRecord
  2
ARIAL
 70
0
 40
0.0
 41
1.0
 50
0.0
 71
0
 42
0.0
  3
arial.ttf
  4

1001
ACAD
1000
Arial
1071
34
  0
STYLE
  5
11A1
330
3
100
AcDbSymbolTableRecord
100
AcDbTextStyleTableRecord
  2
VF_STD
 70
0
 40
0.0
 41
1.0
 50
0.0
 71
0
 42
0.0
  3
txt
  4

  0
ENDTAB
  0
TABLE
  2
VIEW
  5
5
330
0
100
AcDbSymbolTable
 70
0
  0
ENDTAB
  0
TABLE
  2
UCS
  5
6
330
0
100
AcDbSymbolTable
 70
0
  0
ENDTAB
  0
TABLE
  2
APPID
  5
8
330
0
100
AcDbSymbolTable
 70
4
  0
APPID
  5
14
330
8
100
AcDbSymbolTableRecord
100
AcDbRegAppTableRecord
  2
ACAD
 70
0
  0
APPID
  5
43D1
330
8
100
AcDbSymbolTableRecord
100
AcDbRegAppTableRecord
  2
DCO15
 70
0
  0
APPID
  5
43DD
330
8
100
AcDbSymbolTableRecord
100
AcDbRegAppTableRecord
  2
ACAD_NAV_VCDISPLAY
 70
0
  0
APPID
  5
4402
330
8
100
AcDbSymbolTableRecord
100
AcDbRegAppTableRecord
  2
HATCHBACKGROUNDCOLOR
 70
0
  0
ENDTAB
  0
TABLE
  2
DIMSTYLE
  5
9
330
0
100
AcDbSymbolTable
 70
1
100
AcDbDimStyleTable
  0
DIMSTYLE
105
15
330
9
100
AcDbSymbolTableRecord
100
AcDbDimStyleTableRecord
  2
STANDARD
 70
0
 40
1.0
 41
2.5
 42
0.625
 43
3.75
 44
1.25
 45
0.0
 46
0.0
 47
0.0
 48
0.0
 49
2.5
140
2.5
141
2.5
142
0.0
143
0.03937007874
144
1.0
145
0.0
146
1.0
147
0.625
148
0.0
 69
0
 70
0
 71
0
 72
0
 73
0
 74
0
 75
0
 76
0
 77
1
 78
8
 79
0
170
0
171
3
172
1
173
0
174
0
175
0
176
0
177
0
178
0
179
0
271
0
272
2
273
2
274
3
275
0
276
0
277
2
278
44
279
0
280
0
281
0
282
0
283
0
284
8
285
0
286
0
288
0
289
3
290
0
371
-2
372
-2
  0
ENDTAB
  0
TABLE
  2
BLOCK_RECORD
  5
1
330
0
100
AcDbSymbolTable
 70
2
  0
BLOCK_RECORD
  5
A
330
1
100
AcDbSymbolTableRecord
100
AcDbBlockTableRecord
  2
*MODEL_SPACE
340
43CB
 70
0
280
1
281
0
  0
BLOCK_RECORD
  5
B
330
1
100
AcDbSymbolTableRecord
100
AcDbBlockTableRecord
  2
*PAPER_SPACE
340
43CC
 70
0
280
1
281
0
  0
ENDTAB
  0
ENDSEC
  0
SECTION
  2
BLOCKS
  0
BLOCK
  5
C
330
A
100
AcDbEntity
  8
0
100
AcDbBlockBegin
  2
*MODEL_SPACE
 70
0
 10
0.0
 20
0.0
 30
0.0
  3
*MODEL_SPACE
  1

  0
ENDBLK
  5
D
330
A
100
AcDbEntity
  8
0
100
AcDbBlockEnd
  0
BLOCK
  5
E
330
B
100
AcDbEntity
 67
1
  8
0
100
AcDbBlockBegin
  2
*PAPER_SPACE
 70
0
 10
0.0
 20
0.0
 30
0.0
  3
*PAPER_SPACE
  1

  0
ENDBLK
  5
F
330
B
100
AcDbEntity
 67
1
  8
0
100
AcDbBlockEnd
  0
ENDSEC
  0
SECTION
  2
ENTITIES
  0
SOLID
  5
D7
330
A
100
AcDbEntity
  8
SOLDERMASK_PADS_BTM
100
AcDbTrace
 10
-12486.5356
 20
-24983.284
 30
0.0
 11
-12486.1596
 21
-24983.284
 31
0.0
 12
-12486.5356
 22
-24982.634
 32
0.0
 13
-12486.1596
 23
-24982.634
 33
0.0
  0
SOLID
  5
D8
330
A
100
AcDbEntity
  8
SOLDERMASK_PADS_BTM
100
AcDbTrace
 10
-12485.5596
 20
-24983.284
 30
0.0
 11
-12485.1836
 21
-24983.284
 31
0.0
 12
-12485.5596
 22
-24982.634
 32
0.0
 13
-12485.1836
 23
-24982.634
 33
0.0
  0
SOLID
  5
D9
330
A
100
AcDbEntity
  8
SOLDERMASK_PADS_BTM
100
AcDbTrace
 10
-12489.4246
 20
-24980.9383
 30
0.0
 11
-12488.7746
 21
-24980.9383
 31
0.0
 12
-12489.4246
 22
-24980.5623
 32
0.0
 13
-12488.7746
 23
-24980.5623
 33
0.0
  0
SOLID
  5
DA
330
A
100
AcDbEntity
  8
SOLDERMASK_PADS_BTM
100
AcDbTrace
 10
-12489.4246
 20
-24981.9143
 30
0.0
 11
-12488.7746
 21
-24981.9143
 31
0.0
 12
-12489.4246
 22
-24981.5383
 32
0.0
 13
-12488.7746
 23
-24981.5383
 33
0.0
  0
SOLID
  5
DB
330
A
100
AcDbEntity
  8
SOLDERMASK_PADS_BTM
100
AcDbTrace
 10
-12487.3606
 20
-24983.557
 30
0.0
 11
-12486.7106
 21
-24983.557
 31
0.0
 12
-12487.3606
 22
-24983.181
 32
0.0
 13
-12486.7106
 23
-24983.181
 33
0.0
  0
SOLID
  5
DC
330
A
100
AcDbEntity
  8
SOLDERMASK_PADS_BTM
100
AcDbTrace
 10
-12487.3606
 20
-24982.581
 30
0.0
 11
-12486.7106
 21
-24982.581
 31
0.0
 12
-12487.3606
 22
-24982.205
 32
0.0
 13
-12486.7106
 23
-24982.205
 33
0.0
  0
SOLID
  5
DD
330
A
100
AcDbEntity
  8
SOLDERMASK_PADS_BTM
100
AcDbTrace
 10
-12489.7896
 20
-24969.9744
 30
0.0
 11
-12489.4136
 21
-24969.9744
 31
0.0
 12
-12489.7896
 22
-24969.3244
 32
0.0
 13
-12489.4136
 23
-24969.3244
 33
0.0
  0
SOLID
  5
DE
330
A
100
AcDbEntity
  8
SOLDERMASK_PADS_BTM
100
AcDbTrace
 10
-12488.8136
 20
-24969.9744
 30
0.0
 11
-12488.4376
 21
-24969.9744
 31
0.0
 12
-12488.8136
 22
-24969.3244
 32
0.0
 13
-12488.4376
 23
-24969.3244
 33
0.0
  0
SOLID
  5
DF
330
A
100
AcDbEntity
  8
SOLDERMASK_PADS_BTM
100
AcDbTrace
 10
-12489.7896
 20
-24969.1494
 30
0.0
 11
-12489.4136
 21
-24969.1494
 31
0.0
 12
-12489.7896
 22
-24968.4994
 32
0.0
 13
-12489.4136
 23
-24968.4994
 33
0.0
  0
SOLID
  5
E0
330
A
100
AcDbEntity
  8
SOLDERMASK_PADS_BTM
100
AcDbTrace
 10
-12488.8136
 20
-24969.1494
 30
0.0
 11
-12488.4376
 21
-24969.1494
 31
0.0
 12
-12488.8136
 22
-24968.4994
 32
0.0
 13
-12488.4376
 23
-24968.4994
 33
0.0
  0
SOLID
  5
E1
330
A
100
AcDbEntity
  8
SOLDERMASK_PADS_BTM
100
AcDbTrace
 10
-12488.2626
 20
-24969.9744
 30
0.0
 11
-12487.8866
 21
-24969.9744
 31
0.0
 12
-12488.2626
 22
-24969.3244
 32
0.0
 13
-12487.8866
 23
-24969.3244
 33
0.0
  0
SOLID
  5
E2
330
A
100
AcDbEntity
  8
SOLDERMASK_PADS_BTM
100
AcDbTrace
 10
-12487.2866
 20
-24969.9744
 30
0.0
 11
-12486.9106
 21
-24969.9744
 31
0.0
 12
-12487.2866
 22
-24969.3244
 32
0.0
 13
-12486.9106
 23
-24969.3244
 33
0.0
  0
SOLID
  5
E3
330
A
100
AcDbEntity
  8
SOLDERMASK_PADS_BTM
100
AcDbTrace
 10
-12488.2626
 20
-24969.1494
 30
0.0
 11
-12487.8866
 21
-24969.1494
 31
0.0
 12
-12488.2626
 22
-24968.4994
 32
0.0
 13
-12487.8866
 23
-24968.4994
 33
0.0
  0
SOLID
  5
E4
330
A
100
AcDbEntity
  8
SOLDERMASK_PADS_BTM
100
AcDbTrace
 10
-12487.2866
 20
-24969.1494
 30
0.0
 11
-12486.9106
 21
-24969.1494
 31
0.0
 12
-12487.2866
 22
-24968.4994
 32
0.0
 13
-12486.9106
 23
-24968.4994
 33
0.0
  0
SOLID
  5
E5
330
A
100
AcDbEntity
  8
SOLDERMASK_PADS_BTM
100
AcDbTrace
 10
-12486.7356
 20
-24969.1494
 30
0.0
 11
-12486.3596
 21
-24969.1494
 31
0.0
 12
-12486.7356
 22
-24968.4994
 32
0.0
 13
-12486.3596
 23
-24968.4994
 33
0.0
  0
SOLID
  5
E6
330
A
100
AcDbEntity
  8
SOLDERMASK_PADS_BTM
100
AcDbTrace
 10
-12485.7596
 20
-24969.1494
 30
0.0
 11
-12485.3836
 21
-24969.1494
 31
0.0
 12
-12485.7596
 22
-24968.4994
 32
0.0
 13
-12485.3836
 23
-24968.4994
 33
0.0
  0
SOLID
  5
E7
330
A
100
AcDbEntity
  8
SOLDERMASK_PADS_BTM
100
AcDbTrace
 10
-12486.7356
 20
-24969.9744
 30
0.0
 11
-12486.3596
 21
-24969.9744
 31
0.0
 12
-12486.7356
 22
-24969.3244
 32
0.0
 13
-12486.3596
 23
-24969.3244
 33
0.0
  0
SOLID
  5
E8
330
A
100
AcDbEntity
  8
SOLDERMASK_PADS_BTM
100
AcDbTrace
 10
-12485.7596
 20
-24969.9744
 30
0.0
 11
-12485.3836
 21
-24969.9744
 31
0.0
 12
-12485.7596
 22
-24969.3244
 32
0.0
 13
-12485.3836
 23
-24969.3244
 33
0.0
  0
SOLID
  5
E9
330
A
100
AcDbEntity
  8
SOLDERMASK_PADS_BTM
100
AcDbTrace
 10
-12490.6246
 20
-24969.7014
 30
0.0
 11
-12489.9746
 21
-24969.7014
 31
0.0
 12
-12490.6246
 22
-24969.3254
 32
0.0
 13
-12489.9746
 23
-24969.3254
 33
0.0
  0
SOLID
  5
EA
330
A
100
AcDbEntity
  8
SOLDERMASK_PADS_BTM
100
AcDbTrace
 10
-12490.6246
 20
-24968.7254
 30
0.0
 11
-12489.9746
 21
-24968.7254
 31
0.0
 12
-12490.6246
 22
-24968.3494
 32
0.0
 13
-12489.9746
 23
-24968.3494
 33
0.0
  0
SOLID
  5
EB
330
A
100
AcDbEntity
  8
SOLDERMASK_PADS_BTM
100
AcDbTrace
 10
-12489.7896
 20
-24970.7994
 30
0.0
 11
-12489.4136
 21
-24970.7994
 31
0.0
 12
-12489.7896
 22
-24970.1494
 32
0.0
 13
-12489.4136
 23
-24970.1494
 33
0.0
  0
SOLID
  5
EC
330
A
100
AcDbEntity
  8
SOLDERMASK_PADS_BTM
100
AcDbTrace
 10
-12488.8136
 20
-24970.7994
 30
0.0
 11
-12488.4376
 21
-24970.7994
 31
0.0
 12
-12488.8136
 22
-24970.1494
 32
0.0
 13
-12488.4376
 23
-24970.1494
 33
0.0
  0
SOLID
  5
ED
330
A
100
AcDbEntity
  8
SOLDERMASK_PADS_BTM
100
AcDbTrace
 10
-12488.2626
 20
-24970.7994
 30
0.0
 11
-12487.8866
 21
-24970.7994
 31
0.0
 12
-12488.2626
 22
-24970.1494
 32
0.0
 13
-12487.8866
 23
-24970.1494
 33
0.0
  0
SOLID
  5
EE
330
A
100
AcDbEntity
  8
SOLDERMASK_PADS_BTM
100
AcDbTrace
 10
-12487.2866
 20
-24970.7994
 30
0.0
 11
-12486.9106
 21
-24970.7994
 31
0.0
 12
-12487.2866
 22
-24970.1494
 32
0.0
 13
-12486.9106
 23
-24970.1494
 33
0.0
  0
SOLID
  5
EF
330
A
100
AcDbEntity
  8
SOLDERMASK_PADS_BTM
100
AcDbTrace
 10
-12486.7356
 20
-24970.7994
 30
0.0
 11
-12486.3596
 21
-24970.7994
 31
0.0
 12
-12486.7356
 22
-24970.1494
 32
0.0
 13
-12486.3596
 23
-24970.1494
 33
0.0
  0
SOLID
  5
F0
330
A
100
AcDbEntity
  8
SOLDERMASK_PADS_BTM
100
AcDbTrace
 10
-12485.7596
 20
-24970.7994
 30
0.0
 11
-12485.3836
 21
-24970.7994
 31
0.0
 12
-12485.7596
 22
-24970.1494
 32
0.0
 13
-12485.3836
 23
-24970.1494
 33
0.0
  0
SOLID
  5
F1
330
A
100
AcDbEntity
  8
SOLDERMASK_PADS_BTM
100
AcDbTrace
 10
-12490.6246
 20
-24971.2284
 30
0.0
 11
-12489.9746
 21
-24971.2284
 31
0.0
 12
-12490.6246
 22
-24970.8524
 32
0.0
 13
-12489.9746
 23
-24970.8524
 33
0.0
  0
SOLID
  5
F2
330
A
100
AcDbEntity
  8
SOLDERMASK_PADS_BTM
100
AcDbTrace
 10
-12490.6246
 20
-24970.2524
 30
0.0
 11
-12489.9746
 21
-24970.2524
 31
0.0
 12
-12490.6246
 22
-24969.8764
 32
0.0
 13
-12489.9746
 23
-24969.8764
 33
0.0
  0
SOLID
  5
F3
330
A
100
AcDbEntity
  8
SOLDERMASK_PADS_BTM
100
AcDbTrace
 10
-12485.2086
 20
-24969.6254
 30
0.0
 11
-12484.5586
 21
-24969.6254
 31
0.0
 12
-12485.2086
 22
-24969.2494
 32
0.0
 13
-12484.5586
 23
-24969.2494
 33
0.0
  0
SOLID
  5
F4
330
A
100
AcDbEntity
  8
SOLDERMASK_PADS_BTM
100
AcDbTrace
 10
-12485.2086
 20
-24970.6014
 30
0.0
 11
-12484.5586
 21
-24970.6014
 31
0.0
 12
-12485.2086
 22
-24970.2254
 32
0.0
 13
-12484.5586
 23
-24970.2254
 33
0.0
  0
SOLID
  5
F5
330
A
100
AcDbEntity
  8
SOLDERMASK_PADS_BTM
100
AcDbTrace
 10
-12489.9996
 20
-24980.3373
 30
0.0
 11
-12489.3496
 21
-24980.3373
 31
0.0
 12
-12489.9996
 22
-24979.9613
 32
0.0
 13
-12489.3496
 23
-24979.9613
 33
0.0
  0
SOLID
  5
F6
330
A
100
AcDbEntity
  8
SOLDERMASK_PADS_BTM
100
AcDbTrace
 10
-12489.9996
 20
-24979.3613
 30
0.0
 11
-12489.3496
 21
-24979.3613
 31
0.0
 12
-12489.9996
 22
-24978.9853
 32
0.0
 13
-12489.3496
 23
-24978.9853
 33
0.0
  0
SOLID
  5
F7
330
A
100
AcDbEntity
  8
SOLDERMASK_PADS_BTM
100
AcDbTrace
 10
-12489.1746
 20
-24980.3373
 30
0.0
 11
-12488.5246
 21
-24980.3373
 31
0.0
 12
-12489.1746
 22
-24979.9613
 32
0.0
 13
-12488.5246
 23
-24979.9613
 33
0.0
  0
SOLID
  5
F8
330
A
100
AcDbEntity
  8
SOLDERMASK_PADS_BTM
100
AcDbTrace
 10
-12489.1746
 20
-24979.3613
 30
0.0
 11
-12488.5246
 21
-24979.3613
 31
0.0
 12
-12489.1746
 22
-24978.9853
 32
0.0
 13
-12488.5246
 23
-24978.9853
 33
0.0
  0
SOLID
  5
F9
330
A
100
AcDbEntity
  8
SOLDERMASK_PADS_BTM
100
AcDbTrace
 10
-12487.5246
 20
-24980.3373
 30
0.0
 11
-12486.8746
 21
-24980.3373
 31
0.0
 12
-12487.5246
 22
-24979.9613
 32
0.0
 13
-12486.8746
 23
-24979.9613
 33
0.0
  0
SOLID
  5
FA
330
A
100
AcDbEntity
  8
SOLDERMASK_PADS_BTM
100
AcDbTrace
 10
-12487.5246
 20
-24979.3613
 30
0.0
 11
-12486.8746
 21
-24979.3613
 31
0.0
 12
-12487.5246
 22
-24978.9853
 32
0.0
 13
-12486.8746
 23
-24978.9853
 33
0.0
  0
SOLID
  5
FB
330
A
100
AcDbEntity
  8
SOLDERMASK_PADS_BTM
100
AcDbTrace
 10
-12488.3496
 20
-24980.3373
 30
0.0
 11
-12487.6996
 21
-24980.3373
 31
0.0
 12
-12488.3496
 22
-24979.9613
 32
0.0
 13
-12487.6996
 23
-24979.9613
 33
0.0
  0
SOLID
  5
FC
330
A
100
AcDbEntity
  8
SOLDERMASK_PADS_BTM
100
AcDbTrace
 10
-12488.3496
 20
-24979.3613
 30
0.0
 11
-12487.6996
 21
-24979.3613
 31
0.0
 12
-12488.3496
 22
-24978.9853
 32
0.0
 13
-12487.6996
 23
-24978.9853
 33
0.0
  0
SOLID
  5
FD
330
A
100
AcDbEntity
  8
SOLDERMASK_PADS_BTM
100
AcDbTrace
 10
-12486.6996
 20
-24980.3373
 30
0.0
 11
-12486.0496
 21
-24980.3373
 31
0.0
 12
-12486.6996
 22
-24979.9613
 32
0.0
 13
-12486.0496
 23
-24979.9613
 33
0.0
  0
SOLID
  5
FE
330
A
100
AcDbEntity
  8
SOLDERMASK_PADS_BTM
100
AcDbTrace
 10
-12486.6996
 20
-24979.3613
 30
0.0
 11
-12486.0496
 21
-24979.3613
 31
0.0
 12
-12486.6996
 22
-24978.9853
 32
0.0
 13
-12486.0496
 23
-24978.9853
 33
0.0
  0
SOLID
  5
FF
330
A
100
AcDbEntity
  8
SOLDERMASK_PADS_BTM
100
AcDbTrace
 10
-12486.70754
 20
-24981.1623
 30
0.0
 11
-12486.33154
 21
-24981.1623
 31
0.0
 12
-12486.70754
 22
-24980.5123
 32
0.0
 13
-12486.33154
 23
-24980.5123
 33
0.0
  0
SOLID
  5
100
330
A
100
AcDbEntity
  8
SOLDERMASK_PADS_BTM
100
AcDbTrace
 10
-12485.73154
 20
-24981.1623
 30
0.0
 11
-12485.35554
 21
-24981.1623
 31
0.0
 12
-12485.73154
 22
-24980.5123
 32
0.0
 13
-12485.35554
 23
-24980.5123
 33
0.0
  0
SOLID
  5
101
330
A
100
AcDbEntity
  8
SOLDERMASK_PADS_BTM
100
AcDbTrace
 10
-12485.934601
 20
-24984.934
 30
0.0
 11
-12485.558601
 21
-24984.934
 31
0.0
 12
-12485.934601
 22
-24984.284
 32
0.0
 13
-12485.558601
 23
-24984.284
 33
0.0
  0
SOLID
  5
102
330
A
100
AcDbEntity
  8
SOLDERMASK_PADS_BTM
100
AcDbTrace
 10
-12486.910601
 20
-24984.934
 30
0.0
 11
-12486.534601
 21
-24984.934
 31
0.0
 12
-12486.910601
 22
-24984.284
 32
0.0
 13
-12486.534601
 23
-24984.284
 33
0.0
  0
SOLID
  5
103
330
A
100
AcDbEntity
  8
SOLDERMASK_PADS_BTM
100
AcDbTrace
 10
-12489.6996
 20
-24985.084
 30
0.0
 11
-12489.0496
 21
-24985.084
 31
0.0
 12
-12489.6996
 22
-24984.708
 32
0.0
 13
-12489.0496
 23
-24984.708
 33
0.0
  0
SOLID
  5
104
330
A
100
AcDbEntity
  8
SOLDERMASK_PADS_BTM
100
AcDbTrace
 10
-12489.6996
 20
-24984.108
 30
0.0
 11
-12489.0496
 21
-24984.108
 31
0.0
 12
-12489.6996
 22
-24983.732
 32
0.0
 13
-12489.0496
 23
-24983.732
 33
0.0
  0
SOLID
  5
105
330
A
100
AcDbEntity
  8
SOLDERMASK_PADS_BTM
100
AcDbTrace
 10
-12488.0496
 20
-24985.084
 30
0.0
 11
-12487.3996
 21
-24985.084
 31
0.0
 12
-12488.0496
 22
-24984.708
 32
0.0
 13
-12487.3996
 23
-24984.708
 33
0.0
  0
SOLID
  5
106
330
A
100
AcDbEntity
  8
SOLDERMASK_PADS_BTM
100
AcDbTrace
 10
-12488.0496
 20
-24984.108
 30
0.0
 11
-12487.3996
 21
-24984.108
 31
0.0
 12
-12488.0496
 22
-24983.732
 32
0.0
 13
-12487.3996
 23
-24983.732
 33
0.0
  0
SOLID
  5
107
330
A
100
AcDbEntity
  8
SOLDERMASK_PADS_BTM
100
AcDbTrace
 10
-12489.3856
 20
-24983.557
 30
0.0
 11
-12488.7356
 21
-24983.557
 31
0.0
 12
-12489.3856
 22
-24983.181
 32
0.0
 13
-12488.7356
 23
-24983.181
 33
0.0
  0
SOLID
  5
108
330
A
100
AcDbEntity
  8
SOLDERMASK_PADS_BTM
100
AcDbTrace
 10
-12489.3856
 20
-24982.581
 30
0.0
 11
-12488.7356
 21
-24982.581
 31
0.0
 12
-12489.3856
 22
-24982.205
 32
0.0
 13
-12488.7356
 23
-24982.205
 33
0.0
  0
SOLID
  5
109
330
A
100
AcDbEntity
  8
SOLDERMASK_PADS_BTM
100
AcDbTrace
 10
-12488.8746
 20
-24985.084
 30
0.0
 11
-12488.2246
 21
-24985.084
 31
0.0
 12
-12488.8746
 22
-24984.708
 32
0.0
 13
-12488.2246
 23
-24984.708
 33
0.0
  0
SOLID
  5
10A
330
A
100
AcDbEntity
  8
SOLDERMASK_PADS_BTM
100
AcDbTrace
 10
-12488.8746
 20
-24984.108
 30
0.0
 11
-12488.2246
 21
-24984.108
 31
0.0
 12
-12488.8746
 22
-24983.732
 32
0.0
 13
-12488.2246
 23
-24983.732
 33
0.0
  0
SOLID
  5
10B
330
A
100
AcDbEntity
  8
SOLDERMASK_PADS_BTM
100
AcDbTrace
 10
-12486.5356
 20
-24984.109
 30
0.0
 11
-12486.1596
 21
-24984.109
 31
0.0
 12
-12486.5356
 22
-24983.459
 32
0.0
 13
-12486.1596
 23
-24983.459
 33
0.0
  0
SOLID
  5
10C
330
A
100
AcDbEntity
  8
SOLDERMASK_PADS_BTM
100
AcDbTrace
 10
-12485.5596
 20
-24984.109
 30
0.0
 11
-12485.1836
 21
-24984.109
 31
0.0
 12
-12485.5596
 22
-24983.459
 32
0.0
 13
-12485.1836
 23
-24983.459
 33
0.0
  0
SOLID
  5
10D
330
A
100
AcDbEntity
  8
SOLDERMASK_PADS_BTM
100
AcDbTrace
 10
-12488.5606
 20
-24983.557
 30
0.0
 11
-12487.9106
 21
-24983.557
 31
0.0
 12
-12488.5606
 22
-24983.181
 32
0.0
 13
-12487.9106
 23
-24983.181
 33
0.0
  0
SOLID
  5
10E
330
A
100
AcDbEntity
  8
SOLDERMASK_PADS_BTM
100
AcDbTrace
 10
-12488.5606
 20
-24982.581
 30
0.0
 11
-12487.9106
 21
-24982.581
 31
0.0
 12
-12488.5606
 22
-24982.205
 32
0.0
 13
-12487.9106
 23
-24982.205
 33
0.0
  0
SOLID
  5
10F
330
A
100
AcDbEntity
  8
SOLDERMASK_PADS_BTM
100
AcDbTrace
 10
-12490.6246
 20
-24981.131
 30
0.0
 11
-12489.9746
 21
-24981.131
 31
0.0
 12
-12490.6246
 22
-24980.755
 32
0.0
 13
-12489.9746
 23
-24980.755
 33
0.0
  0
SOLID
  5
110
330
A
100
AcDbEntity
  8
SOLDERMASK_PADS_BTM
100
AcDbTrace
 10
-12490.6246
 20
-24982.107
 30
0.0
 11
-12489.9746
 21
-24982.107
 31
0.0
 12
-12490.6246
 22
-24981.731
 32
0.0
 13
-12489.9746
 23
-24981.731
 33
0.0
  0
SOLID
  5
111
330
A
100
AcDbEntity
  8
SOLDERMASK_PADS_BTM
100
AcDbTrace
 10
-12486.5356
 20
-24982.459
 30
0.0
 11
-12486.1596
 21
-24982.459
 31
0.0
 12
-12486.5356
 22
-24981.809
 32
0.0
 13
-12486.1596
 23
-24981.809
 33
0.0
  0
SOLID
  5
112
330
A
100
AcDbEntity
  8
SOLDERMASK_PADS_BTM
100
AcDbTrace
 10
-12485.5596
 20
-24982.459
 30
0.0
 11
-12485.1836
 21
-24982.459
 31
0.0
 12
-12485.5596
 22
-24981.809
 32
0.0
 13
-12485.1836
 23
-24981.809
 33
0.0
  0
SOLID
  5
113
330
A
100
AcDbEntity
  8
SOLDERMASK_PADS_BTM
100
AcDbTrace
 10
-12490.6246
 20
-24983.634
 30
0.0
 11
-12489.9746
 21
-24983.634
 31
0.0
 12
-12490.6246
 22
-24983.258
 32
0.0
 13
-12489.9746
 23
-24983.258
 33
0.0
  0
SOLID
  5
114
330
A
100
AcDbEntity
  8
SOLDERMASK_PADS_BTM
100
AcDbTrace
 10
-12490.6246
 20
-24982.658
 30
0.0
 11
-12489.9746
 21
-24982.658
 31
0.0
 12
-12490.6246
 22
-24982.282
 32
0.0
 13
-12489.9746
 23
-24982.282
 33
0.0
  0
LWPOLYLINE
  5
119
330
A
100
AcDbEntity
  8
SOLDERMASK_PADS_BTM
100
AcDbPolyline
 90
3
 70
1
 10
-12475.835
 20
-24999.665
 10
-12475.335
 20
-24999.165
 10
-12475.335
 20
-24999.665
  0
HATCH
  5
11A
330
A
100
AcDbEntity
  8
SOLDERMASK_PADS_BTM
100
AcDbHatch
 10
0.0
 20
0.0
 30
0.0
210
0.0
220
0.0
230
1.0
  2
SOLID
 70
1
 71
0
 91
1
 92
2
 72
0
 73
1
 93
3
 10
-12475.835
 20
-24999.665
 10
-12475.335
 20
-24999.165
 10
-12475.335
 20
-24999.665
 97
0
 75
0
 76
1
 98
1
 10
-12487.5
 20
-24975.0
450
0
451
0
460
0.0
461
0.0
452
0
462
0.0
453
2
463
0
421
0
463
1
421
16777215
470

  0
SOLID
  5
111D
330
A
100
AcDbEntity
  8
SOLDERMASK_PADS_BTM
100
AcDbTrace
 10
-12490.7746
 20
-24971.6416
 30
0.0
 11
-12490.6246
 21
-24971.6416
 31
0.0
 12
-12490.7746
 22
-24971.4416
 32
0.0
 13
-12490.6246
 23
-24971.4416
 33
0.0
  0
SOLID
  5
111E
330
A
100
AcDbEntity
  8
SOLDERMASK_PADS_BTM
100
AcDbTrace
 10
-12490.4446
 20
-24971.6416
 30
0.0
 11
-12490.2946
 21
-24971.6416
 31
0.0
 12
-12490.4446
 22
-24971.4416
 32
0.0
 13
-12490.2946
 23
-24971.4416
 33
0.0
  0
SOLID
  5
111F
330
A
100
AcDbEntity
  8
SOLDERMASK_PADS_BTM
100
AcDbTrace
 10
-12490.7746
 20
-24972.0166
 30
0.0
 11
-12490.6246
 21
-24972.0166
 31
0.0
 12
-12490.7746
 22
-24971.8166
 32
0.0
 13
-12490.6246
 23
-24971.8166
 33
0.0
  0
SOLID
  5
1120
330
A
100
AcDbEntity
  8
SOLDERMASK_PADS_BTM
100
AcDbTrace
 10
-12490.4446
 20
-24972.0166
 30
0.0
 11
-12490.2946
 21
-24972.0166
 31
0.0
 12
-12490.4446
 22
-24971.8166
 32
0.0
 13
-12490.2946
 23
-24971.8166
 33
0.0
  0
SOLID
  5
1121
330
A
100
AcDbEntity
  8
SOLDERMASK_PADS_BTM
100
AcDbTrace
 10
-12490.7746
 20
-24972.3916
 30
0.0
 11
-12490.6246
 21
-24972.3916
 31
0.0
 12
-12490.7746
 22
-24972.1916
 32
0.0
 13
-12490.6246
 23
-24972.1916
 33
0.0
  0
SOLID
  5
1122
330
A
100
AcDbEntity
  8
SOLDERMASK_PADS_BTM
100
AcDbTrace
 10
-12490.4446
 20
-24972.3916
 30
0.0
 11
-12490.2946
 21
-24972.3916
 31
0.0
 12
-12490.4446
 22
-24972.1916
 32
0.0
 13
-12490.2946
 23
-24972.1916
 33
0.0
  0
SOLID
  5
1123
330
A
100
AcDbEntity
  8
SOLDERMASK_PADS_BTM
100
AcDbTrace
 10
-12490.7246
 20
-24978.22222
 30
0.0
 11
-12490.5746
 21
-24978.22222
 31
0.0
 12
-12490.7246
 22
-24978.02222
 32
0.0
 13
-12490.5746
 23
-24978.02222
 33
0.0
  0
SOLID
  5
1124
330
A
100
AcDbEntity
  8
SOLDERMASK_PADS_BTM
100
AcDbTrace
 10
-12490.3946
 20
-24978.22222
 30
0.0
 11
-12490.2446
 21
-24978.22222
 31
0.0
 12
-12490.3946
 22
-24978.02222
 32
0.0
 13
-12490.2446
 23
-24978.02222
 33
0.0
  0
SOLID
  5
1125
330
A
100
AcDbEntity
  8
SOLDERMASK_PADS_BTM
100
AcDbTrace
 10
-12490.7246
 20
-24977.84722
 30
0.0
 11
-12490.5746
 21
-24977.84722
 31
0.0
 12
-12490.7246
 22
-24977.64722
 32
0.0
 13
-12490.5746
 23
-24977.64722
 33
0.0
  0
SOLID
  5
1126
330
A
100
AcDbEntity
  8
SOLDERMASK_PADS_BTM
100
AcDbTrace
 10
-12490.3946
 20
-24977.84722
 30
0.0
 11
-12490.2446
 21
-24977.84722
 31
0.0
 12
-12490.3946
 22
-24977.64722
 32
0.0
 13
-12490.2446
 23
-24977.64722
 33
0.0
  0
SOLID
  5
1127
330
A
100
AcDbEntity
  8
SOLDERMASK_PADS_BTM
100
AcDbTrace
 10
-12490.7246
 20
-24977.47222
 30
0.0
 11
-12490.5746
 21
-24977.47222
 31
0.0
 12
-12490.7246
 22
-24977.27222
 32
0.0
 13
-12490.5746
 23
-24977.27222
 33
0.0
  0
SOLID
  5
1128
330
A
100
AcDbEntity
  8
SOLDERMASK_PADS_BTM
100
AcDbTrace
 10
-12490.3946
 20
-24977.47222
 30
0.0
 11
-12490.2446
 21
-24977.47222
 31
0.0
 12
-12490.3946
 22
-24977.27222
 32
0.0
 13
-12490.2446
 23
-24977.27222
 33
0.0
  0
SOLID
  5
1129
330
A
100
AcDbEntity
  8
SOLDERMASK_PADS_BTM
100
AcDbTrace
 10
-12489.76049
 20
-24982.902
 30
0.0
 11
-12489.56049
 21
-24982.902
 31
0.0
 12
-12489.76049
 22
-24982.752
 32
0.0
 13
-12489.56049
 23
-24982.752
 33
0.0
  0
SOLID
  5
112A
330
A
100
AcDbEntity
  8
SOLDERMASK_PADS_BTM
100
AcDbTrace
 10
-12489.76049
 20
-24982.572
 30
0.0
 11
-12489.56049
 21
-24982.572
 31
0.0
 12
-12489.76049
 22
-24982.422
 32
0.0
 13
-12489.56049
 23
-24982.422
 33
0.0
  0
SOLID
  5
112B
330
A
100
AcDbEntity
  8
SOLDERMASK_PADS_BTM
100
AcDbTrace
 10
-12485.383601
 20
-24985.084
 30
0.0
 11
-12485.183601
 21
-24985.084
 31
0.0
 12
-12485.383601
 22
-24984.934
 32
0.0
 13
-12485.183601
 23
-24984.934
 33
0.0
  0
SOLID
  5
112C
330
A
100
AcDbEntity
  8
SOLDERMASK_PADS_BTM
100
AcDbTrace
 10
-12485.383601
 20
-24984.754
 30
0.0
 11
-12485.183601
 21
-24984.754
 31
0.0
 12
-12485.383601
 22
-24984.604
 32
0.0
 13
-12485.183601
 23
-24984.604
 33
0.0
  0
SOLID
  5
112D
330
A
100
AcDbEntity
  8
SOLDERMASK_PADS_BTM
100
AcDbTrace
 10
-12489.7996
 20
-24980.7123
 30
0.0
 11
-12489.5996
 21
-24980.7123
 31
0.0
 12
-12489.7996
 22
-24980.5623
 32
0.0
 13
-12489.5996
 23
-24980.5623
 33
0.0
  0
SOLID
  5
112E
330
A
100
AcDbEntity
  8
SOLDERMASK_PADS_BTM
100
AcDbTrace
 10
-12489.7996
 20
-24981.0423
 30
0.0
 11
-12489.5996
 21
-24981.0423
 31
0.0
 12
-12489.7996
 22
-24980.8923
 32
0.0
 13
-12489.5996
 23
-24980.8923
 33
0.0
  0
SOLID
  5
112F
330
A
100
AcDbEntity
  8
SOLDERMASK_PADS_BTM
100
AcDbTrace
 10
-12485.8746
 20
-24980.3373
 30
0.0
 11
-12485.6746
 21
-24980.3373
 31
0.0
 12
-12485.8746
 22
-24980.1873
 32
0.0
 13
-12485.6746
 23
-24980.1873
 33
0.0
  0
SOLID
  5
1130
330
A
100
AcDbEntity
  8
SOLDERMASK_PADS_BTM
100
AcDbTrace
 10
-12485.8746
 20
-24980.0073
 30
0.0
 11
-12485.6746
 21
-24980.0073
 31
0.0
 12
-12485.8746
 22
-24979.8573
 32
0.0
 13
-12485.6746
 23
-24979.8573
 33
0.0
  0
SOLID
  5
1131
330
A
100
AcDbEntity
  8
SOLDERMASK_PADS_BTM
100
AcDbTrace
 10
-12485.92732
 20
-24981.5373
 30
0.0
 11
-12485.77732
 21
-24981.5373
 31
0.0
 12
-12485.92732
 22
-24981.3373
 32
0.0
 13
-12485.77732
 23
-24981.3373
 33
0.0
  0
SOLID
  5
1132
330
A
100
AcDbEntity
  8
SOLDERMASK_PADS_BTM
100
AcDbTrace
 10
-12485.59732
 20
-24981.5373
 30
0.0
 11
-12485.44732
 21
-24981.5373
 31
0.0
 12
-12485.59732
 22
-24981.3373
 32
0.0
 13
-12485.44732
 23
-24981.3373
 33
0.0
  0
SOLID
  5
1133
330
A
100
AcDbEntity
  8
SOLDERMASK_PADS_BTM
100
AcDbTrace
 10
-12487.7356
 20
-24983.557
 30
0.0
 11
-12487.5356
 21
-24983.557
 31
0.0
 12
-12487.7356
 22
-24983.407
 32
0.0
 13
-12487.5356
 23
-24983.407
 33
0.0
  0
SOLID
  5
1134
330
A
100
AcDbEntity
  8
SOLDERMASK_PADS_BTM
100
AcDbTrace
 10
-12487.7356
 20
-24983.227
 30
0.0
 11
-12487.5356
 21
-24983.227
 31
0.0
 12
-12487.7356
 22
-24983.077
 32
0.0
 13
-12487.5356
 23
-24983.077
 33
0.0
  0
SOLID
  5
1135
330
A
100
AcDbEntity
  8
SOLDERMASK_PADS_BTM
100
AcDbTrace
 10
-12490.6246
 20
-24984.009
 30
0.0
 11
-12490.4746
 21
-24984.009
 31
0.0
 12
-12490.6246
 22
-24983.809
 32
0.0
 13
-12490.4746
 23
-24983.809
 33
0.0
  0
SOLID
  5
1136
330
A
100
AcDbEntity
  8
SOLDERMASK_PADS_BTM
100
AcDbTrace
 10
-12490.2946
 20
-24984.009
 30
0.0
 11
-12490.1446
 21
-24984.009
 31
0.0
 12
-12490.2946
 22
-24983.809
 32
0.0
 13
-12490.1446
 23
-24983.809
 33
0.0
  0
SOLID
  5
1137
330
A
100
AcDbEntity
  8
SOLDERMASK_PADS_BTM
100
AcDbTrace
 10
-12489.760489
 20
-24983.557
 30
0.0
 11
-12489.560489
 21
-24983.557
 31
0.0
 12
-12489.760489
 22
-24983.407
 32
0.0
 13
-12489.560489
 23
-24983.407
 33
0.0
  0
SOLID
  5
1138
330
A
100
AcDbEntity
  8
SOLDERMASK_PADS_BTM
100
AcDbTrace
 10
-12489.760489
 20
-24983.227
 30
0.0
 11
-12489.560489
 21
-24983.227
 31
0.0
 12
-12489.760489
 22
-24983.077
 32
0.0
 13
-12489.560489
 23
-24983.077
 33
0.0
  0
SOLID
  5
1139
330
A
100
AcDbEntity
  8
SOLDERMASK_PADS_BTM
100
AcDbTrace
 10
-12490.62314
 20
-24976.41868
 30
0.0
 11
-12489.62314
 21
-24976.41868
 31
0.0
 12
-12490.62314
 22
-24976.21868
 32
0.0
 13
-12489.62314
 23
-24976.21868
 33
0.0
  0
SOLID
  5
113A
330
A
100
AcDbEntity
  8
SOLDERMASK_PADS_BTM
100
AcDbTrace
 10
-12490.62314
 20
-24976.81868
 30
0.0
 11
-12489.62314
 21
-24976.81868
 31
0.0
 12
-12490.62314
 22
-24976.61868
 32
0.0
 13
-12489.62314
 23
-24976.61868
 33
0.0
  0
SOLID
  5
113B
330
A
100
AcDbEntity
  8
SOLDERMASK_PADS_BTM
100
AcDbTrace
 10
-12487.7356
 20
-24982.902
 30
0.0
 11
-12487.5356
 21
-24982.902
 31
0.0
 12
-12487.7356
 22
-24982.752
 32
0.0
 13
-12487.5356
 23
-24982.752
 33
0.0
  0
SOLID
  5
113C
330
A
100
AcDbEntity
  8
SOLDERMASK_PADS_BTM
100
AcDbTrace
 10
-12487.7356
 20
-24982.572
 30
0.0
 11
-12487.5356
 21
-24982.572
 31
0.0
 12
-12487.7356
 22
-24982.422
 32
0.0
 13
-12487.5356
 23
-24982.422
 33
0.0
  0
SOLID
  5
113D
330
A
100
AcDbEntity
  8
SOLDERMASK_PADS_BTM
100
AcDbTrace
 10
-12484.6086
 20
-24971.7764
 30
0.0
 11
-12484.4086
 21
-24971.7764
 31
0.0
 12
-12484.6086
 22
-24970.7764
 32
0.0
 13
-12484.4086
 23
-24970.7764
 33
0.0
  0
SOLID
  5
113E
330
A
100
AcDbEntity
  8
SOLDERMASK_PADS_BTM
100
AcDbTrace
 10
-12485.0086
 20
-24971.7764
 30
0.0
 11
-12484.8086
 21
-24971.7764
 31
0.0
 12
-12485.0086
 22
-24970.7764
 32
0.0
 13
-12484.8086
 23
-24970.7764
 33
0.0
  0
SOLID
  5
113F
330
A
100
AcDbEntity
  8
SOLDERMASK_PADS_BTM
100
AcDbTrace
 10
-12490.7746
 20
-24973.5784
 30
0.0
 11
-12490.5746
 21
-24973.5784
 31
0.0
 12
-12490.7746
 22
-24972.5784
 32
0.0
 13
-12490.5746
 23
-24972.5784
 33
0.0
  0
SOLID
  5
1140
330
A
100
AcDbEntity
  8
SOLDERMASK_PADS_BTM
100
AcDbTrace
 10
-12490.3746
 20
-24973.5784
 30
0.0
 11
-12490.1746
 21
-24973.5784
 31
0.0
 12
-12490.3746
 22
-24972.5784
 32
0.0
 13
-12490.1746
 23
-24972.5784
 33
0.0
  0
SOLID
  5
1141
330
A
100
AcDbEntity
  8
SOLDERMASK_PADS_BTM
100
AcDbTrace
 10
-12485.0
 20
-24972.9514
 30
0.0
 11
-12484.8
 21
-24972.9514
 31
0.0
 12
-12485.0
 22
-24971.9514
 32
0.0
 13
-12484.8
 23
-24971.9514
 33
0.0
  0
SOLID
  5
1142
330
A
100
AcDbEntity
  8
SOLDERMASK_PADS_BTM
100
AcDbTrace
 10
-12485.4
 20
-24972.9514
 30
0.0
 11
-12485.2
 21
-24972.9514
 31
0.0
 12
-12485.4
 22
-24971.9514
 32
0.0
 13
-12485.2
 23
-24971.9514
 33
0.0
  0
SOLID
  5
1143
330
A
100
AcDbEntity
  8
SOLDERMASK_PADS_BTM
100
AcDbTrace
 10
-12485.0
 20
-24974.1264
 30
0.0
 11
-12484.8
 21
-24974.1264
 31
0.0
 12
-12485.0
 22
-24973.1264
 32
0.0
 13
-12484.8
 23
-24973.1264
 33
0.0
  0
SOLID
  5
1144
330
A
100
AcDbEntity
  8
SOLDERMASK_PADS_BTM
100
AcDbTrace
 10
-12485.4
 20
-24974.1264
 30
0.0
 11
-12485.2
 21
-24974.1264
 31
0.0
 12
-12485.4
 22
-24973.1264
 32
0.0
 13
-12485.2
 23
-24973.1264
 33
0.0
  0
SOLID
  5
1145
330
A
100
AcDbEntity
  8
SOLDERMASK_PADS_BTM
100
AcDbTrace
 10
-12485.0
 20
-24975.3014
 30
0.0
 11
-12484.8
 21
-24975.3014
 31
0.0
 12
-12485.0
 22
-24974.3014
 32
0.0
 13
-12484.8
 23
-24974.3014
 33
0.0
  0
SOLID
  5
1146
330
A
100
AcDbEntity
  8
SOLDERMASK_PADS_BTM
100
AcDbTrace
 10
-12485.4
 20
-24975.3014
 30
0.0
 11
-12485.2
 21
-24975.3014
 31
0.0
 12
-12485.4
 22
-24974.3014
 32
0.0
 13
-12485.2
 23
-24974.3014
 33
0.0
  0
SOLID
  5
1147
330
A
100
AcDbEntity
  8
SOLDERMASK_PADS_BTM
100
AcDbTrace
 10
-12484.6086
 20
-24976.4764
 30
0.0
 11
-12484.4086
 21
-24976.4764
 31
0.0
 12
-12484.6086
 22
-24975.4764
 32
0.0
 13
-12484.4086
 23
-24975.4764
 33
0.0
  0
SOLID
  5
1148
330
A
100
AcDbEntity
  8
SOLDERMASK_PADS_BTM
100
AcDbTrace
 10
-12485.0086
 20
-24976.4764
 30
0.0
 11
-12484.8086
 21
-24976.4764
 31
0.0
 12
-12485.0086
 22
-24975.4764
 32
0.0
 13
-12484.8086
 23
-24975.4764
 33
0.0
  0
SOLID
  5
1149
330
A
100
AcDbEntity
  8
SOLDERMASK_PADS_BTM
100
AcDbTrace
 10
-12484.6086
 20
-24977.6514
 30
0.0
 11
-12484.4086
 21
-24977.6514
 31
0.0
 12
-12484.6086
 22
-24976.6514
 32
0.0
 13
-12484.4086
 23
-24976.6514
 33
0.0
  0
SOLID
  5
114A
330
A
100
AcDbEntity
  8
SOLDERMASK_PADS_BTM
100
AcDbTrace
 10
-12485.0086
 20
-24977.6514
 30
0.0
 11
-12484.8086
 21
-24977.6514
 31
0.0
 12
-12485.0086
 22
-24976.6514
 32
0.0
 13
-12484.8086
 23
-24976.6514
 33
0.0
  0
SOLID
  5
114B
330
A
100
AcDbEntity
  8
SOLDERMASK_PADS_BTM
100
AcDbTrace
 10
-12484.6086
 20
-24978.8264
 30
0.0
 11
-12484.4086
 21
-24978.8264
 31
0.0
 12
-12484.6086
 22
-24977.8264
 32
0.0
 13
-12484.4086
 23
-24977.8264
 33
0.0
  0
SOLID
  5
114C
330
A
100
AcDbEntity
  8
SOLDERMASK_PADS_BTM
100
AcDbTrace
 10
-12485.0086
 20
-24978.8264
 30
0.0
 11
-12484.8086
 21
-24978.8264
 31
0.0
 12
-12485.0086
 22
-24977.8264
 32
0.0
 13
-12484.8086
 23
-24977.8264
 33
0.0
  0
SOLID
  5
114D
330
A
100
AcDbEntity
  8
SOLDERMASK_PADS_BTM
100
AcDbTrace
 10
-12484.6086
 20
-24980.0744
 30
0.0
 11
-12484.4086
 21
-24980.0744
 31
0.0
 12
-12484.6086
 22
-24979.0744
 32
0.0
 13
-12484.4086
 23
-24979.0744
 33
0.0
  0
SOLID
  5
114E
330
A
100
AcDbEntity
  8
SOLDERMASK_PADS_BTM
100
AcDbTrace
 10
-12485.0086
 20
-24980.0744
 30
0.0
 11
-12484.8086
 21
-24980.0744
 31
0.0
 12
-12485.0086
 22
-24979.0744
 32
0.0
 13
-12484.8086
 23
-24979.0744
 33
0.0
  0
SOLID
  5
114F
330
A
100
AcDbEntity
  8
SOLDERMASK_PADS_BTM
100
AcDbTrace
 10
-12484.6086
 20
-24981.2494
 30
0.0
 11
-12484.4086
 21
-24981.2494
 31
0.0
 12
-12484.6086
 22
-24980.2494
 32
0.0
 13
-12484.4086
 23
-24980.2494
 33
0.0
  0
SOLID
  5
1150
330
A
100
AcDbEntity
  8
SOLDERMASK_PADS_BTM
100
AcDbTrace
 10
-12485.0086
 20
-24981.2494
 30
0.0
 11
-12484.8086
 21
-24981.2494
 31
0.0
 12
-12485.0086
 22
-24980.2494
 32
0.0
 13
-12484.8086
 23
-24980.2494
 33
0.0
  0
SOLID
  5
1151
330
A
100
AcDbEntity
  8
SOLDERMASK_PADS_BTM
100
AcDbTrace
 10
-12487.1906
 20
-24984.109
 30
0.0
 11
-12487.0406
 21
-24984.109
 31
0.0
 12
-12487.1906
 22
-24983.909
 32
0.0
 13
-12487.0406
 23
-24983.909
 33
0.0
  0
SOLID
  5
1152
330
A
100
AcDbEntity
  8
SOLDERMASK_PADS_BTM
100
AcDbTrace
 10
-12486.8606
 20
-24984.109
 30
0.0
 11
-12486.7106
 21
-24984.109
 31
0.0
 12
-12486.8606
 22
-24983.909
 32
0.0
 13
-12486.7106
 23
-24983.909
 33
0.0
  0
SOLID
  5
1153
330
A
100
AcDbEntity
  8
SOLDERMASK_PADS_BTM
100
AcDbTrace
 10
-12484.6086
 20
-24982.4974
 30
0.0
 11
-12484.4086
 21
-24982.4974
 31
0.0
 12
-12484.6086
 22
-24981.4974
 32
0.0
 13
-12484.4086
 23
-24981.4974
 33
0.0
  0
SOLID
  5
1154
330
A
100
AcDbEntity
  8
SOLDERMASK_PADS_BTM
100
AcDbTrace
 10
-12485.0086
 20
-24982.4974
 30
0.0
 11
-12484.8086
 21
-24982.4974
 31
0.0
 12
-12485.0086
 22
-24981.4974
 32
0.0
 13
-12484.8086
 23
-24981.4974
 33
0.0
  0
SOLID
  5
1155
330
A
100
AcDbEntity
  8
SOLDERMASK_PADS_BTM
100
AcDbTrace
 10
-12484.6086
 20
-24984.934
 30
0.0
 11
-12484.4086
 21
-24984.934
 31
0.0
 12
-12484.6086
 22
-24983.934
 32
0.0
 13
-12484.4086
 23
-24983.934
 33
0.0
  0
SOLID
  5
1156
330
A
100
AcDbEntity
  8
SOLDERMASK_PADS_BTM
100
AcDbTrace
 10
-12485.0086
 20
-24984.934
 30
0.0
 11
-12484.8086
 21
-24984.934
 31
0.0
 12
-12485.0086
 22
-24983.934
 32
0.0
 13
-12484.8086
 23
-24983.934
 33
0.0
  0
SOLID
  5
1157
330
A
100
AcDbEntity
  8
SOLDERMASK_PADS_BTM
100
AcDbTrace
 10
-12489.9996
 20
-24972.9804
 30
0.0
 11
-12488.9996
 21
-24972.9804
 31
0.0
 12
-12489.9996
 22
-24972.7804
 32
0.0
 13
-12488.9996
 23
-24972.7804
 33
0.0
  0
SOLID
  5
1158
330
A
100
AcDbEntity
  8
SOLDERMASK_PADS_BTM
100
AcDbTrace
 10
-12489.9996
 20
-24973.3804
 30
0.0
 11
-12488.9996
 21
-24973.3804
 31
0.0
 12
-12489.9996
 22
-24973.1804
 32
0.0
 13
-12488.9996
 23
-24973.1804
 33
0.0
  0
SOLID
  5
1159
330
A
100
AcDbEntity
  8
SOLDERMASK_PADS_BTM
100
AcDbTrace
 10
-12484.6086
 20
-24983.6724
 30
0.0
 11
-12484.4086
 21
-24983.6724
 31
0.0
 12
-12484.6086
 22
-24982.6724
 32
0.0
 13
-12484.4086
 23
-24982.6724
 33
0.0
  0
SOLID
  5
115A
330
A
100
AcDbEntity
  8
SOLDERMASK_PADS_BTM
100
AcDbTrace
 10
-12485.0086
 20
-24983.6724
 30
0.0
 11
-12484.8086
 21
-24983.6724
 31
0.0
 12
-12485.0086
 22
-24982.6724
 32
0.0
 13
-12484.8086
 23
-24982.6724
 33
0.0
  0
SOLID
  5
115B
330
A
100
AcDbEntity
  8
SOLDERMASK_PADS_BTM
100
AcDbTrace
 10
-12489.9996
 20
-24973.7961
 30
0.0
 11
-12488.9996
 21
-24973.7961
 31
0.0
 12
-12489.9996
 22
-24973.5961
 32
0.0
 13
-12488.9996
 23
-24973.5961
 33
0.0
  0
SOLID
  5
115C
330
A
100
AcDbEntity
  8
SOLDERMASK_PADS_BTM
100
AcDbTrace
 10
-12489.9996
 20
-24974.1961
 30
0.0
 11
-12488.9996
 21
-24974.1961
 31
0.0
 12
-12489.9996
 22
-24973.9961
 32
0.0
 13
-12488.9996
 23
-24973.9961
 33
0.0
  0
SOLID
  5
115D
330
A
100
AcDbEntity
  8
SOLDERMASK_PADS_BTM
100
AcDbTrace
 10
-12490.7746
 20
-24974.7534
 30
0.0
 11
-12490.5746
 21
-24974.7534
 31
0.0
 12
-12490.7746
 22
-24973.7534
 32
0.0
 13
-12490.5746
 23
-24973.7534
 33
0.0
  0
SOLID
  5
115E
330
A
100
AcDbEntity
  8
SOLDERMASK_PADS_BTM
100
AcDbTrace
 10
-12490.3746
 20
-24974.7534
 30
0.0
 11
-12490.1746
 21
-24974.7534
 31
0.0
 12
-12490.3746
 22
-24973.7534
 32
0.0
 13
-12490.1746
 23
-24973.7534
 33
0.0
  0
SOLID
  5
115F
330
A
100
AcDbEntity
  8
SOLDERMASK_PADS_BTM
100
AcDbTrace
 10
-12490.7746
 20
-24975.9284
 30
0.0
 11
-12490.5746
 21
-24975.9284
 31
0.0
 12
-12490.7746
 22
-24974.9284
 32
0.0
 13
-12490.5746
 23
-24974.9284
 33
0.0
  0
SOLID
  5
1160
330
A
100
AcDbEntity
  8
SOLDERMASK_PADS_BTM
100
AcDbTrace
 10
-12490.3746
 20
-24975.9284
 30
0.0
 11
-12490.1746
 21
-24975.9284
 31
0.0
 12
-12490.3746
 22
-24974.9284
 32
0.0
 13
-12490.1746
 23
-24974.9284
 33
0.0
  0
SOLID
  5
1161
330
A
100
AcDbEntity
  8
SOLDERMASK_PADS_BTM
100
AcDbTrace
 10
-12486.1836
 20
-24971.1744
 30
0.0
 11
-12485.1836
 21
-24971.1744
 31
0.0
 12
-12486.1836
 22
-24970.9744
 32
0.0
 13
-12485.1836
 23
-24970.9744
 33
0.0
  0
SOLID
  5
1162
330
A
100
AcDbEntity
  8
SOLDERMASK_PADS_BTM
100
AcDbTrace
 10
-12486.1836
 20
-24971.5744
 30
0.0
 11
-12485.1836
 21
-24971.5744
 31
0.0
 12
-12486.1836
 22
-24971.3744
 32
0.0
 13
-12485.1836
 23
-24971.3744
 33
0.0
  0
SOLID
  5
1163
330
A
100
AcDbEntity
  8
SOLDERMASK_PADS_BTM
100
AcDbTrace
 10
-12489.99864
 20
-24978.80806
 30
0.0
 11
-12488.99864
 21
-24978.80806
 31
0.0
 12
-12489.99864
 22
-24978.60806
 32
0.0
 13
-12488.99864
 23
-24978.60806
 33
0.0
  0
SOLID
  5
1164
330
A
100
AcDbEntity
  8
SOLDERMASK_PADS_BTM
100
AcDbTrace
 10
-12489.99864
 20
-24978.40806
 30
0.0
 11
-12488.99864
 21
-24978.40806
 31
0.0
 12
-12489.99864
 22
-24978.20806
 32
0.0
 13
-12488.99864
 23
-24978.20806
 33
0.0
  0
SOLID
  5
1165
330
A
100
AcDbEntity
  8
SOLDERMASK_PADS_BTM
100
AcDbTrace
 10
-12490.7746
 20
-24979.405
 30
0.0
 11
-12490.5746
 21
-24979.405
 31
0.0
 12
-12490.7746
 22
-24978.405
 32
0.0
 13
-12490.5746
 23
-24978.405
 33
0.0
  0
SOLID
  5
1166
330
A
100
AcDbEntity
  8
SOLDERMASK_PADS_BTM
100
AcDbTrace
 10
-12490.3746
 20
-24979.405
 30
0.0
 11
-12490.1746
 21
-24979.405
 31
0.0
 12
-12490.3746
 22
-24978.405
 32
0.0
 13
-12490.1746
 23
-24978.405
 33
0.0
  0
SOLID
  5
1167
330
A
100
AcDbEntity
  8
SOLDERMASK_PADS_BTM
100
AcDbTrace
 10
-12490.7746
 20
-24980.58
 30
0.0
 11
-12490.5746
 21
-24980.58
 31
0.0
 12
-12490.7746
 22
-24979.58
 32
0.0
 13
-12490.5746
 23
-24979.58
 33
0.0
  0
SOLID
  5
1168
330
A
100
AcDbEntity
  8
SOLDERMASK_PADS_BTM
100
AcDbTrace
 10
-12490.3746
 20
-24980.58
 30
0.0
 11
-12490.1746
 21
-24980.58
 31
0.0
 12
-12490.3746
 22
-24979.58
 32
0.0
 13
-12490.1746
 23
-24979.58
 33
0.0
  0
SOLID
  5
1169
330
A
100
AcDbEntity
  8
SOLDERMASK_PADS_BTM
100
AcDbTrace
 10
-12489.425
 20
-24977.002
 30
0.0
 11
-12488.425
 21
-24977.002
 31
0.0
 12
-12489.425
 22
-24976.802
 32
0.0
 13
-12488.425
 23
-24976.802
 33
0.0
  0
SOLID
  5
116A
330
A
100
AcDbEntity
  8
SOLDERMASK_PADS_BTM
100
AcDbTrace
 10
-12489.425
 20
-24977.402
 30
0.0
 11
-12488.425
 21
-24977.402
 31
0.0
 12
-12489.425
 22
-24977.202
 32
0.0
 13
-12488.425
 23
-24977.202
 33
0.0
  0
SOLID
  5
116B
330
A
100
AcDbEntity
  8
SOLDERMASK_PADS_BTM
100
AcDbTrace
 10
-12489.425
 20
-24976.227
 30
0.0
 11
-12488.425
 21
-24976.227
 31
0.0
 12
-12489.425
 22
-24976.027
 32
0.0
 13
-12488.425
 23
-24976.027
 33
0.0
  0
SOLID
  5
116C
330
A
100
AcDbEntity
  8
SOLDERMASK_PADS_BTM
100
AcDbTrace
 10
-12489.425
 20
-24976.627
 30
0.0
 11
-12488.425
 21
-24976.627
 31
0.0
 12
-12489.425
 22
-24976.427
 32
0.0
 13
-12488.425
 23
-24976.427
 33
0.0
  0
SOLID
  5
116D
330
A
100
AcDbEntity
  8
SOLDERMASK_PADS_BTM
100
AcDbTrace
 10
-12486.575
 20
-24972.32958
 30
0.0
 11
-12485.575
 21
-24972.32958
 31
0.0
 12
-12486.575
 22
-24972.12958
 32
0.0
 13
-12485.575
 23
-24972.12958
 33
0.0
  0
SOLID
  5
116E
330
A
100
AcDbEntity
  8
SOLDERMASK_PADS_BTM
100
AcDbTrace
 10
-12486.575
 20
-24972.72958
 30
0.0
 11
-12485.575
 21
-24972.72958
 31
0.0
 12
-12486.575
 22
-24972.52958
 32
0.0
 13
-12485.575
 23
-24972.52958
 33
0.0
  0
SOLID
  5
116F
330
A
100
AcDbEntity
  8
SOLDERMASK_PADS_BTM
100
AcDbTrace
 10
-12486.575
 20
-24973.10458
 30
0.0
 11
-12485.575
 21
-24973.10458
 31
0.0
 12
-12486.575
 22
-24972.90458
 32
0.0
 13
-12485.575
 23
-24972.90458
 33
0.0
  0
SOLID
  5
1170
330
A
100
AcDbEntity
  8
SOLDERMASK_PADS_BTM
100
AcDbTrace
 10
-12486.575
 20
-24973.50458
 30
0.0
 11
-12485.575
 21
-24973.50458
 31
0.0
 12
-12486.575
 22
-24973.30458
 32
0.0
 13
-12485.575
 23
-24973.30458
 33
0.0
  0
SOLID
  5
1171
330
A
100
AcDbEntity
  8
SOLDERMASK_PADS_BTM
100
AcDbTrace
 10
-12486.575
 20
-24973.87958
 30
0.0
 11
-12485.575
 21
-24973.87958
 31
0.0
 12
-12486.575
 22
-24973.67958
 32
0.0
 13
-12485.575
 23
-24973.67958
 33
0.0
  0
SOLID
  5
1172
330
A
100
AcDbEntity
  8
SOLDERMASK_PADS_BTM
100
AcDbTrace
 10
-12486.575
 20
-24974.27958
 30
0.0
 11
-12485.575
 21
-24974.27958
 31
0.0
 12
-12486.575
 22
-24974.07958
 32
0.0
 13
-12485.575
 23
-24974.07958
 33
0.0
  0
SOLID
  5
1173
330
A
100
AcDbEntity
  8
SOLDERMASK_PADS_BTM
100
AcDbTrace
 10
-12486.45826
 20
-24976.227
 30
0.0
 11
-12485.45826
 21
-24976.227
 31
0.0
 12
-12486.45826
 22
-24976.027
 32
0.0
 13
-12485.45826
 23
-24976.027
 33
0.0
  0
SOLID
  5
1174
330
A
100
AcDbEntity
  8
SOLDERMASK_PADS_BTM
100
AcDbTrace
 10
-12486.45826
 20
-24976.627
 30
0.0
 11
-12485.45826
 21
-24976.627
 31
0.0
 12
-12486.45826
 22
-24976.427
 32
0.0
 13
-12485.45826
 23
-24976.427
 33
0.0
  0
SOLID
  5
1175
330
A
100
AcDbEntity
  8
SOLDERMASK_PADS_BTM
100
AcDbTrace
 10
-12486.45826
 20
-24977.002
 30
0.0
 11
-12485.45826
 21
-24977.002
 31
0.0
 12
-12486.45826
 22
-24976.802
 32
0.0
 13
-12485.45826
 23
-24976.802
 33
0.0
  0
SOLID
  5
1176
330
A
100
AcDbEntity
  8
SOLDERMASK_PADS_BTM
100
AcDbTrace
 10
-12486.45826
 20
-24977.402
 30
0.0
 11
-12485.45826
 21
-24977.402
 31
0.0
 12
-12486.45826
 22
-24977.202
 32
0.0
 13
-12485.45826
 23
-24977.202
 33
0.0
  0
SOLID
  5
1177
330
A
100
AcDbEntity
  8
SOLDERMASK_PADS_BTM
100
AcDbTrace
 10
-12489.861902
 20
-24972.6054
 30
0.0
 11
-12489.361902
 21
-24972.6054
 31
0.0
 12
-12489.861902
 22
-24972.2294
 32
0.0
 13
-12489.361902
 23
-24972.2294
 33
0.0
  0
SOLID
  5
1178
330
A
100
AcDbEntity
  8
SOLDERMASK_PADS_BTM
100
AcDbTrace
 10
-12489.861902
 20
-24971.7794
 30
0.0
 11
-12489.361902
 21
-24971.7794
 31
0.0
 12
-12489.861902
 22
-24971.4034
 32
0.0
 13
-12489.361902
 23
-24971.4034
 33
0.0
  0
SOLID
  5
1179
330
A
100
AcDbEntity
  8
SOLDERMASK_PADS_BTM
100
AcDbTrace
 10
-12489.89634
 20
-24975.851996
 30
0.0
 11
-12489.39634
 21
-24975.851996
 31
0.0
 12
-12489.89634
 22
-24975.475996
 32
0.0
 13
-12489.39634
 23
-24975.475996
 33
0.0
  0
SOLID
  5
117A
330
A
100
AcDbEntity
  8
SOLDERMASK_PADS_BTM
100
AcDbTrace
 10
-12489.89634
 20
-24975.025996
 30
0.0
 11
-12489.39634
 21
-24975.025996
 31
0.0
 12
-12489.89634
 22
-24974.649996
 32
0.0
 13
-12489.39634
 23
-24974.649996
 33
0.0
  0
SOLID
  5
117B
330
A
100
AcDbEntity
  8
SOLDERMASK_PADS_BTM
100
AcDbTrace
 10
-12488.149602
 20
-24974.348923
 30
0.0
 11
-12487.649602
 21
-24974.348923
 31
0.0
 12
-12488.149602
 22
-24973.972923
 32
0.0
 13
-12487.649602
 23
-24973.972923
 33
0.0
  0
SOLID
  5
117C
330
A
100
AcDbEntity
  8
SOLDERMASK_PADS_BTM
100
AcDbTrace
 10
-12488.149602
 20
-24973.522923
 30
0.0
 11
-12487.649602
 21
-24973.522923
 31
0.0
 12
-12488.149602
 22
-24973.146923
 32
0.0
 13
-12487.649602
 23
-24973.146923
 33
0.0
  0
SOLID
  5
117D
330
A
100
AcDbEntity
  8
SOLDERMASK_PADS_BTM
100
AcDbTrace
 10
-12488.971462
 20
-24972.6054
 30
0.0
 11
-12488.471462
 21
-24972.6054
 31
0.0
 12
-12488.971462
 22
-24972.2294
 32
0.0
 13
-12488.471462
 23
-24972.2294
 33
0.0
  0
SOLID
  5
117E
330
A
100
AcDbEntity
  8
SOLDERMASK_PADS_BTM
100
AcDbTrace
 10
-12488.971462
 20
-24971.7794
 30
0.0
 11
-12488.471462
 21
-24971.7794
 31
0.0
 12
-12488.971462
 22
-24971.4034
 32
0.0
 13
-12488.471462
 23
-24971.4034
 33
0.0
  0
SOLID
  5
117F
330
A
100
AcDbEntity
  8
SOLDERMASK_PADS_BTM
100
AcDbTrace
 10
-12488.824602
 20
-24974.348923
 30
0.0
 11
-12488.324602
 21
-24974.348923
 31
0.0
 12
-12488.824602
 22
-24973.972923
 32
0.0
 13
-12488.324602
 23
-24973.972923
 33
0.0
  0
SOLID
  5
1180
330
A
100
AcDbEntity
  8
SOLDERMASK_PADS_BTM
100
AcDbTrace
 10
-12488.824602
 20
-24973.522923
 30
0.0
 11
-12488.324602
 21
-24973.522923
 31
0.0
 12
-12488.824602
 22
-24973.146923
 32
0.0
 13
-12488.324602
 23
-24973.146923
 33
0.0
  0
SOLID
  5
1181
330
A
100
AcDbEntity
  8
SOLDERMASK_PADS_BTM
100
AcDbTrace
 10
-12489.131722
 20
-24975.851996
 30
0.0
 11
-12488.631722
 21
-24975.851996
 31
0.0
 12
-12489.131722
 22
-24975.475996
 32
0.0
 13
-12488.631722
 23
-24975.475996
 33
0.0
  0
SOLID
  5
1182
330
A
100
AcDbEntity
  8
SOLDERMASK_PADS_BTM
100
AcDbTrace
 10
-12489.131722
 20
-24975.025996
 30
0.0
 11
-12488.631722
 21
-24975.025996
 31
0.0
 12
-12489.131722
 22
-24974.649996
 32
0.0
 13
-12488.631722
 23
-24974.649996
 33
0.0
  0
SOLID
  5
1183
330
A
100
AcDbEntity
  8
SOLDERMASK_PADS_BTM
100
AcDbTrace
 10
-12488.338262
 20
-24975.751996
 30
0.0
 11
-12487.838262
 21
-24975.751996
 31
0.0
 12
-12488.338262
 22
-24975.375996
 32
0.0
 13
-12487.838262
 23
-24975.375996
 33
0.0
  0
SOLID
  5
1184
330
A
100
AcDbEntity
  8
SOLDERMASK_PADS_BTM
100
AcDbTrace
 10
-12488.338262
 20
-24974.925996
 30
0.0
 11
-12487.838262
 21
-24974.925996
 31
0.0
 12
-12488.338262
 22
-24974.549996
 32
0.0
 13
-12487.838262
 23
-24974.549996
 33
0.0
  0
SOLID
  5
1185
330
A
100
AcDbEntity
  8
SOLDERMASK_PADS_BTM
100
AcDbTrace
 10
-12487.549942
 20
-24975.751996
 30
0.0
 11
-12487.049942
 21
-24975.751996
 31
0.0
 12
-12487.549942
 22
-24975.375996
 32
0.0
 13
-12487.049942
 23
-24975.375996
 33
0.0
  0
SOLID
  5
1186
330
A
100
AcDbEntity
  8
SOLDERMASK_PADS_BTM
100
AcDbTrace
 10
-12487.549942
 20
-24974.925996
 30
0.0
 11
-12487.049942
 21
-24974.925996
 31
0.0
 12
-12487.549942
 22
-24974.549996
 32
0.0
 13
-12487.049942
 23
-24974.549996
 33
0.0
  0
SOLID
  5
1187
330
A
100
AcDbEntity
  8
SOLDERMASK_PADS_BTM
100
AcDbTrace
 10
-12488.710102
 20
-24977.9838
 30
0.0
 11
-12488.210102
 21
-24977.9838
 31
0.0
 12
-12488.710102
 22
-24977.6078
 32
0.0
 13
-12488.210102
 23
-24977.6078
 33
0.0
  0
SOLID
  5
1188
330
A
100
AcDbEntity
  8
SOLDERMASK_PADS_BTM
100
AcDbTrace
 10
-12488.710102
 20
-24978.8098
 30
0.0
 11
-12488.210102
 21
-24978.8098
 31
0.0
 12
-12488.710102
 22
-24978.4338
 32
0.0
 13
-12488.210102
 23
-24978.4338
 33
0.0
  0
SOLID
  5
1189
330
A
100
AcDbEntity
  8
SOLDERMASK_PADS_BTM
100
AcDbTrace
 10
-12487.935182
 20
-24977.9838
 30
0.0
 11
-12487.435182
 21
-24977.9838
 31
0.0
 12
-12487.935182
 22
-24977.6078
 32
0.0
 13
-12487.435182
 23
-24977.6078
 33
0.0
  0
SOLID
  5
118A
330
A
100
AcDbEntity
  8
SOLDERMASK_PADS_BTM
100
AcDbTrace
 10
-12487.935182
 20
-24978.8098
 30
0.0
 11
-12487.435182
 21
-24978.8098
 31
0.0
 12
-12487.935182
 22
-24978.4338
 32
0.0
 13
-12487.435182
 23
-24978.4338
 33
0.0
  0
SOLID
  5
118B
330
A
100
AcDbEntity
  8
SOLDERMASK_PADS_BTM
100
AcDbTrace
 10
-12487.474602
 20
-24974.348923
 30
0.0
 11
-12486.974602
 21
-24974.348923
 31
0.0
 12
-12487.474602
 22
-24973.972923
 32
0.0
 13
-12486.974602
 23
-24973.972923
 33
0.0
  0
SOLID
  5
118C
330
A
100
AcDbEntity
  8
SOLDERMASK_PADS_BTM
100
AcDbTrace
 10
-12487.474602
 20
-24973.522923
 30
0.0
 11
-12486.974602
 21
-24973.522923
 31
0.0
 12
-12487.474602
 22
-24973.146923
 32
0.0
 13
-12486.974602
 23
-24973.146923
 33
0.0
  0
SOLID
  5
118D
330
A
100
AcDbEntity
  8
SOLDERMASK_PADS_BTM
100
AcDbTrace
 10
-12486.802482
 20
-24975.751996
 30
0.0
 11
-12486.302482
 21
-24975.751996
 31
0.0
 12
-12486.802482
 22
-24975.375996
 32
0.0
 13
-12486.302482
 23
-24975.375996
 33
0.0
  0
SOLID
  5
118E
330
A
100
AcDbEntity
  8
SOLDERMASK_PADS_BTM
100
AcDbTrace
 10
-12486.802482
 20
-24974.925996
 30
0.0
 11
-12486.302482
 21
-24974.925996
 31
0.0
 12
-12486.802482
 22
-24974.549996
 32
0.0
 13
-12486.302482
 23
-24974.549996
 33
0.0
  0
SOLID
  5
118F
330
A
100
AcDbEntity
  8
SOLDERMASK_PADS_BTM
100
AcDbTrace
 10
-12486.075
 20
-24975.851996
 30
0.0
 11
-12485.575
 21
-24975.851996
 31
0.0
 12
-12486.075
 22
-24975.475996
 32
0.0
 13
-12485.575
 23
-24975.475996
 33
0.0
  0
SOLID
  5
1190
330
A
100
AcDbEntity
  8
SOLDERMASK_PADS_BTM
100
AcDbTrace
 10
-12486.075
 20
-24975.025996
 30
0.0
 11
-12485.575
 21
-24975.025996
 31
0.0
 12
-12486.075
 22
-24974.649996
 32
0.0
 13
-12485.575
 23
-24974.649996
 33
0.0
  0
SOLID
  5
1191
330
A
100
AcDbEntity
  8
SOLDERMASK_PADS_BTM
100
AcDbTrace
 10
-12485.782702
 20
-24977.9838
 30
0.0
 11
-12485.282702
 21
-24977.9838
 31
0.0
 12
-12485.782702
 22
-24977.6078
 32
0.0
 13
-12485.282702
 23
-24977.6078
 33
0.0
  0
SOLID
  5
1192
330
A
100
AcDbEntity
  8
SOLDERMASK_PADS_BTM
100
AcDbTrace
 10
-12485.782702
 20
-24978.8098
 30
0.0
 11
-12485.282702
 21
-24978.8098
 31
0.0
 12
-12485.782702
 22
-24978.4338
 32
0.0
 13
-12485.282702
 23
-24978.4338
 33
0.0
  0
SOLID
  5
1193
330
A
100
AcDbEntity
  8
SOLDERMASK_PADS_BTM
100
AcDbTrace
 10
-12486.457702
 20
-24977.9838
 30
0.0
 11
-12485.957702
 21
-24977.9838
 31
0.0
 12
-12486.457702
 22
-24977.6078
 32
0.0
 13
-12485.957702
 23
-24977.6078
 33
0.0
  0
SOLID
  5
1194
330
A
100
AcDbEntity
  8
SOLDERMASK_PADS_BTM
100
AcDbTrace
 10
-12486.457702
 20
-24978.8098
 30
0.0
 11
-12485.957702
 21
-24978.8098
 31
0.0
 12
-12486.457702
 22
-24978.4338
 32
0.0
 13
-12485.957702
 23
-24978.4338
 33
0.0
  0
SOLID
  5
1195
330
A
100
AcDbEntity
  8
SOLDERMASK_PADS_BTM
100
AcDbTrace
 10
-12487.160262
 20
-24977.9838
 30
0.0
 11
-12486.660262
 21
-24977.9838
 31
0.0
 12
-12487.160262
 22
-24977.6078
 32
0.0
 13
-12486.660262
 23
-24977.6078
 33
0.0
  0
SOLID
  5
1196
330
A
100
AcDbEntity
  8
SOLDERMASK_PADS_BTM
100
AcDbTrace
 10
-12487.160262
 20
-24978.8098
 30
0.0
 11
-12486.660262
 21
-24978.8098
 31
0.0
 12
-12487.160262
 22
-24978.4338
 32
0.0
 13
-12486.660262
 23
-24978.4338
 33
0.0
  0
LWPOLYLINE
  5
1198
330
A
100
AcDbEntity
  8
PKG_OUTLINE
100
AcDbPolyline
 90
4
 70
1
 10
-12500.0
 20
-25000.0
 10
-12500.0
 20
-24950.0
 10
-12475.0
 20
-24950.0
 10
-12475.0
 20
-25000.0
  0
LWPOLYLINE
  5
43FE
330
A
100
AcDbEntity
  8
0
100
AcDbPolyline
 90
131
 70
0
 10
-12491.273450476021
 20
-24984.65785047602
 10
-12491.274599999999
 20
-24984.63445137789
 10
-12491.274599999999
 20
-24984.25945137789
 10
-12491.274599999999
 20
-24983.28345137789
 10
-12491.274599999999
 20
-24983.18354862211
 10
-12491.274599999999
 20
-24982.73245137789
 10
-12491.274599999999
 20
-24982.63254862211
 10
-12491.274599999999
 20
-24981.756451377893
 10
-12491.274599999999
 20
-24981.656548622108
 10
-12491.274599999999
 20
-24981.230000000003
 10
-12491.400051377865
 20
-24981.230000000003
 10
-12491.423450476022
 20
-24981.22885047602
 10
-12491.4246
 20
-24981.205451377893
 10
-12491.4246
 20
-24980.03045137789
 10
-12491.4246
 20
-24978.95454862211
 10
-12491.4246
 20
-24977.779548622108
 10
-12491.423450476022
 20
-24977.75614952398
 10
-12491.400051377865
 20
-24977.754999999997
 10
-12491.3746
 20
-24977.754999999997
 10
-12491.3746
 20
-24977.396768622108
 10
-12491.3746
 20
-24977.021768622108
 10
-12491.3746
 20
-24976.646768622108
 10
-12491.373450476021
 20
-24976.62336952398
 10
-12491.350051377864
 20
-24976.622219999997
 10
-12491.27314
 20
-24976.622219999997
 10
-12491.27314
 20
-24976.578400000002
 10
-12491.400051377865
 20
-24976.578400000002
 10
-12491.423450476022
 20
-24976.57725047602
 10
-12491.4246
 20
-24976.553851377892
 10
-12491.4246
 20
-24975.378851377893
 10
-12491.4246
 20
-24974.30294862211
 10
-12491.4246
 20
-24974.20385137789
 10
-12491.4246
 20
-24973.12794862211
 10
-12491.4246
 20
-24973.01705137789
 10
-12491.4246
 20
-24972.64205137789
 10
-12491.4246
 20
-24972.26705137789
 10
-12491.4246
 20
-24971.952948622107
 10
-12491.4246
 20
-24971.566148622107
 10
-12491.4246
 20
-24971.191148622107
 10
-12491.4246
 20
-24970.816148622107
 10
-12491.423450476022
 20
-24970.79274952398
 10
-12491.400051377865
 20
-24970.791599999997
 10
-12491.274599999999
 20
-24970.791599999997
 10
-12491.274599999999
 20
-24970.326851377893
 10
-12491.274599999999
 20
-24970.22694862211
 10
-12491.274599999999
 20
-24969.35085137789
 10
-12491.274599999999
 20
-24969.25094862211
 10
-12491.274599999999
 20
-24968.69994862211
 10
-12491.274599999999
 20
-24967.723948622108
 10
-12491.273450476021
 20
-24967.70054952398
 10
-12491.250051377863
 20
-24967.699399999998
 10
-12489.349148622136
 20
-24967.699399999998
 10
-12489.325749523978
 20
-24967.70054952398
 10
-12489.3246
 20
-24967.723948622108
 10
-12489.3246
 20
-24967.8494
 10
-12488.888051377864
 20
-24967.8494
 10
-12488.788148622136
 20
-24967.8494
 10
-12487.912051377863
 20
-24967.8494
 10
-12487.812148622135
 20
-24967.8494
 10
-12487.361051377864
 20
-24967.8494
 10
-12487.261148622136
 20
-24967.8494
 10
-12486.385051377863
 20
-24967.8494
 10
-12486.285148622135
 20
-24967.8494
 10
-12485.734148622136
 20
-24967.8494
 10
-12484.758148622135
 20
-24967.8494
 10
-12484.734749523977
 20
-24967.85054952398
 10
-12484.7336
 20
-24967.87394862211
 10
-12484.7336
 20
-24968.5994
 10
-12483.933148622136
 20
-24968.5994
 10
-12483.909749523978
 20
-24968.60054952398
 10
-12483.9086
 20
-24968.62394862211
 10
-12483.9086
 20
-24969.599948622108
 10
-12483.9086
 20
-24970.126399999997
 10
-12483.783148622137
 20
-24970.126399999997
 10
-12483.759749523979
 20
-24970.12754952398
 10
-12483.758600000001
 20
-24970.150948622108
 10
-12483.758600000001
 20
-24972.40185137789
 10
-12483.759749523979
 20
-24972.42525047602
 10
-12483.783148622137
 20
-24972.4264
 10
-12484.15
 20
-24972.4264
 10
-12484.15
 20
-24972.50094862211
 10
-12484.15
 20
-24973.576851377893
 10
-12484.15
 20
-24973.67594862211
 10
-12484.15
 20
-24974.751851377892
 10
-12484.15
 20
-24974.826399999998
 10
-12483.783148622137
 20
-24974.826399999998
 10
-12483.759749523979
 20
-24974.82754952398
 10
-12483.758600000001
 20
-24974.85094862211
 10
-12483.758600000001
 20
-24976.025948622108
 10
-12483.758600000001
 20
-24977.10185137789
 10
-12483.758600000001
 20
-24977.20094862211
 10
-12483.758600000001
 20
-24978.27685137789
 10
-12483.758600000001
 20
-24978.44894862211
 10
-12483.758600000001
 20
-24979.451851377893
 10
-12483.758600000001
 20
-24979.62394862211
 10
-12483.758600000001
 20
-24980.699851377893
 10
-12483.758600000001
 20
-24980.87194862211
 10
-12483.758600000001
 20
-24981.874851377892
 10
-12483.758600000001
 20
-24982.046948622108
 10
-12483.758600000001
 20
-24983.12285137789
 10
-12483.758600000001
 20
-24983.30854862211
 10
-12483.758600000001
 20
-24984.29785137789
 10
-12483.758600000001
 20
-24985.559451377892
 10
-12483.759749523979
 20
-24985.58285047602
 10
-12483.783148622137
 20
-24985.584000000003
 10
-12484.183148622136
 20
-24985.584000000003
 10
-12484.533601000001
 20
-24985.584000000003
 10
-12484.533601000001
 20
-24985.70945137789
 10
-12484.534750523979
 20
-24985.73285047602
 10
-12484.558149622137
 20
-24985.734
 10
-12486.009052377864
 20
-24985.734
 10
-12486.032451476021
 20
-24985.73285047602
 10
-12486.033601
 20
-24985.70945137789
 10
-12486.033601
 20
-24985.584000000003
 10
-12486.560052377865
 20
-24985.584000000003
 10
-12486.749600000001
 20
-24985.584000000003
 10
-12486.749600000001
 20
-24985.70945137789
 10
-12486.750749523979
 20
-24985.73285047602
 10
-12486.774148622137
 20
-24985.734
 10
-12487.599148622136
 20
-24985.734
 10
-12488.424148622136
 20
-24985.734
 10
-12488.675051377864
 20
-24985.734
 10
-12489.500051377863
 20
-24985.734
 10
-12490.325051377864
 20
-24985.734
 10
-12490.348450476022
 20
-24985.73285047602
 10
-12490.3496
 20
-24985.70945137789
 10
-12490.3496
 20
-24984.73345137789
 10
-12490.3496
 20
-24984.659
 10
-12490.920051377863
 20
-24984.659
 10
-12491.250051377863
 20
-24984.659
 10
-12491.273450476021
 20
-24984.65785047602
  0
LWPOLYLINE
  5
43FF
330
A
100
AcDbEntity
  8
0
100
AcDbPolyline
 90
6
 70
0
 10
-12487.820312476022
 20
-24972.495773476017
 10
-12487.820312476022
 20
-24971.450549523983
 10
-12486.834749523978
 20
-24971.450549523983
 10
-12487.177062677714
 20
-24971.965817036555
 10
-12487.226149523978
 20
-24972.495773476017
 10
-12487.820312476022
 20
-24972.495773476017
  0
LWPOLYLINE
  5
4400
330
A
100
AcDbEntity
  8
0
100
AcDbPolyline
 90
5
 70
0
 10
-12487.775
 20
-24976.42654462211
 10
-12487.109409523977
 20
-24976.403145523982
 10
-12487.109409523977
 20
-24976.95665047602
 10
-12487.773850476022
 20
-24976.95665047602
 10
-12487.775
 20
-24976.42654462211
  0
LWPOLYLINE
  5
4401
330
A
100
AcDbEntity
  8
0
100
AcDbPolyline
 90
5
 70
0
 10
-12488.123450476023
 20
-24981.55385047602
 10
-12488.123450476023
 20
-24980.988449523982
 10
-12487.358689523977
 20
-24980.988449523982
 10
-12487.358689523977
 20
-24981.55385047602
 10
-12488.123450476023
 20
-24981.55385047602
  0
ENDSEC
  0
SECTION
  2
OBJECTS
  0
DICTIONARY
  5
16
330
0
100
AcDbDictionary
281
1
  3
ACAD_BACKGROUND
350
43EA
  3
ACAD_CIP_PREVIOUS_PRODUCT_INFO
350
43CE
  3
ACAD_COLOR
350
43AE
  3
ACAD_DETAILVIEWSTYLE
350
43C8
  3
ACAD_GROUP
350
17
  3
ACAD_LAYOUT
350
43AF
  3
ACAD_MATERIAL
350
437C
  3
ACAD_MLEADERSTYLE
350
43C4
  3
ACAD_MLINESTYLE
350
18
  3
ACAD_PLOTSETTINGS
350
43CA
  3
ACAD_PLOTSTYLENAME
350
437A
  3
ACAD_SCALELIST
350
43B2
  3
ACAD_SECTIONVIEWSTYLE
350
43C6
  3
ACAD_TABLESTYLE
350
43B0
  3
ACAD_VISUALSTYLE
350
4395
  3
ACDB_RECOMPOSE_DATA
350
43FA
  3
AcDbVariableDictionary
350
43D3
  3
ASE_INDEX_DICTIONARY
350
43D0
  0
DICTIONARY
  5
43ED
330
1199
100
AcDbDictionary
280
1
281
1
  3
ADSK_XREC_LAYER_RECONCILED
360
43EE
  0
DICTIONARY
  5
43EF
330
119A
100
AcDbDictionary
280
1
281
1
  3
ADSK_XREC_LAYER_RECONCILED
360
43F0
  0
DICTIONARY
  5
43F1
330
119B
100
AcDbDictionary
280
1
281
1
  3
ADSK_XREC_LAYER_RECONCILED
360
43F2
  0
DICTIONARY
  5
43F3
330
119C
100
AcDbDictionary
280
1
281
1
  3
ADSK_XREC_LAYER_RECONCILED
360
43F4
  0
DICTIONARY
  5
43F5
330
119D
100
AcDbDictionary
280
1
281
1
  3
ADSK_XREC_LAYER_RECONCILED
360
43F6
  0
DICTIONARY
  5
43F7
330
119E
100
AcDbDictionary
280
1
281
1
  3
ADSK_XREC_LAYER_RECONCILED
360
43F8
  0
DICTIONARY
  5
43EA
102
{ACAD_REACTORS
330
16
102
}
330
16
100
AcDbDictionary
281
1
  0
XRECORD
  5
43CE
102
{ACAD_REACTORS
330
16
102
}
330
16
100
AcDbXrecord
280
1
300
ACD
300
2021
300

  0
DICTIONARY
  5
43AE
102
{ACAD_REACTORS
330
16
102
}
330
16
100
AcDbDictionary
281
1
  0
DICTIONARY
  5
43C8
102
{ACAD_REACTORS
330
16
102
}
330
16
100
AcDbDictionary
281
1
  3
Imperial24
350
43C9
  0
DICTIONARY
  5
17
102
{ACAD_REACTORS
330
16
102
}
330
16
100
AcDbDictionary
281
1
  0
DICTIONARY
  5
43AF
102
{ACAD_REACTORS
330
16
102
}
330
16
100
AcDbDictionary
281
1
  3
Layout1
350
43CC
  3
Model
350
43CB
  0
DICTIONARY
  5
437C
102
{ACAD_REACTORS
330
16
102
}
330
16
100
AcDbDictionary
281
1
  3
ByBlock
350
4385
  3
ByLayer
350
437D
  3
Global
350
438D
  0
DICTIONARY
  5
43C4
102
{ACAD_REACTORS
330
16
102
}
330
16
100
AcDbDictionary
281
1
  3
Standard
350
43C5
  0
DICTIONARY
  5
18
102
{ACAD_REACTORS
330
16
102
}
330
16
100
AcDbDictionary
281
1
  3
STANDARD
350
19
  3
Standard
350
43FB
  0
DICTIONARY
  5
43CA
102
{ACAD_REACTORS
330
16
102
}
330
16
100
AcDbDictionary
281
1
  0
ACDBDICTIONARYWDFLT
  5
437A
102
{ACAD_REACTORS
330
16
102
}
330
16
100
AcDbDictionary
281
1
  3
Normal
350
437B
100
AcDbDictionaryWithDefault
340
437B
  0
DICTIONARY
  5
43B2
102
{ACAD_REACTORS
330
16
102
}
330
16
100
AcDbDictionary
281
1
  3
A0
350
43B3
  3
A1
350
43B4
  3
A2
350
43B5
  3
A3
350
43B6
  3
A4
350
43B7
  3
A5
350
43B8
  3
A6
350
43B9
  3
A7
350
43BA
  3
A8
350
43BB
  3
A9
350
43BC
  3
B0
350
43BD
  3
B1
350
43BE
  3
B2
350
43BF
  3
B3
350
43C0
  3
B4
350
43C1
  3
B5
350
43C2
  3
B6
350
43C3
  0
DICTIONARY
  5
43C6
102
{ACAD_REACTORS
330
16
102
}
330
16
100
AcDbDictionary
281
1
  3
Imperial24
350
43C7
  0
DICTIONARY
  5
43B0
102
{ACAD_REACTORS
330
16
102
}
330
16
100
AcDbDictionary
281
1
  3
Standard
350
43B1
  0
DICTIONARY
  5
4395
102
{ACAD_REACTORS
330
16
102
}
330
16
100
AcDbDictionary
281
1
  3
2dWireframe
350
439B
  3
Basic
350
439A
  3
Brighten
350
43A1
  3
ColorChange
350
43A5
  3
Conceptual
350
439E
  3
Dim
350
43A0
  3
EdgeColorOff
350
43AD
  3
Facepattern
350
43A4
  3
Flat
350
4396
  3
FlatWithEdges
350
4397
  3
Gouraud
350
4398
  3
GouraudWithEdges
350
4399
  3
Hidden
350
439D
  3
JitterOff
350
43AB
  3
Linepattern
350
43A3
  3
OverhangOff
350
43AC
  3
Realistic
350
439F
  3
Shaded
350
43AA
  3
Shaded with edges
350
43A9
  3
Shades of Gray
350
43A6
  3
Sketchy
350
43A7
  3
Thicken
350
43A2
  3
Wireframe
350
439C
  3
X-Ray
350
43A8
  0
XRECORD
  5
43FA
102
{ACAD_REACTORS
330
16
102
}
330
16
100
AcDbXrecord
280
1
 90
1
330
43B1
  0
DICTIONARY
  5
43D3
102
{ACAD_REACTORS
330
16
102
}
330
16
100
AcDbDictionary
281
1
  3
CANNOSCALE
350
43D9
  3
CMLEADERSTYLE
350
43D5
  3
CTABLESTYLE
350
43D4
  3
CVIEWDETAILSTYLE
350
43D6
  3
CVIEWSECTIONSTYLE
350
43D7
  3
LAYEREVAL
350
43DB
  3
LAYERNOTIFY
350
43DC
  3
LIGHTINGUNITS
350
43DA
  3
MSLTSCALE
350
43D8
  0
DICTIONARY
  5
43D0
102
{ACAD_REACTORS
330
16
102
}
330
16
100
AcDbDictionary
281
1
  3
ASEBlockHierarchyIndexRecord
350
43D2
1001
DCO15
1040
2034916685.0
  0
XRECORD
  5
43EE
102
{ACAD_REACTORS
330
43ED
102
}
330
43ED
100
AcDbXrecord
280
1
290
1
  0
XRECORD
  5
43F0
102
{ACAD_REACTORS
330
43EF
102
}
330
43EF
100
AcDbXrecord
280
1
290
1
  0
XRECORD
  5
43F2
102
{ACAD_REACTORS
330
43F1
102
}
330
43F1
100
AcDbXrecord
280
1
290
1
  0
XRECORD
  5
43F4
102
{ACAD_REACTORS
330
43F3
102
}
330
43F3
100
AcDbXrecord
280
1
290
1
  0
XRECORD
  5
43F6
102
{ACAD_REACTORS
330
43F5
102
}
330
43F5
100
AcDbXrecord
280
1
290
1
  0
XRECORD
  5
43F8
102
{ACAD_REACTORS
330
43F7
102
}
330
43F7
100
AcDbXrecord
280
1
290
1
  0
ACDBDETAILVIEWSTYLE
  5
43C9
102
{ACAD_REACTORS
330
43C8
102
}
330
43C8
100
AcDbModelDocViewStyle
 70
0
  3
Imperial24
290
0
300
Imperial24
 90
0
100
AcDbDetailViewStyle
 70
0
 71
0
 90
3
 71
1
340
119F
 62
256
 40
0.24
340
0
 62
256
 40
0.24
300

 40
0.36
280
3
 71
2
340
12
 90
25
 62
256
 71
3
340
119F
 62
256
 40
0.24
 90
1
 40
0.75
 90
1
300
%<\AcVar ViewType \f "%tc1">% %<\AcVar ViewDetailId>%\PSCALE %<\AcVar ViewScale \f "%sn">%
 71
4
340
12
 90
25
 62
256
340
12
 90
25
 62
256
280
0
  0
LAYOUT
  5
43CC
102
{ACAD_REACTORS
330
43AF
102
}
330
43AF
100
AcDbPlotSettings
  1

  2
Foxit Reader PDF Printer
  4

  6

 40
0.0
 41
0.0
 42
0.0
 43
0.0
 44
0.0
 45
0.0
 46
0.0
 47
0.0
 48
0.0
 49
0.0
140
0.0
141
0.0
142
1.0
143
1.0
 70
688
 72
0
 73
0
 74
5
  7

 75
16
 76
0
 77
2
 78
300
147
1.0
148
0.0
149
0.0
100
AcDbLayout
  1
Layout1
 70
0
 71
1
 10
0.0
 20
0.0
 11
12.0
 21
9.0
 12
0.0
 22
0.0
 32
0.0
 14
1e+20
 24
1e+20
 34
1e+20
 15
-1e+20
 25
-1e+20
 35
-1e+20
146
0.0
 13
0.0
 23
0.0
 33
0.0
 16
1.0
 26
0.0
 36
0.0
 17
0.0
 27
1.0
 37
0.0
 76
0
330
B
  0
LAYOUT
  5
43CB
102
{ACAD_REACTORS
330
43AF
102
}
330
43AF
100
AcDbPlotSettings
  1

  2
Foxit Reader PDF Printer
  4

  6

 40
0.0
 41
0.0
 42
0.0
 43
0.0
 44
0.0
 45
0.0
 46
0.0
 47
0.0
 48
0.0
 49
0.0
140
0.0
141
0.0
142
1.0
143
1.0
 70
1712
 72
0
 73
0
 74
0
  7

 75
0
 76
0
 77
2
 78
300
147
1.0
148
0.0
149
0.0
100
AcDbLayout
  1
Model
 70
1
 71
0
 10
0.0
 20
0.0
 11
12.0
 21
9.0
 12
0.0
 22
0.0
 32
0.0
 14
0.0
 24
0.0
 34
0.0
 15
0.0
 25
0.0
 35
0.0
146
0.0
 13
0.0
 23
0.0
 33
0.0
 16
1.0
 26
0.0
 36
0.0
 17
0.0
 27
1.0
 37
0.0
 76
0
330
A
331
13
  0
MATERIAL
  5
4385
102
{ACAD_XDICTIONARY
360
4386
102
}
102
{ACAD_REACTORS
330
437C
102
}
330
437C
100
AcDbMaterial
  1
ByBlock
  2

 70
0
 40
1.0
 71
0
 41
1.0
 91
-1023410177
 42
1.0
 72
0
  3

 73
1
 74
1
 75
1
 43
0.0208333333333333
 43
0.0
 43
0.0
 43
0.0
 43
0.0
 43
0.0208333333333333
 43
0.0
 43
0.0
 43
0.0
 43
0.0
 43
1.0
 43
0.0
 43
0.0
 43
0.0
 43
0.0
 43
1.0
 44
0.5
 73
0
 45
1.0
 46
1.0
 77
0
  4

 78
1
 79
1
170
1
 47
0.0208333333333333
 47
0.0
 47
0.0
 47
0.0
 47
0.0
 47
0.0208333333333333
 47
0.0
 47
0.0
 47
0.0
 47
0.0
 47
1.0
 47
0.0
 47
0.0
 47
0.0
 47
0.0
 47
1.0
 48
1.0
171
0
  6

172
1
173
1
174
1
 49
0.0208333333333333
 49
0.0
 49
0.0
 49
0.0
 49
0.0
 49
0.0208333333333333
 49
0.0
 49
0.0
 49
0.0
 49
0.0
 49
1.0
 49
0.0
 49
0.0
 49
0.0
 49
0.0
 49
1.0
140
1.0
141
1.0
175
0
  7

176
1
177
1
178
1
142
0.0208333333333333
142
0.0
142
0.0
142
0.0
142
0.0
142
0.0208333333333333
142
0.0
142
0.0
142
0.0
142
0.0
142
1.0
142
0.0
142
0.0
142
0.0
142
0.0
142
1.0
143
1.0
179
0
  8

270
1
271
1
272
1
144
0.0208333333333333
144
0.0
144
0.0
144
0.0
144
0.0
144
0.0208333333333333
144
0.0
144
0.0
144
0.0
144
0.0
144
1.0
144
0.0
144
0.0
144
0.0
144
0.0
144
1.0
145
1.0
146
1.0
273
1
  9

274
1
275
1
276
1
147
0.0208333333333333
147
0.0
147
0.0
147
0.0
147
0.0
147
0.0208333333333333
147
0.0
147
0.0
147
0.0
147
0.0
147
1.0
147
0.0
147
0.0
147
0.0
147
0.0
147
1.0
 42
1.0
 72
1
  3

 73
1
 74
1
 75
1
 94
63
  0
MATERIAL
  5
437D
102
{ACAD_XDICTIONARY
360
437E
102
}
102
{ACAD_REACTORS
330
437C
102
}
330
437C
100
AcDbMaterial
  1
ByLayer
  2

 70
0
 40
1.0
 71
0
 41
1.0
 91
-1023410177
 42
1.0
 72
0
  3

 73
1
 74
1
 75
1
 43
0.0208333333333333
 43
0.0
 43
0.0
 43
0.0
 43
0.0
 43
0.0208333333333333
 43
0.0
 43
0.0
 43
0.0
 43
0.0
 43
1.0
 43
0.0
 43
0.0
 43
0.0
 43
0.0
 43
1.0
 44
0.5
 73
0
 45
1.0
 46
1.0
 77
0
  4

 78
1
 79
1
170
1
 47
0.0208333333333333
 47
0.0
 47
0.0
 47
0.0
 47
0.0
 47
0.0208333333333333
 47
0.0
 47
0.0
 47
0.0
 47
0.0
 47
1.0
 47
0.0
 47
0.0
 47
0.0
 47
0.0
 47
1.0
 48
1.0
171
0
  6

172
1
173
1
174
1
 49
0.0208333333333333
 49
0.0
 49
0.0
 49
0.0
 49
0.0
 49
0.0208333333333333
 49
0.0
 49
0.0
 49
0.0
 49
0.0
 49
1.0
 49
0.0
 49
0.0
 49
0.0
 49
0.0
 49
1.0
140
1.0
141
1.0
175
0
  7

176
1
177
1
178
1
142
0.0208333333333333
142
0.0
142
0.0
142
0.0
142
0.0
142
0.0208333333333333
142
0.0
142
0.0
142
0.0
142
0.0
142
1.0
142
0.0
142
0.0
142
0.0
142
0.0
142
1.0
143
1.0
179
0
  8

270
1
271
1
272
1
144
0.0208333333333333
144
0.0
144
0.0
144
0.0
144
0.0
144
0.0208333333333333
144
0.0
144
0.0
144
0.0
144
0.0
144
1.0
144
0.0
144
0.0
144
0.0
144
0.0
144
1.0
145
1.0
146
1.0
273
1
  9

274
1
275
1
276
1
147
0.0208333333333333
147
0.0
147
0.0
147
0.0
147
0.0
147
0.0208333333333333
147
0.0
147
0.0
147
0.0
147
0.0
147
1.0
147
0.0
147
0.0
147
0.0
147
0.0
147
1.0
 42
1.0
 72
1
  3

 73
1
 74
1
 75
1
 94
63
  0
MATERIAL
  5
438D
102
{ACAD_XDICTIONARY
360
438E
102
}
102
{ACAD_REACTORS
330
437C
102
}
330
437C
100
AcDbMaterial
  1
Global
  2

 70
0
 40
1.0
 71
0
 41
1.0
 91
-1023410177
 42
1.0
 72
0
  3

 73
1
 74
1
 75
1
 43
0.0208333333333333
 43
0.0
 43
0.0
 43
0.0
 43
0.0
 43
0.0208333333333333
 43
0.0
 43
0.0
 43
0.0
 43
0.0
 43
1.0
 43
0.0
 43
0.0
 43
0.0
 43
0.0
 43
1.0
 44
0.5
 73
0
 45
1.0
 46
1.0
 77
0
  4

 78
1
 79
1
170
1
 47
0.0208333333333333
 47
0.0
 47
0.0
 47
0.0
 47
0.0
 47
0.0208333333333333
 47
0.0
 47
0.0
 47
0.0
 47
0.0
 47
1.0
 47
0.0
 47
0.0
 47
0.0
 47
0.0
 47
1.0
 48
1.0
171
0
  6

172
1
173
1
174
1
 49
0.0208333333333333
 49
0.0
 49
0.0
 49
0.0
 49
0.0
 49
0.0208333333333333
 49
0.0
 49
0.0
 49
0.0
 49
0.0
 49
1.0
 49
0.0
 49
0.0
 49
0.0
 49
0.0
 49
1.0
140
1.0
141
1.0
175
0
  7

176
1
177
1
178
1
142
0.0208333333333333
142
0.0
142
0.0
142
0.0
142
0.0
142
0.0208333333333333
142
0.0
142
0.0
142
0.0
142
0.0
142
1.0
142
0.0
142
0.0
142
0.0
142
0.0
142
1.0
143
1.0
179
0
  8

270
1
271
1
272
1
144
0.0208333333333333
144
0.0
144
0.0
144
0.0
144
0.0
144
0.0208333333333333
144
0.0
144
0.0
144
0.0
144
0.0
144
1.0
144
0.0
144
0.0
144
0.0
144
0.0
144
1.0
145
1.0
146
1.0
273
1
  9

274
1
275
1
276
1
147
0.0208333333333333
147
0.0
147
0.0
147
0.0
147
0.0
147
0.0208333333333333
147
0.0
147
0.0
147
0.0
147
0.0
147
1.0
147
0.0
147
0.0
147
0.0
147
0.0
147
1.0
 42
1.0
 72
1
  3

 73
1
 74
1
 75
1
 94
63
  0
MLEADERSTYLE
  5
43C5
102
{ACAD_REACTORS
330
43C4
102
}
330
43C4
100
AcDbMLeaderStyle
179
2
170
2
171
1
172
0
 90
2
 40
0.0
 41
0.0
173
1
 91
-1056964608
340
10
 92
-2
290
1
 42
0.09
291
1
 43
0.36
  3
Standard
 44
0.18
300

342
119F
174
1
175
1
176
0
178
6
 93
-1056964608
 45
0.18
292
0
297
0
 46
0.18
293
1
 94
-1056964608
 47
1.0
 49
1.0
140
1.0
294
1
141
0.0
177
0
142
1.0
295
0
296
0
143
0.125
271
0
272
9
273
9
298
0
  0
MLINESTYLE
  5
19
102
{ACAD_REACTORS
330
18
102
}
330
18
100
AcDbMlineStyle
  2
STANDARD
 70
0
  3

 62
0
 51
90.0
 52
90.0
 71
2
 49
0.5
 62
256
  6
BYLAYER
 49
-0.5
 62
256
  6
BYLAYER
  0
ACDBPLACEHOLDER
  5
437B
102
{ACAD_REACTORS
330
437A
102
}
330
437A
  0
SCALE
  5
43B3
102
{ACAD_REACTORS
330
43B2
102
}
330
43B2
100
AcDbScale
 70
0
300
1:1
140
1.0
141
1.0
290
1
  0
SCALE
  5
43B4
102
{ACAD_REACTORS
330
43B2
102
}
330
43B2
100
AcDbScale
 70
0
300
1/128" = 1'-0"
140
0.0078125
141
12.0
290
0
  0
SCALE
  5
43B5
102
{ACAD_REACTORS
330
43B2
102
}
330
43B2
100
AcDbScale
 70
0
300
1/64" = 1'-0"
140
0.015625
141
12.0
290
0
  0
SCALE
  5
43B6
102
{ACAD_REACTORS
330
43B2
102
}
330
43B2
100
AcDbScale
 70
0
300
1/32" = 1'-0"
140
0.03125
141
12.0
290
0
  0
SCALE
  5
43B7
102
{ACAD_REACTORS
330
43B2
102
}
330
43B2
100
AcDbScale
 70
0
300
1/16" = 1'-0"
140
0.0625
141
12.0
290
0
  0
SCALE
  5
43B8
102
{ACAD_REACTORS
330
43B2
102
}
330
43B2
100
AcDbScale
 70
0
300
3/32" = 1'-0"
140
0.09375
141
12.0
290
0
  0
SCALE
  5
43B9
102
{ACAD_REACTORS
330
43B2
102
}
330
43B2
100
AcDbScale
 70
0
300
1/8" = 1'-0"
140
0.125
141
12.0
290
0
  0
SCALE
  5
43BA
102
{ACAD_REACTORS
330
43B2
102
}
330
43B2
100
AcDbScale
 70
0
300
3/16" = 1'-0"
140
0.1875
141
12.0
290
0
  0
SCALE
  5
43BB
102
{ACAD_REACTORS
330
43B2
102
}
330
43B2
100
AcDbScale
 70
0
300
1/4" = 1'-0"
140
0.25
141
12.0
290
0
  0
SCALE
  5
43BC
102
{ACAD_REACTORS
330
43B2
102
}
330
43B2
100
AcDbScale
 70
0
300
3/8" = 1'-0"
140
0.375
141
12.0
290
0
  0
SCALE
  5
43BD
102
{ACAD_REACTORS
330
43B2
102
}
330
43B2
100
AcDbScale
 70
0
300
1/2" = 1'-0"
140
0.5
141
12.0
290
0
  0
SCALE
  5
43BE
102
{ACAD_REACTORS
330
43B2
102
}
330
43B2
100
AcDbScale
 70
0
300
3/4" = 1'-0"
140
0.75
141
12.0
290
0
  0
SCALE
  5
43BF
102
{ACAD_REACTORS
330
43B2
102
}
330
43B2
100
AcDbScale
 70
0
300
1" = 1'-0"
140
1.0
141
12.0
290
0
  0
SCALE
  5
43C0
102
{ACAD_REACTORS
330
43B2
102
}
330
43B2
100
AcDbScale
 70
0
300
1-1/2" = 1'-0"
140
1.5
141
12.0
290
0
  0
SCALE
  5
43C1
102
{ACAD_REACTORS
330
43B2
102
}
330
43B2
100
AcDbScale
 70
0
300
3" = 1'-0"
140
3.0
141
12.0
290
0
  0
SCALE
  5
43C2
102
{ACAD_REACTORS
330
43B2
102
}
330
43B2
100
AcDbScale
 70
0
300
6" = 1'-0"
140
6.0
141
12.0
290
0
  0
SCALE
  5
43C3
102
{ACAD_REACTORS
330
43B2
102
}
330
43B2
100
AcDbScale
 70
0
300
1'-0" = 1'-0"
140
12.0
141
12.0
290
0
  0
ACDBSECTIONVIEWSTYLE
  5
43C7
102
{ACAD_REACTORS
330
43C6
102
}
330
43C6
100
AcDbModelDocViewStyle
 70
0
  3
Imperial24
290
0
300
Imperial24
 90
0
100
AcDbSectionViewStyle
 70
0
 71
0
 90
78
 71
1
340
119F
 62
256
 40
0.24
340
0
340
0
 62
256
 40
0.24
300
I, O, Q, S, X, Z
 40
0.48
 90
3
 40
0.18
 90
1
 71
2
340
12
 90
25
 62
256
340
12
 90
50
 62
256
 40
0.24
 40
0.0
 40
0.24
 71
3
340
119F
 62
256
 40
0.24
 90
1
 40
0.75
 90
1
300
%<\AcVar ViewType \f "%tc1">% %<\AcVar ViewSectionStartId>%-%<\AcVar ViewSectionEndId>%\PSCALE %<\AcVar ViewScale \f "%sn">%
 71
4
 62
256
 62
257
300
ANSI31
 40
1.0
 90
0
290
0
290
0
 90
6
 40
0.0
 40
1.570796326794896
 40
0.2617993877991494
 40
1.308996938995747
 40
-0.2617993877991494
 40
1.832595714594045
  0
TABLESTYLE
  5
43B1
102
{ACAD_XDICTIONARY
360
43DE
102
}
102
{ACAD_REACTORS
330
43B0
102
}
330
43B0
100
AcDbTableStyle
280
0
  3
Standard
 70
0
 71
0
 40
0.06
 41
0.06
280
0
281
0
  7
STANDARD
140
0.18
170
2
 62
0
 63
7
283
0
 90
512
 91
0
  1

274
-2
284
1
 64
0
275
-2
285
1
 65
0
276
-2
286
1
 66
0
277
-2
287
1
 67
0
278
-2
288
1
 68
0
279
-2
289
1
 69
0
  7
STANDARD
140
0.25
170
5
 62
0
 63
7
283
0
 90
512
 91
0
  1

274
-2
284
1
 64
0
275
-2
285
1
 65
0
276
-2
286
1
 66
0
277
-2
287
1
 67
0
278
-2
288
1
 68
0
279
-2
289
1
 69
0
  7
STANDARD
140
0.18
170
5
 62
0
 63
7
283
0
 90
512
 91
0
  1

274
-2
284
1
 64
0
275
-2
285
1
 65
0
276
-2
286
1
 66
0
277
-2
287
1
 67
0
278
-2
288
1
 68
0
279
-2
289
1
 69
0
  0
VISUALSTYLE
  5
439B
102
{ACAD_REACTORS
330
4395
102
}
330
4395
100
AcDbVisualStyle
  2
2dWireframe
 70
4
177
3
291
0
 70
58
 90
0
176
1
 90
2
176
1
 90
0
176
1
 90
0
176
1
 40
0.6
176
1
 40
30.0
176
1
 62
7
420
16777215
176
1
 90
1
176
1
 90
4
176
1
 62
7
176
1
 62
257
176
1
 90
1
176
1
 90
1
176
1
 40
1.0
176
1
 90
0
176
1
 62
257
176
1
 40
1.0
176
1
 90
1
176
1
 90
6
176
1
 90
2
176
1
 62
7
176
1
 90
5
176
1
 90
0
176
1
 90
0
176
1
290
0
176
1
 90
1
176
1
 40
0.0
176
1
 90
0
176
1
290
1
176
1
290
1
176
1
290
0
176
1
290
0
176
1
290
0
176
1
290
0
176
1
290
0
176
1
290
0
176
1
290
0
176
1
 90
50
176
1
 40
0.0
176
1
 40
1.0
176
1
 90
0
176
1
 62
18
176
1
 90
50
176
1
 90
3
176
1
 62
5
420
255
176
1
290
0
176
1
 90
50
176
1
 90
50
176
1
 90
50
176
1
290
0
176
1
 90
50
176
1
 62
256
176
0
 40
1.0
176
0
 90
2
176
1
  1
strokes_ogs.tif
176
1
290
0
176
1
 40
1.0
176
1
 40
1.0
176
1
1001
ACAD
1000
AcDbSavedByObjectVersion
1070
0
  0
VISUALSTYLE
  5
439A
102
{ACAD_REACTORS
330
4395
102
}
330
4395
100
AcDbVisualStyle
  2
Basic
 70
7
177
3
291
1
 70
58
 90
1
176
1
 90
0
176
1
 90
1
176
1
 90
0
176
1
 40
0.6
176
1
 40
30.0
176
1
 62
7
420
16777215
176
1
 90
0
176
1
 90
4
176
1
 62
7
176
1
 62
257
176
1
 90
1
176
1
 90
1
176
1
 40
1.0
176
1
 90
8
176
1
 62
7
176
1
 40
1.0
176
1
 90
1
176
1
 90
6
176
1
 90
2
176
1
 62
7
176
1
 90
5
176
1
 90
0
176
1
 90
0
176
1
290
0
176
1
 90
1
176
1
 40
0.0
176
1
 90
0
176
1
290
0
176
1
290
1
176
1
290
1
176
1
290
0
176
1
290
0
176
1
290
0
176
1
290
0
176
1
290
0
176
1
290
0
176
1
 90
50
176
1
 40
0.0
176
1
 40
1.0
176
1
 90
0
176
1
 62
18
176
1
 90
50
176
1
 90
3
176
1
 62
5
420
255
176
1
290
0
176
1
 90
50
176
1
 90
50
176
1
 90
50
176
1
290
0
176
1
 90
50
176
1
 62
256
176
0
 40
1.0
176
0
 90
2
176
1
  1
strokes_ogs.tif
176
1
290
0
176
1
 40
1.0
176
1
 40
1.0
176
1
1001
ACAD
1000
AcDbSavedByObjectVersion
1070
0
  0
VISUALSTYLE
  5
43A1
102
{ACAD_REACTORS
330
4395
102
}
330
4395
100
AcDbVisualStyle
  2
Brighten
 70
12
177
3
291
1
 70
58
 90
2
176
1
 90
2
176
1
 90
0
176
1
 90
0
176
1
 40
0.6
176
1
 40
30.0
176
1
 62
7
420
16777215
176
1
 90
1
176
1
 90
4
176
1
 62
7
176
1
 62
257
176
1
 90
1
176
1
 90
1
176
1
 40
1.0
176
1
 90
8
176
1
 62
7
176
1
 40
1.0
176
1
 90
1
176
1
 90
6
176
1
 90
2
176
1
 62
7
176
1
 90
5
176
1
 90
0
176
1
 90
0
176
1
290
0
176
1
 90
1
176
1
 40
50.0
176
1
 90
0
176
1
290
0
176
1
290
1
176
1
290
1
176
1
290
0
176
1
290
0
176
1
290
0
176
1
290
0
176
1
290
0
176
1
290
0
176
1
 90
50
176
1
 40
0.0
176
1
 40
1.0
176
1
 90
0
176
1
 62
18
176
1
 90
50
176
1
 90
3
176
1
 62
5
420
255
176
1
290
0
176
1
 90
50
176
1
 90
50
176
1
 90
50
176
1
290
0
176
1
 90
50
176
1
 62
256
176
0
 40
1.0
176
0
 90
2
176
1
  1
strokes_ogs.tif
176
1
290
0
176
1
 40
1.0
176
1
 40
1.0
176
1
1001
ACAD
1000
AcDbSavedByObjectVersion
1070
0
  0
VISUALSTYLE
  5
43A5
102
{ACAD_REACTORS
330
4395
102
}
330
4395
100
AcDbVisualStyle
  2
ColorChange
 70
16
177
3
291
1
 70
58
 90
2
176
1
 90
2
176
1
 90
3
176
1
 90
0
176
1
 40
0.6
176
1
 40
30.0
176
1
 62
8
420
8421504
176
1
 90
1
176
1
 90
4
176
1
 62
7
176
1
 62
257
176
1
 90
1
176
1
 90
1
176
1
 40
1.0
176
1
 90
8
176
1
 62
8
420
8421504
176
1
 40
1.0
176
1
 90
1
176
1
 90
6
176
1
 90
2
176
1
 62
7
176
1
 90
5
176
1
 90
0
176
1
 90
0
176
1
290
0
176
1
 90
1
176
1
 40
0.0
176
1
 90
0
176
1
290
0
176
1
290
1
176
1
290
1
176
1
290
0
176
1
290
0
176
1
290
0
176
1
290
0
176
1
290
0
176
1
290
0
176
1
 90
50
176
1
 40
0.0
176
1
 40
1.0
176
1
 90
0
176
1
 62
18
176
1
 90
50
176
1
 90
3
176
1
 62
5
420
255
176
1
290
0
176
1
 90
50
176
1
 90
50
176
1
 90
50
176
1
290
0
176
1
 90
50
176
1
 62
256
176
0
 40
1.0
176
0
 90
2
176
1
  1
strokes_ogs.tif
176
1
290
0
176
1
 40
1.0
176
1
 40
1.0
176
1
1001
ACAD
1000
AcDbSavedByObjectVersion
1070
0
  0
VISUALSTYLE
  5
439E
102
{ACAD_REACTORS
330
4395
102
}
330
4395
100
AcDbVisualStyle
  2
Conceptual
 70
9
177
3
291
0
 70
58
 90
3
176
1
 90
2
176
1
 90
0
176
1
 90
0
176
1
 40
0.6
176
1
 40
30.0
176
1
 62
7
420
16777215
176
1
 90
2
176
1
 90
2
176
1
 62
7
176
1
 62
257
176
1
 90
1
176
1
 90
1
176
1
 40
179.0
176
1
 90
8
176
1
 62
7
176
1
 40
1.0
176
1
 90
1
176
1
 90
6
176
1
 90
2
176
1
 62
7
176
1
 90
3
176
1
 90
0
176
1
 90
0
176
1
290
0
176
1
 90
1
176
1
 40
0.0
176
1
 90
0
176
1
290
0
176
1
290
1
176
1
290
1
176
1
290
0
176
1
290
0
176
1
290
0
176
1
290
0
176
1
290
0
176
1
290
0
176
1
 90
50
176
1
 40
0.0
176
1
 40
1.0
176
1
 90
0
176
1
 62
18
176
1
 90
50
176
1
 90
3
176
1
 62
5
420
255
176
1
290
0
176
1
 90
50
176
1
 90
50
176
1
 90
50
176
1
290
0
176
1
 90
50
176
1
 62
256
176
0
 40
1.0
176
0
 90
2
176
1
  1
strokes_ogs.tif
176
1
290
0
176
1
 40
1.0
176
1
 40
1.0
176
1
1001
ACAD
1000
AcDbSavedByObjectVersion
1070
0
  0
VISUALSTYLE
  5
43A0
102
{ACAD_REACTORS
330
4395
102
}
330
4395
100
AcDbVisualStyle
  2
Dim
 70
11
177
3
291
1
 70
58
 90
2
176
1
 90
2
176
1
 90
0
176
1
 90
0
176
1
 40
0.6
176
1
 40
30.0
176
1
 62
7
420
16777215
176
1
 90
1
176
1
 90
4
176
1
 62
7
176
1
 62
257
176
1
 90
1
176
1
 90
1
176
1
 40
1.0
176
1
 90
8
176
1
 62
7
176
1
 40
1.0
176
1
 90
1
176
1
 90
6
176
1
 90
2
176
1
 62
7
176
1
 90
5
176
1
 90
0
176
1
 90
0
176
1
290
0
176
1
 90
1
176
1
 40
-50.0
176
1
 90
0
176
1
290
0
176
1
290
1
176
1
290
1
176
1
290
0
176
1
290
0
176
1
290
0
176
1
290
0
176
1
290
0
176
1
290
0
176
1
 90
50
176
1
 40
0.0
176
1
 40
1.0
176
1
 90
0
176
1
 62
18
176
1
 90
50
176
1
 90
3
176
1
 62
5
420
255
176
1
290
0
176
1
 90
50
176
1
 90
50
176
1
 90
50
176
1
290
0
176
1
 90
50
176
1
 62
256
176
0
 40
1.0
176
0
 90
2
176
1
  1
strokes_ogs.tif
176
1
290
0
176
1
 40
1.0
176
1
 40
1.0
176
1
1001
ACAD
1000
AcDbSavedByObjectVersion
1070
0
  0
VISUALSTYLE
  5
43AD
102
{ACAD_REACTORS
330
4395
102
}
330
4395
100
AcDbVisualStyle
  2
EdgeColorOff
 70
22
177
3
291
1
 70
58
 90
2
176
0
 90
2
176
0
 90
0
176
0
 90
0
176
0
 40
0.6
176
0
 40
30.0
176
0
 62
7
420
16777215
176
0
 90
1
176
0
 90
4
176
0
 62
7
176
0
 62
257
176
0
 90
1
176
0
 90
1
176
0
 40
1.0
176
0
 90
8
176
2
 62
7
176
0
 40
1.0
176
0
 90
1
176
0
 90
6
176
0
 90
2
176
0
 62
7
176
0
 90
5
176
0
 90
0
176
0
 90
0
176
0
290
0
176
0
 90
1
176
0
 40
0.0
176
0
 90
0
176
0
290
0
176
1
290
1
176
1
290
1
176
1
290
0
176
1
290
0
176
1
290
0
176
1
290
0
176
1
290
0
176
1
290
0
176
1
 90
50
176
0
 40
0.0
176
0
 40
1.0
176
0
 90
0
176
0
 62
18
176
0
 90
50
176
0
 90
3
176
0
 62
5
420
255
176
0
290
0
176
1
 90
50
176
0
 90
50
176
0
 90
50
176
0
290
0
176
1
 90
50
176
0
 62
256
176
0
 40
1.0
176
0
 90
2
176
0
  1
strokes_ogs.tif
176
0
290
0
176
1
 40
1.0
176
0
 40
1.0
176
0
1001
ACAD
1000
AcDbSavedByObjectVersion
1070
0
  0
VISUALSTYLE
  5
43A4
102
{ACAD_REACTORS
330
4395
102
}
330
4395
100
AcDbVisualStyle
  2
Facepattern
 70
15
177
3
291
1
 70
58
 90
2
176
1
 90
2
176
1
 90
0
176
1
 90
0
176
1
 40
0.6
176
1
 40
30.0
176
1
 62
7
420
16777215
176
1
 90
1
176
1
 90
4
176
1
 62
7
176
1
 62
257
176
1
 90
1
176
1
 90
1
176
1
 40
1.0
176
1
 90
8
176
1
 62
7
176
1
 40
1.0
176
1
 90
1
176
1
 90
6
176
1
 90
2
176
1
 62
7
176
1
 90
5
176
1
 90
0
176
1
 90
0
176
1
290
0
176
1
 90
1
176
1
 40
0.0
176
1
 90
0
176
1
290
0
176
1
290
1
176
1
290
1
176
1
290
0
176
1
290
0
176
1
290
0
176
1
290
0
176
1
290
0
176
1
290
0
176
1
 90
50
176
1
 40
0.0
176
1
 40
1.0
176
1
 90
0
176
1
 62
18
176
1
 90
50
176
1
 90
3
176
1
 62
5
420
255
176
1
290
0
176
1
 90
50
176
1
 90
50
176
1
 90
50
176
1
290
0
176
1
 90
50
176
1
 62
256
176
0
 40
1.0
176
0
 90
2
176
1
  1
strokes_ogs.tif
176
1
290
0
176
1
 40
1.0
176
1
 40
1.0
176
1
1001
ACAD
1000
AcDbSavedByObjectVersion
1070
0
  0
VISUALSTYLE
  5
4396
102
{ACAD_REACTORS
330
4395
102
}
330
4395
100
AcDbVisualStyle
  2
Flat
 70
0
177
3
291
1
 70
58
 90
2
176
1
 90
1
176
1
 90
1
176
1
 90
2
176
1
 40
0.6
176
1
 40
30.0
176
1
 62
7
420
16777215
176
1
 90
0
176
1
 90
0
176
1
 62
7
176
1
 62
257
176
1
 90
1
176
1
 90
1
176
1
 40
1.0
176
1
 90
8
176
1
 62
7
176
1
 40
1.0
176
1
 90
1
176
1
 90
6
176
1
 90
2
176
1
 62
7
176
1
 90
5
176
1
 90
0
176
1
 90
0
176
1
290
0
176
1
 90
13
176
1
 40
0.0
176
1
 90
0
176
1
290
0
176
1
290
1
176
1
290
1
176
1
290
0
176
1
290
0
176
1
290
0
176
1
290
0
176
1
290
0
176
1
290
0
176
1
 90
50
176
1
 40
0.0
176
1
 40
1.0
176
1
 90
0
176
1
 62
18
176
1
 90
50
176
1
 90
3
176
1
 62
5
420
255
176
1
290
0
176
1
 90
50
176
1
 90
50
176
1
 90
50
176
1
290
0
176
1
 90
50
176
1
 62
256
176
0
 40
1.0
176
0
 90
2
176
1
  1
strokes_ogs.tif
176
1
290
0
176
1
 40
1.0
176
1
 40
1.0
176
1
1001
ACAD
1000
AcDbSavedByObjectVersion
1070
0
  0
VISUALSTYLE
  5
4397
102
{ACAD_REACTORS
330
4395
102
}
330
4395
100
AcDbVisualStyle
  2
FlatWithEdges
 70
1
177
3
291
1
 70
58
 90
2
176
1
 90
1
176
1
 90
1
176
1
 90
2
176
1
 40
0.6
176
1
 40
30.0
176
1
 62
7
420
16777215
176
1
 90
1
176
1
 90
0
176
1
 62
7
176
1
 62
257
176
1
 90
1
176
1
 90
1
176
1
 40
1.0
176
1
 90
0
176
1
 62
257
176
1
 40
1.0
176
1
 90
1
176
1
 90
6
176
1
 90
2
176
1
 62
7
176
1
 90
5
176
1
 90
0
176
1
 90
0
176
1
290
0
176
1
 90
13
176
1
 40
0.0
176
1
 90
0
176
1
290
0
176
1
290
1
176
1
290
1
176
1
290
0
176
1
290
0
176
1
290
0
176
1
290
0
176
1
290
0
176
1
290
0
176
1
 90
50
176
1
 40
0.0
176
1
 40
1.0
176
1
 90
0
176
1
 62
18
176
1
 90
50
176
1
 90
3
176
1
 62
5
420
255
176
1
290
0
176
1
 90
50
176
1
 90
50
176
1
 90
50
176
1
290
0
176
1
 90
50
176
1
 62
256
176
0
 40
1.0
176
0
 90
2
176
1
  1
strokes_ogs.tif
176
1
290
0
176
1
 40
1.0
176
1
 40
1.0
176
1
1001
ACAD
1000
AcDbSavedByObjectVersion
1070
0
  0
VISUALSTYLE
  5
4398
102
{ACAD_REACTORS
330
4395
102
}
330
4395
100
AcDbVisualStyle
  2
Gouraud
 70
2
177
3
291
1
 70
58
 90
2
176
1
 90
2
176
1
 90
1
176
1
 90
2
176
1
 40
0.6
176
1
 40
30.0
176
1
 62
7
420
16777215
176
1
 90
0
176
1
 90
0
176
1
 62
7
176
1
 62
257
176
1
 90
1
176
1
 90
1
176
1
 40
1.0
176
1
 90
0
176
1
 62
7
176
1
 40
1.0
176
1
 90
1
176
1
 90
6
176
1
 90
2
176
1
 62
7
176
1
 90
5
176
1
 90
0
176
1
 90
0
176
1
290
0
176
1
 90
13
176
1
 40
0.0
176
1
 90
0
176
1
290
0
176
1
290
1
176
1
290
1
176
1
290
0
176
1
290
0
176
1
290
0
176
1
290
0
176
1
290
0
176
1
290
0
176
1
 90
50
176
1
 40
0.0
176
1
 40
1.0
176
1
 90
0
176
1
 62
18
176
1
 90
50
176
1
 90
3
176
1
 62
5
420
255
176
1
290
0
176
1
 90
50
176
1
 90
50
176
1
 90
50
176
1
290
0
176
1
 90
50
176
1
 62
256
176
0
 40
1.0
176
0
 90
2
176
1
  1
strokes_ogs.tif
176
1
290
0
176
1
 40
1.0
176
1
 40
1.0
176
1
1001
ACAD
1000
AcDbSavedByObjectVersion
1070
0
  0
VISUALSTYLE
  5
4399
102
{ACAD_REACTORS
330
4395
102
}
330
4395
100
AcDbVisualStyle
  2
GouraudWithEdges
 70
3
177
3
291
1
 70
58
 90
2
176
1
 90
2
176
1
 90
1
176
1
 90
2
176
1
 40
0.6
176
1
 40
30.0
176
1
 62
7
420
16777215
176
1
 90
1
176
1
 90
0
176
1
 62
7
176
1
 62
257
176
1
 90
1
176
1
 90
1
176
1
 40
1.0
176
1
 90
0
176
1
 62
257
176
1
 40
1.0
176
1
 90
1
176
1
 90
6
176
1
 90
2
176
1
 62
7
176
1
 90
5
176
1
 90
0
176
1
 90
0
176
1
290
0
176
1
 90
13
176
1
 40
0.0
176
1
 90
0
176
1
290
0
176
1
290
1
176
1
290
1
176
1
290
0
176
1
290
0
176
1
290
0
176
1
290
0
176
1
290
0
176
1
290
0
176
1
 90
50
176
1
 40
0.0
176
1
 40
1.0
176
1
 90
0
176
1
 62
18
176
1
 90
50
176
1
 90
3
176
1
 62
5
420
255
176
1
290
0
176
1
 90
50
176
1
 90
50
176
1
 90
50
176
1
290
0
176
1
 90
50
176
1
 62
256
176
0
 40
1.0
176
0
 90
2
176
1
  1
strokes_ogs.tif
176
1
290
0
176
1
 40
1.0
176
1
 40
1.0
176
1
1001
ACAD
1000
AcDbSavedByObjectVersion
1070
0
  0
VISUALSTYLE
  5
439D
102
{ACAD_REACTORS
330
4395
102
}
330
4395
100
AcDbVisualStyle
  2
Hidden
 70
6
177
3
291
0
 70
58
 90
1
176
1
 90
2
176
1
 90
2
176
1
 90
0
176
1
 40
0.6
176
1
 40
30.0
176
1
 62
7
420
16777215
176
1
 90
2
176
1
 90
2
176
1
 62
7
176
1
 62
257
176
1
 90
2
176
1
 90
1
176
1
 40
40.0
176
1
 90
0
176
1
 62
257
176
1
 40
1.0
176
1
 90
1
176
1
 90
6
176
1
 90
2
176
1
 62
7
176
1
 90
3
176
1
 90
0
176
1
 90
0
176
1
290
0
176
1
 90
1
176
1
 40
0.0
176
1
 90
0
176
1
290
0
176
1
290
1
176
1
290
1
176
1
290
0
176
1
290
0
176
1
290
0
176
1
290
0
176
1
290
0
176
1
290
0
176
1
 90
50
176
1
 40
0.0
176
1
 40
1.0
176
1
 90
0
176
1
 62
18
176
1
 90
50
176
1
 90
3
176
1
 62
5
420
255
176
1
290
0
176
1
 90
50
176
1
 90
50
176
1
 90
50
176
1
290
0
176
1
 90
50
176
1
 62
256
176
0
 40
1.0
176
0
 90
2
176
1
  1
strokes_ogs.tif
176
1
290
0
176
1
 40
1.0
176
1
 40
1.0
176
1
1001
ACAD
1000
AcDbSavedByObjectVersion
1070
0
  0
VISUALSTYLE
  5
43AB
102
{ACAD_REACTORS
330
4395
102
}
330
4395
100
AcDbVisualStyle
  2
JitterOff
 70
20
177
3
291
1
 70
58
 90
2
176
0
 90
2
176
0
 90
0
176
0
 90
0
176
0
 40
0.6
176
0
 40
30.0
176
0
 62
7
420
16777215
176
0
 90
1
176
0
 90
4
176
0
 62
7
176
0
 62
257
176
0
 90
1
176
0
 90
1
176
0
 40
1.0
176
0
 90
10
176
2
 62
7
176
0
 40
1.0
176
0
 90
1
176
0
 90
6
176
0
 90
2
176
0
 62
7
176
0
 90
5
176
0
 90
0
176
0
 90
0
176
0
290
0
176
0
 90
1
176
0
 40
0.0
176
0
 90
0
176
0
290
0
176
1
290
1
176
1
290
1
176
1
290
0
176
1
290
0
176
1
290
0
176
1
290
0
176
1
290
0
176
1
290
0
176
1
 90
50
176
0
 40
0.0
176
0
 40
1.0
176
0
 90
0
176
0
 62
18
176
0
 90
50
176
0
 90
3
176
0
 62
5
420
255
176
0
290
0
176
1
 90
50
176
0
 90
50
176
0
 90
50
176
0
290
0
176
1
 90
50
176
0
 62
256
176
0
 40
1.0
176
0
 90
2
176
0
  1
strokes_ogs.tif
176
0
290
0
176
1
 40
1.0
176
0
 40
1.0
176
0
1001
ACAD
1000
AcDbSavedByObjectVersion
1070
0
  0
VISUALSTYLE
  5
43A3
102
{ACAD_REACTORS
330
4395
102
}
330
4395
100
AcDbVisualStyle
  2
Linepattern
 70
14
177
3
291
1
 70
58
 90
2
176
1
 90
2
176
1
 90
0
176
1
 90
0
176
1
 40
0.6
176
1
 40
30.0
176
1
 62
7
420
16777215
176
1
 90
1
176
1
 90
4
176
1
 62
7
176
1
 62
257
176
1
 90
7
176
1
 90
7
176
1
 40
1.0
176
1
 90
8
176
1
 62
7
176
1
 40
1.0
176
1
 90
1
176
1
 90
6
176
1
 90
2
176
1
 62
7
176
1
 90
5
176
1
 90
0
176
1
 90
0
176
1
290
0
176
1
 90
1
176
1
 40
0.0
176
1
 90
0
176
1
290
0
176
1
290
1
176
1
290
1
176
1
290
0
176
1
290
0
176
1
290
0
176
1
290
0
176
1
290
0
176
1
290
0
176
1
 90
50
176
1
 40
0.0
176
1
 40
1.0
176
1
 90
0
176
1
 62
18
176
1
 90
50
176
1
 90
3
176
1
 62
5
420
255
176
1
290
0
176
1
 90
50
176
1
 90
50
176
1
 90
50
176
1
290
0
176
1
 90
50
176
1
 62
256
176
0
 40
1.0
176
0
 90
2
176
1
  1
strokes_ogs.tif
176
1
290
0
176
1
 40
1.0
176
1
 40
1.0
176
1
1001
ACAD
1000
AcDbSavedByObjectVersion
1070
0
  0
VISUALSTYLE
  5
43AC
102
{ACAD_REACTORS
330
4395
102
}
330
4395
100
AcDbVisualStyle
  2
OverhangOff
 70
21
177
3
291
1
 70
58
 90
2
176
0
 90
2
176
0
 90
0
176
0
 90
0
176
0
 40
0.6
176
0
 40
30.0
176
0
 62
7
420
16777215
176
0
 90
1
176
0
 90
4
176
0
 62
7
176
0
 62
257
176
0
 90
1
176
0
 90
1
176
0
 40
1.0
176
0
 90
9
176
2
 62
7
176
0
 40
1.0
176
0
 90
1
176
0
 90
6
176
0
 90
2
176
0
 62
7
176
0
 90
5
176
0
 90
0
176
0
 90
0
176
0
290
0
176
0
 90
1
176
0
 40
0.0
176
0
 90
0
176
0
290
0
176
1
290
1
176
1
290
1
176
1
290
0
176
1
290
0
176
1
290
0
176
1
290
0
176
1
290
0
176
1
290
0
176
1
 90
50
176
0
 40
0.0
176
0
 40
1.0
176
0
 90
0
176
0
 62
18
176
0
 90
50
176
0
 90
3
176
0
 62
5
420
255
176
0
290
0
176
1
 90
50
176
0
 90
50
176
0
 90
50
176
0
290
0
176
1
 90
50
176
0
 62
256
176
0
 40
1.0
176
0
 90
2
176
0
  1
strokes_ogs.tif
176
0
290
0
176
1
 40
1.0
176
0
 40
1.0
176
0
1001
ACAD
1000
AcDbSavedByObjectVersion
1070
0
  0
VISUALSTYLE
  5
439F
102
{ACAD_REACTORS
330
4395
102
}
330
4395
100
AcDbVisualStyle
  2
Realistic
 70
8
177
3
291
0
 70
58
 90
2
176
1
 90
3
176
1
 90
0
176
1
 90
2
176
1
 40
0.6
176
1
 40
30.0
176
1
 62
7
420
16777215
176
1
 90
0
176
1
 90
0
176
1
 62
7
176
1
 62
257
176
1
 90
1
176
1
 90
1
176
1
 40
1.0
176
1
 90
8
176
1
 62
257
176
1
 40
1.0
176
1
 90
1
176
1
 90
6
176
1
 90
2
176
1
 62
7
176
1
 90
3
176
1
 90
0
176
1
 90
0
176
1
290
0
176
1
 90
13
176
1
 40
0.0
176
1
 90
0
176
1
290
0
176
1
290
1
176
1
290
1
176
1
290
0
176
1
290
0
176
1
290
0
176
1
290
0
176
1
290
0
176
1
290
0
176
1
 90
50
176
1
 40
0.0
176
1
 40
1.0
176
1
 90
0
176
1
 62
18
176
1
 90
50
176
1
 90
3
176
1
 62
5
420
255
176
1
290
0
176
1
 90
50
176
1
 90
50
176
1
 90
50
176
1
290
0
176
1
 90
50
176
1
 62
256
176
0
 40
1.0
176
0
 90
2
176
1
  1
strokes_ogs.tif
176
1
290
0
176
1
 40
1.0
176
1
 40
1.0
176
1
1001
ACAD
1000
AcDbSavedByObjectVersion
1070
0
  0
VISUALSTYLE
  5
43AA
102
{ACAD_REACTORS
330
4395
102
}
330
4395
100
AcDbVisualStyle
  2
Shaded
 70
27
177
3
291
0
 70
58
 90
2
176
1
 90
2
176
1
 90
1
176
1
 90
2
176
1
 40
0.6
176
1
 40
30.0
176
1
 62
7
420
16777215
176
1
 90
0
176
1
 90
4
176
1
 62
7
176
1
 62
257
176
1
 90
1
176
1
 90
1
176
1
 40
1.0
176
1
 90
8
176
1
 62
257
176
1
 40
1.0
176
1
 90
1
176
1
 90
6
176
1
 90
2
176
1
 62
8
420
7895160
176
1
 90
3
176
1
 90
0
176
1
 90
0
176
1
290
0
176
1
 90
5
176
1
 40
0.0
176
1
 90
0
176
1
290
0
176
1
290
1
176
1
290
1
176
1
290
0
176
1
290
0
176
1
290
0
176
1
290
0
176
1
290
0
176
1
290
0
176
1
 90
50
176
1
 40
0.0
176
1
 40
1.0
176
1
 90
0
176
1
 62
18
176
1
 90
50
176
1
 90
3
176
1
 62
5
420
255
176
1
290
0
176
1
 90
50
176
1
 90
50
176
1
 90
50
176
1
290
0
176
1
 90
50
176
1
 62
256
176
0
 40
1.0
176
0
 90
2
176
1
  1
strokes_ogs.tif
176
1
290
0
176
1
 40
1.0
176
1
 40
1.0
176
1
1001
ACAD
1000
AcDbSavedByObjectVersion
1070
0
  0
VISUALSTYLE
  5
43A9
102
{ACAD_REACTORS
330
4395
102
}
330
4395
100
AcDbVisualStyle
  2
Shaded with edges
 70
26
177
3
291
0
 70
58
 90
2
176
1
 90
2
176
1
 90
1
176
1
 90
2
176
1
 40
0.6
176
1
 40
30.0
176
1
 62
7
420
16777215
176
1
 90
1
176
1
 90
2
176
1
 62
7
176
1
 62
257
176
1
 90
2
176
1
 90
1
176
1
 40
1.0
176
1
 90
8
176
1
 62
257
176
1
 40
1.0
176
1
 90
1
176
1
 90
6
176
1
 90
2
176
1
 62
7
176
1
 90
3
176
1
 90
0
176
1
 90
0
176
1
290
0
176
1
 90
5
176
1
 40
0.0
176
1
 90
0
176
1
290
0
176
1
290
1
176
1
290
1
176
1
290
0
176
1
290
0
176
1
290
0
176
1
290
0
176
1
290
0
176
1
290
0
176
1
 90
50
176
1
 40
0.0
176
1
 40
1.0
176
1
 90
0
176
1
 62
18
176
1
 90
50
176
1
 90
3
176
1
 62
5
420
255
176
1
290
0
176
1
 90
50
176
1
 90
50
176
1
 90
50
176
1
290
0
176
1
 90
50
176
1
 62
256
176
0
 40
1.0
176
0
 90
2
176
1
  1
strokes_ogs.tif
176
1
290
0
176
1
 40
1.0
176
1
 40
1.0
176
1
1001
ACAD
1000
AcDbSavedByObjectVersion
1070
0
  0
VISUALSTYLE
  5
43A6
102
{ACAD_REACTORS
330
4395
102
}
330
4395
100
AcDbVisualStyle
  2
Shades of Gray
 70
23
177
3
291
0
 70
58
 90
2
176
1
 90
2
176
1
 90
3
176
1
 90
0
176
1
 40
0.6
176
1
 40
30.0
176
1
 62
7
420
16777215
176
1
 90
2
176
1
 90
2
176
1
 62
7
176
1
 62
7
176
1
 90
1
176
1
 90
1
176
1
 40
40.0
176
1
 90
8
176
1
 62
7
176
1
 40
1.0
176
1
 90
1
176
1
 90
6
176
1
 90
2
176
1
 62
7
176
1
 90
3
176
1
 90
0
176
1
 90
0
176
1
290
0
176
1
 90
1
176
1
 40
0.0
176
1
 90
0
176
1
290
0
176
1
290
1
176
1
290
1
176
1
290
0
176
1
290
0
176
1
290
0
176
1
290
0
176
1
290
0
176
1
290
0
176
1
 90
50
176
1
 40
0.0
176
1
 40
1.0
176
1
 90
0
176
1
 62
18
176
1
 90
50
176
1
 90
3
176
1
 62
5
420
255
176
1
290
0
176
1
 90
50
176
1
 90
50
176
1
 90
50
176
1
290
0
176
1
 90
50
176
1
 62
256
176
0
 40
1.0
176
0
 90
2
176
1
  1
strokes_ogs.tif
176
1
290
0
176
1
 40
1.0
176
1
 40
1.0
176
1
1001
ACAD
1000
AcDbSavedByObjectVersion
1070
0
  0
VISUALSTYLE
  5
43A7
102
{ACAD_REACTORS
330
4395
102
}
330
4395
100
AcDbVisualStyle
  2
Sketchy
 70
24
177
3
291
0
 70
58
 90
1
176
1
 90
2
176
1
 90
2
176
1
 90
0
176
1
 40
0.6
176
1
 40
30.0
176
1
 62
7
420
16777215
176
1
 90
2
176
1
 90
2
176
1
 62
7
176
1
 62
7
176
1
 90
1
176
1
 90
1
176
1
 40
40.0
176
1
 90
11
176
1
 62
7
176
1
 40
1.0
176
1
 90
1
176
1
 90
6
176
1
 90
2
176
1
 62
7
176
1
 90
6
176
1
 90
0
176
1
 90
0
176
1
290
0
176
1
 90
1
176
1
 40
0.0
176
1
 90
0
176
1
290
0
176
1
290
1
176
1
290
1
176
1
290
0
176
1
290
0
176
1
290
0
176
1
290
0
176
1
290
0
176
1
290
0
176
1
 90
50
176
1
 40
0.0
176
1
 40
1.0
176
1
 90
0
176
1
 62
18
176
1
 90
50
176
1
 90
3
176
1
 62
5
420
255
176
1
290
0
176
1
 90
50
176
1
 90
50
176
1
 90
50
176
1
290
0
176
1
 90
50
176
1
 62
256
176
0
 40
1.0
176
0
 90
2
176
1
  1
strokes_ogs.tif
176
1
290
0
176
1
 40
1.0
176
1
 40
1.0
176
1
1001
ACAD
1000
AcDbSavedByObjectVersion
1070
0
  0
VISUALSTYLE
  5
43A2
102
{ACAD_REACTORS
330
4395
102
}
330
4395
100
AcDbVisualStyle
  2
Thicken
 70
13
177
3
291
1
 70
58
 90
2
176
1
 90
2
176
1
 90
0
176
1
 90
0
176
1
 40
0.6
176
1
 40
30.0
176
1
 62
7
420
16777215
176
1
 90
1
176
1
 90
4
176
1
 62
7
176
1
 62
257
176
1
 90
1
176
1
 90
1
176
1
 40
1.0
176
1
 90
12
176
1
 62
7
176
1
 40
1.0
176
1
 90
1
176
1
 90
6
176
1
 90
2
176
1
 62
7
176
1
 90
5
176
1
 90
0
176
1
 90
0
176
1
290
0
176
1
 90
1
176
1
 40
0.0
176
1
 90
0
176
1
290
0
176
1
290
1
176
1
290
1
176
1
290
0
176
1
290
0
176
1
290
0
176
1
290
0
176
1
290
0
176
1
290
0
176
1
 90
50
176
1
 40
0.0
176
1
 40
1.0
176
1
 90
0
176
1
 62
18
176
1
 90
50
176
1
 90
3
176
1
 62
5
420
255
176
1
290
0
176
1
 90
50
176
1
 90
50
176
1
 90
50
176
1
290
0
176
1
 90
50
176
1
 62
256
176
0
 40
1.0
176
0
 90
2
176
1
  1
strokes_ogs.tif
176
1
290
0
176
1
 40
1.0
176
1
 40
1.0
176
1
1001
ACAD
1000
AcDbSavedByObjectVersion
1070
0
  0
VISUALSTYLE
  5
439C
102
{ACAD_REACTORS
330
4395
102
}
330
4395
100
AcDbVisualStyle
  2
Wireframe
 70
5
177
3
291
0
 70
58
 90
0
176
1
 90
2
176
1
 90
0
176
1
 90
0
176
1
 40
0.6
176
1
 40
30.0
176
1
 62
7
420
16777215
176
1
 90
1
176
1
 90
4
176
1
 62
7
176
1
 62
257
176
1
 90
1
176
1
 90
1
176
1
 40
1.0
176
1
 90
0
176
1
 62
257
176
1
 40
1.0
176
1
 90
1
176
1
 90
6
176
1
 90
2
176
1
 62
7
176
1
 90
3
176
1
 90
0
176
1
 90
0
176
1
290
0
176
1
 90
1
176
1
 40
0.0
176
1
 90
0
176
1
290
0
176
1
290
1
176
1
290
1
176
1
290
0
176
1
290
0
176
1
290
0
176
1
290
0
176
1
290
0
176
1
290
0
176
1
 90
50
176
1
 40
0.0
176
1
 40
1.0
176
1
 90
0
176
1
 62
18
176
1
 90
50
176
1
 90
3
176
1
 62
5
420
255
176
1
290
0
176
1
 90
50
176
1
 90
50
176
1
 90
50
176
1
290
0
176
1
 90
50
176
1
 62
256
176
0
 40
1.0
176
0
 90
2
176
1
  1
strokes_ogs.tif
176
1
290
0
176
1
 40
1.0
176
1
 40
1.0
176
1
1001
ACAD
1000
AcDbSavedByObjectVersion
1070
0
  0
VISUALSTYLE
  5
43A8
102
{ACAD_REACTORS
330
4395
102
}
330
4395
100
AcDbVisualStyle
  2
X-Ray
 70
25
177
3
291
0
 70
58
 90
2
176
1
 90
2
176
1
 90
1
176
1
 90
1
176
1
 40
0.5
176
1
 40
30.0
176
1
 62
7
420
16777215
176
1
 90
1
176
1
 90
0
176
1
 62
7
176
1
 62
257
176
1
 90
1
176
1
 90
1
176
1
 40
1.0
176
1
 90
8
176
1
 62
7
176
1
 40
1.0
176
1
 90
1
176
1
 90
6
176
1
 90
2
176
1
 62
7
176
1
 90
3
176
1
 90
0
176
1
 90
0
176
1
290
0
176
1
 90
13
176
1
 40
0.0
176
1
 90
0
176
1
290
0
176
1
290
1
176
1
290
1
176
1
290
0
176
1
290
0
176
1
290
0
176
1
290
0
176
1
290
0
176
1
290
0
176
1
 90
50
176
1
 40
0.0
176
1
 40
1.0
176
1
 90
0
176
1
 62
18
176
1
 90
50
176
1
 90
3
176
1
 62
5
420
255
176
1
290
0
176
1
 90
50
176
1
 90
50
176
1
 90
50
176
1
290
0
176
1
 90
50
176
1
 62
256
176
0
 40
1.0
176
0
 90
2
176
1
  1
strokes_ogs.tif
176
1
290
0
176
1
 40
1.0
176
1
 40
1.0
176
1
1001
ACAD
1000
AcDbSavedByObjectVersion
1070
0
  0
DICTIONARYVAR
  5
43D9
102
{ACAD_REACTORS
330
43D3
102
}
330
43D3
100
DictionaryVariables
280
0
  1
1:1
  0
DICTIONARYVAR
  5
43D5
102
{ACAD_REACTORS
330
43D3
102
}
330
43D3
100
DictionaryVariables
280
0
  1
STANDARD
  0
DICTIONARYVAR
  5
43D4
102
{ACAD_REACTORS
330
43D3
102
}
330
43D3
100
DictionaryVariables
280
0
  1
STANDARD
  0
DICTIONARYVAR
  5
43D6
102
{ACAD_REACTORS
330
43D3
102
}
330
43D3
100
DictionaryVariables
280
0
  1
Imperial24
  0
DICTIONARYVAR
  5
43D7
102
{ACAD_REACTORS
330
43D3
102
}
330
43D3
100
DictionaryVariables
280
0
  1
Imperial24
  0
DICTIONARYVAR
  5
43DB
102
{ACAD_REACTORS
330
43D3
102
}
330
43D3
100
DictionaryVariables
280
0
  1
1
  0
DICTIONARYVAR
  5
43DC
102
{ACAD_REACTORS
330
43D3
102
}
330
43D3
100
DictionaryVariables
280
0
  1
15
  0
DICTIONARYVAR
  5
43DA
102
{ACAD_REACTORS
330
43D3
102
}
330
43D3
100
DictionaryVariables
280
0
  1
0
  0
DICTIONARYVAR
  5
43D8
102
{ACAD_REACTORS
330
43D3
102
}
330
43D3
100
DictionaryVariables
280
0
  1
0
  0
XRECORD
  5
43D2
102
{ACAD_REACTORS
330
43D0
102
}
330
43D0
100
AcDbXrecord
280
1
  0
DICTIONARY
  5
4386
330
4385
100
AcDbDictionary
280
1
281
1
  3
BUMPTILE
360
4388
  3
DIFFUSETILE
360
4387
  3
OPACITYTILE
360
438B
  3
REFLECTIONTILE
360
438A
  3
REFRACTIONTILE
360
438C
  3
SPECULARTILE
360
4389
  0
DICTIONARY
  5
437E
330
437D
100
AcDbDictionary
280
1
281
1
  3
BUMPTILE
360
4380
  3
DIFFUSETILE
360
437F
  3
OPACITYTILE
360
4383
  3
REFLECTIONTILE
360
4382
  3
REFRACTIONTILE
360
4384
  3
SPECULARTILE
360
4381
  0
DICTIONARY
  5
438E
330
438D
100
AcDbDictionary
280
1
281
1
  3
BUMPTILE
360
4390
  3
DIFFUSETILE
360
438F
  3
OPACITYTILE
360
4393
  3
REFLECTIONTILE
360
4392
  3
REFRACTIONTILE
360
4394
  3
SPECULARTILE
360
4391
  0
DICTIONARY
  5
43DE
330
43B1
100
AcDbDictionary
280
1
281
1
  3
ACAD_ROUNDTRIP_2008_TABLESTYLE_CELLSTYLEMAP
360
43F9
  0
XRECORD
  5
4388
102
{ACAD_REACTORS
330
4386
102
}
330
4386
100
AcDbXrecord
280
1
270
1
271
1
  0
XRECORD
  5
4387
102
{ACAD_REACTORS
330
4386
102
}
330
4386
100
AcDbXrecord
280
1
270
1
271
1
  0
XRECORD
  5
438B
102
{ACAD_REACTORS
330
4386
102
}
330
4386
100
AcDbXrecord
280
1
270
1
271
1
  0
XRECORD
  5
438A
102
{ACAD_REACTORS
330
4386
102
}
330
4386
100
AcDbXrecord
280
1
270
1
271
1
  0
XRECORD
  5
438C
102
{ACAD_REACTORS
330
4386
102
}
330
4386
100
AcDbXrecord
280
1
270
1
271
1
  0
XRECORD
  5
4389
102
{ACAD_REACTORS
330
4386
102
}
330
4386
100
AcDbXrecord
280
1
270
1
271
1
  0
XRECORD
  5
4380
102
{ACAD_REACTORS
330
437E
102
}
330
437E
100
AcDbXrecord
280
1
270
1
271
1
  0
XRECORD
  5
437F
102
{ACAD_REACTORS
330
437E
102
}
330
437E
100
AcDbXrecord
280
1
270
1
271
1
  0
XRECORD
  5
4383
102
{ACAD_REACTORS
330
437E
102
}
330
437E
100
AcDbXrecord
280
1
270
1
271
1
  0
XRECORD
  5
4382
102
{ACAD_REACTORS
330
437E
102
}
330
437E
100
AcDbXrecord
280
1
270
1
271
1
  0
XRECORD
  5
4384
102
{ACAD_REACTORS
330
437E
102
}
330
437E
100
AcDbXrecord
280
1
270
1
271
1
  0
XRECORD
  5
4381
102
{ACAD_REACTORS
330
437E
102
}
330
437E
100
AcDbXrecord
280
1
270
1
271
1
  0
XRECORD
  5
4390
102
{ACAD_REACTORS
330
438E
102
}
330
438E
100
AcDbXrecord
280
1
270
1
271
1
  0
XRECORD
  5
438F
102
{ACAD_REACTORS
330
438E
102
}
330
438E
100
AcDbXrecord
280
1
270
1
271
1
  0
XRECORD
  5
4393
102
{ACAD_REACTORS
330
438E
102
}
330
438E
100
AcDbXrecord
280
1
270
1
271
1
  0
XRECORD
  5
4392
102
{ACAD_REACTORS
330
438E
102
}
330
438E
100
AcDbXrecord
280
1
270
1
271
1
  0
XRECORD
  5
4394
102
{ACAD_REACTORS
330
438E
102
}
330
438E
100
AcDbXrecord
280
1
270
1
271
1
  0
XRECORD
  5
4391
102
{ACAD_REACTORS
330
438E
102
}
330
438E
100
AcDbXrecord
280
1
270
1
271
1
  0
CELLSTYLEMAP
  5
43F9
102
{ACAD_REACTORS
330
43DE
102
}
330
43DE
100
AcDbCellStyleMap
 90
3
300
CELLSTYLE
  1
TABLEFORMAT_BEGIN
 90
5
170
1
 91
0
 92
32768
 62
257
 93
1
300
CONTENTFORMAT
  1
CONTENTFORMAT_BEGIN
 90
0
 91
0
 92
512
 93
0
300

 40
0.0
140
1.0
 94
5
 62
0
340
119F
144
0.25
309
CONTENTFORMAT_END
171
1
301
MARGIN
  1
CELLMARGIN_BEGIN
 40
0.06
 40
0.06
 40
0.06
 40
0.06
 40
0.18
 40
0.18
309
CELLMARGIN_END
 94
6
 95
1
302
GRIDFORMAT
  1
GRIDFORMAT_BEGIN
 90
0
 91
1
 62
0
 92
-2
340
0
 93
0
 40
0.045
309
GRIDFORMAT_END
 95
2
302
GRIDFORMAT
  1
GRIDFORMAT_BEGIN
 90
0
 91
1
 62
0
 92
-2
340
0
 93
0
 40
0.045
309
GRIDFORMAT_END
 95
4
302
GRIDFORMAT
  1
GRIDFORMAT_BEGIN
 90
0
 91
1
 62
0
 92
-2
340
0
 93
0
 40
0.045
309
GRIDFORMAT_END
 95
8
302
GRIDFORMAT
  1
GRIDFORMAT_BEGIN
 90
0
 91
1
 62
0
 92
-2
340
0
 93
0
 40
0.045
309
GRIDFORMAT_END
 95
16
302
GRIDFORMAT
  1
GRIDFORMAT_BEGIN
 90
0
 91
1
 62
0
 92
-2
340
0
 93
0
 40
0.045
309
GRIDFORMAT_END
 95
32
302
GRIDFORMAT
  1
GRIDFORMAT_BEGIN
 90
0
 91
1
 62
0
 92
-2
340
0
 93
0
 40
0.045
309
GRIDFORMAT_END
309
TABLEFORMAT_END
  1
CELLSTYLE_BEGIN
 90
1
 91
1
300
_TITLE
309
CELLSTYLE_END
300
CELLSTYLE
  1
TABLEFORMAT_BEGIN
 90
5
170
1
 91
0
 92
0
 62
257
 93
1
300
CONTENTFORMAT
  1
CONTENTFORMAT_BEGIN
 90
0
 91
0
 92
512
 93
0
300

 40
0.0
140
1.0
 94
5
 62
0
340
119F
144
0.18
309
CONTENTFORMAT_END
171
1
301
MARGIN
  1
CELLMARGIN_BEGIN
 40
0.06
 40
0.06
 40
0.06
 40
0.06
 40
0.18
 40
0.18
309
CELLMARGIN_END
 94
6
 95
1
302
GRIDFORMAT
  1
GRIDFORMAT_BEGIN
 90
0
 91
1
 62
0
 92
-2
340
0
 93
0
 40
0.045
309
GRIDFORMAT_END
 95
2
302
GRIDFORMAT
  1
GRIDFORMAT_BEGIN
 90
0
 91
1
 62
0
 92
-2
340
0
 93
0
 40
0.045
309
GRIDFORMAT_END
 95
4
302
GRIDFORMAT
  1
GRIDFORMAT_BEGIN
 90
0
 91
1
 62
0
 92
-2
340
0
 93
0
 40
0.045
309
GRIDFORMAT_END
 95
8
302
GRIDFORMAT
  1
GRIDFORMAT_BEGIN
 90
0
 91
1
 62
0
 92
-2
340
0
 93
0
 40
0.045
309
GRIDFORMAT_END
 95
16
302
GRIDFORMAT
  1
GRIDFORMAT_BEGIN
 90
0
 91
1
 62
0
 92
-2
340
0
 93
0
 40
0.045
309
GRIDFORMAT_END
 95
32
302
GRIDFORMAT
  1
GRIDFORMAT_BEGIN
 90
0
 91
1
 62
0
 92
-2
340
0
 93
0
 40
0.045
309
GRIDFORMAT_END
309
TABLEFORMAT_END
  1
CELLSTYLE_BEGIN
 90
2
 91
1
300
_HEADER
309
CELLSTYLE_END
300
CELLSTYLE
  1
TABLEFORMAT_BEGIN
 90
5
170
1
 91
0
 92
0
 62
257
 93
1
300
CONTENTFORMAT
  1
CONTENTFORMAT_BEGIN
 90
0
 91
0
 92
512
 93
0
300

 40
0.0
140
1.0
 94
2
 62
0
340
119F
144
0.18
309
CONTENTFORMAT_END
171
1
301
MARGIN
  1
CELLMARGIN_BEGIN
 40
0.06
 40
0.06
 40
0.06
 40
0.06
 40
0.18
 40
0.18
309
CELLMARGIN_END
 94
6
 95
1
302
GRIDFORMAT
  1
GRIDFORMAT_BEGIN
 90
0
 91
1
 62
0
 92
-2
340
0
 93
0
 40
0.045
309
GRIDFORMAT_END
 95
2
302
GRIDFORMAT
  1
GRIDFORMAT_BEGIN
 90
0
 91
1
 62
0
 92
-2
340
0
 93
0
 40
0.045
309
GRIDFORMAT_END
 95
4
302
GRIDFORMAT
  1
GRIDFORMAT_BEGIN
 90
0
 91
1
 62
0
 92
-2
340
0
 93
0
 40
0.045
309
GRIDFORMAT_END
 95
8
302
GRIDFORMAT
  1
GRIDFORMAT_BEGIN
 90
0
 91
1
 62
0
 92
-2
340
0
 93
0
 40
0.045
309
GRIDFORMAT_END
 95
16
302
GRIDFORMAT
  1
GRIDFORMAT_BEGIN
 90
0
 91
1
 62
0
 92
-2
340
0
 93
0
 40
0.045
309
GRIDFORMAT_END
 95
32
302
GRIDFORMAT
  1
GRIDFORMAT_BEGIN
 90
0
 91
1
 62
0
 92
-2
340
0
 93
0
 40
0.045
309
GRIDFORMAT_END
309
TABLEFORMAT_END
  1
CELLSTYLE_BEGIN
 90
3
 91
2
300
_DATA
309
CELLSTYLE_END
  0
MLINESTYLE
  5
43FB
102
{ACAD_REACTORS
330
18
102
}
330
18
100
AcDbMlineStyle
  2
Standard
 70
0
  3

 62
256
 51
90.0
 52
90.0
 71
2
 49
0.5
 62
256
  6
BYLAYER
 49
-0.5
 62
256
  6
BYLAYER
  0
ENDSEC
  0
EOF
