  0
SECTION
  2
HEADER
  9
$ACADVER
  1
AC1032
  9
$ACADMAINTVER
 90
4
  9
$DWGCODEPAGE
  3
ANSI_1252
  9
$LASTSAVEDBY
  1
sarevalo
  9
$REQUIREDVERSIONS
160
0
  9
$INSBASE
 10
0.0
 20
0.0
 30
0.0
  9
$EXTMIN
 10
-42000.5
 20
-40000.49999999999
 30
0.0
  9
$EXTMAX
 10
45000.49999999999
 20
40000.49999999999
 30
0.0
  9
$LIMMIN
 10
0.0
 20
0.0
  9
$LIMMAX
 10
0.0
 20
0.0
  9
$ORTHOMODE
 70
0
  9
$REGENMODE
 70
1
  9
$FILLMODE
 70
1
  9
$QTEXTMODE
 70
0
  9
$MIRRTEXT
 70
1
  9
$LTSCALE
 40
1.0
  9
$ATTMODE
 70
1
  9
$TEXTSIZE
 40
0.0
  9
$TRACEWID
 40
0.05
  9
$TEXTSTYLE
  7
STANDARD
  9
$CLAYER
  8
0
  9
$CELTYPE
  6
CONTINUOUS
  9
$CECOLOR
 62
256
  9
$CELTSCALE
 40
1.0
  9
$DISPSILH
 70
0
  9
$DIMSCALE
 40
1.0
  9
$DIMASZ
 40
0.18
  9
$DIMEXO
 40
0.0625
  9
$DIMDLI
 40
0.38
  9
$DIMRND
 40
0.0
  9
$DIMDLE
 40
0.0
  9
$DIMEXE
 40
0.18
  9
$DIMTP
 40
0.0
  9
$DIMTM
 40
0.0
  9
$DIMTXT
 40
0.18
  9
$DIMCEN
 40
0.09
  9
$DIMTSZ
 40
0.0
  9
$DIMTOL
 70
0
  9
$DIMLIM
 70
0
  9
$DIMTIH
 70
1
  9
$DIMTOH
 70
1
  9
$DIMSE1
 70
0
  9
$DIMSE2
 70
0
  9
$DIMTAD
 70
0
  9
$DIMZIN
 70
0
  9
$DIMBLK
  1

  9
$DIMASO
 70
1
  9
$DIMSHO
 70
1
  9
$DIMPOST
  1

  9
$DIMAPOST
  1

  9
$DIMALT
 70
0
  9
$DIMALTD
 70
2
  9
$DIMALTF
 40
25.4
  9
$DIMLFAC
 40
1.0
  9
$DIMTOFL
 70
0
  9
$DIMTVP
 40
0.0
  9
$DIMTIX
 70
0
  9
$DIMSOXD
 70
0
  9
$DIMSAH
 70
0
  9
$DIMBLK1
  1

  9
$DIMBLK2
  1

  9
$DIMSTYLE
  2
STANDARD
  9
$DIMCLRD
 70
0
  9
$DIMCLRE
 70
0
  9
$DIMCLRT
 70
0
  9
$DIMTFAC
 40
1.0
  9
$DIMGAP
 40
0.09
  9
$DIMJUST
 70
0
  9
$DIMSD1
 70
0
  9
$DIMSD2
 70
0
  9
$DIMTOLJ
 70
1
  9
$DIMTZIN
 70
0
  9
$DIMALTZ
 70
0
  9
$DIMALTTZ
 70
0
  9
$DIMUPT
 70
0
  9
$DIMDEC
 70
4
  9
$DIMTDEC
 70
4
  9
$DIMALTU
 70
2
  9
$DIMALTTD
 70
2
  9
$DIMTXSTY
  7
STANDARD
  9
$DIMAUNIT
 70
0
  9
$DIMADEC
 70
0
  9
$DIMALTRND
 40
0.0
  9
$DIMAZIN
 70
0
  9
$DIMDSEP
 70
46
  9
$DIMATFIT
 70
3
  9
$DIMFRAC
 70
0
  9
$DIMLDRBLK
  1

  9
$DIMLUNIT
 70
2
  9
$DIMLWD
 70
-2
  9
$DIMLWE
 70
-2
  9
$DIMTMOVE
 70
0
  9
$DIMFXL
 40
1.0
  9
$DIMFXLON
 70
0
  9
$DIMJOGANG
 40
0.7853981633974483
  9
$DIMTFILL
 70
0
  9
$DIMTFILLCLR
 70
0
  9
$DIMARCSYM
 70
0
  9
$DIMLTYPE
  6

  9
$DIMLTEX1
  6

  9
$DIMLTEX2
  6

  9
$DIMTXTDIRECTION
 70
0
  9
$LUNITS
 70
2
  9
$LUPREC
 70
4
  9
$SKETCHINC
 40
0.1
  9
$FILLETRAD
 40
0.0
  9
$AUNITS
 70
0
  9
$AUPREC
 70
0
  9
$MENU
  1
acad
  9
$ELEVATION
 40
0.0
  9
$PELEVATION
 40
0.0
  9
$THICKNESS
 40
0.0
  9
$LIMCHECK
 70
0
  9
$CHAMFERA
 40
0.0
  9
$CHAMFERB
 40
0.0
  9
$CHAMFERC
 40
0.0
  9
$CHAMFERD
 40
0.0
  9
$SKPOLY
 70
0
  9
$TDCREATE
 40
2460236.6605208335
  9
$TDUCREATE
 40
2440587.999988426
  9
$TDUPDATE
 40
2460236.6605208335
  9
$TDUUPDATE
 40
2460133.824502315
  9
$TDINDWG
 40
0.0040046296
  9
$TDUSRTIMER
 40
0.0040046296
  9
$USRTIMER
 70
1
  9
$ANGBASE
 50
0.0
  9
$ANGDIR
 70
0
  9
$PDMODE
 70
0
  9
$PDSIZE
 40
0.0
  9
$PLINEWID
 40
0.0
  9
$SPLFRAME
 70
0
  9
$SPLINETYPE
 70
6
  9
$SPLINESEGS
 70
8
  9
$HANDSEED
  5
90D3
  9
$SURFTAB1
 70
6
  9
$SURFTAB2
 70
6
  9
$SURFTYPE
 70
6
  9
$SURFU
 70
6
  9
$SURFV
 70
6
  9
$UCSBASE
  2

  9
$UCSNAME
  2

  9
$UCSORG
 10
0.0
 20
0.0
 30
0.0
  9
$UCSXDIR
 10
1.0
 20
0.0
 30
0.0
  9
$UCSYDIR
 10
0.0
 20
1.0
 30
0.0
  9
$UCSORTHOREF
  2

  9
$UCSORTHOVIEW
 70
0
  9
$UCSORGTOP
 10
0.0
 20
0.0
 30
0.0
  9
$UCSORGBOTTOM
 10
0.0
 20
0.0
 30
0.0
  9
$UCSORGLEFT
 10
0.0
 20
0.0
 30
0.0
  9
$UCSORGRIGHT
 10
0.0
 20
0.0
 30
0.0
  9
$UCSORGFRONT
 10
0.0
 20
0.0
 30
0.0
  9
$UCSORGBACK
 10
0.0
 20
0.0
 30
0.0
  9
$PUCSBASE
  2

  9
$PUCSNAME
  2

  9
$PUCSORG
 10
0.0
 20
0.0
 30
0.0
  9
$PUCSXDIR
 10
1.0
 20
0.0
 30
0.0
  9
$PUCSYDIR
 10
0.0
 20
1.0
 30
0.0
  9
$PUCSORTHOREF
  2

  9
$PUCSORTHOVIEW
 70
0
  9
$PUCSORGTOP
 10
0.0
 20
0.0
 30
0.0
  9
$PUCSORGBOTTOM
 10
0.0
 20
0.0
 30
0.0
  9
$PUCSORGLEFT
 10
0.0
 20
0.0
 30
0.0
  9
$PUCSORGRIGHT
 10
0.0
 20
0.0
 30
0.0
  9
$PUCSORGFRONT
 10
0.0
 20
0.0
 30
0.0
  9
$PUCSORGBACK
 10
0.0
 20
0.0
 30
0.0
  9
$USERI1
 70
-4
  9
$USERI2
 70
0
  9
$USERI3
 70
0
  9
$USERI4
 70
0
  9
$USERI5
 70
0
  9
$USERR1
 40
0.0
  9
$USERR2
 40
0.0
  9
$USERR3
 40
0.0
  9
$USERR4
 40
0.0
  9
$USERR5
 40
0.0
  9
$WORLDVIEW
 70
1
  9
$SHADEDGE
 70
3
  9
$SHADEDIF
 70
70
  9
$TILEMODE
 70
1
  9
$MAXACTVP
 70
16
  9
$PINSBASE
 10
0.0
 20
0.0
 30
0.0
  9
$PLIMCHECK
 70
0
  9
$PEXTMIN
 10
1e+20
 20
1e+20
 30
1e+20
  9
$PEXTMAX
 10
-1e+20
 20
-1e+20
 30
-1e+20
  9
$PLIMMIN
 10
0.0
 20
0.0
  9
$PLIMMAX
 10
12.0
 20
9.0
  9
$UNITMODE
 70
0
  9
$VISRETAIN
 70
0
  9
$PLINEGEN
 70
1
  9
$PSLTSCALE
 70
0
  9
$TREEDEPTH
 70
3020
  9
$CMLSTYLE
  2
STANDARD
  9
$CMLJUST
 70
0
  9
$CMLSCALE
 40
1.0
  9
$PROXYGRAPHICS
 70
0
  9
$MEASUREMENT
 70
0
  9
$CELWEIGHT
370
-1
  9
$ENDCAPS
280
0
  9
$JOINSTYLE
280
0
  9
$LWDISPLAY
290
0
  9
$INSUNITS
 70
0
  9
$HYPERLINKBASE
  1

  9
$STYLESHEET
  1

  9
$XEDIT
290
1
  9
$CEPSNTYPE
380
0
  9
$PSTYLEMODE
290
1
  9
$FINGERPRINTGUID
  2
D4702EBA-6E08-11EE-AE27-00D861F9C1E4
  9
$VERSIONGUID
  2
D47278A4-6E08-11EE-8BD0-00D861F9C1E4
  9
$EXTNAMES
290
1
  9
$PSVPSCALE
 40
0.0
  9
$OLESTARTUP
290
0
  9
$SORTENTS
280
127
  9
$INDEXCTL
280
0
  9
$HIDETEXT
280
0
  9
$XCLIPFRAME
280
2
  9
$HALOGAP
280
0
  9
$OBSCOLOR
 70
257
  9
$OBSLTYPE
280
0
  9
$INTERSECTIONDISPLAY
280
0
  9
$INTERSECTIONCOLOR
 70
257
  9
$DIMASSOC
280
1
  9
$PROJECTNAME
  1

  9
$CAMERADISPLAY
290
0
  9
$LENSLENGTH
 40
50.0
  9
$CAMERAHEIGHT
 40
0.0
  9
$STEPSPERSEC
 40
2.0
  9
$STEPSIZE
 40
6.0
  9
$3DDWFPREC
 40
2.0
  9
$PSOLWIDTH
 40
0.25
  9
$PSOLHEIGHT
 40
4.0
  9
$LOFTANG1
 40
1.570796326794896
  9
$LOFTANG2
 40
1.570796326794896
  9
$LOFTMAG1
 40
0.0
  9
$LOFTMAG2
 40
0.0
  9
$LOFTPARAM
 70
7
  9
$LOFTNORMALS
280
1
  9
$LATITUDE
 40
37.795
  9
$LONGITUDE
 40
-122.394
  9
$NORTHDIRECTION
 40
0.0
  9
$TIMEZONE
 70
-8000
  9
$LIGHTGLYPHDISPLAY
280
1
  9
$TILEMODELIGHTSYNCH
280
1
  9
$CMATERIAL
347
905B
  9
$SOLIDHIST
280
0
  9
$SHOWHIST
280
1
  9
$DWFFRAME
280
2
  9
$DGNFRAME
280
0
  9
$REALWORLDSCALE
290
1
  9
$INTERFERECOLOR
 62
1
  9
$INTERFEREOBJVS
345
907D
  9
$INTERFEREVPVS
346
907A
  9
$CSHADOW
280
0
  9
$SHADOWPLANELOCATION
 40
0.0
  0
ENDSEC
  0
SECTION
  2
CLASSES
  0
CLASS
  1
IMAGE
  2
AcDbRasterImage
  3
ISM
 90
2175
 91
0
280
0
281
1
  0
CLASS
  1
DICTIONARYVAR
  2
AcDbDictionaryVar
  3
ObjectDBX Classes
 90
0
 91
9
280
0
281
0
  0
CLASS
  1
RASTERVARIABLES
  2
AcDbRasterVariables
  3
ISM
 90
0
 91
0
280
0
281
0
  0
CLASS
  1
IMAGEDEF
  2
AcDbRasterImageDef
  3
ISM
 90
0
 91
0
280
0
281
0
  0
CLASS
  1
IMAGEDEF_REACTOR
  2
AcDbRasterImageDefReactor
  3
ISM
 90
1
 91
0
280
0
281
0
  0
CLASS
  1
IDBUFFER
  2
AcDbIdBuffer
  3
ObjectDBX Classes
 90
0
 91
0
280
0
281
0
  0
CLASS
  1
SPATIAL_FILTER
  2
AcDbSpatialFilter
  3
ObjectDBX Classes
 90
0
 91
0
280
0
281
0
  0
CLASS
  1
SORTENTSTABLE
  2
AcDbSortentsTable
  3
ObjectDBX Classes
 90
0
 91
0
280
0
281
0
  0
CLASS
  1
LAYER_INDEX
  2
AcDbLayerIndex
  3
ObjectDBX Classes
 90
0
 91
0
280
0
281
0
  0
CLASS
  1
SPATIAL_INDEX
  2
AcDbSpatialIndex
  3
ObjectDBX Classes
 90
0
 91
0
280
0
281
0
  0
CLASS
  1
OBJECT_PTR
  2
CAseDLPNTableRecord
  3
ASE-LPNTableRecord
 90
1
 91
0
280
0
281
0
  0
CLASS
  1
PLOTSETTINGS
  2
AcDbPlotSettings
  3
ObjectDBX Classes
 90
0
 91
0
280
0
281
0
  0
CLASS
  1
ACDBDICTIONARYWDFLT
  2
AcDbDictionaryWithDefault
  3
ObjectDBX Classes
 90
0
 91
1
280
0
281
0
  0
CLASS
  1
WIPEOUT
  2
AcDbWipeout
  3
WipeOut|Product Desc: Object Enabler for WipeOut entity | Company: Autodesk, Inc. | WEB Address: www.autodesk.com
 90
2175
 91
0
280
0
281
1
  0
CLASS
  1
WIPEOUTVARIABLES
  2
AcDbWipeoutVariables
  3
"WipeOut|Product Desc:     WipeOut Dbx Application|Company:          Autodesk, Inc.|WEB Address:      www.autodesk.com"
 90
0
 91
0
280
0
281
0
  0
CLASS
  1
RTEXT
  2
RText
  3
RText|AutoCAD Express Tool|expresstools@autodesk.com
 90
3071
 91
0
280
0
281
1
  0
CLASS
  1
ARCALIGNEDTEXT
  2
AcDbArcAlignedText
  3
ATEXT|AutoCAD Express Tool|expresstools@autodesk.com
 90
0
 91
0
280
0
281
1
  0
CLASS
  1
MATERIAL
  2
AcDbMaterial
  3
ObjectDBX Classes
 90
1153
 91
3
280
0
281
0
  0
CLASS
  1
VISUALSTYLE
  2
AcDbVisualStyle
  3
ObjectDBX Classes
 90
4095
 91
24
280
0
281
0
  0
CLASS
  1
TABLESTYLE
  2
AcDbTableStyle
  3
ObjectDBX Classes
 90
4095
 91
1
280
0
281
0
  0
CLASS
  1
SCALE
  2
AcDbScale
  3
ObjectDBX Classes
 90
1153
 91
17
280
0
281
0
  0
CLASS
  1
MLEADERSTYLE
  2
AcDbMLeaderStyle
  3
ACDB_MLEADERSTYLE_CLASS
 90
4095
 91
1
280
0
281
0
  0
CLASS
  1
ACDBSECTIONVIEWSTYLE
  2
AcDbSectionViewStyle
  3
ObjectDBX Classes
 90
1025
 91
1
280
0
281
0
  0
CLASS
  1
ACDBDETAILVIEWSTYLE
  2
AcDbDetailViewStyle
  3
ObjectDBX Classes
 90
1025
 91
1
280
0
281
0
  0
CLASS
  1
CELLSTYLEMAP
  2
AcDbCellStyleMap
  3
ObjectDBX Classes
 90
1152
 91
1
280
0
281
0
  0
CLASS
  1
SUN
  2
AcDbSun
  3
SCENEOE
 90
1153
 91
0
280
0
281
0
  0
CLASS
  1
MENTALRAYRENDERSETTINGS
  2
AcDbMentalRayRenderSettings
  3
SCENEOE
 90
1024
 91
0
280
0
281
0
  0
CLASS
  1
ACDBPLACEHOLDER
  2
AcDbPlaceHolder
  3
ObjectDBX Classes
 90
0
 91
0
280
0
281
0
  0
CLASS
  1
LAYOUT
  2
AcDbLayout
  3
ObjectDBX Classes
 90
0
 91
0
280
0
281
0
  0
ENDSEC
  0
SECTION
  2
TABLES
  0
TABLE
  2
VPORT
  5
7
330
0
100
AcDbSymbolTable
 70
1
  0
VPORT
  5
13
330
7
100
AcDbSymbolTableRecord
100
AcDbViewportTableRecord
  2
*ACTIVE
 70
0
 10
0.0
 20
0.0
 11
1.0
 21
1.0
 12
-26264.64799284295
 22
-22476.26131546322
 13
0.0
 23
0.0
 14
1.0
 24
1.0
 15
0.0
 25
0.0
 16
0.0
 26
0.0
 36
1.0
 17
0.0
 27
0.0
 37
0.0
 40
95.1682738100889
 41
2.824398249452954
 42
50.0
 43
0.0
 44
0.0
 50
0.0
 51
0.0
 71
0
 72
100
 73
1
 74
1
 75
0
 76
0
 77
0
 78
0
281
0
 65
1
110
0.0
120
0.0
130
0.0
111
1.0
121
0.0
131
0.0
112
0.0
122
1.0
132
0.0
 79
0
146
0.0
 60
3
 61
5
348
9079
292
1
282
1
141
0.0
142
0.0
 63
250
421
3355443
1001
ACAD_NAV_VCDISPLAY
1070
3
  0
ENDTAB
  0
TABLE
  2
LTYPE
  5
4
330
0
100
AcDbSymbolTable
 70
3
  0
LTYPE
  5
10
330
4
100
AcDbSymbolTableRecord
100
AcDbLinetypeTableRecord
  2
BYBLOCK
 70
0
  3

 72
65
 73
0
 40
0.0
  0
LTYPE
  5
11
330
4
100
AcDbSymbolTableRecord
100
AcDbLinetypeTableRecord
  2
BYLAYER
 70
0
  3

 72
65
 73
0
 40
0.0
  0
LTYPE
  5
12
330
4
100
AcDbSymbolTableRecord
100
AcDbLinetypeTableRecord
  2
CONTINUOUS
 70
0
  3
Solid Line
 72
65
 73
0
 40
0.0
  0
ENDTAB
  0
TABLE
  2
LAYER
  5
2
330
0
100
AcDbSymbolTable
 70
8
  0
LAYER
  5
23E8
102
{ACAD_XDICTIONARY
360
90AE
102
}
330
2
100
AcDbSymbolTableRecord
100
AcDbLayerTableRecord
  2
0
 70
0
 62
7
  6
CONTINUOUS
370
-3
390
9059
347
906B
348
0
  0
LAYER
  5
23E9
102
{ACAD_XDICTIONARY
360
90B0
102
}
330
2
100
AcDbSymbolTableRecord
100
AcDbLayerTableRecord
  2
PIN_NOTATIONS
 70
0
 62
221
  6
CONTINUOUS
370
-3
390
9059
347
906B
348
0
  0
LAYER
  5
23EA
102
{ACAD_XDICTIONARY
360
90B2
102
}
330
2
100
AcDbSymbolTableRecord
100
AcDbLayerTableRecord
  2
PKG_OUTLINE
 70
0
 62
81
  6
CONTINUOUS
370
-3
390
9059
347
906B
348
0
  0
LAYER
  5
23EB
102
{ACAD_XDICTIONARY
360
90B4
102
}
330
2
100
AcDbSymbolTableRecord
100
AcDbLayerTableRecord
  2
PHOTOPLOT
 70
0
 62
104
  6
CONTINUOUS
370
-3
390
9059
347
906B
348
0
  0
LAYER
  5
23EC
102
{ACAD_XDICTIONARY
360
90B6
102
}
330
2
100
AcDbSymbolTableRecord
100
AcDbLayerTableRecord
  2
SOLDERMASK_PADS_BTM
 70
0
 62
12
  6
CONTINUOUS
370
-3
390
9059
347
906B
348
0
  0
LAYER
  5
23ED
102
{ACAD_XDICTIONARY
360
90B8
102
}
330
2
100
AcDbSymbolTableRecord
100
AcDbLayerTableRecord
  2
TEXT_BSR
 70
0
 62
30
  6
CONTINUOUS
370
-3
390
9059
347
906B
348
0
  0
LAYER
  5
90CD
330
2
100
AcDbSymbolTableRecord
100
AcDbLayerTableRecord
  2
Defpoints
 70
0
 62
7
  6
Continuous
290
0
370
-3
390
9059
347
906B
  0
LAYER
  5
90CE
330
2
100
AcDbSymbolTableRecord
100
AcDbLayerTableRecord
  2
JIG_STREET
 70
0
 62
7
  6
Continuous
370
-3
390
9059
347
906B
  0
ENDTAB
  0
TABLE
  2
STYLE
  5
3
330
0
100
AcDbSymbolTable
 70
3
  0
STYLE
  5
23EE
330
3
100
AcDbSymbolTableRecord
100
AcDbTextStyleTableRecord
  2
STANDARD
 70
0
 40
0.0
 41
1.0
 50
0.0
 71
0
 42
0.0
  3
txt
  4

  0
STYLE
  5
23EF
330
3
100
AcDbSymbolTableRecord
100
AcDbTextStyleTableRecord
  2
VF_STD
 70
0
 40
0.0
 41
1.0
 50
0.0
 71
0
 42
0.0
  3
txt
  4

  0
STYLE
  5
23F0
330
3
100
AcDbSymbolTableRecord
100
AcDbTextStyleTableRecord
  2
ARIAL
 70
0
 40
0.0
 41
1.0
 50
0.0
 71
0
 42
0.0
  3
arial.ttf
  4

1001
ACAD
1000
Arial
1071
34
  0
ENDTAB
  0
TABLE
  2
VIEW
  5
5
330
0
100
AcDbSymbolTable
 70
0
  0
ENDTAB
  0
TABLE
  2
UCS
  5
6
330
0
100
AcDbSymbolTable
 70
0
  0
ENDTAB
  0
TABLE
  2
APPID
  5
8
330
0
100
AcDbSymbolTable
 70
4
  0
APPID
  5
14
330
8
100
AcDbSymbolTableRecord
100
AcDbRegAppTableRecord
  2
ACAD
 70
0
  0
APPID
  5
90BC
330
8
100
AcDbSymbolTableRecord
100
AcDbRegAppTableRecord
  2
DCO15
 70
0
  0
APPID
  5
90C8
330
8
100
AcDbSymbolTableRecord
100
AcDbRegAppTableRecord
  2
ACAD_NAV_VCDISPLAY
 70
0
  0
APPID
  5
90D2
330
8
100
AcDbSymbolTableRecord
100
AcDbRegAppTableRecord
  2
HATCHBACKGROUNDCOLOR
 70
0
  0
ENDTAB
  0
TABLE
  2
DIMSTYLE
  5
9
330
0
100
AcDbSymbolTable
 70
1
100
AcDbDimStyleTable
  0
DIMSTYLE
105
15
330
9
100
AcDbSymbolTableRecord
100
AcDbDimStyleTableRecord
  2
STANDARD
 70
0
 40
1.0
 41
2.5
 42
0.625
 43
3.75
 44
1.25
 45
0.0
 46
0.0
 47
0.0
 48
0.0
 49
2.5
140
2.5
141
2.5
142
0.0
143
0.03937007874
144
1.0
145
0.0
146
1.0
147
0.625
148
0.0
 69
0
 70
0
 71
0
 72
0
 73
0
 74
0
 75
0
 76
0
 77
1
 78
8
 79
0
170
0
171
3
172
1
173
0
174
0
175
0
176
0
177
0
178
0
179
0
271
0
272
2
273
2
274
3
275
0
276
0
277
2
278
44
279
0
280
0
281
0
282
0
283
0
284
8
285
0
286
0
288
0
289
3
290
0
371
-2
372
-2
  0
ENDTAB
  0
TABLE
  2
BLOCK_RECORD
  5
1
330
0
100
AcDbSymbolTable
 70
2
  0
BLOCK_RECORD
  5
A
330
1
100
AcDbSymbolTableRecord
100
AcDbBlockTableRecord
  2
*MODEL_SPACE
340
90A9
 70
0
280
1
281
0
  0
BLOCK_RECORD
  5
B
330
1
100
AcDbSymbolTableRecord
100
AcDbBlockTableRecord
  2
*PAPER_SPACE
340
90AA
 70
0
280
1
281
0
  0
ENDTAB
  0
ENDSEC
  0
SECTION
  2
BLOCKS
  0
BLOCK
  5
C
330
A
100
AcDbEntity
  8
0
100
AcDbBlockBegin
  2
*MODEL_SPACE
 70
0
 10
0.0
 20
0.0
 30
0.0
  3
*MODEL_SPACE
  1

  0
ENDBLK
  5
D
330
A
100
AcDbEntity
  8
0
100
AcDbBlockEnd
  0
BLOCK
  5
E
330
B
100
AcDbEntity
 67
1
  8
0
100
AcDbBlockBegin
  2
*PAPER_SPACE
 70
0
 10
0.0
 20
0.0
 30
0.0
  3
*PAPER_SPACE
  1

  0
ENDBLK
  5
F
330
B
100
AcDbEntity
 67
1
  8
0
100
AcDbBlockEnd
  0
ENDSEC
  0
SECTION
  2
ENTITIES
  0
LWPOLYLINE
  5
DC
330
A
100
AcDbEntity
  8
PKG_OUTLINE
100
AcDbPolyline
 90
4
 70
1
 10
-26250.0
 20
-22500.0
 10
-26250.0
 20
-22455.0
 10
-26197.5
 20
-22455.0
 10
-26197.5
 20
-22500.0
  0
SOLID
  5
E1
330
A
100
AcDbEntity
  8
SOLDERMASK_PADS_BTM
100
AcDbTrace
 10
-26232.11
 20
-22469.0
 30
0.0
 11
-26231.96
 21
-22469.0
 31
0.0
 12
-26232.11
 22
-22468.8
 32
0.0
 13
-26231.96
 23
-22468.8
 33
0.0
  0
SOLID
  5
E2
330
A
100
AcDbEntity
  8
SOLDERMASK_PADS_BTM
100
AcDbTrace
 10
-26232.44
 20
-22469.0
 30
0.0
 11
-26232.29
 21
-22469.0
 31
0.0
 12
-26232.44
 22
-22468.8
 32
0.0
 13
-26232.29
 23
-22468.8
 33
0.0
  0
SOLID
  5
E3
330
A
100
AcDbEntity
  8
SOLDERMASK_PADS_BTM
100
AcDbTrace
 10
-26232.11
 20
-22468.51
 30
0.0
 11
-26231.96
 21
-22468.51
 31
0.0
 12
-26232.11
 22
-22468.31
 32
0.0
 13
-26231.96
 23
-22468.31
 33
0.0
  0
SOLID
  5
E4
330
A
100
AcDbEntity
  8
SOLDERMASK_PADS_BTM
100
AcDbTrace
 10
-26232.44
 20
-22468.51
 30
0.0
 11
-26232.29
 21
-22468.51
 31
0.0
 12
-26232.44
 22
-22468.31
 32
0.0
 13
-26232.29
 23
-22468.31
 33
0.0
  0
SOLID
  5
E5
330
A
100
AcDbEntity
  8
SOLDERMASK_PADS_BTM
100
AcDbTrace
 10
-26231.31
 20
-22469.5
 30
0.0
 11
-26231.16
 21
-22469.5
 31
0.0
 12
-26231.31
 22
-22469.3
 32
0.0
 13
-26231.16
 23
-22469.3
 33
0.0
  0
SOLID
  5
E6
330
A
100
AcDbEntity
  8
SOLDERMASK_PADS_BTM
100
AcDbTrace
 10
-26231.64
 20
-22469.5
 30
0.0
 11
-26231.49
 21
-22469.5
 31
0.0
 12
-26231.64
 22
-22469.3
 32
0.0
 13
-26231.49
 23
-22469.3
 33
0.0
  0
SOLID
  5
E7
330
A
100
AcDbEntity
  8
SOLDERMASK_PADS_BTM
100
AcDbTrace
 10
-26231.31
 20
-22469.0
 30
0.0
 11
-26231.16
 21
-22469.0
 31
0.0
 12
-26231.31
 22
-22468.8
 32
0.0
 13
-26231.16
 23
-22468.8
 33
0.0
  0
SOLID
  5
E8
330
A
100
AcDbEntity
  8
SOLDERMASK_PADS_BTM
100
AcDbTrace
 10
-26231.64
 20
-22469.0
 30
0.0
 11
-26231.49
 21
-22469.0
 31
0.0
 12
-26231.64
 22
-22468.8
 32
0.0
 13
-26231.49
 23
-22468.8
 33
0.0
  0
SOLID
  5
E9
330
A
100
AcDbEntity
  8
SOLDERMASK_PADS_BTM
100
AcDbTrace
 10
-26231.31
 20
-22468.51
 30
0.0
 11
-26231.16
 21
-22468.51
 31
0.0
 12
-26231.31
 22
-22468.31
 32
0.0
 13
-26231.16
 23
-22468.31
 33
0.0
  0
SOLID
  5
EA
330
A
100
AcDbEntity
  8
SOLDERMASK_PADS_BTM
100
AcDbTrace
 10
-26231.64
 20
-22468.51
 30
0.0
 11
-26231.49
 21
-22468.51
 31
0.0
 12
-26231.64
 22
-22468.31
 32
0.0
 13
-26231.49
 23
-22468.31
 33
0.0
  0
SOLID
  5
EB
330
A
100
AcDbEntity
  8
SOLDERMASK_PADS_BTM
100
AcDbTrace
 10
-26230.7
 20
-22469.5
 30
0.0
 11
-26230.5
 21
-22469.5
 31
0.0
 12
-26230.7
 22
-22469.35
 32
0.0
 13
-26230.5
 23
-22469.35
 33
0.0
  0
SOLID
  5
EC
330
A
100
AcDbEntity
  8
SOLDERMASK_PADS_BTM
100
AcDbTrace
 10
-26230.7
 20
-22469.17
 30
0.0
 11
-26230.5
 21
-22469.17
 31
0.0
 12
-26230.7
 22
-22469.02
 32
0.0
 13
-26230.5
 23
-22469.02
 33
0.0
  0
SOLID
  5
ED
330
A
100
AcDbEntity
  8
SOLDERMASK_PADS_BTM
100
AcDbTrace
 10
-26230.15
 20
-22468.79
 30
0.0
 11
-26229.95
 21
-22468.79
 31
0.0
 12
-26230.15
 22
-22468.64
 32
0.0
 13
-26229.95
 23
-22468.64
 33
0.0
  0
SOLID
  5
EE
330
A
100
AcDbEntity
  8
SOLDERMASK_PADS_BTM
100
AcDbTrace
 10
-26230.15
 20
-22468.46
 30
0.0
 11
-26229.95
 21
-22468.46
 31
0.0
 12
-26230.15
 22
-22468.31
 32
0.0
 13
-26229.95
 23
-22468.31
 33
0.0
  0
SOLID
  5
EF
330
A
100
AcDbEntity
  8
SOLDERMASK_PADS_BTM
100
AcDbTrace
 10
-26230.7
 20
-22468.79
 30
0.0
 11
-26230.5
 21
-22468.79
 31
0.0
 12
-26230.7
 22
-22468.64
 32
0.0
 13
-26230.5
 23
-22468.64
 33
0.0
  0
SOLID
  5
F0
330
A
100
AcDbEntity
  8
SOLDERMASK_PADS_BTM
100
AcDbTrace
 10
-26230.7
 20
-22468.46
 30
0.0
 11
-26230.5
 21
-22468.46
 31
0.0
 12
-26230.7
 22
-22468.31
 32
0.0
 13
-26230.5
 23
-22468.31
 33
0.0
  0
SOLID
  5
F1
330
A
100
AcDbEntity
  8
SOLDERMASK_PADS_BTM
100
AcDbTrace
 10
-26233.35
 20
-22478.4
 30
0.0
 11
-26233.15
 21
-22478.4
 31
0.0
 12
-26233.35
 22
-22477.4
 32
0.0
 13
-26233.15
 23
-22477.4
 33
0.0
  0
SOLID
  5
F2
330
A
100
AcDbEntity
  8
SOLDERMASK_PADS_BTM
100
AcDbTrace
 10
-26232.95
 20
-22478.4
 30
0.0
 11
-26232.75
 21
-22478.4
 31
0.0
 12
-26232.95
 22
-22477.4
 32
0.0
 13
-26232.75
 23
-22477.4
 33
0.0
  0
SOLID
  5
F3
330
A
100
AcDbEntity
  8
SOLDERMASK_PADS_BTM
100
AcDbTrace
 10
-26229.36
 20
-22469.5
 30
0.0
 11
-26229.21
 21
-22469.5
 31
0.0
 12
-26229.36
 22
-22469.3
 32
0.0
 13
-26229.21
 23
-22469.3
 33
0.0
  0
SOLID
  5
F4
330
A
100
AcDbEntity
  8
SOLDERMASK_PADS_BTM
100
AcDbTrace
 10
-26229.69
 20
-22469.5
 30
0.0
 11
-26229.54
 21
-22469.5
 31
0.0
 12
-26229.69
 22
-22469.3
 32
0.0
 13
-26229.54
 23
-22469.3
 33
0.0
  0
SOLID
  5
F5
330
A
100
AcDbEntity
  8
SOLDERMASK_PADS_BTM
100
AcDbTrace
 10
-26230.15
 20
-22469.5
 30
0.0
 11
-26229.95
 21
-22469.5
 31
0.0
 12
-26230.15
 22
-22469.35
 32
0.0
 13
-26229.95
 23
-22469.35
 33
0.0
  0
SOLID
  5
F6
330
A
100
AcDbEntity
  8
SOLDERMASK_PADS_BTM
100
AcDbTrace
 10
-26230.15
 20
-22469.17
 30
0.0
 11
-26229.95
 21
-22469.17
 31
0.0
 12
-26230.15
 22
-22469.02
 32
0.0
 13
-26229.95
 23
-22469.02
 33
0.0
  0
SOLID
  5
F7
330
A
100
AcDbEntity
  8
SOLDERMASK_PADS_BTM
100
AcDbTrace
 10
-26229.36
 20
-22469.0
 30
0.0
 11
-26229.21
 21
-22469.0
 31
0.0
 12
-26229.36
 22
-22468.8
 32
0.0
 13
-26229.21
 23
-22468.8
 33
0.0
  0
SOLID
  5
F8
330
A
100
AcDbEntity
  8
SOLDERMASK_PADS_BTM
100
AcDbTrace
 10
-26229.69
 20
-22469.0
 30
0.0
 11
-26229.54
 21
-22469.0
 31
0.0
 12
-26229.69
 22
-22468.8
 32
0.0
 13
-26229.54
 23
-22468.8
 33
0.0
  0
SOLID
  5
F9
330
A
100
AcDbEntity
  8
SOLDERMASK_PADS_BTM
100
AcDbTrace
 10
-26229.36
 20
-22468.51
 30
0.0
 11
-26229.21
 21
-22468.51
 31
0.0
 12
-26229.36
 22
-22468.31
 32
0.0
 13
-26229.21
 23
-22468.31
 33
0.0
  0
SOLID
  5
FA
330
A
100
AcDbEntity
  8
SOLDERMASK_PADS_BTM
100
AcDbTrace
 10
-26229.69
 20
-22468.51
 30
0.0
 11
-26229.54
 21
-22468.51
 31
0.0
 12
-26229.69
 22
-22468.31
 32
0.0
 13
-26229.54
 23
-22468.31
 33
0.0
  0
SOLID
  5
FB
330
A
100
AcDbEntity
  8
SOLDERMASK_PADS_BTM
100
AcDbTrace
 10
-26224.25
 20
-22468.79
 30
0.0
 11
-26223.25
 21
-22468.79
 31
0.0
 12
-26224.25
 22
-22468.59
 32
0.0
 13
-26223.25
 23
-22468.59
 33
0.0
  0
SOLID
  5
FC
330
A
100
AcDbEntity
  8
SOLDERMASK_PADS_BTM
100
AcDbTrace
 10
-26224.25
 20
-22468.39
 30
0.0
 11
-26223.25
 21
-22468.39
 31
0.0
 12
-26224.25
 22
-22468.19
 32
0.0
 13
-26223.25
 23
-22468.19
 33
0.0
  0
SOLID
  5
FD
330
A
100
AcDbEntity
  8
SOLDERMASK_PADS_BTM
100
AcDbTrace
 10
-26228.51
 20
-22469.5
 30
0.0
 11
-26228.36
 21
-22469.5
 31
0.0
 12
-26228.51
 22
-22469.3
 32
0.0
 13
-26228.36
 23
-22469.3
 33
0.0
  0
SOLID
  5
FE
330
A
100
AcDbEntity
  8
SOLDERMASK_PADS_BTM
100
AcDbTrace
 10
-26228.84
 20
-22469.5
 30
0.0
 11
-26228.69
 21
-22469.5
 31
0.0
 12
-26228.84
 22
-22469.3
 32
0.0
 13
-26228.69
 23
-22469.3
 33
0.0
  0
SOLID
  5
FF
330
A
100
AcDbEntity
  8
SOLDERMASK_PADS_BTM
100
AcDbTrace
 10
-26228.51
 20
-22469.0
 30
0.0
 11
-26228.36
 21
-22469.0
 31
0.0
 12
-26228.51
 22
-22468.8
 32
0.0
 13
-26228.36
 23
-22468.8
 33
0.0
  0
SOLID
  5
100
330
A
100
AcDbEntity
  8
SOLDERMASK_PADS_BTM
100
AcDbTrace
 10
-26228.84
 20
-22469.0
 30
0.0
 11
-26228.69
 21
-22469.0
 31
0.0
 12
-26228.84
 22
-22468.8
 32
0.0
 13
-26228.69
 23
-22468.8
 33
0.0
  0
SOLID
  5
101
330
A
100
AcDbEntity
  8
SOLDERMASK_PADS_BTM
100
AcDbTrace
 10
-26228.51
 20
-22468.51
 30
0.0
 11
-26228.36
 21
-22468.51
 31
0.0
 12
-26228.51
 22
-22468.31
 32
0.0
 13
-26228.36
 23
-22468.31
 33
0.0
  0
SOLID
  5
102
330
A
100
AcDbEntity
  8
SOLDERMASK_PADS_BTM
100
AcDbTrace
 10
-26228.84
 20
-22468.51
 30
0.0
 11
-26228.69
 21
-22468.51
 31
0.0
 12
-26228.84
 22
-22468.31
 32
0.0
 13
-26228.69
 23
-22468.31
 33
0.0
  0
SOLID
  5
103
330
A
100
AcDbEntity
  8
SOLDERMASK_PADS_BTM
100
AcDbTrace
 10
-26227.9
 20
-22469.5
 30
0.0
 11
-26227.7
 21
-22469.5
 31
0.0
 12
-26227.9
 22
-22469.35
 32
0.0
 13
-26227.7
 23
-22469.35
 33
0.0
  0
SOLID
  5
104
330
A
100
AcDbEntity
  8
SOLDERMASK_PADS_BTM
100
AcDbTrace
 10
-26227.9
 20
-22469.17
 30
0.0
 11
-26227.7
 21
-22469.17
 31
0.0
 12
-26227.9
 22
-22469.02
 32
0.0
 13
-26227.7
 23
-22469.02
 33
0.0
  0
SOLID
  5
105
330
A
100
AcDbEntity
  8
SOLDERMASK_PADS_BTM
100
AcDbTrace
 10
-26227.25
 20
-22468.79
 30
0.0
 11
-26227.05
 21
-22468.79
 31
0.0
 12
-26227.25
 22
-22468.64
 32
0.0
 13
-26227.05
 23
-22468.64
 33
0.0
  0
SOLID
  5
106
330
A
100
AcDbEntity
  8
SOLDERMASK_PADS_BTM
100
AcDbTrace
 10
-26227.25
 20
-22468.46
 30
0.0
 11
-26227.05
 21
-22468.46
 31
0.0
 12
-26227.25
 22
-22468.31
 32
0.0
 13
-26227.05
 23
-22468.31
 33
0.0
  0
SOLID
  5
107
330
A
100
AcDbEntity
  8
SOLDERMASK_PADS_BTM
100
AcDbTrace
 10
-26227.9
 20
-22468.79
 30
0.0
 11
-26227.7
 21
-22468.79
 31
0.0
 12
-26227.9
 22
-22468.64
 32
0.0
 13
-26227.7
 23
-22468.64
 33
0.0
  0
SOLID
  5
108
330
A
100
AcDbEntity
  8
SOLDERMASK_PADS_BTM
100
AcDbTrace
 10
-26227.9
 20
-22468.46
 30
0.0
 11
-26227.7
 21
-22468.46
 31
0.0
 12
-26227.9
 22
-22468.31
 32
0.0
 13
-26227.7
 23
-22468.31
 33
0.0
  0
SOLID
  5
109
330
A
100
AcDbEntity
  8
SOLDERMASK_PADS_BTM
100
AcDbTrace
 10
-26215.61
 20
-22469.5
 30
0.0
 11
-26215.46
 21
-22469.5
 31
0.0
 12
-26215.61
 22
-22469.3
 32
0.0
 13
-26215.46
 23
-22469.3
 33
0.0
  0
SOLID
  5
10A
330
A
100
AcDbEntity
  8
SOLDERMASK_PADS_BTM
100
AcDbTrace
 10
-26215.94
 20
-22469.5
 30
0.0
 11
-26215.79
 21
-22469.5
 31
0.0
 12
-26215.94
 22
-22469.3
 32
0.0
 13
-26215.79
 23
-22469.3
 33
0.0
  0
SOLID
  5
10B
330
A
100
AcDbEntity
  8
SOLDERMASK_PADS_BTM
100
AcDbTrace
 10
-26227.25
 20
-22469.5
 30
0.0
 11
-26227.05
 21
-22469.5
 31
0.0
 12
-26227.25
 22
-22469.35
 32
0.0
 13
-26227.05
 23
-22469.35
 33
0.0
  0
SOLID
  5
10C
330
A
100
AcDbEntity
  8
SOLDERMASK_PADS_BTM
100
AcDbTrace
 10
-26227.25
 20
-22469.17
 30
0.0
 11
-26227.05
 21
-22469.17
 31
0.0
 12
-26227.25
 22
-22469.02
 32
0.0
 13
-26227.05
 23
-22469.02
 33
0.0
  0
SOLID
  5
10D
330
A
100
AcDbEntity
  8
SOLDERMASK_PADS_BTM
100
AcDbTrace
 10
-26215.61
 20
-22469.0
 30
0.0
 11
-26215.46
 21
-22469.0
 31
0.0
 12
-26215.61
 22
-22468.8
 32
0.0
 13
-26215.46
 23
-22468.8
 33
0.0
  0
SOLID
  5
10E
330
A
100
AcDbEntity
  8
SOLDERMASK_PADS_BTM
100
AcDbTrace
 10
-26215.94
 20
-22469.0
 30
0.0
 11
-26215.79
 21
-22469.0
 31
0.0
 12
-26215.94
 22
-22468.8
 32
0.0
 13
-26215.79
 23
-22468.8
 33
0.0
  0
SOLID
  5
10F
330
A
100
AcDbEntity
  8
SOLDERMASK_PADS_BTM
100
AcDbTrace
 10
-26215.61
 20
-22468.51
 30
0.0
 11
-26215.46
 21
-22468.51
 31
0.0
 12
-26215.61
 22
-22468.31
 32
0.0
 13
-26215.46
 23
-22468.31
 33
0.0
  0
SOLID
  5
110
330
A
100
AcDbEntity
  8
SOLDERMASK_PADS_BTM
100
AcDbTrace
 10
-26215.94
 20
-22468.51
 30
0.0
 11
-26215.79
 21
-22468.51
 31
0.0
 12
-26215.94
 22
-22468.31
 32
0.0
 13
-26215.79
 23
-22468.31
 33
0.0
  0
SOLID
  5
111
330
A
100
AcDbEntity
  8
SOLDERMASK_PADS_BTM
100
AcDbTrace
 10
-26216.46
 20
-22469.5
 30
0.0
 11
-26216.31
 21
-22469.5
 31
0.0
 12
-26216.46
 22
-22469.3
 32
0.0
 13
-26216.31
 23
-22469.3
 33
0.0
  0
SOLID
  5
112
330
A
100
AcDbEntity
  8
SOLDERMASK_PADS_BTM
100
AcDbTrace
 10
-26216.79
 20
-22469.5
 30
0.0
 11
-26216.64
 21
-22469.5
 31
0.0
 12
-26216.79
 22
-22469.3
 32
0.0
 13
-26216.64
 23
-22469.3
 33
0.0
  0
SOLID
  5
113
330
A
100
AcDbEntity
  8
SOLDERMASK_PADS_BTM
100
AcDbTrace
 10
-26216.46
 20
-22469.0
 30
0.0
 11
-26216.31
 21
-22469.0
 31
0.0
 12
-26216.46
 22
-22468.8
 32
0.0
 13
-26216.31
 23
-22468.8
 33
0.0
  0
SOLID
  5
114
330
A
100
AcDbEntity
  8
SOLDERMASK_PADS_BTM
100
AcDbTrace
 10
-26216.79
 20
-22469.0
 30
0.0
 11
-26216.64
 21
-22469.0
 31
0.0
 12
-26216.79
 22
-22468.8
 32
0.0
 13
-26216.64
 23
-22468.8
 33
0.0
  0
SOLID
  5
115
330
A
100
AcDbEntity
  8
SOLDERMASK_PADS_BTM
100
AcDbTrace
 10
-26216.46
 20
-22468.51
 30
0.0
 11
-26216.31
 21
-22468.51
 31
0.0
 12
-26216.46
 22
-22468.31
 32
0.0
 13
-26216.31
 23
-22468.31
 33
0.0
  0
SOLID
  5
116
330
A
100
AcDbEntity
  8
SOLDERMASK_PADS_BTM
100
AcDbTrace
 10
-26216.79
 20
-22468.51
 30
0.0
 11
-26216.64
 21
-22468.51
 31
0.0
 12
-26216.79
 22
-22468.31
 32
0.0
 13
-26216.64
 23
-22468.31
 33
0.0
  0
SOLID
  5
117
330
A
100
AcDbEntity
  8
SOLDERMASK_PADS_BTM
100
AcDbTrace
 10
-26217.35
 20
-22469.5
 30
0.0
 11
-26217.15
 21
-22469.5
 31
0.0
 12
-26217.35
 22
-22469.35
 32
0.0
 13
-26217.15
 23
-22469.35
 33
0.0
  0
SOLID
  5
118
330
A
100
AcDbEntity
  8
SOLDERMASK_PADS_BTM
100
AcDbTrace
 10
-26217.35
 20
-22469.17
 30
0.0
 11
-26217.15
 21
-22469.17
 31
0.0
 12
-26217.35
 22
-22469.02
 32
0.0
 13
-26217.15
 23
-22469.02
 33
0.0
  0
SOLID
  5
119
330
A
100
AcDbEntity
  8
SOLDERMASK_PADS_BTM
100
AcDbTrace
 10
-26217.8
 20
-22468.79
 30
0.0
 11
-26217.6
 21
-22468.79
 31
0.0
 12
-26217.8
 22
-22468.64
 32
0.0
 13
-26217.6
 23
-22468.64
 33
0.0
  0
SOLID
  5
11A
330
A
100
AcDbEntity
  8
SOLDERMASK_PADS_BTM
100
AcDbTrace
 10
-26217.8
 20
-22468.46
 30
0.0
 11
-26217.6
 21
-22468.46
 31
0.0
 12
-26217.8
 22
-22468.31
 32
0.0
 13
-26217.6
 23
-22468.31
 33
0.0
  0
SOLID
  5
11B
330
A
100
AcDbEntity
  8
SOLDERMASK_PADS_BTM
100
AcDbTrace
 10
-26217.35
 20
-22468.79
 30
0.0
 11
-26217.15
 21
-22468.79
 31
0.0
 12
-26217.35
 22
-22468.64
 32
0.0
 13
-26217.15
 23
-22468.64
 33
0.0
  0
SOLID
  5
11C
330
A
100
AcDbEntity
  8
SOLDERMASK_PADS_BTM
100
AcDbTrace
 10
-26217.35
 20
-22468.46
 30
0.0
 11
-26217.15
 21
-22468.46
 31
0.0
 12
-26217.35
 22
-22468.31
 32
0.0
 13
-26217.15
 23
-22468.31
 33
0.0
  0
SOLID
  5
11D
330
A
100
AcDbEntity
  8
SOLDERMASK_PADS_BTM
100
AcDbTrace
 10
-26218.31
 20
-22469.5
 30
0.0
 11
-26218.16
 21
-22469.5
 31
0.0
 12
-26218.31
 22
-22469.3
 32
0.0
 13
-26218.16
 23
-22469.3
 33
0.0
  0
SOLID
  5
11E
330
A
100
AcDbEntity
  8
SOLDERMASK_PADS_BTM
100
AcDbTrace
 10
-26218.64
 20
-22469.5
 30
0.0
 11
-26218.49
 21
-22469.5
 31
0.0
 12
-26218.64
 22
-22469.3
 32
0.0
 13
-26218.49
 23
-22469.3
 33
0.0
  0
SOLID
  5
11F
330
A
100
AcDbEntity
  8
SOLDERMASK_PADS_BTM
100
AcDbTrace
 10
-26217.8
 20
-22469.5
 30
0.0
 11
-26217.6
 21
-22469.5
 31
0.0
 12
-26217.8
 22
-22469.35
 32
0.0
 13
-26217.6
 23
-22469.35
 33
0.0
  0
SOLID
  5
120
330
A
100
AcDbEntity
  8
SOLDERMASK_PADS_BTM
100
AcDbTrace
 10
-26217.8
 20
-22469.17
 30
0.0
 11
-26217.6
 21
-22469.17
 31
0.0
 12
-26217.8
 22
-22469.02
 32
0.0
 13
-26217.6
 23
-22469.02
 33
0.0
  0
SOLID
  5
121
330
A
100
AcDbEntity
  8
SOLDERMASK_PADS_BTM
100
AcDbTrace
 10
-26218.31
 20
-22469.0
 30
0.0
 11
-26218.16
 21
-22469.0
 31
0.0
 12
-26218.31
 22
-22468.8
 32
0.0
 13
-26218.16
 23
-22468.8
 33
0.0
  0
SOLID
  5
122
330
A
100
AcDbEntity
  8
SOLDERMASK_PADS_BTM
100
AcDbTrace
 10
-26218.64
 20
-22469.0
 30
0.0
 11
-26218.49
 21
-22469.0
 31
0.0
 12
-26218.64
 22
-22468.8
 32
0.0
 13
-26218.49
 23
-22468.8
 33
0.0
  0
SOLID
  5
123
330
A
100
AcDbEntity
  8
SOLDERMASK_PADS_BTM
100
AcDbTrace
 10
-26218.31
 20
-22468.51
 30
0.0
 11
-26218.16
 21
-22468.51
 31
0.0
 12
-26218.31
 22
-22468.31
 32
0.0
 13
-26218.16
 23
-22468.31
 33
0.0
  0
SOLID
  5
124
330
A
100
AcDbEntity
  8
SOLDERMASK_PADS_BTM
100
AcDbTrace
 10
-26218.64
 20
-22468.51
 30
0.0
 11
-26218.49
 21
-22468.51
 31
0.0
 12
-26218.64
 22
-22468.31
 32
0.0
 13
-26218.49
 23
-22468.31
 33
0.0
  0
SOLID
  5
125
330
A
100
AcDbEntity
  8
SOLDERMASK_PADS_BTM
100
AcDbTrace
 10
-26219.11
 20
-22469.5
 30
0.0
 11
-26218.96
 21
-22469.5
 31
0.0
 12
-26219.11
 22
-22469.3
 32
0.0
 13
-26218.96
 23
-22469.3
 33
0.0
  0
SOLID
  5
126
330
A
100
AcDbEntity
  8
SOLDERMASK_PADS_BTM
100
AcDbTrace
 10
-26219.44
 20
-22469.5
 30
0.0
 11
-26219.29
 21
-22469.5
 31
0.0
 12
-26219.44
 22
-22469.3
 32
0.0
 13
-26219.29
 23
-22469.3
 33
0.0
  0
SOLID
  5
127
330
A
100
AcDbEntity
  8
SOLDERMASK_PADS_BTM
100
AcDbTrace
 10
-26219.11
 20
-22469.0
 30
0.0
 11
-26218.96
 21
-22469.0
 31
0.0
 12
-26219.11
 22
-22468.8
 32
0.0
 13
-26218.96
 23
-22468.8
 33
0.0
  0
SOLID
  5
128
330
A
100
AcDbEntity
  8
SOLDERMASK_PADS_BTM
100
AcDbTrace
 10
-26219.44
 20
-22469.0
 30
0.0
 11
-26219.29
 21
-22469.0
 31
0.0
 12
-26219.44
 22
-22468.8
 32
0.0
 13
-26219.29
 23
-22468.8
 33
0.0
  0
SOLID
  5
129
330
A
100
AcDbEntity
  8
SOLDERMASK_PADS_BTM
100
AcDbTrace
 10
-26219.11
 20
-22468.51
 30
0.0
 11
-26218.96
 21
-22468.51
 31
0.0
 12
-26219.11
 22
-22468.31
 32
0.0
 13
-26218.96
 23
-22468.31
 33
0.0
  0
SOLID
  5
12A
330
A
100
AcDbEntity
  8
SOLDERMASK_PADS_BTM
100
AcDbTrace
 10
-26219.44
 20
-22468.51
 30
0.0
 11
-26219.29
 21
-22468.51
 31
0.0
 12
-26219.44
 22
-22468.31
 32
0.0
 13
-26219.29
 23
-22468.31
 33
0.0
  0
SOLID
  5
12B
330
A
100
AcDbEntity
  8
SOLDERMASK_PADS_BTM
100
AcDbTrace
 10
-26219.95
 20
-22469.5
 30
0.0
 11
-26219.75
 21
-22469.5
 31
0.0
 12
-26219.95
 22
-22469.35
 32
0.0
 13
-26219.75
 23
-22469.35
 33
0.0
  0
SOLID
  5
12C
330
A
100
AcDbEntity
  8
SOLDERMASK_PADS_BTM
100
AcDbTrace
 10
-26219.95
 20
-22469.17
 30
0.0
 11
-26219.75
 21
-22469.17
 31
0.0
 12
-26219.95
 22
-22469.02
 32
0.0
 13
-26219.75
 23
-22469.02
 33
0.0
  0
SOLID
  5
12D
330
A
100
AcDbEntity
  8
SOLDERMASK_PADS_BTM
100
AcDbTrace
 10
-26219.95
 20
-22468.79
 30
0.0
 11
-26219.75
 21
-22468.79
 31
0.0
 12
-26219.95
 22
-22468.64
 32
0.0
 13
-26219.75
 23
-22468.64
 33
0.0
  0
SOLID
  5
12E
330
A
100
AcDbEntity
  8
SOLDERMASK_PADS_BTM
100
AcDbTrace
 10
-26219.95
 20
-22468.46
 30
0.0
 11
-26219.75
 21
-22468.46
 31
0.0
 12
-26219.95
 22
-22468.31
 32
0.0
 13
-26219.75
 23
-22468.31
 33
0.0
  0
SOLID
  5
12F
330
A
100
AcDbEntity
  8
SOLDERMASK_PADS_BTM
100
AcDbTrace
 10
-26220.45
 20
-22469.5
 30
0.0
 11
-26220.25
 21
-22469.5
 31
0.0
 12
-26220.45
 22
-22469.35
 32
0.0
 13
-26220.25
 23
-22469.35
 33
0.0
  0
SOLID
  5
130
330
A
100
AcDbEntity
  8
SOLDERMASK_PADS_BTM
100
AcDbTrace
 10
-26220.45
 20
-22469.17
 30
0.0
 11
-26220.25
 21
-22469.17
 31
0.0
 12
-26220.45
 22
-22469.02
 32
0.0
 13
-26220.25
 23
-22469.02
 33
0.0
  0
SOLID
  5
131
330
A
100
AcDbEntity
  8
SOLDERMASK_PADS_BTM
100
AcDbTrace
 10
-26232.95
 20
-22475.15
 30
0.0
 11
-26232.75
 21
-22475.15
 31
0.0
 12
-26232.95
 22
-22474.15
 32
0.0
 13
-26232.75
 23
-22474.15
 33
0.0
  0
SOLID
  5
132
330
A
100
AcDbEntity
  8
SOLDERMASK_PADS_BTM
100
AcDbTrace
 10
-26233.35
 20
-22475.15
 30
0.0
 11
-26233.15
 21
-22475.15
 31
0.0
 12
-26233.35
 22
-22474.15
 32
0.0
 13
-26233.15
 23
-22474.15
 33
0.0
  0
SOLID
  5
133
330
A
100
AcDbEntity
  8
SOLDERMASK_PADS_BTM
100
AcDbTrace
 10
-26214.65
 20
-22478.4
 30
0.0
 11
-26214.45
 21
-22478.4
 31
0.0
 12
-26214.65
 22
-22477.4
 32
0.0
 13
-26214.45
 23
-22477.4
 33
0.0
  0
SOLID
  5
134
330
A
100
AcDbEntity
  8
SOLDERMASK_PADS_BTM
100
AcDbTrace
 10
-26215.05
 20
-22478.4
 30
0.0
 11
-26214.85
 21
-22478.4
 31
0.0
 12
-26215.05
 22
-22477.4
 32
0.0
 13
-26214.85
 23
-22477.4
 33
0.0
  0
SOLID
  5
135
330
A
100
AcDbEntity
  8
SOLDERMASK_PADS_BTM
100
AcDbTrace
 10
-26214.65
 20
-22475.15
 30
0.0
 11
-26214.45
 21
-22475.15
 31
0.0
 12
-26214.65
 22
-22474.15
 32
0.0
 13
-26214.45
 23
-22474.15
 33
0.0
  0
SOLID
  5
136
330
A
100
AcDbEntity
  8
SOLDERMASK_PADS_BTM
100
AcDbTrace
 10
-26215.05
 20
-22475.15
 30
0.0
 11
-26214.85
 21
-22475.15
 31
0.0
 12
-26215.05
 22
-22474.15
 32
0.0
 13
-26214.85
 23
-22474.15
 33
0.0
  0
SOLID
  5
137
330
A
100
AcDbEntity
  8
SOLDERMASK_PADS_BTM
100
AcDbTrace
 10
-26221.1
 20
-22469.4
 30
0.0
 11
-26220.9
 21
-22469.4
 31
0.0
 12
-26221.1
 22
-22468.4
 32
0.0
 13
-26220.9
 23
-22468.4
 33
0.0
  0
SOLID
  5
138
330
A
100
AcDbEntity
  8
SOLDERMASK_PADS_BTM
100
AcDbTrace
 10
-26221.5
 20
-22469.4
 30
0.0
 11
-26221.3
 21
-22469.4
 31
0.0
 12
-26221.5
 22
-22468.4
 32
0.0
 13
-26221.3
 23
-22468.4
 33
0.0
  0
SOLID
  5
2363
330
A
100
AcDbEntity
  8
SOLDERMASK_PADS_BTM
100
AcDbTrace
 10
-26233.4
 20
-22485.11
 30
0.0
 11
-26233.2
 21
-22485.11
 31
0.0
 12
-26233.4
 22
-22484.96
 32
0.0
 13
-26233.2
 23
-22484.96
 33
0.0
  0
SOLID
  5
2364
330
A
100
AcDbEntity
  8
SOLDERMASK_PADS_BTM
100
AcDbTrace
 10
-26233.4
 20
-22485.44
 30
0.0
 11
-26233.2
 21
-22485.44
 31
0.0
 12
-26233.4
 22
-22485.29
 32
0.0
 13
-26233.2
 23
-22485.29
 33
0.0
  0
SOLID
  5
2365
330
A
100
AcDbEntity
  8
SOLDERMASK_PADS_BTM
100
AcDbTrace
 10
-26222.15
 20
-22469.4
 30
0.0
 11
-26221.95
 21
-22469.4
 31
0.0
 12
-26222.15
 22
-22468.4
 32
0.0
 13
-26221.95
 23
-22468.4
 33
0.0
  0
SOLID
  5
2366
330
A
100
AcDbEntity
  8
SOLDERMASK_PADS_BTM
100
AcDbTrace
 10
-26222.55
 20
-22469.4
 30
0.0
 11
-26222.35
 21
-22469.4
 31
0.0
 12
-26222.55
 22
-22468.4
 32
0.0
 13
-26222.35
 23
-22468.4
 33
0.0
  0
SOLID
  5
2367
330
A
100
AcDbEntity
  8
SOLDERMASK_PADS_BTM
100
AcDbTrace
 10
-26232.95
 20
-22485.44
 30
0.0
 11
-26232.75
 21
-22485.44
 31
0.0
 12
-26232.95
 22
-22485.29
 32
0.0
 13
-26232.75
 23
-22485.29
 33
0.0
  0
SOLID
  5
2368
330
A
100
AcDbEntity
  8
SOLDERMASK_PADS_BTM
100
AcDbTrace
 10
-26232.95
 20
-22485.11
 30
0.0
 11
-26232.75
 21
-22485.11
 31
0.0
 12
-26232.95
 22
-22484.96
 32
0.0
 13
-26232.75
 23
-22484.96
 33
0.0
  0
SOLID
  5
2369
330
A
100
AcDbEntity
  8
SOLDERMASK_PADS_BTM
100
AcDbTrace
 10
-26233.400001
 20
-22484.69
 30
0.0
 11
-26233.200001
 21
-22484.69
 31
0.0
 12
-26233.400001
 22
-22484.54
 32
0.0
 13
-26233.200001
 23
-22484.54
 33
0.0
  0
SOLID
  5
236A
330
A
100
AcDbEntity
  8
SOLDERMASK_PADS_BTM
100
AcDbTrace
 10
-26233.400001
 20
-22484.36
 30
0.0
 11
-26233.200001
 21
-22484.36
 31
0.0
 12
-26233.400001
 22
-22484.21
 32
0.0
 13
-26233.200001
 23
-22484.21
 33
0.0
  0
SOLID
  5
236B
330
A
100
AcDbEntity
  8
SOLDERMASK_PADS_BTM
100
AcDbTrace
 10
-26232.95
 20
-22484.69
 30
0.0
 11
-26232.75
 21
-22484.69
 31
0.0
 12
-26232.95
 22
-22484.54
 32
0.0
 13
-26232.75
 23
-22484.54
 33
0.0
  0
SOLID
  5
236C
330
A
100
AcDbEntity
  8
SOLDERMASK_PADS_BTM
100
AcDbTrace
 10
-26232.95
 20
-22484.36
 30
0.0
 11
-26232.75
 21
-22484.36
 31
0.0
 12
-26232.95
 22
-22484.21
 32
0.0
 13
-26232.75
 23
-22484.21
 33
0.0
  0
SOLID
  5
236D
330
A
100
AcDbEntity
  8
SOLDERMASK_PADS_BTM
100
AcDbTrace
 10
-26233.4
 20
-22483.84
 30
0.0
 11
-26233.2
 21
-22483.84
 31
0.0
 12
-26233.4
 22
-22483.69
 32
0.0
 13
-26233.2
 23
-22483.69
 33
0.0
  0
SOLID
  5
236E
330
A
100
AcDbEntity
  8
SOLDERMASK_PADS_BTM
100
AcDbTrace
 10
-26233.4
 20
-22483.51
 30
0.0
 11
-26233.2
 21
-22483.51
 31
0.0
 12
-26233.4
 22
-22483.36
 32
0.0
 13
-26233.2
 23
-22483.36
 33
0.0
  0
SOLID
  5
236F
330
A
100
AcDbEntity
  8
SOLDERMASK_PADS_BTM
100
AcDbTrace
 10
-26226.2
 20
-22469.4
 30
0.0
 11
-26226.0
 21
-22469.4
 31
0.0
 12
-26226.2
 22
-22468.4
 32
0.0
 13
-26226.0
 23
-22468.4
 33
0.0
  0
SOLID
  5
2370
330
A
100
AcDbEntity
  8
SOLDERMASK_PADS_BTM
100
AcDbTrace
 10
-26226.6
 20
-22469.4
 30
0.0
 11
-26226.4
 21
-22469.4
 31
0.0
 12
-26226.6
 22
-22468.4
 32
0.0
 13
-26226.4
 23
-22468.4
 33
0.0
  0
SOLID
  5
2371
330
A
100
AcDbEntity
  8
SOLDERMASK_PADS_BTM
100
AcDbTrace
 10
-26232.95
 20
-22483.84
 30
0.0
 11
-26232.75
 21
-22483.84
 31
0.0
 12
-26232.95
 22
-22483.69
 32
0.0
 13
-26232.75
 23
-22483.69
 33
0.0
  0
SOLID
  5
2372
330
A
100
AcDbEntity
  8
SOLDERMASK_PADS_BTM
100
AcDbTrace
 10
-26232.95
 20
-22483.51
 30
0.0
 11
-26232.75
 21
-22483.51
 31
0.0
 12
-26232.95
 22
-22483.36
 32
0.0
 13
-26232.75
 23
-22483.36
 33
0.0
  0
SOLID
  5
2373
330
A
100
AcDbEntity
  8
SOLDERMASK_PADS_BTM
100
AcDbTrace
 10
-26232.95
 20
-22482.04
 30
0.0
 11
-26232.75
 21
-22482.04
 31
0.0
 12
-26232.95
 22
-22481.89
 32
0.0
 13
-26232.75
 23
-22481.89
 33
0.0
  0
SOLID
  5
2374
330
A
100
AcDbEntity
  8
SOLDERMASK_PADS_BTM
100
AcDbTrace
 10
-26232.95
 20
-22481.71
 30
0.0
 11
-26232.75
 21
-22481.71
 31
0.0
 12
-26232.95
 22
-22481.56
 32
0.0
 13
-26232.75
 23
-22481.56
 33
0.0
  0
SOLID
  5
2375
330
A
100
AcDbEntity
  8
SOLDERMASK_PADS_BTM
100
AcDbTrace
 10
-26232.96
 20
-22483.05
 30
0.0
 11
-26232.81
 21
-22483.05
 31
0.0
 12
-26232.96
 22
-22482.85
 32
0.0
 13
-26232.81
 23
-22482.85
 33
0.0
  0
SOLID
  5
2376
330
A
100
AcDbEntity
  8
SOLDERMASK_PADS_BTM
100
AcDbTrace
 10
-26233.29
 20
-22483.05
 30
0.0
 11
-26233.14
 21
-22483.05
 31
0.0
 12
-26233.29
 22
-22482.85
 32
0.0
 13
-26233.14
 23
-22482.85
 33
0.0
  0
SOLID
  5
2377
330
A
100
AcDbEntity
  8
SOLDERMASK_PADS_BTM
100
AcDbTrace
 10
-26233.4
 20
-22481.24
 30
0.0
 11
-26233.2
 21
-22481.24
 31
0.0
 12
-26233.4
 22
-22481.09
 32
0.0
 13
-26233.2
 23
-22481.09
 33
0.0
  0
SOLID
  5
2378
330
A
100
AcDbEntity
  8
SOLDERMASK_PADS_BTM
100
AcDbTrace
 10
-26233.4
 20
-22480.91
 30
0.0
 11
-26233.2
 21
-22480.91
 31
0.0
 12
-26233.4
 22
-22480.76
 32
0.0
 13
-26233.2
 23
-22480.76
 33
0.0
  0
SOLID
  5
2379
330
A
100
AcDbEntity
  8
SOLDERMASK_PADS_BTM
100
AcDbTrace
 10
-26232.95
 20
-22481.24
 30
0.0
 11
-26232.75
 21
-22481.24
 31
0.0
 12
-26232.95
 22
-22481.09
 32
0.0
 13
-26232.75
 23
-22481.09
 33
0.0
  0
SOLID
  5
237A
330
A
100
AcDbEntity
  8
SOLDERMASK_PADS_BTM
100
AcDbTrace
 10
-26232.95
 20
-22480.91
 30
0.0
 11
-26232.75
 21
-22480.91
 31
0.0
 12
-26232.95
 22
-22480.76
 32
0.0
 13
-26232.75
 23
-22480.76
 33
0.0
  0
SOLID
  5
237B
330
A
100
AcDbEntity
  8
SOLDERMASK_PADS_BTM
100
AcDbTrace
 10
-26233.4
 20
-22480.49
 30
0.0
 11
-26233.2
 21
-22480.49
 31
0.0
 12
-26233.4
 22
-22480.34
 32
0.0
 13
-26233.2
 23
-22480.34
 33
0.0
  0
SOLID
  5
237C
330
A
100
AcDbEntity
  8
SOLDERMASK_PADS_BTM
100
AcDbTrace
 10
-26233.4
 20
-22480.16
 30
0.0
 11
-26233.2
 21
-22480.16
 31
0.0
 12
-26233.4
 22
-22480.01
 32
0.0
 13
-26233.2
 23
-22480.01
 33
0.0
  0
SOLID
  5
237D
330
A
100
AcDbEntity
  8
SOLDERMASK_PADS_BTM
100
AcDbTrace
 10
-26232.95
 20
-22480.49
 30
0.0
 11
-26232.75
 21
-22480.49
 31
0.0
 12
-26232.95
 22
-22480.34
 32
0.0
 13
-26232.75
 23
-22480.34
 33
0.0
  0
SOLID
  5
237E
330
A
100
AcDbEntity
  8
SOLDERMASK_PADS_BTM
100
AcDbTrace
 10
-26232.95
 20
-22480.16
 30
0.0
 11
-26232.75
 21
-22480.16
 31
0.0
 12
-26232.95
 22
-22480.01
 32
0.0
 13
-26232.75
 23
-22480.01
 33
0.0
  0
SOLID
  5
237F
330
A
100
AcDbEntity
  8
SOLDERMASK_PADS_BTM
100
AcDbTrace
 10
-26232.96
 20
-22479.7
 30
0.0
 11
-26232.81
 21
-22479.7
 31
0.0
 12
-26232.96
 22
-22479.5
 32
0.0
 13
-26232.81
 23
-22479.5
 33
0.0
  0
SOLID
  5
2380
330
A
100
AcDbEntity
  8
SOLDERMASK_PADS_BTM
100
AcDbTrace
 10
-26233.29
 20
-22479.7
 30
0.0
 11
-26233.14
 21
-22479.7
 31
0.0
 12
-26233.29
 22
-22479.5
 32
0.0
 13
-26233.14
 23
-22479.5
 33
0.0
  0
SOLID
  5
2381
330
A
100
AcDbEntity
  8
SOLDERMASK_PADS_BTM
100
AcDbTrace
 10
-26232.96
 20
-22479.15
 30
0.0
 11
-26232.81
 21
-22479.15
 31
0.0
 12
-26232.96
 22
-22478.95
 32
0.0
 13
-26232.81
 23
-22478.95
 33
0.0
  0
SOLID
  5
2382
330
A
100
AcDbEntity
  8
SOLDERMASK_PADS_BTM
100
AcDbTrace
 10
-26233.29
 20
-22479.15
 30
0.0
 11
-26233.14
 21
-22479.15
 31
0.0
 12
-26233.29
 22
-22478.95
 32
0.0
 13
-26233.14
 23
-22478.95
 33
0.0
  0
SOLID
  5
2383
330
A
100
AcDbEntity
  8
SOLDERMASK_PADS_BTM
100
AcDbTrace
 10
-26233.4
 20
-22473.64
 30
0.0
 11
-26233.2
 21
-22473.64
 31
0.0
 12
-26233.4
 22
-22473.49
 32
0.0
 13
-26233.2
 23
-22473.49
 33
0.0
  0
SOLID
  5
2384
330
A
100
AcDbEntity
  8
SOLDERMASK_PADS_BTM
100
AcDbTrace
 10
-26233.4
 20
-22473.31
 30
0.0
 11
-26233.2
 21
-22473.31
 31
0.0
 12
-26233.4
 22
-22473.16
 32
0.0
 13
-26233.2
 23
-22473.16
 33
0.0
  0
SOLID
  5
2385
330
A
100
AcDbEntity
  8
SOLDERMASK_PADS_BTM
100
AcDbTrace
 10
-26232.95
 20
-22472.94
 30
0.0
 11
-26232.75
 21
-22472.94
 31
0.0
 12
-26232.95
 22
-22472.79
 32
0.0
 13
-26232.75
 23
-22472.79
 33
0.0
  0
SOLID
  5
2386
330
A
100
AcDbEntity
  8
SOLDERMASK_PADS_BTM
100
AcDbTrace
 10
-26232.95
 20
-22472.61
 30
0.0
 11
-26232.75
 21
-22472.61
 31
0.0
 12
-26232.95
 22
-22472.46
 32
0.0
 13
-26232.75
 23
-22472.46
 33
0.0
  0
SOLID
  5
2387
330
A
100
AcDbEntity
  8
SOLDERMASK_PADS_BTM
100
AcDbTrace
 10
-26232.95
 20
-22473.64
 30
0.0
 11
-26232.75
 21
-22473.64
 31
0.0
 12
-26232.95
 22
-22473.49
 32
0.0
 13
-26232.75
 23
-22473.49
 33
0.0
  0
SOLID
  5
2388
330
A
100
AcDbEntity
  8
SOLDERMASK_PADS_BTM
100
AcDbTrace
 10
-26232.95
 20
-22473.31
 30
0.0
 11
-26232.75
 21
-22473.31
 31
0.0
 12
-26232.95
 22
-22473.16
 32
0.0
 13
-26232.75
 23
-22473.16
 33
0.0
  0
SOLID
  5
2389
330
A
100
AcDbEntity
  8
SOLDERMASK_PADS_BTM
100
AcDbTrace
 10
-26232.96
 20
-22482.55
 30
0.0
 11
-26232.81
 21
-22482.55
 31
0.0
 12
-26232.96
 22
-22482.35
 32
0.0
 13
-26232.81
 23
-22482.35
 33
0.0
  0
SOLID
  5
238A
330
A
100
AcDbEntity
  8
SOLDERMASK_PADS_BTM
100
AcDbTrace
 10
-26233.29
 20
-22482.55
 30
0.0
 11
-26233.14
 21
-22482.55
 31
0.0
 12
-26233.29
 22
-22482.35
 32
0.0
 13
-26233.14
 23
-22482.35
 33
0.0
  0
SOLID
  5
238B
330
A
100
AcDbEntity
  8
SOLDERMASK_PADS_BTM
100
AcDbTrace
 10
-26233.4
 20
-22472.19
 30
0.0
 11
-26233.2
 21
-22472.19
 31
0.0
 12
-26233.4
 22
-22472.04
 32
0.0
 13
-26233.2
 23
-22472.04
 33
0.0
  0
SOLID
  5
238C
330
A
100
AcDbEntity
  8
SOLDERMASK_PADS_BTM
100
AcDbTrace
 10
-26233.4
 20
-22471.86
 30
0.0
 11
-26233.2
 21
-22471.86
 31
0.0
 12
-26233.4
 22
-22471.71
 32
0.0
 13
-26233.2
 23
-22471.71
 33
0.0
  0
SOLID
  5
238D
330
A
100
AcDbEntity
  8
SOLDERMASK_PADS_BTM
100
AcDbTrace
 10
-26233.4
 20
-22472.94
 30
0.0
 11
-26233.2
 21
-22472.94
 31
0.0
 12
-26233.4
 22
-22472.79
 32
0.0
 13
-26233.2
 23
-22472.79
 33
0.0
  0
SOLID
  5
238E
330
A
100
AcDbEntity
  8
SOLDERMASK_PADS_BTM
100
AcDbTrace
 10
-26233.4
 20
-22472.61
 30
0.0
 11
-26233.2
 21
-22472.61
 31
0.0
 12
-26233.4
 22
-22472.46
 32
0.0
 13
-26233.2
 23
-22472.46
 33
0.0
  0
SOLID
  5
238F
330
A
100
AcDbEntity
  8
SOLDERMASK_PADS_BTM
100
AcDbTrace
 10
-26232.95
 20
-22472.19
 30
0.0
 11
-26232.75
 21
-22472.19
 31
0.0
 12
-26232.95
 22
-22472.04
 32
0.0
 13
-26232.75
 23
-22472.04
 33
0.0
  0
SOLID
  5
2390
330
A
100
AcDbEntity
  8
SOLDERMASK_PADS_BTM
100
AcDbTrace
 10
-26232.95
 20
-22471.86
 30
0.0
 11
-26232.75
 21
-22471.86
 31
0.0
 12
-26232.95
 22
-22471.71
 32
0.0
 13
-26232.75
 23
-22471.71
 33
0.0
  0
SOLID
  5
2391
330
A
100
AcDbEntity
  8
SOLDERMASK_PADS_BTM
100
AcDbTrace
 10
-26232.96
 20
-22471.45
 30
0.0
 11
-26232.81
 21
-22471.45
 31
0.0
 12
-26232.96
 22
-22471.25
 32
0.0
 13
-26232.81
 23
-22471.25
 33
0.0
  0
SOLID
  5
2392
330
A
100
AcDbEntity
  8
SOLDERMASK_PADS_BTM
100
AcDbTrace
 10
-26233.29
 20
-22471.45
 30
0.0
 11
-26233.14
 21
-22471.45
 31
0.0
 12
-26233.29
 22
-22471.25
 32
0.0
 13
-26233.14
 23
-22471.25
 33
0.0
  0
SOLID
  5
2393
330
A
100
AcDbEntity
  8
SOLDERMASK_PADS_BTM
100
AcDbTrace
 10
-26232.96
 20
-22470.95
 30
0.0
 11
-26232.81
 21
-22470.95
 31
0.0
 12
-26232.96
 22
-22470.75
 32
0.0
 13
-26232.81
 23
-22470.75
 33
0.0
  0
SOLID
  5
2394
330
A
100
AcDbEntity
  8
SOLDERMASK_PADS_BTM
100
AcDbTrace
 10
-26233.29
 20
-22470.95
 30
0.0
 11
-26233.14
 21
-22470.95
 31
0.0
 12
-26233.29
 22
-22470.75
 32
0.0
 13
-26233.14
 23
-22470.75
 33
0.0
  0
SOLID
  5
2395
330
A
100
AcDbEntity
  8
SOLDERMASK_PADS_BTM
100
AcDbTrace
 10
-26233.4
 20
-22470.44
 30
0.0
 11
-26233.2
 21
-22470.44
 31
0.0
 12
-26233.4
 22
-22470.29
 32
0.0
 13
-26233.2
 23
-22470.29
 33
0.0
  0
SOLID
  5
2396
330
A
100
AcDbEntity
  8
SOLDERMASK_PADS_BTM
100
AcDbTrace
 10
-26233.4
 20
-22470.11
 30
0.0
 11
-26233.2
 21
-22470.11
 31
0.0
 12
-26233.4
 22
-22469.96
 32
0.0
 13
-26233.2
 23
-22469.96
 33
0.0
  0
SOLID
  5
2397
330
A
100
AcDbEntity
  8
SOLDERMASK_PADS_BTM
100
AcDbTrace
 10
-26232.95
 20
-22470.44
 30
0.0
 11
-26232.75
 21
-22470.44
 31
0.0
 12
-26232.95
 22
-22470.29
 32
0.0
 13
-26232.75
 23
-22470.29
 33
0.0
  0
SOLID
  5
2398
330
A
100
AcDbEntity
  8
SOLDERMASK_PADS_BTM
100
AcDbTrace
 10
-26232.95
 20
-22470.11
 30
0.0
 11
-26232.75
 21
-22470.11
 31
0.0
 12
-26232.95
 22
-22469.96
 32
0.0
 13
-26232.75
 23
-22469.96
 33
0.0
  0
SOLID
  5
2399
330
A
100
AcDbEntity
  8
SOLDERMASK_PADS_BTM
100
AcDbTrace
 10
-26233.4
 20
-22469.64
 30
0.0
 11
-26233.2
 21
-22469.64
 31
0.0
 12
-26233.4
 22
-22469.49
 32
0.0
 13
-26233.2
 23
-22469.49
 33
0.0
  0
SOLID
  5
239A
330
A
100
AcDbEntity
  8
SOLDERMASK_PADS_BTM
100
AcDbTrace
 10
-26233.4
 20
-22469.31
 30
0.0
 11
-26233.2
 21
-22469.31
 31
0.0
 12
-26233.4
 22
-22469.16
 32
0.0
 13
-26233.2
 23
-22469.16
 33
0.0
  0
SOLID
  5
239B
330
A
100
AcDbEntity
  8
SOLDERMASK_PADS_BTM
100
AcDbTrace
 10
-26232.95
 20
-22468.79
 30
0.0
 11
-26232.75
 21
-22468.79
 31
0.0
 12
-26232.95
 22
-22468.64
 32
0.0
 13
-26232.75
 23
-22468.64
 33
0.0
  0
SOLID
  5
239C
330
A
100
AcDbEntity
  8
SOLDERMASK_PADS_BTM
100
AcDbTrace
 10
-26232.95
 20
-22468.46
 30
0.0
 11
-26232.75
 21
-22468.46
 31
0.0
 12
-26232.95
 22
-22468.31
 32
0.0
 13
-26232.75
 23
-22468.31
 33
0.0
  0
SOLID
  5
239D
330
A
100
AcDbEntity
  8
SOLDERMASK_PADS_BTM
100
AcDbTrace
 10
-26232.95
 20
-22469.64
 30
0.0
 11
-26232.75
 21
-22469.64
 31
0.0
 12
-26232.95
 22
-22469.49
 32
0.0
 13
-26232.75
 23
-22469.49
 33
0.0
  0
SOLID
  5
239E
330
A
100
AcDbEntity
  8
SOLDERMASK_PADS_BTM
100
AcDbTrace
 10
-26232.95
 20
-22469.31
 30
0.0
 11
-26232.75
 21
-22469.31
 31
0.0
 12
-26232.95
 22
-22469.16
 32
0.0
 13
-26232.75
 23
-22469.16
 33
0.0
  0
SOLID
  5
239F
330
A
100
AcDbEntity
  8
SOLDERMASK_PADS_BTM
100
AcDbTrace
 10
-26233.4
 20
-22482.04
 30
0.0
 11
-26233.2
 21
-22482.04
 31
0.0
 12
-26233.4
 22
-22481.89
 32
0.0
 13
-26233.2
 23
-22481.89
 33
0.0
  0
SOLID
  5
23A0
330
A
100
AcDbEntity
  8
SOLDERMASK_PADS_BTM
100
AcDbTrace
 10
-26233.4
 20
-22481.71
 30
0.0
 11
-26233.2
 21
-22481.71
 31
0.0
 12
-26233.4
 22
-22481.56
 32
0.0
 13
-26233.2
 23
-22481.56
 33
0.0
  0
SOLID
  5
23A1
330
A
100
AcDbEntity
  8
SOLDERMASK_PADS_BTM
100
AcDbTrace
 10
-26220.45
 20
-22468.79
 30
0.0
 11
-26220.25
 21
-22468.79
 31
0.0
 12
-26220.45
 22
-22468.64
 32
0.0
 13
-26220.25
 23
-22468.64
 33
0.0
  0
SOLID
  5
23A2
330
A
100
AcDbEntity
  8
SOLDERMASK_PADS_BTM
100
AcDbTrace
 10
-26220.45
 20
-22468.46
 30
0.0
 11
-26220.25
 21
-22468.46
 31
0.0
 12
-26220.45
 22
-22468.31
 32
0.0
 13
-26220.25
 23
-22468.31
 33
0.0
  0
SOLID
  5
23A3
330
A
100
AcDbEntity
  8
SOLDERMASK_PADS_BTM
100
AcDbTrace
 10
-26233.4
 20
-22468.79
 30
0.0
 11
-26233.2
 21
-22468.79
 31
0.0
 12
-26233.4
 22
-22468.64
 32
0.0
 13
-26233.2
 23
-22468.64
 33
0.0
  0
SOLID
  5
23A4
330
A
100
AcDbEntity
  8
SOLDERMASK_PADS_BTM
100
AcDbTrace
 10
-26233.4
 20
-22468.46
 30
0.0
 11
-26233.2
 21
-22468.46
 31
0.0
 12
-26233.4
 22
-22468.31
 32
0.0
 13
-26233.2
 23
-22468.31
 33
0.0
  0
SOLID
  5
23A5
330
A
100
AcDbEntity
  8
SOLDERMASK_PADS_BTM
100
AcDbTrace
 10
-26215.05
 20
-22485.44
 30
0.0
 11
-26214.85
 21
-22485.44
 31
0.0
 12
-26215.05
 22
-22485.29
 32
0.0
 13
-26214.85
 23
-22485.29
 33
0.0
  0
SOLID
  5
23A6
330
A
100
AcDbEntity
  8
SOLDERMASK_PADS_BTM
100
AcDbTrace
 10
-26215.05
 20
-22485.11
 30
0.0
 11
-26214.85
 21
-22485.11
 31
0.0
 12
-26215.05
 22
-22484.96
 32
0.0
 13
-26214.85
 23
-22484.96
 33
0.0
  0
SOLID
  5
23A7
330
A
100
AcDbEntity
  8
SOLDERMASK_PADS_BTM
100
AcDbTrace
 10
-26224.25
 20
-22469.7
 30
0.0
 11
-26223.25
 21
-22469.7
 31
0.0
 12
-26224.25
 22
-22469.5
 32
0.0
 13
-26223.25
 23
-22469.5
 33
0.0
  0
SOLID
  5
23A8
330
A
100
AcDbEntity
  8
SOLDERMASK_PADS_BTM
100
AcDbTrace
 10
-26224.25
 20
-22469.3
 30
0.0
 11
-26223.25
 21
-22469.3
 31
0.0
 12
-26224.25
 22
-22469.1
 32
0.0
 13
-26223.25
 23
-22469.1
 33
0.0
  0
SOLID
  5
23A9
330
A
100
AcDbEntity
  8
SOLDERMASK_PADS_BTM
100
AcDbTrace
 10
-26214.65
 20
-22485.44
 30
0.0
 11
-26214.45
 21
-22485.44
 31
0.0
 12
-26214.65
 22
-22485.29
 32
0.0
 13
-26214.45
 23
-22485.29
 33
0.0
  0
SOLID
  5
23AA
330
A
100
AcDbEntity
  8
SOLDERMASK_PADS_BTM
100
AcDbTrace
 10
-26214.65
 20
-22485.11
 30
0.0
 11
-26214.45
 21
-22485.11
 31
0.0
 12
-26214.65
 22
-22484.96
 32
0.0
 13
-26214.45
 23
-22484.96
 33
0.0
  0
SOLID
  5
23AB
330
A
100
AcDbEntity
  8
SOLDERMASK_PADS_BTM
100
AcDbTrace
 10
-26215.05
 20
-22484.69
 30
0.0
 11
-26214.85
 21
-22484.69
 31
0.0
 12
-26215.05
 22
-22484.54
 32
0.0
 13
-26214.85
 23
-22484.54
 33
0.0
  0
SOLID
  5
23AC
330
A
100
AcDbEntity
  8
SOLDERMASK_PADS_BTM
100
AcDbTrace
 10
-26215.05
 20
-22484.36
 30
0.0
 11
-26214.85
 21
-22484.36
 31
0.0
 12
-26215.05
 22
-22484.21
 32
0.0
 13
-26214.85
 23
-22484.21
 33
0.0
  0
SOLID
  5
23AD
330
A
100
AcDbEntity
  8
SOLDERMASK_PADS_BTM
100
AcDbTrace
 10
-26225.2
 20
-22469.4
 30
0.0
 11
-26225.0
 21
-22469.4
 31
0.0
 12
-26225.2
 22
-22468.4
 32
0.0
 13
-26225.0
 23
-22468.4
 33
0.0
  0
SOLID
  5
23AE
330
A
100
AcDbEntity
  8
SOLDERMASK_PADS_BTM
100
AcDbTrace
 10
-26225.6
 20
-22469.4
 30
0.0
 11
-26225.4
 21
-22469.4
 31
0.0
 12
-26225.6
 22
-22468.4
 32
0.0
 13
-26225.4
 23
-22468.4
 33
0.0
  0
SOLID
  5
23AF
330
A
100
AcDbEntity
  8
SOLDERMASK_PADS_BTM
100
AcDbTrace
 10
-26214.65
 20
-22484.69
 30
0.0
 11
-26214.45
 21
-22484.69
 31
0.0
 12
-26214.65
 22
-22484.54
 32
0.0
 13
-26214.45
 23
-22484.54
 33
0.0
  0
SOLID
  5
23B0
330
A
100
AcDbEntity
  8
SOLDERMASK_PADS_BTM
100
AcDbTrace
 10
-26214.65
 20
-22484.36
 30
0.0
 11
-26214.45
 21
-22484.36
 31
0.0
 12
-26214.65
 22
-22484.21
 32
0.0
 13
-26214.45
 23
-22484.21
 33
0.0
  0
SOLID
  5
23B1
330
A
100
AcDbEntity
  8
SOLDERMASK_PADS_BTM
100
AcDbTrace
 10
-26215.05
 20
-22483.84
 30
0.0
 11
-26214.85
 21
-22483.84
 31
0.0
 12
-26215.05
 22
-22483.69
 32
0.0
 13
-26214.85
 23
-22483.69
 33
0.0
  0
SOLID
  5
23B2
330
A
100
AcDbEntity
  8
SOLDERMASK_PADS_BTM
100
AcDbTrace
 10
-26215.05
 20
-22483.51
 30
0.0
 11
-26214.85
 21
-22483.51
 31
0.0
 12
-26215.05
 22
-22483.36
 32
0.0
 13
-26214.85
 23
-22483.36
 33
0.0
  0
SOLID
  5
23B3
330
A
100
AcDbEntity
  8
SOLDERMASK_PADS_BTM
100
AcDbTrace
 10
-26214.65
 20
-22483.84
 30
0.0
 11
-26214.45
 21
-22483.84
 31
0.0
 12
-26214.65
 22
-22483.69
 32
0.0
 13
-26214.45
 23
-22483.69
 33
0.0
  0
SOLID
  5
23B4
330
A
100
AcDbEntity
  8
SOLDERMASK_PADS_BTM
100
AcDbTrace
 10
-26214.65
 20
-22483.51
 30
0.0
 11
-26214.45
 21
-22483.51
 31
0.0
 12
-26214.65
 22
-22483.36
 32
0.0
 13
-26214.45
 23
-22483.36
 33
0.0
  0
SOLID
  5
23B5
330
A
100
AcDbEntity
  8
SOLDERMASK_PADS_BTM
100
AcDbTrace
 10
-26214.67
 20
-22483.05
 30
0.0
 11
-26214.52
 21
-22483.05
 31
0.0
 12
-26214.67
 22
-22482.85
 32
0.0
 13
-26214.52
 23
-22482.85
 33
0.0
  0
SOLID
  5
23B6
330
A
100
AcDbEntity
  8
SOLDERMASK_PADS_BTM
100
AcDbTrace
 10
-26215.0
 20
-22483.05
 30
0.0
 11
-26214.85
 21
-22483.05
 31
0.0
 12
-26215.0
 22
-22482.85
 32
0.0
 13
-26214.85
 23
-22482.85
 33
0.0
  0
SOLID
  5
23B7
330
A
100
AcDbEntity
  8
SOLDERMASK_PADS_BTM
100
AcDbTrace
 10
-26214.65
 20
-22482.04
 30
0.0
 11
-26214.45
 21
-22482.04
 31
0.0
 12
-26214.65
 22
-22481.89
 32
0.0
 13
-26214.45
 23
-22481.89
 33
0.0
  0
SOLID
  5
23B8
330
A
100
AcDbEntity
  8
SOLDERMASK_PADS_BTM
100
AcDbTrace
 10
-26214.65
 20
-22481.71
 30
0.0
 11
-26214.45
 21
-22481.71
 31
0.0
 12
-26214.65
 22
-22481.56
 32
0.0
 13
-26214.45
 23
-22481.56
 33
0.0
  0
SOLID
  5
23B9
330
A
100
AcDbEntity
  8
SOLDERMASK_PADS_BTM
100
AcDbTrace
 10
-26214.67
 20
-22482.55
 30
0.0
 11
-26214.52
 21
-22482.55
 31
0.0
 12
-26214.67
 22
-22482.35
 32
0.0
 13
-26214.52
 23
-22482.35
 33
0.0
  0
SOLID
  5
23BA
330
A
100
AcDbEntity
  8
SOLDERMASK_PADS_BTM
100
AcDbTrace
 10
-26215.0
 20
-22482.55
 30
0.0
 11
-26214.85
 21
-22482.55
 31
0.0
 12
-26215.0
 22
-22482.35
 32
0.0
 13
-26214.85
 23
-22482.35
 33
0.0
  0
SOLID
  5
23BB
330
A
100
AcDbEntity
  8
SOLDERMASK_PADS_BTM
100
AcDbTrace
 10
-26215.05
 20
-22481.24
 30
0.0
 11
-26214.85
 21
-22481.24
 31
0.0
 12
-26215.05
 22
-22481.09
 32
0.0
 13
-26214.85
 23
-22481.09
 33
0.0
  0
SOLID
  5
23BC
330
A
100
AcDbEntity
  8
SOLDERMASK_PADS_BTM
100
AcDbTrace
 10
-26215.05
 20
-22480.91
 30
0.0
 11
-26214.85
 21
-22480.91
 31
0.0
 12
-26215.05
 22
-22480.76
 32
0.0
 13
-26214.85
 23
-22480.76
 33
0.0
  0
SOLID
  5
23BD
330
A
100
AcDbEntity
  8
SOLDERMASK_PADS_BTM
100
AcDbTrace
 10
-26215.05
 20
-22482.04
 30
0.0
 11
-26214.85
 21
-22482.04
 31
0.0
 12
-26215.05
 22
-22481.89
 32
0.0
 13
-26214.85
 23
-22481.89
 33
0.0
  0
SOLID
  5
23BE
330
A
100
AcDbEntity
  8
SOLDERMASK_PADS_BTM
100
AcDbTrace
 10
-26215.05
 20
-22481.71
 30
0.0
 11
-26214.85
 21
-22481.71
 31
0.0
 12
-26215.05
 22
-22481.56
 32
0.0
 13
-26214.85
 23
-22481.56
 33
0.0
  0
SOLID
  5
23BF
330
A
100
AcDbEntity
  8
SOLDERMASK_PADS_BTM
100
AcDbTrace
 10
-26214.65
 20
-22481.24
 30
0.0
 11
-26214.45
 21
-22481.24
 31
0.0
 12
-26214.65
 22
-22481.09
 32
0.0
 13
-26214.45
 23
-22481.09
 33
0.0
  0
SOLID
  5
23C0
330
A
100
AcDbEntity
  8
SOLDERMASK_PADS_BTM
100
AcDbTrace
 10
-26214.65
 20
-22480.91
 30
0.0
 11
-26214.45
 21
-22480.91
 31
0.0
 12
-26214.65
 22
-22480.76
 32
0.0
 13
-26214.45
 23
-22480.76
 33
0.0
  0
SOLID
  5
23C1
330
A
100
AcDbEntity
  8
SOLDERMASK_PADS_BTM
100
AcDbTrace
 10
-26215.05
 20
-22480.49
 30
0.0
 11
-26214.85
 21
-22480.49
 31
0.0
 12
-26215.05
 22
-22480.34
 32
0.0
 13
-26214.85
 23
-22480.34
 33
0.0
  0
SOLID
  5
23C2
330
A
100
AcDbEntity
  8
SOLDERMASK_PADS_BTM
100
AcDbTrace
 10
-26215.05
 20
-22480.16
 30
0.0
 11
-26214.85
 21
-22480.16
 31
0.0
 12
-26215.05
 22
-22480.01
 32
0.0
 13
-26214.85
 23
-22480.01
 33
0.0
  0
SOLID
  5
23C3
330
A
100
AcDbEntity
  8
SOLDERMASK_PADS_BTM
100
AcDbTrace
 10
-26214.65
 20
-22480.49
 30
0.0
 11
-26214.45
 21
-22480.49
 31
0.0
 12
-26214.65
 22
-22480.34
 32
0.0
 13
-26214.45
 23
-22480.34
 33
0.0
  0
SOLID
  5
23C4
330
A
100
AcDbEntity
  8
SOLDERMASK_PADS_BTM
100
AcDbTrace
 10
-26214.65
 20
-22480.16
 30
0.0
 11
-26214.45
 21
-22480.16
 31
0.0
 12
-26214.65
 22
-22480.01
 32
0.0
 13
-26214.45
 23
-22480.01
 33
0.0
  0
SOLID
  5
23C5
330
A
100
AcDbEntity
  8
SOLDERMASK_PADS_BTM
100
AcDbTrace
 10
-26214.67
 20
-22479.7
 30
0.0
 11
-26214.52
 21
-22479.7
 31
0.0
 12
-26214.67
 22
-22479.5
 32
0.0
 13
-26214.52
 23
-22479.5
 33
0.0
  0
SOLID
  5
23C6
330
A
100
AcDbEntity
  8
SOLDERMASK_PADS_BTM
100
AcDbTrace
 10
-26215.0
 20
-22479.7
 30
0.0
 11
-26214.85
 21
-22479.7
 31
0.0
 12
-26215.0
 22
-22479.5
 32
0.0
 13
-26214.85
 23
-22479.5
 33
0.0
  0
SOLID
  5
23C7
330
A
100
AcDbEntity
  8
SOLDERMASK_PADS_BTM
100
AcDbTrace
 10
-26214.67
 20
-22479.15
 30
0.0
 11
-26214.52
 21
-22479.15
 31
0.0
 12
-26214.67
 22
-22478.95
 32
0.0
 13
-26214.52
 23
-22478.95
 33
0.0
  0
SOLID
  5
23C8
330
A
100
AcDbEntity
  8
SOLDERMASK_PADS_BTM
100
AcDbTrace
 10
-26215.0
 20
-22479.15
 30
0.0
 11
-26214.85
 21
-22479.15
 31
0.0
 12
-26215.0
 22
-22478.95
 32
0.0
 13
-26214.85
 23
-22478.95
 33
0.0
  0
SOLID
  5
23C9
330
A
100
AcDbEntity
  8
SOLDERMASK_PADS_BTM
100
AcDbTrace
 10
-26215.05
 20
-22473.64
 30
0.0
 11
-26214.85
 21
-22473.64
 31
0.0
 12
-26215.05
 22
-22473.49
 32
0.0
 13
-26214.85
 23
-22473.49
 33
0.0
  0
SOLID
  5
23CA
330
A
100
AcDbEntity
  8
SOLDERMASK_PADS_BTM
100
AcDbTrace
 10
-26215.05
 20
-22473.31
 30
0.0
 11
-26214.85
 21
-22473.31
 31
0.0
 12
-26215.05
 22
-22473.16
 32
0.0
 13
-26214.85
 23
-22473.16
 33
0.0
  0
SOLID
  5
23CB
330
A
100
AcDbEntity
  8
SOLDERMASK_PADS_BTM
100
AcDbTrace
 10
-26214.65
 20
-22473.64
 30
0.0
 11
-26214.45
 21
-22473.64
 31
0.0
 12
-26214.65
 22
-22473.49
 32
0.0
 13
-26214.45
 23
-22473.49
 33
0.0
  0
SOLID
  5
23CC
330
A
100
AcDbEntity
  8
SOLDERMASK_PADS_BTM
100
AcDbTrace
 10
-26214.65
 20
-22473.31
 30
0.0
 11
-26214.45
 21
-22473.31
 31
0.0
 12
-26214.65
 22
-22473.16
 32
0.0
 13
-26214.45
 23
-22473.16
 33
0.0
  0
SOLID
  5
23CD
330
A
100
AcDbEntity
  8
SOLDERMASK_PADS_BTM
100
AcDbTrace
 10
-26214.65
 20
-22472.94
 30
0.0
 11
-26214.45
 21
-22472.94
 31
0.0
 12
-26214.65
 22
-22472.79
 32
0.0
 13
-26214.45
 23
-22472.79
 33
0.0
  0
SOLID
  5
23CE
330
A
100
AcDbEntity
  8
SOLDERMASK_PADS_BTM
100
AcDbTrace
 10
-26214.65
 20
-22472.61
 30
0.0
 11
-26214.45
 21
-22472.61
 31
0.0
 12
-26214.65
 22
-22472.46
 32
0.0
 13
-26214.45
 23
-22472.46
 33
0.0
  0
SOLID
  5
23CF
330
A
100
AcDbEntity
  8
SOLDERMASK_PADS_BTM
100
AcDbTrace
 10
-26215.05
 20
-22472.94
 30
0.0
 11
-26214.85
 21
-22472.94
 31
0.0
 12
-26215.05
 22
-22472.79
 32
0.0
 13
-26214.85
 23
-22472.79
 33
0.0
  0
SOLID
  5
23D0
330
A
100
AcDbEntity
  8
SOLDERMASK_PADS_BTM
100
AcDbTrace
 10
-26215.05
 20
-22472.61
 30
0.0
 11
-26214.85
 21
-22472.61
 31
0.0
 12
-26215.05
 22
-22472.46
 32
0.0
 13
-26214.85
 23
-22472.46
 33
0.0
  0
SOLID
  5
23D1
330
A
100
AcDbEntity
  8
SOLDERMASK_PADS_BTM
100
AcDbTrace
 10
-26215.05
 20
-22472.19
 30
0.0
 11
-26214.85
 21
-22472.19
 31
0.0
 12
-26215.05
 22
-22472.04
 32
0.0
 13
-26214.85
 23
-22472.04
 33
0.0
  0
SOLID
  5
23D2
330
A
100
AcDbEntity
  8
SOLDERMASK_PADS_BTM
100
AcDbTrace
 10
-26215.05
 20
-22471.86
 30
0.0
 11
-26214.85
 21
-22471.86
 31
0.0
 12
-26215.05
 22
-22471.71
 32
0.0
 13
-26214.85
 23
-22471.71
 33
0.0
  0
SOLID
  5
23D3
330
A
100
AcDbEntity
  8
SOLDERMASK_PADS_BTM
100
AcDbTrace
 10
-26214.65
 20
-22472.19
 30
0.0
 11
-26214.45
 21
-22472.19
 31
0.0
 12
-26214.65
 22
-22472.04
 32
0.0
 13
-26214.45
 23
-22472.04
 33
0.0
  0
SOLID
  5
23D4
330
A
100
AcDbEntity
  8
SOLDERMASK_PADS_BTM
100
AcDbTrace
 10
-26214.65
 20
-22471.86
 30
0.0
 11
-26214.45
 21
-22471.86
 31
0.0
 12
-26214.65
 22
-22471.71
 32
0.0
 13
-26214.45
 23
-22471.71
 33
0.0
  0
SOLID
  5
23D5
330
A
100
AcDbEntity
  8
SOLDERMASK_PADS_BTM
100
AcDbTrace
 10
-26214.67
 20
-22471.45
 30
0.0
 11
-26214.52
 21
-22471.45
 31
0.0
 12
-26214.67
 22
-22471.25
 32
0.0
 13
-26214.52
 23
-22471.25
 33
0.0
  0
SOLID
  5
23D6
330
A
100
AcDbEntity
  8
SOLDERMASK_PADS_BTM
100
AcDbTrace
 10
-26215.0
 20
-22471.45
 30
0.0
 11
-26214.85
 21
-22471.45
 31
0.0
 12
-26215.0
 22
-22471.25
 32
0.0
 13
-26214.85
 23
-22471.25
 33
0.0
  0
SOLID
  5
23D7
330
A
100
AcDbEntity
  8
SOLDERMASK_PADS_BTM
100
AcDbTrace
 10
-26214.67
 20
-22470.95
 30
0.0
 11
-26214.52
 21
-22470.95
 31
0.0
 12
-26214.67
 22
-22470.75
 32
0.0
 13
-26214.52
 23
-22470.75
 33
0.0
  0
SOLID
  5
23D8
330
A
100
AcDbEntity
  8
SOLDERMASK_PADS_BTM
100
AcDbTrace
 10
-26215.0
 20
-22470.95
 30
0.0
 11
-26214.85
 21
-22470.95
 31
0.0
 12
-26215.0
 22
-22470.75
 32
0.0
 13
-26214.85
 23
-22470.75
 33
0.0
  0
SOLID
  5
23D9
330
A
100
AcDbEntity
  8
SOLDERMASK_PADS_BTM
100
AcDbTrace
 10
-26215.05
 20
-22470.44
 30
0.0
 11
-26214.85
 21
-22470.44
 31
0.0
 12
-26215.05
 22
-22470.29
 32
0.0
 13
-26214.85
 23
-22470.29
 33
0.0
  0
SOLID
  5
23DA
330
A
100
AcDbEntity
  8
SOLDERMASK_PADS_BTM
100
AcDbTrace
 10
-26215.05
 20
-22470.11
 30
0.0
 11
-26214.85
 21
-22470.11
 31
0.0
 12
-26215.05
 22
-22469.96
 32
0.0
 13
-26214.85
 23
-22469.96
 33
0.0
  0
SOLID
  5
23DB
330
A
100
AcDbEntity
  8
SOLDERMASK_PADS_BTM
100
AcDbTrace
 10
-26214.65
 20
-22470.44
 30
0.0
 11
-26214.45
 21
-22470.44
 31
0.0
 12
-26214.65
 22
-22470.29
 32
0.0
 13
-26214.45
 23
-22470.29
 33
0.0
  0
SOLID
  5
23DC
330
A
100
AcDbEntity
  8
SOLDERMASK_PADS_BTM
100
AcDbTrace
 10
-26214.65
 20
-22470.11
 30
0.0
 11
-26214.45
 21
-22470.11
 31
0.0
 12
-26214.65
 22
-22469.96
 32
0.0
 13
-26214.45
 23
-22469.96
 33
0.0
  0
SOLID
  5
23DD
330
A
100
AcDbEntity
  8
SOLDERMASK_PADS_BTM
100
AcDbTrace
 10
-26215.05
 20
-22469.64
 30
0.0
 11
-26214.85
 21
-22469.64
 31
0.0
 12
-26215.05
 22
-22469.49
 32
0.0
 13
-26214.85
 23
-22469.49
 33
0.0
  0
SOLID
  5
23DE
330
A
100
AcDbEntity
  8
SOLDERMASK_PADS_BTM
100
AcDbTrace
 10
-26215.05
 20
-22469.31
 30
0.0
 11
-26214.85
 21
-22469.31
 31
0.0
 12
-26215.05
 22
-22469.16
 32
0.0
 13
-26214.85
 23
-22469.16
 33
0.0
  0
SOLID
  5
23DF
330
A
100
AcDbEntity
  8
SOLDERMASK_PADS_BTM
100
AcDbTrace
 10
-26214.65
 20
-22469.64
 30
0.0
 11
-26214.45
 21
-22469.64
 31
0.0
 12
-26214.65
 22
-22469.49
 32
0.0
 13
-26214.45
 23
-22469.49
 33
0.0
  0
SOLID
  5
23E0
330
A
100
AcDbEntity
  8
SOLDERMASK_PADS_BTM
100
AcDbTrace
 10
-26214.65
 20
-22469.31
 30
0.0
 11
-26214.45
 21
-22469.31
 31
0.0
 12
-26214.65
 22
-22469.16
 32
0.0
 13
-26214.45
 23
-22469.16
 33
0.0
  0
SOLID
  5
23E1
330
A
100
AcDbEntity
  8
SOLDERMASK_PADS_BTM
100
AcDbTrace
 10
-26214.65
 20
-22468.79
 30
0.0
 11
-26214.45
 21
-22468.79
 31
0.0
 12
-26214.65
 22
-22468.64
 32
0.0
 13
-26214.45
 23
-22468.64
 33
0.0
  0
SOLID
  5
23E2
330
A
100
AcDbEntity
  8
SOLDERMASK_PADS_BTM
100
AcDbTrace
 10
-26214.65
 20
-22468.46
 30
0.0
 11
-26214.45
 21
-22468.46
 31
0.0
 12
-26214.65
 22
-22468.31
 32
0.0
 13
-26214.45
 23
-22468.31
 33
0.0
  0
SOLID
  5
23E3
330
A
100
AcDbEntity
  8
SOLDERMASK_PADS_BTM
100
AcDbTrace
 10
-26232.11
 20
-22469.5
 30
0.0
 11
-26231.96
 21
-22469.5
 31
0.0
 12
-26232.11
 22
-22469.3
 32
0.0
 13
-26231.96
 23
-22469.3
 33
0.0
  0
SOLID
  5
23E4
330
A
100
AcDbEntity
  8
SOLDERMASK_PADS_BTM
100
AcDbTrace
 10
-26232.44
 20
-22469.5
 30
0.0
 11
-26232.29
 21
-22469.5
 31
0.0
 12
-26232.44
 22
-22469.3
 32
0.0
 13
-26232.29
 23
-22469.3
 33
0.0
  0
SOLID
  5
23E5
330
A
100
AcDbEntity
  8
SOLDERMASK_PADS_BTM
100
AcDbTrace
 10
-26215.05
 20
-22468.79
 30
0.0
 11
-26214.85
 21
-22468.79
 31
0.0
 12
-26215.05
 22
-22468.64
 32
0.0
 13
-26214.85
 23
-22468.64
 33
0.0
  0
SOLID
  5
23E6
330
A
100
AcDbEntity
  8
SOLDERMASK_PADS_BTM
100
AcDbTrace
 10
-26215.05
 20
-22468.46
 30
0.0
 11
-26214.85
 21
-22468.46
 31
0.0
 12
-26215.05
 22
-22468.31
 32
0.0
 13
-26214.85
 23
-22468.31
 33
0.0
  0
LWPOLYLINE
  5
90CF
330
A
100
AcDbEntity
  8
0
100
AcDbPolyline
 90
87
 70
0
 10
-26232.124548622134
 20
-22486.09
 10
-26232.574548622135
 20
-22486.09
 10
-26233.575451377867
 20
-22486.09
 10
-26234.025451377867
 20
-22486.09
 10
-26234.04885047602
 20
-22486.08885047602
 10
-26234.050000000003
 20
-22486.065451377865
 10
-26234.050000000003
 20
-22485.735451377866
 10
-26234.050000000003
 20
-22485.31547173334
 10
-26234.050001000003
 20
-22485.315451377865
 10
-26234.050001000003
 20
-22484.985451377866
 10
-26234.050001000003
 20
-22483.914548622135
 10
-26234.050001000003
 20
-22483.584548622133
 10
-26234.050000000003
 20
-22483.58452826666
 10
-26234.050000000003
 20
-22483.064548622133
 10
-26234.050000000003
 20
-22482.734548622135
 10
-26234.04885047602
 20
-22482.71114952398
 10
-26234.025451377867
 20
-22482.71
 10
-26233.940000000002
 20
-22482.71
 10
-26233.940000000002
 20
-22482.690000000002
 10
-26234.025451377867
 20
-22482.690000000002
 10
-26234.04885047602
 20
-22482.68885047602
 10
-26234.050000000003
 20
-22482.665451377867
 10
-26234.050000000003
 20
-22482.335451377865
 10
-26234.050000000003
 20
-22481.865451377867
 10
-26234.050000000003
 20
-22481.535451377866
 10
-26234.050000000003
 20
-22481.264548622134
 10
-26234.050000000003
 20
-22481.115451377867
 10
-26234.050000000003
 20
-22480.934548622135
 10
-26234.050000000003
 20
-22480.785451377866
 10
-26234.050000000003
 20
-22480.464548622134
 10
-26234.050000000003
 20
-22480.134548622133
 10
-26234.050000000003
 20
-22479.714548622134
 10
-26234.050000000003
 20
-22479.384548622133
 10
-26234.04885047602
 20
-22479.36114952398
 10
-26234.025451377867
 20
-22479.359999999997
 10
-26233.940000000002
 20
-22479.359999999997
 10
-26233.940000000002
 20
-22479.050000000003
 10
-26233.975451377864
 20
-22479.050000000003
 10
-26233.99885047602
 20
-22479.04885047602
 10
-26234.0
 20
-22479.025451377867
 10
-26234.0
 20
-22476.774548622136
 10
-26233.99885047602
 20
-22476.75114952398
 10
-26233.975451377864
 20
-22476.75
 10
-26233.575451377867
 20
-22476.75
 10
-26232.524548622136
 20
-22476.75
 10
-26232.124548622134
 20
-22476.75
 10
-26232.10114952398
 20
-22476.75114952398
 10
-26232.1
 20
-22476.774548622136
 10
-26232.1
 20
-22479.025451377867
 10
-26232.10114952398
 20
-22479.04885047602
 10
-26232.124548622134
 20
-22479.050000000003
 10
-26232.16
 20
-22479.050000000003
 10
-26232.16
 20
-22479.359999999997
 10
-26232.124548622134
 20
-22479.359999999997
 10
-26232.10114952398
 20
-22479.36114952398
 10
-26232.1
 20
-22479.384548622133
 10
-26232.1
 20
-22479.714548622134
 10
-26232.1
 20
-22480.134548622133
 10
-26232.1
 20
-22480.464548622134
 10
-26232.1
 20
-22480.785451377866
 10
-26232.1
 20
-22480.934548622135
 10
-26232.1
 20
-22481.115451377867
 10
-26232.1
 20
-22481.264548622134
 10
-26232.1
 20
-22481.535451377866
 10
-26232.1
 20
-22481.865451377867
 10
-26232.1
 20
-22482.335451377865
 10
-26232.1
 20
-22482.665451377867
 10
-26232.10114952398
 20
-22482.68885047602
 10
-26232.124548622134
 20
-22482.690000000002
 10
-26232.16
 20
-22482.690000000002
 10
-26232.16
 20
-22482.71
 10
-26232.124548622134
 20
-22482.71
 10
-26232.10114952398
 20
-22482.71114952398
 10
-26232.1
 20
-22482.734548622135
 10
-26232.1
 20
-22483.064548622133
 10
-26232.1
 20
-22483.584548622133
 10
-26232.1
 20
-22483.914548622135
 10
-26232.1
 20
-22484.135451377864
 10
-26232.1
 20
-22484.334548622133
 10
-26232.1
 20
-22484.465451377866
 10
-26232.1
 20
-22484.664548622135
 10
-26232.1
 20
-22484.985451377866
 10
-26232.1
 20
-22485.315451377865
 10
-26232.1
 20
-22485.735451377866
 10
-26232.1
 20
-22486.065451377865
 10
-26232.10114952398
 20
-22486.08885047602
 10
-26232.124548622134
 20
-22486.09
  0
LWPOLYLINE
  5
90D0
330
A
100
AcDbEntity
  8
0
100
AcDbPolyline
 90
251
 70
0
 10
-26234.050000000003
 20
-22473.235451377866
 10
-26234.050000000003
 20
-22472.864548622136
 10
-26234.050000000003
 20
-22472.815451377865
 10
-26234.050000000003
 20
-22472.534548622134
 10
-26234.050000000003
 20
-22472.485451377866
 10
-26234.050000000003
 20
-22472.164548622135
 10
-26234.050000000003
 20
-22471.834548622133
 10
-26234.050000000003
 20
-22471.414548622135
 10
-26234.050000000003
 20
-22471.084548622133
 10
-26234.049530906275
 20
-22471.075
 10
-26234.050000000003
 20
-22471.065451377865
 10
-26234.050000000003
 20
-22470.735451377866
 10
-26234.050000000003
 20
-22470.265451377865
 10
-26234.050000000003
 20
-22469.935451377867
 10
-26234.050000000003
 20
-22469.664548622135
 10
-26234.050000000003
 20
-22469.415451377867
 10
-26234.050000000003
 20
-22469.334548622133
 10
-26234.050000000003
 20
-22469.085451377865
 10
-26234.050000000003
 20
-22468.864548622136
 10
-26234.050000000003
 20
-22468.534548622134
 10
-26234.050000000003
 20
-22468.014548622134
 10
-26234.050000000003
 20
-22467.684548622135
 10
-26234.04885047602
 20
-22467.66114952398
 10
-26234.025451377867
 20
-22467.66
 10
-26233.575451377867
 20
-22467.66
 10
-26233.065451377865
 20
-22467.66
 10
-26232.735451377866
 20
-22467.66
 10
-26232.574548622135
 20
-22467.66
 10
-26232.265451377865
 20
-22467.66
 10
-26232.124548622134
 20
-22467.66
 10
-26231.935451377867
 20
-22467.66
 10
-26231.664548622135
 20
-22467.66
 10
-26231.334548622133
 20
-22467.66
 10
-26231.325451377867
 20
-22467.66
 10
-26230.864548622136
 20
-22467.66
 10
-26230.775451377867
 20
-22467.66
 10
-26230.534548622134
 20
-22467.66
 10
-26230.315451377865
 20
-22467.66
 10
-26229.985451377866
 20
-22467.66
 10
-26229.874548622134
 20
-22467.66
 10
-26229.465451377866
 20
-22467.66
 10
-26229.324548622135
 20
-22467.66
 10
-26229.135451377864
 20
-22467.66
 10
-26228.914548622135
 20
-22467.66
 10
-26228.584548622133
 20
-22467.66
 10
-26228.525451377867
 20
-22467.66
 10
-26228.064548622133
 20
-22467.66
 10
-26227.875451377866
 20
-22467.66
 10
-26227.734548622135
 20
-22467.66
 10
-26227.074548622135
 20
-22467.66
 10
-26226.424548622133
 20
-22467.66
 10
-26226.40114952398
 20
-22467.66114952398
 10
-26226.399999999998
 20
-22467.684548622135
 10
-26226.399999999998
 20
-22467.75
 10
-26226.225451377864
 20
-22467.75
 10
-26225.825451377867
 20
-22467.75
 10
-26225.774548622136
 20
-22467.75
 10
-26225.374548622134
 20
-22467.75
 10
-26224.9
 20
-22467.75
 10
-26224.9
 20
-22467.564548622133
 10
-26224.89885047602
 20
-22467.54114952398
 10
-26224.875451377866
 20
-22467.539999999997
 10
-26222.624548622134
 20
-22467.539999999997
 10
-26222.60114952398
 20
-22467.54114952398
 10
-26222.6
 20
-22467.564548622133
 10
-26222.6
 20
-22467.75
 10
-26222.125451377866
 20
-22467.75
 10
-26221.725451377864
 20
-22467.75
 10
-26221.724548622133
 20
-22467.75
 10
-26221.324548622135
 20
-22467.75
 10
-26221.100000000002
 20
-22467.75
 10
-26221.100000000002
 20
-22467.684548622135
 10
-26221.09885047602
 20
-22467.66114952398
 10
-26221.075451377867
 20
-22467.66
 10
-26220.575451377867
 20
-22467.66
 10
-26220.065451377865
 20
-22467.66
 10
-26219.735451377866
 20
-22467.66
 10
-26219.624548622134
 20
-22467.66
 10
-26219.265451377865
 20
-22467.66
 10
-26219.124548622134
 20
-22467.66
 10
-26218.935451377867
 20
-22467.66
 10
-26218.664548622135
 20
-22467.66
 10
-26218.425451377865
 20
-22467.66
 10
-26218.334548622133
 20
-22467.66
 10
-26217.975451377864
 20
-22467.66
 10
-26217.864548622136
 20
-22467.66
 10
-26217.534548622134
 20
-22467.66
 10
-26217.415451377867
 20
-22467.66
 10
-26217.085451377865
 20
-22467.66
 10
-26216.974548622133
 20
-22467.66
 10
-26216.565451377865
 20
-22467.66
 10
-26216.524548622136
 20
-22467.66
 10
-26216.235451377866
 20
-22467.66
 10
-26216.014548622134
 20
-22467.66
 10
-26215.684548622135
 20
-22467.66
 10
-26215.675451377865
 20
-22467.66
 10
-26215.275451377867
 20
-22467.66
 10
-26215.164548622135
 20
-22467.66
 10
-26214.834548622133
 20
-22467.66
 10
-26214.224548622133
 20
-22467.66
 10
-26213.824548622135
 20
-22467.66
 10
-26213.80114952398
 20
-22467.66114952398
 10
-26213.8
 20
-22467.684548622135
 10
-26213.8
 20
-22468.014548622134
 10
-26213.8
 20
-22468.534548622134
 10
-26213.8
 20
-22468.864548622136
 10
-26213.8
 20
-22469.085451377865
 10
-26213.8
 20
-22469.334548622133
 10
-26213.8
 20
-22469.415451377867
 10
-26213.8
 20
-22469.664548622135
 10
-26213.8
 20
-22469.935451377867
 10
-26213.8
 20
-22470.265451377865
 10
-26213.8
 20
-22470.735451377866
 10
-26213.8
 20
-22471.065451377865
 10
-26213.800469093727
 20
-22471.075
 10
-26213.8
 20
-22471.084548622133
 10
-26213.8
 20
-22471.414548622135
 10
-26213.8
 20
-22471.834548622133
 10
-26213.8
 20
-22472.164548622135
 10
-26213.8
 20
-22472.485451377866
 10
-26213.8
 20
-22472.534548622134
 10
-26213.8
 20
-22472.815451377865
 10
-26213.8
 20
-22472.864548622136
 10
-26213.8
 20
-22473.235451377866
 10
-26213.8
 20
-22473.524548622136
 10
-26213.8
 20
-22473.565451377865
 10
-26213.8
 20
-22473.935451377867
 10
-26213.8
 20
-22474.265451377865
 10
-26213.8
 20
-22475.775451377867
 10
-26213.80114952398
 20
-22475.79885047602
 10
-26213.824548622135
 20
-22475.800000000003
 10
-26214.224548622133
 20
-22475.800000000003
 10
-26215.275451377867
 20
-22475.800000000003
 10
-26215.675451377865
 20
-22475.800000000003
 10
-26215.69885047602
 20
-22475.79885047602
 10
-26215.7
 20
-22475.775451377867
 10
-26215.7
 20
-22474.265451377865
 10
-26215.7
 20
-22473.935451377867
 10
-26215.7
 20
-22473.565451377865
 10
-26215.7
 20
-22473.524548622136
 10
-26215.7
 20
-22473.235451377866
 10
-26215.7
 20
-22472.864548622136
 10
-26215.7
 20
-22472.815451377865
 10
-26215.7
 20
-22472.534548622134
 10
-26215.7
 20
-22472.485451377866
 10
-26215.7
 20
-22472.164548622135
 10
-26215.7
 20
-22471.834548622133
 10
-26215.7
 20
-22471.414548622135
 10
-26215.7
 20
-22471.084548622133
 10
-26215.699530906273
 20
-22471.075
 10
-26215.7
 20
-22471.065451377865
 10
-26215.7
 20
-22470.735451377866
 10
-26215.7
 20
-22470.265451377865
 10
-26215.7
 20
-22470.15
 10
-26216.014548622134
 20
-22470.15
 10
-26216.235451377866
 20
-22470.15
 10
-26216.524548622136
 20
-22470.15
 10
-26216.565451377865
 20
-22470.15
 10
-26216.974548622133
 20
-22470.15
 10
-26217.085451377865
 20
-22470.15
 10
-26217.415451377867
 20
-22470.15
 10
-26217.534548622134
 20
-22470.15
 10
-26217.864548622136
 20
-22470.15
 10
-26217.975451377864
 20
-22470.15
 10
-26218.334548622133
 20
-22470.15
 10
-26218.425451377865
 20
-22470.15
 10
-26218.664548622135
 20
-22470.15
 10
-26218.935451377867
 20
-22470.15
 10
-26219.124548622134
 20
-22470.15
 10
-26219.265451377865
 20
-22470.15
 10
-26219.624548622134
 20
-22470.15
 10
-26219.735451377866
 20
-22470.15
 10
-26220.065451377865
 20
-22470.15
 10
-26220.575451377867
 20
-22470.15
 10
-26221.075451377867
 20
-22470.15
 10
-26221.09885047602
 20
-22470.14885047602
 10
-26221.100000000002
 20
-22470.125451377866
 10
-26221.100000000002
 20
-22470.050000000003
 10
-26221.324548622135
 20
-22470.050000000003
 10
-26221.724548622133
 20
-22470.050000000003
 10
-26221.725451377864
 20
-22470.050000000003
 10
-26222.125451377866
 20
-22470.050000000003
 10
-26222.6
 20
-22470.050000000003
 10
-26222.6
 20
-22470.325451377867
 10
-26222.60114952398
 20
-22470.34885047602
 10
-26222.624548622134
 20
-22470.350000000002
 10
-26224.875451377866
 20
-22470.350000000002
 10
-26224.89885047602
 20
-22470.34885047602
 10
-26224.9
 20
-22470.325451377867
 10
-26224.9
 20
-22470.050000000003
 10
-26225.374548622134
 20
-22470.050000000003
 10
-26225.774548622136
 20
-22470.050000000003
 10
-26225.825451377867
 20
-22470.050000000003
 10
-26226.225451377864
 20
-22470.050000000003
 10
-26226.399999999998
 20
-22470.050000000003
 10
-26226.399999999998
 20
-22470.125451377866
 10
-26226.40114952398
 20
-22470.14885047602
 10
-26226.424548622133
 20
-22470.15
 10
-26227.074548622135
 20
-22470.15
 10
-26227.734548622135
 20
-22470.15
 10
-26227.875451377866
 20
-22470.15
 10
-26228.064548622133
 20
-22470.15
 10
-26228.525451377867
 20
-22470.15
 10
-26228.584548622133
 20
-22470.15
 10
-26228.914548622135
 20
-22470.15
 10
-26229.135451377864
 20
-22470.15
 10
-26229.324548622135
 20
-22470.15
 10
-26229.465451377866
 20
-22470.15
 10
-26229.874548622134
 20
-22470.15
 10
-26229.985451377866
 20
-22470.15
 10
-26230.315451377865
 20
-22470.15
 10
-26230.534548622134
 20
-22470.15
 10
-26230.775451377867
 20
-22470.15
 10
-26230.864548622136
 20
-22470.15
 10
-26231.325451377867
 20
-22470.15
 10
-26231.334548622133
 20
-22470.15
 10
-26231.664548622135
 20
-22470.15
 10
-26231.935451377867
 20
-22470.15
 10
-26232.1
 20
-22470.15
 10
-26232.1
 20
-22470.265451377865
 10
-26232.1
 20
-22470.735451377866
 10
-26232.1
 20
-22471.065451377865
 10
-26232.100469093726
 20
-22471.075
 10
-26232.1
 20
-22471.084548622133
 10
-26232.1
 20
-22471.414548622135
 10
-26232.1
 20
-22471.834548622133
 10
-26232.1
 20
-22472.164548622135
 10
-26232.1
 20
-22472.485451377866
 10
-26232.1
 20
-22472.534548622134
 10
-26232.1
 20
-22472.815451377865
 10
-26232.1
 20
-22472.864548622136
 10
-26232.1
 20
-22473.235451377866
 10
-26232.1
 20
-22473.524548622136
 10
-26232.1
 20
-22473.565451377865
 10
-26232.1
 20
-22473.935451377867
 10
-26232.1
 20
-22474.265451377865
 10
-26232.1
 20
-22475.775451377867
 10
-26232.10114952398
 20
-22475.79885047602
 10
-26232.124548622134
 20
-22475.800000000003
 10
-26232.524548622136
 20
-22475.800000000003
 10
-26233.575451377867
 20
-22475.800000000003
 10
-26233.975451377864
 20
-22475.800000000003
 10
-26233.99885047602
 20
-22475.79885047602
 10
-26234.0
 20
-22475.775451377867
 10
-26234.0
 20
-22474.29
 10
-26234.025451377867
 20
-22474.29
 10
-26234.04885047602
 20
-22474.28885047602
 10
-26234.050000000003
 20
-22474.265451377865
 10
-26234.050000000003
 20
-22473.935451377867
 10
-26234.050000000003
 20
-22473.565451377865
 10
-26234.050000000003
 20
-22473.235451377866
  0
LWPOLYLINE
  5
90D1
330
A
100
AcDbEntity
  8
0
100
AcDbPolyline
 90
89
 70
0
 10
-26215.675451377865
 20
-22486.09
 10
-26215.69885047602
 20
-22486.08885047602
 10
-26215.7
 20
-22486.065451377865
 10
-26215.7
 20
-22485.735451377866
 10
-26215.7
 20
-22485.315451377865
 10
-26215.7
 20
-22484.985451377866
 10
-26215.7
 20
-22484.664548622135
 10
-26215.7
 20
-22484.465451377866
 10
-26215.7
 20
-22484.334548622133
 10
-26215.7
 20
-22484.135451377864
 10
-26215.7
 20
-22483.914548622135
 10
-26215.7
 20
-22483.584548622133
 10
-26215.7
 20
-22483.064548622133
 10
-26215.7
 20
-22482.734548622135
 10
-26215.69885047602
 20
-22482.71114952398
 10
-26215.675451377865
 20
-22482.71
 10
-26215.65
 20
-22482.71
 10
-26215.65
 20
-22482.690000000002
 10
-26215.675451377865
 20
-22482.690000000002
 10
-26215.69885047602
 20
-22482.68885047602
 10
-26215.7
 20
-22482.665451377867
 10
-26215.7
 20
-22482.335451377865
 10
-26215.7
 20
-22481.865451377867
 10
-26215.7
 20
-22481.535451377866
 10
-26215.7
 20
-22481.264548622134
 10
-26215.7
 20
-22481.115451377867
 10
-26215.7
 20
-22480.934548622135
 10
-26215.7
 20
-22480.785451377866
 10
-26215.7
 20
-22480.464548622134
 10
-26215.7
 20
-22480.134548622133
 10
-26215.7
 20
-22479.714548622134
 10
-26215.7
 20
-22479.384548622133
 10
-26215.69885047602
 20
-22479.36114952398
 10
-26215.675451377865
 20
-22479.359999999997
 10
-26215.65
 20
-22479.359999999997
 10
-26215.65
 20
-22479.050000000003
 10
-26215.675451377865
 20
-22479.050000000003
 10
-26215.69885047602
 20
-22479.04885047602
 10
-26215.7
 20
-22479.025451377867
 10
-26215.7
 20
-22476.774548622136
 10
-26215.69885047602
 20
-22476.75114952398
 10
-26215.675451377865
 20
-22476.75
 10
-26215.275451377867
 20
-22476.75
 10
-26214.224548622133
 20
-22476.75
 10
-26213.824548622135
 20
-22476.75
 10
-26213.80114952398
 20
-22476.75114952398
 10
-26213.8
 20
-22476.774548622136
 10
-26213.8
 20
-22479.025451377867
 10
-26213.80114952398
 20
-22479.04885047602
 10
-26213.824548622135
 20
-22479.050000000003
 10
-26213.87
 20
-22479.050000000003
 10
-26213.87
 20
-22479.359999999997
 10
-26213.824548622135
 20
-22479.359999999997
 10
-26213.80114952398
 20
-22479.36114952398
 10
-26213.8
 20
-22479.384548622133
 10
-26213.8
 20
-22479.714548622134
 10
-26213.8
 20
-22480.134548622133
 10
-26213.8
 20
-22480.464548622134
 10
-26213.8
 20
-22480.785451377866
 10
-26213.8
 20
-22480.934548622135
 10
-26213.8
 20
-22481.115451377867
 10
-26213.8
 20
-22481.264548622134
 10
-26213.8
 20
-22481.535451377866
 10
-26213.8
 20
-22481.865451377867
 10
-26213.8
 20
-22482.335451377865
 10
-26213.8
 20
-22482.665451377867
 10
-26213.80114952398
 20
-22482.68885047602
 10
-26213.824548622135
 20
-22482.690000000002
 10
-26213.87
 20
-22482.690000000002
 10
-26213.87
 20
-22482.71
 10
-26213.824548622135
 20
-22482.71
 10
-26213.80114952398
 20
-22482.71114952398
 10
-26213.8
 20
-22482.734548622135
 10
-26213.8
 20
-22483.064548622133
 10
-26213.8
 20
-22483.584548622133
 10
-26213.8
 20
-22483.914548622135
 10
-26213.8
 20
-22484.135451377864
 10
-26213.8
 20
-22484.334548622133
 10
-26213.8
 20
-22484.465451377866
 10
-26213.8
 20
-22484.664548622135
 10
-26213.8
 20
-22484.985451377866
 10
-26213.8
 20
-22485.315451377865
 10
-26213.8
 20
-22485.735451377866
 10
-26213.8
 20
-22486.065451377865
 10
-26213.80114952398
 20
-22486.08885047602
 10
-26213.824548622135
 20
-22486.09
 10
-26214.224548622133
 20
-22486.09
 10
-26215.275451377867
 20
-22486.09
 10
-26215.675451377865
 20
-22486.09
  0
ENDSEC
  0
SECTION
  2
OBJECTS
  0
DICTIONARY
  5
16
330
0
100
AcDbDictionary
281
1
  3
ACAD_CIP_PREVIOUS_PRODUCT_INFO
350
90AC
  3
ACAD_COLOR
350
908C
  3
ACAD_DETAILVIEWSTYLE
350
90A6
  3
ACAD_GROUP
350
17
  3
ACAD_LAYOUT
350
908D
  3
ACAD_MATERIAL
350
905A
  3
ACAD_MLEADERSTYLE
350
90A2
  3
ACAD_MLINESTYLE
350
18
  3
ACAD_PLOTSETTINGS
350
90A8
  3
ACAD_PLOTSTYLENAME
350
9058
  3
ACAD_SCALELIST
350
9090
  3
ACAD_SECTIONVIEWSTYLE
350
90A4
  3
ACAD_TABLESTYLE
350
908E
  3
ACAD_VISUALSTYLE
350
9073
  3
ACDB_RECOMPOSE_DATA
350
90CB
  3
AcDbVariableDictionary
350
90BE
  3
ASE_INDEX_DICTIONARY
350
90BB
  0
DICTIONARY
  5
90AE
330
23E8
100
AcDbDictionary
280
1
281
1
  3
ADSK_XREC_LAYER_RECONCILED
360
90AF
  0
DICTIONARY
  5
90B0
330
23E9
100
AcDbDictionary
280
1
281
1
  3
ADSK_XREC_LAYER_RECONCILED
360
90B1
  0
DICTIONARY
  5
90B2
330
23EA
100
AcDbDictionary
280
1
281
1
  3
ADSK_XREC_LAYER_RECONCILED
360
90B3
  0
DICTIONARY
  5
90B4
330
23EB
100
AcDbDictionary
280
1
281
1
  3
ADSK_XREC_LAYER_RECONCILED
360
90B5
  0
DICTIONARY
  5
90B6
330
23EC
100
AcDbDictionary
280
1
281
1
  3
ADSK_XREC_LAYER_RECONCILED
360
90B7
  0
DICTIONARY
  5
90B8
330
23ED
100
AcDbDictionary
280
1
281
1
  3
ADSK_XREC_LAYER_RECONCILED
360
90B9
  0
XRECORD
  5
90AC
102
{ACAD_REACTORS
330
16
102
}
330
16
100
AcDbXrecord
280
1
300
ACD
300
2021
300

  0
DICTIONARY
  5
908C
102
{ACAD_REACTORS
330
16
102
}
330
16
100
AcDbDictionary
281
1
  0
DICTIONARY
  5
90A6
102
{ACAD_REACTORS
330
16
102
}
330
16
100
AcDbDictionary
281
1
  3
Imperial24
350
90A7
  0
DICTIONARY
  5
17
102
{ACAD_REACTORS
330
16
102
}
330
16
100
AcDbDictionary
281
1
  0
DICTIONARY
  5
908D
102
{ACAD_REACTORS
330
16
102
}
330
16
100
AcDbDictionary
281
1
  3
Layout1
350
90AA
  3
Model
350
90A9
  0
DICTIONARY
  5
905A
102
{ACAD_REACTORS
330
16
102
}
330
16
100
AcDbDictionary
281
1
  3
ByBlock
350
9063
  3
ByLayer
350
905B
  3
Global
350
906B
  0
DICTIONARY
  5
90A2
102
{ACAD_REACTORS
330
16
102
}
330
16
100
AcDbDictionary
281
1
  3
Standard
350
90A3
  0
DICTIONARY
  5
18
102
{ACAD_REACTORS
330
16
102
}
330
16
100
AcDbDictionary
281
1
  3
STANDARD
350
19
  3
Standard
350
90CC
  0
DICTIONARY
  5
90A8
102
{ACAD_REACTORS
330
16
102
}
330
16
100
AcDbDictionary
281
1
  0
ACDBDICTIONARYWDFLT
  5
9058
102
{ACAD_REACTORS
330
16
102
}
330
16
100
AcDbDictionary
281
1
  3
Normal
350
9059
100
AcDbDictionaryWithDefault
340
9059
  0
DICTIONARY
  5
9090
102
{ACAD_REACTORS
330
16
102
}
330
16
100
AcDbDictionary
281
1
  3
A0
350
9091
  3
A1
350
9092
  3
A2
350
9093
  3
A3
350
9094
  3
A4
350
9095
  3
A5
350
9096
  3
A6
350
9097
  3
A7
350
9098
  3
A8
350
9099
  3
A9
350
909A
  3
B0
350
909B
  3
B1
350
909C
  3
B2
350
909D
  3
B3
350
909E
  3
B4
350
909F
  3
B5
350
90A0
  3
B6
350
90A1
  0
DICTIONARY
  5
90A4
102
{ACAD_REACTORS
330
16
102
}
330
16
100
AcDbDictionary
281
1
  3
Imperial24
350
90A5
  0
DICTIONARY
  5
908E
102
{ACAD_REACTORS
330
16
102
}
330
16
100
AcDbDictionary
281
1
  3
Standard
350
908F
  0
DICTIONARY
  5
9073
102
{ACAD_REACTORS
330
16
102
}
330
16
100
AcDbDictionary
281
1
  3
2dWireframe
350
9079
  3
Basic
350
9078
  3
Brighten
350
907F
  3
ColorChange
350
9083
  3
Conceptual
350
907C
  3
Dim
350
907E
  3
EdgeColorOff
350
908B
  3
Facepattern
350
9082
  3
Flat
350
9074
  3
FlatWithEdges
350
9075
  3
Gouraud
350
9076
  3
GouraudWithEdges
350
9077
  3
Hidden
350
907B
  3
JitterOff
350
9089
  3
Linepattern
350
9081
  3
OverhangOff
350
908A
  3
Realistic
350
907D
  3
Shaded
350
9088
  3
Shaded with edges
350
9087
  3
Shades of Gray
350
9084
  3
Sketchy
350
9085
  3
Thicken
350
9080
  3
Wireframe
350
907A
  3
X-Ray
350
9086
  0
XRECORD
  5
90CB
102
{ACAD_REACTORS
330
16
102
}
330
16
100
AcDbXrecord
280
1
 90
1
330
908F
  0
DICTIONARY
  5
90BE
102
{ACAD_REACTORS
330
16
102
}
330
16
100
AcDbDictionary
281
1
  3
CANNOSCALE
350
90C4
  3
CMLEADERSTYLE
350
90C0
  3
CTABLESTYLE
350
90BF
  3
CVIEWDETAILSTYLE
350
90C1
  3
CVIEWSECTIONSTYLE
350
90C2
  3
LAYEREVAL
350
90C6
  3
LAYERNOTIFY
350
90C7
  3
LIGHTINGUNITS
350
90C5
  3
MSLTSCALE
350
90C3
  0
DICTIONARY
  5
90BB
102
{ACAD_REACTORS
330
16
102
}
330
16
100
AcDbDictionary
281
1
  3
ASEBlockHierarchyIndexRecord
350
90BD
1001
DCO15
1040
2102139733.0
  0
XRECORD
  5
90AF
102
{ACAD_REACTORS
330
90AE
102
}
330
90AE
100
AcDbXrecord
280
1
290
1
  0
XRECORD
  5
90B1
102
{ACAD_REACTORS
330
90B0
102
}
330
90B0
100
AcDbXrecord
280
1
290
1
  0
XRECORD
  5
90B3
102
{ACAD_REACTORS
330
90B2
102
}
330
90B2
100
AcDbXrecord
280
1
290
1
  0
XRECORD
  5
90B5
102
{ACAD_REACTORS
330
90B4
102
}
330
90B4
100
AcDbXrecord
280
1
290
1
  0
XRECORD
  5
90B7
102
{ACAD_REACTORS
330
90B6
102
}
330
90B6
100
AcDbXrecord
280
1
290
1
  0
XRECORD
  5
90B9
102
{ACAD_REACTORS
330
90B8
102
}
330
90B8
100
AcDbXrecord
280
1
290
1
  0
ACDBDETAILVIEWSTYLE
  5
90A7
102
{ACAD_REACTORS
330
90A6
102
}
330
90A6
100
AcDbModelDocViewStyle
 70
0
  3
Imperial24
290
0
300
Imperial24
 90
0
100
AcDbDetailViewStyle
 70
0
 71
0
 90
3
 71
1
340
23EE
 62
256
 40
0.24
340
0
 62
256
 40
0.24
300

 40
0.36
280
3
 71
2
340
12
 90
25
 62
256
 71
3
340
23EE
 62
256
 40
0.24
 90
1
 40
0.75
 90
1
300
%<\AcVar ViewType \f "%tc1">% %<\AcVar ViewDetailId>%\PSCALE %<\AcVar ViewScale \f "%sn">%
 71
4
340
12
 90
25
 62
256
340
12
 90
25
 62
256
280
0
  0
LAYOUT
  5
90AA
102
{ACAD_REACTORS
330
908D
102
}
330
908D
100
AcDbPlotSettings
  1

  2
Intel Cloud Print
  4

  6

 40
0.0
 41
0.0
 42
0.0
 43
0.0
 44
0.0
 45
0.0
 46
0.0
 47
0.0
 48
0.0
 49
0.0
140
0.0
141
0.0
142
1.0
143
1.0
 70
688
 72
0
 73
0
 74
5
  7

 75
16
 76
0
 77
2
 78
300
147
1.0
148
0.0
149
0.0
100
AcDbLayout
  1
Layout1
 70
0
 71
1
 10
0.0
 20
0.0
 11
12.0
 21
9.0
 12
0.0
 22
0.0
 32
0.0
 14
1e+20
 24
1e+20
 34
1e+20
 15
-1e+20
 25
-1e+20
 35
-1e+20
146
0.0
 13
0.0
 23
0.0
 33
0.0
 16
1.0
 26
0.0
 36
0.0
 17
0.0
 27
1.0
 37
0.0
 76
0
330
B
  0
LAYOUT
  5
90A9
102
{ACAD_REACTORS
330
908D
102
}
330
908D
100
AcDbPlotSettings
  1

  2
Intel Cloud Print
  4

  6

 40
0.0
 41
0.0
 42
0.0
 43
0.0
 44
0.0
 45
0.0
 46
0.0
 47
0.0
 48
0.0
 49
0.0
140
0.0
141
0.0
142
1.0
143
1.0
 70
1712
 72
0
 73
0
 74
0
  7

 75
0
 76
0
 77
2
 78
300
147
1.0
148
0.0
149
0.0
100
AcDbLayout
  1
Model
 70
1
 71
0
 10
0.0
 20
0.0
 11
12.0
 21
9.0
 12
0.0
 22
0.0
 32
0.0
 14
0.0
 24
0.0
 34
0.0
 15
0.0
 25
0.0
 35
0.0
146
0.0
 13
0.0
 23
0.0
 33
0.0
 16
1.0
 26
0.0
 36
0.0
 17
0.0
 27
1.0
 37
0.0
 76
0
330
A
331
13
  0
MATERIAL
  5
9063
102
{ACAD_XDICTIONARY
360
9064
102
}
102
{ACAD_REACTORS
330
905A
102
}
330
905A
100
AcDbMaterial
  1
ByBlock
  2

 70
0
 40
1.0
 71
0
 41
1.0
 91
-1023410177
 42
1.0
 72
0
  3

 73
1
 74
1
 75
1
 43
0.0208333333333333
 43
0.0
 43
0.0
 43
0.0
 43
0.0
 43
0.0208333333333333
 43
0.0
 43
0.0
 43
0.0
 43
0.0
 43
1.0
 43
0.0
 43
0.0
 43
0.0
 43
0.0
 43
1.0
 44
0.5
 73
0
 45
1.0
 46
1.0
 77
0
  4

 78
1
 79
1
170
1
 47
0.0208333333333333
 47
0.0
 47
0.0
 47
0.0
 47
0.0
 47
0.0208333333333333
 47
0.0
 47
0.0
 47
0.0
 47
0.0
 47
1.0
 47
0.0
 47
0.0
 47
0.0
 47
0.0
 47
1.0
 48
1.0
171
0
  6

172
1
173
1
174
1
 49
0.0208333333333333
 49
0.0
 49
0.0
 49
0.0
 49
0.0
 49
0.0208333333333333
 49
0.0
 49
0.0
 49
0.0
 49
0.0
 49
1.0
 49
0.0
 49
0.0
 49
0.0
 49
0.0
 49
1.0
140
1.0
141
1.0
175
0
  7

176
1
177
1
178
1
142
0.0208333333333333
142
0.0
142
0.0
142
0.0
142
0.0
142
0.0208333333333333
142
0.0
142
0.0
142
0.0
142
0.0
142
1.0
142
0.0
142
0.0
142
0.0
142
0.0
142
1.0
143
1.0
179
0
  8

270
1
271
1
272
1
144
0.0208333333333333
144
0.0
144
0.0
144
0.0
144
0.0
144
0.0208333333333333
144
0.0
144
0.0
144
0.0
144
0.0
144
1.0
144
0.0
144
0.0
144
0.0
144
0.0
144
1.0
145
1.0
146
1.0
273
1
  9

274
1
275
1
276
1
147
0.0208333333333333
147
0.0
147
0.0
147
0.0
147
0.0
147
0.0208333333333333
147
0.0
147
0.0
147
0.0
147
0.0
147
1.0
147
0.0
147
0.0
147
0.0
147
0.0
147
1.0
 42
1.0
 72
1
  3

 73
1
 74
1
 75
1
 94
63
  0
MATERIAL
  5
905B
102
{ACAD_XDICTIONARY
360
905C
102
}
102
{ACAD_REACTORS
330
905A
102
}
330
905A
100
AcDbMaterial
  1
ByLayer
  2

 70
0
 40
1.0
 71
0
 41
1.0
 91
-1023410177
 42
1.0
 72
0
  3

 73
1
 74
1
 75
1
 43
0.0208333333333333
 43
0.0
 43
0.0
 43
0.0
 43
0.0
 43
0.0208333333333333
 43
0.0
 43
0.0
 43
0.0
 43
0.0
 43
1.0
 43
0.0
 43
0.0
 43
0.0
 43
0.0
 43
1.0
 44
0.5
 73
0
 45
1.0
 46
1.0
 77
0
  4

 78
1
 79
1
170
1
 47
0.0208333333333333
 47
0.0
 47
0.0
 47
0.0
 47
0.0
 47
0.0208333333333333
 47
0.0
 47
0.0
 47
0.0
 47
0.0
 47
1.0
 47
0.0
 47
0.0
 47
0.0
 47
0.0
 47
1.0
 48
1.0
171
0
  6

172
1
173
1
174
1
 49
0.0208333333333333
 49
0.0
 49
0.0
 49
0.0
 49
0.0
 49
0.0208333333333333
 49
0.0
 49
0.0
 49
0.0
 49
0.0
 49
1.0
 49
0.0
 49
0.0
 49
0.0
 49
0.0
 49
1.0
140
1.0
141
1.0
175
0
  7

176
1
177
1
178
1
142
0.0208333333333333
142
0.0
142
0.0
142
0.0
142
0.0
142
0.0208333333333333
142
0.0
142
0.0
142
0.0
142
0.0
142
1.0
142
0.0
142
0.0
142
0.0
142
0.0
142
1.0
143
1.0
179
0
  8

270
1
271
1
272
1
144
0.0208333333333333
144
0.0
144
0.0
144
0.0
144
0.0
144
0.0208333333333333
144
0.0
144
0.0
144
0.0
144
0.0
144
1.0
144
0.0
144
0.0
144
0.0
144
0.0
144
1.0
145
1.0
146
1.0
273
1
  9

274
1
275
1
276
1
147
0.0208333333333333
147
0.0
147
0.0
147
0.0
147
0.0
147
0.0208333333333333
147
0.0
147
0.0
147
0.0
147
0.0
147
1.0
147
0.0
147
0.0
147
0.0
147
0.0
147
1.0
 42
1.0
 72
1
  3

 73
1
 74
1
 75
1
 94
63
  0
MATERIAL
  5
906B
102
{ACAD_XDICTIONARY
360
906C
102
}
102
{ACAD_REACTORS
330
905A
102
}
330
905A
100
AcDbMaterial
  1
Global
  2

 70
0
 40
1.0
 71
0
 41
1.0
 91
-1023410177
 42
1.0
 72
0
  3

 73
1
 74
1
 75
1
 43
0.0208333333333333
 43
0.0
 43
0.0
 43
0.0
 43
0.0
 43
0.0208333333333333
 43
0.0
 43
0.0
 43
0.0
 43
0.0
 43
1.0
 43
0.0
 43
0.0
 43
0.0
 43
0.0
 43
1.0
 44
0.5
 73
0
 45
1.0
 46
1.0
 77
0
  4

 78
1
 79
1
170
1
 47
0.0208333333333333
 47
0.0
 47
0.0
 47
0.0
 47
0.0
 47
0.0208333333333333
 47
0.0
 47
0.0
 47
0.0
 47
0.0
 47
1.0
 47
0.0
 47
0.0
 47
0.0
 47
0.0
 47
1.0
 48
1.0
171
0
  6

172
1
173
1
174
1
 49
0.0208333333333333
 49
0.0
 49
0.0
 49
0.0
 49
0.0
 49
0.0208333333333333
 49
0.0
 49
0.0
 49
0.0
 49
0.0
 49
1.0
 49
0.0
 49
0.0
 49
0.0
 49
0.0
 49
1.0
140
1.0
141
1.0
175
0
  7

176
1
177
1
178
1
142
0.0208333333333333
142
0.0
142
0.0
142
0.0
142
0.0
142
0.0208333333333333
142
0.0
142
0.0
142
0.0
142
0.0
142
1.0
142
0.0
142
0.0
142
0.0
142
0.0
142
1.0
143
1.0
179
0
  8

270
1
271
1
272
1
144
0.0208333333333333
144
0.0
144
0.0
144
0.0
144
0.0
144
0.0208333333333333
144
0.0
144
0.0
144
0.0
144
0.0
144
1.0
144
0.0
144
0.0
144
0.0
144
0.0
144
1.0
145
1.0
146
1.0
273
1
  9

274
1
275
1
276
1
147
0.0208333333333333
147
0.0
147
0.0
147
0.0
147
0.0
147
0.0208333333333333
147
0.0
147
0.0
147
0.0
147
0.0
147
1.0
147
0.0
147
0.0
147
0.0
147
0.0
147
1.0
 42
1.0
 72
1
  3

 73
1
 74
1
 75
1
 94
63
  0
MLEADERSTYLE
  5
90A3
102
{ACAD_REACTORS
330
90A2
102
}
330
90A2
100
AcDbMLeaderStyle
179
2
170
2
171
1
172
0
 90
2
 40
0.0
 41
0.0
173
1
 91
-1056964608
340
10
 92
-2
290
1
 42
0.09
291
1
 43
0.36
  3
Standard
 44
0.18
300

342
23EE
174
1
175
1
176
0
178
6
 93
-1056964608
 45
0.18
292
0
297
0
 46
0.18
293
1
 94
-1056964608
 47
1.0
 49
1.0
140
1.0
294
1
141
0.0
177
0
142
1.0
295
0
296
0
143
0.125
271
0
272
9
273
9
298
0
  0
MLINESTYLE
  5
19
102
{ACAD_REACTORS
330
18
102
}
330
18
100
AcDbMlineStyle
  2
STANDARD
 70
0
  3

 62
0
 51
90.0
 52
90.0
 71
2
 49
0.5
 62
256
  6
BYLAYER
 49
-0.5
 62
256
  6
BYLAYER
  0
ACDBPLACEHOLDER
  5
9059
102
{ACAD_REACTORS
330
9058
102
}
330
9058
  0
SCALE
  5
9091
102
{ACAD_REACTORS
330
9090
102
}
330
9090
100
AcDbScale
 70
0
300
1:1
140
1.0
141
1.0
290
1
  0
SCALE
  5
9092
102
{ACAD_REACTORS
330
9090
102
}
330
9090
100
AcDbScale
 70
0
300
1/128" = 1'-0"
140
0.0078125
141
12.0
290
0
  0
SCALE
  5
9093
102
{ACAD_REACTORS
330
9090
102
}
330
9090
100
AcDbScale
 70
0
300
1/64" = 1'-0"
140
0.015625
141
12.0
290
0
  0
SCALE
  5
9094
102
{ACAD_REACTORS
330
9090
102
}
330
9090
100
AcDbScale
 70
0
300
1/32" = 1'-0"
140
0.03125
141
12.0
290
0
  0
SCALE
  5
9095
102
{ACAD_REACTORS
330
9090
102
}
330
9090
100
AcDbScale
 70
0
300
1/16" = 1'-0"
140
0.0625
141
12.0
290
0
  0
SCALE
  5
9096
102
{ACAD_REACTORS
330
9090
102
}
330
9090
100
AcDbScale
 70
0
300
3/32" = 1'-0"
140
0.09375
141
12.0
290
0
  0
SCALE
  5
9097
102
{ACAD_REACTORS
330
9090
102
}
330
9090
100
AcDbScale
 70
0
300
1/8" = 1'-0"
140
0.125
141
12.0
290
0
  0
SCALE
  5
9098
102
{ACAD_REACTORS
330
9090
102
}
330
9090
100
AcDbScale
 70
0
300
3/16" = 1'-0"
140
0.1875
141
12.0
290
0
  0
SCALE
  5
9099
102
{ACAD_REACTORS
330
9090
102
}
330
9090
100
AcDbScale
 70
0
300
1/4" = 1'-0"
140
0.25
141
12.0
290
0
  0
SCALE
  5
909A
102
{ACAD_REACTORS
330
9090
102
}
330
9090
100
AcDbScale
 70
0
300
3/8" = 1'-0"
140
0.375
141
12.0
290
0
  0
SCALE
  5
909B
102
{ACAD_REACTORS
330
9090
102
}
330
9090
100
AcDbScale
 70
0
300
1/2" = 1'-0"
140
0.5
141
12.0
290
0
  0
SCALE
  5
909C
102
{ACAD_REACTORS
330
9090
102
}
330
9090
100
AcDbScale
 70
0
300
3/4" = 1'-0"
140
0.75
141
12.0
290
0
  0
SCALE
  5
909D
102
{ACAD_REACTORS
330
9090
102
}
330
9090
100
AcDbScale
 70
0
300
1" = 1'-0"
140
1.0
141
12.0
290
0
  0
SCALE
  5
909E
102
{ACAD_REACTORS
330
9090
102
}
330
9090
100
AcDbScale
 70
0
300
1-1/2" = 1'-0"
140
1.5
141
12.0
290
0
  0
SCALE
  5
909F
102
{ACAD_REACTORS
330
9090
102
}
330
9090
100
AcDbScale
 70
0
300
3" = 1'-0"
140
3.0
141
12.0
290
0
  0
SCALE
  5
90A0
102
{ACAD_REACTORS
330
9090
102
}
330
9090
100
AcDbScale
 70
0
300
6" = 1'-0"
140
6.0
141
12.0
290
0
  0
SCALE
  5
90A1
102
{ACAD_REACTORS
330
9090
102
}
330
9090
100
AcDbScale
 70
0
300
1'-0" = 1'-0"
140
12.0
141
12.0
290
0
  0
ACDBSECTIONVIEWSTYLE
  5
90A5
102
{ACAD_REACTORS
330
90A4
102
}
330
90A4
100
AcDbModelDocViewStyle
 70
0
  3
Imperial24
290
0
300
Imperial24
 90
0
100
AcDbSectionViewStyle
 70
0
 71
0
 90
78
 71
1
340
23EE
 62
256
 40
0.24
340
0
340
0
 62
256
 40
0.24
300
I, O, Q, S, X, Z
 40
0.48
 90
3
 40
0.18
 90
1
 71
2
340
12
 90
25
 62
256
340
12
 90
50
 62
256
 40
0.24
 40
0.0
 40
0.24
 71
3
340
23EE
 62
256
 40
0.24
 90
1
 40
0.75
 90
1
300
%<\AcVar ViewType \f "%tc1">% %<\AcVar ViewSectionStartId>%-%<\AcVar ViewSectionEndId>%\PSCALE %<\AcVar ViewScale \f "%sn">%
 71
4
 62
256
 62
257
300
ANSI31
 40
1.0
 90
0
290
0
290
0
 90
6
 40
0.0
 40
1.570796326794896
 40
0.2617993877991494
 40
1.308996938995747
 40
-0.2617993877991494
 40
1.832595714594046
  0
TABLESTYLE
  5
908F
102
{ACAD_XDICTIONARY
360
90C9
102
}
102
{ACAD_REACTORS
330
908E
102
}
330
908E
100
AcDbTableStyle
280
0
  3
Standard
 70
0
 71
0
 40
0.06
 41
0.06
280
0
281
0
  7
STANDARD
140
0.18
170
2
 62
0
 63
7
283
0
 90
512
 91
0
  1

274
-2
284
1
 64
0
275
-2
285
1
 65
0
276
-2
286
1
 66
0
277
-2
287
1
 67
0
278
-2
288
1
 68
0
279
-2
289
1
 69
0
  7
STANDARD
140
0.25
170
5
 62
0
 63
7
283
0
 90
512
 91
0
  1

274
-2
284
1
 64
0
275
-2
285
1
 65
0
276
-2
286
1
 66
0
277
-2
287
1
 67
0
278
-2
288
1
 68
0
279
-2
289
1
 69
0
  7
STANDARD
140
0.18
170
5
 62
0
 63
7
283
0
 90
512
 91
0
  1

274
-2
284
1
 64
0
275
-2
285
1
 65
0
276
-2
286
1
 66
0
277
-2
287
1
 67
0
278
-2
288
1
 68
0
279
-2
289
1
 69
0
  0
VISUALSTYLE
  5
9079
102
{ACAD_REACTORS
330
9073
102
}
330
9073
100
AcDbVisualStyle
  2
2dWireframe
 70
4
177
3
291
0
 70
58
 90
0
176
1
 90
2
176
1
 90
0
176
1
 90
0
176
1
 40
0.6
176
1
 40
30.0
176
1
 62
7
420
16777215
176
1
 90
1
176
1
 90
4
176
1
 62
7
176
1
 62
257
176
1
 90
1
176
1
 90
1
176
1
 40
1.0
176
1
 90
0
176
1
 62
257
176
1
 40
1.0
176
1
 90
1
176
1
 90
6
176
1
 90
2
176
1
 62
7
176
1
 90
5
176
1
 90
0
176
1
 90
0
176
1
290
0
176
1
 90
1
176
1
 40
0.0
176
1
 90
0
176
1
290
1
176
1
290
1
176
1
290
0
176
1
290
0
176
1
290
0
176
1
290
0
176
1
290
0
176
1
290
0
176
1
290
0
176
1
 90
50
176
1
 40
0.0
176
1
 40
1.0
176
1
 90
0
176
1
 62
18
420
0
176
1
 90
50
176
1
 90
3
176
1
 62
5
420
255
176
1
290
0
176
1
 90
50
176
1
 90
50
176
1
 90
50
176
1
290
0
176
1
 90
50
176
1
 62
256
176
0
 40
1.0
176
0
 90
2
176
1
  1
strokes_ogs.tif
176
1
290
0
176
1
 40
1.0
176
1
 40
1.0
176
1
  0
VISUALSTYLE
  5
9078
102
{ACAD_REACTORS
330
9073
102
}
330
9073
100
AcDbVisualStyle
  2
Basic
 70
7
177
3
291
1
 70
58
 90
1
176
1
 90
0
176
1
 90
1
176
1
 90
0
176
1
 40
0.6
176
1
 40
30.0
176
1
 62
7
420
16777215
176
1
 90
0
176
1
 90
4
176
1
 62
7
176
1
 62
257
176
1
 90
1
176
1
 90
1
176
1
 40
1.0
176
1
 90
8
176
1
 62
7
176
1
 40
1.0
176
1
 90
1
176
1
 90
6
176
1
 90
2
176
1
 62
7
176
1
 90
5
176
1
 90
0
176
1
 90
0
176
1
290
0
176
1
 90
1
176
1
 40
0.0
176
1
 90
0
176
1
290
0
176
1
290
1
176
1
290
1
176
1
290
0
176
1
290
0
176
1
290
0
176
1
290
0
176
1
290
0
176
1
290
0
176
1
 90
50
176
1
 40
0.0
176
1
 40
1.0
176
1
 90
0
176
1
 62
18
420
0
176
1
 90
50
176
1
 90
3
176
1
 62
5
420
255
176
1
290
0
176
1
 90
50
176
1
 90
50
176
1
 90
50
176
1
290
0
176
1
 90
50
176
1
 62
256
176
0
 40
1.0
176
0
 90
2
176
1
  1
strokes_ogs.tif
176
1
290
0
176
1
 40
1.0
176
1
 40
1.0
176
1
  0
VISUALSTYLE
  5
907F
102
{ACAD_REACTORS
330
9073
102
}
330
9073
100
AcDbVisualStyle
  2
Brighten
 70
12
177
3
291
1
 70
58
 90
2
176
1
 90
2
176
1
 90
0
176
1
 90
0
176
1
 40
0.6
176
1
 40
30.0
176
1
 62
7
420
16777215
176
1
 90
1
176
1
 90
4
176
1
 62
7
176
1
 62
257
176
1
 90
1
176
1
 90
1
176
1
 40
1.0
176
1
 90
8
176
1
 62
7
176
1
 40
1.0
176
1
 90
1
176
1
 90
6
176
1
 90
2
176
1
 62
7
176
1
 90
5
176
1
 90
0
176
1
 90
0
176
1
290
0
176
1
 90
1
176
1
 40
50.0
176
1
 90
0
176
1
290
0
176
1
290
1
176
1
290
1
176
1
290
0
176
1
290
0
176
1
290
0
176
1
290
0
176
1
290
0
176
1
290
0
176
1
 90
50
176
1
 40
0.0
176
1
 40
1.0
176
1
 90
0
176
1
 62
18
420
0
176
1
 90
50
176
1
 90
3
176
1
 62
5
420
255
176
1
290
0
176
1
 90
50
176
1
 90
50
176
1
 90
50
176
1
290
0
176
1
 90
50
176
1
 62
256
176
0
 40
1.0
176
0
 90
2
176
1
  1
strokes_ogs.tif
176
1
290
0
176
1
 40
1.0
176
1
 40
1.0
176
1
  0
VISUALSTYLE
  5
9083
102
{ACAD_REACTORS
330
9073
102
}
330
9073
100
AcDbVisualStyle
  2
ColorChange
 70
16
177
3
291
1
 70
58
 90
2
176
1
 90
2
176
1
 90
3
176
1
 90
0
176
1
 40
0.6
176
1
 40
30.0
176
1
 62
8
420
8421504
176
1
 90
1
176
1
 90
4
176
1
 62
7
176
1
 62
257
176
1
 90
1
176
1
 90
1
176
1
 40
1.0
176
1
 90
8
176
1
 62
8
420
8421504
176
1
 40
1.0
176
1
 90
1
176
1
 90
6
176
1
 90
2
176
1
 62
7
176
1
 90
5
176
1
 90
0
176
1
 90
0
176
1
290
0
176
1
 90
1
176
1
 40
0.0
176
1
 90
0
176
1
290
0
176
1
290
1
176
1
290
1
176
1
290
0
176
1
290
0
176
1
290
0
176
1
290
0
176
1
290
0
176
1
290
0
176
1
 90
50
176
1
 40
0.0
176
1
 40
1.0
176
1
 90
0
176
1
 62
18
420
0
176
1
 90
50
176
1
 90
3
176
1
 62
5
420
255
176
1
290
0
176
1
 90
50
176
1
 90
50
176
1
 90
50
176
1
290
0
176
1
 90
50
176
1
 62
256
176
0
 40
1.0
176
0
 90
2
176
1
  1
strokes_ogs.tif
176
1
290
0
176
1
 40
1.0
176
1
 40
1.0
176
1
  0
VISUALSTYLE
  5
907C
102
{ACAD_REACTORS
330
9073
102
}
330
9073
100
AcDbVisualStyle
  2
Conceptual
 70
9
177
3
291
0
 70
58
 90
3
176
1
 90
2
176
1
 90
0
176
1
 90
0
176
1
 40
0.6
176
1
 40
30.0
176
1
 62
7
420
16777215
176
1
 90
2
176
1
 90
2
176
1
 62
7
176
1
 62
257
176
1
 90
1
176
1
 90
1
176
1
 40
179.0
176
1
 90
8
176
1
 62
7
176
1
 40
1.0
176
1
 90
1
176
1
 90
6
176
1
 90
2
176
1
 62
7
176
1
 90
3
176
1
 90
0
176
1
 90
0
176
1
290
0
176
1
 90
1
176
1
 40
0.0
176
1
 90
0
176
1
290
0
176
1
290
1
176
1
290
1
176
1
290
0
176
1
290
0
176
1
290
0
176
1
290
0
176
1
290
0
176
1
290
0
176
1
 90
50
176
1
 40
0.0
176
1
 40
1.0
176
1
 90
0
176
1
 62
18
420
0
176
1
 90
50
176
1
 90
3
176
1
 62
5
420
255
176
1
290
0
176
1
 90
50
176
1
 90
50
176
1
 90
50
176
1
290
0
176
1
 90
50
176
1
 62
256
176
0
 40
1.0
176
0
 90
2
176
1
  1
strokes_ogs.tif
176
1
290
0
176
1
 40
1.0
176
1
 40
1.0
176
1
  0
VISUALSTYLE
  5
907E
102
{ACAD_REACTORS
330
9073
102
}
330
9073
100
AcDbVisualStyle
  2
Dim
 70
11
177
3
291
1
 70
58
 90
2
176
1
 90
2
176
1
 90
0
176
1
 90
0
176
1
 40
0.6
176
1
 40
30.0
176
1
 62
7
420
16777215
176
1
 90
1
176
1
 90
4
176
1
 62
7
176
1
 62
257
176
1
 90
1
176
1
 90
1
176
1
 40
1.0
176
1
 90
8
176
1
 62
7
176
1
 40
1.0
176
1
 90
1
176
1
 90
6
176
1
 90
2
176
1
 62
7
176
1
 90
5
176
1
 90
0
176
1
 90
0
176
1
290
0
176
1
 90
1
176
1
 40
-50.0
176
1
 90
0
176
1
290
0
176
1
290
1
176
1
290
1
176
1
290
0
176
1
290
0
176
1
290
0
176
1
290
0
176
1
290
0
176
1
290
0
176
1
 90
50
176
1
 40
0.0
176
1
 40
1.0
176
1
 90
0
176
1
 62
18
420
0
176
1
 90
50
176
1
 90
3
176
1
 62
5
420
255
176
1
290
0
176
1
 90
50
176
1
 90
50
176
1
 90
50
176
1
290
0
176
1
 90
50
176
1
 62
256
176
0
 40
1.0
176
0
 90
2
176
1
  1
strokes_ogs.tif
176
1
290
0
176
1
 40
1.0
176
1
 40
1.0
176
1
  0
VISUALSTYLE
  5
908B
102
{ACAD_REACTORS
330
9073
102
}
330
9073
100
AcDbVisualStyle
  2
EdgeColorOff
 70
22
177
3
291
1
 70
58
 90
2
176
0
 90
2
176
0
 90
0
176
0
 90
0
176
0
 40
0.6
176
0
 40
30.0
176
0
 62
7
420
16777215
176
0
 90
1
176
0
 90
4
176
0
 62
7
176
0
 62
257
176
0
 90
1
176
0
 90
1
176
0
 40
1.0
176
0
 90
8
176
2
 62
7
176
0
 40
1.0
176
0
 90
1
176
0
 90
6
176
0
 90
2
176
0
 62
7
176
0
 90
5
176
0
 90
0
176
0
 90
0
176
0
290
0
176
0
 90
1
176
0
 40
0.0
176
0
 90
0
176
0
290
0
176
1
290
1
176
1
290
1
176
1
290
0
176
1
290
0
176
1
290
0
176
1
290
0
176
1
290
0
176
1
290
0
176
1
 90
50
176
0
 40
0.0
176
0
 40
1.0
176
0
 90
0
176
0
 62
18
420
0
176
0
 90
50
176
0
 90
3
176
0
 62
5
420
255
176
0
290
0
176
1
 90
50
176
0
 90
50
176
0
 90
50
176
0
290
0
176
1
 90
50
176
0
 62
256
176
0
 40
1.0
176
0
 90
2
176
0
  1
strokes_ogs.tif
176
0
290
0
176
1
 40
1.0
176
0
 40
1.0
176
0
  0
VISUALSTYLE
  5
9082
102
{ACAD_REACTORS
330
9073
102
}
330
9073
100
AcDbVisualStyle
  2
Facepattern
 70
15
177
3
291
1
 70
58
 90
2
176
1
 90
2
176
1
 90
0
176
1
 90
0
176
1
 40
0.6
176
1
 40
30.0
176
1
 62
7
420
16777215
176
1
 90
1
176
1
 90
4
176
1
 62
7
176
1
 62
257
176
1
 90
1
176
1
 90
1
176
1
 40
1.0
176
1
 90
8
176
1
 62
7
176
1
 40
1.0
176
1
 90
1
176
1
 90
6
176
1
 90
2
176
1
 62
7
176
1
 90
5
176
1
 90
0
176
1
 90
0
176
1
290
0
176
1
 90
1
176
1
 40
0.0
176
1
 90
0
176
1
290
0
176
1
290
1
176
1
290
1
176
1
290
0
176
1
290
0
176
1
290
0
176
1
290
0
176
1
290
0
176
1
290
0
176
1
 90
50
176
1
 40
0.0
176
1
 40
1.0
176
1
 90
0
176
1
 62
18
420
0
176
1
 90
50
176
1
 90
3
176
1
 62
5
420
255
176
1
290
0
176
1
 90
50
176
1
 90
50
176
1
 90
50
176
1
290
0
176
1
 90
50
176
1
 62
256
176
0
 40
1.0
176
0
 90
2
176
1
  1
strokes_ogs.tif
176
1
290
0
176
1
 40
1.0
176
1
 40
1.0
176
1
  0
VISUALSTYLE
  5
9074
102
{ACAD_REACTORS
330
9073
102
}
330
9073
100
AcDbVisualStyle
  2
Flat
 70
0
177
3
291
1
 70
58
 90
2
176
1
 90
1
176
1
 90
1
176
1
 90
2
176
1
 40
0.6
176
1
 40
30.0
176
1
 62
7
420
16777215
176
1
 90
0
176
1
 90
0
176
1
 62
7
176
1
 62
257
176
1
 90
1
176
1
 90
1
176
1
 40
1.0
176
1
 90
8
176
1
 62
7
176
1
 40
1.0
176
1
 90
1
176
1
 90
6
176
1
 90
2
176
1
 62
7
176
1
 90
5
176
1
 90
0
176
1
 90
0
176
1
290
0
176
1
 90
13
176
1
 40
0.0
176
1
 90
0
176
1
290
0
176
1
290
1
176
1
290
1
176
1
290
0
176
1
290
0
176
1
290
0
176
1
290
0
176
1
290
0
176
1
290
0
176
1
 90
50
176
1
 40
0.0
176
1
 40
1.0
176
1
 90
0
176
1
 62
18
420
0
176
1
 90
50
176
1
 90
3
176
1
 62
5
420
255
176
1
290
0
176
1
 90
50
176
1
 90
50
176
1
 90
50
176
1
290
0
176
1
 90
50
176
1
 62
256
176
0
 40
1.0
176
0
 90
2
176
1
  1
strokes_ogs.tif
176
1
290
0
176
1
 40
1.0
176
1
 40
1.0
176
1
  0
VISUALSTYLE
  5
9075
102
{ACAD_REACTORS
330
9073
102
}
330
9073
100
AcDbVisualStyle
  2
FlatWithEdges
 70
1
177
3
291
1
 70
58
 90
2
176
1
 90
1
176
1
 90
1
176
1
 90
2
176
1
 40
0.6
176
1
 40
30.0
176
1
 62
7
420
16777215
176
1
 90
1
176
1
 90
0
176
1
 62
7
176
1
 62
257
176
1
 90
1
176
1
 90
1
176
1
 40
1.0
176
1
 90
0
176
1
 62
257
176
1
 40
1.0
176
1
 90
1
176
1
 90
6
176
1
 90
2
176
1
 62
7
176
1
 90
5
176
1
 90
0
176
1
 90
0
176
1
290
0
176
1
 90
13
176
1
 40
0.0
176
1
 90
0
176
1
290
0
176
1
290
1
176
1
290
1
176
1
290
0
176
1
290
0
176
1
290
0
176
1
290
0
176
1
290
0
176
1
290
0
176
1
 90
50
176
1
 40
0.0
176
1
 40
1.0
176
1
 90
0
176
1
 62
18
420
0
176
1
 90
50
176
1
 90
3
176
1
 62
5
420
255
176
1
290
0
176
1
 90
50
176
1
 90
50
176
1
 90
50
176
1
290
0
176
1
 90
50
176
1
 62
256
176
0
 40
1.0
176
0
 90
2
176
1
  1
strokes_ogs.tif
176
1
290
0
176
1
 40
1.0
176
1
 40
1.0
176
1
  0
VISUALSTYLE
  5
9076
102
{ACAD_REACTORS
330
9073
102
}
330
9073
100
AcDbVisualStyle
  2
Gouraud
 70
2
177
3
291
1
 70
58
 90
2
176
1
 90
2
176
1
 90
1
176
1
 90
2
176
1
 40
0.6
176
1
 40
30.0
176
1
 62
7
420
16777215
176
1
 90
0
176
1
 90
0
176
1
 62
7
176
1
 62
257
176
1
 90
1
176
1
 90
1
176
1
 40
1.0
176
1
 90
0
176
1
 62
7
176
1
 40
1.0
176
1
 90
1
176
1
 90
6
176
1
 90
2
176
1
 62
7
176
1
 90
5
176
1
 90
0
176
1
 90
0
176
1
290
0
176
1
 90
13
176
1
 40
0.0
176
1
 90
0
176
1
290
0
176
1
290
1
176
1
290
1
176
1
290
0
176
1
290
0
176
1
290
0
176
1
290
0
176
1
290
0
176
1
290
0
176
1
 90
50
176
1
 40
0.0
176
1
 40
1.0
176
1
 90
0
176
1
 62
18
420
0
176
1
 90
50
176
1
 90
3
176
1
 62
5
420
255
176
1
290
0
176
1
 90
50
176
1
 90
50
176
1
 90
50
176
1
290
0
176
1
 90
50
176
1
 62
256
176
0
 40
1.0
176
0
 90
2
176
1
  1
strokes_ogs.tif
176
1
290
0
176
1
 40
1.0
176
1
 40
1.0
176
1
  0
VISUALSTYLE
  5
9077
102
{ACAD_REACTORS
330
9073
102
}
330
9073
100
AcDbVisualStyle
  2
GouraudWithEdges
 70
3
177
3
291
1
 70
58
 90
2
176
1
 90
2
176
1
 90
1
176
1
 90
2
176
1
 40
0.6
176
1
 40
30.0
176
1
 62
7
420
16777215
176
1
 90
1
176
1
 90
0
176
1
 62
7
176
1
 62
257
176
1
 90
1
176
1
 90
1
176
1
 40
1.0
176
1
 90
0
176
1
 62
257
176
1
 40
1.0
176
1
 90
1
176
1
 90
6
176
1
 90
2
176
1
 62
7
176
1
 90
5
176
1
 90
0
176
1
 90
0
176
1
290
0
176
1
 90
13
176
1
 40
0.0
176
1
 90
0
176
1
290
0
176
1
290
1
176
1
290
1
176
1
290
0
176
1
290
0
176
1
290
0
176
1
290
0
176
1
290
0
176
1
290
0
176
1
 90
50
176
1
 40
0.0
176
1
 40
1.0
176
1
 90
0
176
1
 62
18
420
0
176
1
 90
50
176
1
 90
3
176
1
 62
5
420
255
176
1
290
0
176
1
 90
50
176
1
 90
50
176
1
 90
50
176
1
290
0
176
1
 90
50
176
1
 62
256
176
0
 40
1.0
176
0
 90
2
176
1
  1
strokes_ogs.tif
176
1
290
0
176
1
 40
1.0
176
1
 40
1.0
176
1
  0
VISUALSTYLE
  5
907B
102
{ACAD_REACTORS
330
9073
102
}
330
9073
100
AcDbVisualStyle
  2
Hidden
 70
6
177
3
291
0
 70
58
 90
1
176
1
 90
2
176
1
 90
2
176
1
 90
0
176
1
 40
0.6
176
1
 40
30.0
176
1
 62
7
420
16777215
176
1
 90
2
176
1
 90
2
176
1
 62
7
176
1
 62
257
176
1
 90
2
176
1
 90
1
176
1
 40
40.0
176
1
 90
0
176
1
 62
257
176
1
 40
1.0
176
1
 90
1
176
1
 90
6
176
1
 90
2
176
1
 62
7
176
1
 90
3
176
1
 90
0
176
1
 90
0
176
1
290
0
176
1
 90
1
176
1
 40
0.0
176
1
 90
0
176
1
290
0
176
1
290
1
176
1
290
1
176
1
290
0
176
1
290
0
176
1
290
0
176
1
290
0
176
1
290
0
176
1
290
0
176
1
 90
50
176
1
 40
0.0
176
1
 40
1.0
176
1
 90
0
176
1
 62
18
420
0
176
1
 90
50
176
1
 90
3
176
1
 62
5
420
255
176
1
290
0
176
1
 90
50
176
1
 90
50
176
1
 90
50
176
1
290
0
176
1
 90
50
176
1
 62
256
176
0
 40
1.0
176
0
 90
2
176
1
  1
strokes_ogs.tif
176
1
290
0
176
1
 40
1.0
176
1
 40
1.0
176
1
  0
VISUALSTYLE
  5
9089
102
{ACAD_REACTORS
330
9073
102
}
330
9073
100
AcDbVisualStyle
  2
JitterOff
 70
20
177
3
291
1
 70
58
 90
2
176
0
 90
2
176
0
 90
0
176
0
 90
0
176
0
 40
0.6
176
0
 40
30.0
176
0
 62
7
420
16777215
176
0
 90
1
176
0
 90
4
176
0
 62
7
176
0
 62
257
176
0
 90
1
176
0
 90
1
176
0
 40
1.0
176
0
 90
10
176
2
 62
7
176
0
 40
1.0
176
0
 90
1
176
0
 90
6
176
0
 90
2
176
0
 62
7
176
0
 90
5
176
0
 90
0
176
0
 90
0
176
0
290
0
176
0
 90
1
176
0
 40
0.0
176
0
 90
0
176
0
290
0
176
1
290
1
176
1
290
1
176
1
290
0
176
1
290
0
176
1
290
0
176
1
290
0
176
1
290
0
176
1
290
0
176
1
 90
50
176
0
 40
0.0
176
0
 40
1.0
176
0
 90
0
176
0
 62
18
420
0
176
0
 90
50
176
0
 90
3
176
0
 62
5
420
255
176
0
290
0
176
1
 90
50
176
0
 90
50
176
0
 90
50
176
0
290
0
176
1
 90
50
176
0
 62
256
176
0
 40
1.0
176
0
 90
2
176
0
  1
strokes_ogs.tif
176
0
290
0
176
1
 40
1.0
176
0
 40
1.0
176
0
  0
VISUALSTYLE
  5
9081
102
{ACAD_REACTORS
330
9073
102
}
330
9073
100
AcDbVisualStyle
  2
Linepattern
 70
14
177
3
291
1
 70
58
 90
2
176
1
 90
2
176
1
 90
0
176
1
 90
0
176
1
 40
0.6
176
1
 40
30.0
176
1
 62
7
420
16777215
176
1
 90
1
176
1
 90
4
176
1
 62
7
176
1
 62
257
176
1
 90
7
176
1
 90
7
176
1
 40
1.0
176
1
 90
8
176
1
 62
7
176
1
 40
1.0
176
1
 90
1
176
1
 90
6
176
1
 90
2
176
1
 62
7
176
1
 90
5
176
1
 90
0
176
1
 90
0
176
1
290
0
176
1
 90
1
176
1
 40
0.0
176
1
 90
0
176
1
290
0
176
1
290
1
176
1
290
1
176
1
290
0
176
1
290
0
176
1
290
0
176
1
290
0
176
1
290
0
176
1
290
0
176
1
 90
50
176
1
 40
0.0
176
1
 40
1.0
176
1
 90
0
176
1
 62
18
420
0
176
1
 90
50
176
1
 90
3
176
1
 62
5
420
255
176
1
290
0
176
1
 90
50
176
1
 90
50
176
1
 90
50
176
1
290
0
176
1
 90
50
176
1
 62
256
176
0
 40
1.0
176
0
 90
2
176
1
  1
strokes_ogs.tif
176
1
290
0
176
1
 40
1.0
176
1
 40
1.0
176
1
  0
VISUALSTYLE
  5
908A
102
{ACAD_REACTORS
330
9073
102
}
330
9073
100
AcDbVisualStyle
  2
OverhangOff
 70
21
177
3
291
1
 70
58
 90
2
176
0
 90
2
176
0
 90
0
176
0
 90
0
176
0
 40
0.6
176
0
 40
30.0
176
0
 62
7
420
16777215
176
0
 90
1
176
0
 90
4
176
0
 62
7
176
0
 62
257
176
0
 90
1
176
0
 90
1
176
0
 40
1.0
176
0
 90
9
176
2
 62
7
176
0
 40
1.0
176
0
 90
1
176
0
 90
6
176
0
 90
2
176
0
 62
7
176
0
 90
5
176
0
 90
0
176
0
 90
0
176
0
290
0
176
0
 90
1
176
0
 40
0.0
176
0
 90
0
176
0
290
0
176
1
290
1
176
1
290
1
176
1
290
0
176
1
290
0
176
1
290
0
176
1
290
0
176
1
290
0
176
1
290
0
176
1
 90
50
176
0
 40
0.0
176
0
 40
1.0
176
0
 90
0
176
0
 62
18
420
0
176
0
 90
50
176
0
 90
3
176
0
 62
5
420
255
176
0
290
0
176
1
 90
50
176
0
 90
50
176
0
 90
50
176
0
290
0
176
1
 90
50
176
0
 62
256
176
0
 40
1.0
176
0
 90
2
176
0
  1
strokes_ogs.tif
176
0
290
0
176
1
 40
1.0
176
0
 40
1.0
176
0
  0
VISUALSTYLE
  5
907D
102
{ACAD_REACTORS
330
9073
102
}
330
9073
100
AcDbVisualStyle
  2
Realistic
 70
8
177
3
291
0
 70
58
 90
2
176
1
 90
3
176
1
 90
0
176
1
 90
2
176
1
 40
0.6
176
1
 40
30.0
176
1
 62
7
420
16777215
176
1
 90
0
176
1
 90
0
176
1
 62
7
176
1
 62
257
176
1
 90
1
176
1
 90
1
176
1
 40
1.0
176
1
 90
8
176
1
 62
257
176
1
 40
1.0
176
1
 90
1
176
1
 90
6
176
1
 90
2
176
1
 62
7
176
1
 90
3
176
1
 90
0
176
1
 90
0
176
1
290
0
176
1
 90
13
176
1
 40
0.0
176
1
 90
0
176
1
290
0
176
1
290
1
176
1
290
1
176
1
290
0
176
1
290
0
176
1
290
0
176
1
290
0
176
1
290
0
176
1
290
0
176
1
 90
50
176
1
 40
0.0
176
1
 40
1.0
176
1
 90
0
176
1
 62
18
420
0
176
1
 90
50
176
1
 90
3
176
1
 62
5
420
255
176
1
290
0
176
1
 90
50
176
1
 90
50
176
1
 90
50
176
1
290
0
176
1
 90
50
176
1
 62
256
176
0
 40
1.0
176
0
 90
2
176
1
  1
strokes_ogs.tif
176
1
290
0
176
1
 40
1.0
176
1
 40
1.0
176
1
  0
VISUALSTYLE
  5
9088
102
{ACAD_REACTORS
330
9073
102
}
330
9073
100
AcDbVisualStyle
  2
Shaded
 70
27
177
3
291
0
 70
58
 90
2
176
1
 90
2
176
1
 90
1
176
1
 90
2
176
1
 40
0.6
176
1
 40
30.0
176
1
 62
7
420
16777215
176
1
 90
0
176
1
 90
4
176
1
 62
7
176
1
 62
257
176
1
 90
1
176
1
 90
1
176
1
 40
1.0
176
1
 90
8
176
1
 62
257
176
1
 40
1.0
176
1
 90
1
176
1
 90
6
176
1
 90
2
176
1
 62
8
420
7895160
176
1
 90
3
176
1
 90
0
176
1
 90
0
176
1
290
0
176
1
 90
5
176
1
 40
0.0
176
1
 90
0
176
1
290
0
176
1
290
1
176
1
290
1
176
1
290
0
176
1
290
0
176
1
290
0
176
1
290
0
176
1
290
0
176
1
290
0
176
1
 90
50
176
1
 40
0.0
176
1
 40
1.0
176
1
 90
0
176
1
 62
18
420
0
176
1
 90
50
176
1
 90
3
176
1
 62
5
420
255
176
1
290
0
176
1
 90
50
176
1
 90
50
176
1
 90
50
176
1
290
0
176
1
 90
50
176
1
 62
256
176
0
 40
1.0
176
0
 90
2
176
1
  1
strokes_ogs.tif
176
1
290
0
176
1
 40
1.0
176
1
 40
1.0
176
1
  0
VISUALSTYLE
  5
9087
102
{ACAD_REACTORS
330
9073
102
}
330
9073
100
AcDbVisualStyle
  2
Shaded with edges
 70
26
177
3
291
0
 70
58
 90
2
176
1
 90
2
176
1
 90
1
176
1
 90
2
176
1
 40
0.6
176
1
 40
30.0
176
1
 62
7
420
16777215
176
1
 90
1
176
1
 90
2
176
1
 62
7
176
1
 62
257
176
1
 90
2
176
1
 90
1
176
1
 40
1.0
176
1
 90
8
176
1
 62
257
176
1
 40
1.0
176
1
 90
1
176
1
 90
6
176
1
 90
2
176
1
 62
7
176
1
 90
3
176
1
 90
0
176
1
 90
0
176
1
290
0
176
1
 90
5
176
1
 40
0.0
176
1
 90
0
176
1
290
0
176
1
290
1
176
1
290
1
176
1
290
0
176
1
290
0
176
1
290
0
176
1
290
0
176
1
290
0
176
1
290
0
176
1
 90
50
176
1
 40
0.0
176
1
 40
1.0
176
1
 90
0
176
1
 62
18
420
0
176
1
 90
50
176
1
 90
3
176
1
 62
5
420
255
176
1
290
0
176
1
 90
50
176
1
 90
50
176
1
 90
50
176
1
290
0
176
1
 90
50
176
1
 62
256
176
0
 40
1.0
176
0
 90
2
176
1
  1
strokes_ogs.tif
176
1
290
0
176
1
 40
1.0
176
1
 40
1.0
176
1
  0
VISUALSTYLE
  5
9084
102
{ACAD_REACTORS
330
9073
102
}
330
9073
100
AcDbVisualStyle
  2
Shades of Gray
 70
23
177
3
291
0
 70
58
 90
2
176
1
 90
2
176
1
 90
3
176
1
 90
0
176
1
 40
0.6
176
1
 40
30.0
176
1
 62
7
420
16777215
176
1
 90
2
176
1
 90
2
176
1
 62
7
176
1
 62
7
176
1
 90
1
176
1
 90
1
176
1
 40
40.0
176
1
 90
8
176
1
 62
7
176
1
 40
1.0
176
1
 90
1
176
1
 90
6
176
1
 90
2
176
1
 62
7
176
1
 90
3
176
1
 90
0
176
1
 90
0
176
1
290
0
176
1
 90
1
176
1
 40
0.0
176
1
 90
0
176
1
290
0
176
1
290
1
176
1
290
1
176
1
290
0
176
1
290
0
176
1
290
0
176
1
290
0
176
1
290
0
176
1
290
0
176
1
 90
50
176
1
 40
0.0
176
1
 40
1.0
176
1
 90
0
176
1
 62
18
420
0
176
1
 90
50
176
1
 90
3
176
1
 62
5
420
255
176
1
290
0
176
1
 90
50
176
1
 90
50
176
1
 90
50
176
1
290
0
176
1
 90
50
176
1
 62
256
176
0
 40
1.0
176
0
 90
2
176
1
  1
strokes_ogs.tif
176
1
290
0
176
1
 40
1.0
176
1
 40
1.0
176
1
  0
VISUALSTYLE
  5
9085
102
{ACAD_REACTORS
330
9073
102
}
330
9073
100
AcDbVisualStyle
  2
Sketchy
 70
24
177
3
291
0
 70
58
 90
1
176
1
 90
2
176
1
 90
2
176
1
 90
0
176
1
 40
0.6
176
1
 40
30.0
176
1
 62
7
420
16777215
176
1
 90
2
176
1
 90
2
176
1
 62
7
176
1
 62
7
176
1
 90
1
176
1
 90
1
176
1
 40
40.0
176
1
 90
11
176
1
 62
7
176
1
 40
1.0
176
1
 90
1
176
1
 90
6
176
1
 90
2
176
1
 62
7
176
1
 90
6
176
1
 90
0
176
1
 90
0
176
1
290
0
176
1
 90
1
176
1
 40
0.0
176
1
 90
0
176
1
290
0
176
1
290
1
176
1
290
1
176
1
290
0
176
1
290
0
176
1
290
0
176
1
290
0
176
1
290
0
176
1
290
0
176
1
 90
50
176
1
 40
0.0
176
1
 40
1.0
176
1
 90
0
176
1
 62
18
420
0
176
1
 90
50
176
1
 90
3
176
1
 62
5
420
255
176
1
290
0
176
1
 90
50
176
1
 90
50
176
1
 90
50
176
1
290
0
176
1
 90
50
176
1
 62
256
176
0
 40
1.0
176
0
 90
2
176
1
  1
strokes_ogs.tif
176
1
290
0
176
1
 40
1.0
176
1
 40
1.0
176
1
  0
VISUALSTYLE
  5
9080
102
{ACAD_REACTORS
330
9073
102
}
330
9073
100
AcDbVisualStyle
  2
Thicken
 70
13
177
3
291
1
 70
58
 90
2
176
1
 90
2
176
1
 90
0
176
1
 90
0
176
1
 40
0.6
176
1
 40
30.0
176
1
 62
7
420
16777215
176
1
 90
1
176
1
 90
4
176
1
 62
7
176
1
 62
257
176
1
 90
1
176
1
 90
1
176
1
 40
1.0
176
1
 90
12
176
1
 62
7
176
1
 40
1.0
176
1
 90
1
176
1
 90
6
176
1
 90
2
176
1
 62
7
176
1
 90
5
176
1
 90
0
176
1
 90
0
176
1
290
0
176
1
 90
1
176
1
 40
0.0
176
1
 90
0
176
1
290
0
176
1
290
1
176
1
290
1
176
1
290
0
176
1
290
0
176
1
290
0
176
1
290
0
176
1
290
0
176
1
290
0
176
1
 90
50
176
1
 40
0.0
176
1
 40
1.0
176
1
 90
0
176
1
 62
18
420
0
176
1
 90
50
176
1
 90
3
176
1
 62
5
420
255
176
1
290
0
176
1
 90
50
176
1
 90
50
176
1
 90
50
176
1
290
0
176
1
 90
50
176
1
 62
256
176
0
 40
1.0
176
0
 90
2
176
1
  1
strokes_ogs.tif
176
1
290
0
176
1
 40
1.0
176
1
 40
1.0
176
1
  0
VISUALSTYLE
  5
907A
102
{ACAD_REACTORS
330
9073
102
}
330
9073
100
AcDbVisualStyle
  2
Wireframe
 70
5
177
3
291
0
 70
58
 90
0
176
1
 90
2
176
1
 90
0
176
1
 90
0
176
1
 40
0.6
176
1
 40
30.0
176
1
 62
7
420
16777215
176
1
 90
1
176
1
 90
4
176
1
 62
7
176
1
 62
257
176
1
 90
1
176
1
 90
1
176
1
 40
1.0
176
1
 90
0
176
1
 62
257
176
1
 40
1.0
176
1
 90
1
176
1
 90
6
176
1
 90
2
176
1
 62
7
176
1
 90
3
176
1
 90
0
176
1
 90
0
176
1
290
0
176
1
 90
1
176
1
 40
0.0
176
1
 90
0
176
1
290
0
176
1
290
1
176
1
290
1
176
1
290
0
176
1
290
0
176
1
290
0
176
1
290
0
176
1
290
0
176
1
290
0
176
1
 90
50
176
1
 40
0.0
176
1
 40
1.0
176
1
 90
0
176
1
 62
18
420
0
176
1
 90
50
176
1
 90
3
176
1
 62
5
420
255
176
1
290
0
176
1
 90
50
176
1
 90
50
176
1
 90
50
176
1
290
0
176
1
 90
50
176
1
 62
256
176
0
 40
1.0
176
0
 90
2
176
1
  1
strokes_ogs.tif
176
1
290
0
176
1
 40
1.0
176
1
 40
1.0
176
1
  0
VISUALSTYLE
  5
9086
102
{ACAD_REACTORS
330
9073
102
}
330
9073
100
AcDbVisualStyle
  2
X-Ray
 70
25
177
3
291
0
 70
58
 90
2
176
1
 90
2
176
1
 90
1
176
1
 90
1
176
1
 40
0.5
176
1
 40
30.0
176
1
 62
7
420
16777215
176
1
 90
1
176
1
 90
0
176
1
 62
7
176
1
 62
257
176
1
 90
1
176
1
 90
1
176
1
 40
1.0
176
1
 90
8
176
1
 62
7
176
1
 40
1.0
176
1
 90
1
176
1
 90
6
176
1
 90
2
176
1
 62
7
176
1
 90
3
176
1
 90
0
176
1
 90
0
176
1
290
0
176
1
 90
13
176
1
 40
0.0
176
1
 90
0
176
1
290
0
176
1
290
1
176
1
290
1
176
1
290
0
176
1
290
0
176
1
290
0
176
1
290
0
176
1
290
0
176
1
290
0
176
1
 90
50
176
1
 40
0.0
176
1
 40
1.0
176
1
 90
0
176
1
 62
18
420
0
176
1
 90
50
176
1
 90
3
176
1
 62
5
420
255
176
1
290
0
176
1
 90
50
176
1
 90
50
176
1
 90
50
176
1
290
0
176
1
 90
50
176
1
 62
256
176
0
 40
1.0
176
0
 90
2
176
1
  1
strokes_ogs.tif
176
1
290
0
176
1
 40
1.0
176
1
 40
1.0
176
1
  0
DICTIONARYVAR
  5
90C4
102
{ACAD_REACTORS
330
90BE
102
}
330
90BE
100
DictionaryVariables
280
0
  1
1:1
  0
DICTIONARYVAR
  5
90C0
102
{ACAD_REACTORS
330
90BE
102
}
330
90BE
100
DictionaryVariables
280
0
  1
STANDARD
  0
DICTIONARYVAR
  5
90BF
102
{ACAD_REACTORS
330
90BE
102
}
330
90BE
100
DictionaryVariables
280
0
  1
STANDARD
  0
DICTIONARYVAR
  5
90C1
102
{ACAD_REACTORS
330
90BE
102
}
330
90BE
100
DictionaryVariables
280
0
  1
Imperial24
  0
DICTIONARYVAR
  5
90C2
102
{ACAD_REACTORS
330
90BE
102
}
330
90BE
100
DictionaryVariables
280
0
  1
Imperial24
  0
DICTIONARYVAR
  5
90C6
102
{ACAD_REACTORS
330
90BE
102
}
330
90BE
100
DictionaryVariables
280
0
  1
1
  0
DICTIONARYVAR
  5
90C7
102
{ACAD_REACTORS
330
90BE
102
}
330
90BE
100
DictionaryVariables
280
0
  1
15
  0
DICTIONARYVAR
  5
90C5
102
{ACAD_REACTORS
330
90BE
102
}
330
90BE
100
DictionaryVariables
280
0
  1
0
  0
DICTIONARYVAR
  5
90C3
102
{ACAD_REACTORS
330
90BE
102
}
330
90BE
100
DictionaryVariables
280
0
  1
0
  0
XRECORD
  5
90BD
102
{ACAD_REACTORS
330
90BB
102
}
330
90BB
100
AcDbXrecord
280
1
  0
DICTIONARY
  5
9064
330
9063
100
AcDbDictionary
280
1
281
1
  3
BUMPTILE
360
9066
  3
DIFFUSETILE
360
9065
  3
OPACITYTILE
360
9069
  3
REFLECTIONTILE
360
9068
  3
REFRACTIONTILE
360
906A
  3
SPECULARTILE
360
9067
  0
DICTIONARY
  5
905C
330
905B
100
AcDbDictionary
280
1
281
1
  3
BUMPTILE
360
905E
  3
DIFFUSETILE
360
905D
  3
OPACITYTILE
360
9061
  3
REFLECTIONTILE
360
9060
  3
REFRACTIONTILE
360
9062
  3
SPECULARTILE
360
905F
  0
DICTIONARY
  5
906C
330
906B
100
AcDbDictionary
280
1
281
1
  3
BUMPTILE
360
906E
  3
DIFFUSETILE
360
906D
  3
OPACITYTILE
360
9071
  3
REFLECTIONTILE
360
9070
  3
REFRACTIONTILE
360
9072
  3
SPECULARTILE
360
906F
  0
DICTIONARY
  5
90C9
330
908F
100
AcDbDictionary
280
1
281
1
  3
ACAD_ROUNDTRIP_2008_TABLESTYLE_CELLSTYLEMAP
360
90CA
  0
XRECORD
  5
9066
102
{ACAD_REACTORS
330
9064
102
}
330
9064
100
AcDbXrecord
280
1
270
1
271
1
  0
XRECORD
  5
9065
102
{ACAD_REACTORS
330
9064
102
}
330
9064
100
AcDbXrecord
280
1
270
1
271
1
  0
XRECORD
  5
9069
102
{ACAD_REACTORS
330
9064
102
}
330
9064
100
AcDbXrecord
280
1
270
1
271
1
  0
XRECORD
  5
9068
102
{ACAD_REACTORS
330
9064
102
}
330
9064
100
AcDbXrecord
280
1
270
1
271
1
  0
XRECORD
  5
906A
102
{ACAD_REACTORS
330
9064
102
}
330
9064
100
AcDbXrecord
280
1
270
1
271
1
  0
XRECORD
  5
9067
102
{ACAD_REACTORS
330
9064
102
}
330
9064
100
AcDbXrecord
280
1
270
1
271
1
  0
XRECORD
  5
905E
102
{ACAD_REACTORS
330
905C
102
}
330
905C
100
AcDbXrecord
280
1
270
1
271
1
  0
XRECORD
  5
905D
102
{ACAD_REACTORS
330
905C
102
}
330
905C
100
AcDbXrecord
280
1
270
1
271
1
  0
XRECORD
  5
9061
102
{ACAD_REACTORS
330
905C
102
}
330
905C
100
AcDbXrecord
280
1
270
1
271
1
  0
XRECORD
  5
9060
102
{ACAD_REACTORS
330
905C
102
}
330
905C
100
AcDbXrecord
280
1
270
1
271
1
  0
XRECORD
  5
9062
102
{ACAD_REACTORS
330
905C
102
}
330
905C
100
AcDbXrecord
280
1
270
1
271
1
  0
XRECORD
  5
905F
102
{ACAD_REACTORS
330
905C
102
}
330
905C
100
AcDbXrecord
280
1
270
1
271
1
  0
XRECORD
  5
906E
102
{ACAD_REACTORS
330
906C
102
}
330
906C
100
AcDbXrecord
280
1
270
1
271
1
  0
XRECORD
  5
906D
102
{ACAD_REACTORS
330
906C
102
}
330
906C
100
AcDbXrecord
280
1
270
1
271
1
  0
XRECORD
  5
9071
102
{ACAD_REACTORS
330
906C
102
}
330
906C
100
AcDbXrecord
280
1
270
1
271
1
  0
XRECORD
  5
9070
102
{ACAD_REACTORS
330
906C
102
}
330
906C
100
AcDbXrecord
280
1
270
1
271
1
  0
XRECORD
  5
9072
102
{ACAD_REACTORS
330
906C
102
}
330
906C
100
AcDbXrecord
280
1
270
1
271
1
  0
XRECORD
  5
906F
102
{ACAD_REACTORS
330
906C
102
}
330
906C
100
AcDbXrecord
280
1
270
1
271
1
  0
CELLSTYLEMAP
  5
90CA
102
{ACAD_REACTORS
330
90C9
102
}
330
90C9
100
AcDbCellStyleMap
 90
3
300
CELLSTYLE
  1
TABLEFORMAT_BEGIN
 90
5
170
1
 91
0
 92
32768
 62
257
 93
1
300
CONTENTFORMAT
  1
CONTENTFORMAT_BEGIN
 90
0
 91
0
 92
512
 93
0
300

 40
0.0
140
1.0
 94
5
 62
0
340
23EE
144
0.25
309
CONTENTFORMAT_END
171
0
 94
0
309
TABLEFORMAT_END
  1
CELLSTYLE_BEGIN
 90
1
 91
1
300
_TITLE
309
CELLSTYLE_END
300
CELLSTYLE
  1
TABLEFORMAT_BEGIN
 90
5
170
1
 91
0
 92
0
 62
257
 93
1
300
CONTENTFORMAT
  1
CONTENTFORMAT_BEGIN
 90
0
 91
0
 92
512
 93
0
300

 40
0.0
140
1.0
 94
5
 62
0
340
23EE
144
0.18
309
CONTENTFORMAT_END
171
0
 94
0
309
TABLEFORMAT_END
  1
CELLSTYLE_BEGIN
 90
2
 91
1
300
_HEADER
309
CELLSTYLE_END
300
CELLSTYLE
  1
TABLEFORMAT_BEGIN
 90
5
170
1
 91
0
 92
0
 62
257
 93
1
300
CONTENTFORMAT
  1
CONTENTFORMAT_BEGIN
 90
0
 91
0
 92
512
 93
0
300

 40
0.0
140
1.0
 94
2
 62
0
340
23EE
144
0.18
309
CONTENTFORMAT_END
171
0
 94
0
309
TABLEFORMAT_END
  1
CELLSTYLE_BEGIN
 90
3
 91
2
300
_DATA
309
CELLSTYLE_END
  0
MLINESTYLE
  5
90CC
102
{ACAD_REACTORS
330
18
102
}
330
18
100
AcDbMlineStyle
  2
Standard
 70
0
  3

 62
256
 51
90.0
 52
90.0
 71
2
 49
0.5
 62
256
  6
BYLAYER
 49
-0.5
 62
256
  6
BYLAYER
  0
ENDSEC
  0
EOF
