  0
SECTION
  2
HEADER
  9
$ACADVER
  1
AC1032
  9
$ACADMAINTVER
 90
      174
  9
$DWGCODEPAGE
  3
ANSI_1252
  9
$LASTSAVEDBY
  1
sarevalo
  9
$REQUIREDVERSIONS
160
                 0
  9
$INSBASE
 10
0.0
 20
0.0
 30
0.0
  9
$EXTMIN
 10
-25000.0
 20
-12500.0
 30
0.0
  9
$EXTMAX
 10
25000.0
 20
12500.0
 30
0.0
  9
$LIMMIN
 10
0.0
 20
0.0
  9
$LIMMAX
 10
0.0
 20
0.0
  9
$ORTHOMODE
 70
     0
  9
$REGENMODE
 70
     1
  9
$FILLMODE
 70
     1
  9
$QTEXTMODE
 70
     0
  9
$MIRRTEXT
 70
     1
  9
$LTSCALE
 40
1.0
  9
$ATTMODE
 70
     1
  9
$TEXTSIZE
 40
0.0
  9
$TRACEWID
 40
0.05
  9
$TEXTSTYLE
  7
STANDARD
  9
$CLAYER
  8
0
  9
$CELTYPE
  6
CONTINUOUS
  9
$CECOLOR
 62
   256
  9
$CELTSCALE
 40
1.0
  9
$DISPSILH
 70
     0
  9
$DIMSCALE
 40
1.0
  9
$DIMASZ
 40
0.18
  9
$DIMEXO
 40
0.0625
  9
$DIMDLI
 40
0.38
  9
$DIMRND
 40
0.0
  9
$DIMDLE
 40
0.0
  9
$DIMEXE
 40
0.18
  9
$DIMTP
 40
0.0
  9
$DIMTM
 40
0.0
  9
$DIMTXT
 40
0.18
  9
$DIMCEN
 40
0.09
  9
$DIMTSZ
 40
0.0
  9
$DIMTOL
 70
     0
  9
$DIMLIM
 70
     0
  9
$DIMTIH
 70
     1
  9
$DIMTOH
 70
     1
  9
$DIMSE1
 70
     0
  9
$DIMSE2
 70
     0
  9
$DIMTAD
 70
     0
  9
$DIMZIN
 70
     0
  9
$DIMBLK
  1

  9
$DIMASO
 70
     1
  9
$DIMSHO
 70
     1
  9
$DIMPOST
  1

  9
$DIMAPOST
  1

  9
$DIMALT
 70
     0
  9
$DIMALTD
 70
     2
  9
$DIMALTF
 40
25.4
  9
$DIMLFAC
 40
1.0
  9
$DIMTOFL
 70
     0
  9
$DIMTVP
 40
0.0
  9
$DIMTIX
 70
     0
  9
$DIMSOXD
 70
     0
  9
$DIMSAH
 70
     0
  9
$DIMBLK1
  1

  9
$DIMBLK2
  1

  9
$DIMSTYLE
  2
STANDARD
  9
$DIMCLRD
 70
     0
  9
$DIMCLRE
 70
     0
  9
$DIMCLRT
 70
     0
  9
$DIMTFAC
 40
1.0
  9
$DIMGAP
 40
0.09
  9
$DIMJUST
 70
     0
  9
$DIMSD1
 70
     0
  9
$DIMSD2
 70
     0
  9
$DIMTOLJ
 70
     1
  9
$DIMTZIN
 70
     0
  9
$DIMALTZ
 70
     0
  9
$DIMALTTZ
 70
     0
  9
$DIMUPT
 70
     0
  9
$DIMDEC
 70
     4
  9
$DIMTDEC
 70
     4
  9
$DIMALTU
 70
     2
  9
$DIMALTTD
 70
     2
  9
$DIMTXSTY
  7
STANDARD
  9
$DIMAUNIT
 70
     0
  9
$DIMADEC
 70
     0
  9
$DIMALTRND
 40
0.0
  9
$DIMAZIN
 70
     0
  9
$DIMDSEP
 70
    46
  9
$DIMATFIT
 70
     3
  9
$DIMFRAC
 70
     0
  9
$DIMLDRBLK
  1

  9
$DIMLUNIT
 70
     2
  9
$DIMLWD
 70
    -2
  9
$DIMLWE
 70
    -2
  9
$DIMTMOVE
 70
     0
  9
$DIMFXL
 40
1.0
  9
$DIMFXLON
 70
     0
  9
$DIMJOGANG
 40
0.7853981633974483
  9
$DIMTFILL
 70
     0
  9
$DIMTFILLCLR
 70
     0
  9
$DIMARCSYM
 70
     0
  9
$DIMLTYPE
  6

  9
$DIMLTEX1
  6

  9
$DIMLTEX2
  6

  9
$DIMTXTDIRECTION
 70
     0
  9
$LUNITS
 70
     2
  9
$LUPREC
 70
     4
  9
$SKETCHINC
 40
0.1
  9
$FILLETRAD
 40
0.0
  9
$AUNITS
 70
     0
  9
$AUPREC
 70
     0
  9
$MENU
  1
acad
  9
$ELEVATION
 40
0.0
  9
$PELEVATION
 40
0.0
  9
$THICKNESS
 40
0.0
  9
$LIMCHECK
 70
     0
  9
$CHAMFERA
 40
0.0
  9
$CHAMFERB
 40
0.0
  9
$CHAMFERC
 40
0.0
  9
$CHAMFERD
 40
0.0
  9
$SKPOLY
 70
     0
  9
$TDCREATE
 40
2414622.957627315
  9
$TDUCREATE
 40
2440587.999988426
  9
$TDUPDATE
 40
2460132.419641204
  9
$TDUUPDATE
 40
2460132.711307871
  9
$TDINDWG
 40
0.0081828704
  9
$TDUSRTIMER
 40
0.0081828704
  9
$USRTIMER
 70
     1
  9
$ANGBASE
 50
0.0
  9
$ANGDIR
 70
     0
  9
$PDMODE
 70
     0
  9
$PDSIZE
 40
0.0
  9
$PLINEWID
 40
0.0
  9
$SPLFRAME
 70
     0
  9
$SPLINETYPE
 70
     6
  9
$SPLINESEGS
 70
     8
  9
$HANDSEED
  5
37D5
  9
$SURFTAB1
 70
     6
  9
$SURFTAB2
 70
     6
  9
$SURFTYPE
 70
     6
  9
$SURFU
 70
     6
  9
$SURFV
 70
     6
  9
$UCSBASE
  2

  9
$UCSNAME
  2

  9
$UCSORG
 10
0.0
 20
0.0
 30
0.0
  9
$UCSXDIR
 10
1.0
 20
0.0
 30
0.0
  9
$UCSYDIR
 10
0.0
 20
1.0
 30
0.0
  9
$UCSORTHOREF
  2

  9
$UCSORTHOVIEW
 70
     0
  9
$UCSORGTOP
 10
0.0
 20
0.0
 30
0.0
  9
$UCSORGBOTTOM
 10
0.0
 20
0.0
 30
0.0
  9
$UCSORGLEFT
 10
0.0
 20
0.0
 30
0.0
  9
$UCSORGRIGHT
 10
0.0
 20
0.0
 30
0.0
  9
$UCSORGFRONT
 10
0.0
 20
0.0
 30
0.0
  9
$UCSORGBACK
 10
0.0
 20
0.0
 30
0.0
  9
$PUCSBASE
  2

  9
$PUCSNAME
  2

  9
$PUCSORG
 10
0.0
 20
0.0
 30
0.0
  9
$PUCSXDIR
 10
1.0
 20
0.0
 30
0.0
  9
$PUCSYDIR
 10
0.0
 20
1.0
 30
0.0
  9
$PUCSORTHOREF
  2

  9
$PUCSORTHOVIEW
 70
     0
  9
$PUCSORGTOP
 10
0.0
 20
0.0
 30
0.0
  9
$PUCSORGBOTTOM
 10
0.0
 20
0.0
 30
0.0
  9
$PUCSORGLEFT
 10
0.0
 20
0.0
 30
0.0
  9
$PUCSORGRIGHT
 10
0.0
 20
0.0
 30
0.0
  9
$PUCSORGFRONT
 10
0.0
 20
0.0
 30
0.0
  9
$PUCSORGBACK
 10
0.0
 20
0.0
 30
0.0
  9
$USERI1
 70
    -4
  9
$USERI2
 70
     0
  9
$USERI3
 70
     0
  9
$USERI4
 70
     0
  9
$USERI5
 70
     0
  9
$USERR1
 40
0.0
  9
$USERR2
 40
0.0
  9
$USERR3
 40
0.0
  9
$USERR4
 40
0.0
  9
$USERR5
 40
0.0
  9
$WORLDVIEW
 70
     1
  9
$SHADEDGE
 70
     3
  9
$SHADEDIF
 70
    70
  9
$TILEMODE
 70
     1
  9
$MAXACTVP
 70
    16
  9
$PINSBASE
 10
0.0
 20
0.0
 30
0.0
  9
$PLIMCHECK
 70
     0
  9
$PEXTMIN
 10
1.000000000000000E+20
 20
1.000000000000000E+20
 30
1.000000000000000E+20
  9
$PEXTMAX
 10
-1.000000000000000E+20
 20
-1.000000000000000E+20
 30
-1.000000000000000E+20
  9
$PLIMMIN
 10
0.0
 20
0.0
  9
$PLIMMAX
 10
12.0
 20
9.0
  9
$UNITMODE
 70
     0
  9
$VISRETAIN
 70
     0
  9
$PLINEGEN
 70
     1
  9
$PSLTSCALE
 70
     0
  9
$TREEDEPTH
 70
  3020
  9
$CMLSTYLE
  2
STANDARD
  9
$CMLJUST
 70
     0
  9
$CMLSCALE
 40
1.0
  9
$PROXYGRAPHICS
 70
     0
  9
$MEASUREMENT
 70
     0
  9
$CELWEIGHT
370
    -1
  9
$ENDCAPS
280
     0
  9
$JOINSTYLE
280
     0
  9
$LWDISPLAY
290
     0
  9
$INSUNITS
 70
     0
  9
$HYPERLINKBASE
  1

  9
$STYLESHEET
  1

  9
$XEDIT
290
     1
  9
$CEPSNTYPE
380
     0
  9
$PSTYLEMODE
290
     1
  9
$FINGERPRINTGUID
  2
{FC578A2B-59DB-874F-8DA1-30FB6797ABE3}
  9
$VERSIONGUID
  2
{F87EC52B-7770-E440-8F20-800B8DF2377D}
  9
$EXTNAMES
290
     1
  9
$PSVPSCALE
 40
0.0
  9
$OLESTARTUP
290
     0
  9
$SORTENTS
280
   127
  9
$INDEXCTL
280
     0
  9
$HIDETEXT
280
     0
  9
$XCLIPFRAME
280
     2
  9
$HALOGAP
280
     0
  9
$OBSCOLOR
 70
   257
  9
$OBSLTYPE
280
     0
  9
$INTERSECTIONDISPLAY
280
     0
  9
$INTERSECTIONCOLOR
 70
   257
  9
$DIMASSOC
280
     1
  9
$PROJECTNAME
  1

  9
$CAMERADISPLAY
290
     0
  9
$LENSLENGTH
 40
50.0
  9
$CAMERAHEIGHT
 40
0.0
  9
$STEPSPERSEC
 40
2.0
  9
$STEPSIZE
 40
6.0
  9
$3DDWFPREC
 40
2.0
  9
$PSOLWIDTH
 40
0.25
  9
$PSOLHEIGHT
 40
4.0
  9
$LOFTANG1
 40
1.570796326794896
  9
$LOFTANG2
 40
1.570796326794896
  9
$LOFTMAG1
 40
0.0
  9
$LOFTMAG2
 40
0.0
  9
$LOFTPARAM
 70
     7
  9
$LOFTNORMALS
280
     1
  9
$LATITUDE
 40
37.795
  9
$LONGITUDE
 40
-122.394
  9
$NORTHDIRECTION
 40
0.0
  9
$TIMEZONE
 70
 -8000
  9
$LIGHTGLYPHDISPLAY
280
     1
  9
$TILEMODELIGHTSYNCH
280
     1
  9
$CMATERIAL
347
3754
  9
$SOLIDHIST
280
     0
  9
$SHOWHIST
280
     1
  9
$DWFFRAME
280
     2
  9
$DGNFRAME
280
     0
  9
$REALWORLDSCALE
290
     1
  9
$INTERFERECOLOR
 62
     1
  9
$INTERFEREOBJVS
345
3776
  9
$INTERFEREVPVS
346
3773
  9
$CSHADOW
280
     0
  9
$SHADOWPLANELOCATION
 40
0.0
  0
ENDSEC
  0
SECTION
  2
CLASSES
  0
CLASS
  1
IMAGE
  2
AcDbRasterImage
  3
ISM
 90
     2175
 91
        0
280
     0
281
     1
  0
CLASS
  1
DICTIONARYVAR
  2
AcDbDictionaryVar
  3
ObjectDBX Classes
 90
        0
 91
        9
280
     0
281
     0
  0
CLASS
  1
RASTERVARIABLES
  2
AcDbRasterVariables
  3
ISM
 90
        0
 91
        0
280
     0
281
     0
  0
CLASS
  1
IMAGEDEF
  2
AcDbRasterImageDef
  3
ISM
 90
        0
 91
        0
280
     0
281
     0
  0
CLASS
  1
IMAGEDEF_REACTOR
  2
AcDbRasterImageDefReactor
  3
ISM
 90
        1
 91
        0
280
     0
281
     0
  0
CLASS
  1
IDBUFFER
  2
AcDbIdBuffer
  3
ObjectDBX Classes
 90
        0
 91
        0
280
     0
281
     0
  0
CLASS
  1
SPATIAL_FILTER
  2
AcDbSpatialFilter
  3
ObjectDBX Classes
 90
        0
 91
        0
280
     0
281
     0
  0
CLASS
  1
SORTENTSTABLE
  2
AcDbSortentsTable
  3
ObjectDBX Classes
 90
        0
 91
        0
280
     0
281
     0
  0
CLASS
  1
LAYER_INDEX
  2
AcDbLayerIndex
  3
ObjectDBX Classes
 90
        0
 91
        0
280
     0
281
     0
  0
CLASS
  1
SPATIAL_INDEX
  2
AcDbSpatialIndex
  3
ObjectDBX Classes
 90
        0
 91
        0
280
     0
281
     0
  0
CLASS
  1
OBJECT_PTR
  2
CAseDLPNTableRecord
  3
ASE-LPNTableRecord
 90
        1
 91
        0
280
     0
281
     0
  0
CLASS
  1
PLOTSETTINGS
  2
AcDbPlotSettings
  3
ObjectDBX Classes
 90
        0
 91
        0
280
     0
281
     0
  0
CLASS
  1
ACDBDICTIONARYWDFLT
  2
AcDbDictionaryWithDefault
  3
ObjectDBX Classes
 90
        0
 91
        1
280
     0
281
     0
  0
CLASS
  1
WIPEOUT
  2
AcDbWipeout
  3
WipeOut|Product Desc: Object Enabler for WipeOut entity | Company: Autodesk, Inc. | WEB Address: www.autodesk.com
 90
     2175
 91
        0
280
     0
281
     1
  0
CLASS
  1
WIPEOUTVARIABLES
  2
AcDbWipeoutVariables
  3
"WipeOut|Product Desc:     WipeOut Dbx Application|Company:          Autodesk, Inc.|WEB Address:      www.autodesk.com"
 90
        0
 91
        0
280
     0
281
     0
  0
CLASS
  1
RTEXT
  2
RText
  3
RText|AutoCAD Express Tool|expresstools@autodesk.com
 90
     3071
 91
        0
280
     0
281
     1
  0
CLASS
  1
ARCALIGNEDTEXT
  2
AcDbArcAlignedText
  3
ATEXT|AutoCAD Express Tool|expresstools@autodesk.com
 90
        0
 91
        0
280
     0
281
     1
  0
CLASS
  1
MATERIAL
  2
AcDbMaterial
  3
ObjectDBX Classes
 90
     1153
 91
        3
280
     0
281
     0
  0
CLASS
  1
VISUALSTYLE
  2
AcDbVisualStyle
  3
ObjectDBX Classes
 90
     4095
 91
       24
280
     0
281
     0
  0
CLASS
  1
TABLESTYLE
  2
AcDbTableStyle
  3
ObjectDBX Classes
 90
     4095
 91
        1
280
     0
281
     0
  0
CLASS
  1
SCALE
  2
AcDbScale
  3
ObjectDBX Classes
 90
     1153
 91
       17
280
     0
281
     0
  0
CLASS
  1
MLEADERSTYLE
  2
AcDbMLeaderStyle
  3
ACDB_MLEADERSTYLE_CLASS
 90
     4095
 91
        1
280
     0
281
     0
  0
CLASS
  1
ACDBSECTIONVIEWSTYLE
  2
AcDbSectionViewStyle
  3
ObjectDBX Classes
 90
     1025
 91
        1
280
     0
281
     0
  0
CLASS
  1
ACDBDETAILVIEWSTYLE
  2
AcDbDetailViewStyle
  3
ObjectDBX Classes
 90
     1025
 91
        1
280
     0
281
     0
  0
CLASS
  1
CELLSTYLEMAP
  2
AcDbCellStyleMap
  3
ObjectDBX Classes
 90
     1152
 91
        2
280
     0
281
     0
  0
CLASS
  1
RAPIDRTRENDERSETTINGS
  2
AcDbRapidRTRenderSettings
  3
ObjectDBX Classes
 90
     1024
 91
        7
280
     0
281
     0
  0
ENDSEC
  0
SECTION
  2
TABLES
  0
TABLE
  2
VPORT
  5
7
330
0
100
AcDbSymbolTable
 70
     1
  0
VPORT
  5
13
330
7
100
AcDbSymbolTableRecord
100
AcDbViewportTableRecord
  2
*ACTIVE
 70
     0
 10
0.0
 20
0.0
 11
1.0
 21
1.0
 12
-24972.58280886417
 22
-12493.65123631553
 13
0.0
 23
0.0
 14
1.0
 24
1.0
 15
0.0
 25
0.0
 16
0.0
 26
0.0
 36
1.0
 17
0.0
 27
0.0
 37
0.0
 40
40.89843356907659
 41
2.824398249452954
 42
50.0
 43
0.0
 44
0.0
 50
0.0
 51
0.0
 71
     0
 72
   100
 73
     1
 74
     1
 75
     0
 76
     0
 77
     0
 78
     0
281
     0
 65
     1
110
0.0
120
0.0
130
0.0
111
1.0
121
0.0
131
0.0
112
0.0
122
1.0
132
0.0
 79
     0
146
0.0
348
3772
 60
     3
 61
     5
292
     1
282
     1
141
0.0
142
0.0
 63
   250
421
  3355443
1001
ACAD_NAV_VCDISPLAY
1070
     3
  0
ENDTAB
  0
TABLE
  2
LTYPE
  5
4
330
0
100
AcDbSymbolTable
 70
     2
  0
LTYPE
  5
10
330
4
100
AcDbSymbolTableRecord
100
AcDbLinetypeTableRecord
  2
BYBLOCK
 70
     0
  3

 72
    65
 73
     0
 40
0.0
  0
LTYPE
  5
11
330
4
100
AcDbSymbolTableRecord
100
AcDbLinetypeTableRecord
  2
BYLAYER
 70
     0
  3

 72
    65
 73
     0
 40
0.0
  0
LTYPE
  5
12
330
4
100
AcDbSymbolTableRecord
100
AcDbLinetypeTableRecord
  2
CONTINUOUS
 70
     0
  3
Solid Line
 72
    65
 73
     0
 40
0.0
  0
ENDTAB
  0
TABLE
  2
LAYER
  5
2
330
0
100
AcDbSymbolTable
 70
     3
  0
LAYER
  5
F88
102
{ACAD_XDICTIONARY
360
37A7
102
}
330
2
100
AcDbSymbolTableRecord
100
AcDbLayerTableRecord
  2
0
 70
     0
 62
     7
  6
CONTINUOUS
370
    -3
390
3752
347
3764
348
0
  0
LAYER
  5
F89
102
{ACAD_XDICTIONARY
360
37A9
102
}
330
2
100
AcDbSymbolTableRecord
100
AcDbLayerTableRecord
  2
PKG_OUTLINE
 70
     0
 62
    37
  6
CONTINUOUS
370
    -3
390
3752
347
3764
348
0
  0
LAYER
  5
F8A
102
{ACAD_XDICTIONARY
360
37AB
102
}
330
2
100
AcDbSymbolTableRecord
100
AcDbLayerTableRecord
  2
SOLDERMASK_PADS_BTM
 70
     0
 62
   150
  6
CONTINUOUS
370
    -3
390
3752
347
3764
348
0
  0
ENDTAB
  0
TABLE
  2
STYLE
  5
3
330
0
100
AcDbSymbolTable
 70
     1
  0
STYLE
  5
F8B
330
3
100
AcDbSymbolTableRecord
100
AcDbTextStyleTableRecord
  2
STANDARD
 70
     0
 40
0.0
 41
1.0
 50
0.0
 71
     0
 42
0.0
  3
txt
  4

  0
ENDTAB
  0
TABLE
  2
VIEW
  5
5
330
0
100
AcDbSymbolTable
 70
     0
  0
ENDTAB
  0
TABLE
  2
UCS
  5
6
330
0
100
AcDbSymbolTable
 70
     0
  0
ENDTAB
  0
TABLE
  2
APPID
  5
8
330
0
100
AcDbSymbolTable
 70
     4
  0
APPID
  5
14
330
8
100
AcDbSymbolTableRecord
100
AcDbRegAppTableRecord
  2
ACAD
 70
     0
  0
APPID
  5
37AF
330
8
100
AcDbSymbolTableRecord
100
AcDbRegAppTableRecord
  2
DCO15
 70
     0
  0
APPID
  5
37BB
330
8
100
AcDbSymbolTableRecord
100
AcDbRegAppTableRecord
  2
ACAD_NAV_VCDISPLAY
 70
     0
  0
APPID
  5
37CB
330
8
100
AcDbSymbolTableRecord
100
AcDbRegAppTableRecord
  2
ACAD_EXEMPT_FROM_CAD_STANDARDS
 70
     0
  0
ENDTAB
  0
TABLE
  2
DIMSTYLE
  5
9
330
0
100
AcDbSymbolTable
 70
     2
100
AcDbDimStyleTable
 71
     1
340
15
  0
DIMSTYLE
105
15
330
9
100
AcDbSymbolTableRecord
100
AcDbDimStyleTableRecord
  2
STANDARD
 70
     0
340
17
  0
ENDTAB
  0
TABLE
  2
BLOCK_RECORD
  5
1
330
0
100
AcDbSymbolTable
 70
     1
  0
BLOCK_RECORD
  5
A
330
1
100
AcDbSymbolTableRecord
100
AcDbBlockTableRecord
  2
*MODEL_SPACE
340
37A2
 70
     0
280
     1
281
     0
  0
BLOCK_RECORD
  5
B
330
1
100
AcDbSymbolTableRecord
100
AcDbBlockTableRecord
  2
*PAPER_SPACE
340
37A3
 70
     0
280
     1
281
     0
  0
ENDTAB
  0
ENDSEC
  0
SECTION
  2
BLOCKS
  0
BLOCK
  5
C
330
A
100
AcDbEntity
  8
0
100
AcDbBlockBegin
  2
*MODEL_SPACE
 70
     0
 10
0.0
 20
0.0
 30
0.0
  3
*MODEL_SPACE
  1

  0
ENDBLK
  5
D
330
A
100
AcDbEntity
  8
0
100
AcDbBlockEnd
  0
BLOCK
  5
E
330
B
100
AcDbEntity
 67
     1
  8
0
100
AcDbBlockBegin
  2
*PAPER_SPACE
 70
     0
 10
0.0
 20
0.0
 30
0.0
  3
*PAPER_SPACE
  1

  0
ENDBLK
  5
F
330
B
100
AcDbEntity
 67
     1
  8
0
100
AcDbBlockEnd
  0
ENDSEC
  0
SECTION
  2
ENTITIES
  0
LWPOLYLINE
  5
1B
330
A
100
AcDbEntity
  8
PKG_OUTLINE
100
AcDbPolyline
 90
        4
 70
     1
 43
0.0
 10
-25000.0
 20
-12500.0
 10
-25000.0
 20
-12475.0
 10
-24950.0
 20
-12475.0
 10
-24950.0
 20
-12500.0
  0
SOLID
  5
1C
330
A
100
AcDbEntity
  8
SOLDERMASK_PADS_BTM
100
AcDbTrace
 10
-24966.640683
 20
-12486.17832
 30
0.0
 11
-24966.440683
 21
-12486.17832
 31
0.0
 12
-24966.640683
 22
-12485.17832
 32
0.0
 13
-24966.440683
 23
-12485.17832
 33
0.0
  0
SOLID
  5
1D
330
A
100
AcDbEntity
  8
SOLDERMASK_PADS_BTM
100
AcDbTrace
 10
-24967.040683
 20
-12486.17832
 30
0.0
 11
-24966.840683
 21
-12486.17832
 31
0.0
 12
-24967.040683
 22
-12485.17832
 32
0.0
 13
-24966.840683
 23
-12485.17832
 33
0.0
  0
SOLID
  5
1E
330
A
100
AcDbEntity
  8
SOLDERMASK_PADS_BTM
100
AcDbTrace
 10
-24975.833653
 20
-12483.908011
 30
0.0
 11
-24974.833653
 21
-12483.908011
 31
0.0
 12
-24975.833653
 22
-12483.708011
 32
0.0
 13
-24974.833653
 23
-12483.708011
 33
0.0
  0
SOLID
  5
1F
330
A
100
AcDbEntity
  8
SOLDERMASK_PADS_BTM
100
AcDbTrace
 10
-24975.833653
 20
-12484.308011
 30
0.0
 11
-24974.833653
 21
-12484.308011
 31
0.0
 12
-24975.833653
 22
-12484.108011
 32
0.0
 13
-24974.833653
 23
-12484.108011
 33
0.0
  0
SOLID
  5
20
330
A
100
AcDbEntity
  8
SOLDERMASK_PADS_BTM
100
AcDbTrace
 10
-24980.82912
 20
-12483.858011
 30
0.0
 11
-24980.62912
 21
-12483.858011
 31
0.0
 12
-24980.82912
 22
-12483.708011
 32
0.0
 13
-24980.62912
 23
-12483.708011
 33
0.0
  0
SOLID
  5
21
330
A
100
AcDbEntity
  8
SOLDERMASK_PADS_BTM
100
AcDbTrace
 10
-24980.82912
 20
-12484.188011
 30
0.0
 11
-24980.62912
 21
-12484.188011
 31
0.0
 12
-24980.82912
 22
-12484.038011
 32
0.0
 13
-24980.62912
 23
-12484.038011
 33
0.0
  0
SOLID
  5
22
330
A
100
AcDbEntity
  8
SOLDERMASK_PADS_BTM
100
AcDbTrace
 10
-24976.453724
 20
-12485.645229
 30
0.0
 11
-24975.953724
 21
-12485.645229
 31
0.0
 12
-24976.453724
 22
-12485.269229
 32
0.0
 13
-24975.953724
 23
-12485.269229
 33
0.0
  0
SOLID
  5
23
330
A
100
AcDbEntity
  8
SOLDERMASK_PADS_BTM
100
AcDbTrace
 10
-24976.453724
 20
-12486.471229
 30
0.0
 11
-24975.953724
 21
-12486.471229
 31
0.0
 12
-24976.453724
 22
-12486.095229
 32
0.0
 13
-24975.953724
 23
-12486.095229
 33
0.0
  0
SOLID
  5
24
330
A
100
AcDbEntity
  8
SOLDERMASK_PADS_BTM
100
AcDbTrace
 10
-24976.665858
 20
-12484.331282
 30
0.0
 11
-24976.465858
 21
-12484.331282
 31
0.0
 12
-24976.665858
 22
-12484.181282
 32
0.0
 13
-24976.465858
 23
-12484.181282
 33
0.0
  0
SOLID
  5
25
330
A
100
AcDbEntity
  8
SOLDERMASK_PADS_BTM
100
AcDbTrace
 10
-24976.665858
 20
-12484.001282
 30
0.0
 11
-24976.465858
 21
-12484.001282
 31
0.0
 12
-24976.665858
 22
-12483.851282
 32
0.0
 13
-24976.465858
 23
-12483.851282
 33
0.0
  0
SOLID
  5
26
330
A
100
AcDbEntity
  8
SOLDERMASK_PADS_BTM
100
AcDbTrace
 10
-24976.451927
 20
-12492.799904
 30
0.0
 11
-24975.951927
 21
-12492.799904
 31
0.0
 12
-24976.451927
 22
-12492.423904
 32
0.0
 13
-24975.951927
 23
-12492.423904
 33
0.0
  0
SOLID
  5
27
330
A
100
AcDbEntity
  8
SOLDERMASK_PADS_BTM
100
AcDbTrace
 10
-24976.451927
 20
-12491.973904
 30
0.0
 11
-24975.951927
 21
-12491.973904
 31
0.0
 12
-24976.451927
 22
-12491.597904
 32
0.0
 13
-24975.951927
 23
-12491.597904
 33
0.0
  0
SOLID
  5
28
330
A
100
AcDbEntity
  8
SOLDERMASK_PADS_BTM
100
AcDbTrace
 10
-24966.640683
 20
-12487.381536
 30
0.0
 11
-24966.440683
 21
-12487.381536
 31
0.0
 12
-24966.640683
 22
-12486.381536
 32
0.0
 13
-24966.440683
 23
-12486.381536
 33
0.0
  0
SOLID
  5
29
330
A
100
AcDbEntity
  8
SOLDERMASK_PADS_BTM
100
AcDbTrace
 10
-24967.040683
 20
-12487.381536
 30
0.0
 11
-24966.840683
 21
-12487.381536
 31
0.0
 12
-24967.040683
 22
-12486.381536
 32
0.0
 13
-24966.840683
 23
-12486.381536
 33
0.0
  0
SOLID
  5
2A
330
A
100
AcDbEntity
  8
SOLDERMASK_PADS_BTM
100
AcDbTrace
 10
-24976.453724
 20
-12487.848229
 30
0.0
 11
-24975.953724
 21
-12487.848229
 31
0.0
 12
-24976.453724
 22
-12487.472229
 32
0.0
 13
-24975.953724
 23
-12487.472229
 33
0.0
  0
SOLID
  5
2B
330
A
100
AcDbEntity
  8
SOLDERMASK_PADS_BTM
100
AcDbTrace
 10
-24976.453724
 20
-12487.022229
 30
0.0
 11
-24975.953724
 21
-12487.022229
 31
0.0
 12
-24976.453724
 22
-12486.646229
 32
0.0
 13
-24975.953724
 23
-12486.646229
 33
0.0
  0
SOLID
  5
2C
330
A
100
AcDbEntity
  8
SOLDERMASK_PADS_BTM
100
AcDbTrace
 10
-24976.451927
 20
-12490.596904
 30
0.0
 11
-24975.951927
 21
-12490.596904
 31
0.0
 12
-24976.451927
 22
-12490.220904
 32
0.0
 13
-24975.951927
 23
-12490.220904
 33
0.0
  0
SOLID
  5
2D
330
A
100
AcDbEntity
  8
SOLDERMASK_PADS_BTM
100
AcDbTrace
 10
-24976.451927
 20
-12491.422904
 30
0.0
 11
-24975.951927
 21
-12491.422904
 31
0.0
 12
-24976.451927
 22
-12491.046904
 32
0.0
 13
-24975.951927
 23
-12491.046904
 33
0.0
  0
SOLID
  5
2E
330
A
100
AcDbEntity
  8
SOLDERMASK_PADS_BTM
100
AcDbTrace
 10
-24966.640683
 20
-12488.584752
 30
0.0
 11
-24966.440683
 21
-12488.584752
 31
0.0
 12
-24966.640683
 22
-12487.584752
 32
0.0
 13
-24966.440683
 23
-12487.584752
 33
0.0
  0
SOLID
  5
2F
330
A
100
AcDbEntity
  8
SOLDERMASK_PADS_BTM
100
AcDbTrace
 10
-24967.040683
 20
-12488.584752
 30
0.0
 11
-24966.840683
 21
-12488.584752
 31
0.0
 12
-24967.040683
 22
-12487.584752
 32
0.0
 13
-24966.840683
 23
-12487.584752
 33
0.0
  0
SOLID
  5
30
330
A
100
AcDbEntity
  8
SOLDERMASK_PADS_BTM
100
AcDbTrace
 10
-24976.113724
 20
-12485.094229
 30
0.0
 11
-24975.963724
 21
-12485.094229
 31
0.0
 12
-24976.113724
 22
-12484.894229
 32
0.0
 13
-24975.963724
 23
-12484.894229
 33
0.0
  0
SOLID
  5
31
330
A
100
AcDbEntity
  8
SOLDERMASK_PADS_BTM
100
AcDbTrace
 10
-24976.443724
 20
-12485.094229
 30
0.0
 11
-24976.293724
 21
-12485.094229
 31
0.0
 12
-24976.443724
 22
-12484.894229
 32
0.0
 13
-24976.293724
 23
-12484.894229
 33
0.0
  0
SOLID
  5
32
330
A
100
AcDbEntity
  8
SOLDERMASK_PADS_BTM
100
AcDbTrace
 10
-24973.108951
 20
-12485.519229
 30
0.0
 11
-24972.908951
 21
-12485.519229
 31
0.0
 12
-24973.108951
 22
-12484.519229
 32
0.0
 13
-24972.908951
 23
-12484.519229
 33
0.0
  0
SOLID
  5
33
330
A
100
AcDbEntity
  8
SOLDERMASK_PADS_BTM
100
AcDbTrace
 10
-24973.508951
 20
-12485.519229
 30
0.0
 11
-24973.308951
 21
-12485.519229
 31
0.0
 12
-24973.508951
 22
-12484.519229
 32
0.0
 13
-24973.308951
 23
-12484.519229
 33
0.0
  0
SOLID
  5
34
330
A
100
AcDbEntity
  8
SOLDERMASK_PADS_BTM
100
AcDbTrace
 10
-24976.441927
 20
-12493.174904
 30
0.0
 11
-24976.291927
 21
-12493.174904
 31
0.0
 12
-24976.441927
 22
-12492.974904
 32
0.0
 13
-24976.291927
 23
-12492.974904
 33
0.0
  0
SOLID
  5
35
330
A
100
AcDbEntity
  8
SOLDERMASK_PADS_BTM
100
AcDbTrace
 10
-24976.111927
 20
-12493.174904
 30
0.0
 11
-24975.961927
 21
-12493.174904
 31
0.0
 12
-24976.111927
 22
-12492.974904
 32
0.0
 13
-24975.961927
 23
-12492.974904
 33
0.0
  0
SOLID
  5
36
330
A
100
AcDbEntity
  8
SOLDERMASK_PADS_BTM
100
AcDbTrace
 10
-24973.107154
 20
-12493.549904
 30
0.0
 11
-24972.907154
 21
-12493.549904
 31
0.0
 12
-24973.107154
 22
-12492.549904
 32
0.0
 13
-24972.907154
 23
-12492.549904
 33
0.0
  0
SOLID
  5
37
330
A
100
AcDbEntity
  8
SOLDERMASK_PADS_BTM
100
AcDbTrace
 10
-24973.507154
 20
-12493.549904
 30
0.0
 11
-24973.307154
 21
-12493.549904
 31
0.0
 12
-24973.507154
 22
-12492.549904
 32
0.0
 13
-24973.307154
 23
-12492.549904
 33
0.0
  0
SOLID
  5
38
330
A
100
AcDbEntity
  8
SOLDERMASK_PADS_BTM
100
AcDbTrace
 10
-24966.640683
 20
-12489.862915
 30
0.0
 11
-24966.440683
 21
-12489.862915
 31
0.0
 12
-24966.640683
 22
-12488.862915
 32
0.0
 13
-24966.440683
 23
-12488.862915
 33
0.0
  0
SOLID
  5
39
330
A
100
AcDbEntity
  8
SOLDERMASK_PADS_BTM
100
AcDbTrace
 10
-24967.040683
 20
-12489.862915
 30
0.0
 11
-24966.840683
 21
-12489.862915
 31
0.0
 12
-24967.040683
 22
-12488.862915
 32
0.0
 13
-24966.840683
 23
-12488.862915
 33
0.0
  0
SOLID
  5
3A
330
A
100
AcDbEntity
  8
SOLDERMASK_PADS_BTM
100
AcDbTrace
 10
-24966.640683
 20
-12492.269347
 30
0.0
 11
-24966.440683
 21
-12492.269347
 31
0.0
 12
-24966.640683
 22
-12491.269347
 32
0.0
 13
-24966.440683
 23
-12491.269347
 33
0.0
  0
SOLID
  5
3B
330
A
100
AcDbEntity
  8
SOLDERMASK_PADS_BTM
100
AcDbTrace
 10
-24967.040683
 20
-12492.269347
 30
0.0
 11
-24966.840683
 21
-12492.269347
 31
0.0
 12
-24967.040683
 22
-12491.269347
 32
0.0
 13
-24966.840683
 23
-12491.269347
 33
0.0
  0
SOLID
  5
3C
330
A
100
AcDbEntity
  8
SOLDERMASK_PADS_BTM
100
AcDbTrace
 10
-24976.113724
 20
-12484.719229
 30
0.0
 11
-24975.963724
 21
-12484.719229
 31
0.0
 12
-24976.113724
 22
-12484.519229
 32
0.0
 13
-24975.963724
 23
-12484.519229
 33
0.0
  0
SOLID
  5
3D
330
A
100
AcDbEntity
  8
SOLDERMASK_PADS_BTM
100
AcDbTrace
 10
-24976.443724
 20
-12484.719229
 30
0.0
 11
-24976.293724
 21
-12484.719229
 31
0.0
 12
-24976.443724
 22
-12484.519229
 32
0.0
 13
-24976.293724
 23
-12484.519229
 33
0.0
  0
SOLID
  5
3E
330
A
100
AcDbEntity
  8
SOLDERMASK_PADS_BTM
100
AcDbTrace
 10
-24973.108951
 20
-12486.721413
 30
0.0
 11
-24972.908951
 21
-12486.721413
 31
0.0
 12
-24973.108951
 22
-12485.721413
 32
0.0
 13
-24972.908951
 23
-12485.721413
 33
0.0
  0
SOLID
  5
3F
330
A
100
AcDbEntity
  8
SOLDERMASK_PADS_BTM
100
AcDbTrace
 10
-24973.508951
 20
-12486.721413
 30
0.0
 11
-24973.308951
 21
-12486.721413
 31
0.0
 12
-24973.508951
 22
-12485.721413
 32
0.0
 13
-24973.308951
 23
-12485.721413
 33
0.0
  0
SOLID
  5
40
330
A
100
AcDbEntity
  8
SOLDERMASK_PADS_BTM
100
AcDbTrace
 10
-24976.441927
 20
-12493.549904
 30
0.0
 11
-24976.291927
 21
-12493.549904
 31
0.0
 12
-24976.441927
 22
-12493.349904
 32
0.0
 13
-24976.291927
 23
-12493.349904
 33
0.0
  0
SOLID
  5
41
330
A
100
AcDbEntity
  8
SOLDERMASK_PADS_BTM
100
AcDbTrace
 10
-24976.111927
 20
-12493.549904
 30
0.0
 11
-24975.961927
 21
-12493.549904
 31
0.0
 12
-24976.111927
 22
-12493.349904
 32
0.0
 13
-24975.961927
 23
-12493.349904
 33
0.0
  0
SOLID
  5
42
330
A
100
AcDbEntity
  8
SOLDERMASK_PADS_BTM
100
AcDbTrace
 10
-24973.107154
 20
-12492.34772
 30
0.0
 11
-24972.907154
 21
-12492.34772
 31
0.0
 12
-24973.107154
 22
-12491.34772
 32
0.0
 13
-24972.907154
 23
-12491.34772
 33
0.0
  0
SOLID
  5
43
330
A
100
AcDbEntity
  8
SOLDERMASK_PADS_BTM
100
AcDbTrace
 10
-24973.507154
 20
-12492.34772
 30
0.0
 11
-24973.307154
 21
-12492.34772
 31
0.0
 12
-24973.507154
 22
-12491.34772
 32
0.0
 13
-24973.307154
 23
-12491.34772
 33
0.0
  0
SOLID
  5
44
330
A
100
AcDbEntity
  8
SOLDERMASK_PADS_BTM
100
AcDbTrace
 10
-24981.975497
 20
-12484.719229
 30
0.0
 11
-24981.825497
 21
-12484.719229
 31
0.0
 12
-24981.975497
 22
-12484.519229
 32
0.0
 13
-24981.825497
 23
-12484.519229
 33
0.0
  0
SOLID
  5
45
330
A
100
AcDbEntity
  8
SOLDERMASK_PADS_BTM
100
AcDbTrace
 10
-24982.305497
 20
-12484.719229
 30
0.0
 11
-24982.155497
 21
-12484.719229
 31
0.0
 12
-24982.305497
 22
-12484.519229
 32
0.0
 13
-24982.155497
 23
-12484.519229
 33
0.0
  0
SOLID
  5
46
330
A
100
AcDbEntity
  8
SOLDERMASK_PADS_BTM
100
AcDbTrace
 10
-24966.640683
 20
-12491.066131
 30
0.0
 11
-24966.440683
 21
-12491.066131
 31
0.0
 12
-24966.640683
 22
-12490.066131
 32
0.0
 13
-24966.440683
 23
-12490.066131
 33
0.0
  0
SOLID
  5
47
330
A
100
AcDbEntity
  8
SOLDERMASK_PADS_BTM
100
AcDbTrace
 10
-24967.040683
 20
-12491.066131
 30
0.0
 11
-24966.840683
 21
-12491.066131
 31
0.0
 12
-24967.040683
 22
-12490.066131
 32
0.0
 13
-24966.840683
 23
-12490.066131
 33
0.0
  0
SOLID
  5
48
330
A
100
AcDbEntity
  8
SOLDERMASK_PADS_BTM
100
AcDbTrace
 10
-24966.640683
 20
-12493.472563
 30
0.0
 11
-24966.440683
 21
-12493.472563
 31
0.0
 12
-24966.640683
 22
-12492.472563
 32
0.0
 13
-24966.440683
 23
-12492.472563
 33
0.0
  0
SOLID
  5
49
330
A
100
AcDbEntity
  8
SOLDERMASK_PADS_BTM
100
AcDbTrace
 10
-24967.040683
 20
-12493.472563
 30
0.0
 11
-24966.840683
 21
-12493.472563
 31
0.0
 12
-24967.040683
 22
-12492.472563
 32
0.0
 13
-24966.840683
 23
-12492.472563
 33
0.0
  0
SOLID
  5
4A
330
A
100
AcDbEntity
  8
SOLDERMASK_PADS_BTM
100
AcDbTrace
 10
-24973.108951
 20
-12487.923597
 30
0.0
 11
-24972.908951
 21
-12487.923597
 31
0.0
 12
-24973.108951
 22
-12486.923597
 32
0.0
 13
-24972.908951
 23
-12486.923597
 33
0.0
  0
SOLID
  5
4B
330
A
100
AcDbEntity
  8
SOLDERMASK_PADS_BTM
100
AcDbTrace
 10
-24973.508951
 20
-12487.923597
 30
0.0
 11
-24973.308951
 21
-12487.923597
 31
0.0
 12
-24973.508951
 22
-12486.923597
 32
0.0
 13
-24973.308951
 23
-12486.923597
 33
0.0
  0
SOLID
  5
4C
330
A
100
AcDbEntity
  8
SOLDERMASK_PADS_BTM
100
AcDbTrace
 10
-24973.107154
 20
-12491.145536
 30
0.0
 11
-24972.907154
 21
-12491.145536
 31
0.0
 12
-24973.107154
 22
-12490.145536
 32
0.0
 13
-24972.907154
 23
-12490.145536
 33
0.0
  0
SOLID
  5
4D
330
A
100
AcDbEntity
  8
SOLDERMASK_PADS_BTM
100
AcDbTrace
 10
-24973.507154
 20
-12491.145536
 30
0.0
 11
-24973.307154
 21
-12491.145536
 31
0.0
 12
-24973.507154
 22
-12490.145536
 32
0.0
 13
-24973.307154
 23
-12490.145536
 33
0.0
  0
SOLID
  5
4E
330
A
100
AcDbEntity
  8
SOLDERMASK_PADS_BTM
100
AcDbTrace
 10
-24965.865683
 20
-12484.975104
 30
0.0
 11
-24965.665683
 21
-12484.975104
 31
0.0
 12
-24965.865683
 22
-12483.975104
 32
0.0
 13
-24965.665683
 23
-12483.975104
 33
0.0
  0
SOLID
  5
4F
330
A
100
AcDbEntity
  8
SOLDERMASK_PADS_BTM
100
AcDbTrace
 10
-24966.265683
 20
-12484.975104
 30
0.0
 11
-24966.065683
 21
-12484.975104
 31
0.0
 12
-24966.265683
 22
-12483.975104
 32
0.0
 13
-24966.065683
 23
-12483.975104
 33
0.0
  0
SOLID
  5
50
330
A
100
AcDbEntity
  8
SOLDERMASK_PADS_BTM
100
AcDbTrace
 10
-24974.982283
 20
-12485.519229
 30
0.0
 11
-24974.782283
 21
-12485.519229
 31
0.0
 12
-24974.982283
 22
-12484.519229
 32
0.0
 13
-24974.782283
 23
-12484.519229
 33
0.0
  0
SOLID
  5
51
330
A
100
AcDbEntity
  8
SOLDERMASK_PADS_BTM
100
AcDbTrace
 10
-24974.582283
 20
-12485.519229
 30
0.0
 11
-24974.382283
 21
-12485.519229
 31
0.0
 12
-24974.582283
 22
-12484.519229
 32
0.0
 13
-24974.382283
 23
-12484.519229
 33
0.0
  0
SOLID
  5
52
330
A
100
AcDbEntity
  8
SOLDERMASK_PADS_BTM
100
AcDbTrace
 10
-24974.980486
 20
-12493.549904
 30
0.0
 11
-24974.780486
 21
-12493.549904
 31
0.0
 12
-24974.980486
 22
-12492.549904
 32
0.0
 13
-24974.780486
 23
-12492.549904
 33
0.0
  0
SOLID
  5
53
330
A
100
AcDbEntity
  8
SOLDERMASK_PADS_BTM
100
AcDbTrace
 10
-24974.580486
 20
-12493.549904
 30
0.0
 11
-24974.380486
 21
-12493.549904
 31
0.0
 12
-24974.580486
 22
-12492.549904
 32
0.0
 13
-24974.380486
 23
-12492.549904
 33
0.0
  0
SOLID
  5
54
330
A
100
AcDbEntity
  8
SOLDERMASK_PADS_BTM
100
AcDbTrace
 10
-24984.219925
 20
-12488.405442
 30
0.0
 11
-24984.019925
 21
-12488.405442
 31
0.0
 12
-24984.219925
 22
-12487.405442
 32
0.0
 13
-24984.019925
 23
-12487.405442
 33
0.0
  0
SOLID
  5
55
330
A
100
AcDbEntity
  8
SOLDERMASK_PADS_BTM
100
AcDbTrace
 10
-24984.619925
 20
-12488.405442
 30
0.0
 11
-24984.419925
 21
-12488.405442
 31
0.0
 12
-24984.619925
 22
-12487.405442
 32
0.0
 13
-24984.419925
 23
-12487.405442
 33
0.0
  0
SOLID
  5
56
330
A
100
AcDbEntity
  8
SOLDERMASK_PADS_BTM
100
AcDbTrace
 10
-24982.669925
 20
-12489.70071
 30
0.0
 11
-24981.669925
 21
-12489.70071
 31
0.0
 12
-24982.669925
 22
-12489.50071
 32
0.0
 13
-24981.669925
 23
-12489.50071
 33
0.0
  0
SOLID
  5
57
330
A
100
AcDbEntity
  8
SOLDERMASK_PADS_BTM
100
AcDbTrace
 10
-24982.669925
 20
-12489.30071
 30
0.0
 11
-24981.669925
 21
-12489.30071
 31
0.0
 12
-24982.669925
 22
-12489.10071
 32
0.0
 13
-24981.669925
 23
-12489.10071
 33
0.0
  0
SOLID
  5
58
330
A
100
AcDbEntity
  8
SOLDERMASK_PADS_BTM
100
AcDbTrace
 10
-24965.865683
 20
-12486.17832
 30
0.0
 11
-24965.665683
 21
-12486.17832
 31
0.0
 12
-24965.865683
 22
-12485.17832
 32
0.0
 13
-24965.665683
 23
-12485.17832
 33
0.0
  0
SOLID
  5
59
330
A
100
AcDbEntity
  8
SOLDERMASK_PADS_BTM
100
AcDbTrace
 10
-24966.265683
 20
-12486.17832
 30
0.0
 11
-24966.065683
 21
-12486.17832
 31
0.0
 12
-24966.265683
 22
-12485.17832
 32
0.0
 13
-24966.065683
 23
-12485.17832
 33
0.0
  0
SOLID
  5
5A
330
A
100
AcDbEntity
  8
SOLDERMASK_PADS_BTM
100
AcDbTrace
 10
-24981.0467
 20
-12490.09227
 30
0.0
 11
-24980.8467
 21
-12490.09227
 31
0.0
 12
-24981.0467
 22
-12489.09227
 32
0.0
 13
-24980.8467
 23
-12489.09227
 33
0.0
  0
SOLID
  5
5B
330
A
100
AcDbEntity
  8
SOLDERMASK_PADS_BTM
100
AcDbTrace
 10
-24980.6467
 20
-12490.09227
 30
0.0
 11
-24980.4467
 21
-12490.09227
 31
0.0
 12
-24980.6467
 22
-12489.09227
 32
0.0
 13
-24980.4467
 23
-12489.09227
 33
0.0
  0
SOLID
  5
5C
330
A
100
AcDbEntity
  8
SOLDERMASK_PADS_BTM
100
AcDbTrace
 10
-24974.982283
 20
-12486.721413
 30
0.0
 11
-24974.782283
 21
-12486.721413
 31
0.0
 12
-24974.982283
 22
-12485.721413
 32
0.0
 13
-24974.782283
 23
-12485.721413
 33
0.0
  0
SOLID
  5
5D
330
A
100
AcDbEntity
  8
SOLDERMASK_PADS_BTM
100
AcDbTrace
 10
-24974.582283
 20
-12486.721413
 30
0.0
 11
-24974.382283
 21
-12486.721413
 31
0.0
 12
-24974.582283
 22
-12485.721413
 32
0.0
 13
-24974.382283
 23
-12485.721413
 33
0.0
  0
SOLID
  5
5E
330
A
100
AcDbEntity
  8
SOLDERMASK_PADS_BTM
100
AcDbTrace
 10
-24974.980486
 20
-12492.34772
 30
0.0
 11
-24974.780486
 21
-12492.34772
 31
0.0
 12
-24974.980486
 22
-12491.34772
 32
0.0
 13
-24974.780486
 23
-12491.34772
 33
0.0
  0
SOLID
  5
5F
330
A
100
AcDbEntity
  8
SOLDERMASK_PADS_BTM
100
AcDbTrace
 10
-24974.580486
 20
-12492.34772
 30
0.0
 11
-24974.380486
 21
-12492.34772
 31
0.0
 12
-24974.580486
 22
-12491.34772
 32
0.0
 13
-24974.380486
 23
-12491.34772
 33
0.0
  0
SOLID
  5
60
330
A
100
AcDbEntity
  8
SOLDERMASK_PADS_BTM
100
AcDbTrace
 10
-24985.394925
 20
-12486.84249
 30
0.0
 11
-24985.194925
 21
-12486.84249
 31
0.0
 12
-24985.394925
 22
-12485.84249
 32
0.0
 13
-24985.194925
 23
-12485.84249
 33
0.0
  0
SOLID
  5
61
330
A
100
AcDbEntity
  8
SOLDERMASK_PADS_BTM
100
AcDbTrace
 10
-24984.994925
 20
-12486.84249
 30
0.0
 11
-24984.794925
 21
-12486.84249
 31
0.0
 12
-24984.994925
 22
-12485.84249
 32
0.0
 13
-24984.794925
 23
-12485.84249
 33
0.0
  0
SOLID
  5
62
330
A
100
AcDbEntity
  8
SOLDERMASK_PADS_BTM
100
AcDbTrace
 10
-24983.987497
 20
-12492.95789
 30
0.0
 11
-24983.787497
 21
-12492.95789
 31
0.0
 12
-24983.987497
 22
-12491.95789
 32
0.0
 13
-24983.787497
 23
-12491.95789
 33
0.0
  0
SOLID
  5
63
330
A
100
AcDbEntity
  8
SOLDERMASK_PADS_BTM
100
AcDbTrace
 10
-24984.387497
 20
-12492.95789
 30
0.0
 11
-24984.187497
 21
-12492.95789
 31
0.0
 12
-24984.387497
 22
-12491.95789
 32
0.0
 13
-24984.187497
 23
-12491.95789
 33
0.0
  0
SOLID
  5
64
330
A
100
AcDbEntity
  8
SOLDERMASK_PADS_BTM
100
AcDbTrace
 10
-24965.865683
 20
-12487.381536
 30
0.0
 11
-24965.665683
 21
-12487.381536
 31
0.0
 12
-24965.865683
 22
-12486.381536
 32
0.0
 13
-24965.665683
 23
-12486.381536
 33
0.0
  0
SOLID
  5
65
330
A
100
AcDbEntity
  8
SOLDERMASK_PADS_BTM
100
AcDbTrace
 10
-24966.265683
 20
-12487.381536
 30
0.0
 11
-24966.065683
 21
-12487.381536
 31
0.0
 12
-24966.265683
 22
-12486.381536
 32
0.0
 13
-24966.065683
 23
-12486.381536
 33
0.0
  0
SOLID
  5
66
330
A
100
AcDbEntity
  8
SOLDERMASK_PADS_BTM
100
AcDbTrace
 10
-24983.7967
 20
-12493.73289
 30
0.0
 11
-24982.7967
 21
-12493.73289
 31
0.0
 12
-24983.7967
 22
-12493.53289
 32
0.0
 13
-24982.7967
 23
-12493.53289
 33
0.0
  0
SOLID
  5
67
330
A
100
AcDbEntity
  8
SOLDERMASK_PADS_BTM
100
AcDbTrace
 10
-24983.7967
 20
-12493.33289
 30
0.0
 11
-24982.7967
 21
-12493.33289
 31
0.0
 12
-24983.7967
 22
-12493.13289
 32
0.0
 13
-24982.7967
 23
-12493.13289
 33
0.0
  0
SOLID
  5
68
330
A
100
AcDbEntity
  8
SOLDERMASK_PADS_BTM
100
AcDbTrace
 10
-24974.982283
 20
-12487.923597
 30
0.0
 11
-24974.782283
 21
-12487.923597
 31
0.0
 12
-24974.982283
 22
-12486.923597
 32
0.0
 13
-24974.782283
 23
-12486.923597
 33
0.0
  0
SOLID
  5
69
330
A
100
AcDbEntity
  8
SOLDERMASK_PADS_BTM
100
AcDbTrace
 10
-24974.582283
 20
-12487.923597
 30
0.0
 11
-24974.382283
 21
-12487.923597
 31
0.0
 12
-24974.582283
 22
-12486.923597
 32
0.0
 13
-24974.382283
 23
-12486.923597
 33
0.0
  0
SOLID
  5
6A
330
A
100
AcDbEntity
  8
SOLDERMASK_PADS_BTM
100
AcDbTrace
 10
-24981.4467
 20
-12492.55789
 30
0.0
 11
-24980.4467
 21
-12492.55789
 31
0.0
 12
-24981.4467
 22
-12492.35789
 32
0.0
 13
-24980.4467
 23
-12492.35789
 33
0.0
  0
SOLID
  5
6B
330
A
100
AcDbEntity
  8
SOLDERMASK_PADS_BTM
100
AcDbTrace
 10
-24981.4467
 20
-12492.95789
 30
0.0
 11
-24980.4467
 21
-12492.95789
 31
0.0
 12
-24981.4467
 22
-12492.75789
 32
0.0
 13
-24980.4467
 23
-12492.75789
 33
0.0
  0
SOLID
  5
6C
330
A
100
AcDbEntity
  8
SOLDERMASK_PADS_BTM
100
AcDbTrace
 10
-24974.980486
 20
-12491.145536
 30
0.0
 11
-24974.780486
 21
-12491.145536
 31
0.0
 12
-24974.980486
 22
-12490.145536
 32
0.0
 13
-24974.780486
 23
-12490.145536
 33
0.0
  0
SOLID
  5
6D
330
A
100
AcDbEntity
  8
SOLDERMASK_PADS_BTM
100
AcDbTrace
 10
-24974.580486
 20
-12491.145536
 30
0.0
 11
-24974.380486
 21
-12491.145536
 31
0.0
 12
-24974.580486
 22
-12490.145536
 32
0.0
 13
-24974.380486
 23
-12490.145536
 33
0.0
  0
SOLID
  5
6E
330
A
100
AcDbEntity
  8
SOLDERMASK_PADS_BTM
100
AcDbTrace
 10
-24983.800306
 20
-12483.887229
 30
0.0
 11
-24983.600306
 21
-12483.887229
 31
0.0
 12
-24983.800306
 22
-12483.737229
 32
0.0
 13
-24983.600306
 23
-12483.737229
 33
0.0
  0
SOLID
  5
6F
330
A
100
AcDbEntity
  8
SOLDERMASK_PADS_BTM
100
AcDbTrace
 10
-24983.800306
 20
-12484.217229
 30
0.0
 11
-24983.600306
 21
-12484.217229
 31
0.0
 12
-24983.800306
 22
-12484.067229
 32
0.0
 13
-24983.600306
 23
-12484.067229
 33
0.0
  0
SOLID
  5
70
330
A
100
AcDbEntity
  8
SOLDERMASK_PADS_BTM
100
AcDbTrace
 10
-24965.865683
 20
-12488.584752
 30
0.0
 11
-24965.665683
 21
-12488.584752
 31
0.0
 12
-24965.865683
 22
-12487.584752
 32
0.0
 13
-24965.665683
 23
-12487.584752
 33
0.0
  0
SOLID
  5
71
330
A
100
AcDbEntity
  8
SOLDERMASK_PADS_BTM
100
AcDbTrace
 10
-24966.265683
 20
-12488.584752
 30
0.0
 11
-24966.065683
 21
-12488.584752
 31
0.0
 12
-24966.265683
 22
-12487.584752
 32
0.0
 13
-24966.065683
 23
-12487.584752
 33
0.0
  0
SOLID
  5
72
330
A
100
AcDbEntity
  8
SOLDERMASK_PADS_BTM
100
AcDbTrace
 10
-24974.6506
 20
-12483.887229
 30
0.0
 11
-24974.4506
 21
-12483.887229
 31
0.0
 12
-24974.6506
 22
-12483.737229
 32
0.0
 13
-24974.4506
 23
-12483.737229
 33
0.0
  0
SOLID
  5
73
330
A
100
AcDbEntity
  8
SOLDERMASK_PADS_BTM
100
AcDbTrace
 10
-24974.6506
 20
-12484.217229
 30
0.0
 11
-24974.4506
 21
-12484.217229
 31
0.0
 12
-24974.6506
 22
-12484.067229
 32
0.0
 13
-24974.4506
 23
-12484.067229
 33
0.0
  0
SOLID
  5
74
330
A
100
AcDbEntity
  8
SOLDERMASK_PADS_BTM
100
AcDbTrace
 10
-24974.195617
 20
-12485.645229
 30
0.0
 11
-24973.695617
 21
-12485.645229
 31
0.0
 12
-24974.195617
 22
-12485.269229
 32
0.0
 13
-24973.695617
 23
-12485.269229
 33
0.0
  0
SOLID
  5
75
330
A
100
AcDbEntity
  8
SOLDERMASK_PADS_BTM
100
AcDbTrace
 10
-24974.195617
 20
-12486.471229
 30
0.0
 11
-24973.695617
 21
-12486.471229
 31
0.0
 12
-24974.195617
 22
-12486.095229
 32
0.0
 13
-24973.695617
 23
-12486.095229
 33
0.0
  0
SOLID
  5
76
330
A
100
AcDbEntity
  8
SOLDERMASK_PADS_BTM
100
AcDbTrace
 10
-24976.216706
 20
-12483.887229
 30
0.0
 11
-24976.016706
 21
-12483.887229
 31
0.0
 12
-24976.216706
 22
-12483.737229
 32
0.0
 13
-24976.016706
 23
-12483.737229
 33
0.0
  0
SOLID
  5
77
330
A
100
AcDbEntity
  8
SOLDERMASK_PADS_BTM
100
AcDbTrace
 10
-24976.216706
 20
-12484.217229
 30
0.0
 11
-24976.016706
 21
-12484.217229
 31
0.0
 12
-24976.216706
 22
-12484.067229
 32
0.0
 13
-24976.016706
 23
-12484.067229
 33
0.0
  0
SOLID
  5
78
330
A
100
AcDbEntity
  8
SOLDERMASK_PADS_BTM
100
AcDbTrace
 10
-24974.19382
 20
-12492.799904
 30
0.0
 11
-24973.69382
 21
-12492.799904
 31
0.0
 12
-24974.19382
 22
-12492.423904
 32
0.0
 13
-24973.69382
 23
-12492.423904
 33
0.0
  0
SOLID
  5
79
330
A
100
AcDbEntity
  8
SOLDERMASK_PADS_BTM
100
AcDbTrace
 10
-24974.19382
 20
-12491.973904
 30
0.0
 11
-24973.69382
 21
-12491.973904
 31
0.0
 12
-24974.19382
 22
-12491.597904
 32
0.0
 13
-24973.69382
 23
-12491.597904
 33
0.0
  0
SOLID
  5
7A
330
A
100
AcDbEntity
  8
SOLDERMASK_PADS_BTM
100
AcDbTrace
 10
-24965.865683
 20
-12489.862915
 30
0.0
 11
-24965.665683
 21
-12489.862915
 31
0.0
 12
-24965.865683
 22
-12488.862915
 32
0.0
 13
-24965.665683
 23
-12488.862915
 33
0.0
  0
SOLID
  5
7B
330
A
100
AcDbEntity
  8
SOLDERMASK_PADS_BTM
100
AcDbTrace
 10
-24966.265683
 20
-12489.862915
 30
0.0
 11
-24966.065683
 21
-12489.862915
 31
0.0
 12
-24966.265683
 22
-12488.862915
 32
0.0
 13
-24966.065683
 23
-12488.862915
 33
0.0
  0
SOLID
  5
7C
330
A
100
AcDbEntity
  8
SOLDERMASK_PADS_BTM
100
AcDbTrace
 10
-24974.195617
 20
-12487.848229
 30
0.0
 11
-24973.695617
 21
-12487.848229
 31
0.0
 12
-24974.195617
 22
-12487.472229
 32
0.0
 13
-24973.695617
 23
-12487.472229
 33
0.0
  0
SOLID
  5
7D
330
A
100
AcDbEntity
  8
SOLDERMASK_PADS_BTM
100
AcDbTrace
 10
-24974.195617
 20
-12487.022229
 30
0.0
 11
-24973.695617
 21
-12487.022229
 31
0.0
 12
-24974.195617
 22
-12486.646229
 32
0.0
 13
-24973.695617
 23
-12486.646229
 33
0.0
  0
SOLID
  5
7E
330
A
100
AcDbEntity
  8
SOLDERMASK_PADS_BTM
100
AcDbTrace
 10
-24974.19382
 20
-12490.596904
 30
0.0
 11
-24973.69382
 21
-12490.596904
 31
0.0
 12
-24974.19382
 22
-12490.220904
 32
0.0
 13
-24973.69382
 23
-12490.220904
 33
0.0
  0
SOLID
  5
7F
330
A
100
AcDbEntity
  8
SOLDERMASK_PADS_BTM
100
AcDbTrace
 10
-24974.19382
 20
-12491.422904
 30
0.0
 11
-24973.69382
 21
-12491.422904
 31
0.0
 12
-24974.19382
 22
-12491.046904
 32
0.0
 13
-24973.69382
 23
-12491.046904
 33
0.0
  0
SOLID
  5
80
330
A
100
AcDbEntity
  8
SOLDERMASK_PADS_BTM
100
AcDbTrace
 10
-24965.865683
 20
-12491.066131
 30
0.0
 11
-24965.665683
 21
-12491.066131
 31
0.0
 12
-24965.865683
 22
-12490.066131
 32
0.0
 13
-24965.665683
 23
-12490.066131
 33
0.0
  0
SOLID
  5
81
330
A
100
AcDbEntity
  8
SOLDERMASK_PADS_BTM
100
AcDbTrace
 10
-24966.265683
 20
-12491.066131
 30
0.0
 11
-24966.065683
 21
-12491.066131
 31
0.0
 12
-24966.265683
 22
-12490.066131
 32
0.0
 13
-24966.065683
 23
-12490.066131
 33
0.0
  0
SOLID
  5
82
330
A
100
AcDbEntity
  8
SOLDERMASK_PADS_BTM
100
AcDbTrace
 10
-24973.855617
 20
-12485.094229
 30
0.0
 11
-24973.705617
 21
-12485.094229
 31
0.0
 12
-24973.855617
 22
-12484.894229
 32
0.0
 13
-24973.705617
 23
-12484.894229
 33
0.0
  0
SOLID
  5
83
330
A
100
AcDbEntity
  8
SOLDERMASK_PADS_BTM
100
AcDbTrace
 10
-24974.185617
 20
-12485.094229
 30
0.0
 11
-24974.035617
 21
-12485.094229
 31
0.0
 12
-24974.185617
 22
-12484.894229
 32
0.0
 13
-24974.035617
 23
-12484.894229
 33
0.0
  0
SOLID
  5
84
330
A
100
AcDbEntity
  8
SOLDERMASK_PADS_BTM
100
AcDbTrace
 10
-24974.18382
 20
-12493.174904
 30
0.0
 11
-24974.03382
 21
-12493.174904
 31
0.0
 12
-24974.18382
 22
-12492.974904
 32
0.0
 13
-24974.03382
 23
-12492.974904
 33
0.0
  0
SOLID
  5
85
330
A
100
AcDbEntity
  8
SOLDERMASK_PADS_BTM
100
AcDbTrace
 10
-24973.85382
 20
-12493.174904
 30
0.0
 11
-24973.70382
 21
-12493.174904
 31
0.0
 12
-24973.85382
 22
-12492.974904
 32
0.0
 13
-24973.70382
 23
-12492.974904
 33
0.0
  0
SOLID
  5
86
330
A
100
AcDbEntity
  8
SOLDERMASK_PADS_BTM
100
AcDbTrace
 10
-24965.865683
 20
-12492.269347
 30
0.0
 11
-24965.665683
 21
-12492.269347
 31
0.0
 12
-24965.865683
 22
-12491.269347
 32
0.0
 13
-24965.665683
 23
-12491.269347
 33
0.0
  0
SOLID
  5
87
330
A
100
AcDbEntity
  8
SOLDERMASK_PADS_BTM
100
AcDbTrace
 10
-24966.265683
 20
-12492.269347
 30
0.0
 11
-24966.065683
 21
-12492.269347
 31
0.0
 12
-24966.265683
 22
-12491.269347
 32
0.0
 13
-24966.065683
 23
-12491.269347
 33
0.0
  0
SOLID
  5
88
330
A
100
AcDbEntity
  8
SOLDERMASK_PADS_BTM
100
AcDbTrace
 10
-24973.855617
 20
-12484.719229
 30
0.0
 11
-24973.705617
 21
-12484.719229
 31
0.0
 12
-24973.855617
 22
-12484.519229
 32
0.0
 13
-24973.705617
 23
-12484.519229
 33
0.0
  0
SOLID
  5
89
330
A
100
AcDbEntity
  8
SOLDERMASK_PADS_BTM
100
AcDbTrace
 10
-24974.185617
 20
-12484.719229
 30
0.0
 11
-24974.035617
 21
-12484.719229
 31
0.0
 12
-24974.185617
 22
-12484.519229
 32
0.0
 13
-24974.035617
 23
-12484.519229
 33
0.0
  0
SOLID
  5
8A
330
A
100
AcDbEntity
  8
SOLDERMASK_PADS_BTM
100
AcDbTrace
 10
-24974.18382
 20
-12493.549904
 30
0.0
 11
-24974.03382
 21
-12493.549904
 31
0.0
 12
-24974.18382
 22
-12493.349904
 32
0.0
 13
-24974.03382
 23
-12493.349904
 33
0.0
  0
SOLID
  5
8B
330
A
100
AcDbEntity
  8
SOLDERMASK_PADS_BTM
100
AcDbTrace
 10
-24973.85382
 20
-12493.549904
 30
0.0
 11
-24973.70382
 21
-12493.549904
 31
0.0
 12
-24973.85382
 22
-12493.349904
 32
0.0
 13
-24973.70382
 23
-12493.349904
 33
0.0
  0
SOLID
  5
8C
330
A
100
AcDbEntity
  8
SOLDERMASK_PADS_BTM
100
AcDbTrace
 10
-24965.865683
 20
-12493.472563
 30
0.0
 11
-24965.665683
 21
-12493.472563
 31
0.0
 12
-24965.865683
 22
-12492.472563
 32
0.0
 13
-24965.665683
 23
-12492.472563
 33
0.0
  0
SOLID
  5
8D
330
A
100
AcDbEntity
  8
SOLDERMASK_PADS_BTM
100
AcDbTrace
 10
-24966.265683
 20
-12493.472563
 30
0.0
 11
-24966.065683
 21
-12493.472563
 31
0.0
 12
-24966.265683
 22
-12492.472563
 32
0.0
 13
-24966.065683
 23
-12492.472563
 33
0.0
  0
SOLID
  5
8E
330
A
100
AcDbEntity
  8
SOLDERMASK_PADS_BTM
100
AcDbTrace
 10
-24984.219925
 20
-12487.230442
 30
0.0
 11
-24984.019925
 21
-12487.230442
 31
0.0
 12
-24984.219925
 22
-12486.230442
 32
0.0
 13
-24984.019925
 23
-12486.230442
 33
0.0
  0
SOLID
  5
8F
330
A
100
AcDbEntity
  8
SOLDERMASK_PADS_BTM
100
AcDbTrace
 10
-24984.619925
 20
-12487.230442
 30
0.0
 11
-24984.419925
 21
-12487.230442
 31
0.0
 12
-24984.619925
 22
-12486.230442
 32
0.0
 13
-24984.419925
 23
-12486.230442
 33
0.0
  0
SOLID
  5
90
330
A
100
AcDbEntity
  8
SOLDERMASK_PADS_BTM
100
AcDbTrace
 10
-24981.494925
 20
-12489.62071
 30
0.0
 11
-24981.294925
 21
-12489.62071
 31
0.0
 12
-24981.494925
 22
-12489.47071
 32
0.0
 13
-24981.294925
 23
-12489.47071
 33
0.0
  0
SOLID
  5
91
330
A
100
AcDbEntity
  8
SOLDERMASK_PADS_BTM
100
AcDbTrace
 10
-24981.494925
 20
-12489.29071
 30
0.0
 11
-24981.294925
 21
-12489.29071
 31
0.0
 12
-24981.494925
 22
-12489.14071
 32
0.0
 13
-24981.294925
 23
-12489.14071
 33
0.0
  0
SOLID
  5
92
330
A
100
AcDbEntity
  8
SOLDERMASK_PADS_BTM
100
AcDbTrace
 10
-24981.0467
 20
-12491.26727
 30
0.0
 11
-24980.8467
 21
-12491.26727
 31
0.0
 12
-24981.0467
 22
-12490.26727
 32
0.0
 13
-24980.8467
 23
-12490.26727
 33
0.0
  0
SOLID
  5
93
330
A
100
AcDbEntity
  8
SOLDERMASK_PADS_BTM
100
AcDbTrace
 10
-24980.6467
 20
-12491.26727
 30
0.0
 11
-24980.4467
 21
-12491.26727
 31
0.0
 12
-24980.6467
 22
-12490.26727
 32
0.0
 13
-24980.4467
 23
-12490.26727
 33
0.0
  0
SOLID
  5
94
330
A
100
AcDbEntity
  8
SOLDERMASK_PADS_BTM
100
AcDbTrace
 10
-24985.394925
 20
-12488.01749
 30
0.0
 11
-24985.194925
 21
-12488.01749
 31
0.0
 12
-24985.394925
 22
-12487.01749
 32
0.0
 13
-24985.194925
 23
-12487.01749
 33
0.0
  0
SOLID
  5
95
330
A
100
AcDbEntity
  8
SOLDERMASK_PADS_BTM
100
AcDbTrace
 10
-24984.994925
 20
-12488.01749
 30
0.0
 11
-24984.794925
 21
-12488.01749
 31
0.0
 12
-24984.994925
 22
-12487.01749
 32
0.0
 13
-24984.794925
 23
-12487.01749
 33
0.0
  0
SOLID
  5
96
330
A
100
AcDbEntity
  8
SOLDERMASK_PADS_BTM
100
AcDbTrace
 10
-24983.612497
 20
-12492.95789
 30
0.0
 11
-24983.412497
 21
-12492.95789
 31
0.0
 12
-24983.612497
 22
-12491.95789
 32
0.0
 13
-24983.412497
 23
-12491.95789
 33
0.0
  0
SOLID
  5
97
330
A
100
AcDbEntity
  8
SOLDERMASK_PADS_BTM
100
AcDbTrace
 10
-24983.212497
 20
-12492.95789
 30
0.0
 11
-24983.012497
 21
-12492.95789
 31
0.0
 12
-24983.212497
 22
-12491.95789
 32
0.0
 13
-24983.012497
 23
-12491.95789
 33
0.0
  0
SOLID
  5
98
330
A
100
AcDbEntity
  8
SOLDERMASK_PADS_BTM
100
AcDbTrace
 10
-24982.6217
 20
-12493.73289
 30
0.0
 11
-24981.6217
 21
-12493.73289
 31
0.0
 12
-24982.6217
 22
-12493.53289
 32
0.0
 13
-24981.6217
 23
-12493.53289
 33
0.0
  0
SOLID
  5
99
330
A
100
AcDbEntity
  8
SOLDERMASK_PADS_BTM
100
AcDbTrace
 10
-24982.6217
 20
-12493.33289
 30
0.0
 11
-24981.6217
 21
-12493.33289
 31
0.0
 12
-24982.6217
 22
-12493.13289
 32
0.0
 13
-24981.6217
 23
-12493.13289
 33
0.0
  0
SOLID
  5
9A
330
A
100
AcDbEntity
  8
SOLDERMASK_PADS_BTM
100
AcDbTrace
 10
-24983.351155
 20
-12483.858011
 30
0.0
 11
-24983.151155
 21
-12483.858011
 31
0.0
 12
-24983.351155
 22
-12483.708011
 32
0.0
 13
-24983.151155
 23
-12483.708011
 33
0.0
  0
SOLID
  5
9B
330
A
100
AcDbEntity
  8
SOLDERMASK_PADS_BTM
100
AcDbTrace
 10
-24983.351155
 20
-12484.188011
 30
0.0
 11
-24983.151155
 21
-12484.188011
 31
0.0
 12
-24983.351155
 22
-12484.038011
 32
0.0
 13
-24983.151155
 23
-12484.038011
 33
0.0
  0
SOLID
  5
9C
330
A
100
AcDbEntity
  8
SOLDERMASK_PADS_BTM
100
AcDbTrace
 10
-24979.187893
 20
-12483.858011
 30
0.0
 11
-24978.987893
 21
-12483.858011
 31
0.0
 12
-24979.187893
 22
-12483.708011
 32
0.0
 13
-24978.987893
 23
-12483.708011
 33
0.0
  0
SOLID
  5
9D
330
A
100
AcDbEntity
  8
SOLDERMASK_PADS_BTM
100
AcDbTrace
 10
-24979.187893
 20
-12484.188011
 30
0.0
 11
-24978.987893
 21
-12484.188011
 31
0.0
 12
-24979.187893
 22
-12484.038011
 32
0.0
 13
-24978.987893
 23
-12484.038011
 33
0.0
  0
SOLID
  5
9E
330
A
100
AcDbEntity
  8
SOLDERMASK_PADS_BTM
100
AcDbTrace
 10
-24972.733951
 20
-12485.49597
 30
0.0
 11
-24972.533951
 21
-12485.49597
 31
0.0
 12
-24972.733951
 22
-12484.49597
 32
0.0
 13
-24972.533951
 23
-12484.49597
 33
0.0
  0
SOLID
  5
9F
330
A
100
AcDbEntity
  8
SOLDERMASK_PADS_BTM
100
AcDbTrace
 10
-24972.333951
 20
-12485.49597
 30
0.0
 11
-24972.133951
 21
-12485.49597
 31
0.0
 12
-24972.333951
 22
-12484.49597
 32
0.0
 13
-24972.133951
 23
-12484.49597
 33
0.0
  0
SOLID
  5
A0
330
A
100
AcDbEntity
  8
SOLDERMASK_PADS_BTM
100
AcDbTrace
 10
-24972.732154
 20
-12493.573163
 30
0.0
 11
-24972.532154
 21
-12493.573163
 31
0.0
 12
-24972.732154
 22
-12492.573163
 32
0.0
 13
-24972.532154
 23
-12492.573163
 33
0.0
  0
SOLID
  5
A1
330
A
100
AcDbEntity
  8
SOLDERMASK_PADS_BTM
100
AcDbTrace
 10
-24972.332154
 20
-12493.573163
 30
0.0
 11
-24972.132154
 21
-12493.573163
 31
0.0
 12
-24972.332154
 22
-12492.573163
 32
0.0
 13
-24972.132154
 23
-12492.573163
 33
0.0
  0
SOLID
  5
A2
330
A
100
AcDbEntity
  8
SOLDERMASK_PADS_BTM
100
AcDbTrace
 10
-24980.824497
 20
-12485.019229
 30
0.0
 11
-24980.448497
 21
-12485.019229
 31
0.0
 12
-24980.824497
 22
-12484.519229
 32
0.0
 13
-24980.448497
 23
-12484.519229
 33
0.0
  0
SOLID
  5
A3
330
A
100
AcDbEntity
  8
SOLDERMASK_PADS_BTM
100
AcDbTrace
 10
-24981.650497
 20
-12485.019229
 30
0.0
 11
-24981.274497
 21
-12485.019229
 31
0.0
 12
-24981.650497
 22
-12484.519229
 32
0.0
 13
-24981.274497
 23
-12484.519229
 33
0.0
  0
SOLID
  5
A4
330
A
100
AcDbEntity
  8
SOLDERMASK_PADS_BTM
100
AcDbTrace
 10
-24968.140683
 20
-12484.200104
 30
0.0
 11
-24967.990683
 21
-12484.200104
 31
0.0
 12
-24968.140683
 22
-12484.000104
 32
0.0
 13
-24967.990683
 23
-12484.000104
 33
0.0
  0
SOLID
  5
A5
330
A
100
AcDbEntity
  8
SOLDERMASK_PADS_BTM
100
AcDbTrace
 10
-24968.470683
 20
-12484.200104
 30
0.0
 11
-24968.320683
 21
-12484.200104
 31
0.0
 12
-24968.470683
 22
-12484.000104
 32
0.0
 13
-24968.320683
 23
-12484.000104
 33
0.0
  0
SOLID
  5
A6
330
A
100
AcDbEntity
  8
SOLDERMASK_PADS_BTM
100
AcDbTrace
 10
-24971.958951
 20
-12485.49597
 30
0.0
 11
-24971.758951
 21
-12485.49597
 31
0.0
 12
-24971.958951
 22
-12484.49597
 32
0.0
 13
-24971.758951
 23
-12484.49597
 33
0.0
  0
SOLID
  5
A7
330
A
100
AcDbEntity
  8
SOLDERMASK_PADS_BTM
100
AcDbTrace
 10
-24971.558951
 20
-12485.49597
 30
0.0
 11
-24971.358951
 21
-12485.49597
 31
0.0
 12
-24971.558951
 22
-12484.49597
 32
0.0
 13
-24971.358951
 23
-12484.49597
 33
0.0
  0
SOLID
  5
A8
330
A
100
AcDbEntity
  8
SOLDERMASK_PADS_BTM
100
AcDbTrace
 10
-24971.957154
 20
-12493.573163
 30
0.0
 11
-24971.757154
 21
-12493.573163
 31
0.0
 12
-24971.957154
 22
-12492.573163
 32
0.0
 13
-24971.757154
 23
-12492.573163
 33
0.0
  0
SOLID
  5
A9
330
A
100
AcDbEntity
  8
SOLDERMASK_PADS_BTM
100
AcDbTrace
 10
-24971.557154
 20
-12493.573163
 30
0.0
 11
-24971.357154
 21
-12493.573163
 31
0.0
 12
-24971.557154
 22
-12492.573163
 32
0.0
 13
-24971.357154
 23
-12492.573163
 33
0.0
  0
SOLID
  5
AA
330
A
100
AcDbEntity
  8
SOLDERMASK_PADS_BTM
100
AcDbTrace
 10
-24980.824497
 20
-12485.694229
 30
0.0
 11
-24980.448497
 21
-12485.694229
 31
0.0
 12
-24980.824497
 22
-12485.194229
 32
0.0
 13
-24980.448497
 23
-12485.194229
 33
0.0
  0
SOLID
  5
AB
330
A
100
AcDbEntity
  8
SOLDERMASK_PADS_BTM
100
AcDbTrace
 10
-24981.650497
 20
-12485.694229
 30
0.0
 11
-24981.274497
 21
-12485.694229
 31
0.0
 12
-24981.650497
 22
-12485.194229
 32
0.0
 13
-24981.274497
 23
-12485.194229
 33
0.0
  0
SOLID
  5
AC
330
A
100
AcDbEntity
  8
SOLDERMASK_PADS_BTM
100
AcDbTrace
 10
-24968.140683
 20
-12484.575104
 30
0.0
 11
-24967.990683
 21
-12484.575104
 31
0.0
 12
-24968.140683
 22
-12484.375104
 32
0.0
 13
-24967.990683
 23
-12484.375104
 33
0.0
  0
SOLID
  5
AD
330
A
100
AcDbEntity
  8
SOLDERMASK_PADS_BTM
100
AcDbTrace
 10
-24968.470683
 20
-12484.575104
 30
0.0
 11
-24968.320683
 21
-12484.575104
 31
0.0
 12
-24968.470683
 22
-12484.375104
 32
0.0
 13
-24968.320683
 23
-12484.375104
 33
0.0
  0
SOLID
  5
AE
330
A
100
AcDbEntity
  8
SOLDERMASK_PADS_BTM
100
AcDbTrace
 10
-24970.783951
 20
-12485.49597
 30
0.0
 11
-24970.583951
 21
-12485.49597
 31
0.0
 12
-24970.783951
 22
-12484.49597
 32
0.0
 13
-24970.583951
 23
-12484.49597
 33
0.0
  0
SOLID
  5
AF
330
A
100
AcDbEntity
  8
SOLDERMASK_PADS_BTM
100
AcDbTrace
 10
-24971.183951
 20
-12485.49597
 30
0.0
 11
-24970.983951
 21
-12485.49597
 31
0.0
 12
-24971.183951
 22
-12484.49597
 32
0.0
 13
-24970.983951
 23
-12484.49597
 33
0.0
  0
SOLID
  5
B0
330
A
100
AcDbEntity
  8
SOLDERMASK_PADS_BTM
100
AcDbTrace
 10
-24970.782154
 20
-12493.573163
 30
0.0
 11
-24970.582154
 21
-12493.573163
 31
0.0
 12
-24970.782154
 22
-12492.573163
 32
0.0
 13
-24970.582154
 23
-12492.573163
 33
0.0
  0
SOLID
  5
B1
330
A
100
AcDbEntity
  8
SOLDERMASK_PADS_BTM
100
AcDbTrace
 10
-24971.182154
 20
-12493.573163
 30
0.0
 11
-24970.982154
 21
-12493.573163
 31
0.0
 12
-24971.182154
 22
-12492.573163
 32
0.0
 13
-24970.982154
 23
-12492.573163
 33
0.0
  0
SOLID
  5
B2
330
A
100
AcDbEntity
  8
SOLDERMASK_PADS_BTM
100
AcDbTrace
 10
-24980.824497
 20
-12486.369229
 30
0.0
 11
-24980.448497
 21
-12486.369229
 31
0.0
 12
-24980.824497
 22
-12485.869229
 32
0.0
 13
-24980.448497
 23
-12485.869229
 33
0.0
  0
SOLID
  5
B3
330
A
100
AcDbEntity
  8
SOLDERMASK_PADS_BTM
100
AcDbTrace
 10
-24981.650497
 20
-12486.369229
 30
0.0
 11
-24981.274497
 21
-12486.369229
 31
0.0
 12
-24981.650497
 22
-12485.869229
 32
0.0
 13
-24981.274497
 23
-12485.869229
 33
0.0
  0
SOLID
  5
B4
330
A
100
AcDbEntity
  8
SOLDERMASK_PADS_BTM
100
AcDbTrace
 10
-24968.140683
 20
-12484.950104
 30
0.0
 11
-24967.990683
 21
-12484.950104
 31
0.0
 12
-24968.140683
 22
-12484.750104
 32
0.0
 13
-24967.990683
 23
-12484.750104
 33
0.0
  0
SOLID
  5
B5
330
A
100
AcDbEntity
  8
SOLDERMASK_PADS_BTM
100
AcDbTrace
 10
-24968.470683
 20
-12484.950104
 30
0.0
 11
-24968.320683
 21
-12484.950104
 31
0.0
 12
-24968.470683
 22
-12484.750104
 32
0.0
 13
-24968.320683
 23
-12484.750104
 33
0.0
  0
SOLID
  5
B6
330
A
100
AcDbEntity
  8
SOLDERMASK_PADS_BTM
100
AcDbTrace
 10
-24970.008951
 20
-12485.49597
 30
0.0
 11
-24969.808951
 21
-12485.49597
 31
0.0
 12
-24970.008951
 22
-12484.49597
 32
0.0
 13
-24969.808951
 23
-12484.49597
 33
0.0
  0
SOLID
  5
B7
330
A
100
AcDbEntity
  8
SOLDERMASK_PADS_BTM
100
AcDbTrace
 10
-24970.408951
 20
-12485.49597
 30
0.0
 11
-24970.208951
 21
-12485.49597
 31
0.0
 12
-24970.408951
 22
-12484.49597
 32
0.0
 13
-24970.208951
 23
-12484.49597
 33
0.0
  0
SOLID
  5
B8
330
A
100
AcDbEntity
  8
SOLDERMASK_PADS_BTM
100
AcDbTrace
 10
-24984.239925
 20
-12486.055442
 30
0.0
 11
-24984.089925
 21
-12486.055442
 31
0.0
 12
-24984.239925
 22
-12485.855442
 32
0.0
 13
-24984.089925
 23
-12485.855442
 33
0.0
  0
SOLID
  5
B9
330
A
100
AcDbEntity
  8
SOLDERMASK_PADS_BTM
100
AcDbTrace
 10
-24984.569925
 20
-12486.055442
 30
0.0
 11
-24984.419925
 21
-12486.055442
 31
0.0
 12
-24984.569925
 22
-12485.855442
 32
0.0
 13
-24984.419925
 23
-12485.855442
 33
0.0
  0
SOLID
  5
BA
330
A
100
AcDbEntity
  8
SOLDERMASK_PADS_BTM
100
AcDbTrace
 10
-24980.824497
 20
-12487.044229
 30
0.0
 11
-24980.448497
 21
-12487.044229
 31
0.0
 12
-24980.824497
 22
-12486.544229
 32
0.0
 13
-24980.448497
 23
-12486.544229
 33
0.0
  0
SOLID
  5
BB
330
A
100
AcDbEntity
  8
SOLDERMASK_PADS_BTM
100
AcDbTrace
 10
-24981.650497
 20
-12487.044229
 30
0.0
 11
-24981.274497
 21
-12487.044229
 31
0.0
 12
-24981.650497
 22
-12486.544229
 32
0.0
 13
-24981.274497
 23
-12486.544229
 33
0.0
  0
SOLID
  5
BC
330
A
100
AcDbEntity
  8
SOLDERMASK_PADS_BTM
100
AcDbTrace
 10
-24968.140683
 20
-12485.40332
 30
0.0
 11
-24967.990683
 21
-12485.40332
 31
0.0
 12
-24968.140683
 22
-12485.20332
 32
0.0
 13
-24967.990683
 23
-12485.20332
 33
0.0
  0
SOLID
  5
BD
330
A
100
AcDbEntity
  8
SOLDERMASK_PADS_BTM
100
AcDbTrace
 10
-24968.470683
 20
-12485.40332
 30
0.0
 11
-24968.320683
 21
-12485.40332
 31
0.0
 12
-24968.470683
 22
-12485.20332
 32
0.0
 13
-24968.320683
 23
-12485.20332
 33
0.0
  0
SOLID
  5
BE
330
A
100
AcDbEntity
  8
SOLDERMASK_PADS_BTM
100
AcDbTrace
 10
-24980.924278
 20
-12488.91727
 30
0.0
 11
-24980.774278
 21
-12488.91727
 31
0.0
 12
-24980.924278
 22
-12488.71727
 32
0.0
 13
-24980.774278
 23
-12488.71727
 33
0.0
  0
SOLID
  5
BF
330
A
100
AcDbEntity
  8
SOLDERMASK_PADS_BTM
100
AcDbTrace
 10
-24980.594278
 20
-12488.91727
 30
0.0
 11
-24980.444278
 21
-12488.91727
 31
0.0
 12
-24980.594278
 22
-12488.71727
 32
0.0
 13
-24980.444278
 23
-12488.71727
 33
0.0
  0
SOLID
  5
C0
330
A
100
AcDbEntity
  8
SOLDERMASK_PADS_BTM
100
AcDbTrace
 10
-24970.007154
 20
-12493.573163
 30
0.0
 11
-24969.807154
 21
-12493.573163
 31
0.0
 12
-24970.007154
 22
-12492.573163
 32
0.0
 13
-24969.807154
 23
-12492.573163
 33
0.0
  0
SOLID
  5
C1
330
A
100
AcDbEntity
  8
SOLDERMASK_PADS_BTM
100
AcDbTrace
 10
-24970.407154
 20
-12493.573163
 30
0.0
 11
-24970.207154
 21
-12493.573163
 31
0.0
 12
-24970.407154
 22
-12492.573163
 32
0.0
 13
-24970.207154
 23
-12492.573163
 33
0.0
  0
SOLID
  5
C2
330
A
100
AcDbEntity
  8
SOLDERMASK_PADS_BTM
100
AcDbTrace
 10
-24985.394925
 20
-12489.19249
 30
0.0
 11
-24985.194925
 21
-12489.19249
 31
0.0
 12
-24985.394925
 22
-12488.19249
 32
0.0
 13
-24985.194925
 23
-12488.19249
 33
0.0
  0
SOLID
  5
C3
330
A
100
AcDbEntity
  8
SOLDERMASK_PADS_BTM
100
AcDbTrace
 10
-24984.994925
 20
-12489.19249
 30
0.0
 11
-24984.794925
 21
-12489.19249
 31
0.0
 12
-24984.994925
 22
-12488.19249
 32
0.0
 13
-24984.794925
 23
-12488.19249
 33
0.0
  0
SOLID
  5
C4
330
A
100
AcDbEntity
  8
SOLDERMASK_PADS_BTM
100
AcDbTrace
 10
-24968.140683
 20
-12485.77832
 30
0.0
 11
-24967.990683
 21
-12485.77832
 31
0.0
 12
-24968.140683
 22
-12485.57832
 32
0.0
 13
-24967.990683
 23
-12485.57832
 33
0.0
  0
SOLID
  5
C5
330
A
100
AcDbEntity
  8
SOLDERMASK_PADS_BTM
100
AcDbTrace
 10
-24968.470683
 20
-12485.77832
 30
0.0
 11
-24968.320683
 21
-12485.77832
 31
0.0
 12
-24968.470683
 22
-12485.57832
 32
0.0
 13
-24968.320683
 23
-12485.57832
 33
0.0
  0
SOLID
  5
C6
330
A
100
AcDbEntity
  8
SOLDERMASK_PADS_BTM
100
AcDbTrace
 10
-24981.4467
 20
-12493.73289
 30
0.0
 11
-24980.4467
 21
-12493.73289
 31
0.0
 12
-24981.4467
 22
-12493.53289
 32
0.0
 13
-24980.4467
 23
-12493.53289
 33
0.0
  0
SOLID
  5
C7
330
A
100
AcDbEntity
  8
SOLDERMASK_PADS_BTM
100
AcDbTrace
 10
-24981.4467
 20
-12493.33289
 30
0.0
 11
-24980.4467
 21
-12493.33289
 31
0.0
 12
-24981.4467
 22
-12493.13289
 32
0.0
 13
-24980.4467
 23
-12493.13289
 33
0.0
  0
SOLID
  5
C8
330
A
100
AcDbEntity
  8
SOLDERMASK_PADS_BTM
100
AcDbTrace
 10
-24982.902003
 20
-12483.887229
 30
0.0
 11
-24982.702003
 21
-12483.887229
 31
0.0
 12
-24982.902003
 22
-12483.737229
 32
0.0
 13
-24982.702003
 23
-12483.737229
 33
0.0
  0
SOLID
  5
C9
330
A
100
AcDbEntity
  8
SOLDERMASK_PADS_BTM
100
AcDbTrace
 10
-24982.902003
 20
-12484.217229
 30
0.0
 11
-24982.702003
 21
-12484.217229
 31
0.0
 12
-24982.902003
 22
-12484.067229
 32
0.0
 13
-24982.702003
 23
-12484.067229
 33
0.0
  0
SOLID
  5
CA
330
A
100
AcDbEntity
  8
SOLDERMASK_PADS_BTM
100
AcDbTrace
 10
-24978.796366
 20
-12483.887229
 30
0.0
 11
-24978.596366
 21
-12483.887229
 31
0.0
 12
-24978.796366
 22
-12483.737229
 32
0.0
 13
-24978.596366
 23
-12483.737229
 33
0.0
  0
SOLID
  5
CB
330
A
100
AcDbEntity
  8
SOLDERMASK_PADS_BTM
100
AcDbTrace
 10
-24978.796366
 20
-12484.217229
 30
0.0
 11
-24978.596366
 21
-12484.217229
 31
0.0
 12
-24978.796366
 22
-12484.067229
 32
0.0
 13
-24978.596366
 23
-12484.067229
 33
0.0
  0
SOLID
  5
CC
330
A
100
AcDbEntity
  8
SOLDERMASK_PADS_BTM
100
AcDbTrace
 10
-24968.140683
 20
-12486.15332
 30
0.0
 11
-24967.990683
 21
-12486.15332
 31
0.0
 12
-24968.140683
 22
-12485.95332
 32
0.0
 13
-24967.990683
 23
-12485.95332
 33
0.0
  0
SOLID
  5
CD
330
A
100
AcDbEntity
  8
SOLDERMASK_PADS_BTM
100
AcDbTrace
 10
-24968.470683
 20
-12486.15332
 30
0.0
 11
-24968.320683
 21
-12486.15332
 31
0.0
 12
-24968.470683
 22
-12485.95332
 32
0.0
 13
-24968.320683
 23
-12485.95332
 33
0.0
  0
SOLID
  5
CE
330
A
100
AcDbEntity
  8
SOLDERMASK_PADS_BTM
100
AcDbTrace
 10
-24968.140683
 20
-12486.606536
 30
0.0
 11
-24967.990683
 21
-12486.606536
 31
0.0
 12
-24968.140683
 22
-12486.406536
 32
0.0
 13
-24967.990683
 23
-12486.406536
 33
0.0
  0
SOLID
  5
CF
330
A
100
AcDbEntity
  8
SOLDERMASK_PADS_BTM
100
AcDbTrace
 10
-24968.470683
 20
-12486.606536
 30
0.0
 11
-24968.320683
 21
-12486.606536
 31
0.0
 12
-24968.470683
 22
-12486.406536
 32
0.0
 13
-24968.320683
 23
-12486.406536
 33
0.0
  0
SOLID
  5
D0
330
A
100
AcDbEntity
  8
SOLDERMASK_PADS_BTM
100
AcDbTrace
 10
-24968.140683
 20
-12486.981536
 30
0.0
 11
-24967.990683
 21
-12486.981536
 31
0.0
 12
-24968.140683
 22
-12486.781536
 32
0.0
 13
-24967.990683
 23
-12486.781536
 33
0.0
  0
SOLID
  5
D1
330
A
100
AcDbEntity
  8
SOLDERMASK_PADS_BTM
100
AcDbTrace
 10
-24968.470683
 20
-12486.981536
 30
0.0
 11
-24968.320683
 21
-12486.981536
 31
0.0
 12
-24968.470683
 22
-12486.781536
 32
0.0
 13
-24968.320683
 23
-12486.781536
 33
0.0
  0
SOLID
  5
D2
330
A
100
AcDbEntity
  8
SOLDERMASK_PADS_BTM
100
AcDbTrace
 10
-24972.733951
 20
-12486.67097
 30
0.0
 11
-24972.533951
 21
-12486.67097
 31
0.0
 12
-24972.733951
 22
-12485.67097
 32
0.0
 13
-24972.533951
 23
-12485.67097
 33
0.0
  0
SOLID
  5
D3
330
A
100
AcDbEntity
  8
SOLDERMASK_PADS_BTM
100
AcDbTrace
 10
-24972.333951
 20
-12486.67097
 30
0.0
 11
-24972.133951
 21
-12486.67097
 31
0.0
 12
-24972.333951
 22
-12485.67097
 32
0.0
 13
-24972.133951
 23
-12485.67097
 33
0.0
  0
SOLID
  5
D4
330
A
100
AcDbEntity
  8
SOLDERMASK_PADS_BTM
100
AcDbTrace
 10
-24972.732154
 20
-12492.398163
 30
0.0
 11
-24972.532154
 21
-12492.398163
 31
0.0
 12
-24972.732154
 22
-12491.398163
 32
0.0
 13
-24972.532154
 23
-12491.398163
 33
0.0
  0
SOLID
  5
D5
330
A
100
AcDbEntity
  8
SOLDERMASK_PADS_BTM
100
AcDbTrace
 10
-24972.332154
 20
-12492.398163
 30
0.0
 11
-24972.132154
 21
-12492.398163
 31
0.0
 12
-24972.332154
 22
-12491.398163
 32
0.0
 13
-24972.132154
 23
-12491.398163
 33
0.0
  0
SOLID
  5
D6
330
A
100
AcDbEntity
  8
SOLDERMASK_PADS_BTM
100
AcDbTrace
 10
-24968.140683
 20
-12487.356536
 30
0.0
 11
-24967.990683
 21
-12487.356536
 31
0.0
 12
-24968.140683
 22
-12487.156536
 32
0.0
 13
-24967.990683
 23
-12487.156536
 33
0.0
  0
SOLID
  5
D7
330
A
100
AcDbEntity
  8
SOLDERMASK_PADS_BTM
100
AcDbTrace
 10
-24968.470683
 20
-12487.356536
 30
0.0
 11
-24968.320683
 21
-12487.356536
 31
0.0
 12
-24968.470683
 22
-12487.156536
 32
0.0
 13
-24968.320683
 23
-12487.156536
 33
0.0
  0
SOLID
  5
D8
330
A
100
AcDbEntity
  8
SOLDERMASK_PADS_BTM
100
AcDbTrace
 10
-24971.958951
 20
-12486.67097
 30
0.0
 11
-24971.758951
 21
-12486.67097
 31
0.0
 12
-24971.958951
 22
-12485.67097
 32
0.0
 13
-24971.758951
 23
-12485.67097
 33
0.0
  0
SOLID
  5
D9
330
A
100
AcDbEntity
  8
SOLDERMASK_PADS_BTM
100
AcDbTrace
 10
-24971.558951
 20
-12486.67097
 30
0.0
 11
-24971.358951
 21
-12486.67097
 31
0.0
 12
-24971.558951
 22
-12485.67097
 32
0.0
 13
-24971.358951
 23
-12485.67097
 33
0.0
  0
SOLID
  5
DA
330
A
100
AcDbEntity
  8
SOLDERMASK_PADS_BTM
100
AcDbTrace
 10
-24971.957154
 20
-12492.398163
 30
0.0
 11
-24971.757154
 21
-12492.398163
 31
0.0
 12
-24971.957154
 22
-12491.398163
 32
0.0
 13
-24971.757154
 23
-12491.398163
 33
0.0
  0
SOLID
  5
DB
330
A
100
AcDbEntity
  8
SOLDERMASK_PADS_BTM
100
AcDbTrace
 10
-24971.557154
 20
-12492.398163
 30
0.0
 11
-24971.357154
 21
-12492.398163
 31
0.0
 12
-24971.557154
 22
-12491.398163
 32
0.0
 13
-24971.357154
 23
-12491.398163
 33
0.0
  0
SOLID
  5
DC
330
A
100
AcDbEntity
  8
SOLDERMASK_PADS_BTM
100
AcDbTrace
 10
-24970.783951
 20
-12486.67097
 30
0.0
 11
-24970.583951
 21
-12486.67097
 31
0.0
 12
-24970.783951
 22
-12485.67097
 32
0.0
 13
-24970.583951
 23
-12485.67097
 33
0.0
  0
SOLID
  5
DD
330
A
100
AcDbEntity
  8
SOLDERMASK_PADS_BTM
100
AcDbTrace
 10
-24971.183951
 20
-12486.67097
 30
0.0
 11
-24970.983951
 21
-12486.67097
 31
0.0
 12
-24971.183951
 22
-12485.67097
 32
0.0
 13
-24970.983951
 23
-12485.67097
 33
0.0
  0
SOLID
  5
DE
330
A
100
AcDbEntity
  8
SOLDERMASK_PADS_BTM
100
AcDbTrace
 10
-24970.782154
 20
-12492.398163
 30
0.0
 11
-24970.582154
 21
-12492.398163
 31
0.0
 12
-24970.782154
 22
-12491.398163
 32
0.0
 13
-24970.582154
 23
-12491.398163
 33
0.0
  0
SOLID
  5
DF
330
A
100
AcDbEntity
  8
SOLDERMASK_PADS_BTM
100
AcDbTrace
 10
-24971.182154
 20
-12492.398163
 30
0.0
 11
-24970.982154
 21
-12492.398163
 31
0.0
 12
-24971.182154
 22
-12491.398163
 32
0.0
 13
-24970.982154
 23
-12491.398163
 33
0.0
  0
SOLID
  5
E0
330
A
100
AcDbEntity
  8
SOLDERMASK_PADS_BTM
100
AcDbTrace
 10
-24970.008951
 20
-12486.67097
 30
0.0
 11
-24969.808951
 21
-12486.67097
 31
0.0
 12
-24970.008951
 22
-12485.67097
 32
0.0
 13
-24969.808951
 23
-12485.67097
 33
0.0
  0
SOLID
  5
E1
330
A
100
AcDbEntity
  8
SOLDERMASK_PADS_BTM
100
AcDbTrace
 10
-24970.408951
 20
-12486.67097
 30
0.0
 11
-24970.208951
 21
-12486.67097
 31
0.0
 12
-24970.408951
 22
-12485.67097
 32
0.0
 13
-24970.208951
 23
-12485.67097
 33
0.0
  0
SOLID
  5
E2
330
A
100
AcDbEntity
  8
SOLDERMASK_PADS_BTM
100
AcDbTrace
 10
-24970.007154
 20
-12492.398163
 30
0.0
 11
-24969.807154
 21
-12492.398163
 31
0.0
 12
-24970.007154
 22
-12491.398163
 32
0.0
 13
-24969.807154
 23
-12491.398163
 33
0.0
  0
SOLID
  5
E3
330
A
100
AcDbEntity
  8
SOLDERMASK_PADS_BTM
100
AcDbTrace
 10
-24970.407154
 20
-12492.398163
 30
0.0
 11
-24970.207154
 21
-12492.398163
 31
0.0
 12
-24970.407154
 22
-12491.398163
 32
0.0
 13
-24970.207154
 23
-12491.398163
 33
0.0
  0
SOLID
  5
E4
330
A
100
AcDbEntity
  8
SOLDERMASK_PADS_BTM
100
AcDbTrace
 10
-24984.619925
 20
-12485.680442
 30
0.0
 11
-24984.419925
 21
-12485.680442
 31
0.0
 12
-24984.619925
 22
-12484.680442
 32
0.0
 13
-24984.419925
 23
-12484.680442
 33
0.0
  0
SOLID
  5
E5
330
A
100
AcDbEntity
  8
SOLDERMASK_PADS_BTM
100
AcDbTrace
 10
-24984.219925
 20
-12485.680442
 30
0.0
 11
-24984.019925
 21
-12485.680442
 31
0.0
 12
-24984.219925
 22
-12484.680442
 32
0.0
 13
-24984.019925
 23
-12484.680442
 33
0.0
  0
SOLID
  5
E6
330
A
100
AcDbEntity
  8
SOLDERMASK_PADS_BTM
100
AcDbTrace
 10
-24980.924278
 20
-12488.54227
 30
0.0
 11
-24980.774278
 21
-12488.54227
 31
0.0
 12
-24980.924278
 22
-12488.34227
 32
0.0
 13
-24980.774278
 23
-12488.34227
 33
0.0
  0
SOLID
  5
E7
330
A
100
AcDbEntity
  8
SOLDERMASK_PADS_BTM
100
AcDbTrace
 10
-24980.594278
 20
-12488.54227
 30
0.0
 11
-24980.444278
 21
-12488.54227
 31
0.0
 12
-24980.594278
 22
-12488.34227
 32
0.0
 13
-24980.444278
 23
-12488.34227
 33
0.0
  0
SOLID
  5
E8
330
A
100
AcDbEntity
  8
SOLDERMASK_PADS_BTM
100
AcDbTrace
 10
-24985.394925
 20
-12490.36749
 30
0.0
 11
-24985.194925
 21
-12490.36749
 31
0.0
 12
-24985.394925
 22
-12489.36749
 32
0.0
 13
-24985.194925
 23
-12489.36749
 33
0.0
  0
SOLID
  5
E9
330
A
100
AcDbEntity
  8
SOLDERMASK_PADS_BTM
100
AcDbTrace
 10
-24984.994925
 20
-12490.36749
 30
0.0
 11
-24984.794925
 21
-12490.36749
 31
0.0
 12
-24984.994925
 22
-12489.36749
 32
0.0
 13
-24984.794925
 23
-12489.36749
 33
0.0
  0
SOLID
  5
EA
330
A
100
AcDbEntity
  8
SOLDERMASK_PADS_BTM
100
AcDbTrace
 10
-24982.452851
 20
-12483.858011
 30
0.0
 11
-24982.252851
 21
-12483.858011
 31
0.0
 12
-24982.452851
 22
-12483.708011
 32
0.0
 13
-24982.252851
 23
-12483.708011
 33
0.0
  0
SOLID
  5
EB
330
A
100
AcDbEntity
  8
SOLDERMASK_PADS_BTM
100
AcDbTrace
 10
-24982.452851
 20
-12484.188011
 30
0.0
 11
-24982.252851
 21
-12484.188011
 31
0.0
 12
-24982.452851
 22
-12484.038011
 32
0.0
 13
-24982.252851
 23
-12484.038011
 33
0.0
  0
SOLID
  5
EC
330
A
100
AcDbEntity
  8
SOLDERMASK_PADS_BTM
100
AcDbTrace
 10
-24978.40484
 20
-12483.858011
 30
0.0
 11
-24978.20484
 21
-12483.858011
 31
0.0
 12
-24978.40484
 22
-12483.708011
 32
0.0
 13
-24978.20484
 23
-12483.708011
 33
0.0
  0
SOLID
  5
ED
330
A
100
AcDbEntity
  8
SOLDERMASK_PADS_BTM
100
AcDbTrace
 10
-24978.40484
 20
-12484.188011
 30
0.0
 11
-24978.20484
 21
-12484.188011
 31
0.0
 12
-24978.40484
 22
-12484.038011
 32
0.0
 13
-24978.20484
 23
-12484.038011
 33
0.0
  0
SOLID
  5
EE
330
A
100
AcDbEntity
  8
SOLDERMASK_PADS_BTM
100
AcDbTrace
 10
-24972.733951
 20
-12487.84597
 30
0.0
 11
-24972.533951
 21
-12487.84597
 31
0.0
 12
-24972.733951
 22
-12486.84597
 32
0.0
 13
-24972.533951
 23
-12486.84597
 33
0.0
  0
SOLID
  5
EF
330
A
100
AcDbEntity
  8
SOLDERMASK_PADS_BTM
100
AcDbTrace
 10
-24972.333951
 20
-12487.84597
 30
0.0
 11
-24972.133951
 21
-12487.84597
 31
0.0
 12
-24972.333951
 22
-12486.84597
 32
0.0
 13
-24972.133951
 23
-12486.84597
 33
0.0
  0
SOLID
  5
F0
330
A
100
AcDbEntity
  8
SOLDERMASK_PADS_BTM
100
AcDbTrace
 10
-24972.732154
 20
-12491.223163
 30
0.0
 11
-24972.532154
 21
-12491.223163
 31
0.0
 12
-24972.732154
 22
-12490.223163
 32
0.0
 13
-24972.532154
 23
-12490.223163
 33
0.0
  0
SOLID
  5
F1
330
A
100
AcDbEntity
  8
SOLDERMASK_PADS_BTM
100
AcDbTrace
 10
-24972.332154
 20
-12491.223163
 30
0.0
 11
-24972.132154
 21
-12491.223163
 31
0.0
 12
-24972.332154
 22
-12490.223163
 32
0.0
 13
-24972.132154
 23
-12490.223163
 33
0.0
  0
SOLID
  5
F2
330
A
100
AcDbEntity
  8
SOLDERMASK_PADS_BTM
100
AcDbTrace
 10
-24971.958951
 20
-12487.84597
 30
0.0
 11
-24971.758951
 21
-12487.84597
 31
0.0
 12
-24971.958951
 22
-12486.84597
 32
0.0
 13
-24971.758951
 23
-12486.84597
 33
0.0
  0
SOLID
  5
F3
330
A
100
AcDbEntity
  8
SOLDERMASK_PADS_BTM
100
AcDbTrace
 10
-24971.558951
 20
-12487.84597
 30
0.0
 11
-24971.358951
 21
-12487.84597
 31
0.0
 12
-24971.558951
 22
-12486.84597
 32
0.0
 13
-24971.358951
 23
-12486.84597
 33
0.0
  0
SOLID
  5
F4
330
A
100
AcDbEntity
  8
SOLDERMASK_PADS_BTM
100
AcDbTrace
 10
-24971.957154
 20
-12491.223163
 30
0.0
 11
-24971.757154
 21
-12491.223163
 31
0.0
 12
-24971.957154
 22
-12490.223163
 32
0.0
 13
-24971.757154
 23
-12490.223163
 33
0.0
  0
SOLID
  5
F5
330
A
100
AcDbEntity
  8
SOLDERMASK_PADS_BTM
100
AcDbTrace
 10
-24971.557154
 20
-12491.223163
 30
0.0
 11
-24971.357154
 21
-12491.223163
 31
0.0
 12
-24971.557154
 22
-12490.223163
 32
0.0
 13
-24971.357154
 23
-12490.223163
 33
0.0
  0
SOLID
  5
F6
330
A
100
AcDbEntity
  8
SOLDERMASK_PADS_BTM
100
AcDbTrace
 10
-24970.783951
 20
-12487.84597
 30
0.0
 11
-24970.583951
 21
-12487.84597
 31
0.0
 12
-24970.783951
 22
-12486.84597
 32
0.0
 13
-24970.583951
 23
-12486.84597
 33
0.0
  0
SOLID
  5
F7
330
A
100
AcDbEntity
  8
SOLDERMASK_PADS_BTM
100
AcDbTrace
 10
-24971.183951
 20
-12487.84597
 30
0.0
 11
-24970.983951
 21
-12487.84597
 31
0.0
 12
-24971.183951
 22
-12486.84597
 32
0.0
 13
-24970.983951
 23
-12486.84597
 33
0.0
  0
SOLID
  5
F8
330
A
100
AcDbEntity
  8
SOLDERMASK_PADS_BTM
100
AcDbTrace
 10
-24970.782154
 20
-12491.223163
 30
0.0
 11
-24970.582154
 21
-12491.223163
 31
0.0
 12
-24970.782154
 22
-12490.223163
 32
0.0
 13
-24970.582154
 23
-12490.223163
 33
0.0
  0
SOLID
  5
F9
330
A
100
AcDbEntity
  8
SOLDERMASK_PADS_BTM
100
AcDbTrace
 10
-24971.182154
 20
-12491.223163
 30
0.0
 11
-24970.982154
 21
-12491.223163
 31
0.0
 12
-24971.182154
 22
-12490.223163
 32
0.0
 13
-24970.982154
 23
-12490.223163
 33
0.0
  0
SOLID
  5
FA
330
A
100
AcDbEntity
  8
SOLDERMASK_PADS_BTM
100
AcDbTrace
 10
-24970.008951
 20
-12487.84597
 30
0.0
 11
-24969.808951
 21
-12487.84597
 31
0.0
 12
-24970.008951
 22
-12486.84597
 32
0.0
 13
-24969.808951
 23
-12486.84597
 33
0.0
  0
SOLID
  5
FB
330
A
100
AcDbEntity
  8
SOLDERMASK_PADS_BTM
100
AcDbTrace
 10
-24970.408951
 20
-12487.84597
 30
0.0
 11
-24970.208951
 21
-12487.84597
 31
0.0
 12
-24970.408951
 22
-12486.84597
 32
0.0
 13
-24970.208951
 23
-12486.84597
 33
0.0
  0
SOLID
  5
FC
330
A
100
AcDbEntity
  8
SOLDERMASK_PADS_BTM
100
AcDbTrace
 10
-24970.007154
 20
-12491.223163
 30
0.0
 11
-24969.807154
 21
-12491.223163
 31
0.0
 12
-24970.007154
 22
-12490.223163
 32
0.0
 13
-24969.807154
 23
-12490.223163
 33
0.0
  0
SOLID
  5
FD
330
A
100
AcDbEntity
  8
SOLDERMASK_PADS_BTM
100
AcDbTrace
 10
-24970.407154
 20
-12491.223163
 30
0.0
 11
-24970.207154
 21
-12491.223163
 31
0.0
 12
-24970.407154
 22
-12490.223163
 32
0.0
 13
-24970.207154
 23
-12490.223163
 33
0.0
  0
SOLID
  5
FE
330
A
100
AcDbEntity
  8
SOLDERMASK_PADS_BTM
100
AcDbTrace
 10
-24982.003699
 20
-12483.887229
 30
0.0
 11
-24981.803699
 21
-12483.887229
 31
0.0
 12
-24982.003699
 22
-12483.737229
 32
0.0
 13
-24981.803699
 23
-12483.737229
 33
0.0
  0
SOLID
  5
FF
330
A
100
AcDbEntity
  8
SOLDERMASK_PADS_BTM
100
AcDbTrace
 10
-24982.003699
 20
-12484.217229
 30
0.0
 11
-24981.803699
 21
-12484.217229
 31
0.0
 12
-24982.003699
 22
-12484.067229
 32
0.0
 13
-24981.803699
 23
-12484.067229
 33
0.0
  0
SOLID
  5
100
330
A
100
AcDbEntity
  8
SOLDERMASK_PADS_BTM
100
AcDbTrace
 10
-24978.013313
 20
-12483.887229
 30
0.0
 11
-24977.813313
 21
-12483.887229
 31
0.0
 12
-24978.013313
 22
-12483.737229
 32
0.0
 13
-24977.813313
 23
-12483.737229
 33
0.0
  0
SOLID
  5
101
330
A
100
AcDbEntity
  8
SOLDERMASK_PADS_BTM
100
AcDbTrace
 10
-24978.013313
 20
-12484.217229
 30
0.0
 11
-24977.813313
 21
-12484.217229
 31
0.0
 12
-24978.013313
 22
-12484.067229
 32
0.0
 13
-24977.813313
 23
-12484.067229
 33
0.0
  0
LWPOLYLINE
  5
102
330
A
100
AcDbEntity
  8
SOLDERMASK_PADS_BTM
100
AcDbPolyline
 90
        3
 70
     1
 43
0.0
 10
-24999.715
 20
-12499.215
 10
-24999.215
 20
-12499.715
 10
-24999.715
 20
-12499.715
  0
HATCH
  5
103
330
A
100
AcDbEntity
  8
SOLDERMASK_PADS_BTM
100
AcDbHatch
 10
0.0
 20
0.0
 30
0.0
210
0.0
220
0.0
230
1.0
  2
SOLID
 70
     1
 71
     0
 91
        1
 92
        2
 72
     0
 73
     1
 93
        3
 10
-24999.715
 20
-12499.215
 10
-24999.215
 20
-12499.715
 10
-24999.715
 20
-12499.715
 97
        0
 75
     0
 76
     1
 98
        1
 10
-24975.0
 20
-12487.5
450
        0
451
        0
460
0.0
461
0.0
452
        0
462
0.0
453
        0
470

  0
SOLID
  5
EA8
330
A
100
AcDbEntity
  8
SOLDERMASK_PADS_BTM
100
AcDbTrace
 10
-24961.380057
 20
-12484.8241
 30
0.0
 11
-24961.180057
 21
-12484.8241
 31
0.0
 12
-24961.380057
 22
-12484.6741
 32
0.0
 13
-24961.180057
 23
-12484.6741
 33
0.0
  0
SOLID
  5
EA9
330
A
100
AcDbEntity
  8
SOLDERMASK_PADS_BTM
100
AcDbTrace
 10
-24961.380057
 20
-12485.1541
 30
0.0
 11
-24961.180057
 21
-12485.1541
 31
0.0
 12
-24961.380057
 22
-12485.0041
 32
0.0
 13
-24961.180057
 23
-12485.0041
 33
0.0
  0
SOLID
  5
EAA
330
A
100
AcDbEntity
  8
SOLDERMASK_PADS_BTM
100
AcDbTrace
 10
-24979.8717
 20
-12493.549904
 30
0.0
 11
-24979.6717
 21
-12493.549904
 31
0.0
 12
-24979.8717
 22
-12492.549904
 32
0.0
 13
-24979.6717
 23
-12492.549904
 33
0.0
  0
SOLID
  5
EAB
330
A
100
AcDbEntity
  8
SOLDERMASK_PADS_BTM
100
AcDbTrace
 10
-24980.2717
 20
-12493.549904
 30
0.0
 11
-24980.0717
 21
-12493.549904
 31
0.0
 12
-24980.2717
 22
-12492.549904
 32
0.0
 13
-24980.0717
 23
-12492.549904
 33
0.0
  0
SOLID
  5
EAC
330
A
100
AcDbEntity
  8
SOLDERMASK_PADS_BTM
100
AcDbTrace
 10
-24980.11132
 20
-12488.609566
 30
0.0
 11
-24979.73532
 21
-12488.609566
 31
0.0
 12
-24980.11132
 22
-12488.109566
 32
0.0
 13
-24979.73532
 23
-12488.109566
 33
0.0
  0
SOLID
  5
EAD
330
A
100
AcDbEntity
  8
SOLDERMASK_PADS_BTM
100
AcDbTrace
 10
-24979.28532
 20
-12488.609566
 30
0.0
 11
-24978.90932
 21
-12488.609566
 31
0.0
 12
-24979.28532
 22
-12488.109566
 32
0.0
 13
-24978.90932
 23
-12488.109566
 33
0.0
  0
SOLID
  5
EAE
330
A
100
AcDbEntity
  8
SOLDERMASK_PADS_BTM
100
AcDbTrace
 10
-24979.873497
 20
-12485.519229
 30
0.0
 11
-24979.673497
 21
-12485.519229
 31
0.0
 12
-24979.873497
 22
-12484.519229
 32
0.0
 13
-24979.673497
 23
-12484.519229
 33
0.0
  0
SOLID
  5
EAF
330
A
100
AcDbEntity
  8
SOLDERMASK_PADS_BTM
100
AcDbTrace
 10
-24980.273497
 20
-12485.519229
 30
0.0
 11
-24980.073497
 21
-12485.519229
 31
0.0
 12
-24980.273497
 22
-12484.519229
 32
0.0
 13
-24980.073497
 23
-12484.519229
 33
0.0
  0
SOLID
  5
EB0
330
A
100
AcDbEntity
  8
SOLDERMASK_PADS_BTM
100
AcDbTrace
 10
-24965.490683
 20
-12484.975104
 30
0.0
 11
-24965.290683
 21
-12484.975104
 31
0.0
 12
-24965.490683
 22
-12483.975104
 32
0.0
 13
-24965.290683
 23
-12483.975104
 33
0.0
  0
SOLID
  5
EB1
330
A
100
AcDbEntity
  8
SOLDERMASK_PADS_BTM
100
AcDbTrace
 10
-24965.090683
 20
-12484.975104
 30
0.0
 11
-24964.890683
 21
-12484.975104
 31
0.0
 12
-24965.090683
 22
-12483.975104
 32
0.0
 13
-24964.890683
 23
-12483.975104
 33
0.0
  0
SOLID
  5
EB2
330
A
100
AcDbEntity
  8
SOLDERMASK_PADS_BTM
100
AcDbTrace
 10
-24962.130057
 20
-12484.8241
 30
0.0
 11
-24961.930057
 21
-12484.8241
 31
0.0
 12
-24962.130057
 22
-12484.6741
 32
0.0
 13
-24961.930057
 23
-12484.6741
 33
0.0
  0
SOLID
  5
EB3
330
A
100
AcDbEntity
  8
SOLDERMASK_PADS_BTM
100
AcDbTrace
 10
-24962.130057
 20
-12485.1541
 30
0.0
 11
-24961.930057
 21
-12485.1541
 31
0.0
 12
-24962.130057
 22
-12485.0041
 32
0.0
 13
-24961.930057
 23
-12485.0041
 33
0.0
  0
SOLID
  5
EB4
330
A
100
AcDbEntity
  8
SOLDERMASK_PADS_BTM
100
AcDbTrace
 10
-24979.8717
 20
-12492.34772
 30
0.0
 11
-24979.6717
 21
-12492.34772
 31
0.0
 12
-24979.8717
 22
-12491.34772
 32
0.0
 13
-24979.6717
 23
-12491.34772
 33
0.0
  0
SOLID
  5
EB5
330
A
100
AcDbEntity
  8
SOLDERMASK_PADS_BTM
100
AcDbTrace
 10
-24980.2717
 20
-12492.34772
 30
0.0
 11
-24980.0717
 21
-12492.34772
 31
0.0
 12
-24980.2717
 22
-12491.34772
 32
0.0
 13
-24980.0717
 23
-12491.34772
 33
0.0
  0
SOLID
  5
EB6
330
A
100
AcDbEntity
  8
SOLDERMASK_PADS_BTM
100
AcDbTrace
 10
-24980.11132
 20
-12489.284566
 30
0.0
 11
-24979.73532
 21
-12489.284566
 31
0.0
 12
-24980.11132
 22
-12488.784566
 32
0.0
 13
-24979.73532
 23
-12488.784566
 33
0.0
  0
SOLID
  5
EB7
330
A
100
AcDbEntity
  8
SOLDERMASK_PADS_BTM
100
AcDbTrace
 10
-24979.28532
 20
-12489.284566
 30
0.0
 11
-24978.90932
 21
-12489.284566
 31
0.0
 12
-24979.28532
 22
-12488.784566
 32
0.0
 13
-24978.90932
 23
-12488.784566
 33
0.0
  0
SOLID
  5
EB8
330
A
100
AcDbEntity
  8
SOLDERMASK_PADS_BTM
100
AcDbTrace
 10
-24979.873497
 20
-12486.721413
 30
0.0
 11
-24979.673497
 21
-12486.721413
 31
0.0
 12
-24979.873497
 22
-12485.721413
 32
0.0
 13
-24979.673497
 23
-12485.721413
 33
0.0
  0
SOLID
  5
EB9
330
A
100
AcDbEntity
  8
SOLDERMASK_PADS_BTM
100
AcDbTrace
 10
-24980.273497
 20
-12486.721413
 30
0.0
 11
-24980.073497
 21
-12486.721413
 31
0.0
 12
-24980.273497
 22
-12485.721413
 32
0.0
 13
-24980.073497
 23
-12485.721413
 33
0.0
  0
SOLID
  5
EBA
330
A
100
AcDbEntity
  8
SOLDERMASK_PADS_BTM
100
AcDbTrace
 10
-24965.490683
 20
-12486.17832
 30
0.0
 11
-24965.290683
 21
-12486.17832
 31
0.0
 12
-24965.490683
 22
-12485.17832
 32
0.0
 13
-24965.290683
 23
-12485.17832
 33
0.0
  0
SOLID
  5
EBB
330
A
100
AcDbEntity
  8
SOLDERMASK_PADS_BTM
100
AcDbTrace
 10
-24965.090683
 20
-12486.17832
 30
0.0
 11
-24964.890683
 21
-12486.17832
 31
0.0
 12
-24965.090683
 22
-12485.17832
 32
0.0
 13
-24964.890683
 23
-12485.17832
 33
0.0
  0
SOLID
  5
EBC
330
A
100
AcDbEntity
  8
SOLDERMASK_PADS_BTM
100
AcDbTrace
 10
-24979.8717
 20
-12491.145536
 30
0.0
 11
-24979.6717
 21
-12491.145536
 31
0.0
 12
-24979.8717
 22
-12490.145536
 32
0.0
 13
-24979.6717
 23
-12490.145536
 33
0.0
  0
SOLID
  5
EBD
330
A
100
AcDbEntity
  8
SOLDERMASK_PADS_BTM
100
AcDbTrace
 10
-24980.2717
 20
-12491.145536
 30
0.0
 11
-24980.0717
 21
-12491.145536
 31
0.0
 12
-24980.2717
 22
-12490.145536
 32
0.0
 13
-24980.0717
 23
-12490.145536
 33
0.0
  0
SOLID
  5
EBE
330
A
100
AcDbEntity
  8
SOLDERMASK_PADS_BTM
100
AcDbTrace
 10
-24980.11132
 20
-12489.959566
 30
0.0
 11
-24979.73532
 21
-12489.959566
 31
0.0
 12
-24980.11132
 22
-12489.459566
 32
0.0
 13
-24979.73532
 23
-12489.459566
 33
0.0
  0
SOLID
  5
EBF
330
A
100
AcDbEntity
  8
SOLDERMASK_PADS_BTM
100
AcDbTrace
 10
-24979.28532
 20
-12489.959566
 30
0.0
 11
-24978.90932
 21
-12489.959566
 31
0.0
 12
-24979.28532
 22
-12489.459566
 32
0.0
 13
-24978.90932
 23
-12489.459566
 33
0.0
  0
SOLID
  5
EC0
330
A
100
AcDbEntity
  8
SOLDERMASK_PADS_BTM
100
AcDbTrace
 10
-24979.873497
 20
-12487.923597
 30
0.0
 11
-24979.673497
 21
-12487.923597
 31
0.0
 12
-24979.873497
 22
-12486.923597
 32
0.0
 13
-24979.673497
 23
-12486.923597
 33
0.0
  0
SOLID
  5
EC1
330
A
100
AcDbEntity
  8
SOLDERMASK_PADS_BTM
100
AcDbTrace
 10
-24980.273497
 20
-12487.923597
 30
0.0
 11
-24980.073497
 21
-12487.923597
 31
0.0
 12
-24980.273497
 22
-12486.923597
 32
0.0
 13
-24980.073497
 23
-12486.923597
 33
0.0
  0
SOLID
  5
EC2
330
A
100
AcDbEntity
  8
SOLDERMASK_PADS_BTM
100
AcDbTrace
 10
-24965.490683
 20
-12487.381536
 30
0.0
 11
-24965.290683
 21
-12487.381536
 31
0.0
 12
-24965.490683
 22
-12486.381536
 32
0.0
 13
-24965.290683
 23
-12486.381536
 33
0.0
  0
SOLID
  5
EC3
330
A
100
AcDbEntity
  8
SOLDERMASK_PADS_BTM
100
AcDbTrace
 10
-24965.090683
 20
-12487.381536
 30
0.0
 11
-24964.890683
 21
-12487.381536
 31
0.0
 12
-24965.090683
 22
-12486.381536
 32
0.0
 13
-24964.890683
 23
-12486.381536
 33
0.0
  0
SOLID
  5
EC4
330
A
100
AcDbEntity
  8
SOLDERMASK_PADS_BTM
100
AcDbTrace
 10
-24962.505057
 20
-12484.8241
 30
0.0
 11
-24962.305057
 21
-12484.8241
 31
0.0
 12
-24962.505057
 22
-12484.6741
 32
0.0
 13
-24962.305057
 23
-12484.6741
 33
0.0
  0
SOLID
  5
EC5
330
A
100
AcDbEntity
  8
SOLDERMASK_PADS_BTM
100
AcDbTrace
 10
-24962.505057
 20
-12485.1541
 30
0.0
 11
-24962.305057
 21
-12485.1541
 31
0.0
 12
-24962.505057
 22
-12485.0041
 32
0.0
 13
-24962.305057
 23
-12485.0041
 33
0.0
  0
SOLID
  5
EC6
330
A
100
AcDbEntity
  8
SOLDERMASK_PADS_BTM
100
AcDbTrace
 10
-24968.965683
 20
-12488.584752
 30
0.0
 11
-24968.765683
 21
-12488.584752
 31
0.0
 12
-24968.965683
 22
-12487.584752
 32
0.0
 13
-24968.765683
 23
-12487.584752
 33
0.0
  0
SOLID
  5
EC7
330
A
100
AcDbEntity
  8
SOLDERMASK_PADS_BTM
100
AcDbTrace
 10
-24969.365683
 20
-12488.584752
 30
0.0
 11
-24969.165683
 21
-12488.584752
 31
0.0
 12
-24969.365683
 22
-12487.584752
 32
0.0
 13
-24969.165683
 23
-12487.584752
 33
0.0
  0
SOLID
  5
EC8
330
A
100
AcDbEntity
  8
SOLDERMASK_PADS_BTM
100
AcDbTrace
 10
-24965.490683
 20
-12488.584752
 30
0.0
 11
-24965.290683
 21
-12488.584752
 31
0.0
 12
-24965.490683
 22
-12487.584752
 32
0.0
 13
-24965.290683
 23
-12487.584752
 33
0.0
  0
SOLID
  5
EC9
330
A
100
AcDbEntity
  8
SOLDERMASK_PADS_BTM
100
AcDbTrace
 10
-24965.090683
 20
-12488.584752
 30
0.0
 11
-24964.890683
 21
-12488.584752
 31
0.0
 12
-24965.090683
 22
-12487.584752
 32
0.0
 13
-24964.890683
 23
-12487.584752
 33
0.0
  0
SOLID
  5
ECA
330
A
100
AcDbEntity
  8
SOLDERMASK_PADS_BTM
100
AcDbTrace
 10
-24968.965683
 20
-12489.862915
 30
0.0
 11
-24968.765683
 21
-12489.862915
 31
0.0
 12
-24968.965683
 22
-12488.862915
 32
0.0
 13
-24968.765683
 23
-12488.862915
 33
0.0
  0
SOLID
  5
ECB
330
A
100
AcDbEntity
  8
SOLDERMASK_PADS_BTM
100
AcDbTrace
 10
-24969.365683
 20
-12489.862915
 30
0.0
 11
-24969.165683
 21
-12489.862915
 31
0.0
 12
-24969.365683
 22
-12488.862915
 32
0.0
 13
-24969.165683
 23
-12488.862915
 33
0.0
  0
SOLID
  5
ECC
330
A
100
AcDbEntity
  8
SOLDERMASK_PADS_BTM
100
AcDbTrace
 10
-24965.490683
 20
-12489.862915
 30
0.0
 11
-24965.290683
 21
-12489.862915
 31
0.0
 12
-24965.490683
 22
-12488.862915
 32
0.0
 13
-24965.290683
 23
-12488.862915
 33
0.0
  0
SOLID
  5
ECD
330
A
100
AcDbEntity
  8
SOLDERMASK_PADS_BTM
100
AcDbTrace
 10
-24965.090683
 20
-12489.862915
 30
0.0
 11
-24964.890683
 21
-12489.862915
 31
0.0
 12
-24965.090683
 22
-12488.862915
 32
0.0
 13
-24964.890683
 23
-12488.862915
 33
0.0
  0
SOLID
  5
ECE
330
A
100
AcDbEntity
  8
SOLDERMASK_PADS_BTM
100
AcDbTrace
 10
-24968.965683
 20
-12491.066131
 30
0.0
 11
-24968.765683
 21
-12491.066131
 31
0.0
 12
-24968.965683
 22
-12490.066131
 32
0.0
 13
-24968.765683
 23
-12490.066131
 33
0.0
  0
SOLID
  5
ECF
330
A
100
AcDbEntity
  8
SOLDERMASK_PADS_BTM
100
AcDbTrace
 10
-24969.365683
 20
-12491.066131
 30
0.0
 11
-24969.165683
 21
-12491.066131
 31
0.0
 12
-24969.365683
 22
-12490.066131
 32
0.0
 13
-24969.165683
 23
-12490.066131
 33
0.0
  0
SOLID
  5
ED0
330
A
100
AcDbEntity
  8
SOLDERMASK_PADS_BTM
100
AcDbTrace
 10
-24981.612173
 20
-12483.858011
 30
0.0
 11
-24981.412173
 21
-12483.858011
 31
0.0
 12
-24981.612173
 22
-12483.708011
 32
0.0
 13
-24981.412173
 23
-12483.708011
 33
0.0
  0
SOLID
  5
ED1
330
A
100
AcDbEntity
  8
SOLDERMASK_PADS_BTM
100
AcDbTrace
 10
-24981.612173
 20
-12484.188011
 30
0.0
 11
-24981.412173
 21
-12484.188011
 31
0.0
 12
-24981.612173
 22
-12484.038011
 32
0.0
 13
-24981.412173
 23
-12484.038011
 33
0.0
  0
SOLID
  5
ED2
330
A
100
AcDbEntity
  8
SOLDERMASK_PADS_BTM
100
AcDbTrace
 10
-24965.490683
 20
-12491.066131
 30
0.0
 11
-24965.290683
 21
-12491.066131
 31
0.0
 12
-24965.490683
 22
-12490.066131
 32
0.0
 13
-24965.290683
 23
-12490.066131
 33
0.0
  0
SOLID
  5
ED3
330
A
100
AcDbEntity
  8
SOLDERMASK_PADS_BTM
100
AcDbTrace
 10
-24965.090683
 20
-12491.066131
 30
0.0
 11
-24964.890683
 21
-12491.066131
 31
0.0
 12
-24965.090683
 22
-12490.066131
 32
0.0
 13
-24964.890683
 23
-12490.066131
 33
0.0
  0
SOLID
  5
ED4
330
A
100
AcDbEntity
  8
SOLDERMASK_PADS_BTM
100
AcDbTrace
 10
-24977.564162
 20
-12483.858011
 30
0.0
 11
-24977.364162
 21
-12483.858011
 31
0.0
 12
-24977.564162
 22
-12483.708011
 32
0.0
 13
-24977.364162
 23
-12483.708011
 33
0.0
  0
SOLID
  5
ED5
330
A
100
AcDbEntity
  8
SOLDERMASK_PADS_BTM
100
AcDbTrace
 10
-24977.564162
 20
-12484.188011
 30
0.0
 11
-24977.364162
 21
-12484.188011
 31
0.0
 12
-24977.564162
 22
-12484.038011
 32
0.0
 13
-24977.364162
 23
-12484.038011
 33
0.0
  0
SOLID
  5
ED6
330
A
100
AcDbEntity
  8
SOLDERMASK_PADS_BTM
100
AcDbTrace
 10
-24977.100506
 20
-12488.609566
 30
0.0
 11
-24976.724506
 21
-12488.609566
 31
0.0
 12
-24977.100506
 22
-12488.109566
 32
0.0
 13
-24976.724506
 23
-12488.109566
 33
0.0
  0
SOLID
  5
ED7
330
A
100
AcDbEntity
  8
SOLDERMASK_PADS_BTM
100
AcDbTrace
 10
-24976.274506
 20
-12488.609566
 30
0.0
 11
-24975.898506
 21
-12488.609566
 31
0.0
 12
-24976.274506
 22
-12488.109566
 32
0.0
 13
-24975.898506
 23
-12488.109566
 33
0.0
  0
SOLID
  5
ED8
330
A
100
AcDbEntity
  8
SOLDERMASK_PADS_BTM
100
AcDbTrace
 10
-24968.965683
 20
-12492.269347
 30
0.0
 11
-24968.765683
 21
-12492.269347
 31
0.0
 12
-24968.965683
 22
-12491.269347
 32
0.0
 13
-24968.765683
 23
-12491.269347
 33
0.0
  0
SOLID
  5
ED9
330
A
100
AcDbEntity
  8
SOLDERMASK_PADS_BTM
100
AcDbTrace
 10
-24969.365683
 20
-12492.269347
 30
0.0
 11
-24969.165683
 21
-12492.269347
 31
0.0
 12
-24969.365683
 22
-12491.269347
 32
0.0
 13
-24969.165683
 23
-12491.269347
 33
0.0
  0
SOLID
  5
EDA
330
A
100
AcDbEntity
  8
SOLDERMASK_PADS_BTM
100
AcDbTrace
 10
-24965.490683
 20
-12492.269347
 30
0.0
 11
-24965.290683
 21
-12492.269347
 31
0.0
 12
-24965.490683
 22
-12491.269347
 32
0.0
 13
-24965.290683
 23
-12491.269347
 33
0.0
  0
SOLID
  5
EDB
330
A
100
AcDbEntity
  8
SOLDERMASK_PADS_BTM
100
AcDbTrace
 10
-24965.090683
 20
-12492.269347
 30
0.0
 11
-24964.890683
 21
-12492.269347
 31
0.0
 12
-24965.090683
 22
-12491.269347
 32
0.0
 13
-24964.890683
 23
-12491.269347
 33
0.0
  0
SOLID
  5
EDC
330
A
100
AcDbEntity
  8
SOLDERMASK_PADS_BTM
100
AcDbTrace
 10
-24977.100506
 20
-12489.284566
 30
0.0
 11
-24976.724506
 21
-12489.284566
 31
0.0
 12
-24977.100506
 22
-12488.784566
 32
0.0
 13
-24976.724506
 23
-12488.784566
 33
0.0
  0
SOLID
  5
EDD
330
A
100
AcDbEntity
  8
SOLDERMASK_PADS_BTM
100
AcDbTrace
 10
-24976.274506
 20
-12489.284566
 30
0.0
 11
-24975.898506
 21
-12489.284566
 31
0.0
 12
-24976.274506
 22
-12488.784566
 32
0.0
 13
-24975.898506
 23
-12488.784566
 33
0.0
  0
SOLID
  5
EDE
330
A
100
AcDbEntity
  8
SOLDERMASK_PADS_BTM
100
AcDbTrace
 10
-24968.965683
 20
-12493.472563
 30
0.0
 11
-24968.765683
 21
-12493.472563
 31
0.0
 12
-24968.965683
 22
-12492.472563
 32
0.0
 13
-24968.765683
 23
-12492.472563
 33
0.0
  0
SOLID
  5
EDF
330
A
100
AcDbEntity
  8
SOLDERMASK_PADS_BTM
100
AcDbTrace
 10
-24969.365683
 20
-12493.472563
 30
0.0
 11
-24969.165683
 21
-12493.472563
 31
0.0
 12
-24969.365683
 22
-12492.472563
 32
0.0
 13
-24969.165683
 23
-12492.472563
 33
0.0
  0
SOLID
  5
EE0
330
A
100
AcDbEntity
  8
SOLDERMASK_PADS_BTM
100
AcDbTrace
 10
-24977.625165
 20
-12485.519229
 30
0.0
 11
-24977.425165
 21
-12485.519229
 31
0.0
 12
-24977.625165
 22
-12484.519229
 32
0.0
 13
-24977.425165
 23
-12484.519229
 33
0.0
  0
SOLID
  5
EE1
330
A
100
AcDbEntity
  8
SOLDERMASK_PADS_BTM
100
AcDbTrace
 10
-24978.025165
 20
-12485.519229
 30
0.0
 11
-24977.825165
 21
-12485.519229
 31
0.0
 12
-24978.025165
 22
-12484.519229
 32
0.0
 13
-24977.825165
 23
-12484.519229
 33
0.0
  0
SOLID
  5
EE2
330
A
100
AcDbEntity
  8
SOLDERMASK_PADS_BTM
100
AcDbTrace
 10
-24965.490683
 20
-12493.472563
 30
0.0
 11
-24965.290683
 21
-12493.472563
 31
0.0
 12
-24965.490683
 22
-12492.472563
 32
0.0
 13
-24965.290683
 23
-12492.472563
 33
0.0
  0
SOLID
  5
EE3
330
A
100
AcDbEntity
  8
SOLDERMASK_PADS_BTM
100
AcDbTrace
 10
-24965.090683
 20
-12493.472563
 30
0.0
 11
-24964.890683
 21
-12493.472563
 31
0.0
 12
-24965.090683
 22
-12492.472563
 32
0.0
 13
-24964.890683
 23
-12492.472563
 33
0.0
  0
SOLID
  5
EE4
330
A
100
AcDbEntity
  8
SOLDERMASK_PADS_BTM
100
AcDbTrace
 10
-24977.623368
 20
-12493.549904
 30
0.0
 11
-24977.423368
 21
-12493.549904
 31
0.0
 12
-24977.623368
 22
-12492.549904
 32
0.0
 13
-24977.423368
 23
-12492.549904
 33
0.0
  0
SOLID
  5
EE5
330
A
100
AcDbEntity
  8
SOLDERMASK_PADS_BTM
100
AcDbTrace
 10
-24978.023368
 20
-12493.549904
 30
0.0
 11
-24977.823368
 21
-12493.549904
 31
0.0
 12
-24978.023368
 22
-12492.549904
 32
0.0
 13
-24977.823368
 23
-12492.549904
 33
0.0
  0
SOLID
  5
EE6
330
A
100
AcDbEntity
  8
SOLDERMASK_PADS_BTM
100
AcDbTrace
 10
-24977.100506
 20
-12489.959566
 30
0.0
 11
-24976.724506
 21
-12489.959566
 31
0.0
 12
-24977.100506
 22
-12489.459566
 32
0.0
 13
-24976.724506
 23
-12489.459566
 33
0.0
  0
SOLID
  5
EE7
330
A
100
AcDbEntity
  8
SOLDERMASK_PADS_BTM
100
AcDbTrace
 10
-24976.274506
 20
-12489.959566
 30
0.0
 11
-24975.898506
 21
-12489.959566
 31
0.0
 12
-24976.274506
 22
-12489.459566
 32
0.0
 13
-24975.898506
 23
-12489.459566
 33
0.0
  0
SOLID
  5
EE8
330
A
100
AcDbEntity
  8
SOLDERMASK_PADS_BTM
100
AcDbTrace
 10
-24975.595099
 20
-12489.284566
 30
0.0
 11
-24975.219099
 21
-12489.284566
 31
0.0
 12
-24975.595099
 22
-12488.784566
 32
0.0
 13
-24975.219099
 23
-12488.784566
 33
0.0
  0
SOLID
  5
EE9
330
A
100
AcDbEntity
  8
SOLDERMASK_PADS_BTM
100
AcDbTrace
 10
-24974.769099
 20
-12489.284566
 30
0.0
 11
-24974.393099
 21
-12489.284566
 31
0.0
 12
-24974.769099
 22
-12488.784566
 32
0.0
 13
-24974.393099
 23
-12488.784566
 33
0.0
  0
SOLID
  5
EEA
330
A
100
AcDbEntity
  8
SOLDERMASK_PADS_BTM
100
AcDbTrace
 10
-24964.715683
 20
-12485.0491
 30
0.0
 11
-24964.565683
 21
-12485.0491
 31
0.0
 12
-24964.715683
 22
-12484.8491
 32
0.0
 13
-24964.565683
 23
-12484.8491
 33
0.0
  0
SOLID
  5
EEB
330
A
100
AcDbEntity
  8
SOLDERMASK_PADS_BTM
100
AcDbTrace
 10
-24964.385683
 20
-12485.0491
 30
0.0
 11
-24964.235683
 21
-12485.0491
 31
0.0
 12
-24964.385683
 22
-12484.8491
 32
0.0
 13
-24964.235683
 23
-12484.8491
 33
0.0
  0
SOLID
  5
EEC
330
A
100
AcDbEntity
  8
SOLDERMASK_PADS_BTM
100
AcDbTrace
 10
-24977.625165
 20
-12486.721413
 30
0.0
 11
-24977.425165
 21
-12486.721413
 31
0.0
 12
-24977.625165
 22
-12485.721413
 32
0.0
 13
-24977.425165
 23
-12485.721413
 33
0.0
  0
SOLID
  5
EED
330
A
100
AcDbEntity
  8
SOLDERMASK_PADS_BTM
100
AcDbTrace
 10
-24978.025165
 20
-12486.721413
 30
0.0
 11
-24977.825165
 21
-12486.721413
 31
0.0
 12
-24978.025165
 22
-12485.721413
 32
0.0
 13
-24977.825165
 23
-12485.721413
 33
0.0
  0
SOLID
  5
EEE
330
A
100
AcDbEntity
  8
SOLDERMASK_PADS_BTM
100
AcDbTrace
 10
-24977.623368
 20
-12492.34772
 30
0.0
 11
-24977.423368
 21
-12492.34772
 31
0.0
 12
-24977.623368
 22
-12491.34772
 32
0.0
 13
-24977.423368
 23
-12491.34772
 33
0.0
  0
SOLID
  5
EEF
330
A
100
AcDbEntity
  8
SOLDERMASK_PADS_BTM
100
AcDbTrace
 10
-24978.023368
 20
-12492.34772
 30
0.0
 11
-24977.823368
 21
-12492.34772
 31
0.0
 12
-24978.023368
 22
-12491.34772
 32
0.0
 13
-24977.823368
 23
-12491.34772
 33
0.0
  0
SOLID
  5
EF0
330
A
100
AcDbEntity
  8
SOLDERMASK_PADS_BTM
100
AcDbTrace
 10
-24975.595099
 20
-12488.609566
 30
0.0
 11
-24975.219099
 21
-12488.609566
 31
0.0
 12
-24975.595099
 22
-12488.109566
 32
0.0
 13
-24975.219099
 23
-12488.109566
 33
0.0
  0
SOLID
  5
EF1
330
A
100
AcDbEntity
  8
SOLDERMASK_PADS_BTM
100
AcDbTrace
 10
-24974.769099
 20
-12488.609566
 30
0.0
 11
-24974.393099
 21
-12488.609566
 31
0.0
 12
-24974.769099
 22
-12488.109566
 32
0.0
 13
-24974.393099
 23
-12488.109566
 33
0.0
  0
SOLID
  5
EF2
330
A
100
AcDbEntity
  8
SOLDERMASK_PADS_BTM
100
AcDbTrace
 10
-24975.595099
 20
-12489.959566
 30
0.0
 11
-24975.219099
 21
-12489.959566
 31
0.0
 12
-24975.595099
 22
-12489.459566
 32
0.0
 13
-24975.219099
 23
-12489.459566
 33
0.0
  0
SOLID
  5
EF3
330
A
100
AcDbEntity
  8
SOLDERMASK_PADS_BTM
100
AcDbTrace
 10
-24974.769099
 20
-12489.959566
 30
0.0
 11
-24974.393099
 21
-12489.959566
 31
0.0
 12
-24974.769099
 22
-12489.459566
 32
0.0
 13
-24974.393099
 23
-12489.459566
 33
0.0
  0
SOLID
  5
EF4
330
A
100
AcDbEntity
  8
SOLDERMASK_PADS_BTM
100
AcDbTrace
 10
-24968.190683
 20
-12488.584752
 30
0.0
 11
-24967.990683
 21
-12488.584752
 31
0.0
 12
-24968.190683
 22
-12487.584752
 32
0.0
 13
-24967.990683
 23
-12487.584752
 33
0.0
  0
SOLID
  5
EF5
330
A
100
AcDbEntity
  8
SOLDERMASK_PADS_BTM
100
AcDbTrace
 10
-24968.590683
 20
-12488.584752
 30
0.0
 11
-24968.390683
 21
-12488.584752
 31
0.0
 12
-24968.590683
 22
-12487.584752
 32
0.0
 13
-24968.390683
 23
-12487.584752
 33
0.0
  0
SOLID
  5
EF6
330
A
100
AcDbEntity
  8
SOLDERMASK_PADS_BTM
100
AcDbTrace
 10
-24964.715683
 20
-12485.4241
 30
0.0
 11
-24964.565683
 21
-12485.4241
 31
0.0
 12
-24964.715683
 22
-12485.2241
 32
0.0
 13
-24964.565683
 23
-12485.2241
 33
0.0
  0
SOLID
  5
EF7
330
A
100
AcDbEntity
  8
SOLDERMASK_PADS_BTM
100
AcDbTrace
 10
-24964.385683
 20
-12485.4241
 30
0.0
 11
-24964.235683
 21
-12485.4241
 31
0.0
 12
-24964.385683
 22
-12485.2241
 32
0.0
 13
-24964.235683
 23
-12485.2241
 33
0.0
  0
SOLID
  5
EF8
330
A
100
AcDbEntity
  8
SOLDERMASK_PADS_BTM
100
AcDbTrace
 10
-24977.625165
 20
-12487.923597
 30
0.0
 11
-24977.425165
 21
-12487.923597
 31
0.0
 12
-24977.625165
 22
-12486.923597
 32
0.0
 13
-24977.425165
 23
-12486.923597
 33
0.0
  0
SOLID
  5
EF9
330
A
100
AcDbEntity
  8
SOLDERMASK_PADS_BTM
100
AcDbTrace
 10
-24978.025165
 20
-12487.923597
 30
0.0
 11
-24977.825165
 21
-12487.923597
 31
0.0
 12
-24978.025165
 22
-12486.923597
 32
0.0
 13
-24977.825165
 23
-12486.923597
 33
0.0
  0
SOLID
  5
EFA
330
A
100
AcDbEntity
  8
SOLDERMASK_PADS_BTM
100
AcDbTrace
 10
-24977.623368
 20
-12491.145536
 30
0.0
 11
-24977.423368
 21
-12491.145536
 31
0.0
 12
-24977.623368
 22
-12490.145536
 32
0.0
 13
-24977.423368
 23
-12490.145536
 33
0.0
  0
SOLID
  5
EFB
330
A
100
AcDbEntity
  8
SOLDERMASK_PADS_BTM
100
AcDbTrace
 10
-24978.023368
 20
-12491.145536
 30
0.0
 11
-24977.823368
 21
-12491.145536
 31
0.0
 12
-24978.023368
 22
-12490.145536
 32
0.0
 13
-24977.823368
 23
-12490.145536
 33
0.0
  0
SOLID
  5
EFC
330
A
100
AcDbEntity
  8
SOLDERMASK_PADS_BTM
100
AcDbTrace
 10
-24968.190683
 20
-12489.862915
 30
0.0
 11
-24967.990683
 21
-12489.862915
 31
0.0
 12
-24968.190683
 22
-12488.862915
 32
0.0
 13
-24967.990683
 23
-12488.862915
 33
0.0
  0
SOLID
  5
EFD
330
A
100
AcDbEntity
  8
SOLDERMASK_PADS_BTM
100
AcDbTrace
 10
-24968.590683
 20
-12489.862915
 30
0.0
 11
-24968.390683
 21
-12489.862915
 31
0.0
 12
-24968.590683
 22
-12488.862915
 32
0.0
 13
-24968.390683
 23
-12488.862915
 33
0.0
  0
SOLID
  5
EFE
330
A
100
AcDbEntity
  8
SOLDERMASK_PADS_BTM
100
AcDbTrace
 10
-24964.715683
 20
-12485.7991
 30
0.0
 11
-24964.565683
 21
-12485.7991
 31
0.0
 12
-24964.715683
 22
-12485.5991
 32
0.0
 13
-24964.565683
 23
-12485.5991
 33
0.0
  0
SOLID
  5
EFF
330
A
100
AcDbEntity
  8
SOLDERMASK_PADS_BTM
100
AcDbTrace
 10
-24964.385683
 20
-12485.7991
 30
0.0
 11
-24964.235683
 21
-12485.7991
 31
0.0
 12
-24964.385683
 22
-12485.5991
 32
0.0
 13
-24964.235683
 23
-12485.5991
 33
0.0
  0
SOLID
  5
F00
330
A
100
AcDbEntity
  8
SOLDERMASK_PADS_BTM
100
AcDbTrace
 10
-24979.498497
 20
-12485.519229
 30
0.0
 11
-24979.298497
 21
-12485.519229
 31
0.0
 12
-24979.498497
 22
-12484.519229
 32
0.0
 13
-24979.298497
 23
-12484.519229
 33
0.0
  0
SOLID
  5
F01
330
A
100
AcDbEntity
  8
SOLDERMASK_PADS_BTM
100
AcDbTrace
 10
-24979.098497
 20
-12485.519229
 30
0.0
 11
-24978.898497
 21
-12485.519229
 31
0.0
 12
-24979.098497
 22
-12484.519229
 32
0.0
 13
-24978.898497
 23
-12484.519229
 33
0.0
  0
SOLID
  5
F02
330
A
100
AcDbEntity
  8
SOLDERMASK_PADS_BTM
100
AcDbTrace
 10
-24960.9841
 20
-12487.1887
 30
0.0
 11
-24960.8341
 21
-12487.1887
 31
0.0
 12
-24960.9841
 22
-12486.9887
 32
0.0
 13
-24960.8341
 23
-12486.9887
 33
0.0
  0
SOLID
  5
F03
330
A
100
AcDbEntity
  8
SOLDERMASK_PADS_BTM
100
AcDbTrace
 10
-24961.3141
 20
-12487.1887
 30
0.0
 11
-24961.1641
 21
-12487.1887
 31
0.0
 12
-24961.3141
 22
-12486.9887
 32
0.0
 13
-24961.1641
 23
-12486.9887
 33
0.0
  0
SOLID
  5
F04
330
A
100
AcDbEntity
  8
SOLDERMASK_PADS_BTM
100
AcDbTrace
 10
-24979.4967
 20
-12493.549904
 30
0.0
 11
-24979.2967
 21
-12493.549904
 31
0.0
 12
-24979.4967
 22
-12492.549904
 32
0.0
 13
-24979.2967
 23
-12492.549904
 33
0.0
  0
SOLID
  5
F05
330
A
100
AcDbEntity
  8
SOLDERMASK_PADS_BTM
100
AcDbTrace
 10
-24979.0967
 20
-12493.549904
 30
0.0
 11
-24978.8967
 21
-12493.549904
 31
0.0
 12
-24979.0967
 22
-12492.549904
 32
0.0
 13
-24978.8967
 23
-12492.549904
 33
0.0
  0
SOLID
  5
F06
330
A
100
AcDbEntity
  8
SOLDERMASK_PADS_BTM
100
AcDbTrace
 10
-24960.9841
 20
-12488.1897
 30
0.0
 11
-24960.8341
 21
-12488.1897
 31
0.0
 12
-24960.9841
 22
-12487.9897
 32
0.0
 13
-24960.8341
 23
-12487.9897
 33
0.0
  0
SOLID
  5
F07
330
A
100
AcDbEntity
  8
SOLDERMASK_PADS_BTM
100
AcDbTrace
 10
-24961.3141
 20
-12488.1897
 30
0.0
 11
-24961.1641
 21
-12488.1897
 31
0.0
 12
-24961.3141
 22
-12487.9897
 32
0.0
 13
-24961.1641
 23
-12487.9897
 33
0.0
  0
SOLID
  5
F08
330
A
100
AcDbEntity
  8
SOLDERMASK_PADS_BTM
100
AcDbTrace
 10
-24960.9841
 20
-12490.396597
 30
0.0
 11
-24960.8341
 21
-12490.396597
 31
0.0
 12
-24960.9841
 22
-12490.196597
 32
0.0
 13
-24960.8341
 23
-12490.196597
 33
0.0
  0
SOLID
  5
F09
330
A
100
AcDbEntity
  8
SOLDERMASK_PADS_BTM
100
AcDbTrace
 10
-24961.3141
 20
-12490.396597
 30
0.0
 11
-24961.1641
 21
-12490.396597
 31
0.0
 12
-24961.3141
 22
-12490.196597
 32
0.0
 13
-24961.1641
 23
-12490.196597
 33
0.0
  0
SOLID
  5
F0A
330
A
100
AcDbEntity
  8
SOLDERMASK_PADS_BTM
100
AcDbTrace
 10
-24968.190683
 20
-12491.066131
 30
0.0
 11
-24967.990683
 21
-12491.066131
 31
0.0
 12
-24968.190683
 22
-12490.066131
 32
0.0
 13
-24967.990683
 23
-12490.066131
 33
0.0
  0
SOLID
  5
F0B
330
A
100
AcDbEntity
  8
SOLDERMASK_PADS_BTM
100
AcDbTrace
 10
-24968.590683
 20
-12491.066131
 30
0.0
 11
-24968.390683
 21
-12491.066131
 31
0.0
 12
-24968.590683
 22
-12490.066131
 32
0.0
 13
-24968.390683
 23
-12490.066131
 33
0.0
  0
SOLID
  5
F0C
330
A
100
AcDbEntity
  8
SOLDERMASK_PADS_BTM
100
AcDbTrace
 10
-24961.284907
 20
-12493.188077
 30
0.0
 11
-24961.134907
 21
-12493.188077
 31
0.0
 12
-24961.284907
 22
-12492.988077
 32
0.0
 13
-24961.134907
 23
-12492.988077
 33
0.0
  0
SOLID
  5
F0D
330
A
100
AcDbEntity
  8
SOLDERMASK_PADS_BTM
100
AcDbTrace
 10
-24961.614907
 20
-12493.188077
 30
0.0
 11
-24961.464907
 21
-12493.188077
 31
0.0
 12
-24961.614907
 22
-12492.988077
 32
0.0
 13
-24961.464907
 23
-12492.988077
 33
0.0
  0
SOLID
  5
F0E
330
A
100
AcDbEntity
  8
SOLDERMASK_PADS_BTM
100
AcDbTrace
 10
-24964.715683
 20
-12492.676011
 30
0.0
 11
-24964.565683
 21
-12492.676011
 31
0.0
 12
-24964.715683
 22
-12492.476011
 32
0.0
 13
-24964.565683
 23
-12492.476011
 33
0.0
  0
SOLID
  5
F0F
330
A
100
AcDbEntity
  8
SOLDERMASK_PADS_BTM
100
AcDbTrace
 10
-24964.385683
 20
-12492.676011
 30
0.0
 11
-24964.235683
 21
-12492.676011
 31
0.0
 12
-24964.385683
 22
-12492.476011
 32
0.0
 13
-24964.235683
 23
-12492.476011
 33
0.0
  0
SOLID
  5
F10
330
A
100
AcDbEntity
  8
SOLDERMASK_PADS_BTM
100
AcDbTrace
 10
-24979.498497
 20
-12486.721413
 30
0.0
 11
-24979.298497
 21
-12486.721413
 31
0.0
 12
-24979.498497
 22
-12485.721413
 32
0.0
 13
-24979.298497
 23
-12485.721413
 33
0.0
  0
SOLID
  5
F11
330
A
100
AcDbEntity
  8
SOLDERMASK_PADS_BTM
100
AcDbTrace
 10
-24979.098497
 20
-12486.721413
 30
0.0
 11
-24978.898497
 21
-12486.721413
 31
0.0
 12
-24979.098497
 22
-12485.721413
 32
0.0
 13
-24978.898497
 23
-12485.721413
 33
0.0
  0
SOLID
  5
F12
330
A
100
AcDbEntity
  8
SOLDERMASK_PADS_BTM
100
AcDbTrace
 10
-24979.4967
 20
-12492.34772
 30
0.0
 11
-24979.2967
 21
-12492.34772
 31
0.0
 12
-24979.4967
 22
-12491.34772
 32
0.0
 13
-24979.2967
 23
-12491.34772
 33
0.0
  0
SOLID
  5
F13
330
A
100
AcDbEntity
  8
SOLDERMASK_PADS_BTM
100
AcDbTrace
 10
-24979.0967
 20
-12492.34772
 30
0.0
 11
-24978.8967
 21
-12492.34772
 31
0.0
 12
-24979.0967
 22
-12491.34772
 32
0.0
 13
-24978.8967
 23
-12491.34772
 33
0.0
  0
SOLID
  5
F14
330
A
100
AcDbEntity
  8
SOLDERMASK_PADS_BTM
100
AcDbTrace
 10
-24968.190683
 20
-12492.269347
 30
0.0
 11
-24967.990683
 21
-12492.269347
 31
0.0
 12
-24968.190683
 22
-12491.269347
 32
0.0
 13
-24967.990683
 23
-12491.269347
 33
0.0
  0
SOLID
  5
F15
330
A
100
AcDbEntity
  8
SOLDERMASK_PADS_BTM
100
AcDbTrace
 10
-24968.590683
 20
-12492.269347
 30
0.0
 11
-24968.390683
 21
-12492.269347
 31
0.0
 12
-24968.590683
 22
-12491.269347
 32
0.0
 13
-24968.390683
 23
-12491.269347
 33
0.0
  0
SOLID
  5
F16
330
A
100
AcDbEntity
  8
SOLDERMASK_PADS_BTM
100
AcDbTrace
 10
-24963.970981
 20
-12487.122587
 30
0.0
 11
-24963.770981
 21
-12487.122587
 31
0.0
 12
-24963.970981
 22
-12486.122587
 32
0.0
 13
-24963.770981
 23
-12486.122587
 33
0.0
  0
SOLID
  5
F17
330
A
100
AcDbEntity
  8
SOLDERMASK_PADS_BTM
100
AcDbTrace
 10
-24964.370981
 20
-12487.122587
 30
0.0
 11
-24964.170981
 21
-12487.122587
 31
0.0
 12
-24964.370981
 22
-12486.122587
 32
0.0
 13
-24964.170981
 23
-12486.122587
 33
0.0
  0
SOLID
  5
F18
330
A
100
AcDbEntity
  8
SOLDERMASK_PADS_BTM
100
AcDbTrace
 10
-24964.715683
 20
-12493.051011
 30
0.0
 11
-24964.565683
 21
-12493.051011
 31
0.0
 12
-24964.715683
 22
-12492.851011
 32
0.0
 13
-24964.565683
 23
-12492.851011
 33
0.0
  0
SOLID
  5
F19
330
A
100
AcDbEntity
  8
SOLDERMASK_PADS_BTM
100
AcDbTrace
 10
-24964.385683
 20
-12493.051011
 30
0.0
 11
-24964.235683
 21
-12493.051011
 31
0.0
 12
-24964.385683
 22
-12492.851011
 32
0.0
 13
-24964.235683
 23
-12492.851011
 33
0.0
  0
SOLID
  5
F1A
330
A
100
AcDbEntity
  8
SOLDERMASK_PADS_BTM
100
AcDbTrace
 10
-24979.498497
 20
-12487.923597
 30
0.0
 11
-24979.298497
 21
-12487.923597
 31
0.0
 12
-24979.498497
 22
-12486.923597
 32
0.0
 13
-24979.298497
 23
-12486.923597
 33
0.0
  0
SOLID
  5
F1B
330
A
100
AcDbEntity
  8
SOLDERMASK_PADS_BTM
100
AcDbTrace
 10
-24979.098497
 20
-12487.923597
 30
0.0
 11
-24978.898497
 21
-12487.923597
 31
0.0
 12
-24979.098497
 22
-12486.923597
 32
0.0
 13
-24978.898497
 23
-12486.923597
 33
0.0
  0
SOLID
  5
F1C
330
A
100
AcDbEntity
  8
SOLDERMASK_PADS_BTM
100
AcDbTrace
 10
-24964.023657
 20
-12492.269347
 30
0.0
 11
-24963.823657
 21
-12492.269347
 31
0.0
 12
-24964.023657
 22
-12491.269347
 32
0.0
 13
-24963.823657
 23
-12491.269347
 33
0.0
  0
SOLID
  5
F1D
330
A
100
AcDbEntity
  8
SOLDERMASK_PADS_BTM
100
AcDbTrace
 10
-24964.423657
 20
-12492.269347
 30
0.0
 11
-24964.223657
 21
-12492.269347
 31
0.0
 12
-24964.423657
 22
-12491.269347
 32
0.0
 13
-24964.223657
 23
-12491.269347
 33
0.0
  0
SOLID
  5
F1E
330
A
100
AcDbEntity
  8
SOLDERMASK_PADS_BTM
100
AcDbTrace
 10
-24983.81751
 20
-12484.719229
 30
0.0
 11
-24983.66751
 21
-12484.719229
 31
0.0
 12
-24983.81751
 22
-12484.519229
 32
0.0
 13
-24983.66751
 23
-12484.519229
 33
0.0
  0
SOLID
  5
F1F
330
A
100
AcDbEntity
  8
SOLDERMASK_PADS_BTM
100
AcDbTrace
 10
-24983.48751
 20
-12484.719229
 30
0.0
 11
-24983.33751
 21
-12484.719229
 31
0.0
 12
-24983.48751
 22
-12484.519229
 32
0.0
 13
-24983.33751
 23
-12484.519229
 33
0.0
  0
SOLID
  5
F20
330
A
100
AcDbEntity
  8
SOLDERMASK_PADS_BTM
100
AcDbTrace
 10
-24979.4967
 20
-12491.145536
 30
0.0
 11
-24979.2967
 21
-12491.145536
 31
0.0
 12
-24979.4967
 22
-12490.145536
 32
0.0
 13
-24979.2967
 23
-12490.145536
 33
0.0
  0
SOLID
  5
F21
330
A
100
AcDbEntity
  8
SOLDERMASK_PADS_BTM
100
AcDbTrace
 10
-24979.0967
 20
-12491.145536
 30
0.0
 11
-24978.8967
 21
-12491.145536
 31
0.0
 12
-24979.0967
 22
-12490.145536
 32
0.0
 13
-24978.8967
 23
-12490.145536
 33
0.0
  0
SOLID
  5
F22
330
A
100
AcDbEntity
  8
SOLDERMASK_PADS_BTM
100
AcDbTrace
 10
-24972.584285
 20
-12488.609566
 30
0.0
 11
-24972.208285
 21
-12488.609566
 31
0.0
 12
-24972.584285
 22
-12488.109566
 32
0.0
 13
-24972.208285
 23
-12488.109566
 33
0.0
  0
SOLID
  5
F23
330
A
100
AcDbEntity
  8
SOLDERMASK_PADS_BTM
100
AcDbTrace
 10
-24971.758285
 20
-12488.609566
 30
0.0
 11
-24971.382285
 21
-12488.609566
 31
0.0
 12
-24971.758285
 22
-12488.109566
 32
0.0
 13
-24971.382285
 23
-12488.109566
 33
0.0
  0
SOLID
  5
F24
330
A
100
AcDbEntity
  8
SOLDERMASK_PADS_BTM
100
AcDbTrace
 10
-24968.190683
 20
-12493.472563
 30
0.0
 11
-24967.990683
 21
-12493.472563
 31
0.0
 12
-24968.190683
 22
-12492.472563
 32
0.0
 13
-24967.990683
 23
-12492.472563
 33
0.0
  0
SOLID
  5
F25
330
A
100
AcDbEntity
  8
SOLDERMASK_PADS_BTM
100
AcDbTrace
 10
-24968.590683
 20
-12493.472563
 30
0.0
 11
-24968.390683
 21
-12493.472563
 31
0.0
 12
-24968.590683
 22
-12492.472563
 32
0.0
 13
-24968.390683
 23
-12492.472563
 33
0.0
  0
SOLID
  5
F26
330
A
100
AcDbEntity
  8
SOLDERMASK_PADS_BTM
100
AcDbTrace
 10
-24964.060683
 20
-12493.188077
 30
0.0
 11
-24963.910683
 21
-12493.188077
 31
0.0
 12
-24964.060683
 22
-12492.988077
 32
0.0
 13
-24963.910683
 23
-12492.988077
 33
0.0
  0
SOLID
  5
F27
330
A
100
AcDbEntity
  8
SOLDERMASK_PADS_BTM
100
AcDbTrace
 10
-24963.730683
 20
-12493.188077
 30
0.0
 11
-24963.580683
 21
-12493.188077
 31
0.0
 12
-24963.730683
 22
-12492.988077
 32
0.0
 13
-24963.580683
 23
-12492.988077
 33
0.0
  0
SOLID
  5
F28
330
A
100
AcDbEntity
  8
SOLDERMASK_PADS_BTM
100
AcDbTrace
 10
-24981.220646
 20
-12483.887229
 30
0.0
 11
-24981.020646
 21
-12483.887229
 31
0.0
 12
-24981.220646
 22
-12483.737229
 32
0.0
 13
-24981.020646
 23
-12483.737229
 33
0.0
  0
SOLID
  5
F29
330
A
100
AcDbEntity
  8
SOLDERMASK_PADS_BTM
100
AcDbTrace
 10
-24981.220646
 20
-12484.217229
 30
0.0
 11
-24981.020646
 21
-12484.217229
 31
0.0
 12
-24981.220646
 22
-12484.067229
 32
0.0
 13
-24981.020646
 23
-12484.067229
 33
0.0
  0
SOLID
  5
F2A
330
A
100
AcDbEntity
  8
SOLDERMASK_PADS_BTM
100
AcDbTrace
 10
-24978.711831
 20
-12485.645229
 30
0.0
 11
-24978.211831
 21
-12485.645229
 31
0.0
 12
-24978.711831
 22
-12485.269229
 32
0.0
 13
-24978.211831
 23
-12485.269229
 33
0.0
  0
SOLID
  5
F2B
330
A
100
AcDbEntity
  8
SOLDERMASK_PADS_BTM
100
AcDbTrace
 10
-24978.711831
 20
-12486.471229
 30
0.0
 11
-24978.211831
 21
-12486.471229
 31
0.0
 12
-24978.711831
 22
-12486.095229
 32
0.0
 13
-24978.211831
 23
-12486.095229
 33
0.0
  0
SOLID
  5
F2C
330
A
100
AcDbEntity
  8
SOLDERMASK_PADS_BTM
100
AcDbTrace
 10
-24977.11501
 20
-12483.887229
 30
0.0
 11
-24976.91501
 21
-12483.887229
 31
0.0
 12
-24977.11501
 22
-12483.737229
 32
0.0
 13
-24976.91501
 23
-12483.737229
 33
0.0
  0
SOLID
  5
F2D
330
A
100
AcDbEntity
  8
SOLDERMASK_PADS_BTM
100
AcDbTrace
 10
-24977.11501
 20
-12484.217229
 30
0.0
 11
-24976.91501
 21
-12484.217229
 31
0.0
 12
-24977.11501
 22
-12484.067229
 32
0.0
 13
-24976.91501
 23
-12484.067229
 33
0.0
  0
SOLID
  5
F2E
330
A
100
AcDbEntity
  8
SOLDERMASK_PADS_BTM
100
AcDbTrace
 10
-24978.710034
 20
-12492.799904
 30
0.0
 11
-24978.210034
 21
-12492.799904
 31
0.0
 12
-24978.710034
 22
-12492.423904
 32
0.0
 13
-24978.210034
 23
-12492.423904
 33
0.0
  0
SOLID
  5
F2F
330
A
100
AcDbEntity
  8
SOLDERMASK_PADS_BTM
100
AcDbTrace
 10
-24978.710034
 20
-12491.973904
 30
0.0
 11
-24978.210034
 21
-12491.973904
 31
0.0
 12
-24978.710034
 22
-12491.597904
 32
0.0
 13
-24978.210034
 23
-12491.597904
 33
0.0
  0
SOLID
  5
F30
330
A
100
AcDbEntity
  8
SOLDERMASK_PADS_BTM
100
AcDbTrace
 10
-24972.584285
 20
-12489.284566
 30
0.0
 11
-24972.208285
 21
-12489.284566
 31
0.0
 12
-24972.584285
 22
-12488.784566
 32
0.0
 13
-24972.208285
 23
-12488.784566
 33
0.0
  0
SOLID
  5
F31
330
A
100
AcDbEntity
  8
SOLDERMASK_PADS_BTM
100
AcDbTrace
 10
-24971.758285
 20
-12489.284566
 30
0.0
 11
-24971.382285
 21
-12489.284566
 31
0.0
 12
-24971.758285
 22
-12488.784566
 32
0.0
 13
-24971.382285
 23
-12488.784566
 33
0.0
  0
SOLID
  5
F32
330
A
100
AcDbEntity
  8
SOLDERMASK_PADS_BTM
100
AcDbTrace
 10
-24967.415683
 20
-12484.975104
 30
0.0
 11
-24967.215683
 21
-12484.975104
 31
0.0
 12
-24967.415683
 22
-12483.975104
 32
0.0
 13
-24967.215683
 23
-12483.975104
 33
0.0
  0
SOLID
  5
F33
330
A
100
AcDbEntity
  8
SOLDERMASK_PADS_BTM
100
AcDbTrace
 10
-24967.815683
 20
-12484.975104
 30
0.0
 11
-24967.615683
 21
-12484.975104
 31
0.0
 12
-24967.815683
 22
-12483.975104
 32
0.0
 13
-24967.615683
 23
-12483.975104
 33
0.0
  0
SOLID
  5
F34
330
A
100
AcDbEntity
  8
SOLDERMASK_PADS_BTM
100
AcDbTrace
 10
-24978.711831
 20
-12487.848229
 30
0.0
 11
-24978.211831
 21
-12487.848229
 31
0.0
 12
-24978.711831
 22
-12487.472229
 32
0.0
 13
-24978.211831
 23
-12487.472229
 33
0.0
  0
SOLID
  5
F35
330
A
100
AcDbEntity
  8
SOLDERMASK_PADS_BTM
100
AcDbTrace
 10
-24978.711831
 20
-12487.022229
 30
0.0
 11
-24978.211831
 21
-12487.022229
 31
0.0
 12
-24978.711831
 22
-12486.646229
 32
0.0
 13
-24978.211831
 23
-12486.646229
 33
0.0
  0
SOLID
  5
F36
330
A
100
AcDbEntity
  8
SOLDERMASK_PADS_BTM
100
AcDbTrace
 10
-24963.399057
 20
-12492.413077
 30
0.0
 11
-24962.399057
 21
-12492.413077
 31
0.0
 12
-24963.399057
 22
-12492.213077
 32
0.0
 13
-24962.399057
 23
-12492.213077
 33
0.0
  0
SOLID
  5
F37
330
A
100
AcDbEntity
  8
SOLDERMASK_PADS_BTM
100
AcDbTrace
 10
-24963.399057
 20
-12492.813077
 30
0.0
 11
-24962.399057
 21
-12492.813077
 31
0.0
 12
-24963.399057
 22
-12492.613077
 32
0.0
 13
-24962.399057
 23
-12492.613077
 33
0.0
  0
SOLID
  5
F38
330
A
100
AcDbEntity
  8
SOLDERMASK_PADS_BTM
100
AcDbTrace
 10
-24978.710034
 20
-12490.596904
 30
0.0
 11
-24978.210034
 21
-12490.596904
 31
0.0
 12
-24978.710034
 22
-12490.220904
 32
0.0
 13
-24978.210034
 23
-12490.220904
 33
0.0
  0
SOLID
  5
F39
330
A
100
AcDbEntity
  8
SOLDERMASK_PADS_BTM
100
AcDbTrace
 10
-24978.710034
 20
-12491.422904
 30
0.0
 11
-24978.210034
 21
-12491.422904
 31
0.0
 12
-24978.710034
 22
-12491.046904
 32
0.0
 13
-24978.210034
 23
-12491.046904
 33
0.0
  0
SOLID
  5
F3A
330
A
100
AcDbEntity
  8
SOLDERMASK_PADS_BTM
100
AcDbTrace
 10
-24963.399057
 20
-12492.038077
 30
0.0
 11
-24962.399057
 21
-12492.038077
 31
0.0
 12
-24963.399057
 22
-12491.838077
 32
0.0
 13
-24962.399057
 23
-12491.838077
 33
0.0
  0
SOLID
  5
F3B
330
A
100
AcDbEntity
  8
SOLDERMASK_PADS_BTM
100
AcDbTrace
 10
-24963.399057
 20
-12491.638077
 30
0.0
 11
-24962.399057
 21
-12491.638077
 31
0.0
 12
-24963.399057
 22
-12491.438077
 32
0.0
 13
-24962.399057
 23
-12491.438077
 33
0.0
  0
SOLID
  5
F3C
330
A
100
AcDbEntity
  8
SOLDERMASK_PADS_BTM
100
AcDbTrace
 10
-24972.584285
 20
-12489.959566
 30
0.0
 11
-24972.208285
 21
-12489.959566
 31
0.0
 12
-24972.584285
 22
-12489.459566
 32
0.0
 13
-24972.208285
 23
-12489.459566
 33
0.0
  0
SOLID
  5
F3D
330
A
100
AcDbEntity
  8
SOLDERMASK_PADS_BTM
100
AcDbTrace
 10
-24971.758285
 20
-12489.959566
 30
0.0
 11
-24971.382285
 21
-12489.959566
 31
0.0
 12
-24971.758285
 22
-12489.459566
 32
0.0
 13
-24971.382285
 23
-12489.459566
 33
0.0
  0
SOLID
  5
F3E
330
A
100
AcDbEntity
  8
SOLDERMASK_PADS_BTM
100
AcDbTrace
 10
-24963.399057
 20
-12490.771597
 30
0.0
 11
-24962.399057
 21
-12490.771597
 31
0.0
 12
-24963.399057
 22
-12490.571597
 32
0.0
 13
-24962.399057
 23
-12490.571597
 33
0.0
  0
SOLID
  5
F3F
330
A
100
AcDbEntity
  8
SOLDERMASK_PADS_BTM
100
AcDbTrace
 10
-24963.399057
 20
-12491.171597
 30
0.0
 11
-24962.399057
 21
-12491.171597
 31
0.0
 12
-24963.399057
 22
-12490.971597
 32
0.0
 13
-24962.399057
 23
-12490.971597
 33
0.0
  0
SOLID
  5
F40
330
A
100
AcDbEntity
  8
SOLDERMASK_PADS_BTM
100
AcDbTrace
 10
-24967.415683
 20
-12486.17832
 30
0.0
 11
-24967.215683
 21
-12486.17832
 31
0.0
 12
-24967.415683
 22
-12485.17832
 32
0.0
 13
-24967.215683
 23
-12485.17832
 33
0.0
  0
SOLID
  5
F41
330
A
100
AcDbEntity
  8
SOLDERMASK_PADS_BTM
100
AcDbTrace
 10
-24967.815683
 20
-12486.17832
 30
0.0
 11
-24967.615683
 21
-12486.17832
 31
0.0
 12
-24967.815683
 22
-12485.17832
 32
0.0
 13
-24967.615683
 23
-12485.17832
 33
0.0
  0
SOLID
  5
F42
330
A
100
AcDbEntity
  8
SOLDERMASK_PADS_BTM
100
AcDbTrace
 10
-24962.224057
 20
-12492.813077
 30
0.0
 11
-24961.224057
 21
-12492.813077
 31
0.0
 12
-24962.224057
 22
-12492.613077
 32
0.0
 13
-24961.224057
 23
-12492.613077
 33
0.0
  0
SOLID
  5
F43
330
A
100
AcDbEntity
  8
SOLDERMASK_PADS_BTM
100
AcDbTrace
 10
-24962.224057
 20
-12492.413077
 30
0.0
 11
-24961.224057
 21
-12492.413077
 31
0.0
 12
-24962.224057
 22
-12492.213077
 32
0.0
 13
-24961.224057
 23
-12492.213077
 33
0.0
  0
SOLID
  5
F44
330
A
100
AcDbEntity
  8
SOLDERMASK_PADS_BTM
100
AcDbTrace
 10
-24978.371831
 20
-12485.094229
 30
0.0
 11
-24978.221831
 21
-12485.094229
 31
0.0
 12
-24978.371831
 22
-12484.894229
 32
0.0
 13
-24978.221831
 23
-12484.894229
 33
0.0
  0
SOLID
  5
F45
330
A
100
AcDbEntity
  8
SOLDERMASK_PADS_BTM
100
AcDbTrace
 10
-24978.701831
 20
-12485.094229
 30
0.0
 11
-24978.551831
 21
-12485.094229
 31
0.0
 12
-24978.701831
 22
-12484.894229
 32
0.0
 13
-24978.551831
 23
-12484.894229
 33
0.0
  0
SOLID
  5
F46
330
A
100
AcDbEntity
  8
SOLDERMASK_PADS_BTM
100
AcDbTrace
 10
-24975.367058
 20
-12485.519229
 30
0.0
 11
-24975.167058
 21
-12485.519229
 31
0.0
 12
-24975.367058
 22
-12484.519229
 32
0.0
 13
-24975.167058
 23
-12484.519229
 33
0.0
  0
SOLID
  5
F47
330
A
100
AcDbEntity
  8
SOLDERMASK_PADS_BTM
100
AcDbTrace
 10
-24975.767058
 20
-12485.519229
 30
0.0
 11
-24975.567058
 21
-12485.519229
 31
0.0
 12
-24975.767058
 22
-12484.519229
 32
0.0
 13
-24975.567058
 23
-12484.519229
 33
0.0
  0
SOLID
  5
F48
330
A
100
AcDbEntity
  8
SOLDERMASK_PADS_BTM
100
AcDbTrace
 10
-24962.224057
 20
-12492.038077
 30
0.0
 11
-24961.224057
 21
-12492.038077
 31
0.0
 12
-24962.224057
 22
-12491.838077
 32
0.0
 13
-24961.224057
 23
-12491.838077
 33
0.0
  0
SOLID
  5
F49
330
A
100
AcDbEntity
  8
SOLDERMASK_PADS_BTM
100
AcDbTrace
 10
-24962.224057
 20
-12491.638077
 30
0.0
 11
-24961.224057
 21
-12491.638077
 31
0.0
 12
-24962.224057
 22
-12491.438077
 32
0.0
 13
-24961.224057
 23
-12491.438077
 33
0.0
  0
SOLID
  5
F4A
330
A
100
AcDbEntity
  8
SOLDERMASK_PADS_BTM
100
AcDbTrace
 10
-24978.700034
 20
-12493.174904
 30
0.0
 11
-24978.550034
 21
-12493.174904
 31
0.0
 12
-24978.700034
 22
-12492.974904
 32
0.0
 13
-24978.550034
 23
-12492.974904
 33
0.0
  0
SOLID
  5
F4B
330
A
100
AcDbEntity
  8
SOLDERMASK_PADS_BTM
100
AcDbTrace
 10
-24978.370034
 20
-12493.174904
 30
0.0
 11
-24978.220034
 21
-12493.174904
 31
0.0
 12
-24978.370034
 22
-12492.974904
 32
0.0
 13
-24978.220034
 23
-12492.974904
 33
0.0
  0
SOLID
  5
F4C
330
A
100
AcDbEntity
  8
SOLDERMASK_PADS_BTM
100
AcDbTrace
 10
-24975.365261
 20
-12493.549904
 30
0.0
 11
-24975.165261
 21
-12493.549904
 31
0.0
 12
-24975.365261
 22
-12492.549904
 32
0.0
 13
-24975.165261
 23
-12492.549904
 33
0.0
  0
SOLID
  5
F4D
330
A
100
AcDbEntity
  8
SOLDERMASK_PADS_BTM
100
AcDbTrace
 10
-24975.765261
 20
-12493.549904
 30
0.0
 11
-24975.565261
 21
-12493.549904
 31
0.0
 12
-24975.765261
 22
-12492.549904
 32
0.0
 13
-24975.565261
 23
-12492.549904
 33
0.0
  0
SOLID
  5
F4E
330
A
100
AcDbEntity
  8
SOLDERMASK_PADS_BTM
100
AcDbTrace
 10
-24962.224057
 20
-12490.771597
 30
0.0
 11
-24961.224057
 21
-12490.771597
 31
0.0
 12
-24962.224057
 22
-12490.571597
 32
0.0
 13
-24961.224057
 23
-12490.571597
 33
0.0
  0
SOLID
  5
F4F
330
A
100
AcDbEntity
  8
SOLDERMASK_PADS_BTM
100
AcDbTrace
 10
-24962.224057
 20
-12491.171597
 30
0.0
 11
-24961.224057
 21
-12491.171597
 31
0.0
 12
-24962.224057
 22
-12490.971597
 32
0.0
 13
-24961.224057
 23
-12490.971597
 33
0.0
  0
SOLID
  5
F50
330
A
100
AcDbEntity
  8
SOLDERMASK_PADS_BTM
100
AcDbTrace
 10
-24967.415683
 20
-12487.381536
 30
0.0
 11
-24967.215683
 21
-12487.381536
 31
0.0
 12
-24967.415683
 22
-12486.381536
 32
0.0
 13
-24967.215683
 23
-12486.381536
 33
0.0
  0
SOLID
  5
F51
330
A
100
AcDbEntity
  8
SOLDERMASK_PADS_BTM
100
AcDbTrace
 10
-24967.815683
 20
-12487.381536
 30
0.0
 11
-24967.615683
 21
-12487.381536
 31
0.0
 12
-24967.815683
 22
-12486.381536
 32
0.0
 13
-24967.615683
 23
-12486.381536
 33
0.0
  0
SOLID
  5
F52
330
A
100
AcDbEntity
  8
SOLDERMASK_PADS_BTM
100
AcDbTrace
 10
-24967.415683
 20
-12489.862915
 30
0.0
 11
-24967.215683
 21
-12489.862915
 31
0.0
 12
-24967.415683
 22
-12488.862915
 32
0.0
 13
-24967.215683
 23
-12488.862915
 33
0.0
  0
SOLID
  5
F53
330
A
100
AcDbEntity
  8
SOLDERMASK_PADS_BTM
100
AcDbTrace
 10
-24967.815683
 20
-12489.862915
 30
0.0
 11
-24967.615683
 21
-12489.862915
 31
0.0
 12
-24967.815683
 22
-12488.862915
 32
0.0
 13
-24967.615683
 23
-12488.862915
 33
0.0
  0
SOLID
  5
F54
330
A
100
AcDbEntity
  8
SOLDERMASK_PADS_BTM
100
AcDbTrace
 10
-24978.371831
 20
-12484.719229
 30
0.0
 11
-24978.221831
 21
-12484.719229
 31
0.0
 12
-24978.371831
 22
-12484.519229
 32
0.0
 13
-24978.221831
 23
-12484.519229
 33
0.0
  0
SOLID
  5
F55
330
A
100
AcDbEntity
  8
SOLDERMASK_PADS_BTM
100
AcDbTrace
 10
-24978.701831
 20
-12484.719229
 30
0.0
 11
-24978.551831
 21
-12484.719229
 31
0.0
 12
-24978.701831
 22
-12484.519229
 32
0.0
 13
-24978.551831
 23
-12484.519229
 33
0.0
  0
SOLID
  5
F56
330
A
100
AcDbEntity
  8
SOLDERMASK_PADS_BTM
100
AcDbTrace
 10
-24975.367058
 20
-12486.721413
 30
0.0
 11
-24975.167058
 21
-12486.721413
 31
0.0
 12
-24975.367058
 22
-12485.721413
 32
0.0
 13
-24975.167058
 23
-12485.721413
 33
0.0
  0
SOLID
  5
F57
330
A
100
AcDbEntity
  8
SOLDERMASK_PADS_BTM
100
AcDbTrace
 10
-24975.767058
 20
-12486.721413
 30
0.0
 11
-24975.567058
 21
-12486.721413
 31
0.0
 12
-24975.767058
 22
-12485.721413
 32
0.0
 13
-24975.567058
 23
-12485.721413
 33
0.0
  0
SOLID
  5
F58
330
A
100
AcDbEntity
  8
SOLDERMASK_PADS_BTM
100
AcDbTrace
 10
-24978.700034
 20
-12493.549904
 30
0.0
 11
-24978.550034
 21
-12493.549904
 31
0.0
 12
-24978.700034
 22
-12493.349904
 32
0.0
 13
-24978.550034
 23
-12493.349904
 33
0.0
  0
SOLID
  5
F59
330
A
100
AcDbEntity
  8
SOLDERMASK_PADS_BTM
100
AcDbTrace
 10
-24978.370034
 20
-12493.549904
 30
0.0
 11
-24978.220034
 21
-12493.549904
 31
0.0
 12
-24978.370034
 22
-12493.349904
 32
0.0
 13
-24978.220034
 23
-12493.349904
 33
0.0
  0
SOLID
  5
F5A
330
A
100
AcDbEntity
  8
SOLDERMASK_PADS_BTM
100
AcDbTrace
 10
-24975.365261
 20
-12492.34772
 30
0.0
 11
-24975.165261
 21
-12492.34772
 31
0.0
 12
-24975.365261
 22
-12491.34772
 32
0.0
 13
-24975.165261
 23
-12491.34772
 33
0.0
  0
SOLID
  5
F5B
330
A
100
AcDbEntity
  8
SOLDERMASK_PADS_BTM
100
AcDbTrace
 10
-24975.765261
 20
-12492.34772
 30
0.0
 11
-24975.565261
 21
-12492.34772
 31
0.0
 12
-24975.765261
 22
-12491.34772
 32
0.0
 13
-24975.565261
 23
-12491.34772
 33
0.0
  0
SOLID
  5
F5C
330
A
100
AcDbEntity
  8
SOLDERMASK_PADS_BTM
100
AcDbTrace
 10
-24967.415683
 20
-12488.584752
 30
0.0
 11
-24967.215683
 21
-12488.584752
 31
0.0
 12
-24967.415683
 22
-12487.584752
 32
0.0
 13
-24967.215683
 23
-12487.584752
 33
0.0
  0
SOLID
  5
F5D
330
A
100
AcDbEntity
  8
SOLDERMASK_PADS_BTM
100
AcDbTrace
 10
-24967.815683
 20
-12488.584752
 30
0.0
 11
-24967.615683
 21
-12488.584752
 31
0.0
 12
-24967.815683
 22
-12487.584752
 32
0.0
 13
-24967.615683
 23
-12487.584752
 33
0.0
  0
SOLID
  5
F5E
330
A
100
AcDbEntity
  8
SOLDERMASK_PADS_BTM
100
AcDbTrace
 10
-24967.415683
 20
-12491.066131
 30
0.0
 11
-24967.215683
 21
-12491.066131
 31
0.0
 12
-24967.415683
 22
-12490.066131
 32
0.0
 13
-24967.215683
 23
-12490.066131
 33
0.0
  0
SOLID
  5
F5F
330
A
100
AcDbEntity
  8
SOLDERMASK_PADS_BTM
100
AcDbTrace
 10
-24967.815683
 20
-12491.066131
 30
0.0
 11
-24967.615683
 21
-12491.066131
 31
0.0
 12
-24967.815683
 22
-12490.066131
 32
0.0
 13
-24967.615683
 23
-12490.066131
 33
0.0
  0
SOLID
  5
F60
330
A
100
AcDbEntity
  8
SOLDERMASK_PADS_BTM
100
AcDbTrace
 10
-24975.367058
 20
-12487.923597
 30
0.0
 11
-24975.167058
 21
-12487.923597
 31
0.0
 12
-24975.367058
 22
-12486.923597
 32
0.0
 13
-24975.167058
 23
-12486.923597
 33
0.0
  0
SOLID
  5
F61
330
A
100
AcDbEntity
  8
SOLDERMASK_PADS_BTM
100
AcDbTrace
 10
-24975.767058
 20
-12487.923597
 30
0.0
 11
-24975.567058
 21
-12487.923597
 31
0.0
 12
-24975.767058
 22
-12486.923597
 32
0.0
 13
-24975.567058
 23
-12486.923597
 33
0.0
  0
SOLID
  5
F62
330
A
100
AcDbEntity
  8
SOLDERMASK_PADS_BTM
100
AcDbTrace
 10
-24975.365261
 20
-12491.145536
 30
0.0
 11
-24975.165261
 21
-12491.145536
 31
0.0
 12
-24975.365261
 22
-12490.145536
 32
0.0
 13
-24975.165261
 23
-12490.145536
 33
0.0
  0
SOLID
  5
F63
330
A
100
AcDbEntity
  8
SOLDERMASK_PADS_BTM
100
AcDbTrace
 10
-24975.765261
 20
-12491.145536
 30
0.0
 11
-24975.565261
 21
-12491.145536
 31
0.0
 12
-24975.765261
 22
-12490.145536
 32
0.0
 13
-24975.565261
 23
-12490.145536
 33
0.0
  0
SOLID
  5
F64
330
A
100
AcDbEntity
  8
SOLDERMASK_PADS_BTM
100
AcDbTrace
 10
-24967.415683
 20
-12492.269347
 30
0.0
 11
-24967.215683
 21
-12492.269347
 31
0.0
 12
-24967.415683
 22
-12491.269347
 32
0.0
 13
-24967.215683
 23
-12491.269347
 33
0.0
  0
SOLID
  5
F65
330
A
100
AcDbEntity
  8
SOLDERMASK_PADS_BTM
100
AcDbTrace
 10
-24967.815683
 20
-12492.269347
 30
0.0
 11
-24967.615683
 21
-12492.269347
 31
0.0
 12
-24967.815683
 22
-12491.269347
 32
0.0
 13
-24967.615683
 23
-12491.269347
 33
0.0
  0
SOLID
  5
F66
330
A
100
AcDbEntity
  8
SOLDERMASK_PADS_BTM
100
AcDbTrace
 10
-24977.24039
 20
-12485.519229
 30
0.0
 11
-24977.04039
 21
-12485.519229
 31
0.0
 12
-24977.24039
 22
-12484.519229
 32
0.0
 13
-24977.04039
 23
-12484.519229
 33
0.0
  0
SOLID
  5
F67
330
A
100
AcDbEntity
  8
SOLDERMASK_PADS_BTM
100
AcDbTrace
 10
-24976.84039
 20
-12485.519229
 30
0.0
 11
-24976.64039
 21
-12485.519229
 31
0.0
 12
-24976.84039
 22
-12484.519229
 32
0.0
 13
-24976.64039
 23
-12484.519229
 33
0.0
  0
SOLID
  5
F68
330
A
100
AcDbEntity
  8
SOLDERMASK_PADS_BTM
100
AcDbTrace
 10
-24977.238593
 20
-12493.549904
 30
0.0
 11
-24977.038593
 21
-12493.549904
 31
0.0
 12
-24977.238593
 22
-12492.549904
 32
0.0
 13
-24977.038593
 23
-12492.549904
 33
0.0
  0
SOLID
  5
F69
330
A
100
AcDbEntity
  8
SOLDERMASK_PADS_BTM
100
AcDbTrace
 10
-24976.838593
 20
-12493.549904
 30
0.0
 11
-24976.638593
 21
-12493.549904
 31
0.0
 12
-24976.838593
 22
-12492.549904
 32
0.0
 13
-24976.638593
 23
-12492.549904
 33
0.0
  0
SOLID
  5
F6A
330
A
100
AcDbEntity
  8
SOLDERMASK_PADS_BTM
100
AcDbTrace
 10
-24984.219925
 20
-12489.580442
 30
0.0
 11
-24984.019925
 21
-12489.580442
 31
0.0
 12
-24984.219925
 22
-12488.580442
 32
0.0
 13
-24984.019925
 23
-12488.580442
 33
0.0
  0
SOLID
  5
F6B
330
A
100
AcDbEntity
  8
SOLDERMASK_PADS_BTM
100
AcDbTrace
 10
-24984.619925
 20
-12489.580442
 30
0.0
 11
-24984.419925
 21
-12489.580442
 31
0.0
 12
-24984.619925
 22
-12488.580442
 32
0.0
 13
-24984.419925
 23
-12488.580442
 33
0.0
  0
SOLID
  5
F6C
330
A
100
AcDbEntity
  8
SOLDERMASK_PADS_BTM
100
AcDbTrace
 10
-24983.844925
 20
-12489.70071
 30
0.0
 11
-24982.844925
 21
-12489.70071
 31
0.0
 12
-24983.844925
 22
-12489.50071
 32
0.0
 13
-24982.844925
 23
-12489.50071
 33
0.0
  0
SOLID
  5
F6D
330
A
100
AcDbEntity
  8
SOLDERMASK_PADS_BTM
100
AcDbTrace
 10
-24983.844925
 20
-12489.30071
 30
0.0
 11
-24982.844925
 21
-12489.30071
 31
0.0
 12
-24983.844925
 22
-12489.10071
 32
0.0
 13
-24982.844925
 23
-12489.10071
 33
0.0
  0
SOLID
  5
F6E
330
A
100
AcDbEntity
  8
SOLDERMASK_PADS_BTM
100
AcDbTrace
 10
-24967.415683
 20
-12493.472563
 30
0.0
 11
-24967.215683
 21
-12493.472563
 31
0.0
 12
-24967.415683
 22
-12492.472563
 32
0.0
 13
-24967.215683
 23
-12492.472563
 33
0.0
  0
SOLID
  5
F6F
330
A
100
AcDbEntity
  8
SOLDERMASK_PADS_BTM
100
AcDbTrace
 10
-24967.815683
 20
-12493.472563
 30
0.0
 11
-24967.615683
 21
-12493.472563
 31
0.0
 12
-24967.815683
 22
-12492.472563
 32
0.0
 13
-24967.615683
 23
-12492.472563
 33
0.0
  0
SOLID
  5
F70
330
A
100
AcDbEntity
  8
SOLDERMASK_PADS_BTM
100
AcDbTrace
 10
-24981.699278
 20
-12488.825442
 30
0.0
 11
-24981.499278
 21
-12488.825442
 31
0.0
 12
-24981.699278
 22
-12487.825442
 32
0.0
 13
-24981.499278
 23
-12487.825442
 33
0.0
  0
SOLID
  5
F71
330
A
100
AcDbEntity
  8
SOLDERMASK_PADS_BTM
100
AcDbTrace
 10
-24981.299278
 20
-12488.825442
 30
0.0
 11
-24981.099278
 21
-12488.825442
 31
0.0
 12
-24981.299278
 22
-12487.825442
 32
0.0
 13
-24981.099278
 23
-12487.825442
 33
0.0
  0
SOLID
  5
F72
330
A
100
AcDbEntity
  8
SOLDERMASK_PADS_BTM
100
AcDbTrace
 10
-24977.24039
 20
-12486.721413
 30
0.0
 11
-24977.04039
 21
-12486.721413
 31
0.0
 12
-24977.24039
 22
-12485.721413
 32
0.0
 13
-24977.04039
 23
-12485.721413
 33
0.0
  0
SOLID
  5
F73
330
A
100
AcDbEntity
  8
SOLDERMASK_PADS_BTM
100
AcDbTrace
 10
-24976.84039
 20
-12486.721413
 30
0.0
 11
-24976.64039
 21
-12486.721413
 31
0.0
 12
-24976.84039
 22
-12485.721413
 32
0.0
 13
-24976.64039
 23
-12485.721413
 33
0.0
  0
SOLID
  5
F74
330
A
100
AcDbEntity
  8
SOLDERMASK_PADS_BTM
100
AcDbTrace
 10
-24977.238593
 20
-12492.34772
 30
0.0
 11
-24977.038593
 21
-12492.34772
 31
0.0
 12
-24977.238593
 22
-12491.34772
 32
0.0
 13
-24977.038593
 23
-12491.34772
 33
0.0
  0
SOLID
  5
F75
330
A
100
AcDbEntity
  8
SOLDERMASK_PADS_BTM
100
AcDbTrace
 10
-24976.838593
 20
-12492.34772
 30
0.0
 11
-24976.638593
 21
-12492.34772
 31
0.0
 12
-24976.838593
 22
-12491.34772
 32
0.0
 13
-24976.638593
 23
-12491.34772
 33
0.0
  0
SOLID
  5
F76
330
A
100
AcDbEntity
  8
SOLDERMASK_PADS_BTM
100
AcDbTrace
 10
-24985.394925
 20
-12485.66749
 30
0.0
 11
-24985.194925
 21
-12485.66749
 31
0.0
 12
-24985.394925
 22
-12484.66749
 32
0.0
 13
-24985.194925
 23
-12484.66749
 33
0.0
  0
SOLID
  5
F77
330
A
100
AcDbEntity
  8
SOLDERMASK_PADS_BTM
100
AcDbTrace
 10
-24984.994925
 20
-12485.66749
 30
0.0
 11
-24984.794925
 21
-12485.66749
 31
0.0
 12
-24984.994925
 22
-12484.66749
 32
0.0
 13
-24984.794925
 23
-12484.66749
 33
0.0
  0
SOLID
  5
F78
330
A
100
AcDbEntity
  8
SOLDERMASK_PADS_BTM
100
AcDbTrace
 10
-24984.762497
 20
-12492.95789
 30
0.0
 11
-24984.562497
 21
-12492.95789
 31
0.0
 12
-24984.762497
 22
-12491.95789
 32
0.0
 13
-24984.562497
 23
-12491.95789
 33
0.0
  0
SOLID
  5
F79
330
A
100
AcDbEntity
  8
SOLDERMASK_PADS_BTM
100
AcDbTrace
 10
-24985.162497
 20
-12492.95789
 30
0.0
 11
-24984.962497
 21
-12492.95789
 31
0.0
 12
-24985.162497
 22
-12491.95789
 32
0.0
 13
-24984.962497
 23
-12491.95789
 33
0.0
  0
SOLID
  5
F7A
330
A
100
AcDbEntity
  8
SOLDERMASK_PADS_BTM
100
AcDbTrace
 10
-24966.640683
 20
-12484.975104
 30
0.0
 11
-24966.440683
 21
-12484.975104
 31
0.0
 12
-24966.640683
 22
-12483.975104
 32
0.0
 13
-24966.440683
 23
-12483.975104
 33
0.0
  0
SOLID
  5
F7B
330
A
100
AcDbEntity
  8
SOLDERMASK_PADS_BTM
100
AcDbTrace
 10
-24967.040683
 20
-12484.975104
 30
0.0
 11
-24966.840683
 21
-12484.975104
 31
0.0
 12
-24967.040683
 22
-12483.975104
 32
0.0
 13
-24966.840683
 23
-12483.975104
 33
0.0
  0
SOLID
  5
F7C
330
A
100
AcDbEntity
  8
SOLDERMASK_PADS_BTM
100
AcDbTrace
 10
-24984.9717
 20
-12493.33289
 30
0.0
 11
-24983.9717
 21
-12493.33289
 31
0.0
 12
-24984.9717
 22
-12493.13289
 32
0.0
 13
-24983.9717
 23
-12493.13289
 33
0.0
  0
SOLID
  5
F7D
330
A
100
AcDbEntity
  8
SOLDERMASK_PADS_BTM
100
AcDbTrace
 10
-24984.9717
 20
-12493.73289
 30
0.0
 11
-24983.9717
 21
-12493.73289
 31
0.0
 12
-24984.9717
 22
-12493.53289
 32
0.0
 13
-24983.9717
 23
-12493.53289
 33
0.0
  0
SOLID
  5
F7E
330
A
100
AcDbEntity
  8
SOLDERMASK_PADS_BTM
100
AcDbTrace
 10
-24977.24039
 20
-12487.923597
 30
0.0
 11
-24977.04039
 21
-12487.923597
 31
0.0
 12
-24977.24039
 22
-12486.923597
 32
0.0
 13
-24977.04039
 23
-12486.923597
 33
0.0
  0
SOLID
  5
F7F
330
A
100
AcDbEntity
  8
SOLDERMASK_PADS_BTM
100
AcDbTrace
 10
-24976.84039
 20
-12487.923597
 30
0.0
 11
-24976.64039
 21
-12487.923597
 31
0.0
 12
-24976.84039
 22
-12486.923597
 32
0.0
 13
-24976.64039
 23
-12486.923597
 33
0.0
  0
SOLID
  5
F80
330
A
100
AcDbEntity
  8
SOLDERMASK_PADS_BTM
100
AcDbTrace
 10
-24982.6217
 20
-12492.55789
 30
0.0
 11
-24981.6217
 21
-12492.55789
 31
0.0
 12
-24982.6217
 22
-12492.35789
 32
0.0
 13
-24981.6217
 23
-12492.35789
 33
0.0
  0
SOLID
  5
F81
330
A
100
AcDbEntity
  8
SOLDERMASK_PADS_BTM
100
AcDbTrace
 10
-24982.6217
 20
-12492.95789
 30
0.0
 11
-24981.6217
 21
-12492.95789
 31
0.0
 12
-24982.6217
 22
-12492.75789
 32
0.0
 13
-24981.6217
 23
-12492.75789
 33
0.0
  0
SOLID
  5
F82
330
A
100
AcDbEntity
  8
SOLDERMASK_PADS_BTM
100
AcDbTrace
 10
-24977.238593
 20
-12491.145536
 30
0.0
 11
-24977.038593
 21
-12491.145536
 31
0.0
 12
-24977.238593
 22
-12490.145536
 32
0.0
 13
-24977.038593
 23
-12490.145536
 33
0.0
  0
SOLID
  5
F83
330
A
100
AcDbEntity
  8
SOLDERMASK_PADS_BTM
100
AcDbTrace
 10
-24976.838593
 20
-12491.145536
 30
0.0
 11
-24976.638593
 21
-12491.145536
 31
0.0
 12
-24976.838593
 22
-12490.145536
 32
0.0
 13
-24976.638593
 23
-12490.145536
 33
0.0
  0
SOLID
  5
F84
330
A
100
AcDbEntity
  8
SOLDERMASK_PADS_BTM
100
AcDbTrace
 10
-24985.006733
 20
-12483.908011
 30
0.0
 11
-24984.006733
 21
-12483.908011
 31
0.0
 12
-24985.006733
 22
-12483.708011
 32
0.0
 13
-24984.006733
 23
-12483.708011
 33
0.0
  0
SOLID
  5
F85
330
A
100
AcDbEntity
  8
SOLDERMASK_PADS_BTM
100
AcDbTrace
 10
-24985.006733
 20
-12484.308011
 30
0.0
 11
-24984.006733
 21
-12484.308011
 31
0.0
 12
-24985.006733
 22
-12484.108011
 32
0.0
 13
-24984.006733
 23
-12484.108011
 33
0.0
  0
SOLID
  5
F86
330
A
100
AcDbEntity
  8
SOLDERMASK_PADS_BTM
100
AcDbTrace
 10
-24980.408506
 20
-12483.908011
 30
0.0
 11
-24979.408506
 21
-12483.908011
 31
0.0
 12
-24980.408506
 22
-12483.708011
 32
0.0
 13
-24979.408506
 23
-12483.708011
 33
0.0
  0
SOLID
  5
F87
330
A
100
AcDbEntity
  8
SOLDERMASK_PADS_BTM
100
AcDbTrace
 10
-24980.408506
 20
-12484.308011
 30
0.0
 11
-24979.408506
 21
-12484.308011
 31
0.0
 12
-24980.408506
 22
-12484.108011
 32
0.0
 13
-24979.408506
 23
-12484.108011
 33
0.0
  0
MTEXT
  5
37D2
330
A
100
AcDbEntity
  8
0
  6
Continuous
100
AcDbMText
 10
-24975.00000090559
 20
-12487.49982042415
 30
0.0
 40
0.00018
 41
0.0005985
 46
0.0
 71
     1
 72
     1
  1
0.001
 73
     1
 44
1.0
  0
ENDSEC
  0
SECTION
  2
OBJECTS
  0
DICTIONARY
  5
16
330
0
100
AcDbDictionary
281
     1
  3
ACAD_CIP_PREVIOUS_PRODUCT_INFO
350
37A6
  3
ACAD_COLOR
350
3785
  3
ACAD_DETAILVIEWSTYLE
350
379F
  3
ACAD_GROUP
350
17
  3
ACAD_LAYOUT
350
3786
  3
ACAD_MATERIAL
350
3753
  3
ACAD_MLEADERSTYLE
350
379B
  3
ACAD_MLINESTYLE
350
18
  3
ACAD_PLOTSETTINGS
350
37A1
  3
ACAD_PLOTSTYLENAME
350
3751
  3
ACAD_RENDER_ACTIVE_RAPIDRT_SETTINGS
350
37CA
  3
ACAD_RENDER_RAPIDRT_SETTINGS
350
37C3
  3
ACAD_SCALELIST
350
3789
  3
ACAD_SECTIONVIEWSTYLE
350
379D
  3
ACAD_TABLESTYLE
350
3787
  3
ACAD_VISUALSTYLE
350
376C
  3
ACDB_RECOMPOSE_DATA
350
37D4
  3
AcDbVariableDictionary
350
37B1
  3
ASE_INDEX_DICTIONARY
350
37AE
  0
DICTIONARY
  5
37A7
330
F88
100
AcDbDictionary
280
     1
281
     1
  3
ADSK_XREC_LAYER_RECONCILED
360
37A8
  0
DICTIONARY
  5
37A9
330
F89
100
AcDbDictionary
280
     1
281
     1
  3
ADSK_XREC_LAYER_RECONCILED
360
37AA
  0
DICTIONARY
  5
37AB
330
F8A
100
AcDbDictionary
280
     1
281
     1
  3
ADSK_XREC_LAYER_RECONCILED
360
37AC
  0
XRECORD
  5
37A6
102
{ACAD_REACTORS
330
16
102
}
330
16
100
AcDbXrecord
280
     1
300
ACD
300
2021
300

  0
DICTIONARY
  5
3785
102
{ACAD_REACTORS
330
16
102
}
330
16
100
AcDbDictionary
281
     1
  0
DICTIONARY
  5
379F
102
{ACAD_REACTORS
330
16
102
}
330
16
100
AcDbDictionary
281
     1
  3
Imperial24
350
37A0
  0
DICTIONARY
  5
17
102
{ACAD_REACTORS
330
16
102
}
330
16
100
AcDbDictionary
281
     1
  0
DICTIONARY
  5
3786
102
{ACAD_REACTORS
330
16
102
}
330
16
100
AcDbDictionary
281
     1
  3
Layout1
350
37A3
  3
Model
350
37A2
  0
DICTIONARY
  5
3753
102
{ACAD_REACTORS
330
16
102
}
330
16
100
AcDbDictionary
281
     1
  3
ByBlock
350
375C
  3
ByLayer
350
3754
  3
Global
350
3764
  0
DICTIONARY
  5
379B
102
{ACAD_REACTORS
330
16
102
}
330
16
100
AcDbDictionary
281
     1
  3
Standard
350
379C
  0
DICTIONARY
  5
18
102
{ACAD_REACTORS
330
16
102
}
330
16
100
AcDbDictionary
281
     1
  3
STANDARD
350
19
  0
DICTIONARY
  5
37A1
102
{ACAD_REACTORS
330
16
102
}
330
16
100
AcDbDictionary
281
     1
  0
ACDBDICTIONARYWDFLT
  5
3751
102
{ACAD_REACTORS
330
16
102
}
330
16
100
AcDbDictionary
281
     1
  3
Normal
350
3752
100
AcDbDictionaryWithDefault
340
3752
  0
RAPIDRTRENDERSETTINGS
  5
37CA
102
{ACAD_REACTORS
330
16
102
}
330
16
100
AcDbRenderSettings
 90
        2
  1
Medium
290
     1
290
     0
290
     1
290
     1
  1

  1
Applies 5 rendering levels
 90
        0
100
AcDbRapidRTRenderSettings
 90
        3
 70
     0
 90
        5
 90
        1
 70
     1
 70
     2
 40
3.0
 40
3.0
290
     1
  0
DICTIONARY
  5
37C3
102
{ACAD_REACTORS
330
16
102
}
330
16
100
AcDbDictionary
281
     1
  3
Coffee-Break Quality
350
37C7
  3
High
350
37C6
  3
Low
350
37C4
  3
Lunch Quality
350
37C8
  3
Medium
350
37C5
  3
Overnight Quality
350
37C9
  0
DICTIONARY
  5
3789
102
{ACAD_REACTORS
330
16
102
}
330
16
100
AcDbDictionary
281
     1
  3
A0
350
378A
  3
A1
350
378B
  3
A2
350
378C
  3
A3
350
378D
  3
A4
350
378E
  3
A5
350
378F
  3
A6
350
3790
  3
A7
350
3791
  3
A8
350
3792
  3
A9
350
3793
  3
B0
350
3794
  3
B1
350
3795
  3
B2
350
3796
  3
B3
350
3797
  3
B4
350
3798
  3
B5
350
3799
  3
B6
350
379A
  0
DICTIONARY
  5
379D
102
{ACAD_REACTORS
330
16
102
}
330
16
100
AcDbDictionary
281
     1
  3
Imperial24
350
379E
  0
DICTIONARY
  5
3787
102
{ACAD_REACTORS
330
16
102
}
330
16
100
AcDbDictionary
281
     1
  3
Standard
350
3788
  0
DICTIONARY
  5
376C
102
{ACAD_REACTORS
330
16
102
}
330
16
100
AcDbDictionary
281
     1
  3
2dWireframe
350
3772
  3
Basic
350
3771
  3
Brighten
350
3778
  3
ColorChange
350
377C
  3
Conceptual
350
3775
  3
Dim
350
3777
  3
EdgeColorOff
350
3784
  3
Facepattern
350
377B
  3
Flat
350
376D
  3
FlatWithEdges
350
376E
  3
Gouraud
350
376F
  3
GouraudWithEdges
350
3770
  3
Hidden
350
3774
  3
JitterOff
350
3782
  3
Linepattern
350
377A
  3
OverhangOff
350
3783
  3
Realistic
350
3776
  3
Shaded
350
3781
  3
Shaded with edges
350
3780
  3
Shades of Gray
350
377D
  3
Sketchy
350
377E
  3
Thicken
350
3779
  3
Wireframe
350
3773
  3
X-Ray
350
377F
  0
XRECORD
  5
37D4
102
{ACAD_REACTORS
330
16
102
}
330
16
100
AcDbXrecord
280
     1
 90
        1
330
3788
  0
DICTIONARY
  5
37B1
102
{ACAD_REACTORS
330
16
102
}
330
16
100
AcDbDictionary
281
     1
  3
CANNOSCALE
350
37B7
  3
CMLEADERSTYLE
350
37B3
  3
CTABLESTYLE
350
37B2
  3
CVIEWDETAILSTYLE
350
37B4
  3
CVIEWSECTIONSTYLE
350
37B5
  3
LAYEREVAL
350
37B9
  3
LAYERNOTIFY
350
37BA
  3
LIGHTINGUNITS
350
37B8
  3
MSLTSCALE
350
37B6
  0
DICTIONARY
  5
37AE
102
{ACAD_REACTORS
330
16
102
}
330
16
100
AcDbDictionary
281
     1
  3
ASEBlockHierarchyIndexRecord
350
37B0
1001
DCO15
1040
2101268712.0
  0
XRECORD
  5
37A8
102
{ACAD_REACTORS
330
37A7
102
}
330
37A7
100
AcDbXrecord
280
     1
290
     1
  0
XRECORD
  5
37AA
102
{ACAD_REACTORS
330
37A9
102
}
330
37A9
100
AcDbXrecord
280
     1
290
     1
  0
XRECORD
  5
37AC
102
{ACAD_REACTORS
330
37AB
102
}
330
37AB
100
AcDbXrecord
280
     1
290
     1
  0
ACDBDETAILVIEWSTYLE
  5
37A0
102
{ACAD_REACTORS
330
379F
102
}
330
379F
100
AcDbModelDocViewStyle
 70
     0
  3
Imperial24
290
     0
300
Imperial24
 90
        0
100
AcDbDetailViewStyle
 70
     0
 71
     0
 90
        3
 71
     1
340
F8B
 62
   256
 40
0.24
340
0
 62
   256
 40
0.24
300

 40
0.36
280
     3
 71
     2
340
12
 90
       25
 62
   256
 71
     3
340
F8B
 62
   256
 40
0.24
 90
        1
 40
0.75
 90
        1
300
%<\AcVar ViewType \f "%tc1">% %<\AcVar ViewDetailId>%\PSCALE %<\AcVar ViewScale \f "%sn">%
 71
     4
340
12
 90
       25
 62
   256
340
12
 90
       25
 62
   256
280
     0
  0
LAYOUT
  5
37A3
102
{ACAD_REACTORS
330
3786
102
}
330
3786
100
AcDbPlotSettings
  1

  2
Intel Cloud Print
  4

  6

 40
0.0
 41
0.0
 42
0.0
 43
0.0
 44
0.0
 45
0.0
 46
0.0
 47
0.0
 48
0.0
 49
0.0
140
0.0
141
0.0
142
1.0
143
1.0
 70
   688
 72
     0
 73
     0
 74
     5
  7

 75
    16
147
1.0
 76
     0
 77
     2
 78
   300
148
0.0
149
0.0
100
AcDbLayout
  1
Layout1
 70
     0
 71
     1
 10
0.0
 20
0.0
 11
12.0
 21
9.0
 12
0.0
 22
0.0
 32
0.0
 14
1.000000000000000E+20
 24
1.000000000000000E+20
 34
1.000000000000000E+20
 15
-1.000000000000000E+20
 25
-1.000000000000000E+20
 35
-1.000000000000000E+20
146
0.0
 13
0.0
 23
0.0
 33
0.0
 16
1.0
 26
0.0
 36
0.0
 17
0.0
 27
1.0
 37
0.0
 76
     0
330
B
  0
LAYOUT
  5
37A2
102
{ACAD_REACTORS
330
3786
102
}
330
3786
100
AcDbPlotSettings
  1

  2
Intel Cloud Print
  4

  6

 40
0.0
 41
0.0
 42
0.0
 43
0.0
 44
0.0
 45
0.0
 46
0.0
 47
0.0
 48
0.0
 49
0.0
140
0.0
141
0.0
142
1.0
143
1.0
 70
  1712
 72
     0
 73
     0
 74
     0
  7

 75
     0
147
1.0
 76
     0
 77
     2
 78
   300
148
0.0
149
0.0
100
AcDbLayout
  1
Model
 70
     1
 71
     0
 10
0.0
 20
0.0
 11
12.0
 21
9.0
 12
0.0
 22
0.0
 32
0.0
 14
0.0
 24
0.0
 34
0.0
 15
0.0
 25
0.0
 35
0.0
146
0.0
 13
0.0
 23
0.0
 33
0.0
 16
1.0
 26
0.0
 36
0.0
 17
0.0
 27
1.0
 37
0.0
 76
     0
330
A
331
13
  0
MATERIAL
  5
375C
102
{ACAD_XDICTIONARY
360
375D
102
}
102
{ACAD_REACTORS
330
3753
102
}
330
3753
100
AcDbMaterial
  1
ByBlock
 72
     0
 43
0.0208333333333333
 43
0.0
 43
0.0
 43
0.0
 43
0.0
 43
0.0208333333333333
 43
0.0
 43
0.0
 43
0.0
 43
0.0
 43
1.0
 43
0.0
 43
0.0
 43
0.0
 43
0.0
 43
1.0
 77
     0
 47
0.0208333333333333
 47
0.0
 47
0.0
 47
0.0
 47
0.0
 47
0.0208333333333333
 47
0.0
 47
0.0
 47
0.0
 47
0.0
 47
1.0
 47
0.0
 47
0.0
 47
0.0
 47
0.0
 47
1.0
171
     0
 49
0.0208333333333333
 49
0.0
 49
0.0
 49
0.0
 49
0.0
 49
0.0208333333333333
 49
0.0
 49
0.0
 49
0.0
 49
0.0
 49
1.0
 49
0.0
 49
0.0
 49
0.0
 49
0.0
 49
1.0
175
     0
142
0.0208333333333333
142
0.0
142
0.0
142
0.0
142
0.0
142
0.0208333333333333
142
0.0
142
0.0
142
0.0
142
0.0
142
1.0
142
0.0
142
0.0
142
0.0
142
0.0
142
1.0
179
     0
144
0.0208333333333333
144
0.0
144
0.0
144
0.0
144
0.0
144
0.0208333333333333
144
0.0
144
0.0
144
0.0
144
0.0
144
1.0
144
0.0
144
0.0
144
0.0
144
0.0
144
1.0
147
0.0208333333333333
147
0.0
147
0.0
147
0.0
147
0.0
147
0.0208333333333333
147
0.0
147
0.0
147
0.0
147
0.0
147
1.0
147
0.0
147
0.0
147
0.0
147
0.0
147
1.0
  0
MATERIAL
  5
3754
102
{ACAD_XDICTIONARY
360
3755
102
}
102
{ACAD_REACTORS
330
3753
102
}
330
3753
100
AcDbMaterial
  1
ByLayer
 72
     0
 43
0.0208333333333333
 43
0.0
 43
0.0
 43
0.0
 43
0.0
 43
0.0208333333333333
 43
0.0
 43
0.0
 43
0.0
 43
0.0
 43
1.0
 43
0.0
 43
0.0
 43
0.0
 43
0.0
 43
1.0
 77
     0
 47
0.0208333333333333
 47
0.0
 47
0.0
 47
0.0
 47
0.0
 47
0.0208333333333333
 47
0.0
 47
0.0
 47
0.0
 47
0.0
 47
1.0
 47
0.0
 47
0.0
 47
0.0
 47
0.0
 47
1.0
171
     0
 49
0.0208333333333333
 49
0.0
 49
0.0
 49
0.0
 49
0.0
 49
0.0208333333333333
 49
0.0
 49
0.0
 49
0.0
 49
0.0
 49
1.0
 49
0.0
 49
0.0
 49
0.0
 49
0.0
 49
1.0
175
     0
142
0.0208333333333333
142
0.0
142
0.0
142
0.0
142
0.0
142
0.0208333333333333
142
0.0
142
0.0
142
0.0
142
0.0
142
1.0
142
0.0
142
0.0
142
0.0
142
0.0
142
1.0
179
     0
144
0.0208333333333333
144
0.0
144
0.0
144
0.0
144
0.0
144
0.0208333333333333
144
0.0
144
0.0
144
0.0
144
0.0
144
1.0
144
0.0
144
0.0
144
0.0
144
0.0
144
1.0
147
0.0208333333333333
147
0.0
147
0.0
147
0.0
147
0.0
147
0.0208333333333333
147
0.0
147
0.0
147
0.0
147
0.0
147
1.0
147
0.0
147
0.0
147
0.0
147
0.0
147
1.0
  0
MATERIAL
  5
3764
102
{ACAD_XDICTIONARY
360
3765
102
}
102
{ACAD_REACTORS
330
3753
102
}
330
3753
100
AcDbMaterial
  1
Global
 72
     0
 43
0.0208333333333333
 43
0.0
 43
0.0
 43
0.0
 43
0.0
 43
0.0208333333333333
 43
0.0
 43
0.0
 43
0.0
 43
0.0
 43
1.0
 43
0.0
 43
0.0
 43
0.0
 43
0.0
 43
1.0
 77
     0
 47
0.0208333333333333
 47
0.0
 47
0.0
 47
0.0
 47
0.0
 47
0.0208333333333333
 47
0.0
 47
0.0
 47
0.0
 47
0.0
 47
1.0
 47
0.0
 47
0.0
 47
0.0
 47
0.0
 47
1.0
171
     0
 49
0.0208333333333333
 49
0.0
 49
0.0
 49
0.0
 49
0.0
 49
0.0208333333333333
 49
0.0
 49
0.0
 49
0.0
 49
0.0
 49
1.0
 49
0.0
 49
0.0
 49
0.0
 49
0.0
 49
1.0
175
     0
142
0.0208333333333333
142
0.0
142
0.0
142
0.0
142
0.0
142
0.0208333333333333
142
0.0
142
0.0
142
0.0
142
0.0
142
1.0
142
0.0
142
0.0
142
0.0
142
0.0
142
1.0
179
     0
144
0.0208333333333333
144
0.0
144
0.0
144
0.0
144
0.0
144
0.0208333333333333
144
0.0
144
0.0
144
0.0
144
0.0
144
1.0
144
0.0
144
0.0
144
0.0
144
0.0
144
1.0
147
0.0208333333333333
147
0.0
147
0.0
147
0.0
147
0.0
147
0.0208333333333333
147
0.0
147
0.0
147
0.0
147
0.0
147
1.0
147
0.0
147
0.0
147
0.0
147
0.0
147
1.0
  0
MLEADERSTYLE
  5
379C
102
{ACAD_REACTORS
330
379B
102
}
330
379B
100
AcDbMLeaderStyle
179
     2
170
     2
171
     1
172
     0
 90
        2
 40
0.0
 41
0.0
173
     1
 91
-1056964608
340
10
 92
       -2
290
     1
 42
0.09
291
     1
 43
0.36
  3
Standard
 44
0.18
300

342
F8B
174
     1
178
     6
175
     1
176
     0
 93
-1056964608
 45
0.18
292
     0
297
     0
 46
0.18
 94
-1056964608
 47
1.0
 49
1.0
140
1.0
293
     1
141
0.0
294
     1
177
     0
142
1.0
295
     0
296
     0
143
0.125
271
     0
272
     9
273
     9
298
     0
  0
MLINESTYLE
  5
19
102
{ACAD_REACTORS
330
18
102
}
330
18
100
AcDbMlineStyle
  2
STANDARD
 70
     0
  3

 62
     0
 51
90.0
 52
90.0
 71
     2
 49
0.5
 62
   256
  6
BYLAYER
 49
-0.5
 62
   256
  6
BYLAYER
  0
ACDBPLACEHOLDER
  5
3752
102
{ACAD_REACTORS
330
3751
102
}
330
3751
  0
RAPIDRTRENDERSETTINGS
  5
37C7
102
{ACAD_REACTORS
330
37C3
102
}
330
37C3
100
AcDbRenderSettings
 90
        2
  1
Coffee-Break Quality
290
     1
290
     0
290
     1
290
     1
  1

  1
Renders for 10 minutes
 90
        3
100
AcDbRapidRTRenderSettings
 90
        3
 70
     1
 90
        1
 90
       10
 70
     1
 70
     2
 40
3.0
 40
3.0
290
     1
  0
RAPIDRTRENDERSETTINGS
  5
37C6
102
{ACAD_REACTORS
330
37C3
102
}
330
37C3
100
AcDbRenderSettings
 90
        2
  1
High
290
     1
290
     0
290
     1
290
     1
  1

  1
Applies 10 rendering levels
 90
        2
100
AcDbRapidRTRenderSettings
 90
        3
 70
     0
 90
       10
 90
        1
 70
     2
 70
     2
 40
3.0
 40
3.0
290
     1
  0
RAPIDRTRENDERSETTINGS
  5
37C4
102
{ACAD_REACTORS
330
37C3
102
}
330
37C3
100
AcDbRenderSettings
 90
        2
  1
Low
290
     1
290
     0
290
     1
290
     1
  1

  1
Applies 1 rendering level
 90
        0
100
AcDbRapidRTRenderSettings
 90
        3
 70
     0
 90
        1
 90
        1
 70
     0
 70
     2
 40
3.0
 40
3.0
290
     1
  0
RAPIDRTRENDERSETTINGS
  5
37C8
102
{ACAD_REACTORS
330
37C3
102
}
330
37C3
100
AcDbRenderSettings
 90
        2
  1
Lunch Quality
290
     1
290
     0
290
     1
290
     1
  1

  1
Renders for 60 minutes
 90
        4
100
AcDbRapidRTRenderSettings
 90
        3
 70
     1
 90
        1
 90
       60
 70
     2
 70
     2
 40
3.0
 40
3.0
290
     1
  0
RAPIDRTRENDERSETTINGS
  5
37C5
102
{ACAD_REACTORS
330
37C3
102
}
330
37C3
100
AcDbRenderSettings
 90
        2
  1
Medium
290
     1
290
     0
290
     1
290
     1
  1

  1
Applies 5 rendering levels
 90
        1
100
AcDbRapidRTRenderSettings
 90
        3
 70
     0
 90
        5
 90
        1
 70
     1
 70
     2
 40
3.0
 40
3.0
290
     1
  0
RAPIDRTRENDERSETTINGS
  5
37C9
102
{ACAD_REACTORS
330
37C3
102
}
330
37C3
100
AcDbRenderSettings
 90
        2
  1
Overnight Quality
290
     1
290
     0
290
     1
290
     1
  1

  1
Renders for 12 hours
 90
        5
100
AcDbRapidRTRenderSettings
 90
        3
 70
     1
 90
        1
 90
      720
 70
     2
 70
     2
 40
3.0
 40
3.0
290
     1
  0
SCALE
  5
378A
102
{ACAD_REACTORS
330
3789
102
}
330
3789
100
AcDbScale
 70
     0
300
1:1
140
1.0
141
1.0
290
     1
  0
SCALE
  5
378B
102
{ACAD_REACTORS
330
3789
102
}
330
3789
100
AcDbScale
 70
     0
300
1/128" = 1'-0"
140
0.0078125
141
12.0
290
     0
  0
SCALE
  5
378C
102
{ACAD_REACTORS
330
3789
102
}
330
3789
100
AcDbScale
 70
     0
300
1/64" = 1'-0"
140
0.015625
141
12.0
290
     0
  0
SCALE
  5
378D
102
{ACAD_REACTORS
330
3789
102
}
330
3789
100
AcDbScale
 70
     0
300
1/32" = 1'-0"
140
0.03125
141
12.0
290
     0
  0
SCALE
  5
378E
102
{ACAD_REACTORS
330
3789
102
}
330
3789
100
AcDbScale
 70
     0
300
1/16" = 1'-0"
140
0.0625
141
12.0
290
     0
  0
SCALE
  5
378F
102
{ACAD_REACTORS
330
3789
102
}
330
3789
100
AcDbScale
 70
     0
300
3/32" = 1'-0"
140
0.09375
141
12.0
290
     0
  0
SCALE
  5
3790
102
{ACAD_REACTORS
330
3789
102
}
330
3789
100
AcDbScale
 70
     0
300
1/8" = 1'-0"
140
0.125
141
12.0
290
     0
  0
SCALE
  5
3791
102
{ACAD_REACTORS
330
3789
102
}
330
3789
100
AcDbScale
 70
     0
300
3/16" = 1'-0"
140
0.1875
141
12.0
290
     0
  0
SCALE
  5
3792
102
{ACAD_REACTORS
330
3789
102
}
330
3789
100
AcDbScale
 70
     0
300
1/4" = 1'-0"
140
0.25
141
12.0
290
     0
  0
SCALE
  5
3793
102
{ACAD_REACTORS
330
3789
102
}
330
3789
100
AcDbScale
 70
     0
300
3/8" = 1'-0"
140
0.375
141
12.0
290
     0
  0
SCALE
  5
3794
102
{ACAD_REACTORS
330
3789
102
}
330
3789
100
AcDbScale
 70
     0
300
1/2" = 1'-0"
140
0.5
141
12.0
290
     0
  0
SCALE
  5
3795
102
{ACAD_REACTORS
330
3789
102
}
330
3789
100
AcDbScale
 70
     0
300
3/4" = 1'-0"
140
0.75
141
12.0
290
     0
  0
SCALE
  5
3796
102
{ACAD_REACTORS
330
3789
102
}
330
3789
100
AcDbScale
 70
     0
300
1" = 1'-0"
140
1.0
141
12.0
290
     0
  0
SCALE
  5
3797
102
{ACAD_REACTORS
330
3789
102
}
330
3789
100
AcDbScale
 70
     0
300
1-1/2" = 1'-0"
140
1.5
141
12.0
290
     0
  0
SCALE
  5
3798
102
{ACAD_REACTORS
330
3789
102
}
330
3789
100
AcDbScale
 70
     0
300
3" = 1'-0"
140
3.0
141
12.0
290
     0
  0
SCALE
  5
3799
102
{ACAD_REACTORS
330
3789
102
}
330
3789
100
AcDbScale
 70
     0
300
6" = 1'-0"
140
6.0
141
12.0
290
     0
  0
SCALE
  5
379A
102
{ACAD_REACTORS
330
3789
102
}
330
3789
100
AcDbScale
 70
     0
300
1'-0" = 1'-0"
140
12.0
141
12.0
290
     0
  0
ACDBSECTIONVIEWSTYLE
  5
379E
102
{ACAD_REACTORS
330
379D
102
}
330
379D
100
AcDbModelDocViewStyle
 70
     0
  3
Imperial24
290
     0
300
Imperial24
 90
        0
100
AcDbSectionViewStyle
 70
     0
 71
     0
 90
       78
 71
     1
340
F8B
 62
   256
 40
0.24
340
0
340
0
 62
   256
 40
0.24
300
I, O, Q, S, X, Z
 40
0.48
 90
        3
 40
0.18
 90
        1
 71
     2
340
12
 90
       25
 62
   256
340
12
 90
       50
 62
   256
 40
0.24
 40
0.0
 40
0.24
 71
     3
340
F8B
 62
   256
 40
0.24
 90
        1
 40
0.75
 90
        1
300
%<\AcVar ViewType \f "%tc1">% %<\AcVar ViewSectionStartId>%-%<\AcVar ViewSectionEndId>%\PSCALE %<\AcVar ViewScale \f "%sn">%
 71
     4
 62
   256
 62
   257
300
ANSI31
 40
1.0
 90
        0
290
     0
290
     0
 90
        6
 40
0.0
 40
1.570796326794896
 40
0.2617993877991494
 40
1.308996938995747
 40
-0.2617993877991494
 40
1.832595714594045
  0
TABLESTYLE
  5
3788
102
{ACAD_XDICTIONARY
360
37BC
102
}
102
{ACAD_REACTORS
330
3787
102
}
330
3787
100
AcDbTableStyle
280
     0
  3
Standard
 70
     0
 71
     0
 40
0.06
 41
0.06
280
     0
281
     0
  7
STANDARD
140
0.18
170
     2
 62
     0
 63
     7
283
     0
 90
      512
 91
        0
  1

274
    -2
284
     1
 64
     0
275
    -2
285
     1
 65
     0
276
    -2
286
     1
 66
     0
277
    -2
287
     1
 67
     0
278
    -2
288
     1
 68
     0
279
    -2
289
     1
 69
     0
  7
STANDARD
140
0.25
170
     5
 62
     0
 63
     7
283
     0
 90
      512
 91
        0
  1

274
    -2
284
     1
 64
     0
275
    -2
285
     1
 65
     0
276
    -2
286
     1
 66
     0
277
    -2
287
     1
 67
     0
278
    -2
288
     1
 68
     0
279
    -2
289
     1
 69
     0
  7
STANDARD
140
0.18
170
     5
 62
     0
 63
     7
283
     0
 90
      512
 91
        0
  1

274
    -2
284
     1
 64
     0
275
    -2
285
     1
 65
     0
276
    -2
286
     1
 66
     0
277
    -2
287
     1
 67
     0
278
    -2
288
     1
 68
     0
279
    -2
289
     1
 69
     0
  0
VISUALSTYLE
  5
3772
102
{ACAD_REACTORS
330
376C
102
}
330
376C
100
AcDbVisualStyle
  2
2dWireframe
 70
     4
177
     3
291
     0
 70
    58
 90
        0
176
     1
 90
        2
176
     1
 90
        0
176
     1
 90
        0
176
     1
 40
0.6
176
     1
 40
30.0
176
     1
 62
     7
420
 16777215
176
     1
 90
        1
176
     1
 90
        4
176
     1
 62
     7
176
     1
 62
   257
176
     1
 90
        1
176
     1
 90
        1
176
     1
 40
1.0
176
     1
 90
        0
176
     1
 62
   257
176
     1
 40
1.0
176
     1
 90
        1
176
     1
 90
        6
176
     1
 90
        2
176
     1
 62
     7
176
     1
 90
        5
176
     1
 90
        0
176
     1
 90
        0
176
     1
290
     0
176
     1
 90
        1
176
     1
 40
0.0
176
     1
 90
        0
176
     1
290
     1
176
     1
290
     1
176
     1
290
     0
176
     1
290
     0
176
     1
290
     0
176
     1
290
     0
176
     1
290
     0
176
     1
290
     0
176
     1
290
     0
176
     1
 90
       50
176
     1
 40
0.0
176
     1
 40
1.0
176
     1
 90
        0
176
     1
 62
    18
176
     1
 90
       50
176
     1
 90
        3
176
     1
 62
     5
420
      255
176
     1
290
     0
176
     1
 90
       50
176
     1
 90
       50
176
     1
 90
       50
176
     1
290
     0
176
     1
 90
       50
176
     1
 62
   256
176
     0
 40
1.0
176
     0
 90
        2
176
     1
  1
strokes_ogs.tif
176
     1
290
     0
176
     1
 40
1.0
176
     1
 40
1.0
176
     1
  0
VISUALSTYLE
  5
3771
102
{ACAD_REACTORS
330
376C
102
}
330
376C
100
AcDbVisualStyle
  2
Basic
 70
     7
177
     3
291
     1
 70
    58
 90
        1
176
     1
 90
        0
176
     1
 90
        1
176
     1
 90
        0
176
     1
 40
0.6
176
     1
 40
30.0
176
     1
 62
     7
420
 16777215
176
     1
 90
        0
176
     1
 90
        4
176
     1
 62
     7
176
     1
 62
   257
176
     1
 90
        1
176
     1
 90
        1
176
     1
 40
1.0
176
     1
 90
        8
176
     1
 62
     7
176
     1
 40
1.0
176
     1
 90
        1
176
     1
 90
        6
176
     1
 90
        2
176
     1
 62
     7
176
     1
 90
        5
176
     1
 90
        0
176
     1
 90
        0
176
     1
290
     0
176
     1
 90
        1
176
     1
 40
0.0
176
     1
 90
        0
176
     1
290
     0
176
     1
290
     1
176
     1
290
     1
176
     1
290
     0
176
     1
290
     0
176
     1
290
     0
176
     1
290
     0
176
     1
290
     0
176
     1
290
     0
176
     1
 90
       50
176
     1
 40
0.0
176
     1
 40
1.0
176
     1
 90
        0
176
     1
 62
    18
176
     1
 90
       50
176
     1
 90
        3
176
     1
 62
     5
420
      255
176
     1
290
     0
176
     1
 90
       50
176
     1
 90
       50
176
     1
 90
       50
176
     1
290
     0
176
     1
 90
       50
176
     1
 62
   256
176
     0
 40
1.0
176
     0
 90
        2
176
     1
  1
strokes_ogs.tif
176
     1
290
     0
176
     1
 40
1.0
176
     1
 40
1.0
176
     1
  0
VISUALSTYLE
  5
3778
102
{ACAD_REACTORS
330
376C
102
}
330
376C
100
AcDbVisualStyle
  2
Brighten
 70
    12
177
     3
291
     1
 70
    58
 90
        2
176
     1
 90
        2
176
     1
 90
        0
176
     1
 90
        0
176
     1
 40
0.6
176
     1
 40
30.0
176
     1
 62
     7
420
 16777215
176
     1
 90
        1
176
     1
 90
        4
176
     1
 62
     7
176
     1
 62
   257
176
     1
 90
        1
176
     1
 90
        1
176
     1
 40
1.0
176
     1
 90
        8
176
     1
 62
     7
176
     1
 40
1.0
176
     1
 90
        1
176
     1
 90
        6
176
     1
 90
        2
176
     1
 62
     7
176
     1
 90
        5
176
     1
 90
        0
176
     1
 90
        0
176
     1
290
     0
176
     1
 90
        1
176
     1
 40
50.0
176
     1
 90
        0
176
     1
290
     0
176
     1
290
     1
176
     1
290
     1
176
     1
290
     0
176
     1
290
     0
176
     1
290
     0
176
     1
290
     0
176
     1
290
     0
176
     1
290
     0
176
     1
 90
       50
176
     1
 40
0.0
176
     1
 40
1.0
176
     1
 90
        0
176
     1
 62
    18
176
     1
 90
       50
176
     1
 90
        3
176
     1
 62
     5
420
      255
176
     1
290
     0
176
     1
 90
       50
176
     1
 90
       50
176
     1
 90
       50
176
     1
290
     0
176
     1
 90
       50
176
     1
 62
   256
176
     0
 40
1.0
176
     0
 90
        2
176
     1
  1
strokes_ogs.tif
176
     1
290
     0
176
     1
 40
1.0
176
     1
 40
1.0
176
     1
  0
VISUALSTYLE
  5
377C
102
{ACAD_REACTORS
330
376C
102
}
330
376C
100
AcDbVisualStyle
  2
ColorChange
 70
    16
177
     3
291
     1
 70
    58
 90
        2
176
     1
 90
        2
176
     1
 90
        3
176
     1
 90
        0
176
     1
 40
0.6
176
     1
 40
30.0
176
     1
 62
     8
420
  8421504
176
     1
 90
        1
176
     1
 90
        4
176
     1
 62
     7
176
     1
 62
   257
176
     1
 90
        1
176
     1
 90
        1
176
     1
 40
1.0
176
     1
 90
        8
176
     1
 62
     8
420
  8421504
176
     1
 40
1.0
176
     1
 90
        1
176
     1
 90
        6
176
     1
 90
        2
176
     1
 62
     7
176
     1
 90
        5
176
     1
 90
        0
176
     1
 90
        0
176
     1
290
     0
176
     1
 90
        1
176
     1
 40
0.0
176
     1
 90
        0
176
     1
290
     0
176
     1
290
     1
176
     1
290
     1
176
     1
290
     0
176
     1
290
     0
176
     1
290
     0
176
     1
290
     0
176
     1
290
     0
176
     1
290
     0
176
     1
 90
       50
176
     1
 40
0.0
176
     1
 40
1.0
176
     1
 90
        0
176
     1
 62
    18
176
     1
 90
       50
176
     1
 90
        3
176
     1
 62
     5
420
      255
176
     1
290
     0
176
     1
 90
       50
176
     1
 90
       50
176
     1
 90
       50
176
     1
290
     0
176
     1
 90
       50
176
     1
 62
   256
176
     0
 40
1.0
176
     0
 90
        2
176
     1
  1
strokes_ogs.tif
176
     1
290
     0
176
     1
 40
1.0
176
     1
 40
1.0
176
     1
  0
VISUALSTYLE
  5
3775
102
{ACAD_REACTORS
330
376C
102
}
330
376C
100
AcDbVisualStyle
  2
Conceptual
 70
     9
177
     3
291
     0
 70
    58
 90
        3
176
     1
 90
        2
176
     1
 90
        0
176
     1
 90
        0
176
     1
 40
0.6
176
     1
 40
30.0
176
     1
 62
     7
420
 16777215
176
     1
 90
        2
176
     1
 90
        2
176
     1
 62
     7
176
     1
 62
   257
176
     1
 90
        1
176
     1
 90
        1
176
     1
 40
179.0
176
     1
 90
        8
176
     1
 62
     7
176
     1
 40
1.0
176
     1
 90
        1
176
     1
 90
        6
176
     1
 90
        2
176
     1
 62
     7
176
     1
 90
        3
176
     1
 90
        0
176
     1
 90
        0
176
     1
290
     0
176
     1
 90
        1
176
     1
 40
0.0
176
     1
 90
        0
176
     1
290
     0
176
     1
290
     1
176
     1
290
     1
176
     1
290
     0
176
     1
290
     0
176
     1
290
     0
176
     1
290
     0
176
     1
290
     0
176
     1
290
     0
176
     1
 90
       50
176
     1
 40
0.0
176
     1
 40
1.0
176
     1
 90
        0
176
     1
 62
    18
176
     1
 90
       50
176
     1
 90
        3
176
     1
 62
     5
420
      255
176
     1
290
     0
176
     1
 90
       50
176
     1
 90
       50
176
     1
 90
       50
176
     1
290
     0
176
     1
 90
       50
176
     1
 62
   256
176
     0
 40
1.0
176
     0
 90
        2
176
     1
  1
strokes_ogs.tif
176
     1
290
     0
176
     1
 40
1.0
176
     1
 40
1.0
176
     1
  0
VISUALSTYLE
  5
3777
102
{ACAD_REACTORS
330
376C
102
}
330
376C
100
AcDbVisualStyle
  2
Dim
 70
    11
177
     3
291
     1
 70
    58
 90
        2
176
     1
 90
        2
176
     1
 90
        0
176
     1
 90
        0
176
     1
 40
0.6
176
     1
 40
30.0
176
     1
 62
     7
420
 16777215
176
     1
 90
        1
176
     1
 90
        4
176
     1
 62
     7
176
     1
 62
   257
176
     1
 90
        1
176
     1
 90
        1
176
     1
 40
1.0
176
     1
 90
        8
176
     1
 62
     7
176
     1
 40
1.0
176
     1
 90
        1
176
     1
 90
        6
176
     1
 90
        2
176
     1
 62
     7
176
     1
 90
        5
176
     1
 90
        0
176
     1
 90
        0
176
     1
290
     0
176
     1
 90
        1
176
     1
 40
-50.0
176
     1
 90
        0
176
     1
290
     0
176
     1
290
     1
176
     1
290
     1
176
     1
290
     0
176
     1
290
     0
176
     1
290
     0
176
     1
290
     0
176
     1
290
     0
176
     1
290
     0
176
     1
 90
       50
176
     1
 40
0.0
176
     1
 40
1.0
176
     1
 90
        0
176
     1
 62
    18
176
     1
 90
       50
176
     1
 90
        3
176
     1
 62
     5
420
      255
176
     1
290
     0
176
     1
 90
       50
176
     1
 90
       50
176
     1
 90
       50
176
     1
290
     0
176
     1
 90
       50
176
     1
 62
   256
176
     0
 40
1.0
176
     0
 90
        2
176
     1
  1
strokes_ogs.tif
176
     1
290
     0
176
     1
 40
1.0
176
     1
 40
1.0
176
     1
  0
VISUALSTYLE
  5
3784
102
{ACAD_REACTORS
330
376C
102
}
330
376C
100
AcDbVisualStyle
  2
EdgeColorOff
 70
    22
177
     3
291
     1
 70
    58
 90
        2
176
     0
 90
        2
176
     0
 90
        0
176
     0
 90
        0
176
     0
 40
0.6
176
     0
 40
30.0
176
     0
 62
     7
420
 16777215
176
     0
 90
        1
176
     0
 90
        4
176
     0
 62
     7
176
     0
 62
   257
176
     0
 90
        1
176
     0
 90
        1
176
     0
 40
1.0
176
     0
 90
        8
176
     2
 62
     7
176
     0
 40
1.0
176
     0
 90
        1
176
     0
 90
        6
176
     0
 90
        2
176
     0
 62
     7
176
     0
 90
        5
176
     0
 90
        0
176
     0
 90
        0
176
     0
290
     0
176
     0
 90
        1
176
     0
 40
0.0
176
     0
 90
        0
176
     0
290
     0
176
     1
290
     1
176
     1
290
     1
176
     1
290
     0
176
     1
290
     0
176
     1
290
     0
176
     1
290
     0
176
     1
290
     0
176
     1
290
     0
176
     1
 90
       50
176
     0
 40
0.0
176
     0
 40
1.0
176
     0
 90
        0
176
     0
 62
    18
176
     0
 90
       50
176
     0
 90
        3
176
     0
 62
     5
420
      255
176
     0
290
     0
176
     1
 90
       50
176
     0
 90
       50
176
     0
 90
       50
176
     0
290
     0
176
     1
 90
       50
176
     0
 62
   256
176
     0
 40
1.0
176
     0
 90
        2
176
     0
  1
strokes_ogs.tif
176
     0
290
     0
176
     1
 40
1.0
176
     0
 40
1.0
176
     0
  0
VISUALSTYLE
  5
377B
102
{ACAD_REACTORS
330
376C
102
}
330
376C
100
AcDbVisualStyle
  2
Facepattern
 70
    15
177
     3
291
     1
 70
    58
 90
        2
176
     1
 90
        2
176
     1
 90
        0
176
     1
 90
        0
176
     1
 40
0.6
176
     1
 40
30.0
176
     1
 62
     7
420
 16777215
176
     1
 90
        1
176
     1
 90
        4
176
     1
 62
     7
176
     1
 62
   257
176
     1
 90
        1
176
     1
 90
        1
176
     1
 40
1.0
176
     1
 90
        8
176
     1
 62
     7
176
     1
 40
1.0
176
     1
 90
        1
176
     1
 90
        6
176
     1
 90
        2
176
     1
 62
     7
176
     1
 90
        5
176
     1
 90
        0
176
     1
 90
        0
176
     1
290
     0
176
     1
 90
        1
176
     1
 40
0.0
176
     1
 90
        0
176
     1
290
     0
176
     1
290
     1
176
     1
290
     1
176
     1
290
     0
176
     1
290
     0
176
     1
290
     0
176
     1
290
     0
176
     1
290
     0
176
     1
290
     0
176
     1
 90
       50
176
     1
 40
0.0
176
     1
 40
1.0
176
     1
 90
        0
176
     1
 62
    18
176
     1
 90
       50
176
     1
 90
        3
176
     1
 62
     5
420
      255
176
     1
290
     0
176
     1
 90
       50
176
     1
 90
       50
176
     1
 90
       50
176
     1
290
     0
176
     1
 90
       50
176
     1
 62
   256
176
     0
 40
1.0
176
     0
 90
        2
176
     1
  1
strokes_ogs.tif
176
     1
290
     0
176
     1
 40
1.0
176
     1
 40
1.0
176
     1
  0
VISUALSTYLE
  5
376D
102
{ACAD_REACTORS
330
376C
102
}
330
376C
100
AcDbVisualStyle
  2
Flat
 70
     0
177
     3
291
     1
 70
    58
 90
        2
176
     1
 90
        1
176
     1
 90
        1
176
     1
 90
        2
176
     1
 40
0.6
176
     1
 40
30.0
176
     1
 62
     7
420
 16777215
176
     1
 90
        0
176
     1
 90
        0
176
     1
 62
     7
176
     1
 62
   257
176
     1
 90
        1
176
     1
 90
        1
176
     1
 40
1.0
176
     1
 90
        8
176
     1
 62
     7
176
     1
 40
1.0
176
     1
 90
        1
176
     1
 90
        6
176
     1
 90
        2
176
     1
 62
     7
176
     1
 90
        5
176
     1
 90
        0
176
     1
 90
        0
176
     1
290
     0
176
     1
 90
       13
176
     1
 40
0.0
176
     1
 90
        0
176
     1
290
     0
176
     1
290
     1
176
     1
290
     1
176
     1
290
     0
176
     1
290
     0
176
     1
290
     0
176
     1
290
     0
176
     1
290
     0
176
     1
290
     0
176
     1
 90
       50
176
     1
 40
0.0
176
     1
 40
1.0
176
     1
 90
        0
176
     1
 62
    18
176
     1
 90
       50
176
     1
 90
        3
176
     1
 62
     5
420
      255
176
     1
290
     0
176
     1
 90
       50
176
     1
 90
       50
176
     1
 90
       50
176
     1
290
     0
176
     1
 90
       50
176
     1
 62
   256
176
     0
 40
1.0
176
     0
 90
        2
176
     1
  1
strokes_ogs.tif
176
     1
290
     0
176
     1
 40
1.0
176
     1
 40
1.0
176
     1
  0
VISUALSTYLE
  5
376E
102
{ACAD_REACTORS
330
376C
102
}
330
376C
100
AcDbVisualStyle
  2
FlatWithEdges
 70
     1
177
     3
291
     1
 70
    58
 90
        2
176
     1
 90
        1
176
     1
 90
        1
176
     1
 90
        2
176
     1
 40
0.6
176
     1
 40
30.0
176
     1
 62
     7
420
 16777215
176
     1
 90
        1
176
     1
 90
        0
176
     1
 62
     7
176
     1
 62
   257
176
     1
 90
        1
176
     1
 90
        1
176
     1
 40
1.0
176
     1
 90
        0
176
     1
 62
   257
176
     1
 40
1.0
176
     1
 90
        1
176
     1
 90
        6
176
     1
 90
        2
176
     1
 62
     7
176
     1
 90
        5
176
     1
 90
        0
176
     1
 90
        0
176
     1
290
     0
176
     1
 90
       13
176
     1
 40
0.0
176
     1
 90
        0
176
     1
290
     0
176
     1
290
     1
176
     1
290
     1
176
     1
290
     0
176
     1
290
     0
176
     1
290
     0
176
     1
290
     0
176
     1
290
     0
176
     1
290
     0
176
     1
 90
       50
176
     1
 40
0.0
176
     1
 40
1.0
176
     1
 90
        0
176
     1
 62
    18
176
     1
 90
       50
176
     1
 90
        3
176
     1
 62
     5
420
      255
176
     1
290
     0
176
     1
 90
       50
176
     1
 90
       50
176
     1
 90
       50
176
     1
290
     0
176
     1
 90
       50
176
     1
 62
   256
176
     0
 40
1.0
176
     0
 90
        2
176
     1
  1
strokes_ogs.tif
176
     1
290
     0
176
     1
 40
1.0
176
     1
 40
1.0
176
     1
  0
VISUALSTYLE
  5
376F
102
{ACAD_REACTORS
330
376C
102
}
330
376C
100
AcDbVisualStyle
  2
Gouraud
 70
     2
177
     3
291
     1
 70
    58
 90
        2
176
     1
 90
        2
176
     1
 90
        1
176
     1
 90
        2
176
     1
 40
0.6
176
     1
 40
30.0
176
     1
 62
     7
420
 16777215
176
     1
 90
        0
176
     1
 90
        0
176
     1
 62
     7
176
     1
 62
   257
176
     1
 90
        1
176
     1
 90
        1
176
     1
 40
1.0
176
     1
 90
        0
176
     1
 62
     7
176
     1
 40
1.0
176
     1
 90
        1
176
     1
 90
        6
176
     1
 90
        2
176
     1
 62
     7
176
     1
 90
        5
176
     1
 90
        0
176
     1
 90
        0
176
     1
290
     0
176
     1
 90
       13
176
     1
 40
0.0
176
     1
 90
        0
176
     1
290
     0
176
     1
290
     1
176
     1
290
     1
176
     1
290
     0
176
     1
290
     0
176
     1
290
     0
176
     1
290
     0
176
     1
290
     0
176
     1
290
     0
176
     1
 90
       50
176
     1
 40
0.0
176
     1
 40
1.0
176
     1
 90
        0
176
     1
 62
    18
176
     1
 90
       50
176
     1
 90
        3
176
     1
 62
     5
420
      255
176
     1
290
     0
176
     1
 90
       50
176
     1
 90
       50
176
     1
 90
       50
176
     1
290
     0
176
     1
 90
       50
176
     1
 62
   256
176
     0
 40
1.0
176
     0
 90
        2
176
     1
  1
strokes_ogs.tif
176
     1
290
     0
176
     1
 40
1.0
176
     1
 40
1.0
176
     1
  0
VISUALSTYLE
  5
3770
102
{ACAD_REACTORS
330
376C
102
}
330
376C
100
AcDbVisualStyle
  2
GouraudWithEdges
 70
     3
177
     3
291
     1
 70
    58
 90
        2
176
     1
 90
        2
176
     1
 90
        1
176
     1
 90
        2
176
     1
 40
0.6
176
     1
 40
30.0
176
     1
 62
     7
420
 16777215
176
     1
 90
        1
176
     1
 90
        0
176
     1
 62
     7
176
     1
 62
   257
176
     1
 90
        1
176
     1
 90
        1
176
     1
 40
1.0
176
     1
 90
        0
176
     1
 62
   257
176
     1
 40
1.0
176
     1
 90
        1
176
     1
 90
        6
176
     1
 90
        2
176
     1
 62
     7
176
     1
 90
        5
176
     1
 90
        0
176
     1
 90
        0
176
     1
290
     0
176
     1
 90
       13
176
     1
 40
0.0
176
     1
 90
        0
176
     1
290
     0
176
     1
290
     1
176
     1
290
     1
176
     1
290
     0
176
     1
290
     0
176
     1
290
     0
176
     1
290
     0
176
     1
290
     0
176
     1
290
     0
176
     1
 90
       50
176
     1
 40
0.0
176
     1
 40
1.0
176
     1
 90
        0
176
     1
 62
    18
176
     1
 90
       50
176
     1
 90
        3
176
     1
 62
     5
420
      255
176
     1
290
     0
176
     1
 90
       50
176
     1
 90
       50
176
     1
 90
       50
176
     1
290
     0
176
     1
 90
       50
176
     1
 62
   256
176
     0
 40
1.0
176
     0
 90
        2
176
     1
  1
strokes_ogs.tif
176
     1
290
     0
176
     1
 40
1.0
176
     1
 40
1.0
176
     1
  0
VISUALSTYLE
  5
3774
102
{ACAD_REACTORS
330
376C
102
}
330
376C
100
AcDbVisualStyle
  2
Hidden
 70
     6
177
     3
291
     0
 70
    58
 90
        1
176
     1
 90
        2
176
     1
 90
        2
176
     1
 90
        0
176
     1
 40
0.6
176
     1
 40
30.0
176
     1
 62
     7
420
 16777215
176
     1
 90
        2
176
     1
 90
        2
176
     1
 62
     7
176
     1
 62
   257
176
     1
 90
        2
176
     1
 90
        1
176
     1
 40
40.0
176
     1
 90
        0
176
     1
 62
   257
176
     1
 40
1.0
176
     1
 90
        1
176
     1
 90
        6
176
     1
 90
        2
176
     1
 62
     7
176
     1
 90
        3
176
     1
 90
        0
176
     1
 90
        0
176
     1
290
     0
176
     1
 90
        1
176
     1
 40
0.0
176
     1
 90
        0
176
     1
290
     0
176
     1
290
     1
176
     1
290
     1
176
     1
290
     0
176
     1
290
     0
176
     1
290
     0
176
     1
290
     0
176
     1
290
     0
176
     1
290
     0
176
     1
 90
       50
176
     1
 40
0.0
176
     1
 40
1.0
176
     1
 90
        0
176
     1
 62
    18
176
     1
 90
       50
176
     1
 90
        3
176
     1
 62
     5
420
      255
176
     1
290
     0
176
     1
 90
       50
176
     1
 90
       50
176
     1
 90
       50
176
     1
290
     0
176
     1
 90
       50
176
     1
 62
   256
176
     0
 40
1.0
176
     0
 90
        2
176
     1
  1
strokes_ogs.tif
176
     1
290
     0
176
     1
 40
1.0
176
     1
 40
1.0
176
     1
  0
VISUALSTYLE
  5
3782
102
{ACAD_REACTORS
330
376C
102
}
330
376C
100
AcDbVisualStyle
  2
JitterOff
 70
    20
177
     3
291
     1
 70
    58
 90
        2
176
     0
 90
        2
176
     0
 90
        0
176
     0
 90
        0
176
     0
 40
0.6
176
     0
 40
30.0
176
     0
 62
     7
420
 16777215
176
     0
 90
        1
176
     0
 90
        4
176
     0
 62
     7
176
     0
 62
   257
176
     0
 90
        1
176
     0
 90
        1
176
     0
 40
1.0
176
     0
 90
       10
176
     2
 62
     7
176
     0
 40
1.0
176
     0
 90
        1
176
     0
 90
        6
176
     0
 90
        2
176
     0
 62
     7
176
     0
 90
        5
176
     0
 90
        0
176
     0
 90
        0
176
     0
290
     0
176
     0
 90
        1
176
     0
 40
0.0
176
     0
 90
        0
176
     0
290
     0
176
     1
290
     1
176
     1
290
     1
176
     1
290
     0
176
     1
290
     0
176
     1
290
     0
176
     1
290
     0
176
     1
290
     0
176
     1
290
     0
176
     1
 90
       50
176
     0
 40
0.0
176
     0
 40
1.0
176
     0
 90
        0
176
     0
 62
    18
176
     0
 90
       50
176
     0
 90
        3
176
     0
 62
     5
420
      255
176
     0
290
     0
176
     1
 90
       50
176
     0
 90
       50
176
     0
 90
       50
176
     0
290
     0
176
     1
 90
       50
176
     0
 62
   256
176
     0
 40
1.0
176
     0
 90
        2
176
     0
  1
strokes_ogs.tif
176
     0
290
     0
176
     1
 40
1.0
176
     0
 40
1.0
176
     0
  0
VISUALSTYLE
  5
377A
102
{ACAD_REACTORS
330
376C
102
}
330
376C
100
AcDbVisualStyle
  2
Linepattern
 70
    14
177
     3
291
     1
 70
    58
 90
        2
176
     1
 90
        2
176
     1
 90
        0
176
     1
 90
        0
176
     1
 40
0.6
176
     1
 40
30.0
176
     1
 62
     7
420
 16777215
176
     1
 90
        1
176
     1
 90
        4
176
     1
 62
     7
176
     1
 62
   257
176
     1
 90
        7
176
     1
 90
        7
176
     1
 40
1.0
176
     1
 90
        8
176
     1
 62
     7
176
     1
 40
1.0
176
     1
 90
        1
176
     1
 90
        6
176
     1
 90
        2
176
     1
 62
     7
176
     1
 90
        5
176
     1
 90
        0
176
     1
 90
        0
176
     1
290
     0
176
     1
 90
        1
176
     1
 40
0.0
176
     1
 90
        0
176
     1
290
     0
176
     1
290
     1
176
     1
290
     1
176
     1
290
     0
176
     1
290
     0
176
     1
290
     0
176
     1
290
     0
176
     1
290
     0
176
     1
290
     0
176
     1
 90
       50
176
     1
 40
0.0
176
     1
 40
1.0
176
     1
 90
        0
176
     1
 62
    18
176
     1
 90
       50
176
     1
 90
        3
176
     1
 62
     5
420
      255
176
     1
290
     0
176
     1
 90
       50
176
     1
 90
       50
176
     1
 90
       50
176
     1
290
     0
176
     1
 90
       50
176
     1
 62
   256
176
     0
 40
1.0
176
     0
 90
        2
176
     1
  1
strokes_ogs.tif
176
     1
290
     0
176
     1
 40
1.0
176
     1
 40
1.0
176
     1
  0
VISUALSTYLE
  5
3783
102
{ACAD_REACTORS
330
376C
102
}
330
376C
100
AcDbVisualStyle
  2
OverhangOff
 70
    21
177
     3
291
     1
 70
    58
 90
        2
176
     0
 90
        2
176
     0
 90
        0
176
     0
 90
        0
176
     0
 40
0.6
176
     0
 40
30.0
176
     0
 62
     7
420
 16777215
176
     0
 90
        1
176
     0
 90
        4
176
     0
 62
     7
176
     0
 62
   257
176
     0
 90
        1
176
     0
 90
        1
176
     0
 40
1.0
176
     0
 90
        9
176
     2
 62
     7
176
     0
 40
1.0
176
     0
 90
        1
176
     0
 90
        6
176
     0
 90
        2
176
     0
 62
     7
176
     0
 90
        5
176
     0
 90
        0
176
     0
 90
        0
176
     0
290
     0
176
     0
 90
        1
176
     0
 40
0.0
176
     0
 90
        0
176
     0
290
     0
176
     1
290
     1
176
     1
290
     1
176
     1
290
     0
176
     1
290
     0
176
     1
290
     0
176
     1
290
     0
176
     1
290
     0
176
     1
290
     0
176
     1
 90
       50
176
     0
 40
0.0
176
     0
 40
1.0
176
     0
 90
        0
176
     0
 62
    18
176
     0
 90
       50
176
     0
 90
        3
176
     0
 62
     5
420
      255
176
     0
290
     0
176
     1
 90
       50
176
     0
 90
       50
176
     0
 90
       50
176
     0
290
     0
176
     1
 90
       50
176
     0
 62
   256
176
     0
 40
1.0
176
     0
 90
        2
176
     0
  1
strokes_ogs.tif
176
     0
290
     0
176
     1
 40
1.0
176
     0
 40
1.0
176
     0
  0
VISUALSTYLE
  5
3776
102
{ACAD_REACTORS
330
376C
102
}
330
376C
100
AcDbVisualStyle
  2
Realistic
 70
     8
177
     3
291
     0
 70
    58
 90
        2
176
     1
 90
        3
176
     1
 90
        0
176
     1
 90
        2
176
     1
 40
0.6
176
     1
 40
30.0
176
     1
 62
     7
420
 16777215
176
     1
 90
        0
176
     1
 90
        0
176
     1
 62
     7
176
     1
 62
   257
176
     1
 90
        1
176
     1
 90
        1
176
     1
 40
1.0
176
     1
 90
        8
176
     1
 62
   257
176
     1
 40
1.0
176
     1
 90
        1
176
     1
 90
        6
176
     1
 90
        2
176
     1
 62
     7
176
     1
 90
        3
176
     1
 90
        0
176
     1
 90
        0
176
     1
290
     0
176
     1
 90
       13
176
     1
 40
0.0
176
     1
 90
        0
176
     1
290
     0
176
     1
290
     1
176
     1
290
     1
176
     1
290
     0
176
     1
290
     0
176
     1
290
     0
176
     1
290
     0
176
     1
290
     0
176
     1
290
     0
176
     1
 90
       50
176
     1
 40
0.0
176
     1
 40
1.0
176
     1
 90
        0
176
     1
 62
    18
176
     1
 90
       50
176
     1
 90
        3
176
     1
 62
     5
420
      255
176
     1
290
     0
176
     1
 90
       50
176
     1
 90
       50
176
     1
 90
       50
176
     1
290
     0
176
     1
 90
       50
176
     1
 62
   256
176
     0
 40
1.0
176
     0
 90
        2
176
     1
  1
strokes_ogs.tif
176
     1
290
     0
176
     1
 40
1.0
176
     1
 40
1.0
176
     1
  0
VISUALSTYLE
  5
3781
102
{ACAD_REACTORS
330
376C
102
}
330
376C
100
AcDbVisualStyle
  2
Shaded
 70
    27
177
     3
291
     0
 70
    58
 90
        2
176
     1
 90
        2
176
     1
 90
        1
176
     1
 90
        2
176
     1
 40
0.6
176
     1
 40
30.0
176
     1
 62
     7
420
 16777215
176
     1
 90
        0
176
     1
 90
        4
176
     1
 62
     7
176
     1
 62
   257
176
     1
 90
        1
176
     1
 90
        1
176
     1
 40
1.0
176
     1
 90
        8
176
     1
 62
   257
176
     1
 40
1.0
176
     1
 90
        1
176
     1
 90
        6
176
     1
 90
        2
176
     1
 62
     8
420
  7895160
176
     1
 90
        3
176
     1
 90
        0
176
     1
 90
        0
176
     1
290
     0
176
     1
 90
        5
176
     1
 40
0.0
176
     1
 90
        0
176
     1
290
     0
176
     1
290
     1
176
     1
290
     1
176
     1
290
     0
176
     1
290
     0
176
     1
290
     0
176
     1
290
     0
176
     1
290
     0
176
     1
290
     0
176
     1
 90
       50
176
     1
 40
0.0
176
     1
 40
1.0
176
     1
 90
        0
176
     1
 62
    18
176
     1
 90
       50
176
     1
 90
        3
176
     1
 62
     5
420
      255
176
     1
290
     0
176
     1
 90
       50
176
     1
 90
       50
176
     1
 90
       50
176
     1
290
     0
176
     1
 90
       50
176
     1
 62
   256
176
     0
 40
1.0
176
     0
 90
        2
176
     1
  1
strokes_ogs.tif
176
     1
290
     0
176
     1
 40
1.0
176
     1
 40
1.0
176
     1
  0
VISUALSTYLE
  5
3780
102
{ACAD_REACTORS
330
376C
102
}
330
376C
100
AcDbVisualStyle
  2
Shaded with edges
 70
    26
177
     3
291
     0
 70
    58
 90
        2
176
     1
 90
        2
176
     1
 90
        1
176
     1
 90
        2
176
     1
 40
0.6
176
     1
 40
30.0
176
     1
 62
     7
420
 16777215
176
     1
 90
        1
176
     1
 90
        2
176
     1
 62
     7
176
     1
 62
   257
176
     1
 90
        2
176
     1
 90
        1
176
     1
 40
1.0
176
     1
 90
        8
176
     1
 62
   257
176
     1
 40
1.0
176
     1
 90
        1
176
     1
 90
        6
176
     1
 90
        2
176
     1
 62
     7
176
     1
 90
        3
176
     1
 90
        0
176
     1
 90
        0
176
     1
290
     0
176
     1
 90
        5
176
     1
 40
0.0
176
     1
 90
        0
176
     1
290
     0
176
     1
290
     1
176
     1
290
     1
176
     1
290
     0
176
     1
290
     0
176
     1
290
     0
176
     1
290
     0
176
     1
290
     0
176
     1
290
     0
176
     1
 90
       50
176
     1
 40
0.0
176
     1
 40
1.0
176
     1
 90
        0
176
     1
 62
    18
176
     1
 90
       50
176
     1
 90
        3
176
     1
 62
     5
420
      255
176
     1
290
     0
176
     1
 90
       50
176
     1
 90
       50
176
     1
 90
       50
176
     1
290
     0
176
     1
 90
       50
176
     1
 62
   256
176
     0
 40
1.0
176
     0
 90
        2
176
     1
  1
strokes_ogs.tif
176
     1
290
     0
176
     1
 40
1.0
176
     1
 40
1.0
176
     1
  0
VISUALSTYLE
  5
377D
102
{ACAD_REACTORS
330
376C
102
}
330
376C
100
AcDbVisualStyle
  2
Shades of Gray
 70
    23
177
     3
291
     0
 70
    58
 90
        2
176
     1
 90
        2
176
     1
 90
        3
176
     1
 90
        0
176
     1
 40
0.6
176
     1
 40
30.0
176
     1
 62
     7
420
 16777215
176
     1
 90
        2
176
     1
 90
        2
176
     1
 62
     7
176
     1
 62
     7
176
     1
 90
        1
176
     1
 90
        1
176
     1
 40
40.0
176
     1
 90
        8
176
     1
 62
     7
176
     1
 40
1.0
176
     1
 90
        1
176
     1
 90
        6
176
     1
 90
        2
176
     1
 62
     7
176
     1
 90
        3
176
     1
 90
        0
176
     1
 90
        0
176
     1
290
     0
176
     1
 90
        1
176
     1
 40
0.0
176
     1
 90
        0
176
     1
290
     0
176
     1
290
     1
176
     1
290
     1
176
     1
290
     0
176
     1
290
     0
176
     1
290
     0
176
     1
290
     0
176
     1
290
     0
176
     1
290
     0
176
     1
 90
       50
176
     1
 40
0.0
176
     1
 40
1.0
176
     1
 90
        0
176
     1
 62
    18
176
     1
 90
       50
176
     1
 90
        3
176
     1
 62
     5
420
      255
176
     1
290
     0
176
     1
 90
       50
176
     1
 90
       50
176
     1
 90
       50
176
     1
290
     0
176
     1
 90
       50
176
     1
 62
   256
176
     0
 40
1.0
176
     0
 90
        2
176
     1
  1
strokes_ogs.tif
176
     1
290
     0
176
     1
 40
1.0
176
     1
 40
1.0
176
     1
  0
VISUALSTYLE
  5
377E
102
{ACAD_REACTORS
330
376C
102
}
330
376C
100
AcDbVisualStyle
  2
Sketchy
 70
    24
177
     3
291
     0
 70
    58
 90
        1
176
     1
 90
        2
176
     1
 90
        2
176
     1
 90
        0
176
     1
 40
0.6
176
     1
 40
30.0
176
     1
 62
     7
420
 16777215
176
     1
 90
        2
176
     1
 90
        2
176
     1
 62
     7
176
     1
 62
     7
176
     1
 90
        1
176
     1
 90
        1
176
     1
 40
40.0
176
     1
 90
       11
176
     1
 62
     7
176
     1
 40
1.0
176
     1
 90
        1
176
     1
 90
        6
176
     1
 90
        2
176
     1
 62
     7
176
     1
 90
        6
176
     1
 90
        0
176
     1
 90
        0
176
     1
290
     0
176
     1
 90
        1
176
     1
 40
0.0
176
     1
 90
        0
176
     1
290
     0
176
     1
290
     1
176
     1
290
     1
176
     1
290
     0
176
     1
290
     0
176
     1
290
     0
176
     1
290
     0
176
     1
290
     0
176
     1
290
     0
176
     1
 90
       50
176
     1
 40
0.0
176
     1
 40
1.0
176
     1
 90
        0
176
     1
 62
    18
176
     1
 90
       50
176
     1
 90
        3
176
     1
 62
     5
420
      255
176
     1
290
     0
176
     1
 90
       50
176
     1
 90
       50
176
     1
 90
       50
176
     1
290
     0
176
     1
 90
       50
176
     1
 62
   256
176
     0
 40
1.0
176
     0
 90
        2
176
     1
  1
strokes_ogs.tif
176
     1
290
     0
176
     1
 40
1.0
176
     1
 40
1.0
176
     1
  0
VISUALSTYLE
  5
3779
102
{ACAD_REACTORS
330
376C
102
}
330
376C
100
AcDbVisualStyle
  2
Thicken
 70
    13
177
     3
291
     1
 70
    58
 90
        2
176
     1
 90
        2
176
     1
 90
        0
176
     1
 90
        0
176
     1
 40
0.6
176
     1
 40
30.0
176
     1
 62
     7
420
 16777215
176
     1
 90
        1
176
     1
 90
        4
176
     1
 62
     7
176
     1
 62
   257
176
     1
 90
        1
176
     1
 90
        1
176
     1
 40
1.0
176
     1
 90
       12
176
     1
 62
     7
176
     1
 40
1.0
176
     1
 90
        1
176
     1
 90
        6
176
     1
 90
        2
176
     1
 62
     7
176
     1
 90
        5
176
     1
 90
        0
176
     1
 90
        0
176
     1
290
     0
176
     1
 90
        1
176
     1
 40
0.0
176
     1
 90
        0
176
     1
290
     0
176
     1
290
     1
176
     1
290
     1
176
     1
290
     0
176
     1
290
     0
176
     1
290
     0
176
     1
290
     0
176
     1
290
     0
176
     1
290
     0
176
     1
 90
       50
176
     1
 40
0.0
176
     1
 40
1.0
176
     1
 90
        0
176
     1
 62
    18
176
     1
 90
       50
176
     1
 90
        3
176
     1
 62
     5
420
      255
176
     1
290
     0
176
     1
 90
       50
176
     1
 90
       50
176
     1
 90
       50
176
     1
290
     0
176
     1
 90
       50
176
     1
 62
   256
176
     0
 40
1.0
176
     0
 90
        2
176
     1
  1
strokes_ogs.tif
176
     1
290
     0
176
     1
 40
1.0
176
     1
 40
1.0
176
     1
  0
VISUALSTYLE
  5
3773
102
{ACAD_REACTORS
330
376C
102
}
330
376C
100
AcDbVisualStyle
  2
Wireframe
 70
     5
177
     3
291
     0
 70
    58
 90
        0
176
     1
 90
        2
176
     1
 90
        0
176
     1
 90
        0
176
     1
 40
0.6
176
     1
 40
30.0
176
     1
 62
     7
420
 16777215
176
     1
 90
        1
176
     1
 90
        4
176
     1
 62
     7
176
     1
 62
   257
176
     1
 90
        1
176
     1
 90
        1
176
     1
 40
1.0
176
     1
 90
        0
176
     1
 62
   257
176
     1
 40
1.0
176
     1
 90
        1
176
     1
 90
        6
176
     1
 90
        2
176
     1
 62
     7
176
     1
 90
        3
176
     1
 90
        0
176
     1
 90
        0
176
     1
290
     0
176
     1
 90
        1
176
     1
 40
0.0
176
     1
 90
        0
176
     1
290
     0
176
     1
290
     1
176
     1
290
     1
176
     1
290
     0
176
     1
290
     0
176
     1
290
     0
176
     1
290
     0
176
     1
290
     0
176
     1
290
     0
176
     1
 90
       50
176
     1
 40
0.0
176
     1
 40
1.0
176
     1
 90
        0
176
     1
 62
    18
176
     1
 90
       50
176
     1
 90
        3
176
     1
 62
     5
420
      255
176
     1
290
     0
176
     1
 90
       50
176
     1
 90
       50
176
     1
 90
       50
176
     1
290
     0
176
     1
 90
       50
176
     1
 62
   256
176
     0
 40
1.0
176
     0
 90
        2
176
     1
  1
strokes_ogs.tif
176
     1
290
     0
176
     1
 40
1.0
176
     1
 40
1.0
176
     1
  0
VISUALSTYLE
  5
377F
102
{ACAD_REACTORS
330
376C
102
}
330
376C
100
AcDbVisualStyle
  2
X-Ray
 70
    25
177
     3
291
     0
 70
    58
 90
        2
176
     1
 90
        2
176
     1
 90
        1
176
     1
 90
        1
176
     1
 40
0.5
176
     1
 40
30.0
176
     1
 62
     7
420
 16777215
176
     1
 90
        1
176
     1
 90
        0
176
     1
 62
     7
176
     1
 62
   257
176
     1
 90
        1
176
     1
 90
        1
176
     1
 40
1.0
176
     1
 90
        8
176
     1
 62
     7
176
     1
 40
1.0
176
     1
 90
        1
176
     1
 90
        6
176
     1
 90
        2
176
     1
 62
     7
176
     1
 90
        3
176
     1
 90
        0
176
     1
 90
        0
176
     1
290
     0
176
     1
 90
       13
176
     1
 40
0.0
176
     1
 90
        0
176
     1
290
     0
176
     1
290
     1
176
     1
290
     1
176
     1
290
     0
176
     1
290
     0
176
     1
290
     0
176
     1
290
     0
176
     1
290
     0
176
     1
290
     0
176
     1
 90
       50
176
     1
 40
0.0
176
     1
 40
1.0
176
     1
 90
        0
176
     1
 62
    18
176
     1
 90
       50
176
     1
 90
        3
176
     1
 62
     5
420
      255
176
     1
290
     0
176
     1
 90
       50
176
     1
 90
       50
176
     1
 90
       50
176
     1
290
     0
176
     1
 90
       50
176
     1
 62
   256
176
     0
 40
1.0
176
     0
 90
        2
176
     1
  1
strokes_ogs.tif
176
     1
290
     0
176
     1
 40
1.0
176
     1
 40
1.0
176
     1
  0
DICTIONARYVAR
  5
37B7
102
{ACAD_REACTORS
330
37B1
102
}
330
37B1
100
DictionaryVariables
280
     0
  1
1:1
  0
DICTIONARYVAR
  5
37B3
102
{ACAD_REACTORS
330
37B1
102
}
330
37B1
100
DictionaryVariables
280
     0
  1
STANDARD
  0
DICTIONARYVAR
  5
37B2
102
{ACAD_REACTORS
330
37B1
102
}
330
37B1
100
DictionaryVariables
280
     0
  1
STANDARD
  0
DICTIONARYVAR
  5
37B4
102
{ACAD_REACTORS
330
37B1
102
}
330
37B1
100
DictionaryVariables
280
     0
  1
Imperial24
  0
DICTIONARYVAR
  5
37B5
102
{ACAD_REACTORS
330
37B1
102
}
330
37B1
100
DictionaryVariables
280
     0
  1
Imperial24
  0
DICTIONARYVAR
  5
37B9
102
{ACAD_REACTORS
330
37B1
102
}
330
37B1
100
DictionaryVariables
280
     0
  1
1
  0
DICTIONARYVAR
  5
37BA
102
{ACAD_REACTORS
330
37B1
102
}
330
37B1
100
DictionaryVariables
280
     0
  1
15
  0
DICTIONARYVAR
  5
37B8
102
{ACAD_REACTORS
330
37B1
102
}
330
37B1
100
DictionaryVariables
280
     0
  1
0
  0
DICTIONARYVAR
  5
37B6
102
{ACAD_REACTORS
330
37B1
102
}
330
37B1
100
DictionaryVariables
280
     0
  1
0
  0
XRECORD
  5
37B0
102
{ACAD_REACTORS
330
37AE
102
}
330
37AE
100
AcDbXrecord
280
     1
  0
DICTIONARY
  5
375D
330
375C
100
AcDbDictionary
280
     1
281
     1
  3
BUMPTILE
360
375F
  3
DIFFUSETILE
360
375E
  3
OPACITYTILE
360
3762
  3
REFLECTIONTILE
360
3761
  3
REFRACTIONTILE
360
3763
  3
SPECULARTILE
360
3760
  0
DICTIONARY
  5
3755
330
3754
100
AcDbDictionary
280
     1
281
     1
  3
BUMPTILE
360
3757
  3
DIFFUSETILE
360
3756
  3
OPACITYTILE
360
375A
  3
REFLECTIONTILE
360
3759
  3
REFRACTIONTILE
360
375B
  3
SPECULARTILE
360
3758
  0
DICTIONARY
  5
3765
330
3764
100
AcDbDictionary
280
     1
281
     1
  3
BUMPTILE
360
3767
  3
DIFFUSETILE
360
3766
  3
OPACITYTILE
360
376A
  3
REFLECTIONTILE
360
3769
  3
REFRACTIONTILE
360
376B
  3
SPECULARTILE
360
3768
  0
DICTIONARY
  5
37BC
330
3788
100
AcDbDictionary
280
     1
281
     1
  3
ACAD_ROUNDTRIP_2008_TABLESTYLE_CELLSTYLEMAP
360
37D3
  0
XRECORD
  5
375F
102
{ACAD_REACTORS
330
375D
102
}
330
375D
100
AcDbXrecord
280
     1
270
     1
271
     1
  0
XRECORD
  5
375E
102
{ACAD_REACTORS
330
375D
102
}
330
375D
100
AcDbXrecord
280
     1
270
     1
271
     1
  0
XRECORD
  5
3762
102
{ACAD_REACTORS
330
375D
102
}
330
375D
100
AcDbXrecord
280
     1
270
     1
271
     1
  0
XRECORD
  5
3761
102
{ACAD_REACTORS
330
375D
102
}
330
375D
100
AcDbXrecord
280
     1
270
     1
271
     1
  0
XRECORD
  5
3763
102
{ACAD_REACTORS
330
375D
102
}
330
375D
100
AcDbXrecord
280
     1
270
     1
271
     1
  0
XRECORD
  5
3760
102
{ACAD_REACTORS
330
375D
102
}
330
375D
100
AcDbXrecord
280
     1
270
     1
271
     1
  0
XRECORD
  5
3757
102
{ACAD_REACTORS
330
3755
102
}
330
3755
100
AcDbXrecord
280
     1
270
     1
271
     1
  0
XRECORD
  5
3756
102
{ACAD_REACTORS
330
3755
102
}
330
3755
100
AcDbXrecord
280
     1
270
     1
271
     1
  0
XRECORD
  5
375A
102
{ACAD_REACTORS
330
3755
102
}
330
3755
100
AcDbXrecord
280
     1
270
     1
271
     1
  0
XRECORD
  5
3759
102
{ACAD_REACTORS
330
3755
102
}
330
3755
100
AcDbXrecord
280
     1
270
     1
271
     1
  0
XRECORD
  5
375B
102
{ACAD_REACTORS
330
3755
102
}
330
3755
100
AcDbXrecord
280
     1
270
     1
271
     1
  0
XRECORD
  5
3758
102
{ACAD_REACTORS
330
3755
102
}
330
3755
100
AcDbXrecord
280
     1
270
     1
271
     1
  0
XRECORD
  5
3767
102
{ACAD_REACTORS
330
3765
102
}
330
3765
100
AcDbXrecord
280
     1
270
     1
271
     1
  0
XRECORD
  5
3766
102
{ACAD_REACTORS
330
3765
102
}
330
3765
100
AcDbXrecord
280
     1
270
     1
271
     1
  0
XRECORD
  5
376A
102
{ACAD_REACTORS
330
3765
102
}
330
3765
100
AcDbXrecord
280
     1
270
     1
271
     1
  0
XRECORD
  5
3769
102
{ACAD_REACTORS
330
3765
102
}
330
3765
100
AcDbXrecord
280
     1
270
     1
271
     1
  0
XRECORD
  5
376B
102
{ACAD_REACTORS
330
3765
102
}
330
3765
100
AcDbXrecord
280
     1
270
     1
271
     1
  0
XRECORD
  5
3768
102
{ACAD_REACTORS
330
3765
102
}
330
3765
100
AcDbXrecord
280
     1
270
     1
271
     1
  0
CELLSTYLEMAP
  5
37D3
102
{ACAD_REACTORS
330
37BC
102
}
330
37BC
100
AcDbCellStyleMap
 90
        3
300
CELLSTYLE
  1
TABLEFORMAT_BEGIN
 90
        5
170
     1
 91
        0
 92
    32768
 62
   257
 93
        1
300
CONTENTFORMAT
  1
CONTENTFORMAT_BEGIN
 90
        0
 91
        0
 92
      512
 93
        0
300

 40
0.0
140
1.0
 94
        5
 62
     0
340
F8B
144
0.25
309
CONTENTFORMAT_END
171
     1
301
MARGIN
  1
CELLMARGIN_BEGIN
 40
0.06
 40
0.06
 40
0.06
 40
0.06
 40
0.18
 40
0.18
309
CELLMARGIN_END
 94
        6
 95
        1
302
GRIDFORMAT
  1
GRIDFORMAT_BEGIN
 90
        0
 91
        1
 62
     0
 92
       -2
340
0
 93
        0
 40
0.045
309
GRIDFORMAT_END
 95
        2
302
GRIDFORMAT
  1
GRIDFORMAT_BEGIN
 90
        0
 91
        1
 62
     0
 92
       -2
340
0
 93
        0
 40
0.045
309
GRIDFORMAT_END
 95
        4
302
GRIDFORMAT
  1
GRIDFORMAT_BEGIN
 90
        0
 91
        1
 62
     0
 92
       -2
340
0
 93
        0
 40
0.045
309
GRIDFORMAT_END
 95
        8
302
GRIDFORMAT
  1
GRIDFORMAT_BEGIN
 90
        0
 91
        1
 62
     0
 92
       -2
340
0
 93
        0
 40
0.045
309
GRIDFORMAT_END
 95
       16
302
GRIDFORMAT
  1
GRIDFORMAT_BEGIN
 90
        0
 91
        1
 62
     0
 92
       -2
340
0
 93
        0
 40
0.045
309
GRIDFORMAT_END
 95
       32
302
GRIDFORMAT
  1
GRIDFORMAT_BEGIN
 90
        0
 91
        1
 62
     0
 92
       -2
340
0
 93
        0
 40
0.045
309
GRIDFORMAT_END
309
TABLEFORMAT_END
  1
CELLSTYLE_BEGIN
 90
        1
 91
        1
300
_TITLE
309
CELLSTYLE_END
300
CELLSTYLE
  1
TABLEFORMAT_BEGIN
 90
        5
170
     1
 91
        0
 92
        0
 62
   257
 93
        1
300
CONTENTFORMAT
  1
CONTENTFORMAT_BEGIN
 90
        0
 91
        0
 92
      512
 93
        0
300

 40
0.0
140
1.0
 94
        5
 62
     0
340
F8B
144
0.18
309
CONTENTFORMAT_END
171
     1
301
MARGIN
  1
CELLMARGIN_BEGIN
 40
0.06
 40
0.06
 40
0.06
 40
0.06
 40
0.18
 40
0.18
309
CELLMARGIN_END
 94
        6
 95
        1
302
GRIDFORMAT
  1
GRIDFORMAT_BEGIN
 90
        0
 91
        1
 62
     0
 92
       -2
340
0
 93
        0
 40
0.045
309
GRIDFORMAT_END
 95
        2
302
GRIDFORMAT
  1
GRIDFORMAT_BEGIN
 90
        0
 91
        1
 62
     0
 92
       -2
340
0
 93
        0
 40
0.045
309
GRIDFORMAT_END
 95
        4
302
GRIDFORMAT
  1
GRIDFORMAT_BEGIN
 90
        0
 91
        1
 62
     0
 92
       -2
340
0
 93
        0
 40
0.045
309
GRIDFORMAT_END
 95
        8
302
GRIDFORMAT
  1
GRIDFORMAT_BEGIN
 90
        0
 91
        1
 62
     0
 92
       -2
340
0
 93
        0
 40
0.045
309
GRIDFORMAT_END
 95
       16
302
GRIDFORMAT
  1
GRIDFORMAT_BEGIN
 90
        0
 91
        1
 62
     0
 92
       -2
340
0
 93
        0
 40
0.045
309
GRIDFORMAT_END
 95
       32
302
GRIDFORMAT
  1
GRIDFORMAT_BEGIN
 90
        0
 91
        1
 62
     0
 92
       -2
340
0
 93
        0
 40
0.045
309
GRIDFORMAT_END
309
TABLEFORMAT_END
  1
CELLSTYLE_BEGIN
 90
        2
 91
        1
300
_HEADER
309
CELLSTYLE_END
300
CELLSTYLE
  1
TABLEFORMAT_BEGIN
 90
        5
170
     1
 91
        0
 92
        0
 62
   257
 93
        1
300
CONTENTFORMAT
  1
CONTENTFORMAT_BEGIN
 90
        0
 91
        0
 92
      512
 93
        0
300

 40
0.0
140
1.0
 94
        2
 62
     0
340
F8B
144
0.18
309
CONTENTFORMAT_END
171
     1
301
MARGIN
  1
CELLMARGIN_BEGIN
 40
0.06
 40
0.06
 40
0.06
 40
0.06
 40
0.18
 40
0.18
309
CELLMARGIN_END
 94
        6
 95
        1
302
GRIDFORMAT
  1
GRIDFORMAT_BEGIN
 90
        0
 91
        1
 62
     0
 92
       -2
340
0
 93
        0
 40
0.045
309
GRIDFORMAT_END
 95
        2
302
GRIDFORMAT
  1
GRIDFORMAT_BEGIN
 90
        0
 91
        1
 62
     0
 92
       -2
340
0
 93
        0
 40
0.045
309
GRIDFORMAT_END
 95
        4
302
GRIDFORMAT
  1
GRIDFORMAT_BEGIN
 90
        0
 91
        1
 62
     0
 92
       -2
340
0
 93
        0
 40
0.045
309
GRIDFORMAT_END
 95
        8
302
GRIDFORMAT
  1
GRIDFORMAT_BEGIN
 90
        0
 91
        1
 62
     0
 92
       -2
340
0
 93
        0
 40
0.045
309
GRIDFORMAT_END
 95
       16
302
GRIDFORMAT
  1
GRIDFORMAT_BEGIN
 90
        0
 91
        1
 62
     0
 92
       -2
340
0
 93
        0
 40
0.045
309
GRIDFORMAT_END
 95
       32
302
GRIDFORMAT
  1
GRIDFORMAT_BEGIN
 90
        0
 91
        1
 62
     0
 92
       -2
340
0
 93
        0
 40
0.045
309
GRIDFORMAT_END
309
TABLEFORMAT_END
  1
CELLSTYLE_BEGIN
 90
        3
 91
        2
300
_DATA
309
CELLSTYLE_END
  0
ENDSEC
  0
EOF
