  0
SECTION
  2
HEADER
  9
$ACADVER
  1
AC1032
  9
$ACADMAINTVER
 90
      174
  9
$DWGCODEPAGE
  3
ANSI_1252
  9
$LASTSAVEDBY
  1
jpgreen
  9
$REQUIREDVERSIONS
160
                 0
  9
$INSBASE
 10
0.0
 20
0.0
 30
0.0
  9
$EXTMIN
 10
-38750.12
 20
-25000.12
 30
0.0
  9
$EXTMAX
 10
38750.12
 20
25000.12
 30
220.0
  9
$LIMMIN
 10
0.0
 20
0.0
  9
$LIMMAX
 10
0.0
 20
0.0
  9
$ORTHOMODE
 70
     0
  9
$REGENMODE
 70
     1
  9
$FILLMODE
 70
     1
  9
$QTEXTMODE
 70
     0
  9
$MIRRTEXT
 70
     1
  9
$LTSCALE
 40
1.0
  9
$ATTMODE
 70
     1
  9
$TEXTSIZE
 40
0.0
  9
$TRACEWID
 40
0.05
  9
$TEXTSTYLE
  7
STANDARD
  9
$CLAYER
  8
0
  9
$CELTYPE
  6
CONTINUOUS
  9
$CECOLOR
 62
   256
  9
$CELTSCALE
 40
1.0
  9
$DISPSILH
 70
     0
  9
$DIMSCALE
 40
1.0
  9
$DIMASZ
 40
0.18
  9
$DIMEXO
 40
0.0625
  9
$DIMDLI
 40
0.38
  9
$DIMRND
 40
0.0
  9
$DIMDLE
 40
0.0
  9
$DIMEXE
 40
0.18
  9
$DIMTP
 40
0.0
  9
$DIMTM
 40
0.0
  9
$DIMTXT
 40
0.18
  9
$DIMCEN
 40
0.09
  9
$DIMTSZ
 40
0.0
  9
$DIMTOL
 70
     0
  9
$DIMLIM
 70
     0
  9
$DIMTIH
 70
     1
  9
$DIMTOH
 70
     1
  9
$DIMSE1
 70
     0
  9
$DIMSE2
 70
     0
  9
$DIMTAD
 70
     0
  9
$DIMZIN
 70
     0
  9
$DIMBLK
  1

  9
$DIMASO
 70
     1
  9
$DIMSHO
 70
     1
  9
$DIMPOST
  1

  9
$DIMAPOST
  1

  9
$DIMALT
 70
     0
  9
$DIMALTD
 70
     2
  9
$DIMALTF
 40
25.4
  9
$DIMLFAC
 40
1.0
  9
$DIMTOFL
 70
     0
  9
$DIMTVP
 40
0.0
  9
$DIMTIX
 70
     0
  9
$DIMSOXD
 70
     0
  9
$DIMSAH
 70
     0
  9
$DIMBLK1
  1

  9
$DIMBLK2
  1

  9
$DIMSTYLE
  2
STANDARD
  9
$DIMCLRD
 70
     0
  9
$DIMCLRE
 70
     0
  9
$DIMCLRT
 70
     0
  9
$DIMTFAC
 40
1.0
  9
$DIMGAP
 40
0.09
  9
$DIMJUST
 70
     0
  9
$DIMSD1
 70
     0
  9
$DIMSD2
 70
     0
  9
$DIMTOLJ
 70
     1
  9
$DIMTZIN
 70
     0
  9
$DIMALTZ
 70
     0
  9
$DIMALTTZ
 70
     0
  9
$DIMUPT
 70
     0
  9
$DIMDEC
 70
     4
  9
$DIMTDEC
 70
     4
  9
$DIMALTU
 70
     2
  9
$DIMALTTD
 70
     2
  9
$DIMTXSTY
  7
STANDARD
  9
$DIMAUNIT
 70
     0
  9
$DIMADEC
 70
     0
  9
$DIMALTRND
 40
0.0
  9
$DIMAZIN
 70
     0
  9
$DIMDSEP
 70
    46
  9
$DIMATFIT
 70
     3
  9
$DIMFRAC
 70
     0
  9
$DIMLDRBLK
  1

  9
$DIMLUNIT
 70
     2
  9
$DIMLWD
 70
    -2
  9
$DIMLWE
 70
    -2
  9
$DIMTMOVE
 70
     0
  9
$DIMFXL
 40
1.0
  9
$DIMFXLON
 70
     0
  9
$DIMJOGANG
 40
0.7853981633974483
  9
$DIMTFILL
 70
     0
  9
$DIMTFILLCLR
 70
     0
  9
$DIMARCSYM
 70
     0
  9
$DIMLTYPE
  6

  9
$DIMLTEX1
  6

  9
$DIMLTEX2
  6

  9
$DIMTXTDIRECTION
 70
     0
  9
$LUNITS
 70
     2
  9
$LUPREC
 70
     4
  9
$SKETCHINC
 40
0.1
  9
$FILLETRAD
 40
0.0
  9
$AUNITS
 70
     0
  9
$AUPREC
 70
     0
  9
$MENU
  1
acad
  9
$ELEVATION
 40
0.0
  9
$PELEVATION
 40
0.0
  9
$THICKNESS
 40
0.0
  9
$LIMCHECK
 70
     0
  9
$CHAMFERA
 40
0.0
  9
$CHAMFERB
 40
0.0
  9
$CHAMFERC
 40
0.0
  9
$CHAMFERD
 40
0.0
  9
$SKPOLY
 70
     0
  9
$TDCREATE
 40
2414622.957627315
  9
$TDUCREATE
 40
2440587.999988426
  9
$TDUPDATE
 40
2459884.623726852
  9
$TDUUPDATE
 40
2459884.915393519
  9
$TDINDWG
 40
0.0137731481
  9
$TDUSRTIMER
 40
0.0137731481
  9
$USRTIMER
 70
     1
  9
$ANGBASE
 50
0.0
  9
$ANGDIR
 70
     0
  9
$PDMODE
 70
     0
  9
$PDSIZE
 40
0.0
  9
$PLINEWID
 40
0.0
  9
$SPLFRAME
 70
     0
  9
$SPLINETYPE
 70
     6
  9
$SPLINESEGS
 70
     8
  9
$HANDSEED
  5
13B6
  9
$SURFTAB1
 70
     6
  9
$SURFTAB2
 70
     6
  9
$SURFTYPE
 70
     6
  9
$SURFU
 70
     6
  9
$SURFV
 70
     6
  9
$UCSBASE
  2

  9
$UCSNAME
  2

  9
$UCSORG
 10
0.0
 20
0.0
 30
0.0
  9
$UCSXDIR
 10
1.0
 20
0.0
 30
0.0
  9
$UCSYDIR
 10
0.0
 20
1.0
 30
0.0
  9
$UCSORTHOREF
  2

  9
$UCSORTHOVIEW
 70
     0
  9
$UCSORGTOP
 10
0.0
 20
0.0
 30
0.0
  9
$UCSORGBOTTOM
 10
0.0
 20
0.0
 30
0.0
  9
$UCSORGLEFT
 10
0.0
 20
0.0
 30
0.0
  9
$UCSORGRIGHT
 10
0.0
 20
0.0
 30
0.0
  9
$UCSORGFRONT
 10
0.0
 20
0.0
 30
0.0
  9
$UCSORGBACK
 10
0.0
 20
0.0
 30
0.0
  9
$PUCSBASE
  2

  9
$PUCSNAME
  2

  9
$PUCSORG
 10
0.0
 20
0.0
 30
0.0
  9
$PUCSXDIR
 10
1.0
 20
0.0
 30
0.0
  9
$PUCSYDIR
 10
0.0
 20
1.0
 30
0.0
  9
$PUCSORTHOREF
  2

  9
$PUCSORTHOVIEW
 70
     0
  9
$PUCSORGTOP
 10
0.0
 20
0.0
 30
0.0
  9
$PUCSORGBOTTOM
 10
0.0
 20
0.0
 30
0.0
  9
$PUCSORGLEFT
 10
0.0
 20
0.0
 30
0.0
  9
$PUCSORGRIGHT
 10
0.0
 20
0.0
 30
0.0
  9
$PUCSORGFRONT
 10
0.0
 20
0.0
 30
0.0
  9
$PUCSORGBACK
 10
0.0
 20
0.0
 30
0.0
  9
$USERI1
 70
    -4
  9
$USERI2
 70
     0
  9
$USERI3
 70
     0
  9
$USERI4
 70
     0
  9
$USERI5
 70
     0
  9
$USERR1
 40
0.0
  9
$USERR2
 40
0.0
  9
$USERR3
 40
0.0
  9
$USERR4
 40
0.0
  9
$USERR5
 40
0.0
  9
$WORLDVIEW
 70
     1
  9
$SHADEDGE
 70
     3
  9
$SHADEDIF
 70
    70
  9
$TILEMODE
 70
     1
  9
$MAXACTVP
 70
    16
  9
$PINSBASE
 10
0.0
 20
0.0
 30
0.0
  9
$PLIMCHECK
 70
     0
  9
$PEXTMIN
 10
1.000000000000000E+20
 20
1.000000000000000E+20
 30
1.000000000000000E+20
  9
$PEXTMAX
 10
-1.000000000000000E+20
 20
-1.000000000000000E+20
 30
-1.000000000000000E+20
  9
$PLIMMIN
 10
0.0
 20
0.0
  9
$PLIMMAX
 10
12.0
 20
9.0
  9
$UNITMODE
 70
     0
  9
$VISRETAIN
 70
     0
  9
$PLINEGEN
 70
     1
  9
$PSLTSCALE
 70
     0
  9
$TREEDEPTH
 70
  3020
  9
$CMLSTYLE
  2
STANDARD
  9
$CMLJUST
 70
     0
  9
$CMLSCALE
 40
1.0
  9
$PROXYGRAPHICS
 70
     0
  9
$MEASUREMENT
 70
     0
  9
$CELWEIGHT
370
    -1
  9
$ENDCAPS
280
     0
  9
$JOINSTYLE
280
     0
  9
$LWDISPLAY
290
     0
  9
$INSUNITS
 70
     0
  9
$HYPERLINKBASE
  1

  9
$STYLESHEET
  1

  9
$XEDIT
290
     1
  9
$CEPSNTYPE
380
     0
  9
$PSTYLEMODE
290
     1
  9
$FINGERPRINTGUID
  2
{A17FF00F-0C8D-6A43-A753-FC8E5C8C43BB}
  9
$VERSIONGUID
  2
{AE62C2C3-AE24-254D-8297-64FA90BB781B}
  9
$EXTNAMES
290
     1
  9
$PSVPSCALE
 40
0.0
  9
$OLESTARTUP
290
     0
  9
$SORTENTS
280
   127
  9
$INDEXCTL
280
     0
  9
$HIDETEXT
280
     0
  9
$XCLIPFRAME
280
     2
  9
$HALOGAP
280
     0
  9
$OBSCOLOR
 70
   257
  9
$OBSLTYPE
280
     0
  9
$INTERSECTIONDISPLAY
280
     0
  9
$INTERSECTIONCOLOR
 70
   257
  9
$DIMASSOC
280
     1
  9
$PROJECTNAME
  1

  9
$CAMERADISPLAY
290
     0
  9
$LENSLENGTH
 40
50.0
  9
$CAMERAHEIGHT
 40
0.0
  9
$STEPSPERSEC
 40
2.0
  9
$STEPSIZE
 40
6.0
  9
$3DDWFPREC
 40
2.0
  9
$PSOLWIDTH
 40
0.25
  9
$PSOLHEIGHT
 40
4.0
  9
$LOFTANG1
 40
1.570796326794896
  9
$LOFTANG2
 40
1.570796326794896
  9
$LOFTMAG1
 40
0.0
  9
$LOFTMAG2
 40
0.0
  9
$LOFTPARAM
 70
     7
  9
$LOFTNORMALS
280
     1
  9
$LATITUDE
 40
37.795
  9
$LONGITUDE
 40
-122.394
  9
$NORTHDIRECTION
 40
0.0
  9
$TIMEZONE
 70
 -8000
  9
$LIGHTGLYPHDISPLAY
280
     1
  9
$TILEMODELIGHTSYNCH
280
     1
  9
$CMATERIAL
347
1321
  9
$SOLIDHIST
280
     0
  9
$SHOWHIST
280
     1
  9
$DWFFRAME
280
     2
  9
$DGNFRAME
280
     0
  9
$REALWORLDSCALE
290
     1
  9
$INTERFERECOLOR
 62
     1
  9
$INTERFEREOBJVS
345
1343
  9
$INTERFEREVPVS
346
1340
  9
$CSHADOW
280
     0
  9
$SHADOWPLANELOCATION
 40
0.0
  0
ENDSEC
  0
SECTION
  2
CLASSES
  0
CLASS
  1
IMAGE
  2
AcDbRasterImage
  3
ISM
 90
     2175
 91
        0
280
     0
281
     1
  0
CLASS
  1
DICTIONARYVAR
  2
AcDbDictionaryVar
  3
ObjectDBX Classes
 90
        0
 91
       18
280
     0
281
     0
  0
CLASS
  1
RASTERVARIABLES
  2
AcDbRasterVariables
  3
ISM
 90
        0
 91
        0
280
     0
281
     0
  0
CLASS
  1
IMAGEDEF
  2
AcDbRasterImageDef
  3
ISM
 90
        0
 91
        0
280
     0
281
     0
  0
CLASS
  1
IMAGEDEF_REACTOR
  2
AcDbRasterImageDefReactor
  3
ISM
 90
        1
 91
        0
280
     0
281
     0
  0
CLASS
  1
IDBUFFER
  2
AcDbIdBuffer
  3
ObjectDBX Classes
 90
        0
 91
        0
280
     0
281
     0
  0
CLASS
  1
SPATIAL_FILTER
  2
AcDbSpatialFilter
  3
ObjectDBX Classes
 90
        0
 91
        0
280
     0
281
     0
  0
CLASS
  1
SORTENTSTABLE
  2
AcDbSortentsTable
  3
ObjectDBX Classes
 90
        0
 91
        0
280
     0
281
     0
  0
CLASS
  1
LAYER_INDEX
  2
AcDbLayerIndex
  3
ObjectDBX Classes
 90
        0
 91
        0
280
     0
281
     0
  0
CLASS
  1
SPATIAL_INDEX
  2
AcDbSpatialIndex
  3
ObjectDBX Classes
 90
        0
 91
        0
280
     0
281
     0
  0
CLASS
  1
OBJECT_PTR
  2
CAseDLPNTableRecord
  3
ASE-LPNTableRecord
 90
        1
 91
        0
280
     0
281
     0
  0
CLASS
  1
PLOTSETTINGS
  2
AcDbPlotSettings
  3
ObjectDBX Classes
 90
        0
 91
        0
280
     0
281
     0
  0
CLASS
  1
ACDBDICTIONARYWDFLT
  2
AcDbDictionaryWithDefault
  3
ObjectDBX Classes
 90
        0
 91
        1
280
     0
281
     0
  0
CLASS
  1
WIPEOUT
  2
AcDbWipeout
  3
WipeOut|Product Desc: Object Enabler for WipeOut entity | Company: Autodesk, Inc. | WEB Address: www.autodesk.com
 90
     2175
 91
        0
280
     0
281
     1
  0
CLASS
  1
WIPEOUTVARIABLES
  2
AcDbWipeoutVariables
  3
"WipeOut|Product Desc:     WipeOut Dbx Application|Company:          Autodesk, Inc.|WEB Address:      www.autodesk.com"
 90
        0
 91
        0
280
     0
281
     0
  0
CLASS
  1
RTEXT
  2
RText
  3
RText|AutoCAD Express Tool|expresstools@autodesk.com
 90
     3071
 91
        0
280
     0
281
     1
  0
CLASS
  1
ARCALIGNEDTEXT
  2
AcDbArcAlignedText
  3
ATEXT|AutoCAD Express Tool|expresstools@autodesk.com
 90
        0
 91
        0
280
     0
281
     1
  0
CLASS
  1
MATERIAL
  2
AcDbMaterial
  3
ObjectDBX Classes
 90
     1153
 91
        3
280
     0
281
     0
  0
CLASS
  1
VISUALSTYLE
  2
AcDbVisualStyle
  3
ObjectDBX Classes
 90
     4095
 91
       24
280
     0
281
     0
  0
CLASS
  1
TABLESTYLE
  2
AcDbTableStyle
  3
ObjectDBX Classes
 90
     4095
 91
        1
280
     0
281
     0
  0
CLASS
  1
SCALE
  2
AcDbScale
  3
ObjectDBX Classes
 90
     1153
 91
       17
280
     0
281
     0
  0
CLASS
  1
MLEADERSTYLE
  2
AcDbMLeaderStyle
  3
ACDB_MLEADERSTYLE_CLASS
 90
     4095
 91
        1
280
     0
281
     0
  0
CLASS
  1
ACDBSECTIONVIEWSTYLE
  2
AcDbSectionViewStyle
  3
ObjectDBX Classes
 90
     1025
 91
        1
280
     0
281
     0
  0
CLASS
  1
ACDBDETAILVIEWSTYLE
  2
AcDbDetailViewStyle
  3
ObjectDBX Classes
 90
     1025
 91
        1
280
     0
281
     0
  0
CLASS
  1
ACDBASSOCNETWORK
  2
AcDbAssocNetwork
  3
ObjectDBX Classes
 90
     1025
 91
        2
280
     0
281
     0
  0
CLASS
  1
ACDBASSOCACTION
  2
AcDbAssocAction
  3
ObjectDBX Classes
 90
     1025
 91
        2
280
     0
281
     0
  0
CLASS
  1
AcDbCenterLineActionBody
  2
AcDbCenterLineActionBody
  3
AcDbSmartCenter
 90
     1153
 91
        2
280
     0
281
     0
  0
CLASS
  1
ACDBASSOCEDGEACTIONPARAM
  2
AcDbAssocEdgeActionParam
  3
ObjectDBX Classes
 90
     1025
 91
        4
280
     0
281
     0
  0
CLASS
  1
ACDBASSOCGEOMDEPENDENCY
  2
AcDbAssocGeomDependency
  3
ObjectDBX Classes
 90
     1025
 91
        4
280
     0
281
     0
  0
CLASS
  1
ACDBASSOCDEPENDENCY
  2
AcDbAssocDependency
  3
ObjectDBX Classes
 90
     1025
 91
        2
280
     0
281
     0
  0
CLASS
  1
CELLSTYLEMAP
  2
AcDbCellStyleMap
  3
ObjectDBX Classes
 90
     1152
 91
        1
280
     0
281
     0
  0
ENDSEC
  0
SECTION
  2
TABLES
  0
TABLE
  2
VPORT
  5
7
330
0
100
AcDbSymbolTable
 70
     1
  0
VPORT
  5
13
330
7
100
AcDbSymbolTableRecord
100
AcDbViewportTableRecord
  2
*ACTIVE
 70
     0
 10
0.0
 20
0.0
 11
1.0
 21
1.0
 12
-18073.46699120814
 22
13652.7745540302
 13
0.0
 23
0.0
 14
1.0
 24
1.0
 15
0.0
 25
0.0
 16
0.0
 26
0.0
 36
1.0
 17
0.0
 27
0.0
 37
0.0
 40
142946.2199957876
 41
2.495908346972176
 42
50.0
 43
0.0
 44
0.0
 50
0.0
 51
0.0
 71
     0
 72
   100
 73
     1
 74
     1
 75
     0
 76
     0
 77
     0
 78
     0
281
     0
 65
     1
110
0.0
120
0.0
130
0.0
111
1.0
121
0.0
131
0.0
112
0.0
122
1.0
132
0.0
 79
     0
146
0.0
348
133F
 60
     3
 61
     5
292
     1
282
     1
141
0.0
142
0.0
 63
   250
421
  3355443
1001
ACAD_NAV_VCDISPLAY
1070
     3
  0
ENDTAB
  0
TABLE
  2
LTYPE
  5
4
330
0
100
AcDbSymbolTable
 70
     2
  0
LTYPE
  5
10
330
4
100
AcDbSymbolTableRecord
100
AcDbLinetypeTableRecord
  2
BYBLOCK
 70
     0
  3

 72
    65
 73
     0
 40
0.0
  0
LTYPE
  5
11
330
4
100
AcDbSymbolTableRecord
100
AcDbLinetypeTableRecord
  2
BYLAYER
 70
     0
  3

 72
    65
 73
     0
 40
0.0
  0
LTYPE
  5
12
330
4
100
AcDbSymbolTableRecord
100
AcDbLinetypeTableRecord
  2
CONTINUOUS
 70
     0
  3
Solid Line
 72
    65
 73
     0
 40
0.0
  0
LTYPE
  5
1392
330
4
100
AcDbSymbolTableRecord
100
AcDbLinetypeTableRecord
  2
CENTER2
 70
     0
  3
Center (.5x) ___ _ ___ _ ___ _ ___ _ ___ _ ___
 72
    65
 73
     4
 40
1.125
 49
0.75
 74
     0
 49
-0.125
 74
     0
 49
0.125
 74
     0
 49
-0.125
 74
     0
  0
ENDTAB
  0
TABLE
  2
LAYER
  5
2
330
0
100
AcDbSymbolTable
 70
     4
  0
LAYER
  5
1317
102
{ACAD_XDICTIONARY
360
13A1
102
}
330
2
100
AcDbSymbolTableRecord
100
AcDbLayerTableRecord
  2
0
 70
     0
 62
     7
  6
CONTINUOUS
370
    -3
390
131F
347
1331
348
0
  0
LAYER
  5
1318
102
{ACAD_XDICTIONARY
360
13A3
102
}
330
2
100
AcDbSymbolTableRecord
100
AcDbLayerTableRecord
  2
PKG_OUTLINE
 70
     0
 62
    81
  6
CONTINUOUS
370
    -3
390
131F
347
1331
348
0
  0
LAYER
  5
1319
102
{ACAD_XDICTIONARY
360
13A5
102
}
330
2
100
AcDbSymbolTableRecord
100
AcDbLayerTableRecord
  2
PLACEMENT_OUTLINES_BTM
 70
     0
 62
   222
  6
CONTINUOUS
370
    -3
390
131F
347
1331
348
0
  0
LAYER
  5
131A
102
{ACAD_XDICTIONARY
360
13A7
102
}
330
2
100
AcDbSymbolTableRecord
100
AcDbLayerTableRecord
  2
SOLDERMASK_PADS_BTM
 70
     0
 62
   254
  6
CONTINUOUS
370
    -3
390
131F
347
1331
348
0
  0
ENDTAB
  0
TABLE
  2
STYLE
  5
3
330
0
100
AcDbSymbolTable
 70
     1
  0
STYLE
  5
131B
330
3
100
AcDbSymbolTableRecord
100
AcDbTextStyleTableRecord
  2
STANDARD
 70
     0
 40
0.0
 41
1.0
 50
0.0
 71
     0
 42
0.0
  3
txt
  4

  0
ENDTAB
  0
TABLE
  2
VIEW
  5
5
330
0
100
AcDbSymbolTable
 70
     0
  0
ENDTAB
  0
TABLE
  2
UCS
  5
6
330
0
100
AcDbSymbolTable
 70
     0
  0
ENDTAB
  0
TABLE
  2
APPID
  5
8
330
0
100
AcDbSymbolTable
 70
     3
  0
APPID
  5
14
330
8
100
AcDbSymbolTableRecord
100
AcDbRegAppTableRecord
  2
ACAD
 70
     0
  0
APPID
  5
1376
330
8
100
AcDbSymbolTableRecord
100
AcDbRegAppTableRecord
  2
DCO15
 70
     0
  0
APPID
  5
1378
330
8
100
AcDbSymbolTableRecord
100
AcDbRegAppTableRecord
  2
ACAD_NAV_VCDISPLAY
 70
     0
  0
ENDTAB
  0
TABLE
  2
DIMSTYLE
  5
9
330
0
100
AcDbSymbolTable
 70
     1
100
AcDbDimStyleTable
 71
     0
  0
DIMSTYLE
105
15
330
9
100
AcDbSymbolTableRecord
100
AcDbDimStyleTableRecord
  2
STANDARD
 70
     0
340
17
  0
ENDTAB
  0
TABLE
  2
BLOCK_RECORD
  5
1
330
0
100
AcDbSymbolTable
 70
     2
  0
BLOCK_RECORD
  5
A
102
{ACAD_XDICTIONARY
360
1383
102
}
330
1
100
AcDbSymbolTableRecord
100
AcDbBlockTableRecord
  2
*MODEL_SPACE
340
136F
 70
     0
280
     1
281
     0
  0
BLOCK_RECORD
  5
B
330
1
100
AcDbSymbolTableRecord
100
AcDbBlockTableRecord
  2
*PAPER_SPACE
340
1370
 70
     0
280
     1
281
     0
  0
BLOCK_RECORD
  5
138E
330
1
100
AcDbSymbolTableRecord
100
AcDbBlockTableRecord
  2
*U0
340
0
102
{BLKREFS
331
1391
102
}
 70
     0
280
     1
281
     0
  0
BLOCK_RECORD
  5
139B
330
1
100
AcDbSymbolTableRecord
100
AcDbBlockTableRecord
  2
*U1
340
0
102
{BLKREFS
331
139E
102
}
 70
     0
280
     1
281
     0
  0
ENDTAB
  0
ENDSEC
  0
SECTION
  2
BLOCKS
  0
BLOCK
  5
C
330
A
100
AcDbEntity
  8
0
100
AcDbBlockBegin
  2
*MODEL_SPACE
 70
     0
 10
0.0
 20
0.0
 30
0.0
  3
*MODEL_SPACE
  1

  0
ENDBLK
  5
D
330
A
100
AcDbEntity
  8
0
100
AcDbBlockEnd
  0
BLOCK
  5
E
330
B
100
AcDbEntity
 67
     1
  8
0
100
AcDbBlockBegin
  2
*PAPER_SPACE
 70
     0
 10
0.0
 20
0.0
 30
0.0
  3
*PAPER_SPACE
  1

  0
ENDBLK
  5
F
330
B
100
AcDbEntity
 67
     1
  8
0
100
AcDbBlockEnd
  0
BLOCK
  5
138F
330
138E
100
AcDbEntity
  8
0
100
AcDbBlockBegin
  2
*U0
 70
     1
 10
0.0
 20
0.0
 30
0.0
  3
*U0
  1

  0
LINE
  5
1394
330
138E
100
AcDbEntity
  8
0
  6
CENTER2
 62
     0
440
 16777216
100
AcDbLine
 10
-38750.12
 20
0.0
 30
0.0
 11
38750.12
 21
0.0
 31
0.0
  0
ENDBLK
  5
1390
330
138E
100
AcDbEntity
  8
0
100
AcDbBlockEnd
  0
BLOCK
  5
139C
330
139B
100
AcDbEntity
  8
0
100
AcDbBlockBegin
  2
*U1
 70
     1
 10
0.0
 20
0.0
 30
0.0
  3
*U1
  1

  0
LINE
  5
13A0
330
139B
100
AcDbEntity
  8
0
  6
CENTER2
 62
     0
440
 16777216
100
AcDbLine
 10
0.0
 20
-25000.12
 30
0.0
 11
0.0
 21
25000.12
 31
0.0
  0
ENDBLK
  5
139D
330
139B
100
AcDbEntity
  8
0
100
AcDbBlockEnd
  0
ENDSEC
  0
SECTION
  2
ENTITIES
  0
LWPOLYLINE
  5
1B
102
{ACAD_REACTORS
330
138B
330
138D
330
1398
330
139A
102
}
330
A
100
AcDbEntity
  8
PKG_OUTLINE
100
AcDbPolyline
 90
        4
 70
     1
 43
0.0
 10
-38750.0
 20
-25000.0
 91
        4
 10
-38750.0
 20
25000.0
 91
        1
 10
38750.0
 20
25000.0
 91
        2
 10
38750.0
 20
-25000.0
 91
        3
  0
LWPOLYLINE
  5
1C
330
A
100
AcDbEntity
  8
PLACEMENT_OUTLINES_BTM
100
AcDbPolyline
 90
        4
 70
     1
 43
0.0
 38
220.0
 10
-983.0
 20
-7350.0
 10
-983.0
 20
-6850.0
 10
219.0
 20
-6850.0
 10
219.0
 20
-7350.0
  0
LWPOLYLINE
  5
1D
330
A
100
AcDbEntity
  8
PLACEMENT_OUTLINES_BTM
100
AcDbPolyline
 90
        4
 70
     1
 43
0.0
 38
220.0
 10
4825.003999999999
 20
-5850.0
 10
4825.003999999999
 20
-5350.0
 10
6027.004
 20
-5350.0
 10
6027.004
 20
-5850.0
  0
LWPOLYLINE
  5
1E
330
A
100
AcDbEntity
  8
PLACEMENT_OUTLINES_BTM
100
AcDbPolyline
 90
        4
 70
     1
 43
0.0
 38
220.0
 10
4825.003999999999
 20
-4350.0
 10
4825.003999999999
 20
-3850.0
 10
6027.004
 20
-3850.0
 10
6027.004
 20
-4350.0
  0
LWPOLYLINE
  5
1F
330
A
100
AcDbEntity
  8
PLACEMENT_OUTLINES_BTM
100
AcDbPolyline
 90
        4
 70
     1
 43
0.0
 38
220.0
 10
4825.003999999999
 20
-2850.0
 10
4825.003999999999
 20
-2350.0
 10
6027.004
 20
-2350.0
 10
6027.004
 20
-2850.0
  0
LWPOLYLINE
  5
20
330
A
100
AcDbEntity
  8
PLACEMENT_OUTLINES_BTM
100
AcDbPolyline
 90
        4
 70
     1
 43
0.0
 38
220.0
 10
-5339.0
 20
-5451.995
 10
-5339.0
 20
-4951.995
 10
-4137.0
 20
-4951.995
 10
-4137.0
 20
-5451.995
  0
LWPOLYLINE
  5
21
330
A
100
AcDbEntity
  8
PLACEMENT_OUTLINES_BTM
100
AcDbPolyline
 90
        4
 70
     1
 43
0.0
 38
220.0
 10
-2435.0
 20
-5451.995
 10
-2435.0
 20
-4951.995
 10
-1233.0
 20
-4951.995
 10
-1233.0
 20
-5451.995
  0
LWPOLYLINE
  5
22
330
A
100
AcDbEntity
  8
PLACEMENT_OUTLINES_BTM
100
AcDbPolyline
 90
        4
 70
     1
 43
0.0
 38
220.0
 10
1921.0
 20
6800.0
 10
1921.0
 20
7300.0
 10
3123.0
 20
7300.0
 10
3123.0
 20
6800.0
  0
LWPOLYLINE
  5
23
330
A
100
AcDbEntity
  8
PLACEMENT_OUTLINES_BTM
100
AcDbPolyline
 90
        4
 70
     1
 43
0.0
 38
220.0
 10
-5339.0
 20
-1248.0
 10
-5339.0
 20
-748.0
 10
-4137.0
 20
-748.0
 10
-4137.0
 20
-1248.0
  0
LWPOLYLINE
  5
24
330
A
100
AcDbEntity
  8
PLACEMENT_OUTLINES_BTM
100
AcDbPolyline
 90
        4
 70
     1
 43
0.0
 38
220.0
 10
-5339.0
 20
1953.0
 10
-5339.0
 20
2453.0
 10
-4137.0
 20
2453.0
 10
-4137.0
 20
1953.0
  0
LWPOLYLINE
  5
25
330
A
100
AcDbEntity
  8
PLACEMENT_OUTLINES_BTM
100
AcDbPolyline
 90
        4
 70
     1
 43
0.0
 38
220.0
 10
-983.0
 20
-2396.0
 10
-983.0
 20
-1896.0
 10
219.0
 20
-1896.0
 10
219.0
 20
-2396.0
  0
LWPOLYLINE
  5
26
330
A
100
AcDbEntity
  8
PLACEMENT_OUTLINES_BTM
100
AcDbPolyline
 90
        4
 70
     1
 43
0.0
 38
220.0
 10
-5339.0
 20
4927.0
 10
-5339.0
 20
5427.0
 10
-4137.0
 20
5427.0
 10
-4137.0
 20
4927.0
  0
LWPOLYLINE
  5
27
330
A
100
AcDbEntity
  8
PLACEMENT_OUTLINES_BTM
100
AcDbPolyline
 90
        4
 70
     1
 43
0.0
 38
220.0
 10
-983.0
 20
805.0
 10
-983.0
 20
1305.0
 10
219.0
 20
1305.0
 10
219.0
 20
805.0
  0
LWPOLYLINE
  5
28
330
A
100
AcDbEntity
  8
PLACEMENT_OUTLINES_BTM
100
AcDbPolyline
 90
        4
 70
     1
 43
0.0
 38
220.0
 10
-5339.0
 20
6850.0
 10
-5339.0
 20
7350.0
 10
-4137.0
 20
7350.0
 10
-4137.0
 20
6850.0
  0
LWPOLYLINE
  5
29
330
A
100
AcDbEntity
  8
PLACEMENT_OUTLINES_BTM
100
AcDbPolyline
 90
        4
 70
     1
 43
0.0
 38
220.0
 10
-983.0
 20
3779.0
 10
-983.0
 20
4279.0
 10
219.0
 20
4279.0
 10
219.0
 20
3779.0
  0
LWPOLYLINE
  5
2A
330
A
100
AcDbEntity
  8
PLACEMENT_OUTLINES_BTM
100
AcDbPolyline
 90
        4
 70
     1
 43
0.0
 38
220.0
 10
-8243.0
 20
-2850.0
 10
-8243.0
 20
-2350.0
 10
-7041.0
 20
-2350.0
 10
-7041.0
 20
-2850.0
  0
LWPOLYLINE
  5
2B
330
A
100
AcDbEntity
  8
PLACEMENT_OUTLINES_BTM
100
AcDbPolyline
 90
        4
 70
     1
 43
0.0
 38
220.0
 10
-983.0
 20
6100.0
 10
-983.0
 20
6600.0
 10
219.0
 20
6600.0
 10
219.0
 20
6100.0
  0
LWPOLYLINE
  5
2C
330
A
100
AcDbEntity
  8
PLACEMENT_OUTLINES_BTM
100
AcDbPolyline
 90
        4
 70
     1
 43
0.0
 38
220.0
 10
-1327.0
 20
7600.0
 10
-1327.0
 20
8100.0
 10
-125.0
 20
8100.0
 10
-125.0
 20
7600.0
  0
LWPOLYLINE
  5
2D
330
A
100
AcDbEntity
  8
PLACEMENT_OUTLINES_BTM
100
AcDbPolyline
 90
        4
 70
     1
 43
0.0
 38
220.0
 10
6277.0
 20
4625.0
 10
6277.0
 20
5125.0
 10
7479.0
 20
5125.0
 10
7479.0
 20
4625.0
  0
LWPOLYLINE
  5
2E
330
A
100
AcDbEntity
  8
PLACEMENT_OUTLINES_BTM
100
AcDbPolyline
 90
        4
 70
     1
 43
0.0
 38
220.0
 10
468.998
 20
-3453.995
 10
468.998
 20
-2953.995
 10
1670.998
 20
-2953.995
 10
1670.998
 20
-3453.995
  0
LWPOLYLINE
  5
2F
330
A
100
AcDbEntity
  8
PLACEMENT_OUTLINES_BTM
100
AcDbPolyline
 90
        4
 70
     1
 43
0.0
 38
220.0
 10
6277.0
 20
7600.0
 10
6277.0
 20
8100.0
 10
7479.0
 20
8100.0
 10
7479.0
 20
7600.0
  0
LWPOLYLINE
  5
30
330
A
100
AcDbEntity
  8
PLACEMENT_OUTLINES_BTM
100
AcDbPolyline
 90
        4
 70
     1
 43
0.0
 38
220.0
 10
6277.0
 20
-2600.0
 10
6277.0
 20
-2100.0
 10
7479.0
 20
-2100.0
 10
7479.0
 20
-2600.0
  0
LWPOLYLINE
  5
31
330
A
100
AcDbEntity
  8
PLACEMENT_OUTLINES_BTM
100
AcDbPolyline
 90
        4
 70
     1
 43
0.0
 38
220.0
 10
3373.002
 20
6050.0
 10
3373.002
 20
6550.0
 10
4575.002
 20
6550.0
 10
4575.002
 20
6050.0
  0
LWPOLYLINE
  5
32
330
A
100
AcDbEntity
  8
PLACEMENT_OUTLINES_BTM
100
AcDbPolyline
 90
        4
 70
     1
 43
0.0
 38
220.0
 10
3373.002
 20
-7350.0
 10
3373.002
 20
-6850.0
 10
4575.002
 20
-6850.0
 10
4575.002
 20
-7350.0
  0
LWPOLYLINE
  5
33
330
A
100
AcDbEntity
  8
PLACEMENT_OUTLINES_BTM
100
AcDbPolyline
 90
        4
 70
     1
 43
0.0
 38
220.0
 10
3029.0
 20
7600.0
 10
3029.0
 20
8100.0
 10
4231.0
 20
8100.0
 10
4231.0
 20
7600.0
  0
LWPOLYLINE
  5
34
330
A
100
AcDbEntity
  8
PLACEMENT_OUTLINES_BTM
100
AcDbPolyline
 90
        4
 70
     1
 43
0.0
 38
220.0
 10
6277.0
 20
-6350.0
 10
6277.0
 20
-5850.0
 10
7479.0
 20
-5850.0
 10
7479.0
 20
-6350.0
  0
LWPOLYLINE
  5
35
330
A
100
AcDbEntity
  8
PLACEMENT_OUTLINES_BTM
100
AcDbPolyline
 90
        4
 70
     1
 43
0.0
 38
220.0
 10
6277.0
 20
1150.0
 10
6277.0
 20
1650.0
 10
7479.0
 20
1650.0
 10
7479.0
 20
1150.0
  0
LWPOLYLINE
  5
36
330
A
100
AcDbEntity
  8
PLACEMENT_OUTLINES_BTM
100
AcDbPolyline
 90
        4
 70
     1
 43
0.0
 38
220.0
 10
-2435.0
 20
-8100.0
 10
-2435.0
 20
-7600.0
 10
-1233.0
 20
-7600.0
 10
-1233.0
 20
-8100.0
  0
LWPOLYLINE
  5
37
330
A
100
AcDbEntity
  8
PLACEMENT_OUTLINES_BTM
100
AcDbPolyline
 90
        4
 70
     1
 43
0.0
 38
220.0
 10
6277.0
 20
-4850.0
 10
6277.0
 20
-4350.0
 10
7479.0
 20
-4350.0
 10
7479.0
 20
-4850.0
  0
LWPOLYLINE
  5
38
330
A
100
AcDbEntity
  8
PLACEMENT_OUTLINES_BTM
100
AcDbPolyline
 90
        4
 70
     1
 43
0.0
 38
220.0
 10
3373.002
 20
-3453.995
 10
3373.002
 20
-2953.995
 10
4575.002
 20
-2953.995
 10
4575.002
 20
-3453.995
  0
LWPOLYLINE
  5
39
330
A
100
AcDbEntity
  8
PLACEMENT_OUTLINES_BTM
100
AcDbPolyline
 90
        4
 70
     1
 43
0.0
 38
220.0
 10
-6791.0
 20
-1248.0
 10
-6791.0
 20
-748.0
 10
-5589.0
 20
-748.0
 10
-5589.0
 20
-1248.0
  0
LWPOLYLINE
  5
3A
330
A
100
AcDbEntity
  8
PLACEMENT_OUTLINES_BTM
100
AcDbPolyline
 90
        4
 70
     1
 43
0.0
 38
220.0
 10
-6791.0
 20
1953.0
 10
-6791.0
 20
2453.0
 10
-5589.0
 20
2453.0
 10
-5589.0
 20
1953.0
  0
LWPOLYLINE
  5
3B
330
A
100
AcDbEntity
  8
PLACEMENT_OUTLINES_BTM
100
AcDbPolyline
 90
        4
 70
     1
 43
0.0
 38
220.0
 10
6277.0
 20
3875.0
 10
6277.0
 20
4375.0
 10
7479.0
 20
4375.0
 10
7479.0
 20
3875.0
  0
LWPOLYLINE
  5
3C
330
A
100
AcDbEntity
  8
PLACEMENT_OUTLINES_BTM
100
AcDbPolyline
 90
        4
 70
     1
 43
0.0
 38
220.0
 10
1921.0
 20
-3453.995
 10
1921.0
 20
-2953.995
 10
3123.0
 20
-2953.995
 10
3123.0
 20
-3453.995
  0
LWPOLYLINE
  5
3D
330
A
100
AcDbEntity
  8
PLACEMENT_OUTLINES_BTM
100
AcDbPolyline
 90
        4
 70
     1
 43
0.0
 38
220.0
 10
3373.002
 20
1953.0
 10
3373.002
 20
2453.0
 10
4575.002
 20
2453.0
 10
4575.002
 20
1953.0
  0
LWPOLYLINE
  5
3E
330
A
100
AcDbEntity
  8
PLACEMENT_OUTLINES_BTM
100
AcDbPolyline
 90
        4
 70
     1
 43
0.0
 38
220.0
 10
-6791.0
 20
-5451.995
 10
-6791.0
 20
-4951.995
 10
-5589.0
 20
-4951.995
 10
-5589.0
 20
-5451.995
  0
LWPOLYLINE
  5
3F
330
A
100
AcDbEntity
  8
PLACEMENT_OUTLINES_BTM
100
AcDbPolyline
 90
        4
 70
     1
 43
0.0
 38
220.0
 10
468.998
 20
-6600.0
 10
468.998
 20
-6100.0
 10
1670.998
 20
-6100.0
 10
1670.998
 20
-6600.0
  0
LWPOLYLINE
  5
40
330
A
100
AcDbEntity
  8
PLACEMENT_OUTLINES_BTM
100
AcDbPolyline
 90
        4
 70
     1
 43
0.0
 38
220.0
 10
-2435.0
 20
-7350.0
 10
-2435.0
 20
-6850.0
 10
-1233.0
 20
-6850.0
 10
-1233.0
 20
-7350.0
  0
LWPOLYLINE
  5
41
330
A
100
AcDbEntity
  8
PLACEMENT_OUTLINES_BTM
100
AcDbPolyline
 90
        4
 70
     1
 43
0.0
 38
220.0
 10
-2435.0
 20
-6600.0
 10
-2435.0
 20
-6100.0
 10
-1233.0
 20
-6100.0
 10
-1233.0
 20
-6600.0
  0
LWPOLYLINE
  5
42
330
A
100
AcDbEntity
  8
PLACEMENT_OUTLINES_BTM
100
AcDbPolyline
 90
        4
 70
     1
 43
0.0
 38
220.0
 10
4825.003999999999
 20
-8100.0
 10
4825.003999999999
 20
-7600.0
 10
6027.004
 20
-7600.0
 10
6027.004
 20
-8100.0
  0
LWPOLYLINE
  5
43
330
A
100
AcDbEntity
  8
PLACEMENT_OUTLINES_BTM
100
AcDbPolyline
 90
        4
 70
     1
 43
0.0
 38
220.0
 10
468.998
 20
-4303.999
 10
468.998
 20
-3803.999000000001
 10
1670.998
 20
-3803.999000000001
 10
1670.998
 20
-4303.999
  0
LWPOLYLINE
  5
44
330
A
100
AcDbEntity
  8
PLACEMENT_OUTLINES_BTM
100
AcDbPolyline
 90
        4
 70
     1
 43
0.0
 38
220.0
 10
-3887.0
 20
-1248.0
 10
-3887.0
 20
-748.0
 10
-2685.0
 20
-748.0
 10
-2685.0
 20
-1248.0
  0
LWPOLYLINE
  5
45
330
A
100
AcDbEntity
  8
PLACEMENT_OUTLINES_BTM
100
AcDbPolyline
 90
        4
 70
     1
 43
0.0
 38
220.0
 10
-3887.0
 20
1953.0
 10
-3887.0
 20
2453.0
 10
-2685.0
 20
2453.0
 10
-2685.0
 20
1953.0
  0
LWPOLYLINE
  5
46
330
A
100
AcDbEntity
  8
PLACEMENT_OUTLINES_BTM
100
AcDbPolyline
 90
        4
 70
     1
 43
0.0
 38
220.0
 10
-8243.0
 20
-2100.0
 10
-8243.0
 20
-1600.0
 10
-7041.0
 20
-1600.0
 10
-7041.0
 20
-2100.0
  0
LWPOLYLINE
  5
47
330
A
100
AcDbEntity
  8
PLACEMENT_OUTLINES_BTM
100
AcDbPolyline
 90
        4
 70
     1
 43
0.0
 38
220.0
 10
-3887.0
 20
4927.0
 10
-3887.0
 20
5427.0
 10
-2685.0
 20
5427.0
 10
-2685.0
 20
4927.0
  0
LWPOLYLINE
  5
48
330
A
100
AcDbEntity
  8
PLACEMENT_OUTLINES_BTM
100
AcDbPolyline
 90
        4
 70
     1
 43
0.0
 38
220.0
 10
-3887.0
 20
6850.0
 10
-3887.0
 20
7350.0
 10
-2685.0
 20
7350.0
 10
-2685.0
 20
6850.0
  0
LWPOLYLINE
  5
49
330
A
100
AcDbEntity
  8
PLACEMENT_OUTLINES_BTM
100
AcDbPolyline
 90
        4
 70
     1
 43
0.0
 38
220.0
 10
6277.0
 20
-1850.0
 10
6277.0
 20
-1350.0
 10
7479.0
 20
-1350.0
 10
7479.0
 20
-1850.0
  0
LWPOLYLINE
  5
4A
330
A
100
AcDbEntity
  8
PLACEMENT_OUTLINES_BTM
100
AcDbPolyline
 90
        4
 70
     1
 43
0.0
 38
220.0
 10
-8243.0
 20
4167.212999999999
 10
-8243.0
 20
4667.212999999999
 10
-7041.0
 20
4667.212999999999
 10
-7041.0
 20
4167.212999999999
  0
LWPOLYLINE
  5
4B
330
A
100
AcDbEntity
  8
PLACEMENT_OUTLINES_BTM
100
AcDbPolyline
 90
        4
 70
     1
 43
0.0
 38
220.0
 10
6277.0
 20
-350.0
 10
6277.0
 20
150.0
 10
7479.0
 20
150.0
 10
7479.0
 20
-350.0
  0
LWPOLYLINE
  5
4C
330
A
100
AcDbEntity
  8
PLACEMENT_OUTLINES_BTM
100
AcDbPolyline
 90
        4
 70
     1
 43
0.0
 38
220.0
 10
-8243.0
 20
1167.213
 10
-8243.0
 20
1667.213
 10
-7041.0
 20
1667.213
 10
-7041.0
 20
1167.213
  0
LWPOLYLINE
  5
4D
330
A
100
AcDbEntity
  8
PLACEMENT_OUTLINES_BTM
100
AcDbPolyline
 90
        4
 70
     1
 43
0.0
 38
220.0
 10
-983.0
 20
-8100.0
 10
-983.0
 20
-7600.0
 10
219.0
 20
-7600.0
 10
219.0
 20
-8100.0
  0
LWPOLYLINE
  5
4E
330
A
100
AcDbEntity
  8
PLACEMENT_OUTLINES_BTM
100
AcDbPolyline
 90
        4
 70
     1
 43
0.0
 38
220.0
 10
4825.003999999999
 20
-6600.0
 10
4825.003999999999
 20
-6100.0
 10
6027.004
 20
-6100.0
 10
6027.004
 20
-6600.0
  0
LWPOLYLINE
  5
4F
330
A
100
AcDbEntity
  8
PLACEMENT_OUTLINES_BTM
100
AcDbPolyline
 90
        4
 70
     1
 43
0.0
 38
220.0
 10
-983.0
 20
-6600.0
 10
-983.0
 20
-6100.0
 10
219.0
 20
-6100.0
 10
219.0
 20
-6600.0
  0
LWPOLYLINE
  5
50
330
A
100
AcDbEntity
  8
PLACEMENT_OUTLINES_BTM
100
AcDbPolyline
 90
        4
 70
     1
 43
0.0
 38
220.0
 10
-5339.0
 20
-3453.995
 10
-5339.0
 20
-2953.995
 10
-4137.0
 20
-2953.995
 10
-4137.0
 20
-3453.995
  0
LWPOLYLINE
  5
51
330
A
100
AcDbEntity
  8
PLACEMENT_OUTLINES_BTM
100
AcDbPolyline
 90
        4
 70
     1
 43
0.0
 38
220.0
 10
-983.0
 20
-4303.999
 10
-983.0
 20
-3803.999000000001
 10
219.0
 20
-3803.999000000001
 10
219.0
 20
-4303.999
  0
LWPOLYLINE
  5
52
330
A
100
AcDbEntity
  8
PLACEMENT_OUTLINES_BTM
100
AcDbPolyline
 90
        4
 70
     1
 43
0.0
 38
220.0
 10
-2435.0
 20
-1248.0
 10
-2435.0
 20
-748.0
 10
-1233.0
 20
-748.0
 10
-1233.0
 20
-1248.0
  0
LWPOLYLINE
  5
53
330
A
100
AcDbEntity
  8
PLACEMENT_OUTLINES_BTM
100
AcDbPolyline
 90
        4
 70
     1
 43
0.0
 38
220.0
 10
-2435.0
 20
1953.0
 10
-2435.0
 20
2453.0
 10
-1233.0
 20
2453.0
 10
-1233.0
 20
1953.0
  0
LWPOLYLINE
  5
54
330
A
100
AcDbEntity
  8
PLACEMENT_OUTLINES_BTM
100
AcDbPolyline
 90
        4
 70
     1
 43
0.0
 38
220.0
 10
-2435.0
 20
4927.0
 10
-2435.0
 20
5427.0
 10
-1233.0
 20
5427.0
 10
-1233.0
 20
4927.0
  0
LWPOLYLINE
  5
55
330
A
100
AcDbEntity
  8
PLACEMENT_OUTLINES_BTM
100
AcDbPolyline
 90
        4
 70
     1
 43
0.0
 38
220.0
 10
4825.003999999999
 20
150.0
 10
4825.003999999999
 20
650.0
 10
6027.004
 20
650.0
 10
6027.004
 20
150.0
  0
LWPOLYLINE
  5
56
330
A
100
AcDbEntity
  8
PLACEMENT_OUTLINES_BTM
100
AcDbPolyline
 90
        4
 70
     1
 43
0.0
 38
220.0
 10
-2435.0
 20
6850.0
 10
-2435.0
 20
7350.0
 10
-1233.0
 20
7350.0
 10
-1233.0
 20
6850.0
  0
LWPOLYLINE
  5
57
330
A
100
AcDbEntity
  8
PLACEMENT_OUTLINES_BTM
100
AcDbPolyline
 90
        4
 70
     1
 43
0.0
 38
220.0
 10
-6791.0
 20
6850.0
 10
-6791.0
 20
7350.0
 10
-5589.0
 20
7350.0
 10
-5589.0
 20
6850.0
  0
LWPOLYLINE
  5
58
330
A
100
AcDbEntity
  8
PLACEMENT_OUTLINES_BTM
100
AcDbPolyline
 90
        4
 70
     1
 43
0.0
 38
220.0
 10
-8243.0
 20
-6600.0
 10
-8243.0
 20
-6100.0
 10
-7041.0
 20
-6100.0
 10
-7041.0
 20
-6600.0
  0
LWPOLYLINE
  5
59
330
A
100
AcDbEntity
  8
PLACEMENT_OUTLINES_BTM
100
AcDbPolyline
 90
        4
 70
     1
 43
0.0
 38
220.0
 10
6277.0
 20
-3350.0
 10
6277.0
 20
-2850.0
 10
7479.0
 20
-2850.0
 10
7479.0
 20
-3350.0
  0
LWPOLYLINE
  5
5A
330
A
100
AcDbEntity
  8
PLACEMENT_OUTLINES_BTM
100
AcDbPolyline
 90
        4
 70
     1
 43
0.0
 38
220.0
 10
-6791.0
 20
-8100.0
 10
-6791.0
 20
-7600.0
 10
-5589.0
 20
-7600.0
 10
-5589.0
 20
-8100.0
  0
LWPOLYLINE
  5
5B
330
A
100
AcDbEntity
  8
PLACEMENT_OUTLINES_BTM
100
AcDbPolyline
 90
        4
 70
     1
 43
0.0
 38
220.0
 10
-6791.0
 20
-6600.0
 10
-6791.0
 20
-6100.0
 10
-5589.0
 20
-6100.0
 10
-5589.0
 20
-6600.0
  0
LWPOLYLINE
  5
5C
330
A
100
AcDbEntity
  8
PLACEMENT_OUTLINES_BTM
100
AcDbPolyline
 90
        4
 70
     1
 43
0.0
 38
220.0
 10
-6791.0
 20
6100.0
 10
-6791.0
 20
6600.0
 10
-5589.0
 20
6600.0
 10
-5589.0
 20
6100.0
  0
LWPOLYLINE
  5
5E
330
A
100
AcDbEntity
  8
PLACEMENT_OUTLINES_BTM
100
AcDbPolyline
 90
        4
 70
     1
 43
0.0
 38
220.0
 10
1921.0
 20
-7350.0
 10
1921.0
 20
-6850.0
 10
3123.0
 20
-6850.0
 10
3123.0
 20
-7350.0
  0
LWPOLYLINE
  5
5F
330
A
100
AcDbEntity
  8
PLACEMENT_OUTLINES_BTM
100
AcDbPolyline
 90
        4
 70
     1
 43
0.0
 38
220.0
 10
3373.002
 20
-6600.0
 10
3373.002
 20
-6100.0
 10
4575.002
 20
-6100.0
 10
4575.002
 20
-6600.0
  0
LWPOLYLINE
  5
60
330
A
100
AcDbEntity
  8
PLACEMENT_OUTLINES_BTM
100
AcDbPolyline
 90
        4
 70
     1
 43
0.0
 38
220.0
 10
3373.002
 20
-8100.0
 10
3373.002
 20
-7600.0
 10
4575.002
 20
-7600.0
 10
4575.002
 20
-8100.0
  0
LWPOLYLINE
  5
61
330
A
100
AcDbEntity
  8
PLACEMENT_OUTLINES_BTM
100
AcDbPolyline
 90
        4
 70
     1
 43
0.0
 38
220.0
 10
4825.003999999999
 20
-2100.0
 10
4825.003999999999
 20
-1600.0
 10
6027.004
 20
-1600.0
 10
6027.004
 20
-2100.0
  0
LWPOLYLINE
  5
62
330
A
100
AcDbEntity
  8
PLACEMENT_OUTLINES_BTM
100
AcDbPolyline
 90
        4
 70
     1
 43
0.0
 38
220.0
 10
4825.003999999999
 20
-5100.0
 10
4825.003999999999
 20
-4600.0
 10
6027.004
 20
-4600.0
 10
6027.004
 20
-5100.0
  0
LWPOLYLINE
  5
63
330
A
100
AcDbEntity
  8
PLACEMENT_OUTLINES_BTM
100
AcDbPolyline
 90
        4
 70
     1
 43
0.0
 38
220.0
 10
4825.003999999999
 20
-3600.0
 10
4825.003999999999
 20
-3100.0
 10
6027.004
 20
-3100.0
 10
6027.004
 20
-3600.0
  0
LWPOLYLINE
  5
64
330
A
100
AcDbEntity
  8
PLACEMENT_OUTLINES_BTM
100
AcDbPolyline
 90
        4
 70
     1
 43
0.0
 38
220.0
 10
1921.0
 20
-2396.0
 10
1921.0
 20
-1896.0
 10
3123.0
 20
-1896.0
 10
3123.0
 20
-2396.0
  0
LWPOLYLINE
  5
65
330
A
100
AcDbEntity
  8
PLACEMENT_OUTLINES_BTM
100
AcDbPolyline
 90
        4
 70
     1
 43
0.0
 38
220.0
 10
1921.0
 20
805.0
 10
1921.0
 20
1305.0
 10
3123.0
 20
1305.0
 10
3123.0
 20
805.0
  0
LWPOLYLINE
  5
66
330
A
100
AcDbEntity
  8
PLACEMENT_OUTLINES_BTM
100
AcDbPolyline
 90
        4
 70
     1
 43
0.0
 38
220.0
 10
-8243.0
 20
5667.213000000001
 10
-8243.0
 20
6167.213000000001
 10
-7041.0
 20
6167.213000000001
 10
-7041.0
 20
5667.213000000001
  0
LWPOLYLINE
  5
67
330
A
100
AcDbEntity
  8
PLACEMENT_OUTLINES_BTM
100
AcDbPolyline
 90
        4
 70
     1
 43
0.0
 38
220.0
 10
-983.0
 20
-1248.0
 10
-983.0
 20
-748.0
 10
219.0
 20
-748.0
 10
219.0
 20
-1248.0
  0
LWPOLYLINE
  5
68
330
A
100
AcDbEntity
  8
PLACEMENT_OUTLINES_BTM
100
AcDbPolyline
 90
        4
 70
     1
 43
0.0
 38
220.0
 10
-983.0
 20
1953.0
 10
-983.0
 20
2453.0
 10
219.0
 20
2453.0
 10
219.0
 20
1953.0
  0
LWPOLYLINE
  5
69
330
A
100
AcDbEntity
  8
PLACEMENT_OUTLINES_BTM
100
AcDbPolyline
 90
        4
 70
     1
 43
0.0
 38
220.0
 10
-983.0
 20
4927.0
 10
-983.0
 20
5427.0
 10
219.0
 20
5427.0
 10
219.0
 20
4927.0
  0
LWPOLYLINE
  5
6A
330
A
100
AcDbEntity
  8
PLACEMENT_OUTLINES_BTM
100
AcDbPolyline
 90
        4
 70
     1
 43
0.0
 38
220.0
 10
4825.003999999999
 20
-600.0
 10
4825.003999999999
 20
-100.0
 10
6027.004
 20
-100.0
 10
6027.004
 20
-600.0
  0
LWPOLYLINE
  5
6B
330
A
100
AcDbEntity
  8
PLACEMENT_OUTLINES_BTM
100
AcDbPolyline
 90
        4
 70
     1
 43
0.0
 38
220.0
 10
-983.0
 20
6850.0
 10
-983.0
 20
7350.0
 10
219.0
 20
7350.0
 10
219.0
 20
6850.0
  0
LWPOLYLINE
  5
6C
330
A
100
AcDbEntity
  8
PLACEMENT_OUTLINES_BTM
100
AcDbPolyline
 90
        4
 70
     1
 43
0.0
 38
220.0
 10
3373.002
 20
4877.0
 10
3373.002
 20
5377.0
 10
4575.002
 20
5377.0
 10
4575.002
 20
4877.0
  0
LWPOLYLINE
  5
6D
330
A
100
AcDbEntity
  8
PLACEMENT_OUTLINES_BTM
100
AcDbPolyline
 90
        4
 70
     1
 43
0.0
 38
220.0
 10
3373.002
 20
6800.0
 10
3373.002
 20
7300.0
 10
4575.002
 20
7300.0
 10
4575.002
 20
6800.0
  0
LWPOLYLINE
  5
6E
330
A
100
AcDbEntity
  8
PLACEMENT_OUTLINES_BTM
100
AcDbPolyline
 90
        4
 70
     1
 43
0.0
 38
220.0
 10
-3887.0
 20
-4303.999
 10
-3887.0
 20
-3803.999000000001
 10
-2685.0
 20
-3803.999000000001
 10
-2685.0
 20
-4303.999
  0
LWPOLYLINE
  5
6F
330
A
100
AcDbEntity
  8
PLACEMENT_OUTLINES_BTM
100
AcDbPolyline
 90
        4
 70
     1
 43
0.0
 38
220.0
 10
-3887.0
 20
-5451.995
 10
-3887.0
 20
-4951.995
 10
-2685.0
 20
-4951.995
 10
-2685.0
 20
-5451.995
  0
LWPOLYLINE
  5
70
330
A
100
AcDbEntity
  8
PLACEMENT_OUTLINES_BTM
100
AcDbPolyline
 90
        4
 70
     1
 43
0.0
 38
220.0
 10
-8243.0
 20
-7350.0
 10
-8243.0
 20
-6850.0
 10
-7041.0
 20
-6850.0
 10
-7041.0
 20
-7350.0
  0
LWPOLYLINE
  5
71
330
A
100
AcDbEntity
  8
PLACEMENT_OUTLINES_BTM
100
AcDbPolyline
 90
        4
 70
     1
 43
0.0
 38
220.0
 10
-6791.0
 20
-4303.999
 10
-6791.0
 20
-3803.999000000001
 10
-5589.0
 20
-3803.999000000001
 10
-5589.0
 20
-4303.999
  0
LWPOLYLINE
  5
72
330
A
100
AcDbEntity
  8
PLACEMENT_OUTLINES_BTM
100
AcDbPolyline
 90
        4
 70
     1
 43
0.0
 38
220.0
 10
-6791.0
 20
805.0
 10
-6791.0
 20
1305.0
 10
-5589.0
 20
1305.0
 10
-5589.0
 20
805.0
  0
LWPOLYLINE
  5
73
330
A
100
AcDbEntity
  8
PLACEMENT_OUTLINES_BTM
100
AcDbPolyline
 90
        4
 70
     1
 43
0.0
 38
220.0
 10
-6791.0
 20
3779.0
 10
-6791.0
 20
4279.0
 10
-5589.0
 20
4279.0
 10
-5589.0
 20
3779.0
  0
LWPOLYLINE
  5
74
330
A
100
AcDbEntity
  8
PLACEMENT_OUTLINES_BTM
100
AcDbPolyline
 90
        4
 70
     1
 43
0.0
 38
220.0
 10
-3887.0
 20
-8100.0
 10
-3887.0
 20
-7600.0
 10
-2685.0
 20
-7600.0
 10
-2685.0
 20
-8100.0
  0
LWPOLYLINE
  5
75
330
A
100
AcDbEntity
  8
PLACEMENT_OUTLINES_BTM
100
AcDbPolyline
 90
        4
 70
     1
 43
0.0
 38
220.0
 10
3373.002
 20
3779.0
 10
3373.002
 20
4279.0
 10
4575.002
 20
4279.0
 10
4575.002
 20
3779.0
  0
LWPOLYLINE
  5
76
330
A
100
AcDbEntity
  8
PLACEMENT_OUTLINES_BTM
100
AcDbPolyline
 90
        4
 70
     1
 43
0.0
 38
220.0
 10
-983.0
 20
-5451.995
 10
-983.0
 20
-4951.995
 10
219.0
 20
-4951.995
 10
219.0
 20
-5451.995
  0
LWPOLYLINE
  5
77
330
A
100
AcDbEntity
  8
PLACEMENT_OUTLINES_BTM
100
AcDbPolyline
 90
        4
 70
     1
 43
0.0
 38
220.0
 10
-5339.0
 20
-7350.0
 10
-5339.0
 20
-6850.0
 10
-4137.0
 20
-6850.0
 10
-4137.0
 20
-7350.0
  0
LWPOLYLINE
  5
78
330
A
100
AcDbEntity
  8
PLACEMENT_OUTLINES_BTM
100
AcDbPolyline
 90
        4
 70
     1
 43
0.0
 38
220.0
 10
4825.003999999999
 20
-7350.0
 10
4825.003999999999
 20
-6850.0
 10
6027.004
 20
-6850.0
 10
6027.004
 20
-7350.0
  0
LWPOLYLINE
  5
79
330
A
100
AcDbEntity
  8
PLACEMENT_OUTLINES_BTM
100
AcDbPolyline
 90
        4
 70
     1
 43
0.0
 38
220.0
 10
1921.0
 20
-1248.0
 10
1921.0
 20
-748.0
 10
3123.0
 20
-748.0
 10
3123.0
 20
-1248.0
  0
LWPOLYLINE
  5
7A
330
A
100
AcDbEntity
  8
PLACEMENT_OUTLINES_BTM
100
AcDbPolyline
 90
        4
 70
     1
 43
0.0
 38
220.0
 10
1921.0
 20
1953.0
 10
1921.0
 20
2453.0
 10
3123.0
 20
2453.0
 10
3123.0
 20
1953.0
  0
LWPOLYLINE
  5
7B
330
A
100
AcDbEntity
  8
PLACEMENT_OUTLINES_BTM
100
AcDbPolyline
 90
        4
 70
     1
 43
0.0
 38
220.0
 10
-5683.0
 20
7600.0
 10
-5683.0
 20
8100.0
 10
-4481.0
 20
8100.0
 10
-4481.0
 20
7600.0
  0
LWPOLYLINE
  5
7C
330
A
100
AcDbEntity
  8
PLACEMENT_OUTLINES_BTM
100
AcDbPolyline
 90
        4
 70
     1
 43
0.0
 38
220.0
 10
3373.002
 20
-4303.999
 10
3373.002
 20
-3803.999000000001
 10
4575.002
 20
-3803.999000000001
 10
4575.002
 20
-4303.999
  0
LWPOLYLINE
  5
7D
330
A
100
AcDbEntity
  8
PLACEMENT_OUTLINES_BTM
100
AcDbPolyline
 90
        4
 70
     1
 43
0.0
 38
220.0
 10
468.998
 20
-1248.0
 10
468.998
 20
-748.0
 10
1670.998
 20
-748.0
 10
1670.998
 20
-1248.0
  0
LWPOLYLINE
  5
7E
330
A
100
AcDbEntity
  8
PLACEMENT_OUTLINES_BTM
100
AcDbPolyline
 90
        4
 70
     1
 43
0.0
 38
220.0
 10
468.998
 20
1953.0
 10
468.998
 20
2453.0
 10
1670.998
 20
2453.0
 10
1670.998
 20
1953.0
  0
LWPOLYLINE
  5
7F
330
A
100
AcDbEntity
  8
PLACEMENT_OUTLINES_BTM
100
AcDbPolyline
 90
        4
 70
     1
 43
0.0
 38
220.0
 10
-8243.0
 20
-5850.0
 10
-8243.0
 20
-5350.0
 10
-7041.0
 20
-5350.0
 10
-7041.0
 20
-5850.0
  0
LWPOLYLINE
  5
80
330
A
100
AcDbEntity
  8
PLACEMENT_OUTLINES_BTM
100
AcDbPolyline
 90
        4
 70
     1
 43
0.0
 38
220.0
 10
468.998
 20
4927.0
 10
468.998
 20
5427.0
 10
1670.998
 20
5427.0
 10
1670.998
 20
4927.0
  0
LWPOLYLINE
  5
81
330
A
100
AcDbEntity
  8
PLACEMENT_OUTLINES_BTM
100
AcDbPolyline
 90
        4
 70
     1
 43
0.0
 38
220.0
 10
468.998
 20
6850.0
 10
468.998
 20
7350.0
 10
1670.998
 20
7350.0
 10
1670.998
 20
6850.0
  0
LWPOLYLINE
  5
82
330
A
100
AcDbEntity
  8
PLACEMENT_OUTLINES_BTM
100
AcDbPolyline
 90
        4
 70
     1
 43
0.0
 38
220.0
 10
-3887.0
 20
-3453.995
 10
-3887.0
 20
-2953.995
 10
-2685.0
 20
-2953.995
 10
-2685.0
 20
-3453.995
  0
LWPOLYLINE
  5
83
330
A
100
AcDbEntity
  8
PLACEMENT_OUTLINES_BTM
100
AcDbPolyline
 90
        4
 70
     1
 43
0.0
 38
220.0
 10
-8243.0
 20
4917.213
 10
-8243.0
 20
5417.213000000001
 10
-7041.0
 20
5417.213000000001
 10
-7041.0
 20
4917.213
  0
LWPOLYLINE
  5
84
330
A
100
AcDbEntity
  8
PLACEMENT_OUTLINES_BTM
100
AcDbPolyline
 90
        4
 70
     1
 43
0.0
 38
220.0
 10
-8243.0
 20
-8100.0
 10
-8243.0
 20
-7600.0
 10
-7041.0
 20
-7600.0
 10
-7041.0
 20
-8100.0
  0
LWPOLYLINE
  5
85
330
A
100
AcDbEntity
  8
PLACEMENT_OUTLINES_BTM
100
AcDbPolyline
 90
        4
 70
     1
 43
0.0
 38
220.0
 10
3373.002
 20
-2396.0
 10
3373.002
 20
-1896.0
 10
4575.002
 20
-1896.0
 10
4575.002
 20
-2396.0
  0
LWPOLYLINE
  5
86
330
A
100
AcDbEntity
  8
PLACEMENT_OUTLINES_BTM
100
AcDbPolyline
 90
        4
 70
     1
 43
0.0
 38
220.0
 10
3373.002
 20
805.0
 10
3373.002
 20
1305.0
 10
4575.002
 20
1305.0
 10
4575.002
 20
805.0
  0
LWPOLYLINE
  5
87
330
A
100
AcDbEntity
  8
PLACEMENT_OUTLINES_BTM
100
AcDbPolyline
 90
        4
 70
     1
 43
0.0
 38
220.0
 10
468.998
 20
-8100.0
 10
468.998
 20
-7600.0
 10
1670.998
 20
-7600.0
 10
1670.998
 20
-8100.0
  0
LWPOLYLINE
  5
88
330
A
100
AcDbEntity
  8
PLACEMENT_OUTLINES_BTM
100
AcDbPolyline
 90
        4
 70
     1
 43
0.0
 38
220.0
 10
-6791.0
 20
4927.0
 10
-6791.0
 20
5427.0
 10
-5589.0
 20
5427.0
 10
-5589.0
 20
4927.0
  0
LWPOLYLINE
  5
89
330
A
100
AcDbEntity
  8
PLACEMENT_OUTLINES_BTM
100
AcDbPolyline
 90
        4
 70
     1
 43
0.0
 38
220.0
 10
-2435.0
 20
-3453.995
 10
-2435.0
 20
-2953.995
 10
-1233.0
 20
-2953.995
 10
-1233.0
 20
-3453.995
  0
LWPOLYLINE
  5
8A
330
A
100
AcDbEntity
  8
PLACEMENT_OUTLINES_BTM
100
AcDbPolyline
 90
        4
 70
     1
 43
0.0
 38
220.0
 10
1921.0
 20
-5451.995
 10
1921.0
 20
-4951.995
 10
3123.0
 20
-4951.995
 10
3123.0
 20
-5451.995
  0
LWPOLYLINE
  5
8C
330
A
100
AcDbEntity
  8
PLACEMENT_OUTLINES_BTM
100
AcDbPolyline
 90
        4
 70
     1
 43
0.0
 38
220.0
 10
-3887.0
 20
-7350.0
 10
-3887.0
 20
-6850.0
 10
-2685.0
 20
-6850.0
 10
-2685.0
 20
-7350.0
  0
LWPOLYLINE
  5
8D
330
A
100
AcDbEntity
  8
PLACEMENT_OUTLINES_BTM
100
AcDbPolyline
 90
        4
 70
     1
 43
0.0
 38
220.0
 10
-5339.0
 20
-6600.0
 10
-5339.0
 20
-6100.0
 10
-4137.0
 20
-6100.0
 10
-4137.0
 20
-6600.0
  0
LWPOLYLINE
  5
8E
330
A
100
AcDbEntity
  8
PLACEMENT_OUTLINES_BTM
100
AcDbPolyline
 90
        4
 70
     1
 43
0.0
 38
220.0
 10
1921.0
 20
3779.0
 10
1921.0
 20
4279.0
 10
3123.0
 20
4279.0
 10
3123.0
 20
3779.0
  0
LWPOLYLINE
  5
8F
330
A
100
AcDbEntity
  8
PLACEMENT_OUTLINES_BTM
100
AcDbPolyline
 90
        4
 70
     1
 43
0.0
 38
220.0
 10
-2435.0
 20
-4303.999
 10
-2435.0
 20
-3803.999000000001
 10
-1233.0
 20
-3803.999000000001
 10
-1233.0
 20
-4303.999
  0
LWPOLYLINE
  5
90
330
A
100
AcDbEntity
  8
PLACEMENT_OUTLINES_BTM
100
AcDbPolyline
 90
        4
 70
     1
 43
0.0
 38
220.0
 10
-5339.0
 20
805.0
 10
-5339.0
 20
1305.0
 10
-4137.0
 20
1305.0
 10
-4137.0
 20
805.0
  0
LWPOLYLINE
  5
91
330
A
100
AcDbEntity
  8
PLACEMENT_OUTLINES_BTM
100
AcDbPolyline
 90
        4
 70
     1
 43
0.0
 38
220.0
 10
-5339.0
 20
3779.0
 10
-5339.0
 20
4279.0
 10
-4137.0
 20
4279.0
 10
-4137.0
 20
3779.0
  0
LWPOLYLINE
  5
92
330
A
100
AcDbEntity
  8
PLACEMENT_OUTLINES_BTM
100
AcDbPolyline
 90
        4
 70
     1
 43
0.0
 38
220.0
 10
-8243.0
 20
-5100.0
 10
-8243.0
 20
-4600.0
 10
-7041.0
 20
-4600.0
 10
-7041.0
 20
-5100.0
  0
LWPOLYLINE
  5
93
330
A
100
AcDbEntity
  8
PLACEMENT_OUTLINES_BTM
100
AcDbPolyline
 90
        4
 70
     1
 43
0.0
 38
220.0
 10
-5339.0
 20
6100.0
 10
-5339.0
 20
6600.0
 10
-4137.0
 20
6600.0
 10
-4137.0
 20
6100.0
  0
LWPOLYLINE
  5
94
330
A
100
AcDbEntity
  8
PLACEMENT_OUTLINES_BTM
100
AcDbPolyline
 90
        4
 70
     1
 43
0.0
 38
220.0
 10
-5339.0
 20
-2396.0
 10
-5339.0
 20
-1896.0
 10
-4137.0
 20
-1896.0
 10
-4137.0
 20
-2396.0
  0
LWPOLYLINE
  5
95
330
A
100
AcDbEntity
  8
PLACEMENT_OUTLINES_BTM
100
AcDbPolyline
 90
        4
 70
     1
 43
0.0
 38
220.0
 10
-983.0
 20
-3453.995
 10
-983.0
 20
-2953.995
 10
219.0
 20
-2953.995
 10
219.0
 20
-3453.995
  0
LWPOLYLINE
  5
96
330
A
100
AcDbEntity
  8
PLACEMENT_OUTLINES_BTM
100
AcDbPolyline
 90
        4
 70
     1
 43
0.0
 38
220.0
 10
6277.0
 20
6850.0
 10
6277.0
 20
7350.0
 10
7479.0
 20
7350.0
 10
7479.0
 20
6850.0
  0
LWPOLYLINE
  5
97
330
A
100
AcDbEntity
  8
PLACEMENT_OUTLINES_BTM
100
AcDbPolyline
 90
        4
 70
     1
 43
0.0
 38
220.0
 10
6277.0
 20
-7100.0
 10
6277.0
 20
-6600.0
 10
7479.0
 20
-6600.0
 10
7479.0
 20
-7100.0
  0
LWPOLYLINE
  5
98
330
A
100
AcDbEntity
  8
PLACEMENT_OUTLINES_BTM
100
AcDbPolyline
 90
        4
 70
     1
 43
0.0
 38
220.0
 10
4825.003999999999
 20
-1350.0
 10
4825.003999999999
 20
-850.0
 10
6027.004
 20
-850.0
 10
6027.004
 20
-1350.0
  0
LWPOLYLINE
  5
99
330
A
100
AcDbEntity
  8
PLACEMENT_OUTLINES_BTM
100
AcDbPolyline
 90
        4
 70
     1
 43
0.0
 38
220.0
 10
6277.0
 20
1900.0
 10
6277.0
 20
2400.0
 10
7479.0
 20
2400.0
 10
7479.0
 20
1900.0
  0
LWPOLYLINE
  5
9A
330
A
100
AcDbEntity
  8
PLACEMENT_OUTLINES_BTM
100
AcDbPolyline
 90
        4
 70
     1
 43
0.0
 38
220.0
 10
6277.0
 20
-5600.0
 10
6277.0
 20
-5100.0
 10
7479.0
 20
-5100.0
 10
7479.0
 20
-5600.0
  0
LWPOLYLINE
  5
9B
330
A
100
AcDbEntity
  8
PLACEMENT_OUTLINES_BTM
100
AcDbPolyline
 90
        4
 70
     1
 43
0.0
 38
220.0
 10
1921.0
 20
-8100.0
 10
1921.0
 20
-7600.0
 10
3123.0
 20
-7600.0
 10
3123.0
 20
-8100.0
  0
LWPOLYLINE
  5
9C
330
A
100
AcDbEntity
  8
PLACEMENT_OUTLINES_BTM
100
AcDbPolyline
 90
        4
 70
     1
 43
0.0
 38
220.0
 10
468.998
 20
-5451.995
 10
468.998
 20
-4951.995
 10
1670.998
 20
-4951.995
 10
1670.998
 20
-5451.995
  0
LWPOLYLINE
  5
9D
330
A
100
AcDbEntity
  8
PLACEMENT_OUTLINES_BTM
100
AcDbPolyline
 90
        4
 70
     1
 43
0.0
 38
220.0
 10
1921.0
 20
-6600.0
 10
1921.0
 20
-6100.0
 10
3123.0
 20
-6100.0
 10
3123.0
 20
-6600.0
  0
LWPOLYLINE
  5
9E
330
A
100
AcDbEntity
  8
PLACEMENT_OUTLINES_BTM
100
AcDbPolyline
 90
        4
 70
     1
 43
0.0
 38
220.0
 10
-3887.0
 20
-6600.0
 10
-3887.0
 20
-6100.0
 10
-2685.0
 20
-6100.0
 10
-2685.0
 20
-6600.0
  0
LWPOLYLINE
  5
9F
330
A
100
AcDbEntity
  8
PLACEMENT_OUTLINES_BTM
100
AcDbPolyline
 90
        4
 70
     1
 43
0.0
 38
220.0
 10
1921.0
 20
4877.0
 10
1921.0
 20
5377.0
 10
3123.0
 20
5377.0
 10
3123.0
 20
4877.0
  0
LWPOLYLINE
  5
A0
330
A
100
AcDbEntity
  8
PLACEMENT_OUTLINES_BTM
100
AcDbPolyline
 90
        4
 70
     1
 43
0.0
 38
220.0
 10
-3887.0
 20
-2396.0
 10
-3887.0
 20
-1896.0
 10
-2685.0
 20
-1896.0
 10
-2685.0
 20
-2396.0
  0
LWPOLYLINE
  5
A1
330
A
100
AcDbEntity
  8
PLACEMENT_OUTLINES_BTM
100
AcDbPolyline
 90
        4
 70
     1
 43
0.0
 38
220.0
 10
-3887.0
 20
805.0
 10
-3887.0
 20
1305.0
 10
-2685.0
 20
1305.0
 10
-2685.0
 20
805.0
  0
LWPOLYLINE
  5
A2
330
A
100
AcDbEntity
  8
PLACEMENT_OUTLINES_BTM
100
AcDbPolyline
 90
        4
 70
     1
 43
0.0
 38
220.0
 10
-3887.0
 20
3779.0
 10
-3887.0
 20
4279.0
 10
-2685.0
 20
4279.0
 10
-2685.0
 20
3779.0
  0
LWPOLYLINE
  5
A3
330
A
100
AcDbEntity
  8
PLACEMENT_OUTLINES_BTM
100
AcDbPolyline
 90
        4
 70
     1
 43
0.0
 38
220.0
 10
-8243.0
 20
-4350.0
 10
-8243.0
 20
-3850.0
 10
-7041.0
 20
-3850.0
 10
-7041.0
 20
-4350.0
  0
LWPOLYLINE
  5
A4
330
A
100
AcDbEntity
  8
PLACEMENT_OUTLINES_BTM
100
AcDbPolyline
 90
        4
 70
     1
 43
0.0
 38
220.0
 10
-3887.0
 20
6100.0
 10
-3887.0
 20
6600.0
 10
-2685.0
 20
6600.0
 10
-2685.0
 20
6100.0
  0
LWPOLYLINE
  5
A5
330
A
100
AcDbEntity
  8
PLACEMENT_OUTLINES_BTM
100
AcDbPolyline
 90
        4
 70
     1
 43
0.0
 38
220.0
 10
-4231.0
 20
7600.0
 10
-4231.0
 20
8100.0
 10
-3029.0
 20
8100.0
 10
-3029.0
 20
7600.0
  0
LWPOLYLINE
  5
A6
330
A
100
AcDbEntity
  8
PLACEMENT_OUTLINES_BTM
100
AcDbPolyline
 90
        4
 70
     1
 43
0.0
 38
220.0
 10
6277.0
 20
-1100.0
 10
6277.0
 20
-600.0
 10
7479.0
 20
-600.0
 10
7479.0
 20
-1100.0
  0
LWPOLYLINE
  5
A7
330
A
100
AcDbEntity
  8
PLACEMENT_OUTLINES_BTM
100
AcDbPolyline
 90
        4
 70
     1
 43
0.0
 38
220.0
 10
6277.0
 20
400.0
 10
6277.0
 20
900.0
 10
7479.0
 20
900.0
 10
7479.0
 20
400.0
  0
LWPOLYLINE
  5
A8
330
A
100
AcDbEntity
  8
PLACEMENT_OUTLINES_BTM
100
AcDbPolyline
 90
        4
 70
     1
 43
0.0
 38
220.0
 10
468.998
 20
-7350.0
 10
468.998
 20
-6850.0
 10
1670.998
 20
-6850.0
 10
1670.998
 20
-7350.0
  0
LWPOLYLINE
  5
A9
330
A
100
AcDbEntity
  8
PLACEMENT_OUTLINES_BTM
100
AcDbPolyline
 90
        4
 70
     1
 43
0.0
 38
220.0
 10
-5339.0
 20
-4303.999
 10
-5339.0
 20
-3803.999000000001
 10
-4137.0
 20
-3803.999000000001
 10
-4137.0
 20
-4303.999
  0
LWPOLYLINE
  5
AA
330
A
100
AcDbEntity
  8
PLACEMENT_OUTLINES_BTM
100
AcDbPolyline
 90
        4
 70
     1
 43
0.0
 38
220.0
 10
1577.0
 20
7600.0
 10
1577.0
 20
8100.0
 10
2779.0
 20
8100.0
 10
2779.0
 20
7600.0
  0
LWPOLYLINE
  5
AB
330
A
100
AcDbEntity
  8
PLACEMENT_OUTLINES_BTM
100
AcDbPolyline
 90
        4
 70
     1
 43
0.0
 38
220.0
 10
1921.0
 20
-4303.999
 10
1921.0
 20
-3803.999000000001
 10
3123.0
 20
-3803.999000000001
 10
3123.0
 20
-4303.999
  0
LWPOLYLINE
  5
AC
330
A
100
AcDbEntity
  8
PLACEMENT_OUTLINES_BTM
100
AcDbPolyline
 90
        4
 70
     1
 43
0.0
 38
220.0
 10
1921.0
 20
6050.0
 10
1921.0
 20
6550.0
 10
3123.0
 20
6550.0
 10
3123.0
 20
6050.0
  0
LWPOLYLINE
  5
AD
330
A
100
AcDbEntity
  8
PLACEMENT_OUTLINES_BTM
100
AcDbPolyline
 90
        4
 70
     1
 43
0.0
 38
220.0
 10
468.998
 20
-2396.0
 10
468.998
 20
-1896.0
 10
1670.998
 20
-1896.0
 10
1670.998
 20
-2396.0
  0
LWPOLYLINE
  5
AE
330
A
100
AcDbEntity
  8
PLACEMENT_OUTLINES_BTM
100
AcDbPolyline
 90
        4
 70
     1
 43
0.0
 38
220.0
 10
3373.002
 20
-5451.995
 10
3373.002
 20
-4951.995
 10
4575.002
 20
-4951.995
 10
4575.002
 20
-5451.995
  0
LWPOLYLINE
  5
AF
330
A
100
AcDbEntity
  8
PLACEMENT_OUTLINES_BTM
100
AcDbPolyline
 90
        4
 70
     1
 43
0.0
 38
220.0
 10
468.998
 20
805.0
 10
468.998
 20
1305.0
 10
1670.998
 20
1305.0
 10
1670.998
 20
805.0
  0
LWPOLYLINE
  5
B0
330
A
100
AcDbEntity
  8
PLACEMENT_OUTLINES_BTM
100
AcDbPolyline
 90
        4
 70
     1
 43
0.0
 38
220.0
 10
-2435.0
 20
-2396.0
 10
-2435.0
 20
-1896.0
 10
-1233.0
 20
-1896.0
 10
-1233.0
 20
-2396.0
  0
LWPOLYLINE
  5
B1
330
A
100
AcDbEntity
  8
PLACEMENT_OUTLINES_BTM
100
AcDbPolyline
 90
        4
 70
     1
 43
0.0
 38
220.0
 10
468.998
 20
3779.0
 10
468.998
 20
4279.0
 10
1670.998
 20
4279.0
 10
1670.998
 20
3779.0
  0
LWPOLYLINE
  5
B2
330
A
100
AcDbEntity
  8
PLACEMENT_OUTLINES_BTM
100
AcDbPolyline
 90
        4
 70
     1
 43
0.0
 38
220.0
 10
-2435.0
 20
805.0
 10
-2435.0
 20
1305.0
 10
-1233.0
 20
1305.0
 10
-1233.0
 20
805.0
  0
LWPOLYLINE
  5
B3
330
A
100
AcDbEntity
  8
PLACEMENT_OUTLINES_BTM
100
AcDbPolyline
 90
        4
 70
     1
 43
0.0
 38
220.0
 10
468.998
 20
6100.0
 10
468.998
 20
6600.0
 10
1670.998
 20
6600.0
 10
1670.998
 20
6100.0
  0
LWPOLYLINE
  5
B4
330
A
100
AcDbEntity
  8
PLACEMENT_OUTLINES_BTM
100
AcDbPolyline
 90
        4
 70
     1
 43
0.0
 38
220.0
 10
-2435.0
 20
3779.0
 10
-2435.0
 20
4279.0
 10
-1233.0
 20
4279.0
 10
-1233.0
 20
3779.0
  0
LWPOLYLINE
  5
B5
330
A
100
AcDbEntity
  8
PLACEMENT_OUTLINES_BTM
100
AcDbPolyline
 90
        4
 70
     1
 43
0.0
 38
220.0
 10
-8243.0
 20
-3600.0
 10
-8243.0
 20
-3100.0
 10
-7041.0
 20
-3100.0
 10
-7041.0
 20
-3600.0
  0
LWPOLYLINE
  5
B6
330
A
100
AcDbEntity
  8
PLACEMENT_OUTLINES_BTM
100
AcDbPolyline
 90
        4
 70
     1
 43
0.0
 38
220.0
 10
125.0
 20
7600.0
 10
125.0
 20
8100.0
 10
1327.0
 20
8100.0
 10
1327.0
 20
7600.0
  0
LWPOLYLINE
  5
B7
330
A
100
AcDbEntity
  8
PLACEMENT_OUTLINES_BTM
100
AcDbPolyline
 90
        4
 70
     1
 43
0.0
 38
220.0
 10
-2435.0
 20
6100.0
 10
-2435.0
 20
6600.0
 10
-1233.0
 20
6600.0
 10
-1233.0
 20
6100.0
  0
LWPOLYLINE
  5
B8
330
A
100
AcDbEntity
  8
PLACEMENT_OUTLINES_BTM
100
AcDbPolyline
 90
        4
 70
     1
 43
0.0
 38
220.0
 10
-2779.0
 20
7600.0
 10
-2779.0
 20
8100.0
 10
-1577.0
 20
8100.0
 10
-1577.0
 20
7600.0
  0
LWPOLYLINE
  5
B9
330
A
100
AcDbEntity
  8
PLACEMENT_OUTLINES_BTM
100
AcDbPolyline
 90
        4
 70
     1
 43
0.0
 38
220.0
 10
-6791.0
 20
-2396.0
 10
-6791.0
 20
-1896.0
 10
-5589.0
 20
-1896.0
 10
-5589.0
 20
-2396.0
  0
LWPOLYLINE
  5
BA
330
A
100
AcDbEntity
  8
PLACEMENT_OUTLINES_BTM
100
AcDbPolyline
 90
        4
 70
     1
 43
0.0
 38
220.0
 10
-6791.0
 20
-3453.995
 10
-6791.0
 20
-2953.995
 10
-5589.0
 20
-2953.995
 10
-5589.0
 20
-3453.995
  0
LWPOLYLINE
  5
BB
330
A
100
AcDbEntity
  8
PLACEMENT_OUTLINES_BTM
100
AcDbPolyline
 90
        4
 70
     1
 43
0.0
 38
220.0
 10
-5339.0
 20
-8100.0
 10
-5339.0
 20
-7600.0
 10
-4137.0
 20
-7600.0
 10
-4137.0
 20
-8100.0
  0
LWPOLYLINE
  5
BC
330
A
100
AcDbEntity
  8
PLACEMENT_OUTLINES_BTM
100
AcDbPolyline
 90
        4
 70
     1
 43
0.0
 38
220.0
 10
3373.002
 20
-1248.0
 10
3373.002
 20
-748.0
 10
4575.002
 20
-748.0
 10
4575.002
 20
-1248.0
  0
LWPOLYLINE
  5
BD
330
A
100
AcDbEntity
  8
PLACEMENT_OUTLINES_BTM
100
AcDbPolyline
 90
        4
 70
     1
 43
0.0
 38
220.0
 10
6277.0
 20
-4100.0
 10
6277.0
 20
-3600.0
 10
7479.0
 20
-3600.0
 10
7479.0
 20
-4100.0
  0
LWPOLYLINE
  5
BE
330
A
100
AcDbEntity
  8
PLACEMENT_OUTLINES_BTM
100
AcDbPolyline
 90
        4
 70
     1
 43
0.0
 38
220.0
 10
-8243.0
 20
1917.213
 10
-8243.0
 20
2417.213
 10
-7041.0
 20
2417.213
 10
-7041.0
 20
1917.213
  0
LWPOLYLINE
  5
BF
330
A
100
AcDbEntity
  8
PLACEMENT_OUTLINES_BTM
100
AcDbPolyline
 90
        4
 70
     1
 43
0.0
 38
220.0
 10
-6791.0
 20
-7350.0
 10
-6791.0
 20
-6850.0
 10
-5589.0
 20
-6850.0
 10
-5589.0
 20
-7350.0
  0
LWPOLYLINE
  5
C0
330
A
100
AcDbEntity
  8
SOLDERMASK_PADS_BTM
100
AcDbPolyline
 90
        4
 70
     1
 43
0.0
 10
-157.0
 20
-7350.0
 10
-157.0
 20
-6850.0
 10
219.0
 20
-6850.0
 10
219.0
 20
-7350.0
  0
LWPOLYLINE
  5
C1
330
A
100
AcDbEntity
  8
SOLDERMASK_PADS_BTM
100
AcDbPolyline
 90
        4
 70
     1
 43
0.0
 10
-983.0
 20
-7350.0
 10
-983.0
 20
-6850.0
 10
-607.0
 20
-6850.0
 10
-607.0
 20
-7350.0
  0
LWPOLYLINE
  5
C2
330
A
100
AcDbEntity
  8
SOLDERMASK_PADS_BTM
100
AcDbPolyline
 90
        4
 70
     1
 43
0.0
 10
4825.003999999999
 20
-5850.0
 10
4825.003999999999
 20
-5350.0
 10
5201.004000000001
 20
-5350.0
 10
5201.004000000001
 20
-5850.0
  0
LWPOLYLINE
  5
C3
330
A
100
AcDbEntity
  8
SOLDERMASK_PADS_BTM
100
AcDbPolyline
 90
        4
 70
     1
 43
0.0
 10
5651.004
 20
-5850.0
 10
5651.004
 20
-5350.0
 10
6027.004
 20
-5350.0
 10
6027.004
 20
-5850.0
  0
LWPOLYLINE
  5
C4
330
A
100
AcDbEntity
  8
SOLDERMASK_PADS_BTM
100
AcDbPolyline
 90
        4
 70
     1
 43
0.0
 10
4825.003999999999
 20
-4350.0
 10
4825.003999999999
 20
-3850.0
 10
5201.004000000001
 20
-3850.0
 10
5201.004000000001
 20
-4350.0
  0
LWPOLYLINE
  5
C5
330
A
100
AcDbEntity
  8
SOLDERMASK_PADS_BTM
100
AcDbPolyline
 90
        4
 70
     1
 43
0.0
 10
5651.004
 20
-4350.0
 10
5651.004
 20
-3850.0
 10
6027.004
 20
-3850.0
 10
6027.004
 20
-4350.0
  0
LWPOLYLINE
  5
C6
330
A
100
AcDbEntity
  8
SOLDERMASK_PADS_BTM
100
AcDbPolyline
 90
        4
 70
     1
 43
0.0
 10
4825.003999999999
 20
-2850.0
 10
4825.003999999999
 20
-2350.0
 10
5201.004000000001
 20
-2350.0
 10
5201.004000000001
 20
-2850.0
  0
LWPOLYLINE
  5
C7
330
A
100
AcDbEntity
  8
SOLDERMASK_PADS_BTM
100
AcDbPolyline
 90
        4
 70
     1
 43
0.0
 10
5651.004
 20
-2850.0
 10
5651.004
 20
-2350.0
 10
6027.004
 20
-2350.0
 10
6027.004
 20
-2850.0
  0
LWPOLYLINE
  5
C8
330
A
100
AcDbEntity
  8
SOLDERMASK_PADS_BTM
100
AcDbPolyline
 90
        4
 70
     1
 43
0.0
 10
-5339.0
 20
-5451.995
 10
-5339.0
 20
-4951.995
 10
-4963.0
 20
-4951.995
 10
-4963.0
 20
-5451.995
  0
LWPOLYLINE
  5
C9
330
A
100
AcDbEntity
  8
SOLDERMASK_PADS_BTM
100
AcDbPolyline
 90
        4
 70
     1
 43
0.0
 10
-4513.0
 20
-5451.995
 10
-4513.0
 20
-4951.995
 10
-4137.0
 20
-4951.995
 10
-4137.0
 20
-5451.995
  0
LWPOLYLINE
  5
CA
330
A
100
AcDbEntity
  8
SOLDERMASK_PADS_BTM
100
AcDbPolyline
 90
        4
 70
     1
 43
0.0
 10
-2435.0
 20
-5451.995
 10
-2435.0
 20
-4951.995
 10
-2059.0
 20
-4951.995
 10
-2059.0
 20
-5451.995
  0
LWPOLYLINE
  5
CB
330
A
100
AcDbEntity
  8
SOLDERMASK_PADS_BTM
100
AcDbPolyline
 90
        4
 70
     1
 43
0.0
 10
-1609.0
 20
-5451.995
 10
-1609.0
 20
-4951.995
 10
-1233.0
 20
-4951.995
 10
-1233.0
 20
-5451.995
  0
LWPOLYLINE
  5
CC
330
A
100
AcDbEntity
  8
SOLDERMASK_PADS_BTM
100
AcDbPolyline
 90
        4
 70
     1
 43
0.0
 10
1921.0
 20
6800.0
 10
1921.0
 20
7300.0
 10
2297.0
 20
7300.0
 10
2297.0
 20
6800.0
  0
LWPOLYLINE
  5
CD
330
A
100
AcDbEntity
  8
SOLDERMASK_PADS_BTM
100
AcDbPolyline
 90
        4
 70
     1
 43
0.0
 10
2747.0
 20
6800.0
 10
2747.0
 20
7300.0
 10
3123.0
 20
7300.0
 10
3123.0
 20
6800.0
  0
LWPOLYLINE
  5
CE
330
A
100
AcDbEntity
  8
SOLDERMASK_PADS_BTM
100
AcDbPolyline
 90
        4
 70
     1
 43
0.0
 10
-5339.0
 20
-1248.0
 10
-5339.0
 20
-748.0
 10
-4963.0
 20
-748.0
 10
-4963.0
 20
-1248.0
  0
LWPOLYLINE
  5
CF
330
A
100
AcDbEntity
  8
SOLDERMASK_PADS_BTM
100
AcDbPolyline
 90
        4
 70
     1
 43
0.0
 10
-4513.0
 20
-1248.0
 10
-4513.0
 20
-748.0
 10
-4137.0
 20
-748.0
 10
-4137.0
 20
-1248.0
  0
LWPOLYLINE
  5
D0
330
A
100
AcDbEntity
  8
SOLDERMASK_PADS_BTM
100
AcDbPolyline
 90
        4
 70
     1
 43
0.0
 10
-5339.0
 20
1953.0
 10
-5339.0
 20
2453.0
 10
-4963.0
 20
2453.0
 10
-4963.0
 20
1953.0
  0
LWPOLYLINE
  5
D1
330
A
100
AcDbEntity
  8
SOLDERMASK_PADS_BTM
100
AcDbPolyline
 90
        4
 70
     1
 43
0.0
 10
-4513.0
 20
1953.0
 10
-4513.0
 20
2453.0
 10
-4137.0
 20
2453.0
 10
-4137.0
 20
1953.0
  0
LWPOLYLINE
  5
D2
330
A
100
AcDbEntity
  8
SOLDERMASK_PADS_BTM
100
AcDbPolyline
 90
        4
 70
     1
 43
0.0
 10
-157.0
 20
-2396.0
 10
-157.0
 20
-1896.0
 10
219.0
 20
-1896.0
 10
219.0
 20
-2396.0
  0
LWPOLYLINE
  5
D3
330
A
100
AcDbEntity
  8
SOLDERMASK_PADS_BTM
100
AcDbPolyline
 90
        4
 70
     1
 43
0.0
 10
-983.0
 20
-2396.0
 10
-983.0
 20
-1896.0
 10
-607.0
 20
-1896.0
 10
-607.0
 20
-2396.0
  0
LWPOLYLINE
  5
D4
330
A
100
AcDbEntity
  8
SOLDERMASK_PADS_BTM
100
AcDbPolyline
 90
        4
 70
     1
 43
0.0
 10
-5339.0
 20
4927.0
 10
-5339.0
 20
5427.0
 10
-4963.0
 20
5427.0
 10
-4963.0
 20
4927.0
  0
LWPOLYLINE
  5
D5
330
A
100
AcDbEntity
  8
SOLDERMASK_PADS_BTM
100
AcDbPolyline
 90
        4
 70
     1
 43
0.0
 10
-4513.0
 20
4927.0
 10
-4513.0
 20
5427.0
 10
-4137.0
 20
5427.0
 10
-4137.0
 20
4927.0
  0
LWPOLYLINE
  5
D6
330
A
100
AcDbEntity
  8
SOLDERMASK_PADS_BTM
100
AcDbPolyline
 90
        4
 70
     1
 43
0.0
 10
-157.0
 20
805.0
 10
-157.0
 20
1305.0
 10
219.0
 20
1305.0
 10
219.0
 20
805.0
  0
LWPOLYLINE
  5
D7
330
A
100
AcDbEntity
  8
SOLDERMASK_PADS_BTM
100
AcDbPolyline
 90
        4
 70
     1
 43
0.0
 10
-983.0
 20
805.0
 10
-983.0
 20
1305.0
 10
-607.0
 20
1305.0
 10
-607.0
 20
805.0
  0
LWPOLYLINE
  5
D8
330
A
100
AcDbEntity
  8
SOLDERMASK_PADS_BTM
100
AcDbPolyline
 90
        4
 70
     1
 43
0.0
 10
-4513.0
 20
6850.0
 10
-4513.0
 20
7350.0
 10
-4137.0
 20
7350.0
 10
-4137.0
 20
6850.0
  0
LWPOLYLINE
  5
D9
330
A
100
AcDbEntity
  8
SOLDERMASK_PADS_BTM
100
AcDbPolyline
 90
        4
 70
     1
 43
0.0
 10
-5339.0
 20
6850.0
 10
-5339.0
 20
7350.0
 10
-4963.0
 20
7350.0
 10
-4963.0
 20
6850.0
  0
LWPOLYLINE
  5
DA
330
A
100
AcDbEntity
  8
SOLDERMASK_PADS_BTM
100
AcDbPolyline
 90
        4
 70
     1
 43
0.0
 10
-157.0
 20
3779.0
 10
-157.0
 20
4279.0
 10
219.0
 20
4279.0
 10
219.0
 20
3779.0
  0
LWPOLYLINE
  5
DB
330
A
100
AcDbEntity
  8
SOLDERMASK_PADS_BTM
100
AcDbPolyline
 90
        4
 70
     1
 43
0.0
 10
-983.0
 20
3779.0
 10
-983.0
 20
4279.0
 10
-607.0
 20
4279.0
 10
-607.0
 20
3779.0
  0
LWPOLYLINE
  5
DC
330
A
100
AcDbEntity
  8
SOLDERMASK_PADS_BTM
100
AcDbPolyline
 90
        4
 70
     1
 43
0.0
 10
-8243.0
 20
-2850.0
 10
-8243.0
 20
-2350.0
 10
-7867.0
 20
-2350.0
 10
-7867.0
 20
-2850.0
  0
LWPOLYLINE
  5
DD
330
A
100
AcDbEntity
  8
SOLDERMASK_PADS_BTM
100
AcDbPolyline
 90
        4
 70
     1
 43
0.0
 10
-7417.0
 20
-2850.0
 10
-7417.0
 20
-2350.0
 10
-7041.0
 20
-2350.0
 10
-7041.0
 20
-2850.0
  0
LWPOLYLINE
  5
DE
330
A
100
AcDbEntity
  8
SOLDERMASK_PADS_BTM
100
AcDbPolyline
 90
        4
 70
     1
 43
0.0
 10
-983.0
 20
6100.0
 10
-983.0
 20
6600.0
 10
-607.0
 20
6600.0
 10
-607.0
 20
6100.0
  0
LWPOLYLINE
  5
DF
330
A
100
AcDbEntity
  8
SOLDERMASK_PADS_BTM
100
AcDbPolyline
 90
        4
 70
     1
 43
0.0
 10
-157.0
 20
6100.0
 10
-157.0
 20
6600.0
 10
219.0
 20
6600.0
 10
219.0
 20
6100.0
  0
LWPOLYLINE
  5
E0
330
A
100
AcDbEntity
  8
SOLDERMASK_PADS_BTM
100
AcDbPolyline
 90
        4
 70
     1
 43
0.0
 10
-501.0
 20
7600.0
 10
-501.0
 20
8100.0
 10
-125.0
 20
8100.0
 10
-125.0
 20
7600.0
  0
LWPOLYLINE
  5
E1
330
A
100
AcDbEntity
  8
SOLDERMASK_PADS_BTM
100
AcDbPolyline
 90
        4
 70
     1
 43
0.0
 10
-1327.0
 20
7600.0
 10
-1327.0
 20
8100.0
 10
-951.0
 20
8100.0
 10
-951.0
 20
7600.0
  0
LWPOLYLINE
  5
E2
330
A
100
AcDbEntity
  8
SOLDERMASK_PADS_BTM
100
AcDbPolyline
 90
        4
 70
     1
 43
0.0
 10
7103.0
 20
4625.0
 10
7103.0
 20
5125.0
 10
7479.0
 20
5125.0
 10
7479.0
 20
4625.0
  0
LWPOLYLINE
  5
E3
330
A
100
AcDbEntity
  8
SOLDERMASK_PADS_BTM
100
AcDbPolyline
 90
        4
 70
     1
 43
0.0
 10
6277.0
 20
4625.0
 10
6277.0
 20
5125.0
 10
6653.0
 20
5125.0
 10
6653.0
 20
4625.0
  0
LWPOLYLINE
  5
E4
330
A
100
AcDbEntity
  8
SOLDERMASK_PADS_BTM
100
AcDbPolyline
 90
        4
 70
     1
 43
0.0
 10
1294.998
 20
-3453.995
 10
1294.998
 20
-2953.995
 10
1670.998
 20
-2953.995
 10
1670.998
 20
-3453.995
  0
LWPOLYLINE
  5
E5
330
A
100
AcDbEntity
  8
SOLDERMASK_PADS_BTM
100
AcDbPolyline
 90
        4
 70
     1
 43
0.0
 10
468.998
 20
-3453.995
 10
468.998
 20
-2953.995
 10
844.998
 20
-2953.995
 10
844.998
 20
-3453.995
  0
LWPOLYLINE
  5
E6
330
A
100
AcDbEntity
  8
SOLDERMASK_PADS_BTM
100
AcDbPolyline
 90
        4
 70
     1
 43
0.0
 10
6277.0
 20
7600.0
 10
6277.0
 20
8100.0
 10
6653.0
 20
8100.0
 10
6653.0
 20
7600.0
  0
LWPOLYLINE
  5
E7
330
A
100
AcDbEntity
  8
SOLDERMASK_PADS_BTM
100
AcDbPolyline
 90
        4
 70
     1
 43
0.0
 10
7103.0
 20
7600.0
 10
7103.0
 20
8100.0
 10
7479.0
 20
8100.0
 10
7479.0
 20
7600.0
  0
LWPOLYLINE
  5
E8
330
A
100
AcDbEntity
  8
SOLDERMASK_PADS_BTM
100
AcDbPolyline
 90
        4
 70
     1
 43
0.0
 10
7103.0
 20
-2600.0
 10
7103.0
 20
-2100.0
 10
7479.0
 20
-2100.0
 10
7479.0
 20
-2600.0
  0
LWPOLYLINE
  5
E9
330
A
100
AcDbEntity
  8
SOLDERMASK_PADS_BTM
100
AcDbPolyline
 90
        4
 70
     1
 43
0.0
 10
6277.0
 20
-2600.0
 10
6277.0
 20
-2100.0
 10
6653.0
 20
-2100.0
 10
6653.0
 20
-2600.0
  0
LWPOLYLINE
  5
EA
330
A
100
AcDbEntity
  8
SOLDERMASK_PADS_BTM
100
AcDbPolyline
 90
        4
 70
     1
 43
0.0
 10
3373.002
 20
6050.0
 10
3373.002
 20
6550.0
 10
3749.002
 20
6550.0
 10
3749.002
 20
6050.0
  0
LWPOLYLINE
  5
EB
330
A
100
AcDbEntity
  8
SOLDERMASK_PADS_BTM
100
AcDbPolyline
 90
        4
 70
     1
 43
0.0
 10
4199.002000000001
 20
6050.0
 10
4199.002000000001
 20
6550.0
 10
4575.002
 20
6550.0
 10
4575.002
 20
6050.0
  0
LWPOLYLINE
  5
EC
330
A
100
AcDbEntity
  8
SOLDERMASK_PADS_BTM
100
AcDbPolyline
 90
        4
 70
     1
 43
0.0
 10
3373.002
 20
-7350.0
 10
3373.002
 20
-6850.0
 10
3749.002
 20
-6850.0
 10
3749.002
 20
-7350.0
  0
LWPOLYLINE
  5
ED
330
A
100
AcDbEntity
  8
SOLDERMASK_PADS_BTM
100
AcDbPolyline
 90
        4
 70
     1
 43
0.0
 10
4199.002000000001
 20
-7350.0
 10
4199.002000000001
 20
-6850.0
 10
4575.002
 20
-6850.0
 10
4575.002
 20
-7350.0
  0
LWPOLYLINE
  5
EE
330
A
100
AcDbEntity
  8
SOLDERMASK_PADS_BTM
100
AcDbPolyline
 90
        4
 70
     1
 43
0.0
 10
3029.0
 20
7600.0
 10
3029.0
 20
8100.0
 10
3405.0
 20
8100.0
 10
3405.0
 20
7600.0
  0
LWPOLYLINE
  5
EF
330
A
100
AcDbEntity
  8
SOLDERMASK_PADS_BTM
100
AcDbPolyline
 90
        4
 70
     1
 43
0.0
 10
3855.0
 20
7600.0
 10
3855.0
 20
8100.0
 10
4231.0
 20
8100.0
 10
4231.0
 20
7600.0
  0
LWPOLYLINE
  5
F0
330
A
100
AcDbEntity
  8
SOLDERMASK_PADS_BTM
100
AcDbPolyline
 90
        4
 70
     1
 43
0.0
 10
7103.0
 20
-6350.0
 10
7103.0
 20
-5850.0
 10
7479.0
 20
-5850.0
 10
7479.0
 20
-6350.0
  0
LWPOLYLINE
  5
F1
330
A
100
AcDbEntity
  8
SOLDERMASK_PADS_BTM
100
AcDbPolyline
 90
        4
 70
     1
 43
0.0
 10
6277.0
 20
-6350.0
 10
6277.0
 20
-5850.0
 10
6653.0
 20
-5850.0
 10
6653.0
 20
-6350.0
  0
LWPOLYLINE
  5
F2
330
A
100
AcDbEntity
  8
SOLDERMASK_PADS_BTM
100
AcDbPolyline
 90
        4
 70
     1
 43
0.0
 10
6277.0
 20
1150.0
 10
6277.0
 20
1650.0
 10
6653.0
 20
1650.0
 10
6653.0
 20
1150.0
  0
LWPOLYLINE
  5
F3
330
A
100
AcDbEntity
  8
SOLDERMASK_PADS_BTM
100
AcDbPolyline
 90
        4
 70
     1
 43
0.0
 10
7103.0
 20
1150.0
 10
7103.0
 20
1650.0
 10
7479.0
 20
1650.0
 10
7479.0
 20
1150.0
  0
LWPOLYLINE
  5
F4
330
A
100
AcDbEntity
  8
SOLDERMASK_PADS_BTM
100
AcDbPolyline
 90
        4
 70
     1
 43
0.0
 10
-2435.0
 20
-8100.0
 10
-2435.0
 20
-7600.0
 10
-2059.0
 20
-7600.0
 10
-2059.0
 20
-8100.0
  0
LWPOLYLINE
  5
F5
330
A
100
AcDbEntity
  8
SOLDERMASK_PADS_BTM
100
AcDbPolyline
 90
        4
 70
     1
 43
0.0
 10
-1609.0
 20
-8100.0
 10
-1609.0
 20
-7600.0
 10
-1233.0
 20
-7600.0
 10
-1233.0
 20
-8100.0
  0
LWPOLYLINE
  5
F6
330
A
100
AcDbEntity
  8
SOLDERMASK_PADS_BTM
100
AcDbPolyline
 90
        4
 70
     1
 43
0.0
 10
7103.0
 20
-4850.0
 10
7103.0
 20
-4350.0
 10
7479.0
 20
-4350.0
 10
7479.0
 20
-4850.0
  0
LWPOLYLINE
  5
F7
330
A
100
AcDbEntity
  8
SOLDERMASK_PADS_BTM
100
AcDbPolyline
 90
        4
 70
     1
 43
0.0
 10
6277.0
 20
-4850.0
 10
6277.0
 20
-4350.0
 10
6653.0
 20
-4350.0
 10
6653.0
 20
-4850.0
  0
LWPOLYLINE
  5
F8
330
A
100
AcDbEntity
  8
SOLDERMASK_PADS_BTM
100
AcDbPolyline
 90
        4
 70
     1
 43
0.0
 10
4199.002000000001
 20
-3453.995
 10
4199.002000000001
 20
-2953.995
 10
4575.002
 20
-2953.995
 10
4575.002
 20
-3453.995
  0
LWPOLYLINE
  5
F9
330
A
100
AcDbEntity
  8
SOLDERMASK_PADS_BTM
100
AcDbPolyline
 90
        4
 70
     1
 43
0.0
 10
3373.002
 20
-3453.995
 10
3373.002
 20
-2953.995
 10
3749.002
 20
-2953.995
 10
3749.002
 20
-3453.995
  0
LWPOLYLINE
  5
FA
330
A
100
AcDbEntity
  8
SOLDERMASK_PADS_BTM
100
AcDbPolyline
 90
        4
 70
     1
 43
0.0
 10
-5965.0
 20
-1248.0
 10
-5965.0
 20
-748.0
 10
-5589.0
 20
-748.0
 10
-5589.0
 20
-1248.0
  0
LWPOLYLINE
  5
FB
330
A
100
AcDbEntity
  8
SOLDERMASK_PADS_BTM
100
AcDbPolyline
 90
        4
 70
     1
 43
0.0
 10
-6791.0
 20
-1248.0
 10
-6791.0
 20
-748.0
 10
-6415.0
 20
-748.0
 10
-6415.0
 20
-1248.0
  0
LWPOLYLINE
  5
FC
330
A
100
AcDbEntity
  8
SOLDERMASK_PADS_BTM
100
AcDbPolyline
 90
        4
 70
     1
 43
0.0
 10
-5965.0
 20
1953.0
 10
-5965.0
 20
2453.0
 10
-5589.0
 20
2453.0
 10
-5589.0
 20
1953.0
  0
LWPOLYLINE
  5
FD
330
A
100
AcDbEntity
  8
SOLDERMASK_PADS_BTM
100
AcDbPolyline
 90
        4
 70
     1
 43
0.0
 10
-6791.0
 20
1953.0
 10
-6791.0
 20
2453.0
 10
-6415.0
 20
2453.0
 10
-6415.0
 20
1953.0
  0
LWPOLYLINE
  5
FE
330
A
100
AcDbEntity
  8
SOLDERMASK_PADS_BTM
100
AcDbPolyline
 90
        4
 70
     1
 43
0.0
 10
7103.0
 20
3875.0
 10
7103.0
 20
4375.0
 10
7479.0
 20
4375.0
 10
7479.0
 20
3875.0
  0
LWPOLYLINE
  5
FF
330
A
100
AcDbEntity
  8
SOLDERMASK_PADS_BTM
100
AcDbPolyline
 90
        4
 70
     1
 43
0.0
 10
6277.0
 20
3875.0
 10
6277.0
 20
4375.0
 10
6653.0
 20
4375.0
 10
6653.0
 20
3875.0
  0
LWPOLYLINE
  5
100
330
A
100
AcDbEntity
  8
SOLDERMASK_PADS_BTM
100
AcDbPolyline
 90
        4
 70
     1
 43
0.0
 10
1921.0
 20
-3453.995
 10
1921.0
 20
-2953.995
 10
2297.0
 20
-2953.995
 10
2297.0
 20
-3453.995
  0
LWPOLYLINE
  5
101
330
A
100
AcDbEntity
  8
SOLDERMASK_PADS_BTM
100
AcDbPolyline
 90
        4
 70
     1
 43
0.0
 10
2747.0
 20
-3453.995
 10
2747.0
 20
-2953.995
 10
3123.0
 20
-2953.995
 10
3123.0
 20
-3453.995
  0
LWPOLYLINE
  5
102
330
A
100
AcDbEntity
  8
SOLDERMASK_PADS_BTM
100
AcDbPolyline
 90
        4
 70
     1
 43
0.0
 10
3373.002
 20
1953.0
 10
3373.002
 20
2453.0
 10
3749.002
 20
2453.0
 10
3749.002
 20
1953.0
  0
LWPOLYLINE
  5
103
330
A
100
AcDbEntity
  8
SOLDERMASK_PADS_BTM
100
AcDbPolyline
 90
        4
 70
     1
 43
0.0
 10
4199.002000000001
 20
1953.0
 10
4199.002000000001
 20
2453.0
 10
4575.002
 20
2453.0
 10
4575.002
 20
1953.0
  0
LWPOLYLINE
  5
104
330
A
100
AcDbEntity
  8
SOLDERMASK_PADS_BTM
100
AcDbPolyline
 90
        4
 70
     1
 43
0.0
 10
-5965.0
 20
-5451.995
 10
-5965.0
 20
-4951.995
 10
-5589.0
 20
-4951.995
 10
-5589.0
 20
-5451.995
  0
LWPOLYLINE
  5
105
330
A
100
AcDbEntity
  8
SOLDERMASK_PADS_BTM
100
AcDbPolyline
 90
        4
 70
     1
 43
0.0
 10
-6791.0
 20
-5451.995
 10
-6791.0
 20
-4951.995
 10
-6415.0
 20
-4951.995
 10
-6415.0
 20
-5451.995
  0
LWPOLYLINE
  5
106
330
A
100
AcDbEntity
  8
SOLDERMASK_PADS_BTM
100
AcDbPolyline
 90
        4
 70
     1
 43
0.0
 10
468.998
 20
-6600.0
 10
468.998
 20
-6100.0
 10
844.998
 20
-6100.0
 10
844.998
 20
-6600.0
  0
LWPOLYLINE
  5
107
330
A
100
AcDbEntity
  8
SOLDERMASK_PADS_BTM
100
AcDbPolyline
 90
        4
 70
     1
 43
0.0
 10
1294.998
 20
-6600.0
 10
1294.998
 20
-6100.0
 10
1670.998
 20
-6100.0
 10
1670.998
 20
-6600.0
  0
LWPOLYLINE
  5
108
330
A
100
AcDbEntity
  8
SOLDERMASK_PADS_BTM
100
AcDbPolyline
 90
        4
 70
     1
 43
0.0
 10
-2435.0
 20
-7350.0
 10
-2435.0
 20
-6850.0
 10
-2059.0
 20
-6850.0
 10
-2059.0
 20
-7350.0
  0
LWPOLYLINE
  5
109
330
A
100
AcDbEntity
  8
SOLDERMASK_PADS_BTM
100
AcDbPolyline
 90
        4
 70
     1
 43
0.0
 10
-1609.0
 20
-7350.0
 10
-1609.0
 20
-6850.0
 10
-1233.0
 20
-6850.0
 10
-1233.0
 20
-7350.0
  0
LWPOLYLINE
  5
10A
330
A
100
AcDbEntity
  8
SOLDERMASK_PADS_BTM
100
AcDbPolyline
 90
        4
 70
     1
 43
0.0
 10
-2435.0
 20
-6600.0
 10
-2435.0
 20
-6100.0
 10
-2059.0
 20
-6100.0
 10
-2059.0
 20
-6600.0
  0
LWPOLYLINE
  5
10B
330
A
100
AcDbEntity
  8
SOLDERMASK_PADS_BTM
100
AcDbPolyline
 90
        4
 70
     1
 43
0.0
 10
-1609.0
 20
-6600.0
 10
-1609.0
 20
-6100.0
 10
-1233.0
 20
-6100.0
 10
-1233.0
 20
-6600.0
  0
LWPOLYLINE
  5
10C
330
A
100
AcDbEntity
  8
SOLDERMASK_PADS_BTM
100
AcDbPolyline
 90
        4
 70
     1
 43
0.0
 10
4825.003999999999
 20
-8100.0
 10
4825.003999999999
 20
-7600.0
 10
5201.004000000001
 20
-7600.0
 10
5201.004000000001
 20
-8100.0
  0
LWPOLYLINE
  5
10D
330
A
100
AcDbEntity
  8
SOLDERMASK_PADS_BTM
100
AcDbPolyline
 90
        4
 70
     1
 43
0.0
 10
5651.004
 20
-8100.0
 10
5651.004
 20
-7600.0
 10
6027.004
 20
-7600.0
 10
6027.004
 20
-8100.0
  0
LWPOLYLINE
  5
10E
330
A
100
AcDbEntity
  8
SOLDERMASK_PADS_BTM
100
AcDbPolyline
 90
        4
 70
     1
 43
0.0
 10
468.998
 20
-4303.999
 10
468.998
 20
-3803.999000000001
 10
844.998
 20
-3803.999000000001
 10
844.998
 20
-4303.999
  0
LWPOLYLINE
  5
10F
330
A
100
AcDbEntity
  8
SOLDERMASK_PADS_BTM
100
AcDbPolyline
 90
        4
 70
     1
 43
0.0
 10
1294.998
 20
-4303.999
 10
1294.998
 20
-3803.999000000001
 10
1670.998
 20
-3803.999000000001
 10
1670.998
 20
-4303.999
  0
LWPOLYLINE
  5
110
330
A
100
AcDbEntity
  8
SOLDERMASK_PADS_BTM
100
AcDbPolyline
 90
        4
 70
     1
 43
0.0
 10
-3061.0
 20
-1248.0
 10
-3061.0
 20
-748.0
 10
-2685.0
 20
-748.0
 10
-2685.0
 20
-1248.0
  0
LWPOLYLINE
  5
111
330
A
100
AcDbEntity
  8
SOLDERMASK_PADS_BTM
100
AcDbPolyline
 90
        4
 70
     1
 43
0.0
 10
-3887.0
 20
-1248.0
 10
-3887.0
 20
-748.0
 10
-3511.0
 20
-748.0
 10
-3511.0
 20
-1248.0
  0
LWPOLYLINE
  5
112
330
A
100
AcDbEntity
  8
SOLDERMASK_PADS_BTM
100
AcDbPolyline
 90
        4
 70
     1
 43
0.0
 10
-3061.0
 20
1953.0
 10
-3061.0
 20
2453.0
 10
-2685.0
 20
2453.0
 10
-2685.0
 20
1953.0
  0
LWPOLYLINE
  5
113
330
A
100
AcDbEntity
  8
SOLDERMASK_PADS_BTM
100
AcDbPolyline
 90
        4
 70
     1
 43
0.0
 10
-3887.0
 20
1953.0
 10
-3887.0
 20
2453.0
 10
-3511.0
 20
2453.0
 10
-3511.0
 20
1953.0
  0
LWPOLYLINE
  5
114
330
A
100
AcDbEntity
  8
SOLDERMASK_PADS_BTM
100
AcDbPolyline
 90
        4
 70
     1
 43
0.0
 10
-8243.0
 20
-2100.0
 10
-8243.0
 20
-1600.0
 10
-7867.0
 20
-1600.0
 10
-7867.0
 20
-2100.0
  0
LWPOLYLINE
  5
115
330
A
100
AcDbEntity
  8
SOLDERMASK_PADS_BTM
100
AcDbPolyline
 90
        4
 70
     1
 43
0.0
 10
-7417.0
 20
-2100.0
 10
-7417.0
 20
-1600.0
 10
-7041.0
 20
-1600.0
 10
-7041.0
 20
-2100.0
  0
LWPOLYLINE
  5
116
330
A
100
AcDbEntity
  8
SOLDERMASK_PADS_BTM
100
AcDbPolyline
 90
        4
 70
     1
 43
0.0
 10
-3061.0
 20
4927.0
 10
-3061.0
 20
5427.0
 10
-2685.0
 20
5427.0
 10
-2685.0
 20
4927.0
  0
LWPOLYLINE
  5
117
330
A
100
AcDbEntity
  8
SOLDERMASK_PADS_BTM
100
AcDbPolyline
 90
        4
 70
     1
 43
0.0
 10
-3887.0
 20
4927.0
 10
-3887.0
 20
5427.0
 10
-3511.0
 20
5427.0
 10
-3511.0
 20
4927.0
  0
LWPOLYLINE
  5
118
330
A
100
AcDbEntity
  8
SOLDERMASK_PADS_BTM
100
AcDbPolyline
 90
        4
 70
     1
 43
0.0
 10
-3887.0
 20
6850.0
 10
-3887.0
 20
7350.0
 10
-3511.0
 20
7350.0
 10
-3511.0
 20
6850.0
  0
LWPOLYLINE
  5
119
330
A
100
AcDbEntity
  8
SOLDERMASK_PADS_BTM
100
AcDbPolyline
 90
        4
 70
     1
 43
0.0
 10
-3061.0
 20
6850.0
 10
-3061.0
 20
7350.0
 10
-2685.0
 20
7350.0
 10
-2685.0
 20
6850.0
  0
LWPOLYLINE
  5
11A
330
A
100
AcDbEntity
  8
SOLDERMASK_PADS_BTM
100
AcDbPolyline
 90
        4
 70
     1
 43
0.0
 10
7103.0
 20
-1850.0
 10
7103.0
 20
-1350.0
 10
7479.0
 20
-1350.0
 10
7479.0
 20
-1850.0
  0
LWPOLYLINE
  5
11B
330
A
100
AcDbEntity
  8
SOLDERMASK_PADS_BTM
100
AcDbPolyline
 90
        4
 70
     1
 43
0.0
 10
6277.0
 20
-1850.0
 10
6277.0
 20
-1350.0
 10
6653.0
 20
-1350.0
 10
6653.0
 20
-1850.0
  0
LWPOLYLINE
  5
11C
330
A
100
AcDbEntity
  8
SOLDERMASK_PADS_BTM
100
AcDbPolyline
 90
        4
 70
     1
 43
0.0
 10
-7417.0
 20
4167.212999999999
 10
-7417.0
 20
4667.212999999999
 10
-7041.0
 20
4667.212999999999
 10
-7041.0
 20
4167.212999999999
  0
LWPOLYLINE
  5
11D
330
A
100
AcDbEntity
  8
SOLDERMASK_PADS_BTM
100
AcDbPolyline
 90
        4
 70
     1
 43
0.0
 10
-8243.0
 20
4167.212999999999
 10
-8243.0
 20
4667.212999999999
 10
-7867.0
 20
4667.212999999999
 10
-7867.0
 20
4167.212999999999
  0
LWPOLYLINE
  5
11E
330
A
100
AcDbEntity
  8
SOLDERMASK_PADS_BTM
100
AcDbPolyline
 90
        4
 70
     1
 43
0.0
 10
7103.0
 20
-350.0
 10
7103.0
 20
150.0
 10
7479.0
 20
150.0
 10
7479.0
 20
-350.0
  0
LWPOLYLINE
  5
11F
330
A
100
AcDbEntity
  8
SOLDERMASK_PADS_BTM
100
AcDbPolyline
 90
        4
 70
     1
 43
0.0
 10
6277.0
 20
-350.0
 10
6277.0
 20
150.0
 10
6653.0
 20
150.0
 10
6653.0
 20
-350.0
  0
LWPOLYLINE
  5
120
330
A
100
AcDbEntity
  8
SOLDERMASK_PADS_BTM
100
AcDbPolyline
 90
        4
 70
     1
 43
0.0
 10
-7417.0
 20
1167.213
 10
-7417.0
 20
1667.213
 10
-7041.0
 20
1667.213
 10
-7041.0
 20
1167.213
  0
LWPOLYLINE
  5
121
330
A
100
AcDbEntity
  8
SOLDERMASK_PADS_BTM
100
AcDbPolyline
 90
        4
 70
     1
 43
0.0
 10
-8243.0
 20
1167.213
 10
-8243.0
 20
1667.213
 10
-7867.0
 20
1667.213
 10
-7867.0
 20
1167.213
  0
LWPOLYLINE
  5
122
330
A
100
AcDbEntity
  8
SOLDERMASK_PADS_BTM
100
AcDbPolyline
 90
        4
 70
     1
 43
0.0
 10
-157.0
 20
-8100.0
 10
-157.0
 20
-7600.0
 10
219.0
 20
-7600.0
 10
219.0
 20
-8100.0
  0
LWPOLYLINE
  5
123
330
A
100
AcDbEntity
  8
SOLDERMASK_PADS_BTM
100
AcDbPolyline
 90
        4
 70
     1
 43
0.0
 10
-983.0
 20
-8100.0
 10
-983.0
 20
-7600.0
 10
-607.0
 20
-7600.0
 10
-607.0
 20
-8100.0
  0
LWPOLYLINE
  5
124
330
A
100
AcDbEntity
  8
SOLDERMASK_PADS_BTM
100
AcDbPolyline
 90
        4
 70
     1
 43
0.0
 10
4825.003999999999
 20
-6600.0
 10
4825.003999999999
 20
-6100.0
 10
5201.004000000001
 20
-6100.0
 10
5201.004000000001
 20
-6600.0
  0
LWPOLYLINE
  5
125
330
A
100
AcDbEntity
  8
SOLDERMASK_PADS_BTM
100
AcDbPolyline
 90
        4
 70
     1
 43
0.0
 10
5651.004
 20
-6600.0
 10
5651.004
 20
-6100.0
 10
6027.004
 20
-6100.0
 10
6027.004
 20
-6600.0
  0
LWPOLYLINE
  5
126
330
A
100
AcDbEntity
  8
SOLDERMASK_PADS_BTM
100
AcDbPolyline
 90
        4
 70
     1
 43
0.0
 10
-157.0
 20
-6600.0
 10
-157.0
 20
-6100.0
 10
219.0
 20
-6100.0
 10
219.0
 20
-6600.0
  0
LWPOLYLINE
  5
127
330
A
100
AcDbEntity
  8
SOLDERMASK_PADS_BTM
100
AcDbPolyline
 90
        4
 70
     1
 43
0.0
 10
-983.0
 20
-6600.0
 10
-983.0
 20
-6100.0
 10
-607.0
 20
-6100.0
 10
-607.0
 20
-6600.0
  0
LWPOLYLINE
  5
128
330
A
100
AcDbEntity
  8
SOLDERMASK_PADS_BTM
100
AcDbPolyline
 90
        4
 70
     1
 43
0.0
 10
-4513.0
 20
-3453.995
 10
-4513.0
 20
-2953.995
 10
-4137.0
 20
-2953.995
 10
-4137.0
 20
-3453.995
  0
LWPOLYLINE
  5
129
330
A
100
AcDbEntity
  8
SOLDERMASK_PADS_BTM
100
AcDbPolyline
 90
        4
 70
     1
 43
0.0
 10
-5339.0
 20
-3453.995
 10
-5339.0
 20
-2953.995
 10
-4963.0
 20
-2953.995
 10
-4963.0
 20
-3453.995
  0
LWPOLYLINE
  5
12A
330
A
100
AcDbEntity
  8
SOLDERMASK_PADS_BTM
100
AcDbPolyline
 90
        4
 70
     1
 43
0.0
 10
-983.0
 20
-4303.999
 10
-983.0
 20
-3803.999000000001
 10
-607.0
 20
-3803.999000000001
 10
-607.0
 20
-4303.999
  0
LWPOLYLINE
  5
12B
330
A
100
AcDbEntity
  8
SOLDERMASK_PADS_BTM
100
AcDbPolyline
 90
        4
 70
     1
 43
0.0
 10
-157.0
 20
-4303.999
 10
-157.0
 20
-3803.999000000001
 10
219.0
 20
-3803.999000000001
 10
219.0
 20
-4303.999
  0
LWPOLYLINE
  5
12C
330
A
100
AcDbEntity
  8
SOLDERMASK_PADS_BTM
100
AcDbPolyline
 90
        4
 70
     1
 43
0.0
 10
-2435.0
 20
-1248.0
 10
-2435.0
 20
-748.0
 10
-2059.0
 20
-748.0
 10
-2059.0
 20
-1248.0
  0
LWPOLYLINE
  5
12D
330
A
100
AcDbEntity
  8
SOLDERMASK_PADS_BTM
100
AcDbPolyline
 90
        4
 70
     1
 43
0.0
 10
-1609.0
 20
-1248.0
 10
-1609.0
 20
-748.0
 10
-1233.0
 20
-748.0
 10
-1233.0
 20
-1248.0
  0
LWPOLYLINE
  5
12E
330
A
100
AcDbEntity
  8
SOLDERMASK_PADS_BTM
100
AcDbPolyline
 90
        4
 70
     1
 43
0.0
 10
-2435.0
 20
1953.0
 10
-2435.0
 20
2453.0
 10
-2059.0
 20
2453.0
 10
-2059.0
 20
1953.0
  0
LWPOLYLINE
  5
12F
330
A
100
AcDbEntity
  8
SOLDERMASK_PADS_BTM
100
AcDbPolyline
 90
        4
 70
     1
 43
0.0
 10
-1609.0
 20
1953.0
 10
-1609.0
 20
2453.0
 10
-1233.0
 20
2453.0
 10
-1233.0
 20
1953.0
  0
LWPOLYLINE
  5
130
330
A
100
AcDbEntity
  8
SOLDERMASK_PADS_BTM
100
AcDbPolyline
 90
        4
 70
     1
 43
0.0
 10
-2435.0
 20
4927.0
 10
-2435.0
 20
5427.0
 10
-2059.0
 20
5427.0
 10
-2059.0
 20
4927.0
  0
LWPOLYLINE
  5
131
330
A
100
AcDbEntity
  8
SOLDERMASK_PADS_BTM
100
AcDbPolyline
 90
        4
 70
     1
 43
0.0
 10
-1609.0
 20
4927.0
 10
-1609.0
 20
5427.0
 10
-1233.0
 20
5427.0
 10
-1233.0
 20
4927.0
  0
LWPOLYLINE
  5
132
330
A
100
AcDbEntity
  8
SOLDERMASK_PADS_BTM
100
AcDbPolyline
 90
        4
 70
     1
 43
0.0
 10
4825.003999999999
 20
150.0
 10
4825.003999999999
 20
650.0
 10
5201.004000000001
 20
650.0
 10
5201.004000000001
 20
150.0
  0
LWPOLYLINE
  5
133
330
A
100
AcDbEntity
  8
SOLDERMASK_PADS_BTM
100
AcDbPolyline
 90
        4
 70
     1
 43
0.0
 10
5651.004
 20
150.0
 10
5651.004
 20
650.0
 10
6027.004
 20
650.0
 10
6027.004
 20
150.0
  0
LWPOLYLINE
  5
134
330
A
100
AcDbEntity
  8
SOLDERMASK_PADS_BTM
100
AcDbPolyline
 90
        4
 70
     1
 43
0.0
 10
-1609.0
 20
6850.0
 10
-1609.0
 20
7350.0
 10
-1233.0
 20
7350.0
 10
-1233.0
 20
6850.0
  0
LWPOLYLINE
  5
135
330
A
100
AcDbEntity
  8
SOLDERMASK_PADS_BTM
100
AcDbPolyline
 90
        4
 70
     1
 43
0.0
 10
-2435.0
 20
6850.0
 10
-2435.0
 20
7350.0
 10
-2059.0
 20
7350.0
 10
-2059.0
 20
6850.0
  0
LWPOLYLINE
  5
136
330
A
100
AcDbEntity
  8
SOLDERMASK_PADS_BTM
100
AcDbPolyline
 90
        4
 70
     1
 43
0.0
 10
-6791.0
 20
6850.0
 10
-6791.0
 20
7350.0
 10
-6415.0
 20
7350.0
 10
-6415.0
 20
6850.0
  0
LWPOLYLINE
  5
137
330
A
100
AcDbEntity
  8
SOLDERMASK_PADS_BTM
100
AcDbPolyline
 90
        4
 70
     1
 43
0.0
 10
-5965.0
 20
6850.0
 10
-5965.0
 20
7350.0
 10
-5589.0
 20
7350.0
 10
-5589.0
 20
6850.0
  0
LWPOLYLINE
  5
138
330
A
100
AcDbEntity
  8
SOLDERMASK_PADS_BTM
100
AcDbPolyline
 90
        4
 70
     1
 43
0.0
 10
-7417.0
 20
-6600.0
 10
-7417.0
 20
-6100.0
 10
-7041.0
 20
-6100.0
 10
-7041.0
 20
-6600.0
  0
LWPOLYLINE
  5
139
330
A
100
AcDbEntity
  8
SOLDERMASK_PADS_BTM
100
AcDbPolyline
 90
        4
 70
     1
 43
0.0
 10
-8243.0
 20
-6600.0
 10
-8243.0
 20
-6100.0
 10
-7867.0
 20
-6100.0
 10
-7867.0
 20
-6600.0
  0
LWPOLYLINE
  5
13A
330
A
100
AcDbEntity
  8
SOLDERMASK_PADS_BTM
100
AcDbPolyline
 90
        4
 70
     1
 43
0.0
 10
7103.0
 20
-3350.0
 10
7103.0
 20
-2850.0
 10
7479.0
 20
-2850.0
 10
7479.0
 20
-3350.0
  0
LWPOLYLINE
  5
13B
330
A
100
AcDbEntity
  8
SOLDERMASK_PADS_BTM
100
AcDbPolyline
 90
        4
 70
     1
 43
0.0
 10
6277.0
 20
-3350.0
 10
6277.0
 20
-2850.0
 10
6653.0
 20
-2850.0
 10
6653.0
 20
-3350.0
  0
LWPOLYLINE
  5
13C
330
A
100
AcDbEntity
  8
SOLDERMASK_PADS_BTM
100
AcDbPolyline
 90
        4
 70
     1
 43
0.0
 10
-5965.0
 20
-8100.0
 10
-5965.0
 20
-7600.0
 10
-5589.0
 20
-7600.0
 10
-5589.0
 20
-8100.0
  0
LWPOLYLINE
  5
13D
330
A
100
AcDbEntity
  8
SOLDERMASK_PADS_BTM
100
AcDbPolyline
 90
        4
 70
     1
 43
0.0
 10
-6791.0
 20
-8100.0
 10
-6791.0
 20
-7600.0
 10
-6415.0
 20
-7600.0
 10
-6415.0
 20
-8100.0
  0
LWPOLYLINE
  5
13E
330
A
100
AcDbEntity
  8
SOLDERMASK_PADS_BTM
100
AcDbPolyline
 90
        4
 70
     1
 43
0.0
 10
-5965.0
 20
-6600.0
 10
-5965.0
 20
-6100.0
 10
-5589.0
 20
-6100.0
 10
-5589.0
 20
-6600.0
  0
LWPOLYLINE
  5
13F
330
A
100
AcDbEntity
  8
SOLDERMASK_PADS_BTM
100
AcDbPolyline
 90
        4
 70
     1
 43
0.0
 10
-6791.0
 20
-6600.0
 10
-6791.0
 20
-6100.0
 10
-6415.0
 20
-6100.0
 10
-6415.0
 20
-6600.0
  0
LWPOLYLINE
  5
140
330
A
100
AcDbEntity
  8
SOLDERMASK_PADS_BTM
100
AcDbPolyline
 90
        4
 70
     1
 43
0.0
 10
-6791.0
 20
6100.0
 10
-6791.0
 20
6600.0
 10
-6415.0
 20
6600.0
 10
-6415.0
 20
6100.0
  0
LWPOLYLINE
  5
141
330
A
100
AcDbEntity
  8
SOLDERMASK_PADS_BTM
100
AcDbPolyline
 90
        4
 70
     1
 43
0.0
 10
-5965.0
 20
6100.0
 10
-5965.0
 20
6600.0
 10
-5589.0
 20
6600.0
 10
-5589.0
 20
6100.0
  0
LWPOLYLINE
  5
142
330
A
100
AcDbEntity
  8
SOLDERMASK_PADS_BTM
100
AcDbPolyline
 90
        4
 70
     1
 43
0.0
 10
2747.0
 20
-7350.0
 10
2747.0
 20
-6850.0
 10
3123.0
 20
-6850.0
 10
3123.0
 20
-7350.0
  0
LWPOLYLINE
  5
143
330
A
100
AcDbEntity
  8
SOLDERMASK_PADS_BTM
100
AcDbPolyline
 90
        4
 70
     1
 43
0.0
 10
1921.0
 20
-7350.0
 10
1921.0
 20
-6850.0
 10
2297.0
 20
-6850.0
 10
2297.0
 20
-7350.0
  0
LWPOLYLINE
  5
144
330
A
100
AcDbEntity
  8
SOLDERMASK_PADS_BTM
100
AcDbPolyline
 90
        4
 70
     1
 43
0.0
 10
3373.002
 20
-6600.0
 10
3373.002
 20
-6100.0
 10
3749.002
 20
-6100.0
 10
3749.002
 20
-6600.0
  0
LWPOLYLINE
  5
145
330
A
100
AcDbEntity
  8
SOLDERMASK_PADS_BTM
100
AcDbPolyline
 90
        4
 70
     1
 43
0.0
 10
4199.002000000001
 20
-6600.0
 10
4199.002000000001
 20
-6100.0
 10
4575.002
 20
-6100.0
 10
4575.002
 20
-6600.0
  0
LWPOLYLINE
  5
146
330
A
100
AcDbEntity
  8
SOLDERMASK_PADS_BTM
100
AcDbPolyline
 90
        4
 70
     1
 43
0.0
 10
3373.002
 20
-8100.0
 10
3373.002
 20
-7600.0
 10
3749.002
 20
-7600.0
 10
3749.002
 20
-8100.0
  0
LWPOLYLINE
  5
147
330
A
100
AcDbEntity
  8
SOLDERMASK_PADS_BTM
100
AcDbPolyline
 90
        4
 70
     1
 43
0.0
 10
4199.002000000001
 20
-8100.0
 10
4199.002000000001
 20
-7600.0
 10
4575.002
 20
-7600.0
 10
4575.002
 20
-8100.0
  0
LWPOLYLINE
  5
148
330
A
100
AcDbEntity
  8
SOLDERMASK_PADS_BTM
100
AcDbPolyline
 90
        4
 70
     1
 43
0.0
 10
4825.003999999999
 20
-2100.0
 10
4825.003999999999
 20
-1600.0
 10
5201.004000000001
 20
-1600.0
 10
5201.004000000001
 20
-2100.0
  0
LWPOLYLINE
  5
149
330
A
100
AcDbEntity
  8
SOLDERMASK_PADS_BTM
100
AcDbPolyline
 90
        4
 70
     1
 43
0.0
 10
5651.004
 20
-2100.0
 10
5651.004
 20
-1600.0
 10
6027.004
 20
-1600.0
 10
6027.004
 20
-2100.0
  0
LWPOLYLINE
  5
14A
330
A
100
AcDbEntity
  8
SOLDERMASK_PADS_BTM
100
AcDbPolyline
 90
        4
 70
     1
 43
0.0
 10
4825.003999999999
 20
-5100.0
 10
4825.003999999999
 20
-4600.0
 10
5201.004000000001
 20
-4600.0
 10
5201.004000000001
 20
-5100.0
  0
LWPOLYLINE
  5
14B
330
A
100
AcDbEntity
  8
SOLDERMASK_PADS_BTM
100
AcDbPolyline
 90
        4
 70
     1
 43
0.0
 10
5651.004
 20
-5100.0
 10
5651.004
 20
-4600.0
 10
6027.004
 20
-4600.0
 10
6027.004
 20
-5100.0
  0
LWPOLYLINE
  5
14C
330
A
100
AcDbEntity
  8
SOLDERMASK_PADS_BTM
100
AcDbPolyline
 90
        4
 70
     1
 43
0.0
 10
4825.003999999999
 20
-3600.0
 10
4825.003999999999
 20
-3100.0
 10
5201.004000000001
 20
-3100.0
 10
5201.004000000001
 20
-3600.0
  0
LWPOLYLINE
  5
14D
330
A
100
AcDbEntity
  8
SOLDERMASK_PADS_BTM
100
AcDbPolyline
 90
        4
 70
     1
 43
0.0
 10
5651.004
 20
-3600.0
 10
5651.004
 20
-3100.0
 10
6027.004
 20
-3100.0
 10
6027.004
 20
-3600.0
  0
LWPOLYLINE
  5
14E
330
A
100
AcDbEntity
  8
SOLDERMASK_PADS_BTM
100
AcDbPolyline
 90
        4
 70
     1
 43
0.0
 10
2747.0
 20
-2396.0
 10
2747.0
 20
-1896.0
 10
3123.0
 20
-1896.0
 10
3123.0
 20
-2396.0
  0
LWPOLYLINE
  5
14F
330
A
100
AcDbEntity
  8
SOLDERMASK_PADS_BTM
100
AcDbPolyline
 90
        4
 70
     1
 43
0.0
 10
1921.0
 20
-2396.0
 10
1921.0
 20
-1896.0
 10
2297.0
 20
-1896.0
 10
2297.0
 20
-2396.0
  0
LWPOLYLINE
  5
150
330
A
100
AcDbEntity
  8
SOLDERMASK_PADS_BTM
100
AcDbPolyline
 90
        4
 70
     1
 43
0.0
 10
2747.0
 20
805.0
 10
2747.0
 20
1305.0
 10
3123.0
 20
1305.0
 10
3123.0
 20
805.0
  0
LWPOLYLINE
  5
151
330
A
100
AcDbEntity
  8
SOLDERMASK_PADS_BTM
100
AcDbPolyline
 90
        4
 70
     1
 43
0.0
 10
1921.0
 20
805.0
 10
1921.0
 20
1305.0
 10
2297.0
 20
1305.0
 10
2297.0
 20
805.0
  0
LWPOLYLINE
  5
152
330
A
100
AcDbEntity
  8
SOLDERMASK_PADS_BTM
100
AcDbPolyline
 90
        4
 70
     1
 43
0.0
 10
-7417.0
 20
5667.213000000001
 10
-7417.0
 20
6167.213000000001
 10
-7041.0
 20
6167.213000000001
 10
-7041.0
 20
5667.213000000001
  0
LWPOLYLINE
  5
153
330
A
100
AcDbEntity
  8
SOLDERMASK_PADS_BTM
100
AcDbPolyline
 90
        4
 70
     1
 43
0.0
 10
-8243.0
 20
5667.213000000001
 10
-8243.0
 20
6167.213000000001
 10
-7867.0
 20
6167.213000000001
 10
-7867.0
 20
5667.213000000001
  0
LWPOLYLINE
  5
154
330
A
100
AcDbEntity
  8
SOLDERMASK_PADS_BTM
100
AcDbPolyline
 90
        4
 70
     1
 43
0.0
 10
-157.0
 20
-1248.0
 10
-157.0
 20
-748.0
 10
219.0
 20
-748.0
 10
219.0
 20
-1248.0
  0
LWPOLYLINE
  5
155
330
A
100
AcDbEntity
  8
SOLDERMASK_PADS_BTM
100
AcDbPolyline
 90
        4
 70
     1
 43
0.0
 10
-983.0
 20
-1248.0
 10
-983.0
 20
-748.0
 10
-607.0
 20
-748.0
 10
-607.0
 20
-1248.0
  0
LWPOLYLINE
  5
156
330
A
100
AcDbEntity
  8
SOLDERMASK_PADS_BTM
100
AcDbPolyline
 90
        4
 70
     1
 43
0.0
 10
-157.0
 20
1953.0
 10
-157.0
 20
2453.0
 10
219.0
 20
2453.0
 10
219.0
 20
1953.0
  0
LWPOLYLINE
  5
157
330
A
100
AcDbEntity
  8
SOLDERMASK_PADS_BTM
100
AcDbPolyline
 90
        4
 70
     1
 43
0.0
 10
-983.0
 20
1953.0
 10
-983.0
 20
2453.0
 10
-607.0
 20
2453.0
 10
-607.0
 20
1953.0
  0
LWPOLYLINE
  5
158
330
A
100
AcDbEntity
  8
SOLDERMASK_PADS_BTM
100
AcDbPolyline
 90
        4
 70
     1
 43
0.0
 10
-157.0
 20
4927.0
 10
-157.0
 20
5427.0
 10
219.0
 20
5427.0
 10
219.0
 20
4927.0
  0
LWPOLYLINE
  5
159
330
A
100
AcDbEntity
  8
SOLDERMASK_PADS_BTM
100
AcDbPolyline
 90
        4
 70
     1
 43
0.0
 10
-983.0
 20
4927.0
 10
-983.0
 20
5427.0
 10
-607.0
 20
5427.0
 10
-607.0
 20
4927.0
  0
LWPOLYLINE
  5
15A
330
A
100
AcDbEntity
  8
SOLDERMASK_PADS_BTM
100
AcDbPolyline
 90
        4
 70
     1
 43
0.0
 10
4825.003999999999
 20
-600.0
 10
4825.003999999999
 20
-100.0
 10
5201.004000000001
 20
-100.0
 10
5201.004000000001
 20
-600.0
  0
LWPOLYLINE
  5
15B
330
A
100
AcDbEntity
  8
SOLDERMASK_PADS_BTM
100
AcDbPolyline
 90
        4
 70
     1
 43
0.0
 10
5651.004
 20
-600.0
 10
5651.004
 20
-100.0
 10
6027.004
 20
-100.0
 10
6027.004
 20
-600.0
  0
LWPOLYLINE
  5
15C
330
A
100
AcDbEntity
  8
SOLDERMASK_PADS_BTM
100
AcDbPolyline
 90
        4
 70
     1
 43
0.0
 10
-983.0
 20
6850.0
 10
-983.0
 20
7350.0
 10
-607.0
 20
7350.0
 10
-607.0
 20
6850.0
  0
LWPOLYLINE
  5
15D
330
A
100
AcDbEntity
  8
SOLDERMASK_PADS_BTM
100
AcDbPolyline
 90
        4
 70
     1
 43
0.0
 10
-157.0
 20
6850.0
 10
-157.0
 20
7350.0
 10
219.0
 20
7350.0
 10
219.0
 20
6850.0
  0
LWPOLYLINE
  5
15E
330
A
100
AcDbEntity
  8
SOLDERMASK_PADS_BTM
100
AcDbPolyline
 90
        4
 70
     1
 43
0.0
 10
4199.002000000001
 20
4877.0
 10
4199.002000000001
 20
5377.0
 10
4575.002
 20
5377.0
 10
4575.002
 20
4877.0
  0
LWPOLYLINE
  5
15F
330
A
100
AcDbEntity
  8
SOLDERMASK_PADS_BTM
100
AcDbPolyline
 90
        4
 70
     1
 43
0.0
 10
3373.002
 20
4877.0
 10
3373.002
 20
5377.0
 10
3749.002
 20
5377.0
 10
3749.002
 20
4877.0
  0
LWPOLYLINE
  5
160
330
A
100
AcDbEntity
  8
SOLDERMASK_PADS_BTM
100
AcDbPolyline
 90
        4
 70
     1
 43
0.0
 10
3373.002
 20
6800.0
 10
3373.002
 20
7300.0
 10
3749.002
 20
7300.0
 10
3749.002
 20
6800.0
  0
LWPOLYLINE
  5
161
330
A
100
AcDbEntity
  8
SOLDERMASK_PADS_BTM
100
AcDbPolyline
 90
        4
 70
     1
 43
0.0
 10
4199.002000000001
 20
6800.0
 10
4199.002000000001
 20
7300.0
 10
4575.002
 20
7300.0
 10
4575.002
 20
6800.0
  0
LWPOLYLINE
  5
162
330
A
100
AcDbEntity
  8
SOLDERMASK_PADS_BTM
100
AcDbPolyline
 90
        4
 70
     1
 43
0.0
 10
-3061.0
 20
-4303.999
 10
-3061.0
 20
-3803.999000000001
 10
-2685.0
 20
-3803.999000000001
 10
-2685.0
 20
-4303.999
  0
LWPOLYLINE
  5
163
330
A
100
AcDbEntity
  8
SOLDERMASK_PADS_BTM
100
AcDbPolyline
 90
        4
 70
     1
 43
0.0
 10
-3887.0
 20
-4303.999
 10
-3887.0
 20
-3803.999000000001
 10
-3511.0
 20
-3803.999000000001
 10
-3511.0
 20
-4303.999
  0
LWPOLYLINE
  5
164
330
A
100
AcDbEntity
  8
SOLDERMASK_PADS_BTM
100
AcDbPolyline
 90
        4
 70
     1
 43
0.0
 10
-3061.0
 20
-5451.995
 10
-3061.0
 20
-4951.995
 10
-2685.0
 20
-4951.995
 10
-2685.0
 20
-5451.995
  0
LWPOLYLINE
  5
165
330
A
100
AcDbEntity
  8
SOLDERMASK_PADS_BTM
100
AcDbPolyline
 90
        4
 70
     1
 43
0.0
 10
-3887.0
 20
-5451.995
 10
-3887.0
 20
-4951.995
 10
-3511.0
 20
-4951.995
 10
-3511.0
 20
-5451.995
  0
LWPOLYLINE
  5
166
330
A
100
AcDbEntity
  8
SOLDERMASK_PADS_BTM
100
AcDbPolyline
 90
        4
 70
     1
 43
0.0
 10
-7417.0
 20
-7350.0
 10
-7417.0
 20
-6850.0
 10
-7041.0
 20
-6850.0
 10
-7041.0
 20
-7350.0
  0
LWPOLYLINE
  5
167
330
A
100
AcDbEntity
  8
SOLDERMASK_PADS_BTM
100
AcDbPolyline
 90
        4
 70
     1
 43
0.0
 10
-8243.0
 20
-7350.0
 10
-8243.0
 20
-6850.0
 10
-7867.0
 20
-6850.0
 10
-7867.0
 20
-7350.0
  0
LWPOLYLINE
  5
168
330
A
100
AcDbEntity
  8
SOLDERMASK_PADS_BTM
100
AcDbPolyline
 90
        4
 70
     1
 43
0.0
 10
-5965.0
 20
-4303.999
 10
-5965.0
 20
-3803.999000000001
 10
-5589.0
 20
-3803.999000000001
 10
-5589.0
 20
-4303.999
  0
LWPOLYLINE
  5
169
330
A
100
AcDbEntity
  8
SOLDERMASK_PADS_BTM
100
AcDbPolyline
 90
        4
 70
     1
 43
0.0
 10
-6791.0
 20
-4303.999
 10
-6791.0
 20
-3803.999000000001
 10
-6415.0
 20
-3803.999000000001
 10
-6415.0
 20
-4303.999
  0
LWPOLYLINE
  5
16A
330
A
100
AcDbEntity
  8
SOLDERMASK_PADS_BTM
100
AcDbPolyline
 90
        4
 70
     1
 43
0.0
 10
-5965.0
 20
805.0
 10
-5965.0
 20
1305.0
 10
-5589.0
 20
1305.0
 10
-5589.0
 20
805.0
  0
LWPOLYLINE
  5
16B
330
A
100
AcDbEntity
  8
SOLDERMASK_PADS_BTM
100
AcDbPolyline
 90
        4
 70
     1
 43
0.0
 10
-6791.0
 20
805.0
 10
-6791.0
 20
1305.0
 10
-6415.0
 20
1305.0
 10
-6415.0
 20
805.0
  0
LWPOLYLINE
  5
16C
330
A
100
AcDbEntity
  8
SOLDERMASK_PADS_BTM
100
AcDbPolyline
 90
        4
 70
     1
 43
0.0
 10
-5965.0
 20
3779.0
 10
-5965.0
 20
4279.0
 10
-5589.0
 20
4279.0
 10
-5589.0
 20
3779.0
  0
LWPOLYLINE
  5
16D
330
A
100
AcDbEntity
  8
SOLDERMASK_PADS_BTM
100
AcDbPolyline
 90
        4
 70
     1
 43
0.0
 10
-6791.0
 20
3779.0
 10
-6791.0
 20
4279.0
 10
-6415.0
 20
4279.0
 10
-6415.0
 20
3779.0
  0
LWPOLYLINE
  5
16E
330
A
100
AcDbEntity
  8
SOLDERMASK_PADS_BTM
100
AcDbPolyline
 90
        4
 70
     1
 43
0.0
 10
-3061.0
 20
-8100.0
 10
-3061.0
 20
-7600.0
 10
-2685.0
 20
-7600.0
 10
-2685.0
 20
-8100.0
  0
LWPOLYLINE
  5
16F
330
A
100
AcDbEntity
  8
SOLDERMASK_PADS_BTM
100
AcDbPolyline
 90
        4
 70
     1
 43
0.0
 10
-3887.0
 20
-8100.0
 10
-3887.0
 20
-7600.0
 10
-3511.0
 20
-7600.0
 10
-3511.0
 20
-8100.0
  0
LWPOLYLINE
  5
170
330
A
100
AcDbEntity
  8
SOLDERMASK_PADS_BTM
100
AcDbPolyline
 90
        4
 70
     1
 43
0.0
 10
3373.002
 20
3779.0
 10
3373.002
 20
4279.0
 10
3749.002
 20
4279.0
 10
3749.002
 20
3779.0
  0
LWPOLYLINE
  5
171
330
A
100
AcDbEntity
  8
SOLDERMASK_PADS_BTM
100
AcDbPolyline
 90
        4
 70
     1
 43
0.0
 10
4199.002000000001
 20
3779.0
 10
4199.002000000001
 20
4279.0
 10
4575.002
 20
4279.0
 10
4575.002
 20
3779.0
  0
LWPOLYLINE
  5
172
330
A
100
AcDbEntity
  8
SOLDERMASK_PADS_BTM
100
AcDbPolyline
 90
        4
 70
     1
 43
0.0
 10
-157.0
 20
-5451.995
 10
-157.0
 20
-4951.995
 10
219.0
 20
-4951.995
 10
219.0
 20
-5451.995
  0
LWPOLYLINE
  5
173
330
A
100
AcDbEntity
  8
SOLDERMASK_PADS_BTM
100
AcDbPolyline
 90
        4
 70
     1
 43
0.0
 10
-983.0
 20
-5451.995
 10
-983.0
 20
-4951.995
 10
-607.0
 20
-4951.995
 10
-607.0
 20
-5451.995
  0
LWPOLYLINE
  5
174
330
A
100
AcDbEntity
  8
SOLDERMASK_PADS_BTM
100
AcDbPolyline
 90
        4
 70
     1
 43
0.0
 10
-5339.0
 20
-7350.0
 10
-5339.0
 20
-6850.0
 10
-4963.0
 20
-6850.0
 10
-4963.0
 20
-7350.0
  0
LWPOLYLINE
  5
175
330
A
100
AcDbEntity
  8
SOLDERMASK_PADS_BTM
100
AcDbPolyline
 90
        4
 70
     1
 43
0.0
 10
-4513.0
 20
-7350.0
 10
-4513.0
 20
-6850.0
 10
-4137.0
 20
-6850.0
 10
-4137.0
 20
-7350.0
  0
LWPOLYLINE
  5
176
330
A
100
AcDbEntity
  8
SOLDERMASK_PADS_BTM
100
AcDbPolyline
 90
        4
 70
     1
 43
0.0
 10
4825.003999999999
 20
-7350.0
 10
4825.003999999999
 20
-6850.0
 10
5201.004000000001
 20
-6850.0
 10
5201.004000000001
 20
-7350.0
  0
LWPOLYLINE
  5
177
330
A
100
AcDbEntity
  8
SOLDERMASK_PADS_BTM
100
AcDbPolyline
 90
        4
 70
     1
 43
0.0
 10
5651.004
 20
-7350.0
 10
5651.004
 20
-6850.0
 10
6027.004
 20
-6850.0
 10
6027.004
 20
-7350.0
  0
LWPOLYLINE
  5
178
330
A
100
AcDbEntity
  8
SOLDERMASK_PADS_BTM
100
AcDbPolyline
 90
        4
 70
     1
 43
0.0
 10
2747.0
 20
-1248.0
 10
2747.0
 20
-748.0
 10
3123.0
 20
-748.0
 10
3123.0
 20
-1248.0
  0
LWPOLYLINE
  5
179
330
A
100
AcDbEntity
  8
SOLDERMASK_PADS_BTM
100
AcDbPolyline
 90
        4
 70
     1
 43
0.0
 10
1921.0
 20
-1248.0
 10
1921.0
 20
-748.0
 10
2297.0
 20
-748.0
 10
2297.0
 20
-1248.0
  0
LWPOLYLINE
  5
17A
330
A
100
AcDbEntity
  8
SOLDERMASK_PADS_BTM
100
AcDbPolyline
 90
        4
 70
     1
 43
0.0
 10
2747.0
 20
1953.0
 10
2747.0
 20
2453.0
 10
3123.0
 20
2453.0
 10
3123.0
 20
1953.0
  0
LWPOLYLINE
  5
17B
330
A
100
AcDbEntity
  8
SOLDERMASK_PADS_BTM
100
AcDbPolyline
 90
        4
 70
     1
 43
0.0
 10
1921.0
 20
1953.0
 10
1921.0
 20
2453.0
 10
2297.0
 20
2453.0
 10
2297.0
 20
1953.0
  0
LWPOLYLINE
  5
17C
330
A
100
AcDbEntity
  8
SOLDERMASK_PADS_BTM
100
AcDbPolyline
 90
        4
 70
     1
 43
0.0
 10
-5683.0
 20
7600.0
 10
-5683.0
 20
8100.0
 10
-5307.0
 20
8100.0
 10
-5307.0
 20
7600.0
  0
LWPOLYLINE
  5
17D
330
A
100
AcDbEntity
  8
SOLDERMASK_PADS_BTM
100
AcDbPolyline
 90
        4
 70
     1
 43
0.0
 10
-4857.0
 20
7600.0
 10
-4857.0
 20
8100.0
 10
-4481.0
 20
8100.0
 10
-4481.0
 20
7600.0
  0
LWPOLYLINE
  5
17E
330
A
100
AcDbEntity
  8
SOLDERMASK_PADS_BTM
100
AcDbPolyline
 90
        4
 70
     1
 43
0.0
 10
4199.002000000001
 20
-4303.999
 10
4199.002000000001
 20
-3803.999000000001
 10
4575.002
 20
-3803.999000000001
 10
4575.002
 20
-4303.999
  0
LWPOLYLINE
  5
17F
330
A
100
AcDbEntity
  8
SOLDERMASK_PADS_BTM
100
AcDbPolyline
 90
        4
 70
     1
 43
0.0
 10
3373.002
 20
-4303.999
 10
3373.002
 20
-3803.999000000001
 10
3749.002
 20
-3803.999000000001
 10
3749.002
 20
-4303.999
  0
LWPOLYLINE
  5
180
330
A
100
AcDbEntity
  8
SOLDERMASK_PADS_BTM
100
AcDbPolyline
 90
        4
 70
     1
 43
0.0
 10
468.998
 20
-1248.0
 10
468.998
 20
-748.0
 10
844.998
 20
-748.0
 10
844.998
 20
-1248.0
  0
LWPOLYLINE
  5
181
330
A
100
AcDbEntity
  8
SOLDERMASK_PADS_BTM
100
AcDbPolyline
 90
        4
 70
     1
 43
0.0
 10
1294.998
 20
-1248.0
 10
1294.998
 20
-748.0
 10
1670.998
 20
-748.0
 10
1670.998
 20
-1248.0
  0
LWPOLYLINE
  5
182
330
A
100
AcDbEntity
  8
SOLDERMASK_PADS_BTM
100
AcDbPolyline
 90
        4
 70
     1
 43
0.0
 10
468.998
 20
1953.0
 10
468.998
 20
2453.0
 10
844.998
 20
2453.0
 10
844.998
 20
1953.0
  0
LWPOLYLINE
  5
183
330
A
100
AcDbEntity
  8
SOLDERMASK_PADS_BTM
100
AcDbPolyline
 90
        4
 70
     1
 43
0.0
 10
1294.998
 20
1953.0
 10
1294.998
 20
2453.0
 10
1670.998
 20
2453.0
 10
1670.998
 20
1953.0
  0
LWPOLYLINE
  5
184
330
A
100
AcDbEntity
  8
SOLDERMASK_PADS_BTM
100
AcDbPolyline
 90
        4
 70
     1
 43
0.0
 10
-8243.0
 20
-5850.0
 10
-8243.0
 20
-5350.0
 10
-7867.0
 20
-5350.0
 10
-7867.0
 20
-5850.0
  0
LWPOLYLINE
  5
185
330
A
100
AcDbEntity
  8
SOLDERMASK_PADS_BTM
100
AcDbPolyline
 90
        4
 70
     1
 43
0.0
 10
-7417.0
 20
-5850.0
 10
-7417.0
 20
-5350.0
 10
-7041.0
 20
-5350.0
 10
-7041.0
 20
-5850.0
  0
LWPOLYLINE
  5
186
330
A
100
AcDbEntity
  8
SOLDERMASK_PADS_BTM
100
AcDbPolyline
 90
        4
 70
     1
 43
0.0
 10
468.998
 20
4927.0
 10
468.998
 20
5427.0
 10
844.998
 20
5427.0
 10
844.998
 20
4927.0
  0
LWPOLYLINE
  5
187
330
A
100
AcDbEntity
  8
SOLDERMASK_PADS_BTM
100
AcDbPolyline
 90
        4
 70
     1
 43
0.0
 10
1294.998
 20
4927.0
 10
1294.998
 20
5427.0
 10
1670.998
 20
5427.0
 10
1670.998
 20
4927.0
  0
LWPOLYLINE
  5
188
330
A
100
AcDbEntity
  8
SOLDERMASK_PADS_BTM
100
AcDbPolyline
 90
        4
 70
     1
 43
0.0
 10
1294.998
 20
6850.0
 10
1294.998
 20
7350.0
 10
1670.998
 20
7350.0
 10
1670.998
 20
6850.0
  0
LWPOLYLINE
  5
189
330
A
100
AcDbEntity
  8
SOLDERMASK_PADS_BTM
100
AcDbPolyline
 90
        4
 70
     1
 43
0.0
 10
468.998
 20
6850.0
 10
468.998
 20
7350.0
 10
844.998
 20
7350.0
 10
844.998
 20
6850.0
  0
LWPOLYLINE
  5
18A
330
A
100
AcDbEntity
  8
SOLDERMASK_PADS_BTM
100
AcDbPolyline
 90
        4
 70
     1
 43
0.0
 10
-3887.0
 20
-3453.995
 10
-3887.0
 20
-2953.995
 10
-3511.0
 20
-2953.995
 10
-3511.0
 20
-3453.995
  0
LWPOLYLINE
  5
18B
330
A
100
AcDbEntity
  8
SOLDERMASK_PADS_BTM
100
AcDbPolyline
 90
        4
 70
     1
 43
0.0
 10
-3061.0
 20
-3453.995
 10
-3061.0
 20
-2953.995
 10
-2685.0
 20
-2953.995
 10
-2685.0
 20
-3453.995
  0
LWPOLYLINE
  5
18C
330
A
100
AcDbEntity
  8
SOLDERMASK_PADS_BTM
100
AcDbPolyline
 90
        4
 70
     1
 43
0.0
 10
-7417.0
 20
4917.213
 10
-7417.0
 20
5417.213000000001
 10
-7041.0
 20
5417.213000000001
 10
-7041.0
 20
4917.213
  0
LWPOLYLINE
  5
18D
330
A
100
AcDbEntity
  8
SOLDERMASK_PADS_BTM
100
AcDbPolyline
 90
        4
 70
     1
 43
0.0
 10
-8243.0
 20
4917.213
 10
-8243.0
 20
5417.213000000001
 10
-7867.0
 20
5417.213000000001
 10
-7867.0
 20
4917.213
  0
LWPOLYLINE
  5
18E
330
A
100
AcDbEntity
  8
SOLDERMASK_PADS_BTM
100
AcDbPolyline
 90
        4
 70
     1
 43
0.0
 10
-7417.0
 20
-8100.0
 10
-7417.0
 20
-7600.0
 10
-7041.0
 20
-7600.0
 10
-7041.0
 20
-8100.0
  0
LWPOLYLINE
  5
18F
330
A
100
AcDbEntity
  8
SOLDERMASK_PADS_BTM
100
AcDbPolyline
 90
        4
 70
     1
 43
0.0
 10
-8243.0
 20
-8100.0
 10
-8243.0
 20
-7600.0
 10
-7867.0
 20
-7600.0
 10
-7867.0
 20
-8100.0
  0
LWPOLYLINE
  5
190
330
A
100
AcDbEntity
  8
SOLDERMASK_PADS_BTM
100
AcDbPolyline
 90
        4
 70
     1
 43
0.0
 10
3373.002
 20
-2396.0
 10
3373.002
 20
-1896.0
 10
3749.002
 20
-1896.0
 10
3749.002
 20
-2396.0
  0
LWPOLYLINE
  5
191
330
A
100
AcDbEntity
  8
SOLDERMASK_PADS_BTM
100
AcDbPolyline
 90
        4
 70
     1
 43
0.0
 10
4199.002000000001
 20
-2396.0
 10
4199.002000000001
 20
-1896.0
 10
4575.002
 20
-1896.0
 10
4575.002
 20
-2396.0
  0
LWPOLYLINE
  5
192
330
A
100
AcDbEntity
  8
SOLDERMASK_PADS_BTM
100
AcDbPolyline
 90
        4
 70
     1
 43
0.0
 10
3373.002
 20
805.0
 10
3373.002
 20
1305.0
 10
3749.002
 20
1305.0
 10
3749.002
 20
805.0
  0
LWPOLYLINE
  5
193
330
A
100
AcDbEntity
  8
SOLDERMASK_PADS_BTM
100
AcDbPolyline
 90
        4
 70
     1
 43
0.0
 10
4199.002000000001
 20
805.0
 10
4199.002000000001
 20
1305.0
 10
4575.002
 20
1305.0
 10
4575.002
 20
805.0
  0
LWPOLYLINE
  5
194
330
A
100
AcDbEntity
  8
SOLDERMASK_PADS_BTM
100
AcDbPolyline
 90
        4
 70
     1
 43
0.0
 10
1294.998
 20
-8100.0
 10
1294.998
 20
-7600.0
 10
1670.998
 20
-7600.0
 10
1670.998
 20
-8100.0
  0
LWPOLYLINE
  5
195
330
A
100
AcDbEntity
  8
SOLDERMASK_PADS_BTM
100
AcDbPolyline
 90
        4
 70
     1
 43
0.0
 10
468.998
 20
-8100.0
 10
468.998
 20
-7600.0
 10
844.998
 20
-7600.0
 10
844.998
 20
-8100.0
  0
LWPOLYLINE
  5
196
330
A
100
AcDbEntity
  8
SOLDERMASK_PADS_BTM
100
AcDbPolyline
 90
        4
 70
     1
 43
0.0
 10
-5965.0
 20
4927.0
 10
-5965.0
 20
5427.0
 10
-5589.0
 20
5427.0
 10
-5589.0
 20
4927.0
  0
LWPOLYLINE
  5
197
330
A
100
AcDbEntity
  8
SOLDERMASK_PADS_BTM
100
AcDbPolyline
 90
        4
 70
     1
 43
0.0
 10
-6791.0
 20
4927.0
 10
-6791.0
 20
5427.0
 10
-6415.0
 20
5427.0
 10
-6415.0
 20
4927.0
  0
LWPOLYLINE
  5
198
330
A
100
AcDbEntity
  8
SOLDERMASK_PADS_BTM
100
AcDbPolyline
 90
        4
 70
     1
 43
0.0
 10
-1609.0
 20
-3453.995
 10
-1609.0
 20
-2953.995
 10
-1233.0
 20
-2953.995
 10
-1233.0
 20
-3453.995
  0
LWPOLYLINE
  5
199
330
A
100
AcDbEntity
  8
SOLDERMASK_PADS_BTM
100
AcDbPolyline
 90
        4
 70
     1
 43
0.0
 10
-2435.0
 20
-3453.995
 10
-2435.0
 20
-2953.995
 10
-2059.0
 20
-2953.995
 10
-2059.0
 20
-3453.995
  0
LWPOLYLINE
  5
19A
330
A
100
AcDbEntity
  8
SOLDERMASK_PADS_BTM
100
AcDbPolyline
 90
        4
 70
     1
 43
0.0
 10
2747.0
 20
-5451.995
 10
2747.0
 20
-4951.995
 10
3123.0
 20
-4951.995
 10
3123.0
 20
-5451.995
  0
LWPOLYLINE
  5
19B
330
A
100
AcDbEntity
  8
SOLDERMASK_PADS_BTM
100
AcDbPolyline
 90
        4
 70
     1
 43
0.0
 10
1921.0
 20
-5451.995
 10
1921.0
 20
-4951.995
 10
2297.0
 20
-4951.995
 10
2297.0
 20
-5451.995
  0
CIRCLE
  5
19C
330
A
100
AcDbEntity
  8
SOLDERMASK_PADS_BTM
100
AcDbCircle
 10
-8073.09
 20
8189.26
 30
0.0
 40
150.0
  0
CIRCLE
  5
19D
330
A
100
AcDbEntity
  8
SOLDERMASK_PADS_BTM
100
AcDbCircle
 10
8139.790000000001
 20
-8217.159999999999
 30
0.0
 40
150.0
  0
LWPOLYLINE
  5
19E
330
A
100
AcDbEntity
  8
SOLDERMASK_PADS_BTM
100
AcDbPolyline
 90
        3
 70
     1
 43
0.0
 10
38330.0
 20
-24080.0
 10
38330.0
 20
-24580.0
 10
37830.0
 20
-24580.0
  0
LWPOLYLINE
  5
12AF
330
A
100
AcDbEntity
  8
SOLDERMASK_PADS_BTM
100
AcDbPolyline
 90
        4
 70
     1
 43
0.0
 10
-3061.0
 20
-7350.0
 10
-3061.0
 20
-6850.0
 10
-2685.0
 20
-6850.0
 10
-2685.0
 20
-7350.0
  0
LWPOLYLINE
  5
12B0
330
A
100
AcDbEntity
  8
SOLDERMASK_PADS_BTM
100
AcDbPolyline
 90
        4
 70
     1
 43
0.0
 10
-3887.0
 20
-7350.0
 10
-3887.0
 20
-6850.0
 10
-3511.0
 20
-6850.0
 10
-3511.0
 20
-7350.0
  0
LWPOLYLINE
  5
12B1
330
A
100
AcDbEntity
  8
SOLDERMASK_PADS_BTM
100
AcDbPolyline
 90
        4
 70
     1
 43
0.0
 10
-5339.0
 20
-6600.0
 10
-5339.0
 20
-6100.0
 10
-4963.0
 20
-6100.0
 10
-4963.0
 20
-6600.0
  0
LWPOLYLINE
  5
12B2
330
A
100
AcDbEntity
  8
SOLDERMASK_PADS_BTM
100
AcDbPolyline
 90
        4
 70
     1
 43
0.0
 10
-4513.0
 20
-6600.0
 10
-4513.0
 20
-6100.0
 10
-4137.0
 20
-6100.0
 10
-4137.0
 20
-6600.0
  0
LWPOLYLINE
  5
12B3
330
A
100
AcDbEntity
  8
SOLDERMASK_PADS_BTM
100
AcDbPolyline
 90
        4
 70
     1
 43
0.0
 10
2747.0
 20
3779.0
 10
2747.0
 20
4279.0
 10
3123.0
 20
4279.0
 10
3123.0
 20
3779.0
  0
LWPOLYLINE
  5
12B4
330
A
100
AcDbEntity
  8
SOLDERMASK_PADS_BTM
100
AcDbPolyline
 90
        4
 70
     1
 43
0.0
 10
1921.0
 20
3779.0
 10
1921.0
 20
4279.0
 10
2297.0
 20
4279.0
 10
2297.0
 20
3779.0
  0
LWPOLYLINE
  5
12B5
330
A
100
AcDbEntity
  8
SOLDERMASK_PADS_BTM
100
AcDbPolyline
 90
        4
 70
     1
 43
0.0
 10
-2435.0
 20
-4303.999
 10
-2435.0
 20
-3803.999000000001
 10
-2059.0
 20
-3803.999000000001
 10
-2059.0
 20
-4303.999
  0
LWPOLYLINE
  5
12B6
330
A
100
AcDbEntity
  8
SOLDERMASK_PADS_BTM
100
AcDbPolyline
 90
        4
 70
     1
 43
0.0
 10
-1609.0
 20
-4303.999
 10
-1609.0
 20
-3803.999000000001
 10
-1233.0
 20
-3803.999000000001
 10
-1233.0
 20
-4303.999
  0
LWPOLYLINE
  5
12B7
330
A
100
AcDbEntity
  8
SOLDERMASK_PADS_BTM
100
AcDbPolyline
 90
        4
 70
     1
 43
0.0
 10
-5339.0
 20
805.0
 10
-5339.0
 20
1305.0
 10
-4963.0
 20
1305.0
 10
-4963.0
 20
805.0
  0
LWPOLYLINE
  5
12B8
330
A
100
AcDbEntity
  8
SOLDERMASK_PADS_BTM
100
AcDbPolyline
 90
        4
 70
     1
 43
0.0
 10
-4513.0
 20
805.0
 10
-4513.0
 20
1305.0
 10
-4137.0
 20
1305.0
 10
-4137.0
 20
805.0
  0
LWPOLYLINE
  5
12B9
330
A
100
AcDbEntity
  8
SOLDERMASK_PADS_BTM
100
AcDbPolyline
 90
        4
 70
     1
 43
0.0
 10
-5339.0
 20
3779.0
 10
-5339.0
 20
4279.0
 10
-4963.0
 20
4279.0
 10
-4963.0
 20
3779.0
  0
LWPOLYLINE
  5
12BA
330
A
100
AcDbEntity
  8
SOLDERMASK_PADS_BTM
100
AcDbPolyline
 90
        4
 70
     1
 43
0.0
 10
-4513.0
 20
3779.0
 10
-4513.0
 20
4279.0
 10
-4137.0
 20
4279.0
 10
-4137.0
 20
3779.0
  0
LWPOLYLINE
  5
12BB
330
A
100
AcDbEntity
  8
SOLDERMASK_PADS_BTM
100
AcDbPolyline
 90
        4
 70
     1
 43
0.0
 10
-8243.0
 20
-5100.0
 10
-8243.0
 20
-4600.0
 10
-7867.0
 20
-4600.0
 10
-7867.0
 20
-5100.0
  0
LWPOLYLINE
  5
12BC
330
A
100
AcDbEntity
  8
SOLDERMASK_PADS_BTM
100
AcDbPolyline
 90
        4
 70
     1
 43
0.0
 10
-7417.0
 20
-5100.0
 10
-7417.0
 20
-4600.0
 10
-7041.0
 20
-4600.0
 10
-7041.0
 20
-5100.0
  0
LWPOLYLINE
  5
12BD
330
A
100
AcDbEntity
  8
SOLDERMASK_PADS_BTM
100
AcDbPolyline
 90
        4
 70
     1
 43
0.0
 10
-4513.0
 20
6100.0
 10
-4513.0
 20
6600.0
 10
-4137.0
 20
6600.0
 10
-4137.0
 20
6100.0
  0
LWPOLYLINE
  5
12BE
330
A
100
AcDbEntity
  8
SOLDERMASK_PADS_BTM
100
AcDbPolyline
 90
        4
 70
     1
 43
0.0
 10
-5339.0
 20
6100.0
 10
-5339.0
 20
6600.0
 10
-4963.0
 20
6600.0
 10
-4963.0
 20
6100.0
  0
LWPOLYLINE
  5
12BF
330
A
100
AcDbEntity
  8
SOLDERMASK_PADS_BTM
100
AcDbPolyline
 90
        4
 70
     1
 43
0.0
 10
-5339.0
 20
-2396.0
 10
-5339.0
 20
-1896.0
 10
-4963.0
 20
-1896.0
 10
-4963.0
 20
-2396.0
  0
LWPOLYLINE
  5
12C0
330
A
100
AcDbEntity
  8
SOLDERMASK_PADS_BTM
100
AcDbPolyline
 90
        4
 70
     1
 43
0.0
 10
-4513.0
 20
-2396.0
 10
-4513.0
 20
-1896.0
 10
-4137.0
 20
-1896.0
 10
-4137.0
 20
-2396.0
  0
LWPOLYLINE
  5
12C1
330
A
100
AcDbEntity
  8
SOLDERMASK_PADS_BTM
100
AcDbPolyline
 90
        4
 70
     1
 43
0.0
 10
-983.0
 20
-3453.995
 10
-983.0
 20
-2953.995
 10
-607.0
 20
-2953.995
 10
-607.0
 20
-3453.995
  0
LWPOLYLINE
  5
12C2
330
A
100
AcDbEntity
  8
SOLDERMASK_PADS_BTM
100
AcDbPolyline
 90
        4
 70
     1
 43
0.0
 10
-157.0
 20
-3453.995
 10
-157.0
 20
-2953.995
 10
219.0
 20
-2953.995
 10
219.0
 20
-3453.995
  0
LWPOLYLINE
  5
12C3
330
A
100
AcDbEntity
  8
SOLDERMASK_PADS_BTM
100
AcDbPolyline
 90
        4
 70
     1
 43
0.0
 10
6277.0
 20
6850.0
 10
6277.0
 20
7350.0
 10
6653.0
 20
7350.0
 10
6653.0
 20
6850.0
  0
LWPOLYLINE
  5
12C4
330
A
100
AcDbEntity
  8
SOLDERMASK_PADS_BTM
100
AcDbPolyline
 90
        4
 70
     1
 43
0.0
 10
7103.0
 20
6850.0
 10
7103.0
 20
7350.0
 10
7479.0
 20
7350.0
 10
7479.0
 20
6850.0
  0
LWPOLYLINE
  5
12C5
330
A
100
AcDbEntity
  8
SOLDERMASK_PADS_BTM
100
AcDbPolyline
 90
        4
 70
     1
 43
0.0
 10
7103.0
 20
-7100.0
 10
7103.0
 20
-6600.0
 10
7479.0
 20
-6600.0
 10
7479.0
 20
-7100.0
  0
LWPOLYLINE
  5
12C6
330
A
100
AcDbEntity
  8
SOLDERMASK_PADS_BTM
100
AcDbPolyline
 90
        4
 70
     1
 43
0.0
 10
6277.0
 20
-7100.0
 10
6277.0
 20
-6600.0
 10
6653.0
 20
-6600.0
 10
6653.0
 20
-7100.0
  0
LWPOLYLINE
  5
12C7
330
A
100
AcDbEntity
  8
SOLDERMASK_PADS_BTM
100
AcDbPolyline
 90
        4
 70
     1
 43
0.0
 10
4825.003999999999
 20
-1350.0
 10
4825.003999999999
 20
-850.0
 10
5201.004000000001
 20
-850.0
 10
5201.004000000001
 20
-1350.0
  0
LWPOLYLINE
  5
12C8
330
A
100
AcDbEntity
  8
SOLDERMASK_PADS_BTM
100
AcDbPolyline
 90
        4
 70
     1
 43
0.0
 10
5651.004
 20
-1350.0
 10
5651.004
 20
-850.0
 10
6027.004
 20
-850.0
 10
6027.004
 20
-1350.0
  0
LWPOLYLINE
  5
12C9
330
A
100
AcDbEntity
  8
SOLDERMASK_PADS_BTM
100
AcDbPolyline
 90
        4
 70
     1
 43
0.0
 10
6277.0
 20
1900.0
 10
6277.0
 20
2400.0
 10
6653.0
 20
2400.0
 10
6653.0
 20
1900.0
  0
LWPOLYLINE
  5
12CA
330
A
100
AcDbEntity
  8
SOLDERMASK_PADS_BTM
100
AcDbPolyline
 90
        4
 70
     1
 43
0.0
 10
7103.0
 20
1900.0
 10
7103.0
 20
2400.0
 10
7479.0
 20
2400.0
 10
7479.0
 20
1900.0
  0
LWPOLYLINE
  5
12CB
330
A
100
AcDbEntity
  8
SOLDERMASK_PADS_BTM
100
AcDbPolyline
 90
        4
 70
     1
 43
0.0
 10
7103.0
 20
-5600.0
 10
7103.0
 20
-5100.0
 10
7479.0
 20
-5100.0
 10
7479.0
 20
-5600.0
  0
LWPOLYLINE
  5
12CC
330
A
100
AcDbEntity
  8
SOLDERMASK_PADS_BTM
100
AcDbPolyline
 90
        4
 70
     1
 43
0.0
 10
6277.0
 20
-5600.0
 10
6277.0
 20
-5100.0
 10
6653.0
 20
-5100.0
 10
6653.0
 20
-5600.0
  0
LWPOLYLINE
  5
12CD
330
A
100
AcDbEntity
  8
SOLDERMASK_PADS_BTM
100
AcDbPolyline
 90
        4
 70
     1
 43
0.0
 10
1921.0
 20
-8100.0
 10
1921.0
 20
-7600.0
 10
2297.0
 20
-7600.0
 10
2297.0
 20
-8100.0
  0
LWPOLYLINE
  5
12CE
330
A
100
AcDbEntity
  8
SOLDERMASK_PADS_BTM
100
AcDbPolyline
 90
        4
 70
     1
 43
0.0
 10
2747.0
 20
-8100.0
 10
2747.0
 20
-7600.0
 10
3123.0
 20
-7600.0
 10
3123.0
 20
-8100.0
  0
LWPOLYLINE
  5
12CF
330
A
100
AcDbEntity
  8
SOLDERMASK_PADS_BTM
100
AcDbPolyline
 90
        4
 70
     1
 43
0.0
 10
1294.998
 20
-5451.995
 10
1294.998
 20
-4951.995
 10
1670.998
 20
-4951.995
 10
1670.998
 20
-5451.995
  0
LWPOLYLINE
  5
12D0
330
A
100
AcDbEntity
  8
SOLDERMASK_PADS_BTM
100
AcDbPolyline
 90
        4
 70
     1
 43
0.0
 10
468.998
 20
-5451.995
 10
468.998
 20
-4951.995
 10
844.998
 20
-4951.995
 10
844.998
 20
-5451.995
  0
LWPOLYLINE
  5
12D1
330
A
100
AcDbEntity
  8
SOLDERMASK_PADS_BTM
100
AcDbPolyline
 90
        4
 70
     1
 43
0.0
 10
2747.0
 20
-6600.0
 10
2747.0
 20
-6100.0
 10
3123.0
 20
-6100.0
 10
3123.0
 20
-6600.0
  0
LWPOLYLINE
  5
12D2
330
A
100
AcDbEntity
  8
SOLDERMASK_PADS_BTM
100
AcDbPolyline
 90
        4
 70
     1
 43
0.0
 10
1921.0
 20
-6600.0
 10
1921.0
 20
-6100.0
 10
2297.0
 20
-6100.0
 10
2297.0
 20
-6600.0
  0
LWPOLYLINE
  5
12D3
330
A
100
AcDbEntity
  8
SOLDERMASK_PADS_BTM
100
AcDbPolyline
 90
        4
 70
     1
 43
0.0
 10
-3061.0
 20
-6600.0
 10
-3061.0
 20
-6100.0
 10
-2685.0
 20
-6100.0
 10
-2685.0
 20
-6600.0
  0
LWPOLYLINE
  5
12D4
330
A
100
AcDbEntity
  8
SOLDERMASK_PADS_BTM
100
AcDbPolyline
 90
        4
 70
     1
 43
0.0
 10
-3887.0
 20
-6600.0
 10
-3887.0
 20
-6100.0
 10
-3511.0
 20
-6100.0
 10
-3511.0
 20
-6600.0
  0
LWPOLYLINE
  5
12D5
330
A
100
AcDbEntity
  8
SOLDERMASK_PADS_BTM
100
AcDbPolyline
 90
        4
 70
     1
 43
0.0
 10
2747.0
 20
4877.0
 10
2747.0
 20
5377.0
 10
3123.0
 20
5377.0
 10
3123.0
 20
4877.0
  0
LWPOLYLINE
  5
12D6
330
A
100
AcDbEntity
  8
SOLDERMASK_PADS_BTM
100
AcDbPolyline
 90
        4
 70
     1
 43
0.0
 10
1921.0
 20
4877.0
 10
1921.0
 20
5377.0
 10
2297.0
 20
5377.0
 10
2297.0
 20
4877.0
  0
LWPOLYLINE
  5
12D7
330
A
100
AcDbEntity
  8
SOLDERMASK_PADS_BTM
100
AcDbPolyline
 90
        4
 70
     1
 43
0.0
 10
-3061.0
 20
-2396.0
 10
-3061.0
 20
-1896.0
 10
-2685.0
 20
-1896.0
 10
-2685.0
 20
-2396.0
  0
LWPOLYLINE
  5
12D8
330
A
100
AcDbEntity
  8
SOLDERMASK_PADS_BTM
100
AcDbPolyline
 90
        4
 70
     1
 43
0.0
 10
-3887.0
 20
-2396.0
 10
-3887.0
 20
-1896.0
 10
-3511.0
 20
-1896.0
 10
-3511.0
 20
-2396.0
  0
LWPOLYLINE
  5
12D9
330
A
100
AcDbEntity
  8
SOLDERMASK_PADS_BTM
100
AcDbPolyline
 90
        4
 70
     1
 43
0.0
 10
-3061.0
 20
805.0
 10
-3061.0
 20
1305.0
 10
-2685.0
 20
1305.0
 10
-2685.0
 20
805.0
  0
LWPOLYLINE
  5
12DA
330
A
100
AcDbEntity
  8
SOLDERMASK_PADS_BTM
100
AcDbPolyline
 90
        4
 70
     1
 43
0.0
 10
-3887.0
 20
805.0
 10
-3887.0
 20
1305.0
 10
-3511.0
 20
1305.0
 10
-3511.0
 20
805.0
  0
LWPOLYLINE
  5
12DB
330
A
100
AcDbEntity
  8
SOLDERMASK_PADS_BTM
100
AcDbPolyline
 90
        4
 70
     1
 43
0.0
 10
-3061.0
 20
3779.0
 10
-3061.0
 20
4279.0
 10
-2685.0
 20
4279.0
 10
-2685.0
 20
3779.0
  0
LWPOLYLINE
  5
12DC
330
A
100
AcDbEntity
  8
SOLDERMASK_PADS_BTM
100
AcDbPolyline
 90
        4
 70
     1
 43
0.0
 10
-3887.0
 20
3779.0
 10
-3887.0
 20
4279.0
 10
-3511.0
 20
4279.0
 10
-3511.0
 20
3779.0
  0
LWPOLYLINE
  5
12DD
330
A
100
AcDbEntity
  8
SOLDERMASK_PADS_BTM
100
AcDbPolyline
 90
        4
 70
     1
 43
0.0
 10
-8243.0
 20
-4350.0
 10
-8243.0
 20
-3850.0
 10
-7867.0
 20
-3850.0
 10
-7867.0
 20
-4350.0
  0
LWPOLYLINE
  5
12DE
330
A
100
AcDbEntity
  8
SOLDERMASK_PADS_BTM
100
AcDbPolyline
 90
        4
 70
     1
 43
0.0
 10
-7417.0
 20
-4350.0
 10
-7417.0
 20
-3850.0
 10
-7041.0
 20
-3850.0
 10
-7041.0
 20
-4350.0
  0
LWPOLYLINE
  5
12DF
330
A
100
AcDbEntity
  8
SOLDERMASK_PADS_BTM
100
AcDbPolyline
 90
        4
 70
     1
 43
0.0
 10
-3887.0
 20
6100.0
 10
-3887.0
 20
6600.0
 10
-3511.0
 20
6600.0
 10
-3511.0
 20
6100.0
  0
LWPOLYLINE
  5
12E0
330
A
100
AcDbEntity
  8
SOLDERMASK_PADS_BTM
100
AcDbPolyline
 90
        4
 70
     1
 43
0.0
 10
-3061.0
 20
6100.0
 10
-3061.0
 20
6600.0
 10
-2685.0
 20
6600.0
 10
-2685.0
 20
6100.0
  0
LWPOLYLINE
  5
12E1
330
A
100
AcDbEntity
  8
SOLDERMASK_PADS_BTM
100
AcDbPolyline
 90
        4
 70
     1
 43
0.0
 10
-3405.0
 20
7600.0
 10
-3405.0
 20
8100.0
 10
-3029.0
 20
8100.0
 10
-3029.0
 20
7600.0
  0
LWPOLYLINE
  5
12E2
330
A
100
AcDbEntity
  8
SOLDERMASK_PADS_BTM
100
AcDbPolyline
 90
        4
 70
     1
 43
0.0
 10
-4231.0
 20
7600.0
 10
-4231.0
 20
8100.0
 10
-3855.0
 20
8100.0
 10
-3855.0
 20
7600.0
  0
LWPOLYLINE
  5
12E3
330
A
100
AcDbEntity
  8
SOLDERMASK_PADS_BTM
100
AcDbPolyline
 90
        4
 70
     1
 43
0.0
 10
7103.0
 20
-1100.0
 10
7103.0
 20
-600.0
 10
7479.0
 20
-600.0
 10
7479.0
 20
-1100.0
  0
LWPOLYLINE
  5
12E4
330
A
100
AcDbEntity
  8
SOLDERMASK_PADS_BTM
100
AcDbPolyline
 90
        4
 70
     1
 43
0.0
 10
6277.0
 20
-1100.0
 10
6277.0
 20
-600.0
 10
6653.0
 20
-600.0
 10
6653.0
 20
-1100.0
  0
LWPOLYLINE
  5
12E5
330
A
100
AcDbEntity
  8
SOLDERMASK_PADS_BTM
100
AcDbPolyline
 90
        4
 70
     1
 43
0.0
 10
7103.0
 20
400.0
 10
7103.0
 20
900.0
 10
7479.0
 20
900.0
 10
7479.0
 20
400.0
  0
LWPOLYLINE
  5
12E6
330
A
100
AcDbEntity
  8
SOLDERMASK_PADS_BTM
100
AcDbPolyline
 90
        4
 70
     1
 43
0.0
 10
6277.0
 20
400.0
 10
6277.0
 20
900.0
 10
6653.0
 20
900.0
 10
6653.0
 20
400.0
  0
LWPOLYLINE
  5
12E7
330
A
100
AcDbEntity
  8
SOLDERMASK_PADS_BTM
100
AcDbPolyline
 90
        4
 70
     1
 43
0.0
 10
468.998
 20
-7350.0
 10
468.998
 20
-6850.0
 10
844.998
 20
-6850.0
 10
844.998
 20
-7350.0
  0
LWPOLYLINE
  5
12E8
330
A
100
AcDbEntity
  8
SOLDERMASK_PADS_BTM
100
AcDbPolyline
 90
        4
 70
     1
 43
0.0
 10
1294.998
 20
-7350.0
 10
1294.998
 20
-6850.0
 10
1670.998
 20
-6850.0
 10
1670.998
 20
-7350.0
  0
LWPOLYLINE
  5
12E9
330
A
100
AcDbEntity
  8
SOLDERMASK_PADS_BTM
100
AcDbPolyline
 90
        4
 70
     1
 43
0.0
 10
-5339.0
 20
-4303.999
 10
-5339.0
 20
-3803.999000000001
 10
-4963.0
 20
-3803.999000000001
 10
-4963.0
 20
-4303.999
  0
LWPOLYLINE
  5
12EA
330
A
100
AcDbEntity
  8
SOLDERMASK_PADS_BTM
100
AcDbPolyline
 90
        4
 70
     1
 43
0.0
 10
-4513.0
 20
-4303.999
 10
-4513.0
 20
-3803.999000000001
 10
-4137.0
 20
-3803.999000000001
 10
-4137.0
 20
-4303.999
  0
LWPOLYLINE
  5
12EB
330
A
100
AcDbEntity
  8
SOLDERMASK_PADS_BTM
100
AcDbPolyline
 90
        4
 70
     1
 43
0.0
 10
2403.0
 20
7600.0
 10
2403.0
 20
8100.0
 10
2779.0
 20
8100.0
 10
2779.0
 20
7600.0
  0
LWPOLYLINE
  5
12EC
330
A
100
AcDbEntity
  8
SOLDERMASK_PADS_BTM
100
AcDbPolyline
 90
        4
 70
     1
 43
0.0
 10
1577.0
 20
7600.0
 10
1577.0
 20
8100.0
 10
1953.0
 20
8100.0
 10
1953.0
 20
7600.0
  0
LWPOLYLINE
  5
12ED
330
A
100
AcDbEntity
  8
SOLDERMASK_PADS_BTM
100
AcDbPolyline
 90
        4
 70
     1
 43
0.0
 10
2747.0
 20
-4303.999
 10
2747.0
 20
-3803.999000000001
 10
3123.0
 20
-3803.999000000001
 10
3123.0
 20
-4303.999
  0
LWPOLYLINE
  5
12EE
330
A
100
AcDbEntity
  8
SOLDERMASK_PADS_BTM
100
AcDbPolyline
 90
        4
 70
     1
 43
0.0
 10
1921.0
 20
-4303.999
 10
1921.0
 20
-3803.999000000001
 10
2297.0
 20
-3803.999000000001
 10
2297.0
 20
-4303.999
  0
LWPOLYLINE
  5
12EF
330
A
100
AcDbEntity
  8
SOLDERMASK_PADS_BTM
100
AcDbPolyline
 90
        4
 70
     1
 43
0.0
 10
1921.0
 20
6050.0
 10
1921.0
 20
6550.0
 10
2297.0
 20
6550.0
 10
2297.0
 20
6050.0
  0
LWPOLYLINE
  5
12F0
330
A
100
AcDbEntity
  8
SOLDERMASK_PADS_BTM
100
AcDbPolyline
 90
        4
 70
     1
 43
0.0
 10
2747.0
 20
6050.0
 10
2747.0
 20
6550.0
 10
3123.0
 20
6550.0
 10
3123.0
 20
6050.0
  0
LWPOLYLINE
  5
12F1
330
A
100
AcDbEntity
  8
SOLDERMASK_PADS_BTM
100
AcDbPolyline
 90
        4
 70
     1
 43
0.0
 10
468.998
 20
-2396.0
 10
468.998
 20
-1896.0
 10
844.998
 20
-1896.0
 10
844.998
 20
-2396.0
  0
LWPOLYLINE
  5
12F2
330
A
100
AcDbEntity
  8
SOLDERMASK_PADS_BTM
100
AcDbPolyline
 90
        4
 70
     1
 43
0.0
 10
1294.998
 20
-2396.0
 10
1294.998
 20
-1896.0
 10
1670.998
 20
-1896.0
 10
1670.998
 20
-2396.0
  0
LWPOLYLINE
  5
12F3
330
A
100
AcDbEntity
  8
SOLDERMASK_PADS_BTM
100
AcDbPolyline
 90
        4
 70
     1
 43
0.0
 10
4199.002000000001
 20
-5451.995
 10
4199.002000000001
 20
-4951.995
 10
4575.002
 20
-4951.995
 10
4575.002
 20
-5451.995
  0
LWPOLYLINE
  5
12F4
330
A
100
AcDbEntity
  8
SOLDERMASK_PADS_BTM
100
AcDbPolyline
 90
        4
 70
     1
 43
0.0
 10
3373.002
 20
-5451.995
 10
3373.002
 20
-4951.995
 10
3749.002
 20
-4951.995
 10
3749.002
 20
-5451.995
  0
LWPOLYLINE
  5
12F5
330
A
100
AcDbEntity
  8
SOLDERMASK_PADS_BTM
100
AcDbPolyline
 90
        4
 70
     1
 43
0.0
 10
468.998
 20
805.0
 10
468.998
 20
1305.0
 10
844.998
 20
1305.0
 10
844.998
 20
805.0
  0
LWPOLYLINE
  5
12F6
330
A
100
AcDbEntity
  8
SOLDERMASK_PADS_BTM
100
AcDbPolyline
 90
        4
 70
     1
 43
0.0
 10
1294.998
 20
805.0
 10
1294.998
 20
1305.0
 10
1670.998
 20
1305.0
 10
1670.998
 20
805.0
  0
LWPOLYLINE
  5
12F7
330
A
100
AcDbEntity
  8
SOLDERMASK_PADS_BTM
100
AcDbPolyline
 90
        4
 70
     1
 43
0.0
 10
-2435.0
 20
-2396.0
 10
-2435.0
 20
-1896.0
 10
-2059.0
 20
-1896.0
 10
-2059.0
 20
-2396.0
  0
LWPOLYLINE
  5
12F8
330
A
100
AcDbEntity
  8
SOLDERMASK_PADS_BTM
100
AcDbPolyline
 90
        4
 70
     1
 43
0.0
 10
-1609.0
 20
-2396.0
 10
-1609.0
 20
-1896.0
 10
-1233.0
 20
-1896.0
 10
-1233.0
 20
-2396.0
  0
LWPOLYLINE
  5
12F9
330
A
100
AcDbEntity
  8
SOLDERMASK_PADS_BTM
100
AcDbPolyline
 90
        4
 70
     1
 43
0.0
 10
468.998
 20
3779.0
 10
468.998
 20
4279.0
 10
844.998
 20
4279.0
 10
844.998
 20
3779.0
  0
LWPOLYLINE
  5
12FA
330
A
100
AcDbEntity
  8
SOLDERMASK_PADS_BTM
100
AcDbPolyline
 90
        4
 70
     1
 43
0.0
 10
1294.998
 20
3779.0
 10
1294.998
 20
4279.0
 10
1670.998
 20
4279.0
 10
1670.998
 20
3779.0
  0
LWPOLYLINE
  5
12FB
330
A
100
AcDbEntity
  8
SOLDERMASK_PADS_BTM
100
AcDbPolyline
 90
        4
 70
     1
 43
0.0
 10
-2435.0
 20
805.0
 10
-2435.0
 20
1305.0
 10
-2059.0
 20
1305.0
 10
-2059.0
 20
805.0
  0
LWPOLYLINE
  5
12FC
330
A
100
AcDbEntity
  8
SOLDERMASK_PADS_BTM
100
AcDbPolyline
 90
        4
 70
     1
 43
0.0
 10
-1609.0
 20
805.0
 10
-1609.0
 20
1305.0
 10
-1233.0
 20
1305.0
 10
-1233.0
 20
805.0
  0
LWPOLYLINE
  5
12FD
330
A
100
AcDbEntity
  8
SOLDERMASK_PADS_BTM
100
AcDbPolyline
 90
        4
 70
     1
 43
0.0
 10
1294.998
 20
6100.0
 10
1294.998
 20
6600.0
 10
1670.998
 20
6600.0
 10
1670.998
 20
6100.0
  0
LWPOLYLINE
  5
12FE
330
A
100
AcDbEntity
  8
SOLDERMASK_PADS_BTM
100
AcDbPolyline
 90
        4
 70
     1
 43
0.0
 10
468.998
 20
6100.0
 10
468.998
 20
6600.0
 10
844.998
 20
6600.0
 10
844.998
 20
6100.0
  0
LWPOLYLINE
  5
12FF
330
A
100
AcDbEntity
  8
SOLDERMASK_PADS_BTM
100
AcDbPolyline
 90
        4
 70
     1
 43
0.0
 10
-2435.0
 20
3779.0
 10
-2435.0
 20
4279.0
 10
-2059.0
 20
4279.0
 10
-2059.0
 20
3779.0
  0
LWPOLYLINE
  5
1300
330
A
100
AcDbEntity
  8
SOLDERMASK_PADS_BTM
100
AcDbPolyline
 90
        4
 70
     1
 43
0.0
 10
-1609.0
 20
3779.0
 10
-1609.0
 20
4279.0
 10
-1233.0
 20
4279.0
 10
-1233.0
 20
3779.0
  0
LWPOLYLINE
  5
1301
330
A
100
AcDbEntity
  8
SOLDERMASK_PADS_BTM
100
AcDbPolyline
 90
        4
 70
     1
 43
0.0
 10
-8243.0
 20
-3600.0
 10
-8243.0
 20
-3100.0
 10
-7867.0
 20
-3100.0
 10
-7867.0
 20
-3600.0
  0
LWPOLYLINE
  5
1302
330
A
100
AcDbEntity
  8
SOLDERMASK_PADS_BTM
100
AcDbPolyline
 90
        4
 70
     1
 43
0.0
 10
-7417.0
 20
-3600.0
 10
-7417.0
 20
-3100.0
 10
-7041.0
 20
-3100.0
 10
-7041.0
 20
-3600.0
  0
LWPOLYLINE
  5
1303
330
A
100
AcDbEntity
  8
SOLDERMASK_PADS_BTM
100
AcDbPolyline
 90
        4
 70
     1
 43
0.0
 10
125.0
 20
7600.0
 10
125.0
 20
8100.0
 10
501.0
 20
8100.0
 10
501.0
 20
7600.0
  0
LWPOLYLINE
  5
1304
330
A
100
AcDbEntity
  8
SOLDERMASK_PADS_BTM
100
AcDbPolyline
 90
        4
 70
     1
 43
0.0
 10
951.0
 20
7600.0
 10
951.0
 20
8100.0
 10
1327.0
 20
8100.0
 10
1327.0
 20
7600.0
  0
LWPOLYLINE
  5
1305
330
A
100
AcDbEntity
  8
SOLDERMASK_PADS_BTM
100
AcDbPolyline
 90
        4
 70
     1
 43
0.0
 10
-1609.0
 20
6100.0
 10
-1609.0
 20
6600.0
 10
-1233.0
 20
6600.0
 10
-1233.0
 20
6100.0
  0
LWPOLYLINE
  5
1306
330
A
100
AcDbEntity
  8
SOLDERMASK_PADS_BTM
100
AcDbPolyline
 90
        4
 70
     1
 43
0.0
 10
-2435.0
 20
6100.0
 10
-2435.0
 20
6600.0
 10
-2059.0
 20
6600.0
 10
-2059.0
 20
6100.0
  0
LWPOLYLINE
  5
1307
330
A
100
AcDbEntity
  8
SOLDERMASK_PADS_BTM
100
AcDbPolyline
 90
        4
 70
     1
 43
0.0
 10
-2779.0
 20
7600.0
 10
-2779.0
 20
8100.0
 10
-2403.0
 20
8100.0
 10
-2403.0
 20
7600.0
  0
LWPOLYLINE
  5
1308
330
A
100
AcDbEntity
  8
SOLDERMASK_PADS_BTM
100
AcDbPolyline
 90
        4
 70
     1
 43
0.0
 10
-1953.0
 20
7600.0
 10
-1953.0
 20
8100.0
 10
-1577.0
 20
8100.0
 10
-1577.0
 20
7600.0
  0
LWPOLYLINE
  5
1309
330
A
100
AcDbEntity
  8
SOLDERMASK_PADS_BTM
100
AcDbPolyline
 90
        4
 70
     1
 43
0.0
 10
-5965.0
 20
-2396.0
 10
-5965.0
 20
-1896.0
 10
-5589.0
 20
-1896.0
 10
-5589.0
 20
-2396.0
  0
LWPOLYLINE
  5
130A
330
A
100
AcDbEntity
  8
SOLDERMASK_PADS_BTM
100
AcDbPolyline
 90
        4
 70
     1
 43
0.0
 10
-6791.0
 20
-2396.0
 10
-6791.0
 20
-1896.0
 10
-6415.0
 20
-1896.0
 10
-6415.0
 20
-2396.0
  0
LWPOLYLINE
  5
130B
330
A
100
AcDbEntity
  8
SOLDERMASK_PADS_BTM
100
AcDbPolyline
 90
        4
 70
     1
 43
0.0
 10
-6791.0
 20
-3453.995
 10
-6791.0
 20
-2953.995
 10
-6415.0
 20
-2953.995
 10
-6415.0
 20
-3453.995
  0
LWPOLYLINE
  5
130C
330
A
100
AcDbEntity
  8
SOLDERMASK_PADS_BTM
100
AcDbPolyline
 90
        4
 70
     1
 43
0.0
 10
-5965.0
 20
-3453.995
 10
-5965.0
 20
-2953.995
 10
-5589.0
 20
-2953.995
 10
-5589.0
 20
-3453.995
  0
LWPOLYLINE
  5
130D
330
A
100
AcDbEntity
  8
SOLDERMASK_PADS_BTM
100
AcDbPolyline
 90
        4
 70
     1
 43
0.0
 10
-5339.0
 20
-8100.0
 10
-5339.0
 20
-7600.0
 10
-4963.0
 20
-7600.0
 10
-4963.0
 20
-8100.0
  0
LWPOLYLINE
  5
130E
330
A
100
AcDbEntity
  8
SOLDERMASK_PADS_BTM
100
AcDbPolyline
 90
        4
 70
     1
 43
0.0
 10
-4513.0
 20
-8100.0
 10
-4513.0
 20
-7600.0
 10
-4137.0
 20
-7600.0
 10
-4137.0
 20
-8100.0
  0
LWPOLYLINE
  5
130F
330
A
100
AcDbEntity
  8
SOLDERMASK_PADS_BTM
100
AcDbPolyline
 90
        4
 70
     1
 43
0.0
 10
3373.002
 20
-1248.0
 10
3373.002
 20
-748.0
 10
3749.002
 20
-748.0
 10
3749.002
 20
-1248.0
  0
LWPOLYLINE
  5
1310
330
A
100
AcDbEntity
  8
SOLDERMASK_PADS_BTM
100
AcDbPolyline
 90
        4
 70
     1
 43
0.0
 10
4199.002000000001
 20
-1248.0
 10
4199.002000000001
 20
-748.0
 10
4575.002
 20
-748.0
 10
4575.002
 20
-1248.0
  0
LWPOLYLINE
  5
1311
330
A
100
AcDbEntity
  8
SOLDERMASK_PADS_BTM
100
AcDbPolyline
 90
        4
 70
     1
 43
0.0
 10
7103.0
 20
-4100.0
 10
7103.0
 20
-3600.0
 10
7479.0
 20
-3600.0
 10
7479.0
 20
-4100.0
  0
LWPOLYLINE
  5
1312
330
A
100
AcDbEntity
  8
SOLDERMASK_PADS_BTM
100
AcDbPolyline
 90
        4
 70
     1
 43
0.0
 10
6277.0
 20
-4100.0
 10
6277.0
 20
-3600.0
 10
6653.0
 20
-3600.0
 10
6653.0
 20
-4100.0
  0
LWPOLYLINE
  5
1313
330
A
100
AcDbEntity
  8
SOLDERMASK_PADS_BTM
100
AcDbPolyline
 90
        4
 70
     1
 43
0.0
 10
-7417.0
 20
1917.213
 10
-7417.0
 20
2417.213
 10
-7041.0
 20
2417.213
 10
-7041.0
 20
1917.213
  0
LWPOLYLINE
  5
1314
330
A
100
AcDbEntity
  8
SOLDERMASK_PADS_BTM
100
AcDbPolyline
 90
        4
 70
     1
 43
0.0
 10
-8243.0
 20
1917.213
 10
-8243.0
 20
2417.213
 10
-7867.0
 20
2417.213
 10
-7867.0
 20
1917.213
  0
LWPOLYLINE
  5
1315
330
A
100
AcDbEntity
  8
SOLDERMASK_PADS_BTM
100
AcDbPolyline
 90
        4
 70
     1
 43
0.0
 10
-5965.0
 20
-7350.0
 10
-5965.0
 20
-6850.0
 10
-5589.0
 20
-6850.0
 10
-5589.0
 20
-7350.0
  0
LWPOLYLINE
  5
1316
330
A
100
AcDbEntity
  8
SOLDERMASK_PADS_BTM
100
AcDbPolyline
 90
        4
 70
     1
 43
0.0
 10
-6791.0
 20
-7350.0
 10
-6791.0
 20
-6850.0
 10
-6415.0
 20
-6850.0
 10
-6415.0
 20
-7350.0
  0
INSERT
  5
1391
102
{ACAD_REACTORS
330
1393
102
}
330
A
100
AcDbEntity
  8
0
  6
CENTER2
100
AcDbBlockReference
  2
*U0
 10
0.0
 20
0.0
 30
0.0
  0
INSERT
  5
139E
102
{ACAD_REACTORS
330
139F
102
}
330
A
100
AcDbEntity
  8
0
  6
CENTER2
100
AcDbBlockReference
  2
*U1
 10
0.0
 20
0.0
 30
0.0
  0
ENDSEC
  0
SECTION
  2
OBJECTS
  0
DICTIONARY
  5
16
330
0
100
AcDbDictionary
281
     1
  3
ACAD_ASSOCNETWORK
350
1386
  3
ACAD_CIP_PREVIOUS_PRODUCT_INFO
350
1373
  3
ACAD_COLOR
350
1352
  3
ACAD_DETAILVIEWSTYLE
350
136C
  3
ACAD_GROUP
350
17
  3
ACAD_LAYOUT
350
1353
  3
ACAD_MATERIAL
350
1320
  3
ACAD_MLEADERSTYLE
350
1368
  3
ACAD_MLINESTYLE
350
18
  3
ACAD_PLOTSETTINGS
350
136E
  3
ACAD_PLOTSTYLENAME
350
131E
  3
ACAD_SCALELIST
350
1356
  3
ACAD_SECTIONVIEWSTYLE
350
136A
  3
ACAD_TABLESTYLE
350
1354
  3
ACAD_VISUALSTYLE
350
1339
  3
ACDB_RECOMPOSE_DATA
350
13B5
  3
AcDbVariableDictionary
350
13A9
  3
ASE_INDEX_DICTIONARY
350
1375
  0
DICTIONARY
  5
13A1
330
1317
100
AcDbDictionary
280
     1
281
     1
  3
ADSK_XREC_LAYER_RECONCILED
360
13A2
  0
DICTIONARY
  5
13A3
330
1318
100
AcDbDictionary
280
     1
281
     1
  3
ADSK_XREC_LAYER_RECONCILED
360
13A4
  0
DICTIONARY
  5
13A5
330
1319
100
AcDbDictionary
280
     1
281
     1
  3
ADSK_XREC_LAYER_RECONCILED
360
13A6
  0
DICTIONARY
  5
13A7
330
131A
100
AcDbDictionary
280
     1
281
     1
  3
ADSK_XREC_LAYER_RECONCILED
360
13A8
  0
DICTIONARY
  5
1383
330
A
100
AcDbDictionary
280
     1
281
     1
  3
ACAD_ASSOCNETWORK
360
1384
  0
DICTIONARY
  5
1386
102
{ACAD_REACTORS
330
16
102
}
330
16
100
AcDbDictionary
281
     1
  3
ACAD_ASSOCNETWORK
350
1387
  0
XRECORD
  5
1373
102
{ACAD_REACTORS
330
16
102
}
330
16
100
AcDbXrecord
280
     1
300
ACD
300
2021
300

  0
DICTIONARY
  5
1352
102
{ACAD_REACTORS
330
16
102
}
330
16
100
AcDbDictionary
281
     1
  0
DICTIONARY
  5
136C
102
{ACAD_REACTORS
330
16
102
}
330
16
100
AcDbDictionary
281
     1
  3
Imperial24
350
136D
  0
DICTIONARY
  5
17
102
{ACAD_REACTORS
330
16
102
}
330
16
100
AcDbDictionary
281
     1
  0
DICTIONARY
  5
1353
102
{ACAD_REACTORS
330
16
102
}
330
16
100
AcDbDictionary
281
     1
  3
Layout1
350
1370
  3
Model
350
136F
  0
DICTIONARY
  5
1320
102
{ACAD_REACTORS
330
16
102
}
330
16
100
AcDbDictionary
281
     1
  3
ByBlock
350
1329
  3
ByLayer
350
1321
  3
Global
350
1331
  0
DICTIONARY
  5
1368
102
{ACAD_REACTORS
330
16
102
}
330
16
100
AcDbDictionary
281
     1
  3
Standard
350
1369
  0
DICTIONARY
  5
18
102
{ACAD_REACTORS
330
16
102
}
330
16
100
AcDbDictionary
281
     1
  3
STANDARD
350
19
  0
DICTIONARY
  5
136E
102
{ACAD_REACTORS
330
16
102
}
330
16
100
AcDbDictionary
281
     1
  0
ACDBDICTIONARYWDFLT
  5
131E
102
{ACAD_REACTORS
330
16
102
}
330
16
100
AcDbDictionary
281
     1
  3
Normal
350
131F
100
AcDbDictionaryWithDefault
340
131F
  0
DICTIONARY
  5
1356
102
{ACAD_REACTORS
330
16
102
}
330
16
100
AcDbDictionary
281
     1
  3
A0
350
1357
  3
A1
350
1358
  3
A2
350
1359
  3
A3
350
135A
  3
A4
350
135B
  3
A5
350
135C
  3
A6
350
135D
  3
A7
350
135E
  3
A8
350
135F
  3
A9
350
1360
  3
B0
350
1361
  3
B1
350
1362
  3
B2
350
1363
  3
B3
350
1364
  3
B4
350
1365
  3
B5
350
1366
  3
B6
350
1367
  0
DICTIONARY
  5
136A
102
{ACAD_REACTORS
330
16
102
}
330
16
100
AcDbDictionary
281
     1
  3
Imperial24
350
136B
  0
DICTIONARY
  5
1354
102
{ACAD_REACTORS
330
16
102
}
330
16
100
AcDbDictionary
281
     1
  3
Standard
350
1355
  0
DICTIONARY
  5
1339
102
{ACAD_REACTORS
330
16
102
}
330
16
100
AcDbDictionary
281
     1
  3
2dWireframe
350
133F
  3
Basic
350
133E
  3
Brighten
350
1345
  3
ColorChange
350
1349
  3
Conceptual
350
1342
  3
Dim
350
1344
  3
EdgeColorOff
350
1351
  3
Facepattern
350
1348
  3
Flat
350
133A
  3
FlatWithEdges
350
133B
  3
Gouraud
350
133C
  3
GouraudWithEdges
350
133D
  3
Hidden
350
1341
  3
JitterOff
350
134F
  3
Linepattern
350
1347
  3
OverhangOff
350
1350
  3
Realistic
350
1343
  3
Shaded
350
134E
  3
Shaded with edges
350
134D
  3
Shades of Gray
350
134A
  3
Sketchy
350
134B
  3
Thicken
350
1346
  3
Wireframe
350
1340
  3
X-Ray
350
134C
  0
XRECORD
  5
13B5
102
{ACAD_REACTORS
330
16
102
}
330
16
100
AcDbXrecord
280
     1
 90
        1
330
1355
  0
DICTIONARY
  5
13A9
102
{ACAD_REACTORS
330
16
102
}
330
16
100
AcDbDictionary
281
     1
  3
CANNOSCALE
350
13AF
  3
CMLEADERSTYLE
350
13AB
  3
CTABLESTYLE
350
13AA
  3
CVIEWDETAILSTYLE
350
13AC
  3
CVIEWSECTIONSTYLE
350
13AD
  3
LAYEREVAL
350
13B1
  3
LAYERNOTIFY
350
13B2
  3
LIGHTINGUNITS
350
13B0
  3
MSLTSCALE
350
13AE
  0
DICTIONARY
  5
1375
102
{ACAD_REACTORS
330
16
102
}
330
16
100
AcDbDictionary
281
     1
  3
ASEBlockHierarchyIndexRecord
350
1377
1001
DCO15
1040
2080633986.0
  0
XRECORD
  5
13A2
102
{ACAD_REACTORS
330
13A1
102
}
330
13A1
100
AcDbXrecord
280
     1
290
     1
  0
XRECORD
  5
13A4
102
{ACAD_REACTORS
330
13A3
102
}
330
13A3
100
AcDbXrecord
280
     1
290
     1
  0
XRECORD
  5
13A6
102
{ACAD_REACTORS
330
13A5
102
}
330
13A5
100
AcDbXrecord
280
     1
290
     1
  0
XRECORD
  5
13A8
102
{ACAD_REACTORS
330
13A7
102
}
330
13A7
100
AcDbXrecord
280
     1
290
     1
  0
DICTIONARY
  5
1384
102
{ACAD_REACTORS
330
1383
102
}
330
1383
100
AcDbDictionary
281
     1
  3
ACAD_ASSOCNETWORK
350
1385
  0
ACDBASSOCNETWORK
  5
1387
102
{ACAD_REACTORS
330
1386
102
}
330
1386
100
AcDbAssocAction
 90
        2
 90
        0
330
0
360
0
 90
        0
 90
        0
 90
        0
 90
        0
 90
        0
 90
        0
 90
        0
100
AcDbAssocNetwork
 90
        0
 90
        1
 90
        1
330
1385
 90
        0
  0
ACDBDETAILVIEWSTYLE
  5
136D
102
{ACAD_REACTORS
330
136C
102
}
330
136C
100
AcDbModelDocViewStyle
 70
     0
  3
Imperial24
290
     0
300
Imperial24
 90
        0
100
AcDbDetailViewStyle
 70
     0
 71
     0
 90
        3
 71
     1
340
131B
 62
   256
 40
0.24
340
0
 62
   256
 40
0.24
300

 40
0.36
280
     3
 71
     2
340
12
 90
       25
 62
   256
 71
     3
340
131B
 62
   256
 40
0.24
 90
        1
 40
0.75
 90
        1
300
%<\AcVar ViewType \f "%tc1">% %<\AcVar ViewDetailId>%\PSCALE %<\AcVar ViewScale \f "%sn">%
 71
     4
340
12
 90
       25
 62
   256
340
12
 90
       25
 62
   256
280
     0
  0
LAYOUT
  5
1370
102
{ACAD_REACTORS
330
1353
102
}
330
1353
100
AcDbPlotSettings
  1

  2
Intel Cloud Print
  4

  6

 40
0.0
 41
0.0
 42
0.0
 43
0.0
 44
0.0
 45
0.0
 46
0.0
 47
0.0
 48
0.0
 49
0.0
140
0.0
141
0.0
142
1.0
143
1.0
 70
   688
 72
     0
 73
     0
 74
     5
  7

 75
    16
147
1.0
 76
     0
 77
     2
 78
   300
148
0.0
149
0.0
100
AcDbLayout
  1
Layout1
 70
     0
 71
     1
 10
0.0
 20
0.0
 11
12.0
 21
9.0
 12
0.0
 22
0.0
 32
0.0
 14
1.000000000000000E+20
 24
1.000000000000000E+20
 34
1.000000000000000E+20
 15
-1.000000000000000E+20
 25
-1.000000000000000E+20
 35
-1.000000000000000E+20
146
0.0
 13
0.0
 23
0.0
 33
0.0
 16
1.0
 26
0.0
 36
0.0
 17
0.0
 27
1.0
 37
0.0
 76
     0
330
B
  0
LAYOUT
  5
136F
102
{ACAD_REACTORS
330
1353
102
}
330
1353
100
AcDbPlotSettings
  1

  2
Intel Cloud Print
  4

  6

 40
0.0
 41
0.0
 42
0.0
 43
0.0
 44
0.0
 45
0.0
 46
0.0
 47
0.0
 48
0.0
 49
0.0
140
0.0
141
0.0
142
1.0
143
1.0
 70
  1712
 72
     0
 73
     0
 74
     0
  7

 75
     0
147
1.0
 76
     0
 77
     2
 78
   300
148
0.0
149
0.0
100
AcDbLayout
  1
Model
 70
     1
 71
     0
 10
0.0
 20
0.0
 11
12.0
 21
9.0
 12
0.0
 22
0.0
 32
0.0
 14
0.0
 24
0.0
 34
0.0
 15
0.0
 25
0.0
 35
0.0
146
0.0
 13
0.0
 23
0.0
 33
0.0
 16
1.0
 26
0.0
 36
0.0
 17
0.0
 27
1.0
 37
0.0
 76
     0
330
A
331
13
  0
MATERIAL
  5
1329
102
{ACAD_XDICTIONARY
360
132A
102
}
102
{ACAD_REACTORS
330
1320
102
}
330
1320
100
AcDbMaterial
  1
ByBlock
 72
     0
 43
0.0208333333333333
 43
0.0
 43
0.0
 43
0.0
 43
0.0
 43
0.0208333333333333
 43
0.0
 43
0.0
 43
0.0
 43
0.0
 43
1.0
 43
0.0
 43
0.0
 43
0.0
 43
0.0
 43
1.0
 77
     0
 47
0.0208333333333333
 47
0.0
 47
0.0
 47
0.0
 47
0.0
 47
0.0208333333333333
 47
0.0
 47
0.0
 47
0.0
 47
0.0
 47
1.0
 47
0.0
 47
0.0
 47
0.0
 47
0.0
 47
1.0
171
     0
 49
0.0208333333333333
 49
0.0
 49
0.0
 49
0.0
 49
0.0
 49
0.0208333333333333
 49
0.0
 49
0.0
 49
0.0
 49
0.0
 49
1.0
 49
0.0
 49
0.0
 49
0.0
 49
0.0
 49
1.0
175
     0
142
0.0208333333333333
142
0.0
142
0.0
142
0.0
142
0.0
142
0.0208333333333333
142
0.0
142
0.0
142
0.0
142
0.0
142
1.0
142
0.0
142
0.0
142
0.0
142
0.0
142
1.0
179
     0
144
0.0208333333333333
144
0.0
144
0.0
144
0.0
144
0.0
144
0.0208333333333333
144
0.0
144
0.0
144
0.0
144
0.0
144
1.0
144
0.0
144
0.0
144
0.0
144
0.0
144
1.0
147
0.0208333333333333
147
0.0
147
0.0
147
0.0
147
0.0
147
0.0208333333333333
147
0.0
147
0.0
147
0.0
147
0.0
147
1.0
147
0.0
147
0.0
147
0.0
147
0.0
147
1.0
  0
MATERIAL
  5
1321
102
{ACAD_XDICTIONARY
360
1322
102
}
102
{ACAD_REACTORS
330
1320
102
}
330
1320
100
AcDbMaterial
  1
ByLayer
 72
     0
 43
0.0208333333333333
 43
0.0
 43
0.0
 43
0.0
 43
0.0
 43
0.0208333333333333
 43
0.0
 43
0.0
 43
0.0
 43
0.0
 43
1.0
 43
0.0
 43
0.0
 43
0.0
 43
0.0
 43
1.0
 77
     0
 47
0.0208333333333333
 47
0.0
 47
0.0
 47
0.0
 47
0.0
 47
0.0208333333333333
 47
0.0
 47
0.0
 47
0.0
 47
0.0
 47
1.0
 47
0.0
 47
0.0
 47
0.0
 47
0.0
 47
1.0
171
     0
 49
0.0208333333333333
 49
0.0
 49
0.0
 49
0.0
 49
0.0
 49
0.0208333333333333
 49
0.0
 49
0.0
 49
0.0
 49
0.0
 49
1.0
 49
0.0
 49
0.0
 49
0.0
 49
0.0
 49
1.0
175
     0
142
0.0208333333333333
142
0.0
142
0.0
142
0.0
142
0.0
142
0.0208333333333333
142
0.0
142
0.0
142
0.0
142
0.0
142
1.0
142
0.0
142
0.0
142
0.0
142
0.0
142
1.0
179
     0
144
0.0208333333333333
144
0.0
144
0.0
144
0.0
144
0.0
144
0.0208333333333333
144
0.0
144
0.0
144
0.0
144
0.0
144
1.0
144
0.0
144
0.0
144
0.0
144
0.0
144
1.0
147
0.0208333333333333
147
0.0
147
0.0
147
0.0
147
0.0
147
0.0208333333333333
147
0.0
147
0.0
147
0.0
147
0.0
147
1.0
147
0.0
147
0.0
147
0.0
147
0.0
147
1.0
  0
MATERIAL
  5
1331
102
{ACAD_XDICTIONARY
360
1332
102
}
102
{ACAD_REACTORS
330
1320
102
}
330
1320
100
AcDbMaterial
  1
Global
 72
     0
 43
0.0208333333333333
 43
0.0
 43
0.0
 43
0.0
 43
0.0
 43
0.0208333333333333
 43
0.0
 43
0.0
 43
0.0
 43
0.0
 43
1.0
 43
0.0
 43
0.0
 43
0.0
 43
0.0
 43
1.0
 77
     0
 47
0.0208333333333333
 47
0.0
 47
0.0
 47
0.0
 47
0.0
 47
0.0208333333333333
 47
0.0
 47
0.0
 47
0.0
 47
0.0
 47
1.0
 47
0.0
 47
0.0
 47
0.0
 47
0.0
 47
1.0
171
     0
 49
0.0208333333333333
 49
0.0
 49
0.0
 49
0.0
 49
0.0
 49
0.0208333333333333
 49
0.0
 49
0.0
 49
0.0
 49
0.0
 49
1.0
 49
0.0
 49
0.0
 49
0.0
 49
0.0
 49
1.0
175
     0
142
0.0208333333333333
142
0.0
142
0.0
142
0.0
142
0.0
142
0.0208333333333333
142
0.0
142
0.0
142
0.0
142
0.0
142
1.0
142
0.0
142
0.0
142
0.0
142
0.0
142
1.0
179
     0
144
0.0208333333333333
144
0.0
144
0.0
144
0.0
144
0.0
144
0.0208333333333333
144
0.0
144
0.0
144
0.0
144
0.0
144
1.0
144
0.0
144
0.0
144
0.0
144
0.0
144
1.0
147
0.0208333333333333
147
0.0
147
0.0
147
0.0
147
0.0
147
0.0208333333333333
147
0.0
147
0.0
147
0.0
147
0.0
147
1.0
147
0.0
147
0.0
147
0.0
147
0.0
147
1.0
  0
MLEADERSTYLE
  5
1369
102
{ACAD_REACTORS
330
1368
102
}
330
1368
100
AcDbMLeaderStyle
179
     2
170
     2
171
     1
172
     0
 90
        2
 40
0.0
 41
0.0
173
     1
 91
-1056964608
340
10
 92
       -2
290
     1
 42
0.09
291
     1
 43
0.36
  3
Standard
 44
0.18
300

342
131B
174
     1
178
     6
175
     1
176
     0
 93
-1056964608
 45
0.18
292
     0
297
     0
 46
0.18
 94
-1056964608
 47
1.0
 49
1.0
140
1.0
293
     1
141
0.0
294
     1
177
     0
142
1.0
295
     0
296
     0
143
0.125
271
     0
272
     9
273
     9
298
     0
  0
MLINESTYLE
  5
19
102
{ACAD_REACTORS
330
18
102
}
330
18
100
AcDbMlineStyle
  2
STANDARD
 70
     0
  3

 62
     0
 51
90.0
 52
90.0
 71
     2
 49
0.5
 62
   256
  6
BYLAYER
 49
-0.5
 62
   256
  6
BYLAYER
  0
ACDBPLACEHOLDER
  5
131F
102
{ACAD_REACTORS
330
131E
102
}
330
131E
  0
SCALE
  5
1357
102
{ACAD_REACTORS
330
1356
102
}
330
1356
100
AcDbScale
 70
     0
300
1:1
140
1.0
141
1.0
290
     1
  0
SCALE
  5
1358
102
{ACAD_REACTORS
330
1356
102
}
330
1356
100
AcDbScale
 70
     0
300
1/128" = 1'-0"
140
0.0078125
141
12.0
290
     0
  0
SCALE
  5
1359
102
{ACAD_REACTORS
330
1356
102
}
330
1356
100
AcDbScale
 70
     0
300
1/64" = 1'-0"
140
0.015625
141
12.0
290
     0
  0
SCALE
  5
135A
102
{ACAD_REACTORS
330
1356
102
}
330
1356
100
AcDbScale
 70
     0
300
1/32" = 1'-0"
140
0.03125
141
12.0
290
     0
  0
SCALE
  5
135B
102
{ACAD_REACTORS
330
1356
102
}
330
1356
100
AcDbScale
 70
     0
300
1/16" = 1'-0"
140
0.0625
141
12.0
290
     0
  0
SCALE
  5
135C
102
{ACAD_REACTORS
330
1356
102
}
330
1356
100
AcDbScale
 70
     0
300
3/32" = 1'-0"
140
0.09375
141
12.0
290
     0
  0
SCALE
  5
135D
102
{ACAD_REACTORS
330
1356
102
}
330
1356
100
AcDbScale
 70
     0
300
1/8" = 1'-0"
140
0.125
141
12.0
290
     0
  0
SCALE
  5
135E
102
{ACAD_REACTORS
330
1356
102
}
330
1356
100
AcDbScale
 70
     0
300
3/16" = 1'-0"
140
0.1875
141
12.0
290
     0
  0
SCALE
  5
135F
102
{ACAD_REACTORS
330
1356
102
}
330
1356
100
AcDbScale
 70
     0
300
1/4" = 1'-0"
140
0.25
141
12.0
290
     0
  0
SCALE
  5
1360
102
{ACAD_REACTORS
330
1356
102
}
330
1356
100
AcDbScale
 70
     0
300
3/8" = 1'-0"
140
0.375
141
12.0
290
     0
  0
SCALE
  5
1361
102
{ACAD_REACTORS
330
1356
102
}
330
1356
100
AcDbScale
 70
     0
300
1/2" = 1'-0"
140
0.5
141
12.0
290
     0
  0
SCALE
  5
1362
102
{ACAD_REACTORS
330
1356
102
}
330
1356
100
AcDbScale
 70
     0
300
3/4" = 1'-0"
140
0.75
141
12.0
290
     0
  0
SCALE
  5
1363
102
{ACAD_REACTORS
330
1356
102
}
330
1356
100
AcDbScale
 70
     0
300
1" = 1'-0"
140
1.0
141
12.0
290
     0
  0
SCALE
  5
1364
102
{ACAD_REACTORS
330
1356
102
}
330
1356
100
AcDbScale
 70
     0
300
1-1/2" = 1'-0"
140
1.5
141
12.0
290
     0
  0
SCALE
  5
1365
102
{ACAD_REACTORS
330
1356
102
}
330
1356
100
AcDbScale
 70
     0
300
3" = 1'-0"
140
3.0
141
12.0
290
     0
  0
SCALE
  5
1366
102
{ACAD_REACTORS
330
1356
102
}
330
1356
100
AcDbScale
 70
     0
300
6" = 1'-0"
140
6.0
141
12.0
290
     0
  0
SCALE
  5
1367
102
{ACAD_REACTORS
330
1356
102
}
330
1356
100
AcDbScale
 70
     0
300
1'-0" = 1'-0"
140
12.0
141
12.0
290
     0
  0
ACDBSECTIONVIEWSTYLE
  5
136B
102
{ACAD_REACTORS
330
136A
102
}
330
136A
100
AcDbModelDocViewStyle
 70
     0
  3
Imperial24
290
     0
300
Imperial24
 90
        0
100
AcDbSectionViewStyle
 70
     0
 71
     0
 90
       78
 71
     1
340
131B
 62
   256
 40
0.24
340
0
340
0
 62
   256
 40
0.24
300
I, O, Q, S, X, Z
 40
0.48
 90
        3
 40
0.18
 90
        1
 71
     2
340
12
 90
       25
 62
   256
340
12
 90
       50
 62
   256
 40
0.24
 40
0.0
 40
0.24
 71
     3
340
131B
 62
   256
 40
0.24
 90
        1
 40
0.75
 90
        1
300
%<\AcVar ViewType \f "%tc1">% %<\AcVar ViewSectionStartId>%-%<\AcVar ViewSectionEndId>%\PSCALE %<\AcVar ViewScale \f "%sn">%
 71
     4
 62
   256
 62
   257
300
ANSI31
 40
1.0
 90
        0
290
     0
290
     0
 90
        6
 40
0.0
 40
1.570796326794896
 40
0.2617993877991494
 40
1.308996938995747
 40
-0.2617993877991494
 40
1.832595714594046
  0
TABLESTYLE
  5
1355
102
{ACAD_XDICTIONARY
360
13B3
102
}
102
{ACAD_REACTORS
330
1354
102
}
330
1354
100
AcDbTableStyle
280
     0
  3
Standard
 70
     0
 71
     0
 40
0.06
 41
0.06
280
     0
281
     0
  7
STANDARD
140
0.18
170
     2
 62
     0
 63
     7
283
     0
 90
      512
 91
        0
  1

274
    -2
284
     1
 64
     0
275
    -2
285
     1
 65
     0
276
    -2
286
     1
 66
     0
277
    -2
287
     1
 67
     0
278
    -2
288
     1
 68
     0
279
    -2
289
     1
 69
     0
  7
STANDARD
140
0.25
170
     5
 62
     0
 63
     7
283
     0
 90
      512
 91
        0
  1

274
    -2
284
     1
 64
     0
275
    -2
285
     1
 65
     0
276
    -2
286
     1
 66
     0
277
    -2
287
     1
 67
     0
278
    -2
288
     1
 68
     0
279
    -2
289
     1
 69
     0
  7
STANDARD
140
0.18
170
     5
 62
     0
 63
     7
283
     0
 90
      512
 91
        0
  1

274
    -2
284
     1
 64
     0
275
    -2
285
     1
 65
     0
276
    -2
286
     1
 66
     0
277
    -2
287
     1
 67
     0
278
    -2
288
     1
 68
     0
279
    -2
289
     1
 69
     0
  0
VISUALSTYLE
  5
133F
102
{ACAD_REACTORS
330
1339
102
}
330
1339
100
AcDbVisualStyle
  2
2dWireframe
 70
     4
177
     3
291
     0
 70
    58
 90
        0
176
     1
 90
        2
176
     1
 90
        0
176
     1
 90
        0
176
     1
 40
0.6
176
     1
 40
30.0
176
     1
 62
     7
420
 16777215
176
     1
 90
        1
176
     1
 90
        4
176
     1
 62
     7
176
     1
 62
   257
176
     1
 90
        1
176
     1
 90
        1
176
     1
 40
1.0
176
     1
 90
        0
176
     1
 62
   257
176
     1
 40
1.0
176
     1
 90
        1
176
     1
 90
        6
176
     1
 90
        2
176
     1
 62
     7
176
     1
 90
        5
176
     1
 90
        0
176
     1
 90
        0
176
     1
290
     0
176
     1
 90
        1
176
     1
 40
0.0
176
     1
 90
        0
176
     1
290
     1
176
     1
290
     1
176
     1
290
     0
176
     1
290
     0
176
     1
290
     0
176
     1
290
     0
176
     1
290
     0
176
     1
290
     0
176
     1
290
     0
176
     1
 90
       50
176
     1
 40
0.0
176
     1
 40
1.0
176
     1
 90
        0
176
     1
 62
    18
420
        0
176
     1
 90
       50
176
     1
 90
        3
176
     1
 62
     5
420
      255
176
     1
290
     0
176
     1
 90
       50
176
     1
 90
       50
176
     1
 90
       50
176
     1
290
     0
176
     1
 90
       50
176
     1
 62
   256
176
     0
 40
1.0
176
     0
 90
        2
176
     1
  1
strokes_ogs.tif
176
     1
290
     0
176
     1
 40
1.0
176
     1
 40
1.0
176
     1
  0
VISUALSTYLE
  5
133E
102
{ACAD_REACTORS
330
1339
102
}
330
1339
100
AcDbVisualStyle
  2
Basic
 70
     7
177
     3
291
     1
 70
    58
 90
        1
176
     1
 90
        0
176
     1
 90
        1
176
     1
 90
        0
176
     1
 40
0.6
176
     1
 40
30.0
176
     1
 62
     7
420
 16777215
176
     1
 90
        0
176
     1
 90
        4
176
     1
 62
     7
176
     1
 62
   257
176
     1
 90
        1
176
     1
 90
        1
176
     1
 40
1.0
176
     1
 90
        8
176
     1
 62
     7
176
     1
 40
1.0
176
     1
 90
        1
176
     1
 90
        6
176
     1
 90
        2
176
     1
 62
     7
176
     1
 90
        5
176
     1
 90
        0
176
     1
 90
        0
176
     1
290
     0
176
     1
 90
        1
176
     1
 40
0.0
176
     1
 90
        0
176
     1
290
     0
176
     1
290
     1
176
     1
290
     1
176
     1
290
     0
176
     1
290
     0
176
     1
290
     0
176
     1
290
     0
176
     1
290
     0
176
     1
290
     0
176
     1
 90
       50
176
     1
 40
0.0
176
     1
 40
1.0
176
     1
 90
        0
176
     1
 62
    18
420
        0
176
     1
 90
       50
176
     1
 90
        3
176
     1
 62
     5
420
      255
176
     1
290
     0
176
     1
 90
       50
176
     1
 90
       50
176
     1
 90
       50
176
     1
290
     0
176
     1
 90
       50
176
     1
 62
   256
176
     0
 40
1.0
176
     0
 90
        2
176
     1
  1
strokes_ogs.tif
176
     1
290
     0
176
     1
 40
1.0
176
     1
 40
1.0
176
     1
  0
VISUALSTYLE
  5
1345
102
{ACAD_REACTORS
330
1339
102
}
330
1339
100
AcDbVisualStyle
  2
Brighten
 70
    12
177
     3
291
     1
 70
    58
 90
        2
176
     1
 90
        2
176
     1
 90
        0
176
     1
 90
        0
176
     1
 40
0.6
176
     1
 40
30.0
176
     1
 62
     7
420
 16777215
176
     1
 90
        1
176
     1
 90
        4
176
     1
 62
     7
176
     1
 62
   257
176
     1
 90
        1
176
     1
 90
        1
176
     1
 40
1.0
176
     1
 90
        8
176
     1
 62
     7
176
     1
 40
1.0
176
     1
 90
        1
176
     1
 90
        6
176
     1
 90
        2
176
     1
 62
     7
176
     1
 90
        5
176
     1
 90
        0
176
     1
 90
        0
176
     1
290
     0
176
     1
 90
        1
176
     1
 40
50.0
176
     1
 90
        0
176
     1
290
     0
176
     1
290
     1
176
     1
290
     1
176
     1
290
     0
176
     1
290
     0
176
     1
290
     0
176
     1
290
     0
176
     1
290
     0
176
     1
290
     0
176
     1
 90
       50
176
     1
 40
0.0
176
     1
 40
1.0
176
     1
 90
        0
176
     1
 62
    18
420
        0
176
     1
 90
       50
176
     1
 90
        3
176
     1
 62
     5
420
      255
176
     1
290
     0
176
     1
 90
       50
176
     1
 90
       50
176
     1
 90
       50
176
     1
290
     0
176
     1
 90
       50
176
     1
 62
   256
176
     0
 40
1.0
176
     0
 90
        2
176
     1
  1
strokes_ogs.tif
176
     1
290
     0
176
     1
 40
1.0
176
     1
 40
1.0
176
     1
  0
VISUALSTYLE
  5
1349
102
{ACAD_REACTORS
330
1339
102
}
330
1339
100
AcDbVisualStyle
  2
ColorChange
 70
    16
177
     3
291
     1
 70
    58
 90
        2
176
     1
 90
        2
176
     1
 90
        3
176
     1
 90
        0
176
     1
 40
0.6
176
     1
 40
30.0
176
     1
 62
     8
420
  8421504
176
     1
 90
        1
176
     1
 90
        4
176
     1
 62
     7
176
     1
 62
   257
176
     1
 90
        1
176
     1
 90
        1
176
     1
 40
1.0
176
     1
 90
        8
176
     1
 62
     8
420
  8421504
176
     1
 40
1.0
176
     1
 90
        1
176
     1
 90
        6
176
     1
 90
        2
176
     1
 62
     7
176
     1
 90
        5
176
     1
 90
        0
176
     1
 90
        0
176
     1
290
     0
176
     1
 90
        1
176
     1
 40
0.0
176
     1
 90
        0
176
     1
290
     0
176
     1
290
     1
176
     1
290
     1
176
     1
290
     0
176
     1
290
     0
176
     1
290
     0
176
     1
290
     0
176
     1
290
     0
176
     1
290
     0
176
     1
 90
       50
176
     1
 40
0.0
176
     1
 40
1.0
176
     1
 90
        0
176
     1
 62
    18
420
        0
176
     1
 90
       50
176
     1
 90
        3
176
     1
 62
     5
420
      255
176
     1
290
     0
176
     1
 90
       50
176
     1
 90
       50
176
     1
 90
       50
176
     1
290
     0
176
     1
 90
       50
176
     1
 62
   256
176
     0
 40
1.0
176
     0
 90
        2
176
     1
  1
strokes_ogs.tif
176
     1
290
     0
176
     1
 40
1.0
176
     1
 40
1.0
176
     1
  0
VISUALSTYLE
  5
1342
102
{ACAD_REACTORS
330
1339
102
}
330
1339
100
AcDbVisualStyle
  2
Conceptual
 70
     9
177
     3
291
     0
 70
    58
 90
        3
176
     1
 90
        2
176
     1
 90
        0
176
     1
 90
        0
176
     1
 40
0.6
176
     1
 40
30.0
176
     1
 62
     7
420
 16777215
176
     1
 90
        2
176
     1
 90
        2
176
     1
 62
     7
176
     1
 62
   257
176
     1
 90
        1
176
     1
 90
        1
176
     1
 40
179.0
176
     1
 90
        8
176
     1
 62
     7
176
     1
 40
1.0
176
     1
 90
        1
176
     1
 90
        6
176
     1
 90
        2
176
     1
 62
     7
176
     1
 90
        3
176
     1
 90
        0
176
     1
 90
        0
176
     1
290
     0
176
     1
 90
        1
176
     1
 40
0.0
176
     1
 90
        0
176
     1
290
     0
176
     1
290
     1
176
     1
290
     1
176
     1
290
     0
176
     1
290
     0
176
     1
290
     0
176
     1
290
     0
176
     1
290
     0
176
     1
290
     0
176
     1
 90
       50
176
     1
 40
0.0
176
     1
 40
1.0
176
     1
 90
        0
176
     1
 62
    18
420
        0
176
     1
 90
       50
176
     1
 90
        3
176
     1
 62
     5
420
      255
176
     1
290
     0
176
     1
 90
       50
176
     1
 90
       50
176
     1
 90
       50
176
     1
290
     0
176
     1
 90
       50
176
     1
 62
   256
176
     0
 40
1.0
176
     0
 90
        2
176
     1
  1
strokes_ogs.tif
176
     1
290
     0
176
     1
 40
1.0
176
     1
 40
1.0
176
     1
  0
VISUALSTYLE
  5
1344
102
{ACAD_REACTORS
330
1339
102
}
330
1339
100
AcDbVisualStyle
  2
Dim
 70
    11
177
     3
291
     1
 70
    58
 90
        2
176
     1
 90
        2
176
     1
 90
        0
176
     1
 90
        0
176
     1
 40
0.6
176
     1
 40
30.0
176
     1
 62
     7
420
 16777215
176
     1
 90
        1
176
     1
 90
        4
176
     1
 62
     7
176
     1
 62
   257
176
     1
 90
        1
176
     1
 90
        1
176
     1
 40
1.0
176
     1
 90
        8
176
     1
 62
     7
176
     1
 40
1.0
176
     1
 90
        1
176
     1
 90
        6
176
     1
 90
        2
176
     1
 62
     7
176
     1
 90
        5
176
     1
 90
        0
176
     1
 90
        0
176
     1
290
     0
176
     1
 90
        1
176
     1
 40
-50.0
176
     1
 90
        0
176
     1
290
     0
176
     1
290
     1
176
     1
290
     1
176
     1
290
     0
176
     1
290
     0
176
     1
290
     0
176
     1
290
     0
176
     1
290
     0
176
     1
290
     0
176
     1
 90
       50
176
     1
 40
0.0
176
     1
 40
1.0
176
     1
 90
        0
176
     1
 62
    18
420
        0
176
     1
 90
       50
176
     1
 90
        3
176
     1
 62
     5
420
      255
176
     1
290
     0
176
     1
 90
       50
176
     1
 90
       50
176
     1
 90
       50
176
     1
290
     0
176
     1
 90
       50
176
     1
 62
   256
176
     0
 40
1.0
176
     0
 90
        2
176
     1
  1
strokes_ogs.tif
176
     1
290
     0
176
     1
 40
1.0
176
     1
 40
1.0
176
     1
  0
VISUALSTYLE
  5
1351
102
{ACAD_REACTORS
330
1339
102
}
330
1339
100
AcDbVisualStyle
  2
EdgeColorOff
 70
    22
177
     3
291
     1
 70
    58
 90
        2
176
     0
 90
        2
176
     0
 90
        0
176
     0
 90
        0
176
     0
 40
0.6
176
     0
 40
30.0
176
     0
 62
     7
420
 16777215
176
     0
 90
        1
176
     0
 90
        4
176
     0
 62
     7
176
     0
 62
   257
176
     0
 90
        1
176
     0
 90
        1
176
     0
 40
1.0
176
     0
 90
        8
176
     2
 62
     7
176
     0
 40
1.0
176
     0
 90
        1
176
     0
 90
        6
176
     0
 90
        2
176
     0
 62
     7
176
     0
 90
        5
176
     0
 90
        0
176
     0
 90
        0
176
     0
290
     0
176
     0
 90
        1
176
     0
 40
0.0
176
     0
 90
        0
176
     0
290
     0
176
     1
290
     1
176
     1
290
     1
176
     1
290
     0
176
     1
290
     0
176
     1
290
     0
176
     1
290
     0
176
     1
290
     0
176
     1
290
     0
176
     1
 90
       50
176
     0
 40
0.0
176
     0
 40
1.0
176
     0
 90
        0
176
     0
 62
    18
420
        0
176
     0
 90
       50
176
     0
 90
        3
176
     0
 62
     5
420
      255
176
     0
290
     0
176
     1
 90
       50
176
     0
 90
       50
176
     0
 90
       50
176
     0
290
     0
176
     1
 90
       50
176
     0
 62
   256
176
     0
 40
1.0
176
     0
 90
        2
176
     0
  1
strokes_ogs.tif
176
     0
290
     0
176
     1
 40
1.0
176
     0
 40
1.0
176
     0
  0
VISUALSTYLE
  5
1348
102
{ACAD_REACTORS
330
1339
102
}
330
1339
100
AcDbVisualStyle
  2
Facepattern
 70
    15
177
     3
291
     1
 70
    58
 90
        2
176
     1
 90
        2
176
     1
 90
        0
176
     1
 90
        0
176
     1
 40
0.6
176
     1
 40
30.0
176
     1
 62
     7
420
 16777215
176
     1
 90
        1
176
     1
 90
        4
176
     1
 62
     7
176
     1
 62
   257
176
     1
 90
        1
176
     1
 90
        1
176
     1
 40
1.0
176
     1
 90
        8
176
     1
 62
     7
176
     1
 40
1.0
176
     1
 90
        1
176
     1
 90
        6
176
     1
 90
        2
176
     1
 62
     7
176
     1
 90
        5
176
     1
 90
        0
176
     1
 90
        0
176
     1
290
     0
176
     1
 90
        1
176
     1
 40
0.0
176
     1
 90
        0
176
     1
290
     0
176
     1
290
     1
176
     1
290
     1
176
     1
290
     0
176
     1
290
     0
176
     1
290
     0
176
     1
290
     0
176
     1
290
     0
176
     1
290
     0
176
     1
 90
       50
176
     1
 40
0.0
176
     1
 40
1.0
176
     1
 90
        0
176
     1
 62
    18
420
        0
176
     1
 90
       50
176
     1
 90
        3
176
     1
 62
     5
420
      255
176
     1
290
     0
176
     1
 90
       50
176
     1
 90
       50
176
     1
 90
       50
176
     1
290
     0
176
     1
 90
       50
176
     1
 62
   256
176
     0
 40
1.0
176
     0
 90
        2
176
     1
  1
strokes_ogs.tif
176
     1
290
     0
176
     1
 40
1.0
176
     1
 40
1.0
176
     1
  0
VISUALSTYLE
  5
133A
102
{ACAD_REACTORS
330
1339
102
}
330
1339
100
AcDbVisualStyle
  2
Flat
 70
     0
177
     3
291
     1
 70
    58
 90
        2
176
     1
 90
        1
176
     1
 90
        1
176
     1
 90
        2
176
     1
 40
0.6
176
     1
 40
30.0
176
     1
 62
     7
420
 16777215
176
     1
 90
        0
176
     1
 90
        0
176
     1
 62
     7
176
     1
 62
   257
176
     1
 90
        1
176
     1
 90
        1
176
     1
 40
1.0
176
     1
 90
        8
176
     1
 62
     7
176
     1
 40
1.0
176
     1
 90
        1
176
     1
 90
        6
176
     1
 90
        2
176
     1
 62
     7
176
     1
 90
        5
176
     1
 90
        0
176
     1
 90
        0
176
     1
290
     0
176
     1
 90
       13
176
     1
 40
0.0
176
     1
 90
        0
176
     1
290
     0
176
     1
290
     1
176
     1
290
     1
176
     1
290
     0
176
     1
290
     0
176
     1
290
     0
176
     1
290
     0
176
     1
290
     0
176
     1
290
     0
176
     1
 90
       50
176
     1
 40
0.0
176
     1
 40
1.0
176
     1
 90
        0
176
     1
 62
    18
420
        0
176
     1
 90
       50
176
     1
 90
        3
176
     1
 62
     5
420
      255
176
     1
290
     0
176
     1
 90
       50
176
     1
 90
       50
176
     1
 90
       50
176
     1
290
     0
176
     1
 90
       50
176
     1
 62
   256
176
     0
 40
1.0
176
     0
 90
        2
176
     1
  1
strokes_ogs.tif
176
     1
290
     0
176
     1
 40
1.0
176
     1
 40
1.0
176
     1
  0
VISUALSTYLE
  5
133B
102
{ACAD_REACTORS
330
1339
102
}
330
1339
100
AcDbVisualStyle
  2
FlatWithEdges
 70
     1
177
     3
291
     1
 70
    58
 90
        2
176
     1
 90
        1
176
     1
 90
        1
176
     1
 90
        2
176
     1
 40
0.6
176
     1
 40
30.0
176
     1
 62
     7
420
 16777215
176
     1
 90
        1
176
     1
 90
        0
176
     1
 62
     7
176
     1
 62
   257
176
     1
 90
        1
176
     1
 90
        1
176
     1
 40
1.0
176
     1
 90
        0
176
     1
 62
   257
176
     1
 40
1.0
176
     1
 90
        1
176
     1
 90
        6
176
     1
 90
        2
176
     1
 62
     7
176
     1
 90
        5
176
     1
 90
        0
176
     1
 90
        0
176
     1
290
     0
176
     1
 90
       13
176
     1
 40
0.0
176
     1
 90
        0
176
     1
290
     0
176
     1
290
     1
176
     1
290
     1
176
     1
290
     0
176
     1
290
     0
176
     1
290
     0
176
     1
290
     0
176
     1
290
     0
176
     1
290
     0
176
     1
 90
       50
176
     1
 40
0.0
176
     1
 40
1.0
176
     1
 90
        0
176
     1
 62
    18
420
        0
176
     1
 90
       50
176
     1
 90
        3
176
     1
 62
     5
420
      255
176
     1
290
     0
176
     1
 90
       50
176
     1
 90
       50
176
     1
 90
       50
176
     1
290
     0
176
     1
 90
       50
176
     1
 62
   256
176
     0
 40
1.0
176
     0
 90
        2
176
     1
  1
strokes_ogs.tif
176
     1
290
     0
176
     1
 40
1.0
176
     1
 40
1.0
176
     1
  0
VISUALSTYLE
  5
133C
102
{ACAD_REACTORS
330
1339
102
}
330
1339
100
AcDbVisualStyle
  2
Gouraud
 70
     2
177
     3
291
     1
 70
    58
 90
        2
176
     1
 90
        2
176
     1
 90
        1
176
     1
 90
        2
176
     1
 40
0.6
176
     1
 40
30.0
176
     1
 62
     7
420
 16777215
176
     1
 90
        0
176
     1
 90
        0
176
     1
 62
     7
176
     1
 62
   257
176
     1
 90
        1
176
     1
 90
        1
176
     1
 40
1.0
176
     1
 90
        0
176
     1
 62
     7
176
     1
 40
1.0
176
     1
 90
        1
176
     1
 90
        6
176
     1
 90
        2
176
     1
 62
     7
176
     1
 90
        5
176
     1
 90
        0
176
     1
 90
        0
176
     1
290
     0
176
     1
 90
       13
176
     1
 40
0.0
176
     1
 90
        0
176
     1
290
     0
176
     1
290
     1
176
     1
290
     1
176
     1
290
     0
176
     1
290
     0
176
     1
290
     0
176
     1
290
     0
176
     1
290
     0
176
     1
290
     0
176
     1
 90
       50
176
     1
 40
0.0
176
     1
 40
1.0
176
     1
 90
        0
176
     1
 62
    18
420
        0
176
     1
 90
       50
176
     1
 90
        3
176
     1
 62
     5
420
      255
176
     1
290
     0
176
     1
 90
       50
176
     1
 90
       50
176
     1
 90
       50
176
     1
290
     0
176
     1
 90
       50
176
     1
 62
   256
176
     0
 40
1.0
176
     0
 90
        2
176
     1
  1
strokes_ogs.tif
176
     1
290
     0
176
     1
 40
1.0
176
     1
 40
1.0
176
     1
  0
VISUALSTYLE
  5
133D
102
{ACAD_REACTORS
330
1339
102
}
330
1339
100
AcDbVisualStyle
  2
GouraudWithEdges
 70
     3
177
     3
291
     1
 70
    58
 90
        2
176
     1
 90
        2
176
     1
 90
        1
176
     1
 90
        2
176
     1
 40
0.6
176
     1
 40
30.0
176
     1
 62
     7
420
 16777215
176
     1
 90
        1
176
     1
 90
        0
176
     1
 62
     7
176
     1
 62
   257
176
     1
 90
        1
176
     1
 90
        1
176
     1
 40
1.0
176
     1
 90
        0
176
     1
 62
   257
176
     1
 40
1.0
176
     1
 90
        1
176
     1
 90
        6
176
     1
 90
        2
176
     1
 62
     7
176
     1
 90
        5
176
     1
 90
        0
176
     1
 90
        0
176
     1
290
     0
176
     1
 90
       13
176
     1
 40
0.0
176
     1
 90
        0
176
     1
290
     0
176
     1
290
     1
176
     1
290
     1
176
     1
290
     0
176
     1
290
     0
176
     1
290
     0
176
     1
290
     0
176
     1
290
     0
176
     1
290
     0
176
     1
 90
       50
176
     1
 40
0.0
176
     1
 40
1.0
176
     1
 90
        0
176
     1
 62
    18
420
        0
176
     1
 90
       50
176
     1
 90
        3
176
     1
 62
     5
420
      255
176
     1
290
     0
176
     1
 90
       50
176
     1
 90
       50
176
     1
 90
       50
176
     1
290
     0
176
     1
 90
       50
176
     1
 62
   256
176
     0
 40
1.0
176
     0
 90
        2
176
     1
  1
strokes_ogs.tif
176
     1
290
     0
176
     1
 40
1.0
176
     1
 40
1.0
176
     1
  0
VISUALSTYLE
  5
1341
102
{ACAD_REACTORS
330
1339
102
}
330
1339
100
AcDbVisualStyle
  2
Hidden
 70
     6
177
     3
291
     0
 70
    58
 90
        1
176
     1
 90
        2
176
     1
 90
        2
176
     1
 90
        0
176
     1
 40
0.6
176
     1
 40
30.0
176
     1
 62
     7
420
 16777215
176
     1
 90
        2
176
     1
 90
        2
176
     1
 62
     7
176
     1
 62
   257
176
     1
 90
        2
176
     1
 90
        1
176
     1
 40
40.0
176
     1
 90
        0
176
     1
 62
   257
176
     1
 40
1.0
176
     1
 90
        1
176
     1
 90
        6
176
     1
 90
        2
176
     1
 62
     7
176
     1
 90
        3
176
     1
 90
        0
176
     1
 90
        0
176
     1
290
     0
176
     1
 90
        1
176
     1
 40
0.0
176
     1
 90
        0
176
     1
290
     0
176
     1
290
     1
176
     1
290
     1
176
     1
290
     0
176
     1
290
     0
176
     1
290
     0
176
     1
290
     0
176
     1
290
     0
176
     1
290
     0
176
     1
 90
       50
176
     1
 40
0.0
176
     1
 40
1.0
176
     1
 90
        0
176
     1
 62
    18
420
        0
176
     1
 90
       50
176
     1
 90
        3
176
     1
 62
     5
420
      255
176
     1
290
     0
176
     1
 90
       50
176
     1
 90
       50
176
     1
 90
       50
176
     1
290
     0
176
     1
 90
       50
176
     1
 62
   256
176
     0
 40
1.0
176
     0
 90
        2
176
     1
  1
strokes_ogs.tif
176
     1
290
     0
176
     1
 40
1.0
176
     1
 40
1.0
176
     1
  0
VISUALSTYLE
  5
134F
102
{ACAD_REACTORS
330
1339
102
}
330
1339
100
AcDbVisualStyle
  2
JitterOff
 70
    20
177
     3
291
     1
 70
    58
 90
        2
176
     0
 90
        2
176
     0
 90
        0
176
     0
 90
        0
176
     0
 40
0.6
176
     0
 40
30.0
176
     0
 62
     7
420
 16777215
176
     0
 90
        1
176
     0
 90
        4
176
     0
 62
     7
176
     0
 62
   257
176
     0
 90
        1
176
     0
 90
        1
176
     0
 40
1.0
176
     0
 90
       10
176
     2
 62
     7
176
     0
 40
1.0
176
     0
 90
        1
176
     0
 90
        6
176
     0
 90
        2
176
     0
 62
     7
176
     0
 90
        5
176
     0
 90
        0
176
     0
 90
        0
176
     0
290
     0
176
     0
 90
        1
176
     0
 40
0.0
176
     0
 90
        0
176
     0
290
     0
176
     1
290
     1
176
     1
290
     1
176
     1
290
     0
176
     1
290
     0
176
     1
290
     0
176
     1
290
     0
176
     1
290
     0
176
     1
290
     0
176
     1
 90
       50
176
     0
 40
0.0
176
     0
 40
1.0
176
     0
 90
        0
176
     0
 62
    18
420
        0
176
     0
 90
       50
176
     0
 90
        3
176
     0
 62
     5
420
      255
176
     0
290
     0
176
     1
 90
       50
176
     0
 90
       50
176
     0
 90
       50
176
     0
290
     0
176
     1
 90
       50
176
     0
 62
   256
176
     0
 40
1.0
176
     0
 90
        2
176
     0
  1
strokes_ogs.tif
176
     0
290
     0
176
     1
 40
1.0
176
     0
 40
1.0
176
     0
  0
VISUALSTYLE
  5
1347
102
{ACAD_REACTORS
330
1339
102
}
330
1339
100
AcDbVisualStyle
  2
Linepattern
 70
    14
177
     3
291
     1
 70
    58
 90
        2
176
     1
 90
        2
176
     1
 90
        0
176
     1
 90
        0
176
     1
 40
0.6
176
     1
 40
30.0
176
     1
 62
     7
420
 16777215
176
     1
 90
        1
176
     1
 90
        4
176
     1
 62
     7
176
     1
 62
   257
176
     1
 90
        7
176
     1
 90
        7
176
     1
 40
1.0
176
     1
 90
        8
176
     1
 62
     7
176
     1
 40
1.0
176
     1
 90
        1
176
     1
 90
        6
176
     1
 90
        2
176
     1
 62
     7
176
     1
 90
        5
176
     1
 90
        0
176
     1
 90
        0
176
     1
290
     0
176
     1
 90
        1
176
     1
 40
0.0
176
     1
 90
        0
176
     1
290
     0
176
     1
290
     1
176
     1
290
     1
176
     1
290
     0
176
     1
290
     0
176
     1
290
     0
176
     1
290
     0
176
     1
290
     0
176
     1
290
     0
176
     1
 90
       50
176
     1
 40
0.0
176
     1
 40
1.0
176
     1
 90
        0
176
     1
 62
    18
420
        0
176
     1
 90
       50
176
     1
 90
        3
176
     1
 62
     5
420
      255
176
     1
290
     0
176
     1
 90
       50
176
     1
 90
       50
176
     1
 90
       50
176
     1
290
     0
176
     1
 90
       50
176
     1
 62
   256
176
     0
 40
1.0
176
     0
 90
        2
176
     1
  1
strokes_ogs.tif
176
     1
290
     0
176
     1
 40
1.0
176
     1
 40
1.0
176
     1
  0
VISUALSTYLE
  5
1350
102
{ACAD_REACTORS
330
1339
102
}
330
1339
100
AcDbVisualStyle
  2
OverhangOff
 70
    21
177
     3
291
     1
 70
    58
 90
        2
176
     0
 90
        2
176
     0
 90
        0
176
     0
 90
        0
176
     0
 40
0.6
176
     0
 40
30.0
176
     0
 62
     7
420
 16777215
176
     0
 90
        1
176
     0
 90
        4
176
     0
 62
     7
176
     0
 62
   257
176
     0
 90
        1
176
     0
 90
        1
176
     0
 40
1.0
176
     0
 90
        9
176
     2
 62
     7
176
     0
 40
1.0
176
     0
 90
        1
176
     0
 90
        6
176
     0
 90
        2
176
     0
 62
     7
176
     0
 90
        5
176
     0
 90
        0
176
     0
 90
        0
176
     0
290
     0
176
     0
 90
        1
176
     0
 40
0.0
176
     0
 90
        0
176
     0
290
     0
176
     1
290
     1
176
     1
290
     1
176
     1
290
     0
176
     1
290
     0
176
     1
290
     0
176
     1
290
     0
176
     1
290
     0
176
     1
290
     0
176
     1
 90
       50
176
     0
 40
0.0
176
     0
 40
1.0
176
     0
 90
        0
176
     0
 62
    18
420
        0
176
     0
 90
       50
176
     0
 90
        3
176
     0
 62
     5
420
      255
176
     0
290
     0
176
     1
 90
       50
176
     0
 90
       50
176
     0
 90
       50
176
     0
290
     0
176
     1
 90
       50
176
     0
 62
   256
176
     0
 40
1.0
176
     0
 90
        2
176
     0
  1
strokes_ogs.tif
176
     0
290
     0
176
     1
 40
1.0
176
     0
 40
1.0
176
     0
  0
VISUALSTYLE
  5
1343
102
{ACAD_REACTORS
330
1339
102
}
330
1339
100
AcDbVisualStyle
  2
Realistic
 70
     8
177
     3
291
     0
 70
    58
 90
        2
176
     1
 90
        3
176
     1
 90
        0
176
     1
 90
        2
176
     1
 40
0.6
176
     1
 40
30.0
176
     1
 62
     7
420
 16777215
176
     1
 90
        0
176
     1
 90
        0
176
     1
 62
     7
176
     1
 62
   257
176
     1
 90
        1
176
     1
 90
        1
176
     1
 40
1.0
176
     1
 90
        8
176
     1
 62
   257
176
     1
 40
1.0
176
     1
 90
        1
176
     1
 90
        6
176
     1
 90
        2
176
     1
 62
     7
176
     1
 90
        3
176
     1
 90
        0
176
     1
 90
        0
176
     1
290
     0
176
     1
 90
       13
176
     1
 40
0.0
176
     1
 90
        0
176
     1
290
     0
176
     1
290
     1
176
     1
290
     1
176
     1
290
     0
176
     1
290
     0
176
     1
290
     0
176
     1
290
     0
176
     1
290
     0
176
     1
290
     0
176
     1
 90
       50
176
     1
 40
0.0
176
     1
 40
1.0
176
     1
 90
        0
176
     1
 62
    18
420
        0
176
     1
 90
       50
176
     1
 90
        3
176
     1
 62
     5
420
      255
176
     1
290
     0
176
     1
 90
       50
176
     1
 90
       50
176
     1
 90
       50
176
     1
290
     0
176
     1
 90
       50
176
     1
 62
   256
176
     0
 40
1.0
176
     0
 90
        2
176
     1
  1
strokes_ogs.tif
176
     1
290
     0
176
     1
 40
1.0
176
     1
 40
1.0
176
     1
  0
VISUALSTYLE
  5
134E
102
{ACAD_REACTORS
330
1339
102
}
330
1339
100
AcDbVisualStyle
  2
Shaded
 70
    27
177
     3
291
     0
 70
    58
 90
        2
176
     1
 90
        2
176
     1
 90
        1
176
     1
 90
        2
176
     1
 40
0.6
176
     1
 40
30.0
176
     1
 62
     7
420
 16777215
176
     1
 90
        0
176
     1
 90
        4
176
     1
 62
     7
176
     1
 62
   257
176
     1
 90
        1
176
     1
 90
        1
176
     1
 40
1.0
176
     1
 90
        8
176
     1
 62
   257
176
     1
 40
1.0
176
     1
 90
        1
176
     1
 90
        6
176
     1
 90
        2
176
     1
 62
     8
420
  7895160
176
     1
 90
        3
176
     1
 90
        0
176
     1
 90
        0
176
     1
290
     0
176
     1
 90
        5
176
     1
 40
0.0
176
     1
 90
        0
176
     1
290
     0
176
     1
290
     1
176
     1
290
     1
176
     1
290
     0
176
     1
290
     0
176
     1
290
     0
176
     1
290
     0
176
     1
290
     0
176
     1
290
     0
176
     1
 90
       50
176
     1
 40
0.0
176
     1
 40
1.0
176
     1
 90
        0
176
     1
 62
    18
420
        0
176
     1
 90
       50
176
     1
 90
        3
176
     1
 62
     5
420
      255
176
     1
290
     0
176
     1
 90
       50
176
     1
 90
       50
176
     1
 90
       50
176
     1
290
     0
176
     1
 90
       50
176
     1
 62
   256
176
     0
 40
1.0
176
     0
 90
        2
176
     1
  1
strokes_ogs.tif
176
     1
290
     0
176
     1
 40
1.0
176
     1
 40
1.0
176
     1
  0
VISUALSTYLE
  5
134D
102
{ACAD_REACTORS
330
1339
102
}
330
1339
100
AcDbVisualStyle
  2
Shaded with edges
 70
    26
177
     3
291
     0
 70
    58
 90
        2
176
     1
 90
        2
176
     1
 90
        1
176
     1
 90
        2
176
     1
 40
0.6
176
     1
 40
30.0
176
     1
 62
     7
420
 16777215
176
     1
 90
        1
176
     1
 90
        2
176
     1
 62
     7
176
     1
 62
   257
176
     1
 90
        2
176
     1
 90
        1
176
     1
 40
1.0
176
     1
 90
        8
176
     1
 62
   257
176
     1
 40
1.0
176
     1
 90
        1
176
     1
 90
        6
176
     1
 90
        2
176
     1
 62
     7
176
     1
 90
        3
176
     1
 90
        0
176
     1
 90
        0
176
     1
290
     0
176
     1
 90
        5
176
     1
 40
0.0
176
     1
 90
        0
176
     1
290
     0
176
     1
290
     1
176
     1
290
     1
176
     1
290
     0
176
     1
290
     0
176
     1
290
     0
176
     1
290
     0
176
     1
290
     0
176
     1
290
     0
176
     1
 90
       50
176
     1
 40
0.0
176
     1
 40
1.0
176
     1
 90
        0
176
     1
 62
    18
420
        0
176
     1
 90
       50
176
     1
 90
        3
176
     1
 62
     5
420
      255
176
     1
290
     0
176
     1
 90
       50
176
     1
 90
       50
176
     1
 90
       50
176
     1
290
     0
176
     1
 90
       50
176
     1
 62
   256
176
     0
 40
1.0
176
     0
 90
        2
176
     1
  1
strokes_ogs.tif
176
     1
290
     0
176
     1
 40
1.0
176
     1
 40
1.0
176
     1
  0
VISUALSTYLE
  5
134A
102
{ACAD_REACTORS
330
1339
102
}
330
1339
100
AcDbVisualStyle
  2
Shades of Gray
 70
    23
177
     3
291
     0
 70
    58
 90
        2
176
     1
 90
        2
176
     1
 90
        3
176
     1
 90
        0
176
     1
 40
0.6
176
     1
 40
30.0
176
     1
 62
     7
420
 16777215
176
     1
 90
        2
176
     1
 90
        2
176
     1
 62
     7
176
     1
 62
     7
176
     1
 90
        1
176
     1
 90
        1
176
     1
 40
40.0
176
     1
 90
        8
176
     1
 62
     7
176
     1
 40
1.0
176
     1
 90
        1
176
     1
 90
        6
176
     1
 90
        2
176
     1
 62
     7
176
     1
 90
        3
176
     1
 90
        0
176
     1
 90
        0
176
     1
290
     0
176
     1
 90
        1
176
     1
 40
0.0
176
     1
 90
        0
176
     1
290
     0
176
     1
290
     1
176
     1
290
     1
176
     1
290
     0
176
     1
290
     0
176
     1
290
     0
176
     1
290
     0
176
     1
290
     0
176
     1
290
     0
176
     1
 90
       50
176
     1
 40
0.0
176
     1
 40
1.0
176
     1
 90
        0
176
     1
 62
    18
420
        0
176
     1
 90
       50
176
     1
 90
        3
176
     1
 62
     5
420
      255
176
     1
290
     0
176
     1
 90
       50
176
     1
 90
       50
176
     1
 90
       50
176
     1
290
     0
176
     1
 90
       50
176
     1
 62
   256
176
     0
 40
1.0
176
     0
 90
        2
176
     1
  1
strokes_ogs.tif
176
     1
290
     0
176
     1
 40
1.0
176
     1
 40
1.0
176
     1
  0
VISUALSTYLE
  5
134B
102
{ACAD_REACTORS
330
1339
102
}
330
1339
100
AcDbVisualStyle
  2
Sketchy
 70
    24
177
     3
291
     0
 70
    58
 90
        1
176
     1
 90
        2
176
     1
 90
        2
176
     1
 90
        0
176
     1
 40
0.6
176
     1
 40
30.0
176
     1
 62
     7
420
 16777215
176
     1
 90
        2
176
     1
 90
        2
176
     1
 62
     7
176
     1
 62
     7
176
     1
 90
        1
176
     1
 90
        1
176
     1
 40
40.0
176
     1
 90
       11
176
     1
 62
     7
176
     1
 40
1.0
176
     1
 90
        1
176
     1
 90
        6
176
     1
 90
        2
176
     1
 62
     7
176
     1
 90
        6
176
     1
 90
        0
176
     1
 90
        0
176
     1
290
     0
176
     1
 90
        1
176
     1
 40
0.0
176
     1
 90
        0
176
     1
290
     0
176
     1
290
     1
176
     1
290
     1
176
     1
290
     0
176
     1
290
     0
176
     1
290
     0
176
     1
290
     0
176
     1
290
     0
176
     1
290
     0
176
     1
 90
       50
176
     1
 40
0.0
176
     1
 40
1.0
176
     1
 90
        0
176
     1
 62
    18
420
        0
176
     1
 90
       50
176
     1
 90
        3
176
     1
 62
     5
420
      255
176
     1
290
     0
176
     1
 90
       50
176
     1
 90
       50
176
     1
 90
       50
176
     1
290
     0
176
     1
 90
       50
176
     1
 62
   256
176
     0
 40
1.0
176
     0
 90
        2
176
     1
  1
strokes_ogs.tif
176
     1
290
     0
176
     1
 40
1.0
176
     1
 40
1.0
176
     1
  0
VISUALSTYLE
  5
1346
102
{ACAD_REACTORS
330
1339
102
}
330
1339
100
AcDbVisualStyle
  2
Thicken
 70
    13
177
     3
291
     1
 70
    58
 90
        2
176
     1
 90
        2
176
     1
 90
        0
176
     1
 90
        0
176
     1
 40
0.6
176
     1
 40
30.0
176
     1
 62
     7
420
 16777215
176
     1
 90
        1
176
     1
 90
        4
176
     1
 62
     7
176
     1
 62
   257
176
     1
 90
        1
176
     1
 90
        1
176
     1
 40
1.0
176
     1
 90
       12
176
     1
 62
     7
176
     1
 40
1.0
176
     1
 90
        1
176
     1
 90
        6
176
     1
 90
        2
176
     1
 62
     7
176
     1
 90
        5
176
     1
 90
        0
176
     1
 90
        0
176
     1
290
     0
176
     1
 90
        1
176
     1
 40
0.0
176
     1
 90
        0
176
     1
290
     0
176
     1
290
     1
176
     1
290
     1
176
     1
290
     0
176
     1
290
     0
176
     1
290
     0
176
     1
290
     0
176
     1
290
     0
176
     1
290
     0
176
     1
 90
       50
176
     1
 40
0.0
176
     1
 40
1.0
176
     1
 90
        0
176
     1
 62
    18
420
        0
176
     1
 90
       50
176
     1
 90
        3
176
     1
 62
     5
420
      255
176
     1
290
     0
176
     1
 90
       50
176
     1
 90
       50
176
     1
 90
       50
176
     1
290
     0
176
     1
 90
       50
176
     1
 62
   256
176
     0
 40
1.0
176
     0
 90
        2
176
     1
  1
strokes_ogs.tif
176
     1
290
     0
176
     1
 40
1.0
176
     1
 40
1.0
176
     1
  0
VISUALSTYLE
  5
1340
102
{ACAD_REACTORS
330
1339
102
}
330
1339
100
AcDbVisualStyle
  2
Wireframe
 70
     5
177
     3
291
     0
 70
    58
 90
        0
176
     1
 90
        2
176
     1
 90
        0
176
     1
 90
        0
176
     1
 40
0.6
176
     1
 40
30.0
176
     1
 62
     7
420
 16777215
176
     1
 90
        1
176
     1
 90
        4
176
     1
 62
     7
176
     1
 62
   257
176
     1
 90
        1
176
     1
 90
        1
176
     1
 40
1.0
176
     1
 90
        0
176
     1
 62
   257
176
     1
 40
1.0
176
     1
 90
        1
176
     1
 90
        6
176
     1
 90
        2
176
     1
 62
     7
176
     1
 90
        3
176
     1
 90
        0
176
     1
 90
        0
176
     1
290
     0
176
     1
 90
        1
176
     1
 40
0.0
176
     1
 90
        0
176
     1
290
     0
176
     1
290
     1
176
     1
290
     1
176
     1
290
     0
176
     1
290
     0
176
     1
290
     0
176
     1
290
     0
176
     1
290
     0
176
     1
290
     0
176
     1
 90
       50
176
     1
 40
0.0
176
     1
 40
1.0
176
     1
 90
        0
176
     1
 62
    18
420
        0
176
     1
 90
       50
176
     1
 90
        3
176
     1
 62
     5
420
      255
176
     1
290
     0
176
     1
 90
       50
176
     1
 90
       50
176
     1
 90
       50
176
     1
290
     0
176
     1
 90
       50
176
     1
 62
   256
176
     0
 40
1.0
176
     0
 90
        2
176
     1
  1
strokes_ogs.tif
176
     1
290
     0
176
     1
 40
1.0
176
     1
 40
1.0
176
     1
  0
VISUALSTYLE
  5
134C
102
{ACAD_REACTORS
330
1339
102
}
330
1339
100
AcDbVisualStyle
  2
X-Ray
 70
    25
177
     3
291
     0
 70
    58
 90
        2
176
     1
 90
        2
176
     1
 90
        1
176
     1
 90
        1
176
     1
 40
0.5
176
     1
 40
30.0
176
     1
 62
     7
420
 16777215
176
     1
 90
        1
176
     1
 90
        0
176
     1
 62
     7
176
     1
 62
   257
176
     1
 90
        1
176
     1
 90
        1
176
     1
 40
1.0
176
     1
 90
        8
176
     1
 62
     7
176
     1
 40
1.0
176
     1
 90
        1
176
     1
 90
        6
176
     1
 90
        2
176
     1
 62
     7
176
     1
 90
        3
176
     1
 90
        0
176
     1
 90
        0
176
     1
290
     0
176
     1
 90
       13
176
     1
 40
0.0
176
     1
 90
        0
176
     1
290
     0
176
     1
290
     1
176
     1
290
     1
176
     1
290
     0
176
     1
290
     0
176
     1
290
     0
176
     1
290
     0
176
     1
290
     0
176
     1
290
     0
176
     1
 90
       50
176
     1
 40
0.0
176
     1
 40
1.0
176
     1
 90
        0
176
     1
 62
    18
420
        0
176
     1
 90
       50
176
     1
 90
        3
176
     1
 62
     5
420
      255
176
     1
290
     0
176
     1
 90
       50
176
     1
 90
       50
176
     1
 90
       50
176
     1
290
     0
176
     1
 90
       50
176
     1
 62
   256
176
     0
 40
1.0
176
     0
 90
        2
176
     1
  1
strokes_ogs.tif
176
     1
290
     0
176
     1
 40
1.0
176
     1
 40
1.0
176
     1
  0
DICTIONARYVAR
  5
13AF
102
{ACAD_REACTORS
330
13A9
102
}
330
13A9
100
DictionaryVariables
280
     0
  1
1:1
  0
DICTIONARYVAR
  5
13AB
102
{ACAD_REACTORS
330
13A9
102
}
330
13A9
100
DictionaryVariables
280
     0
  1
STANDARD
  0
DICTIONARYVAR
  5
13AA
102
{ACAD_REACTORS
330
13A9
102
}
330
13A9
100
DictionaryVariables
280
     0
  1
STANDARD
  0
DICTIONARYVAR
  5
13AC
102
{ACAD_REACTORS
330
13A9
102
}
330
13A9
100
DictionaryVariables
280
     0
  1
Imperial24
  0
DICTIONARYVAR
  5
13AD
102
{ACAD_REACTORS
330
13A9
102
}
330
13A9
100
DictionaryVariables
280
     0
  1
Imperial24
  0
DICTIONARYVAR
  5
13B1
102
{ACAD_REACTORS
330
13A9
102
}
330
13A9
100
DictionaryVariables
280
     0
  1
1
  0
DICTIONARYVAR
  5
13B2
102
{ACAD_REACTORS
330
13A9
102
}
330
13A9
100
DictionaryVariables
280
     0
  1
15
  0
DICTIONARYVAR
  5
13B0
102
{ACAD_REACTORS
330
13A9
102
}
330
13A9
100
DictionaryVariables
280
     0
  1
0
  0
DICTIONARYVAR
  5
13AE
102
{ACAD_REACTORS
330
13A9
102
}
330
13A9
100
DictionaryVariables
280
     0
  1
0
  0
XRECORD
  5
1377
102
{ACAD_REACTORS
330
1375
102
}
330
1375
100
AcDbXrecord
280
     1
330
1391
330
139E
  0
ACDBASSOCNETWORK
  5
1385
102
{ACAD_REACTORS
330
1384
102
}
330
1384
100
AcDbAssocAction
 90
        2
 90
        0
330
1387
360
0
 90
        1
 90
        0
 90
        0
 90
        0
 90
        0
 90
        0
 90
        0
100
AcDbAssocNetwork
 90
        0
 90
        2
 90
        2
360
1388
360
1395
 90
        0
  0
DICTIONARY
  5
132A
330
1329
100
AcDbDictionary
280
     1
281
     1
  3
BUMPTILE
360
132C
  3
DIFFUSETILE
360
132B
  3
OPACITYTILE
360
132F
  3
REFLECTIONTILE
360
132E
  3
REFRACTIONTILE
360
1330
  3
SPECULARTILE
360
132D
  0
DICTIONARY
  5
1322
330
1321
100
AcDbDictionary
280
     1
281
     1
  3
BUMPTILE
360
1324
  3
DIFFUSETILE
360
1323
  3
OPACITYTILE
360
1327
  3
REFLECTIONTILE
360
1326
  3
REFRACTIONTILE
360
1328
  3
SPECULARTILE
360
1325
  0
DICTIONARY
  5
1332
330
1331
100
AcDbDictionary
280
     1
281
     1
  3
BUMPTILE
360
1334
  3
DIFFUSETILE
360
1333
  3
OPACITYTILE
360
1337
  3
REFLECTIONTILE
360
1336
  3
REFRACTIONTILE
360
1338
  3
SPECULARTILE
360
1335
  0
DICTIONARY
  5
13B3
330
1355
100
AcDbDictionary
280
     1
281
     1
  3
ACAD_ROUNDTRIP_2008_TABLESTYLE_CELLSTYLEMAP
360
13B4
  0
ACDBASSOCACTION
  5
1388
330
1385
100
AcDbAssocAction
 90
        2
 90
        0
330
1385
360
1389
 90
        1
 90
        3
 90
        3
360
138B
360
138D
360
1393
 90
        0
 90
        2
360
138A
360
138C
 90
        0
 90
       14
 90
        0
  1
StartExtLength
 90
        0
 90
        1
 40
1.000000000000000E+60
330
0
330
0
 90
        0
  1
EndExtLength
 90
        0
 90
        1
 40
1.000000000000000E+60
330
0
330
0
 90
        0
  1
StartOvershoot
 90
        0
 90
        1
 40
0.12
330
0
330
0
 90
        0
  1
EndOvershoot
 90
        0
 90
        1
 40
0.12
330
0
330
0
 90
        0
  1
EdgeRefDirectionEnding
 90
        0
 90
        2
 90
        0
330
0
 90
        1
330
0
330
0
 90
        0
  1
CenterDepId
 90
        0
 90
        1
330
1393
330
0
330
0
 90
        0
  1
CachedCenterLineLength
 90
        0
 90
        1
 40
77500.0
330
0
330
0
 90
        0
  1
CachedCenterLineDirectionX
 90
        0
 90
        1
 40
1.0
330
0
330
0
 90
        0
  1
CachedCenterLineDirectionY
 90
        0
 90
        1
 40
0.0
330
0
330
0
 90
        0
  1
CachedCenterLineDirectionZ
 90
        0
 90
        1
 40
0.0
330
0
330
0
 90
        0
  1
SubentLineType
 90
        0
 90
        1
  1
CENTER2
330
0
330
0
 90
        0
  1
SubentLineWeight
 90
        0
 90
        1
 40
-1.0
330
0
330
0
 90
        0
  1
SubentLinetypeScale
 90
        0
 90
        1
 40
1.0
330
0
330
0
 90
        0
  1
CachedAssociateStatus
 90
        0
 90
        1
 40
1.0
330
0
330
0
  0
ACDBASSOCACTION
  5
1395
330
1385
100
AcDbAssocAction
 90
        2
 90
        0
330
1385
360
1396
 90
        2
 90
        3
 90
        3
360
1398
360
139A
360
139F
 90
        0
 90
        2
360
1397
360
1399
 90
        0
 90
       14
 90
        0
  1
StartExtLength
 90
        0
 90
        1
 40
1.000000000000000E+60
330
0
330
0
 90
        0
  1
EndExtLength
 90
        0
 90
        1
 40
1.000000000000000E+60
330
0
330
0
 90
        0
  1
StartOvershoot
 90
        0
 90
        1
 40
0.12
330
0
330
0
 90
        0
  1
EndOvershoot
 90
        0
 90
        1
 40
0.12
330
0
330
0
 90
        0
  1
EdgeRefDirectionEnding
 90
        0
 90
        2
 90
        0
330
0
 90
        1
330
0
330
0
 90
        0
  1
CenterDepId
 90
        0
 90
        1
330
139F
330
0
330
0
 90
        0
  1
CachedCenterLineLength
 90
        0
 90
        1
 40
50000.0
330
0
330
0
 90
        0
  1
CachedCenterLineDirectionX
 90
        0
 90
        1
 40
0.0
330
0
330
0
 90
        0
  1
CachedCenterLineDirectionY
 90
        0
 90
        1
 40
1.0
330
0
330
0
 90
        0
  1
CachedCenterLineDirectionZ
 90
        0
 90
        1
 40
0.0
330
0
330
0
 90
        0
  1
SubentLineType
 90
        0
 90
        1
  1
CENTER2
330
0
330
0
 90
        0
  1
SubentLineWeight
 90
        0
 90
        1
 40
-1.0
330
0
330
0
 90
        0
  1
SubentLinetypeScale
 90
        0
 90
        1
 40
1.0
330
0
330
0
 90
        0
  1
CachedAssociateStatus
 90
        0
 90
        1
 40
1.0
330
0
330
0
  0
XRECORD
  5
132C
102
{ACAD_REACTORS
330
132A
102
}
330
132A
100
AcDbXrecord
280
     1
270
     1
271
     1
  0
XRECORD
  5
132B
102
{ACAD_REACTORS
330
132A
102
}
330
132A
100
AcDbXrecord
280
     1
270
     1
271
     1
  0
XRECORD
  5
132F
102
{ACAD_REACTORS
330
132A
102
}
330
132A
100
AcDbXrecord
280
     1
270
     1
271
     1
  0
XRECORD
  5
132E
102
{ACAD_REACTORS
330
132A
102
}
330
132A
100
AcDbXrecord
280
     1
270
     1
271
     1
  0
XRECORD
  5
1330
102
{ACAD_REACTORS
330
132A
102
}
330
132A
100
AcDbXrecord
280
     1
270
     1
271
     1
  0
XRECORD
  5
132D
102
{ACAD_REACTORS
330
132A
102
}
330
132A
100
AcDbXrecord
280
     1
270
     1
271
     1
  0
XRECORD
  5
1324
102
{ACAD_REACTORS
330
1322
102
}
330
1322
100
AcDbXrecord
280
     1
270
     1
271
     1
  0
XRECORD
  5
1323
102
{ACAD_REACTORS
330
1322
102
}
330
1322
100
AcDbXrecord
280
     1
270
     1
271
     1
  0
XRECORD
  5
1327
102
{ACAD_REACTORS
330
1322
102
}
330
1322
100
AcDbXrecord
280
     1
270
     1
271
     1
  0
XRECORD
  5
1326
102
{ACAD_REACTORS
330
1322
102
}
330
1322
100
AcDbXrecord
280
     1
270
     1
271
     1
  0
XRECORD
  5
1328
102
{ACAD_REACTORS
330
1322
102
}
330
1322
100
AcDbXrecord
280
     1
270
     1
271
     1
  0
XRECORD
  5
1325
102
{ACAD_REACTORS
330
1322
102
}
330
1322
100
AcDbXrecord
280
     1
270
     1
271
     1
  0
XRECORD
  5
1334
102
{ACAD_REACTORS
330
1332
102
}
330
1332
100
AcDbXrecord
280
     1
270
     1
271
     1
  0
XRECORD
  5
1333
102
{ACAD_REACTORS
330
1332
102
}
330
1332
100
AcDbXrecord
280
     1
270
     1
271
     1
  0
XRECORD
  5
1337
102
{ACAD_REACTORS
330
1332
102
}
330
1332
100
AcDbXrecord
280
     1
270
     1
271
     1
  0
XRECORD
  5
1336
102
{ACAD_REACTORS
330
1332
102
}
330
1332
100
AcDbXrecord
280
     1
270
     1
271
     1
  0
XRECORD
  5
1338
102
{ACAD_REACTORS
330
1332
102
}
330
1332
100
AcDbXrecord
280
     1
270
     1
271
     1
  0
XRECORD
  5
1335
102
{ACAD_REACTORS
330
1332
102
}
330
1332
100
AcDbXrecord
280
     1
270
     1
271
     1
  0
CELLSTYLEMAP
  5
13B4
102
{ACAD_REACTORS
330
13B3
102
}
330
13B3
100
AcDbCellStyleMap
 90
        3
300
CELLSTYLE
  1
TABLEFORMAT_BEGIN
 90
        5
170
     1
 91
        0
 92
    32768
 62
   257
 93
        1
300
CONTENTFORMAT
  1
CONTENTFORMAT_BEGIN
 90
        0
 91
        0
 92
      512
 93
        0
300

 40
0.0
140
1.0
 94
        5
 62
     0
340
131B
144
0.25
309
CONTENTFORMAT_END
171
     0
 94
        0
309
TABLEFORMAT_END
  1
CELLSTYLE_BEGIN
 90
        1
 91
        1
300
_TITLE
309
CELLSTYLE_END
300
CELLSTYLE
  1
TABLEFORMAT_BEGIN
 90
        5
170
     1
 91
        0
 92
        0
 62
   257
 93
        1
300
CONTENTFORMAT
  1
CONTENTFORMAT_BEGIN
 90
        0
 91
        0
 92
      512
 93
        0
300

 40
0.0
140
1.0
 94
        5
 62
     0
340
131B
144
0.18
309
CONTENTFORMAT_END
171
     0
 94
        0
309
TABLEFORMAT_END
  1
CELLSTYLE_BEGIN
 90
        2
 91
        1
300
_HEADER
309
CELLSTYLE_END
300
CELLSTYLE
  1
TABLEFORMAT_BEGIN
 90
        5
170
     1
 91
        0
 92
        0
 62
   257
 93
        1
300
CONTENTFORMAT
  1
CONTENTFORMAT_BEGIN
 90
        0
 91
        0
 92
      512
 93
        0
300

 40
0.0
140
1.0
 94
        2
 62
     0
340
131B
144
0.18
309
CONTENTFORMAT_END
171
     0
 94
        0
309
TABLEFORMAT_END
  1
CELLSTYLE_BEGIN
 90
        3
 91
        2
300
_DATA
309
CELLSTYLE_END
  0
AcDbCenterLineActionBody
  5
1389
330
1388
100
AcDbAssocActionBody
 90
        2
100
AcDbSmartCenterActionBody
 90
        0
  0
ACDBASSOCGEOMDEPENDENCY
  5
138B
330
1388
100
AcDbAssocDependency
 90
        2
 90
        0
290
     1
290
     0
290
     1
290
     1
 90
        0
330
1B
290
     0
330
0
330
138D
360
0
 90
        1
100
AcDbAssocGeomDependency
 90
        0
290
     1
  1
AcDbAssocEdgePersSubentId
 90
        0
 90
        1
 90
        2
290
     0
  0
ACDBASSOCGEOMDEPENDENCY
  5
138D
330
1388
100
AcDbAssocDependency
 90
        2
 90
        0
290
     1
290
     0
290
     1
290
     1
 90
        0
330
1B
290
     0
330
138B
330
1398
360
0
 90
        2
100
AcDbAssocGeomDependency
 90
        0
290
     1
  1
AcDbAssocEdgePersSubentId
 90
        0
 90
        3
 90
        4
290
     0
  0
ACDBASSOCDEPENDENCY
  5
1393
330
1388
100
AcDbAssocDependency
 90
        2
 90
        0
290
     1
290
     1
290
     1
290
     1
 90
        0
330
1391
290
     0
330
0
330
0
360
0
 90
        3
  0
ACDBASSOCEDGEACTIONPARAM
  5
138A
330
1388
100
AcDbAssocActionParam
 90
        1
 90
        0
  1
InputEdge
100
AcDbAssocSingleDependencyActionParam
 90
        0
330
138B
100
AcDbAssocEdgeActionParam
 90
        0
330
0
290
     1
 90
       23
 10
-38750.0
 20
25000.0
 30
0.0
 10
77500.0
 20
0.0
 30
0.0
  0
ACDBASSOCEDGEACTIONPARAM
  5
138C
330
1388
100
AcDbAssocActionParam
 90
        1
 90
        0
  1
InputEdge
100
AcDbAssocSingleDependencyActionParam
 90
        0
330
138D
100
AcDbAssocEdgeActionParam
 90
        0
330
0
290
     1
 90
       23
 10
38750.0
 20
-25000.0
 30
0.0
 10
-77500.0
 20
0.0
 30
0.0
  0
AcDbCenterLineActionBody
  5
1396
330
1395
100
AcDbAssocActionBody
 90
        2
100
AcDbSmartCenterActionBody
 90
        0
  0
ACDBASSOCGEOMDEPENDENCY
  5
1398
330
1395
100
AcDbAssocDependency
 90
        2
 90
        0
290
     1
290
     0
290
     1
290
     1
 90
        0
330
1B
290
     0
330
138D
330
139A
360
0
 90
        1
100
AcDbAssocGeomDependency
 90
        0
290
     1
  1
AcDbAssocEdgePersSubentId
 90
        0
 90
        4
 90
        1
290
     0
  0
ACDBASSOCGEOMDEPENDENCY
  5
139A
330
1395
100
AcDbAssocDependency
 90
        2
 90
        0
290
     1
290
     0
290
     1
290
     1
 90
        0
330
1B
290
     0
330
1398
330
0
360
0
 90
        2
100
AcDbAssocGeomDependency
 90
        0
290
     1
  1
AcDbAssocEdgePersSubentId
 90
        0
 90
        2
 90
        3
290
     0
  0
ACDBASSOCDEPENDENCY
  5
139F
330
1395
100
AcDbAssocDependency
 90
        2
 90
        0
290
     1
290
     1
290
     1
290
     1
 90
        0
330
139E
290
     0
330
0
330
0
360
0
 90
        3
  0
ACDBASSOCEDGEACTIONPARAM
  5
1397
330
1395
100
AcDbAssocActionParam
 90
        1
 90
        0
  1
InputEdge
100
AcDbAssocSingleDependencyActionParam
 90
        0
330
1398
100
AcDbAssocEdgeActionParam
 90
        0
330
0
290
     1
 90
       23
 10
-38750.0
 20
-25000.0
 30
0.0
 10
0.0
 20
50000.0
 30
0.0
  0
ACDBASSOCEDGEACTIONPARAM
  5
1399
330
1395
100
AcDbAssocActionParam
 90
        1
 90
        0
  1
InputEdge
100
AcDbAssocSingleDependencyActionParam
 90
        0
330
139A
100
AcDbAssocEdgeActionParam
 90
        0
330
0
290
     1
 90
       23
 10
38750.0
 20
25000.0
 30
0.0
 10
0.0
 20
-50000.0
 30
0.0
  0
ENDSEC
  0
EOF
