  0
SECTION
  2
HEADER
  9
$ACADVER
  1
AC1032
  9
$ACADMAINTVER
 90
      174
  9
$DWGCODEPAGE
  3
ANSI_1252
  9
$LASTSAVEDBY
  1
jpgreen
  9
$REQUIREDVERSIONS
160
                 0
  9
$INSBASE
 10
0.0
 20
0.0
 30
0.0
  9
$EXTMIN
 10
-42000.5
 20
-40000.49999999999
 30
0.0
  9
$EXTMAX
 10
45000.49999999999
 20
40000.49999999999
 30
0.0
  9
$LIMMIN
 10
0.0
 20
0.0
  9
$LIMMAX
 10
0.0
 20
0.0
  9
$ORTHOMODE
 70
     0
  9
$REGENMODE
 70
     1
  9
$FILLMODE
 70
     1
  9
$QTEXTMODE
 70
     0
  9
$MIRRTEXT
 70
     1
  9
$LTSCALE
 40
1.0
  9
$ATTMODE
 70
     1
  9
$TEXTSIZE
 40
0.0
  9
$TRACEWID
 40
0.05
  9
$TEXTSTYLE
  7
STANDARD
  9
$CLAYER
  8
0
  9
$CELTYPE
  6
CONTINUOUS
  9
$CECOLOR
 62
   256
  9
$CELTSCALE
 40
1.0
  9
$DISPSILH
 70
     0
  9
$DIMSCALE
 40
1.0
  9
$DIMASZ
 40
0.18
  9
$DIMEXO
 40
0.0625
  9
$DIMDLI
 40
0.38
  9
$DIMRND
 40
0.0
  9
$DIMDLE
 40
0.0
  9
$DIMEXE
 40
0.18
  9
$DIMTP
 40
0.0
  9
$DIMTM
 40
0.0
  9
$DIMTXT
 40
0.18
  9
$DIMCEN
 40
0.09
  9
$DIMTSZ
 40
0.0
  9
$DIMTOL
 70
     0
  9
$DIMLIM
 70
     0
  9
$DIMTIH
 70
     1
  9
$DIMTOH
 70
     1
  9
$DIMSE1
 70
     0
  9
$DIMSE2
 70
     0
  9
$DIMTAD
 70
     0
  9
$DIMZIN
 70
     0
  9
$DIMBLK
  1

  9
$DIMASO
 70
     1
  9
$DIMSHO
 70
     1
  9
$DIMPOST
  1

  9
$DIMAPOST
  1

  9
$DIMALT
 70
     0
  9
$DIMALTD
 70
     2
  9
$DIMALTF
 40
25.4
  9
$DIMLFAC
 40
1.0
  9
$DIMTOFL
 70
     0
  9
$DIMTVP
 40
0.0
  9
$DIMTIX
 70
     0
  9
$DIMSOXD
 70
     0
  9
$DIMSAH
 70
     0
  9
$DIMBLK1
  1

  9
$DIMBLK2
  1

  9
$DIMSTYLE
  2
STANDARD
  9
$DIMCLRD
 70
     0
  9
$DIMCLRE
 70
     0
  9
$DIMCLRT
 70
     0
  9
$DIMTFAC
 40
1.0
  9
$DIMGAP
 40
0.09
  9
$DIMJUST
 70
     0
  9
$DIMSD1
 70
     0
  9
$DIMSD2
 70
     0
  9
$DIMTOLJ
 70
     1
  9
$DIMTZIN
 70
     0
  9
$DIMALTZ
 70
     0
  9
$DIMALTTZ
 70
     0
  9
$DIMUPT
 70
     0
  9
$DIMDEC
 70
     4
  9
$DIMTDEC
 70
     4
  9
$DIMALTU
 70
     2
  9
$DIMALTTD
 70
     2
  9
$DIMTXSTY
  7
STANDARD
  9
$DIMAUNIT
 70
     0
  9
$DIMADEC
 70
     0
  9
$DIMALTRND
 40
0.0
  9
$DIMAZIN
 70
     0
  9
$DIMDSEP
 70
    46
  9
$DIMATFIT
 70
     3
  9
$DIMFRAC
 70
     0
  9
$DIMLDRBLK
  1

  9
$DIMLUNIT
 70
     2
  9
$DIMLWD
 70
    -2
  9
$DIMLWE
 70
    -2
  9
$DIMTMOVE
 70
     0
  9
$DIMFXL
 40
1.0
  9
$DIMFXLON
 70
     0
  9
$DIMJOGANG
 40
0.7853981633974483
  9
$DIMTFILL
 70
     0
  9
$DIMTFILLCLR
 70
     0
  9
$DIMARCSYM
 70
     0
  9
$DIMLTYPE
  6

  9
$DIMLTEX1
  6

  9
$DIMLTEX2
  6

  9
$DIMTXTDIRECTION
 70
     0
  9
$LUNITS
 70
     2
  9
$LUPREC
 70
     4
  9
$SKETCHINC
 40
0.1
  9
$FILLETRAD
 40
0.0
  9
$AUNITS
 70
     0
  9
$AUPREC
 70
     0
  9
$MENU
  1
acad
  9
$ELEVATION
 40
0.0
  9
$PELEVATION
 40
0.0
  9
$THICKNESS
 40
0.0
  9
$LIMCHECK
 70
     0
  9
$CHAMFERA
 40
0.0
  9
$CHAMFERB
 40
0.0
  9
$CHAMFERC
 40
0.0
  9
$CHAMFERD
 40
0.0
  9
$SKPOLY
 70
     0
  9
$TDCREATE
 40
2414622.957627315
  9
$TDUCREATE
 40
2440587.999988426
  9
$TDUPDATE
 40
2459929.697870371
  9
$TDUUPDATE
 40
2459929.989537037
  9
$TDINDWG
 40
0.0027777778
  9
$TDUSRTIMER
 40
0.0027777778
  9
$USRTIMER
 70
     1
  9
$ANGBASE
 50
0.0
  9
$ANGDIR
 70
     0
  9
$PDMODE
 70
     0
  9
$PDSIZE
 40
0.0
  9
$PLINEWID
 40
0.0
  9
$SPLFRAME
 70
     0
  9
$SPLINETYPE
 70
     6
  9
$SPLINESEGS
 70
     8
  9
$HANDSEED
  5
109C9
  9
$SURFTAB1
 70
     6
  9
$SURFTAB2
 70
     6
  9
$SURFTYPE
 70
     6
  9
$SURFU
 70
     6
  9
$SURFV
 70
     6
  9
$UCSBASE
  2

  9
$UCSNAME
  2

  9
$UCSORG
 10
0.0
 20
0.0
 30
0.0
  9
$UCSXDIR
 10
1.0
 20
0.0
 30
0.0
  9
$UCSYDIR
 10
0.0
 20
1.0
 30
0.0
  9
$UCSORTHOREF
  2

  9
$UCSORTHOVIEW
 70
     0
  9
$UCSORGTOP
 10
0.0
 20
0.0
 30
0.0
  9
$UCSORGBOTTOM
 10
0.0
 20
0.0
 30
0.0
  9
$UCSORGLEFT
 10
0.0
 20
0.0
 30
0.0
  9
$UCSORGRIGHT
 10
0.0
 20
0.0
 30
0.0
  9
$UCSORGFRONT
 10
0.0
 20
0.0
 30
0.0
  9
$UCSORGBACK
 10
0.0
 20
0.0
 30
0.0
  9
$PUCSBASE
  2

  9
$PUCSNAME
  2

  9
$PUCSORG
 10
0.0
 20
0.0
 30
0.0
  9
$PUCSXDIR
 10
1.0
 20
0.0
 30
0.0
  9
$PUCSYDIR
 10
0.0
 20
1.0
 30
0.0
  9
$PUCSORTHOREF
  2

  9
$PUCSORTHOVIEW
 70
     0
  9
$PUCSORGTOP
 10
0.0
 20
0.0
 30
0.0
  9
$PUCSORGBOTTOM
 10
0.0
 20
0.0
 30
0.0
  9
$PUCSORGLEFT
 10
0.0
 20
0.0
 30
0.0
  9
$PUCSORGRIGHT
 10
0.0
 20
0.0
 30
0.0
  9
$PUCSORGFRONT
 10
0.0
 20
0.0
 30
0.0
  9
$PUCSORGBACK
 10
0.0
 20
0.0
 30
0.0
  9
$USERI1
 70
    -4
  9
$USERI2
 70
     0
  9
$USERI3
 70
     0
  9
$USERI4
 70
     0
  9
$USERI5
 70
     0
  9
$USERR1
 40
0.0
  9
$USERR2
 40
0.0
  9
$USERR3
 40
0.0
  9
$USERR4
 40
0.0
  9
$USERR5
 40
0.0
  9
$WORLDVIEW
 70
     1
  9
$SHADEDGE
 70
     3
  9
$SHADEDIF
 70
    70
  9
$TILEMODE
 70
     1
  9
$MAXACTVP
 70
    16
  9
$PINSBASE
 10
0.0
 20
0.0
 30
0.0
  9
$PLIMCHECK
 70
     0
  9
$PEXTMIN
 10
1.000000000000000E+20
 20
1.000000000000000E+20
 30
1.000000000000000E+20
  9
$PEXTMAX
 10
-1.000000000000000E+20
 20
-1.000000000000000E+20
 30
-1.000000000000000E+20
  9
$PLIMMIN
 10
0.0
 20
0.0
  9
$PLIMMAX
 10
12.0
 20
9.0
  9
$UNITMODE
 70
     0
  9
$VISRETAIN
 70
     0
  9
$PLINEGEN
 70
     1
  9
$PSLTSCALE
 70
     0
  9
$TREEDEPTH
 70
  3020
  9
$CMLSTYLE
  2
STANDARD
  9
$CMLJUST
 70
     0
  9
$CMLSCALE
 40
1.0
  9
$PROXYGRAPHICS
 70
     0
  9
$MEASUREMENT
 70
     0
  9
$CELWEIGHT
370
    -1
  9
$ENDCAPS
280
     0
  9
$JOINSTYLE
280
     0
  9
$LWDISPLAY
290
     0
  9
$INSUNITS
 70
     0
  9
$HYPERLINKBASE
  1

  9
$STYLESHEET
  1

  9
$XEDIT
290
     1
  9
$CEPSNTYPE
380
     0
  9
$PSTYLEMODE
290
     1
  9
$FINGERPRINTGUID
  2
{1A090086-B303-2445-9638-412DB5B0BFF2}
  9
$VERSIONGUID
  2
{B269E8B2-94E4-E045-9C91-C43BECC6D4D9}
  9
$EXTNAMES
290
     1
  9
$PSVPSCALE
 40
0.0
  9
$OLESTARTUP
290
     0
  9
$SORTENTS
280
   127
  9
$INDEXCTL
280
     0
  9
$HIDETEXT
280
     0
  9
$XCLIPFRAME
280
     2
  9
$HALOGAP
280
     0
  9
$OBSCOLOR
 70
   257
  9
$OBSLTYPE
280
     0
  9
$INTERSECTIONDISPLAY
280
     0
  9
$INTERSECTIONCOLOR
 70
   257
  9
$DIMASSOC
280
     1
  9
$PROJECTNAME
  1

  9
$CAMERADISPLAY
290
     0
  9
$LENSLENGTH
 40
50.0
  9
$CAMERAHEIGHT
 40
0.0
  9
$STEPSPERSEC
 40
2.0
  9
$STEPSIZE
 40
6.0
  9
$3DDWFPREC
 40
2.0
  9
$PSOLWIDTH
 40
0.25
  9
$PSOLHEIGHT
 40
4.0
  9
$LOFTANG1
 40
1.570796326794896
  9
$LOFTANG2
 40
1.570796326794896
  9
$LOFTMAG1
 40
0.0
  9
$LOFTMAG2
 40
0.0
  9
$LOFTPARAM
 70
     7
  9
$LOFTNORMALS
280
     1
  9
$LATITUDE
 40
37.795
  9
$LONGITUDE
 40
-122.394
  9
$NORTHDIRECTION
 40
0.0
  9
$TIMEZONE
 70
 -8000
  9
$LIGHTGLYPHDISPLAY
280
     1
  9
$TILEMODELIGHTSYNCH
280
     1
  9
$CMATERIAL
347
1093B
  9
$SOLIDHIST
280
     0
  9
$SHOWHIST
280
     1
  9
$DWFFRAME
280
     2
  9
$DGNFRAME
280
     0
  9
$REALWORLDSCALE
290
     1
  9
$INTERFERECOLOR
 62
     1
  9
$INTERFEREOBJVS
345
1095D
  9
$INTERFEREVPVS
346
1095A
  9
$CSHADOW
280
     0
  9
$SHADOWPLANELOCATION
 40
0.0
  0
ENDSEC
  0
SECTION
  2
CLASSES
  0
CLASS
  1
IMAGE
  2
AcDbRasterImage
  3
ISM
 90
     2175
 91
        0
280
     0
281
     1
  0
CLASS
  1
DICTIONARYVAR
  2
AcDbDictionaryVar
  3
ObjectDBX Classes
 90
        0
 91
        9
280
     0
281
     0
  0
CLASS
  1
RASTERVARIABLES
  2
AcDbRasterVariables
  3
ISM
 90
        0
 91
        0
280
     0
281
     0
  0
CLASS
  1
IMAGEDEF
  2
AcDbRasterImageDef
  3
ISM
 90
        0
 91
        0
280
     0
281
     0
  0
CLASS
  1
IMAGEDEF_REACTOR
  2
AcDbRasterImageDefReactor
  3
ISM
 90
        1
 91
        0
280
     0
281
     0
  0
CLASS
  1
IDBUFFER
  2
AcDbIdBuffer
  3
ObjectDBX Classes
 90
        0
 91
        0
280
     0
281
     0
  0
CLASS
  1
SPATIAL_FILTER
  2
AcDbSpatialFilter
  3
ObjectDBX Classes
 90
        0
 91
        0
280
     0
281
     0
  0
CLASS
  1
SORTENTSTABLE
  2
AcDbSortentsTable
  3
ObjectDBX Classes
 90
        0
 91
        0
280
     0
281
     0
  0
CLASS
  1
LAYER_INDEX
  2
AcDbLayerIndex
  3
ObjectDBX Classes
 90
        0
 91
        0
280
     0
281
     0
  0
CLASS
  1
SPATIAL_INDEX
  2
AcDbSpatialIndex
  3
ObjectDBX Classes
 90
        0
 91
        0
280
     0
281
     0
  0
CLASS
  1
OBJECT_PTR
  2
CAseDLPNTableRecord
  3
ASE-LPNTableRecord
 90
        1
 91
        0
280
     0
281
     0
  0
CLASS
  1
PLOTSETTINGS
  2
AcDbPlotSettings
  3
ObjectDBX Classes
 90
        0
 91
        0
280
     0
281
     0
  0
CLASS
  1
ACDBDICTIONARYWDFLT
  2
AcDbDictionaryWithDefault
  3
ObjectDBX Classes
 90
        0
 91
        1
280
     0
281
     0
  0
CLASS
  1
WIPEOUT
  2
AcDbWipeout
  3
WipeOut|Product Desc: Object Enabler for WipeOut entity | Company: Autodesk, Inc. | WEB Address: www.autodesk.com
 90
     2175
 91
        0
280
     0
281
     1
  0
CLASS
  1
WIPEOUTVARIABLES
  2
AcDbWipeoutVariables
  3
"WipeOut|Product Desc:     WipeOut Dbx Application|Company:          Autodesk, Inc.|WEB Address:      www.autodesk.com"
 90
        0
 91
        0
280
     0
281
     0
  0
CLASS
  1
RTEXT
  2
RText
  3
RText|AutoCAD Express Tool|expresstools@autodesk.com
 90
     3071
 91
        0
280
     0
281
     1
  0
CLASS
  1
ARCALIGNEDTEXT
  2
AcDbArcAlignedText
  3
ATEXT|AutoCAD Express Tool|expresstools@autodesk.com
 90
        0
 91
        0
280
     0
281
     1
  0
CLASS
  1
MATERIAL
  2
AcDbMaterial
  3
ObjectDBX Classes
 90
     1153
 91
        3
280
     0
281
     0
  0
CLASS
  1
VISUALSTYLE
  2
AcDbVisualStyle
  3
ObjectDBX Classes
 90
     4095
 91
       24
280
     0
281
     0
  0
CLASS
  1
TABLESTYLE
  2
AcDbTableStyle
  3
ObjectDBX Classes
 90
     4095
 91
        1
280
     0
281
     0
  0
CLASS
  1
SCALE
  2
AcDbScale
  3
ObjectDBX Classes
 90
     1153
 91
       17
280
     0
281
     0
  0
CLASS
  1
MLEADERSTYLE
  2
AcDbMLeaderStyle
  3
ACDB_MLEADERSTYLE_CLASS
 90
     4095
 91
        1
280
     0
281
     0
  0
CLASS
  1
ACDBSECTIONVIEWSTYLE
  2
AcDbSectionViewStyle
  3
ObjectDBX Classes
 90
     1025
 91
        1
280
     0
281
     0
  0
CLASS
  1
ACDBDETAILVIEWSTYLE
  2
AcDbDetailViewStyle
  3
ObjectDBX Classes
 90
     1025
 91
        1
280
     0
281
     0
  0
CLASS
  1
ACDBASSOCNETWORK
  2
AcDbAssocNetwork
  3
ObjectDBX Classes
 90
     1025
 91
        2
280
     0
281
     0
  0
CLASS
  1
ACDBASSOCACTION
  2
AcDbAssocAction
  3
ObjectDBX Classes
 90
     1025
 91
        2
280
     0
281
     0
  0
CLASS
  1
AcDbCenterLineActionBody
  2
AcDbCenterLineActionBody
  3
AcDbSmartCenter
 90
     1153
 91
        2
280
     0
281
     0
  0
CLASS
  1
ACDBASSOCEDGEACTIONPARAM
  2
AcDbAssocEdgeActionParam
  3
ObjectDBX Classes
 90
     1025
 91
        4
280
     0
281
     0
  0
CLASS
  1
ACDBASSOCGEOMDEPENDENCY
  2
AcDbAssocGeomDependency
  3
ObjectDBX Classes
 90
     1025
 91
        4
280
     0
281
     0
  0
CLASS
  1
ACDBASSOCDEPENDENCY
  2
AcDbAssocDependency
  3
ObjectDBX Classes
 90
     1025
 91
        2
280
     0
281
     0
  0
CLASS
  1
CELLSTYLEMAP
  2
AcDbCellStyleMap
  3
ObjectDBX Classes
 90
     1152
 91
        1
280
     0
281
     0
  0
ENDSEC
  0
SECTION
  2
TABLES
  0
TABLE
  2
VPORT
  5
7
330
0
100
AcDbSymbolTable
 70
     1
  0
VPORT
  5
13
330
7
100
AcDbSymbolTableRecord
100
AcDbViewportTableRecord
  2
*ACTIVE
 70
     0
 10
0.0
 20
0.0
 11
1.0
 21
1.0
 12
-16664.20674969164
 22
-16813.50149854945
 13
0.0
 23
0.0
 14
1.0
 24
1.0
 15
0.0
 25
0.0
 16
0.0
 26
0.0
 36
1.0
 17
0.0
 27
0.0
 37
0.0
 40
129086.5422487044
 41
1.964176049129989
 42
50.0
 43
0.0
 44
0.0
 50
0.0
 51
0.0
 71
     0
 72
   100
 73
     1
 74
     1
 75
     0
 76
     0
 77
     0
 78
     0
281
     0
 65
     1
110
0.0
120
0.0
130
0.0
111
1.0
121
0.0
131
0.0
112
0.0
122
1.0
132
0.0
 79
     0
146
0.0
348
10959
 60
     3
 61
     5
292
     1
282
     1
141
0.0
142
0.0
 63
   250
421
  3355443
1001
ACAD_NAV_VCDISPLAY
1070
     3
  0
ENDTAB
  0
TABLE
  2
LTYPE
  5
4
330
0
100
AcDbSymbolTable
 70
     2
  0
LTYPE
  5
10
330
4
100
AcDbSymbolTableRecord
100
AcDbLinetypeTableRecord
  2
BYBLOCK
 70
     0
  3

 72
    65
 73
     0
 40
0.0
  0
LTYPE
  5
11
330
4
100
AcDbSymbolTableRecord
100
AcDbLinetypeTableRecord
  2
BYLAYER
 70
     0
  3

 72
    65
 73
     0
 40
0.0
  0
LTYPE
  5
12
330
4
100
AcDbSymbolTableRecord
100
AcDbLinetypeTableRecord
  2
CONTINUOUS
 70
     0
  3
Solid Line
 72
    65
 73
     0
 40
0.0
  0
LTYPE
  5
1099C
330
4
100
AcDbSymbolTableRecord
100
AcDbLinetypeTableRecord
  2
CENTER2
 70
     0
  3
Center (.5x) ___ _ ___ _ ___ _ ___ _ ___ _ ___
 72
    65
 73
     4
 40
1.125
 49
0.75
 74
     0
 49
-0.125
 74
     0
 49
0.125
 74
     0
 49
-0.125
 74
     0
  0
ENDTAB
  0
TABLE
  2
LAYER
  5
2
330
0
100
AcDbSymbolTable
 70
     6
  0
LAYER
  5
2B2F
102
{ACAD_XDICTIONARY
360
109AB
102
}
330
2
100
AcDbSymbolTableRecord
100
AcDbLayerTableRecord
  2
0
 70
     0
 62
     7
  6
CONTINUOUS
370
    -3
390
10939
347
1094B
348
0
  0
LAYER
  5
2B30
102
{ACAD_XDICTIONARY
360
109AD
102
}
330
2
100
AcDbSymbolTableRecord
100
AcDbLayerTableRecord
  2
PHOTOPLOT
 70
     0
 62
   253
  6
CONTINUOUS
370
    -3
390
10939
347
1094B
348
0
  0
LAYER
  5
2B31
102
{ACAD_XDICTIONARY
360
109AF
102
}
330
2
100
AcDbSymbolTableRecord
100
AcDbLayerTableRecord
  2
PIN_NOTATIONS
 70
     0
 62
   221
  6
CONTINUOUS
370
    -3
390
10939
347
1094B
348
0
  0
LAYER
  5
2B32
102
{ACAD_XDICTIONARY
360
109B1
102
}
330
2
100
AcDbSymbolTableRecord
100
AcDbLayerTableRecord
  2
SOLDERMASK_PADS_BTM
 70
     0
 62
    12
  6
CONTINUOUS
370
    -3
390
10939
347
1094B
348
0
  0
LAYER
  5
2B33
102
{ACAD_XDICTIONARY
360
109B3
102
}
330
2
100
AcDbSymbolTableRecord
100
AcDbLayerTableRecord
  2
TEXT_BSR
 70
     0
 62
   251
  6
CONTINUOUS
370
    -3
390
10939
347
1094B
348
0
  0
LAYER
  5
2B34
102
{ACAD_XDICTIONARY
360
109B5
102
}
330
2
100
AcDbSymbolTableRecord
100
AcDbLayerTableRecord
  2
PKG_OUTLINE
 70
     0
 62
    81
  6
CONTINUOUS
370
    -3
390
10939
347
1094B
348
0
  0
ENDTAB
  0
TABLE
  2
STYLE
  5
3
330
0
100
AcDbSymbolTable
 70
     3
  0
STYLE
  5
2B35
330
3
100
AcDbSymbolTableRecord
100
AcDbTextStyleTableRecord
  2
STANDARD
 70
     0
 40
0.0
 41
1.0
 50
0.0
 71
     0
 42
0.0
  3
txt
  4

  0
STYLE
  5
2B36
330
3
100
AcDbSymbolTableRecord
100
AcDbTextStyleTableRecord
  2
ARIAL
 70
     0
 40
0.0
 41
1.0
 50
0.0
 71
     0
 42
0.0
  3
arial.ttf
  4

1001
ACAD
1000
Arial
1071
       34
  0
STYLE
  5
2B37
330
3
100
AcDbSymbolTableRecord
100
AcDbTextStyleTableRecord
  2
VF_STD
 70
     0
 40
0.0
 41
1.0
 50
0.0
 71
     0
 42
0.0
  3
txt
  4

  0
ENDTAB
  0
TABLE
  2
VIEW
  5
5
330
0
100
AcDbSymbolTable
 70
     0
  0
ENDTAB
  0
TABLE
  2
UCS
  5
6
330
0
100
AcDbSymbolTable
 70
     0
  0
ENDTAB
  0
TABLE
  2
APPID
  5
8
330
0
100
AcDbSymbolTable
 70
     3
  0
APPID
  5
14
330
8
100
AcDbSymbolTableRecord
100
AcDbRegAppTableRecord
  2
ACAD
 70
     0
  0
APPID
  5
109B9
330
8
100
AcDbSymbolTableRecord
100
AcDbRegAppTableRecord
  2
DCO15
 70
     0
  0
APPID
  5
109C5
330
8
100
AcDbSymbolTableRecord
100
AcDbRegAppTableRecord
  2
ACAD_NAV_VCDISPLAY
 70
     0
  0
ENDTAB
  0
TABLE
  2
DIMSTYLE
  5
9
330
0
100
AcDbSymbolTable
 70
     1
100
AcDbDimStyleTable
 71
     0
  0
DIMSTYLE
105
15
330
9
100
AcDbSymbolTableRecord
100
AcDbDimStyleTableRecord
  2
STANDARD
 70
     0
340
17
  0
ENDTAB
  0
TABLE
  2
BLOCK_RECORD
  5
1
330
0
100
AcDbSymbolTable
 70
     2
  0
BLOCK_RECORD
  5
A
102
{ACAD_XDICTIONARY
360
1098D
102
}
330
1
100
AcDbSymbolTableRecord
100
AcDbBlockTableRecord
  2
*MODEL_SPACE
340
10989
 70
     0
280
     1
281
     0
  0
BLOCK_RECORD
  5
B
330
1
100
AcDbSymbolTableRecord
100
AcDbBlockTableRecord
  2
*PAPER_SPACE
340
1098A
 70
     0
280
     1
281
     0
  0
BLOCK_RECORD
  5
10998
330
1
100
AcDbSymbolTableRecord
100
AcDbBlockTableRecord
  2
*U0
340
0
102
{BLKREFS
331
1099B
102
}
 70
     0
280
     1
281
     0
  0
BLOCK_RECORD
  5
109A5
330
1
100
AcDbSymbolTableRecord
100
AcDbBlockTableRecord
  2
*U1
340
0
102
{BLKREFS
331
109A8
102
}
 70
     0
280
     1
281
     0
  0
ENDTAB
  0
ENDSEC
  0
SECTION
  2
BLOCKS
  0
BLOCK
  5
C
330
A
100
AcDbEntity
  8
0
100
AcDbBlockBegin
  2
*MODEL_SPACE
 70
     0
 10
0.0
 20
0.0
 30
0.0
  3
*MODEL_SPACE
  1

  0
ENDBLK
  5
D
330
A
100
AcDbEntity
  8
0
100
AcDbBlockEnd
  0
BLOCK
  5
E
330
B
100
AcDbEntity
 67
     1
  8
0
100
AcDbBlockBegin
  2
*PAPER_SPACE
 70
     0
 10
0.0
 20
0.0
 30
0.0
  3
*PAPER_SPACE
  1

  0
ENDBLK
  5
F
330
B
100
AcDbEntity
 67
     1
  8
0
100
AcDbBlockEnd
  0
BLOCK
  5
10999
330
10998
100
AcDbEntity
  8
0
100
AcDbBlockBegin
  2
*U0
 70
     1
 10
0.0
 20
0.0
 30
0.0
  3
*U0
  1

  0
LINE
  5
1099E
330
10998
100
AcDbEntity
  8
0
  6
CENTER2
 62
     0
440
 16777216
100
AcDbLine
 10
0.000000000001819
 20
18839.373
 30
0.0
 11
-0.000000000001819
 21
-18839.373
 31
0.0
  0
ENDBLK
  5
1099A
330
10998
100
AcDbEntity
  8
0
100
AcDbBlockEnd
  0
BLOCK
  5
109A6
330
109A5
100
AcDbEntity
  8
0
100
AcDbBlockBegin
  2
*U1
 70
     1
 10
0.0
 20
0.0
 30
0.0
  3
*U1
  1

  0
LINE
  5
109AA
330
109A5
100
AcDbEntity
  8
0
  6
CENTER2
 62
     0
440
 16777216
100
AcDbLine
 10
28250.12
 20
0.0
 30
0.0
 11
-28250.12
 21
0.0
 31
0.0
  0
ENDBLK
  5
109A7
330
109A5
100
AcDbEntity
  8
0
100
AcDbBlockEnd
  0
ENDSEC
  0
SECTION
  2
ENTITIES
  0
SOLID
  5
1FB
330
A
100
AcDbEntity
  8
SOLDERMASK_PADS_BTM
100
AcDbTrace
 10
6944.009999999997
 20
-5963.542
 30
0.0
 11
6944.009999999997
 21
-5313.541999999999
 31
0.0
 12
6568.009999999997
 22
-5963.542
 32
0.0
 13
6568.009999999997
 23
-5313.541999999999
 33
0.0
  0
SOLID
  5
1FC
330
A
100
AcDbEntity
  8
SOLDERMASK_PADS_BTM
100
AcDbTrace
 10
7920.009999999996
 20
-5963.542
 30
0.0
 11
7920.009999999996
 21
-5313.542
 31
0.0
 12
7544.009999999997
 22
-5963.542
 32
0.0
 13
7544.009999999997
 23
-5313.542
 33
0.0
  0
SOLID
  5
1FD
330
A
100
AcDbEntity
  8
SOLDERMASK_PADS_BTM
100
AcDbTrace
 10
6944.009999999997
 20
7496.418000000002
 30
0.0
 11
6944.009999999997
 21
8146.418000000002
 31
0.0
 12
6568.009999999998
 22
7496.418000000002
 32
0.0
 13
6568.009999999998
 23
8146.418000000002
 33
0.0
  0
SOLID
  5
1FE
330
A
100
AcDbEntity
  8
SOLDERMASK_PADS_BTM
100
AcDbTrace
 10
7920.009999999997
 20
7496.418
 30
0.0
 11
7920.009999999997
 21
8146.418
 31
0.0
 12
7544.009999999997
 22
7496.418
 32
0.0
 13
7544.009999999997
 23
8146.418
 33
0.0
  0
SOLID
  5
1FF
330
A
100
AcDbEntity
  8
SOLDERMASK_PADS_BTM
100
AcDbTrace
 10
5680.009999999998
 20
13396.42
 30
0.0
 11
5680.009999999998
 21
13696.42
 31
0.0
 12
5360.009999999998
 22
13396.42
 32
0.0
 13
5360.009999999998
 23
13696.42
 33
0.0
  0
SOLID
  5
200
330
A
100
AcDbEntity
  8
SOLDERMASK_PADS_BTM
100
AcDbTrace
 10
5680.009999999998
 20
12896.42
 30
0.0
 11
5680.009999999998
 21
13196.42
 31
0.0
 12
5360.009999999998
 22
12896.42
 32
0.0
 13
5360.009999999998
 23
13196.42
 33
0.0
  0
SOLID
  5
201
330
A
100
AcDbEntity
  8
SOLDERMASK_PADS_BTM
100
AcDbTrace
 10
6944.009999999997
 20
-4163.537999999999
 30
0.0
 11
6944.009999999997
 21
-3513.538
 31
0.0
 12
6568.009999999997
 22
-4163.537999999999
 32
0.0
 13
6568.009999999997
 23
-3513.538
 33
0.0
  0
SOLID
  5
202
330
A
100
AcDbEntity
  8
SOLDERMASK_PADS_BTM
100
AcDbTrace
 10
7920.009999999996
 20
-4163.538
 30
0.0
 11
7920.009999999996
 21
-3513.538
 31
0.0
 12
7544.009999999997
 22
-4163.538
 32
0.0
 13
7544.009999999997
 23
-3513.538
 33
0.0
  0
SOLID
  5
203
330
A
100
AcDbEntity
  8
SOLDERMASK_PADS_BTM
100
AcDbTrace
 10
4597.999999999998
 20
10136.32
 30
0.0
 11
4597.999999999998
 21
10456.32
 31
0.0
 12
4297.999999999997
 22
10136.32
 32
0.0
 13
4297.999999999997
 23
10456.32
 33
0.0
  0
SOLID
  5
204
330
A
100
AcDbEntity
  8
SOLDERMASK_PADS_BTM
100
AcDbTrace
 10
5097.999999999998
 20
10136.32
 30
0.0
 11
5097.999999999998
 21
10456.32
 31
0.0
 12
4797.999999999997
 22
10136.32
 32
0.0
 13
4797.999999999997
 23
10456.32
 33
0.0
  0
SOLID
  5
205
330
A
100
AcDbEntity
  8
SOLDERMASK_PADS_BTM
100
AcDbTrace
 10
4597.999999999998
 20
13556.32
 30
0.0
 11
4597.999999999998
 21
13876.32
 31
0.0
 12
4297.999999999997
 22
13556.32
 32
0.0
 13
4297.999999999997
 23
13876.32
 33
0.0
  0
SOLID
  5
206
330
A
100
AcDbEntity
  8
SOLDERMASK_PADS_BTM
100
AcDbTrace
 10
5097.999999999998
 20
13556.32
 30
0.0
 11
5097.999999999998
 21
13876.32
 31
0.0
 12
4797.999999999997
 22
13556.32
 32
0.0
 13
4797.999999999997
 23
13876.32
 33
0.0
  0
SOLID
  5
207
330
A
100
AcDbEntity
  8
SOLDERMASK_PADS_BTM
100
AcDbTrace
 10
4597.999999999998
 20
7856.32
 30
0.0
 11
4597.999999999998
 21
8176.32
 31
0.0
 12
4297.999999999997
 22
7856.32
 32
0.0
 13
4297.999999999997
 23
8176.32
 33
0.0
  0
SOLID
  5
208
330
A
100
AcDbEntity
  8
SOLDERMASK_PADS_BTM
100
AcDbTrace
 10
5097.999999999998
 20
7856.32
 30
0.0
 11
5097.999999999998
 21
8176.32
 31
0.0
 12
4797.999999999997
 22
7856.32
 32
0.0
 13
4797.999999999997
 23
8176.32
 33
0.0
  0
SOLID
  5
209
330
A
100
AcDbEntity
  8
SOLDERMASK_PADS_BTM
100
AcDbTrace
 10
5680.009999999998
 20
10796.42
 30
0.0
 11
5680.009999999998
 21
11096.42
 31
0.0
 12
5360.009999999998
 22
10796.42
 32
0.0
 13
5360.009999999998
 23
11096.42
 33
0.0
  0
SOLID
  5
20A
330
A
100
AcDbEntity
  8
SOLDERMASK_PADS_BTM
100
AcDbTrace
 10
5680.009999999998
 20
11296.42
 30
0.0
 11
5680.009999999998
 21
11596.42
 31
0.0
 12
5360.009999999998
 22
11296.42
 32
0.0
 13
5360.009999999998
 23
11596.42
 33
0.0
  0
SOLID
  5
20B
330
A
100
AcDbEntity
  8
SOLDERMASK_PADS_BTM
100
AcDbTrace
 10
6250.009999999996
 20
4996.42
 30
0.0
 11
6250.009999999996
 21
5296.420000000001
 31
0.0
 12
5930.009999999996
 22
4996.42
 32
0.0
 13
5930.009999999996
 23
5296.420000000001
 33
0.0
  0
SOLID
  5
20C
330
A
100
AcDbEntity
  8
SOLDERMASK_PADS_BTM
100
AcDbTrace
 10
6250.009999999996
 20
4496.419999999999
 30
0.0
 11
6250.009999999996
 21
4796.42
 31
0.0
 12
5930.009999999996
 22
4496.419999999999
 32
0.0
 13
5930.009999999996
 23
4796.42
 33
0.0
  0
SOLID
  5
20D
330
A
100
AcDbEntity
  8
SOLDERMASK_PADS_BTM
100
AcDbTrace
 10
6250.009999999997
 20
7646.42
 30
0.0
 11
6250.009999999997
 21
7946.42
 31
0.0
 12
5930.009999999998
 22
7646.42
 32
0.0
 13
5930.009999999998
 23
7946.42
 33
0.0
  0
SOLID
  5
20E
330
A
100
AcDbEntity
  8
SOLDERMASK_PADS_BTM
100
AcDbTrace
 10
6250.009999999997
 20
8146.42
 30
0.0
 11
6250.009999999997
 21
8446.420000000001
 31
0.0
 12
5930.009999999998
 22
8146.42
 32
0.0
 13
5930.009999999998
 23
8446.420000000001
 33
0.0
  0
SOLID
  5
20F
330
A
100
AcDbEntity
  8
SOLDERMASK_PADS_BTM
100
AcDbTrace
 10
5097.999999999996
 20
2156.32
 30
0.0
 11
5097.999999999996
 21
2476.32
 31
0.0
 12
4797.999999999996
 22
2156.32
 32
0.0
 13
4797.999999999996
 23
2476.32
 33
0.0
  0
SOLID
  5
210
330
A
100
AcDbEntity
  8
SOLDERMASK_PADS_BTM
100
AcDbTrace
 10
4597.999999999996
 20
2156.32
 30
0.0
 11
4597.999999999996
 21
2476.32
 31
0.0
 12
4297.999999999996
 22
2156.32
 32
0.0
 13
4297.999999999996
 23
2476.32
 33
0.0
  0
SOLID
  5
211
330
A
100
AcDbEntity
  8
SOLDERMASK_PADS_BTM
100
AcDbTrace
 10
4597.999999999996
 20
5576.319999999999
 30
0.0
 11
4597.999999999996
 21
5896.32
 31
0.0
 12
4297.999999999996
 22
5576.319999999999
 32
0.0
 13
4297.999999999996
 23
5896.32
 33
0.0
  0
SOLID
  5
212
330
A
100
AcDbEntity
  8
SOLDERMASK_PADS_BTM
100
AcDbTrace
 10
5097.999999999996
 20
5576.319999999999
 30
0.0
 11
5097.999999999996
 21
5896.32
 31
0.0
 12
4797.999999999996
 22
5576.319999999999
 32
0.0
 13
4797.999999999996
 23
5896.32
 33
0.0
  0
SOLID
  5
213
330
A
100
AcDbEntity
  8
SOLDERMASK_PADS_BTM
100
AcDbTrace
 10
5680.009999999995
 20
-8313.540000000001
 30
0.0
 11
5680.009999999995
 21
-8013.54
 31
0.0
 12
5360.009999999995
 22
-8313.540000000001
 32
0.0
 13
5360.009999999995
 23
-8013.54
 33
0.0
  0
SOLID
  5
214
330
A
100
AcDbEntity
  8
SOLDERMASK_PADS_BTM
100
AcDbTrace
 10
5680.009999999995
 20
-8813.540000000001
 30
0.0
 11
5680.009999999995
 21
-8513.54
 31
0.0
 12
5360.009999999995
 22
-8813.540000000001
 32
0.0
 13
5360.009999999995
 23
-8513.54
 33
0.0
  0
SOLID
  5
215
330
A
100
AcDbEntity
  8
SOLDERMASK_PADS_BTM
100
AcDbTrace
 10
6250.009999999996
 20
-3563.540000000001
 30
0.0
 11
6250.009999999996
 21
-3263.540000000001
 31
0.0
 12
5930.009999999996
 22
-3563.540000000001
 32
0.0
 13
5930.009999999996
 23
-3263.540000000001
 33
0.0
  0
SOLID
  5
216
330
A
100
AcDbEntity
  8
SOLDERMASK_PADS_BTM
100
AcDbTrace
 10
6250.009999999996
 20
-3063.540000000001
 30
0.0
 11
6250.009999999996
 21
-2763.540000000001
 31
0.0
 12
5930.009999999996
 22
-3063.540000000001
 32
0.0
 13
5930.009999999996
 23
-2763.540000000001
 33
0.0
  0
SOLID
  5
217
330
A
100
AcDbEntity
  8
SOLDERMASK_PADS_BTM
100
AcDbTrace
 10
6250.009999999996
 20
2396.42
 30
0.0
 11
6250.009999999996
 21
2696.42
 31
0.0
 12
5930.009999999996
 22
2396.42
 32
0.0
 13
5930.009999999996
 23
2696.42
 33
0.0
  0
SOLID
  5
218
330
A
100
AcDbEntity
  8
SOLDERMASK_PADS_BTM
100
AcDbTrace
 10
6250.009999999996
 20
2896.42
 30
0.0
 11
6250.009999999996
 21
3196.42
 31
0.0
 12
5930.009999999996
 22
2896.42
 32
0.0
 13
5930.009999999996
 23
3196.42
 33
0.0
  0
SOLID
  5
219
330
A
100
AcDbEntity
  8
SOLDERMASK_PADS_BTM
100
AcDbTrace
 10
4597.999999999996
 20
-6143.54
 30
0.0
 11
4597.999999999996
 21
-5823.54
 31
0.0
 12
4297.999999999996
 22
-6143.54
 32
0.0
 13
4297.999999999996
 23
-5823.54
 33
0.0
  0
SOLID
  5
21A
330
A
100
AcDbEntity
  8
SOLDERMASK_PADS_BTM
100
AcDbTrace
 10
5097.999999999996
 20
-6143.54
 30
0.0
 11
5097.999999999996
 21
-5823.54
 31
0.0
 12
4797.999999999996
 22
-6143.54
 32
0.0
 13
4797.999999999996
 23
-5823.54
 33
0.0
  0
SOLID
  5
21B
330
A
100
AcDbEntity
  8
SOLDERMASK_PADS_BTM
100
AcDbTrace
 10
-4297.390000000002
 20
12216.42
 30
0.0
 11
-4297.390000000002
 21
12536.42
 31
0.0
 12
-4597.390000000003
 22
12216.42
 32
0.0
 13
-4597.390000000003
 23
12536.42
 33
0.0
  0
SOLID
  5
21C
330
A
100
AcDbEntity
  8
SOLDERMASK_PADS_BTM
100
AcDbTrace
 10
-4797.390000000002
 20
12216.42
 30
0.0
 11
-4797.390000000002
 21
12536.42
 31
0.0
 12
-5097.390000000003
 22
12216.42
 32
0.0
 13
-5097.390000000003
 23
12536.42
 33
0.0
  0
SOLID
  5
21D
330
A
100
AcDbEntity
  8
SOLDERMASK_PADS_BTM
100
AcDbTrace
 10
4597.999999999996
 20
-2723.540000000001
 30
0.0
 11
4597.999999999996
 21
-2403.540000000001
 31
0.0
 12
4297.999999999996
 22
-2723.540000000001
 32
0.0
 13
4297.999999999996
 23
-2403.540000000001
 33
0.0
  0
SOLID
  5
21E
330
A
100
AcDbEntity
  8
SOLDERMASK_PADS_BTM
100
AcDbTrace
 10
5097.999999999996
 20
-2723.540000000001
 30
0.0
 11
5097.999999999996
 21
-2403.540000000001
 31
0.0
 12
4797.999999999996
 22
-2723.540000000001
 32
0.0
 13
4797.999999999996
 23
-2403.540000000001
 33
0.0
  0
SOLID
  5
21F
330
A
100
AcDbEntity
  8
SOLDERMASK_PADS_BTM
100
AcDbTrace
 10
-4297.390000000002
 20
8796.420000000001
 30
0.0
 11
-4297.390000000002
 21
9116.420000000001
 31
0.0
 12
-4597.390000000003
 22
8796.420000000001
 32
0.0
 13
-4597.390000000003
 23
9116.420000000001
 33
0.0
  0
SOLID
  5
220
330
A
100
AcDbEntity
  8
SOLDERMASK_PADS_BTM
100
AcDbTrace
 10
-4797.390000000002
 20
8796.420000000001
 30
0.0
 11
-4797.390000000002
 21
9116.420000000001
 31
0.0
 12
-5097.390000000003
 22
8796.420000000001
 32
0.0
 13
-5097.390000000003
 23
9116.420000000001
 33
0.0
  0
SOLID
  5
221
330
A
100
AcDbEntity
  8
SOLDERMASK_PADS_BTM
100
AcDbTrace
 10
-5359.400000000002
 20
13396.42
 30
0.0
 11
-5359.400000000002
 21
13696.42
 31
0.0
 12
-5679.400000000002
 22
13396.42
 32
0.0
 13
-5679.400000000002
 23
13696.42
 33
0.0
  0
SOLID
  5
222
330
A
100
AcDbEntity
  8
SOLDERMASK_PADS_BTM
100
AcDbTrace
 10
-5359.400000000002
 20
12896.42
 30
0.0
 11
-5359.400000000002
 21
13196.42
 31
0.0
 12
-5679.400000000002
 22
12896.42
 32
0.0
 13
-5679.400000000002
 23
13196.42
 33
0.0
  0
SOLID
  5
223
330
A
100
AcDbEntity
  8
SOLDERMASK_PADS_BTM
100
AcDbTrace
 10
5680.009999999996
 20
-5663.540000000001
 30
0.0
 11
5680.009999999996
 21
-5363.54
 31
0.0
 12
5360.009999999997
 22
-5663.540000000001
 32
0.0
 13
5360.009999999997
 23
-5363.54
 33
0.0
  0
SOLID
  5
224
330
A
100
AcDbEntity
  8
SOLDERMASK_PADS_BTM
100
AcDbTrace
 10
5680.009999999996
 20
-5163.540000000001
 30
0.0
 11
5680.009999999996
 21
-4863.54
 31
0.0
 12
5360.009999999997
 22
-5163.540000000001
 32
0.0
 13
5360.009999999997
 23
-4863.54
 33
0.0
  0
SOLID
  5
225
330
A
100
AcDbEntity
  8
SOLDERMASK_PADS_BTM
100
AcDbTrace
 10
-4297.390000000004
 20
4806.42
 30
0.0
 11
-4297.390000000004
 21
5126.42
 31
0.0
 12
-4597.390000000004
 22
4806.42
 32
0.0
 13
-4597.390000000004
 23
5126.42
 33
0.0
  0
SOLID
  5
226
330
A
100
AcDbEntity
  8
SOLDERMASK_PADS_BTM
100
AcDbTrace
 10
-4797.390000000004
 20
4806.42
 30
0.0
 11
-4797.390000000004
 21
5126.42
 31
0.0
 12
-5097.390000000004
 22
4806.42
 32
0.0
 13
-5097.390000000004
 23
5126.42
 33
0.0
  0
SOLID
  5
227
330
A
100
AcDbEntity
  8
SOLDERMASK_PADS_BTM
100
AcDbTrace
 10
4597.999999999995
 20
-8423.54
 30
0.0
 11
4597.999999999995
 21
-8103.54
 31
0.0
 12
4297.999999999995
 22
-8423.54
 32
0.0
 13
4297.999999999995
 23
-8103.54
 33
0.0
  0
SOLID
  5
228
330
A
100
AcDbEntity
  8
SOLDERMASK_PADS_BTM
100
AcDbTrace
 10
5097.999999999995
 20
-8423.54
 30
0.0
 11
5097.999999999995
 21
-8103.54
 31
0.0
 12
4797.999999999995
 22
-8423.54
 32
0.0
 13
4797.999999999995
 23
-8103.54
 33
0.0
  0
SOLID
  5
229
330
A
100
AcDbEntity
  8
SOLDERMASK_PADS_BTM
100
AcDbTrace
 10
-4297.390000000002
 20
9366.420000000001
 30
0.0
 11
-4297.390000000002
 21
9686.42
 31
0.0
 12
-4597.390000000003
 22
9366.420000000001
 32
0.0
 13
-4597.390000000003
 23
9686.42
 33
0.0
  0
SOLID
  5
22A
330
A
100
AcDbEntity
  8
SOLDERMASK_PADS_BTM
100
AcDbTrace
 10
-4797.390000000002
 20
9366.420000000001
 30
0.0
 11
-4797.390000000002
 21
9686.42
 31
0.0
 12
-5097.390000000003
 22
9366.420000000001
 32
0.0
 13
-5097.390000000003
 23
9686.42
 33
0.0
  0
SOLID
  5
22B
330
A
100
AcDbEntity
  8
SOLDERMASK_PADS_BTM
100
AcDbTrace
 10
-4297.390000000004
 20
-1583.54
 30
0.0
 11
-4297.390000000004
 21
-1263.54
 31
0.0
 12
-4597.390000000004
 22
-1583.54
 32
0.0
 13
-4597.390000000004
 23
-1263.54
 33
0.0
  0
SOLID
  5
22C
330
A
100
AcDbEntity
  8
SOLDERMASK_PADS_BTM
100
AcDbTrace
 10
-4797.390000000004
 20
-1583.54
 30
0.0
 11
-4797.390000000004
 21
-1263.54
 31
0.0
 12
-5097.390000000004
 22
-1583.54
 32
0.0
 13
-5097.390000000004
 23
-1263.54
 33
0.0
  0
SOLID
  5
22D
330
A
100
AcDbEntity
  8
SOLDERMASK_PADS_BTM
100
AcDbTrace
 10
-5359.400000000004
 20
5546.420000000001
 30
0.0
 11
-5359.400000000004
 21
5846.420000000001
 31
0.0
 12
-5679.400000000003
 22
5546.420000000001
 32
0.0
 13
-5679.400000000003
 23
5846.420000000001
 33
0.0
  0
SOLID
  5
22E
330
A
100
AcDbEntity
  8
SOLDERMASK_PADS_BTM
100
AcDbTrace
 10
-5359.400000000004
 20
6046.420000000001
 30
0.0
 11
-5359.400000000004
 21
6346.420000000001
 31
0.0
 12
-5679.400000000003
 22
6046.420000000001
 32
0.0
 13
-5679.400000000003
 23
6346.420000000001
 33
0.0
  0
SOLID
  5
22F
330
A
100
AcDbEntity
  8
SOLDERMASK_PADS_BTM
100
AcDbTrace
 10
-5359.400000000004
 20
-5663.540000000001
 30
0.0
 11
-5359.400000000004
 21
-5363.54
 31
0.0
 12
-5679.400000000003
 22
-5663.540000000001
 32
0.0
 13
-5679.400000000003
 23
-5363.54
 33
0.0
  0
SOLID
  5
230
330
A
100
AcDbEntity
  8
SOLDERMASK_PADS_BTM
100
AcDbTrace
 10
-5359.400000000004
 20
-5163.540000000001
 30
0.0
 11
-5359.400000000004
 21
-4863.54
 31
0.0
 12
-5679.400000000003
 22
-5163.540000000001
 32
0.0
 13
-5679.400000000003
 23
-4863.54
 33
0.0
  0
SOLID
  5
231
330
A
100
AcDbEntity
  8
SOLDERMASK_PADS_BTM
100
AcDbTrace
 10
-4297.390000000004
 20
-1013.539999999999
 30
0.0
 11
-4297.390000000004
 21
-693.5399999999997
 31
0.0
 12
-4597.390000000004
 22
-1013.539999999999
 32
0.0
 13
-4597.390000000004
 23
-693.5399999999997
 33
0.0
  0
SOLID
  5
232
330
A
100
AcDbEntity
  8
SOLDERMASK_PADS_BTM
100
AcDbTrace
 10
-4797.390000000004
 20
-1013.539999999999
 30
0.0
 11
-4797.390000000004
 21
-693.5399999999996
 31
0.0
 12
-5097.390000000004
 22
-1013.539999999999
 32
0.0
 13
-5097.390000000004
 23
-693.5399999999996
 33
0.0
  0
SOLID
  5
233
330
A
100
AcDbEntity
  8
SOLDERMASK_PADS_BTM
100
AcDbTrace
 10
-4297.390000000005
 20
-8993.540000000001
 30
0.0
 11
-4297.390000000005
 21
-8673.54
 31
0.0
 12
-4597.390000000005
 22
-8993.540000000001
 32
0.0
 13
-4597.390000000005
 23
-8673.54
 33
0.0
  0
SOLID
  5
234
330
A
100
AcDbEntity
  8
SOLDERMASK_PADS_BTM
100
AcDbTrace
 10
-4797.390000000005
 20
-8993.540000000001
 30
0.0
 11
-4797.390000000005
 21
-8673.54
 31
0.0
 12
-5097.390000000005
 22
-8993.540000000001
 32
0.0
 13
-5097.390000000005
 23
-8673.54
 33
0.0
  0
SOLID
  5
235
330
A
100
AcDbEntity
  8
SOLDERMASK_PADS_BTM
100
AcDbTrace
 10
-4297.390000000004
 20
-4433.539999999999
 30
0.0
 11
-4297.390000000004
 21
-4113.539999999999
 31
0.0
 12
-4597.390000000004
 22
-4433.539999999999
 32
0.0
 13
-4597.390000000004
 23
-4113.539999999999
 33
0.0
  0
SOLID
  5
236
330
A
100
AcDbEntity
  8
SOLDERMASK_PADS_BTM
100
AcDbTrace
 10
-4797.390000000004
 20
-4433.539999999999
 30
0.0
 11
-4797.390000000004
 21
-4113.539999999999
 31
0.0
 12
-5097.390000000004
 22
-4433.539999999999
 32
0.0
 13
-5097.390000000004
 23
-4113.539999999999
 33
0.0
  0
SOLID
  5
237
330
A
100
AcDbEntity
  8
SOLDERMASK_PADS_BTM
100
AcDbTrace
 10
-5929.400000000002
 20
10796.42
 30
0.0
 11
-5929.400000000002
 21
11096.42
 31
0.0
 12
-6249.400000000003
 22
10796.42
 32
0.0
 13
-6249.400000000003
 23
11096.42
 33
0.0
  0
SOLID
  5
238
330
A
100
AcDbEntity
  8
SOLDERMASK_PADS_BTM
100
AcDbTrace
 10
-5929.400000000002
 20
11296.42
 30
0.0
 11
-5929.400000000002
 21
11596.42
 31
0.0
 12
-6249.400000000003
 22
11296.42
 32
0.0
 13
-6249.400000000003
 23
11596.42
 33
0.0
  0
SOLID
  5
239
330
A
100
AcDbEntity
  8
SOLDERMASK_PADS_BTM
100
AcDbTrace
 10
-4297.390000000005
 20
-8423.54
 30
0.0
 11
-4297.390000000005
 21
-8103.54
 31
0.0
 12
-4597.390000000005
 22
-8423.54
 32
0.0
 13
-4597.390000000005
 23
-8103.54
 33
0.0
  0
SOLID
  5
23A
330
A
100
AcDbEntity
  8
SOLDERMASK_PADS_BTM
100
AcDbTrace
 10
-4797.390000000005
 20
-8423.54
 30
0.0
 11
-4797.390000000005
 21
-8103.54
 31
0.0
 12
-5097.390000000005
 22
-8423.54
 32
0.0
 13
-5097.390000000005
 23
-8103.54
 33
0.0
  0
SOLID
  5
23B
330
A
100
AcDbEntity
  8
SOLDERMASK_PADS_BTM
100
AcDbTrace
 10
-6567.400000000003
 20
5696.42
 30
0.0
 11
-6567.400000000003
 21
6346.420000000001
 31
0.0
 12
-6943.400000000004
 22
5696.42
 32
0.0
 13
-6943.400000000004
 23
6346.420000000001
 33
0.0
  0
SOLID
  5
23C
330
A
100
AcDbEntity
  8
SOLDERMASK_PADS_BTM
100
AcDbTrace
 10
-7543.400000000004
 20
5696.420000000001
 30
0.0
 11
-7543.400000000004
 21
6346.420000000001
 31
0.0
 12
-7919.400000000003
 22
5696.420000000001
 32
0.0
 13
-7919.400000000003
 23
6346.420000000001
 33
0.0
  0
SOLID
  5
23D
330
A
100
AcDbEntity
  8
SOLDERMASK_PADS_BTM
100
AcDbTrace
 10
-5929.400000000003
 20
-6213.54
 30
0.0
 11
-5929.400000000003
 21
-5913.540000000001
 31
0.0
 12
-6249.400000000004
 22
-6213.54
 32
0.0
 13
-6249.400000000004
 23
-5913.540000000001
 33
0.0
  0
SOLID
  5
23E
330
A
100
AcDbEntity
  8
SOLDERMASK_PADS_BTM
100
AcDbTrace
 10
-5929.400000000003
 20
-6713.54
 30
0.0
 11
-5929.400000000003
 21
-6413.540000000001
 31
0.0
 12
-6249.400000000004
 22
-6713.54
 32
0.0
 13
-6249.400000000004
 23
-6413.540000000001
 33
0.0
  0
SOLID
  5
23F
330
A
100
AcDbEntity
  8
SOLDERMASK_PADS_BTM
100
AcDbTrace
 10
-5929.400000000002
 20
11846.42
 30
0.0
 11
-5929.400000000002
 21
12146.42
 31
0.0
 12
-6249.400000000003
 22
11846.42
 32
0.0
 13
-6249.400000000003
 23
12146.42
 33
0.0
  0
SOLID
  5
240
330
A
100
AcDbEntity
  8
SOLDERMASK_PADS_BTM
100
AcDbTrace
 10
-5929.400000000002
 20
12346.42
 30
0.0
 11
-5929.400000000002
 21
12646.42
 31
0.0
 12
-6249.400000000003
 22
12346.42
 32
0.0
 13
-6249.400000000003
 23
12646.42
 33
0.0
  0
SOLID
  5
241
330
A
100
AcDbEntity
  8
SOLDERMASK_PADS_BTM
100
AcDbTrace
 10
-6567.400000000003
 20
-1463.539999999999
 30
0.0
 11
-6567.400000000003
 21
-813.5399999999995
 31
0.0
 12
-6943.400000000004
 22
-1463.539999999999
 32
0.0
 13
-6943.400000000004
 23
-813.5399999999995
 33
0.0
  0
SOLID
  5
242
330
A
100
AcDbEntity
  8
SOLDERMASK_PADS_BTM
100
AcDbTrace
 10
-7543.400000000004
 20
-1463.539999999999
 30
0.0
 11
-7543.400000000004
 21
-813.5399999999995
 31
0.0
 12
-7919.400000000003
 22
-1463.539999999999
 32
0.0
 13
-7919.400000000003
 23
-813.5399999999995
 33
0.0
  0
SOLID
  5
243
330
A
100
AcDbEntity
  8
SOLDERMASK_PADS_BTM
100
AcDbTrace
 10
-5929.400000000003
 20
7096.420000000001
 30
0.0
 11
-5929.400000000003
 21
7396.42
 31
0.0
 12
-6249.400000000004
 22
7096.420000000001
 32
0.0
 13
-6249.400000000004
 23
7396.42
 33
0.0
  0
SOLID
  5
244
330
A
100
AcDbEntity
  8
SOLDERMASK_PADS_BTM
100
AcDbTrace
 10
-5929.400000000003
 20
6596.420000000001
 30
0.0
 11
-5929.400000000003
 21
6896.42
 31
0.0
 12
-6249.400000000004
 22
6596.420000000001
 32
0.0
 13
-6249.400000000004
 23
6896.42
 33
0.0
  0
SOLID
  5
245
330
A
100
AcDbEntity
  8
SOLDERMASK_PADS_BTM
100
AcDbTrace
 10
-7594.400000000003
 20
2426.420000000001
 30
0.0
 11
-7594.400000000003
 21
2746.42
 31
0.0
 12
-7894.400000000003
 22
2426.420000000001
 32
0.0
 13
-7894.400000000003
 23
2746.42
 33
0.0
  0
SOLID
  5
246
330
A
100
AcDbEntity
  8
SOLDERMASK_PADS_BTM
100
AcDbTrace
 10
-7094.400000000003
 20
2426.420000000001
 30
0.0
 11
-7094.400000000003
 21
2746.42
 31
0.0
 12
-7394.400000000003
 22
2426.420000000001
 32
0.0
 13
-7394.400000000003
 23
2746.42
 33
0.0
  0
SOLID
  5
247
330
A
100
AcDbEntity
  8
SOLDERMASK_PADS_BTM
100
AcDbTrace
 10
-5929.400000000003
 20
-5663.540000000001
 30
0.0
 11
-5929.400000000003
 21
-5363.54
 31
0.0
 12
-6249.400000000004
 22
-5663.540000000001
 32
0.0
 13
-6249.400000000004
 23
-5363.54
 33
0.0
  0
SOLID
  5
248
330
A
100
AcDbEntity
  8
SOLDERMASK_PADS_BTM
100
AcDbTrace
 10
-5929.400000000003
 20
-5163.540000000001
 30
0.0
 11
-5929.400000000003
 21
-4863.54
 31
0.0
 12
-6249.400000000004
 22
-5163.540000000001
 32
0.0
 13
-6249.400000000004
 23
-4863.54
 33
0.0
  0
SOLID
  5
249
330
A
100
AcDbEntity
  8
SOLDERMASK_PADS_BTM
100
AcDbTrace
 10
6944.009999999997
 20
13796.422
 30
0.0
 11
6944.009999999997
 21
14446.422
 31
0.0
 12
6568.009999999998
 22
13796.422
 32
0.0
 13
6568.009999999998
 23
14446.422
 33
0.0
  0
SOLID
  5
24A
330
A
100
AcDbEntity
  8
SOLDERMASK_PADS_BTM
100
AcDbTrace
 10
7920.009999999997
 20
13796.422
 30
0.0
 11
7920.009999999997
 21
14446.422
 31
0.0
 12
7544.009999999997
 22
13796.422
 32
0.0
 13
7544.009999999997
 23
14446.422
 33
0.0
  0
SOLID
  5
24B
330
A
100
AcDbEntity
  8
SOLDERMASK_PADS_BTM
100
AcDbTrace
 10
7920.009999999996
 20
4796.417999999999
 30
0.0
 11
7920.009999999996
 21
5446.418
 31
0.0
 12
7544.009999999997
 22
4796.417999999999
 32
0.0
 13
7544.009999999997
 23
5446.418
 33
0.0
  0
SOLID
  5
24C
330
A
100
AcDbEntity
  8
SOLDERMASK_PADS_BTM
100
AcDbTrace
 10
6944.009999999997
 20
4796.418
 30
0.0
 11
6944.009999999997
 21
5446.418000000001
 31
0.0
 12
6568.009999999997
 22
4796.418
 32
0.0
 13
6568.009999999997
 23
5446.418000000001
 33
0.0
  0
SOLID
  5
24D
330
A
100
AcDbEntity
  8
SOLDERMASK_PADS_BTM
100
AcDbTrace
 10
6944.009999999997
 20
-6863.538000000001
 30
0.0
 11
6944.009999999997
 21
-6213.538
 31
0.0
 12
6568.009999999997
 22
-6863.538000000001
 32
0.0
 13
6568.009999999997
 23
-6213.538
 33
0.0
  0
SOLID
  5
24E
330
A
100
AcDbEntity
  8
SOLDERMASK_PADS_BTM
100
AcDbTrace
 10
7920.009999999996
 20
-6863.538000000001
 30
0.0
 11
7920.009999999996
 21
-6213.538000000001
 31
0.0
 12
7544.009999999997
 22
-6863.538000000001
 32
0.0
 13
7544.009999999997
 23
-6213.538000000001
 33
0.0
  0
SOLID
  5
24F
330
A
100
AcDbEntity
  8
SOLDERMASK_PADS_BTM
100
AcDbTrace
 10
6944.009999999997
 20
6596.418000000001
 30
0.0
 11
6944.009999999997
 21
7246.418000000002
 31
0.0
 12
6568.009999999997
 22
6596.418000000001
 32
0.0
 13
6568.009999999997
 23
7246.418000000002
 33
0.0
  0
SOLID
  5
250
330
A
100
AcDbEntity
  8
SOLDERMASK_PADS_BTM
100
AcDbTrace
 10
7920.009999999996
 20
6596.417999999999
 30
0.0
 11
7920.009999999996
 21
7246.418
 31
0.0
 12
7544.009999999997
 22
6596.417999999999
 32
0.0
 13
7544.009999999997
 23
7246.418
 33
0.0
  0
SOLID
  5
251
330
A
100
AcDbEntity
  8
SOLDERMASK_PADS_BTM
100
AcDbTrace
 10
4597.999999999998
 20
12986.32
 30
0.0
 11
4597.999999999998
 21
13306.32
 31
0.0
 12
4297.999999999997
 22
12986.32
 32
0.0
 13
4297.999999999997
 23
13306.32
 33
0.0
  0
SOLID
  5
252
330
A
100
AcDbEntity
  8
SOLDERMASK_PADS_BTM
100
AcDbTrace
 10
5097.999999999998
 20
12986.32
 30
0.0
 11
5097.999999999998
 21
13306.32
 31
0.0
 12
4797.999999999997
 22
12986.32
 32
0.0
 13
4797.999999999997
 23
13306.32
 33
0.0
  0
SOLID
  5
253
330
A
100
AcDbEntity
  8
SOLDERMASK_PADS_BTM
100
AcDbTrace
 10
6944.009999999997
 20
-5063.542
 30
0.0
 11
6944.009999999997
 21
-4413.542
 31
0.0
 12
6568.009999999997
 22
-5063.542
 32
0.0
 13
6568.009999999997
 23
-4413.542
 33
0.0
  0
SOLID
  5
254
330
A
100
AcDbEntity
  8
SOLDERMASK_PADS_BTM
100
AcDbTrace
 10
7920.009999999996
 20
-5063.542000000001
 30
0.0
 11
7920.009999999996
 21
-4413.542000000001
 31
0.0
 12
7544.009999999997
 22
-5063.542000000001
 32
0.0
 13
7544.009999999997
 23
-4413.542000000001
 33
0.0
  0
SOLID
  5
255
330
A
100
AcDbEntity
  8
SOLDERMASK_PADS_BTM
100
AcDbTrace
 10
6250.009999999997
 20
10246.42
 30
0.0
 11
6250.009999999997
 21
10546.42
 31
0.0
 12
5930.009999999998
 22
10246.42
 32
0.0
 13
5930.009999999998
 23
10546.42
 33
0.0
  0
SOLID
  5
256
330
A
100
AcDbEntity
  8
SOLDERMASK_PADS_BTM
100
AcDbTrace
 10
6250.009999999997
 20
9746.42
 30
0.0
 11
6250.009999999997
 21
10046.42
 31
0.0
 12
5930.009999999998
 22
9746.42
 32
0.0
 13
5930.009999999998
 23
10046.42
 33
0.0
  0
SOLID
  5
257
330
A
100
AcDbEntity
  8
SOLDERMASK_PADS_BTM
100
AcDbTrace
 10
6250.009999999997
 20
13396.42
 30
0.0
 11
6250.009999999997
 21
13696.42
 31
0.0
 12
5930.009999999998
 22
13396.42
 32
0.0
 13
5930.009999999998
 23
13696.42
 33
0.0
  0
SOLID
  5
258
330
A
100
AcDbEntity
  8
SOLDERMASK_PADS_BTM
100
AcDbTrace
 10
6250.009999999997
 20
12896.42
 30
0.0
 11
6250.009999999997
 21
13196.42
 31
0.0
 12
5930.009999999998
 22
12896.42
 32
0.0
 13
5930.009999999998
 23
13196.42
 33
0.0
  0
SOLID
  5
259
330
A
100
AcDbEntity
  8
SOLDERMASK_PADS_BTM
100
AcDbTrace
 10
4597.999999999996
 20
7286.319999999999
 30
0.0
 11
4597.999999999998
 21
7606.32
 31
0.0
 12
4297.999999999996
 22
7286.319999999999
 32
0.0
 13
4297.999999999997
 23
7606.32
 33
0.0
  0
SOLID
  5
25A
330
A
100
AcDbEntity
  8
SOLDERMASK_PADS_BTM
100
AcDbTrace
 10
5097.999999999996
 20
7286.319999999999
 30
0.0
 11
5097.999999999998
 21
7606.32
 31
0.0
 12
4797.999999999996
 22
7286.319999999999
 32
0.0
 13
4797.999999999997
 23
7606.32
 33
0.0
  0
SOLID
  5
25B
330
A
100
AcDbEntity
  8
SOLDERMASK_PADS_BTM
100
AcDbTrace
 10
4597.999999999998
 20
10706.32
 30
0.0
 11
4597.999999999998
 21
11026.32
 31
0.0
 12
4297.999999999997
 22
10706.32
 32
0.0
 13
4297.999999999997
 23
11026.32
 33
0.0
  0
SOLID
  5
25C
330
A
100
AcDbEntity
  8
SOLDERMASK_PADS_BTM
100
AcDbTrace
 10
5097.999999999998
 20
10706.32
 30
0.0
 11
5097.999999999998
 21
11026.32
 31
0.0
 12
4797.999999999997
 22
10706.32
 32
0.0
 13
4797.999999999997
 23
11026.32
 33
0.0
  0
SOLID
  5
25D
330
A
100
AcDbEntity
  8
SOLDERMASK_PADS_BTM
100
AcDbTrace
 10
5680.009999999996
 20
4996.42
 30
0.0
 11
5680.009999999996
 21
5296.420000000001
 31
0.0
 12
5360.009999999997
 22
4996.42
 32
0.0
 13
5360.009999999997
 23
5296.420000000001
 33
0.0
  0
SOLID
  5
25E
330
A
100
AcDbEntity
  8
SOLDERMASK_PADS_BTM
100
AcDbTrace
 10
5680.009999999996
 20
4496.419999999999
 30
0.0
 11
5680.009999999996
 21
4796.42
 31
0.0
 12
5360.009999999997
 22
4496.419999999999
 32
0.0
 13
5360.009999999997
 23
4796.42
 33
0.0
  0
SOLID
  5
25F
330
A
100
AcDbEntity
  8
SOLDERMASK_PADS_BTM
100
AcDbTrace
 10
5680.009999999998
 20
7646.42
 30
0.0
 11
5680.009999999998
 21
7946.42
 31
0.0
 12
5360.009999999998
 22
7646.42
 32
0.0
 13
5360.009999999998
 23
7946.42
 33
0.0
  0
SOLID
  5
260
330
A
100
AcDbEntity
  8
SOLDERMASK_PADS_BTM
100
AcDbTrace
 10
5680.009999999998
 20
8146.42
 30
0.0
 11
5680.009999999998
 21
8446.420000000001
 31
0.0
 12
5360.009999999998
 22
8146.42
 32
0.0
 13
5360.009999999998
 23
8446.420000000001
 33
0.0
  0
SOLID
  5
261
330
A
100
AcDbEntity
  8
SOLDERMASK_PADS_BTM
100
AcDbTrace
 10
4597.999999999996
 20
-1013.54
 30
0.0
 11
4597.999999999996
 21
-693.5400000000002
 31
0.0
 12
4297.999999999996
 22
-1013.54
 32
0.0
 13
4297.999999999996
 23
-693.5400000000002
 33
0.0
  0
SOLID
  5
262
330
A
100
AcDbEntity
  8
SOLDERMASK_PADS_BTM
100
AcDbTrace
 10
5097.999999999996
 20
-1013.54
 30
0.0
 11
5097.999999999996
 21
-693.5400000000003
 31
0.0
 12
4797.999999999996
 22
-1013.54
 32
0.0
 13
4797.999999999996
 23
-693.5400000000003
 33
0.0
  0
SOLID
  5
263
330
A
100
AcDbEntity
  8
SOLDERMASK_PADS_BTM
100
AcDbTrace
 10
4597.999999999996
 20
5006.319999999999
 30
0.0
 11
4597.999999999996
 21
5326.319999999999
 31
0.0
 12
4297.999999999996
 22
5006.319999999999
 32
0.0
 13
4297.999999999996
 23
5326.319999999999
 33
0.0
  0
SOLID
  5
264
330
A
100
AcDbEntity
  8
SOLDERMASK_PADS_BTM
100
AcDbTrace
 10
5097.999999999996
 20
5006.319999999999
 30
0.0
 11
5097.999999999996
 21
5326.319999999999
 31
0.0
 12
4797.999999999996
 22
5006.319999999999
 32
0.0
 13
4797.999999999996
 23
5326.319999999999
 33
0.0
  0
SOLID
  5
265
330
A
100
AcDbEntity
  8
SOLDERMASK_PADS_BTM
100
AcDbTrace
 10
4597.999999999995
 20
-8993.540000000001
 30
0.0
 11
4597.999999999995
 21
-8673.54
 31
0.0
 12
4297.999999999995
 22
-8993.540000000001
 32
0.0
 13
4297.999999999995
 23
-8673.54
 33
0.0
  0
SOLID
  5
266
330
A
100
AcDbEntity
  8
SOLDERMASK_PADS_BTM
100
AcDbTrace
 10
5097.999999999995
 20
-8993.540000000001
 30
0.0
 11
5097.999999999995
 21
-8673.54
 31
0.0
 12
4797.999999999995
 22
-8993.540000000001
 32
0.0
 13
4797.999999999995
 23
-8673.54
 33
0.0
  0
SOLID
  5
267
330
A
100
AcDbEntity
  8
SOLDERMASK_PADS_BTM
100
AcDbTrace
 10
5680.009999999996
 20
-3563.540000000001
 30
0.0
 11
5680.009999999996
 21
-3263.540000000001
 31
0.0
 12
5360.009999999997
 22
-3563.540000000001
 32
0.0
 13
5360.009999999997
 23
-3263.540000000001
 33
0.0
  0
SOLID
  5
268
330
A
100
AcDbEntity
  8
SOLDERMASK_PADS_BTM
100
AcDbTrace
 10
5680.009999999996
 20
-3063.540000000001
 30
0.0
 11
5680.009999999996
 21
-2763.540000000001
 31
0.0
 12
5360.009999999997
 22
-3063.540000000001
 32
0.0
 13
5360.009999999997
 23
-2763.540000000001
 33
0.0
  0
SOLID
  5
269
330
A
100
AcDbEntity
  8
SOLDERMASK_PADS_BTM
100
AcDbTrace
 10
5680.009999999996
 20
2396.42
 30
0.0
 11
5680.009999999996
 21
2696.42
 31
0.0
 12
5360.009999999997
 22
2396.42
 32
0.0
 13
5360.009999999997
 23
2696.42
 33
0.0
  0
SOLID
  5
26A
330
A
100
AcDbEntity
  8
SOLDERMASK_PADS_BTM
100
AcDbTrace
 10
5680.009999999996
 20
2896.42
 30
0.0
 11
5680.009999999996
 21
3196.42
 31
0.0
 12
5360.009999999997
 22
2896.42
 32
0.0
 13
5360.009999999997
 23
3196.42
 33
0.0
  0
SOLID
  5
26B
330
A
100
AcDbEntity
  8
SOLDERMASK_PADS_BTM
100
AcDbTrace
 10
-5359.400000000002
 20
11846.42
 30
0.0
 11
-5359.400000000002
 21
12146.42
 31
0.0
 12
-5679.400000000002
 22
11846.42
 32
0.0
 13
-5679.400000000002
 23
12146.42
 33
0.0
  0
SOLID
  5
26C
330
A
100
AcDbEntity
  8
SOLDERMASK_PADS_BTM
100
AcDbTrace
 10
-5359.400000000002
 20
12346.42
 30
0.0
 11
-5359.400000000002
 21
12646.42
 31
0.0
 12
-5679.400000000002
 22
12346.42
 32
0.0
 13
-5679.400000000002
 23
12646.42
 33
0.0
  0
SOLID
  5
26D
330
A
100
AcDbEntity
  8
SOLDERMASK_PADS_BTM
100
AcDbTrace
 10
6250.009999999996
 20
-6213.54
 30
0.0
 11
6250.009999999996
 21
-5913.540000000001
 31
0.0
 12
5930.009999999996
 22
-6213.54
 32
0.0
 13
5930.009999999996
 23
-5913.540000000001
 33
0.0
  0
SOLID
  5
26E
330
A
100
AcDbEntity
  8
SOLDERMASK_PADS_BTM
100
AcDbTrace
 10
6250.009999999996
 20
-6713.54
 30
0.0
 11
6250.009999999996
 21
-6413.540000000001
 31
0.0
 12
5930.009999999996
 22
-6713.54
 32
0.0
 13
5930.009999999996
 23
-6413.540000000001
 33
0.0
  0
SOLID
  5
26F
330
A
100
AcDbEntity
  8
SOLDERMASK_PADS_BTM
100
AcDbTrace
 10
4597.999999999996
 20
-3293.54
 30
0.0
 11
4597.999999999996
 21
-2973.540000000001
 31
0.0
 12
4297.999999999996
 22
-3293.54
 32
0.0
 13
4297.999999999996
 23
-2973.540000000001
 33
0.0
  0
SOLID
  5
270
330
A
100
AcDbEntity
  8
SOLDERMASK_PADS_BTM
100
AcDbTrace
 10
5097.999999999996
 20
-3293.54
 30
0.0
 11
5097.999999999996
 21
-2973.540000000001
 31
0.0
 12
4797.999999999996
 22
-3293.54
 32
0.0
 13
4797.999999999996
 23
-2973.540000000001
 33
0.0
  0
SOLID
  5
271
330
A
100
AcDbEntity
  8
SOLDERMASK_PADS_BTM
100
AcDbTrace
 10
-4297.390000000002
 20
8226.42
 30
0.0
 11
-4297.390000000002
 21
8546.420000000001
 31
0.0
 12
-4597.390000000003
 22
8226.42
 32
0.0
 13
-4597.390000000003
 23
8546.420000000001
 33
0.0
  0
SOLID
  5
272
330
A
100
AcDbEntity
  8
SOLDERMASK_PADS_BTM
100
AcDbTrace
 10
-4797.390000000002
 20
8226.42
 30
0.0
 11
-4797.390000000002
 21
8546.420000000001
 31
0.0
 12
-5097.390000000003
 22
8226.42
 32
0.0
 13
-5097.390000000003
 23
8546.420000000001
 33
0.0
  0
SOLID
  5
273
330
A
100
AcDbEntity
  8
SOLDERMASK_PADS_BTM
100
AcDbTrace
 10
4597.999999999996
 20
-5573.54
 30
0.0
 11
4597.999999999996
 21
-5253.54
 31
0.0
 12
4297.999999999996
 22
-5573.54
 32
0.0
 13
4297.999999999996
 23
-5253.54
 33
0.0
  0
SOLID
  5
274
330
A
100
AcDbEntity
  8
SOLDERMASK_PADS_BTM
100
AcDbTrace
 10
5097.999999999996
 20
-5573.54
 30
0.0
 11
5097.999999999996
 21
-5253.54
 31
0.0
 12
4797.999999999996
 22
-5573.54
 32
0.0
 13
4797.999999999996
 23
-5253.54
 33
0.0
  0
SOLID
  5
275
330
A
100
AcDbEntity
  8
SOLDERMASK_PADS_BTM
100
AcDbTrace
 10
-4297.390000000002
 20
12786.42
 30
0.0
 11
-4297.390000000002
 21
13106.42
 31
0.0
 12
-4597.390000000003
 22
12786.42
 32
0.0
 13
-4597.390000000003
 23
13106.42
 33
0.0
  0
SOLID
  5
276
330
A
100
AcDbEntity
  8
SOLDERMASK_PADS_BTM
100
AcDbTrace
 10
-4797.390000000002
 20
12786.42
 30
0.0
 11
-4797.390000000002
 21
13106.42
 31
0.0
 12
-5097.390000000003
 22
12786.42
 32
0.0
 13
-5097.390000000003
 23
13106.42
 33
0.0
  0
SOLID
  5
277
330
A
100
AcDbEntity
  8
SOLDERMASK_PADS_BTM
100
AcDbTrace
 10
-5359.400000000004
 20
4996.42
 30
0.0
 11
-5359.400000000004
 21
5296.420000000001
 31
0.0
 12
-5679.400000000003
 22
4996.42
 32
0.0
 13
-5679.400000000003
 23
5296.420000000001
 33
0.0
  0
SOLID
  5
278
330
A
100
AcDbEntity
  8
SOLDERMASK_PADS_BTM
100
AcDbTrace
 10
-5359.400000000004
 20
4496.419999999999
 30
0.0
 11
-5359.400000000004
 21
4796.42
 31
0.0
 12
-5679.400000000003
 22
4496.419999999999
 32
0.0
 13
-5679.400000000003
 23
4796.42
 33
0.0
  0
SOLID
  5
279
330
A
100
AcDbEntity
  8
SOLDERMASK_PADS_BTM
100
AcDbTrace
 10
-5359.400000000002
 20
8696.420000000001
 30
0.0
 11
-5359.400000000002
 21
8996.42
 31
0.0
 12
-5679.400000000002
 22
8696.420000000001
 32
0.0
 13
-5679.400000000002
 23
8996.42
 33
0.0
  0
SOLID
  5
27A
330
A
100
AcDbEntity
  8
SOLDERMASK_PADS_BTM
100
AcDbTrace
 10
-5359.400000000002
 20
9196.420000000001
 30
0.0
 11
-5359.400000000002
 21
9496.42
 31
0.0
 12
-5679.400000000002
 22
9196.420000000001
 32
0.0
 13
-5679.400000000002
 23
9496.42
 33
0.0
  0
SOLID
  5
27B
330
A
100
AcDbEntity
  8
SOLDERMASK_PADS_BTM
100
AcDbTrace
 10
6250.009999999996
 20
-8313.540000000001
 30
0.0
 11
6250.009999999996
 21
-8013.54
 31
0.0
 12
5930.009999999995
 22
-8313.540000000001
 32
0.0
 13
5930.009999999995
 23
-8013.54
 33
0.0
  0
SOLID
  5
27C
330
A
100
AcDbEntity
  8
SOLDERMASK_PADS_BTM
100
AcDbTrace
 10
6250.009999999996
 20
-8813.540000000001
 30
0.0
 11
6250.009999999996
 21
-8513.54
 31
0.0
 12
5930.009999999995
 22
-8813.540000000001
 32
0.0
 13
5930.009999999995
 23
-8513.54
 33
0.0
  0
SOLID
  5
27D
330
A
100
AcDbEntity
  8
SOLDERMASK_PADS_BTM
100
AcDbTrace
 10
-4297.390000000004
 20
-2153.54
 30
0.0
 11
-4297.390000000004
 21
-1833.539999999999
 31
0.0
 12
-4597.390000000004
 22
-2153.54
 32
0.0
 13
-4597.390000000004
 23
-1833.539999999999
 33
0.0
  0
SOLID
  5
27E
330
A
100
AcDbEntity
  8
SOLDERMASK_PADS_BTM
100
AcDbTrace
 10
-4797.390000000004
 20
-2153.54
 30
0.0
 11
-4797.390000000004
 21
-1833.539999999999
 31
0.0
 12
-5097.390000000004
 22
-2153.54
 32
0.0
 13
-5097.390000000004
 23
-1833.539999999999
 33
0.0
  0
SOLID
  5
27F
330
A
100
AcDbEntity
  8
SOLDERMASK_PADS_BTM
100
AcDbTrace
 10
-4297.390000000004
 20
5376.42
 30
0.0
 11
-4297.390000000004
 21
5696.42
 31
0.0
 12
-4597.390000000004
 22
5376.42
 32
0.0
 13
-4597.390000000004
 23
5696.42
 33
0.0
  0
SOLID
  5
280
330
A
100
AcDbEntity
  8
SOLDERMASK_PADS_BTM
100
AcDbTrace
 10
-4797.390000000004
 20
5376.42
 30
0.0
 11
-4797.390000000004
 21
5696.42
 31
0.0
 12
-5097.390000000004
 22
5376.42
 32
0.0
 13
-5097.390000000004
 23
5696.42
 33
0.0
  0
SOLID
  5
281
330
A
100
AcDbEntity
  8
SOLDERMASK_PADS_BTM
100
AcDbTrace
 10
-4297.390000000004
 20
-5573.54
 30
0.0
 11
-4297.390000000004
 21
-5253.54
 31
0.0
 12
-4597.390000000004
 22
-5573.54
 32
0.0
 13
-4597.390000000004
 23
-5253.54
 33
0.0
  0
SOLID
  5
282
330
A
100
AcDbEntity
  8
SOLDERMASK_PADS_BTM
100
AcDbTrace
 10
-4797.390000000004
 20
-5573.54
 30
0.0
 11
-4797.390000000004
 21
-5253.54
 31
0.0
 12
-5097.390000000004
 22
-5573.54
 32
0.0
 13
-5097.390000000004
 23
-5253.54
 33
0.0
  0
SOLID
  5
283
330
A
100
AcDbEntity
  8
SOLDERMASK_PADS_BTM
100
AcDbTrace
 10
-5359.400000000004
 20
-1463.54
 30
0.0
 11
-5359.400000000004
 21
-1163.54
 31
0.0
 12
-5679.400000000003
 22
-1463.539999999999
 32
0.0
 13
-5679.400000000003
 23
-1163.539999999999
 33
0.0
  0
SOLID
  5
284
330
A
100
AcDbEntity
  8
SOLDERMASK_PADS_BTM
100
AcDbTrace
 10
-5359.400000000004
 20
-963.5399999999997
 30
0.0
 11
-5359.400000000004
 21
-663.5399999999996
 31
0.0
 12
-5679.400000000003
 22
-963.5399999999997
 32
0.0
 13
-5679.400000000003
 23
-663.5399999999996
 33
0.0
  0
SOLID
  5
285
330
A
100
AcDbEntity
  8
SOLDERMASK_PADS_BTM
100
AcDbTrace
 10
-4297.390000000005
 20
-9563.540000000001
 30
0.0
 11
-4297.390000000005
 21
-9243.540000000001
 31
0.0
 12
-4597.390000000005
 22
-9563.540000000001
 32
0.0
 13
-4597.390000000005
 23
-9243.540000000001
 33
0.0
  0
SOLID
  5
286
330
A
100
AcDbEntity
  8
SOLDERMASK_PADS_BTM
100
AcDbTrace
 10
-4797.390000000005
 20
-9563.540000000001
 30
0.0
 11
-4797.390000000005
 21
-9243.540000000001
 31
0.0
 12
-5097.390000000005
 22
-9563.540000000001
 32
0.0
 13
-5097.390000000005
 23
-9243.540000000001
 33
0.0
  0
SOLID
  5
287
330
A
100
AcDbEntity
  8
SOLDERMASK_PADS_BTM
100
AcDbTrace
 10
-4297.390000000004
 20
-5003.54
 30
0.0
 11
-4297.390000000004
 21
-4683.539999999999
 31
0.0
 12
-4597.390000000004
 22
-5003.54
 32
0.0
 13
-4597.390000000004
 23
-4683.539999999999
 33
0.0
  0
SOLID
  5
288
330
A
100
AcDbEntity
  8
SOLDERMASK_PADS_BTM
100
AcDbTrace
 10
-4797.390000000004
 20
-5003.54
 30
0.0
 11
-4797.390000000004
 21
-4683.539999999999
 31
0.0
 12
-5097.390000000004
 22
-5003.54
 32
0.0
 13
-5097.390000000004
 23
-4683.539999999999
 33
0.0
  0
SOLID
  5
289
330
A
100
AcDbEntity
  8
SOLDERMASK_PADS_BTM
100
AcDbTrace
 10
-6567.400000000002
 20
10196.42
 30
0.0
 11
-6567.400000000002
 21
10846.42
 31
0.0
 12
-6943.400000000003
 22
10196.42
 32
0.0
 13
-6943.400000000003
 23
10846.42
 33
0.0
  0
SOLID
  5
28A
330
A
100
AcDbEntity
  8
SOLDERMASK_PADS_BTM
100
AcDbTrace
 10
-7543.400000000002
 20
10196.42
 30
0.0
 11
-7543.400000000002
 21
10846.42
 31
0.0
 12
-7919.400000000003
 22
10196.42
 32
0.0
 13
-7919.400000000003
 23
10846.42
 33
0.0
  0
SOLID
  5
28B
330
A
100
AcDbEntity
  8
SOLDERMASK_PADS_BTM
100
AcDbTrace
 10
-5359.400000000004
 20
-8313.540000000001
 30
0.0
 11
-5359.400000000004
 21
-8013.54
 31
0.0
 12
-5679.400000000004
 22
-8313.540000000001
 32
0.0
 13
-5679.400000000004
 23
-8013.54
 33
0.0
  0
SOLID
  5
28C
330
A
100
AcDbEntity
  8
SOLDERMASK_PADS_BTM
100
AcDbTrace
 10
-5359.400000000004
 20
-8813.540000000001
 30
0.0
 11
-5359.400000000004
 21
-8513.54
 31
0.0
 12
-5679.400000000004
 22
-8813.540000000001
 32
0.0
 13
-5679.400000000004
 23
-8513.54
 33
0.0
  0
SOLID
  5
28D
330
A
100
AcDbEntity
  8
SOLDERMASK_PADS_BTM
100
AcDbTrace
 10
-6567.400000000003
 20
-6863.54
 30
0.0
 11
-6567.400000000003
 21
-6213.54
 31
0.0
 12
-6943.400000000004
 22
-6863.54
 32
0.0
 13
-6943.400000000004
 23
-6213.54
 33
0.0
  0
SOLID
  5
28E
330
A
100
AcDbEntity
  8
SOLDERMASK_PADS_BTM
100
AcDbTrace
 10
-7543.400000000004
 20
-6863.539999999999
 30
0.0
 11
-7543.400000000004
 21
-6213.539999999999
 31
0.0
 12
-7919.400000000003
 22
-6863.539999999999
 32
0.0
 13
-7919.400000000003
 23
-6213.539999999999
 33
0.0
  0
SOLID
  5
28F
330
A
100
AcDbEntity
  8
SOLDERMASK_PADS_BTM
100
AcDbTrace
 10
-5929.400000000003
 20
5546.420000000001
 30
0.0
 11
-5929.400000000003
 21
5846.420000000001
 31
0.0
 12
-6249.400000000004
 22
5546.420000000001
 32
0.0
 13
-6249.400000000004
 23
5846.420000000001
 33
0.0
  0
SOLID
  5
290
330
A
100
AcDbEntity
  8
SOLDERMASK_PADS_BTM
100
AcDbTrace
 10
-5929.400000000003
 20
6046.420000000001
 30
0.0
 11
-5929.400000000003
 21
6346.420000000001
 31
0.0
 12
-6249.400000000004
 22
6046.420000000001
 32
0.0
 13
-6249.400000000004
 23
6346.420000000001
 33
0.0
  0
SOLID
  5
291
330
A
100
AcDbEntity
  8
SOLDERMASK_PADS_BTM
100
AcDbTrace
 10
-6567.400000000002
 20
11096.42
 30
0.0
 11
-6567.400000000002
 21
11746.42
 31
0.0
 12
-6943.400000000003
 22
11096.42
 32
0.0
 13
-6943.400000000003
 23
11746.42
 33
0.0
  0
SOLID
  5
292
330
A
100
AcDbEntity
  8
SOLDERMASK_PADS_BTM
100
AcDbTrace
 10
-7543.400000000002
 20
11096.42
 30
0.0
 11
-7543.400000000002
 21
11746.42
 31
0.0
 12
-7919.400000000003
 22
11096.42
 32
0.0
 13
-7919.400000000003
 23
11746.42
 33
0.0
  0
SOLID
  5
293
330
A
100
AcDbEntity
  8
SOLDERMASK_PADS_BTM
100
AcDbTrace
 10
-6567.400000000003
 20
-2363.54
 30
0.0
 11
-6567.400000000003
 21
-1713.54
 31
0.0
 12
-6943.400000000004
 22
-2363.54
 32
0.0
 13
-6943.400000000004
 23
-1713.54
 33
0.0
  0
SOLID
  5
294
330
A
100
AcDbEntity
  8
SOLDERMASK_PADS_BTM
100
AcDbTrace
 10
-7543.400000000004
 20
-2363.54
 30
0.0
 11
-7543.400000000004
 21
-1713.54
 31
0.0
 12
-7919.400000000003
 22
-2363.54
 32
0.0
 13
-7919.400000000003
 23
-1713.54
 33
0.0
  0
SOLID
  5
295
330
A
100
AcDbEntity
  8
SOLDERMASK_PADS_BTM
100
AcDbTrace
 10
-6567.400000000003
 20
6596.420000000001
 30
0.0
 11
-6567.400000000003
 21
7246.42
 31
0.0
 12
-6943.400000000004
 22
6596.420000000001
 32
0.0
 13
-6943.400000000004
 23
7246.42
 33
0.0
  0
SOLID
  5
296
330
A
100
AcDbEntity
  8
SOLDERMASK_PADS_BTM
100
AcDbTrace
 10
-7543.400000000004
 20
6596.420000000001
 30
0.0
 11
-7543.400000000004
 21
7246.42
 31
0.0
 12
-7919.400000000003
 22
6596.420000000001
 32
0.0
 13
-7919.400000000003
 23
7246.42
 33
0.0
  0
SOLID
  5
297
330
A
100
AcDbEntity
  8
SOLDERMASK_PADS_BTM
100
AcDbTrace
 10
-5929.400000000003
 20
-1463.539999999999
 30
0.0
 11
-5929.400000000003
 21
-1163.539999999999
 31
0.0
 12
-6249.400000000004
 22
-1463.539999999999
 32
0.0
 13
-6249.400000000004
 23
-1163.539999999999
 33
0.0
  0
SOLID
  5
298
330
A
100
AcDbEntity
  8
SOLDERMASK_PADS_BTM
100
AcDbTrace
 10
-5929.400000000003
 20
-963.5399999999997
 30
0.0
 11
-5929.400000000003
 21
-663.5399999999996
 31
0.0
 12
-6249.400000000004
 22
-963.5399999999997
 32
0.0
 13
-6249.400000000004
 23
-663.5399999999996
 33
0.0
  0
SOLID
  5
299
330
A
100
AcDbEntity
  8
SOLDERMASK_PADS_BTM
100
AcDbTrace
 10
-6567.400000000003
 20
-5963.54
 30
0.0
 11
-6567.400000000003
 21
-5313.54
 31
0.0
 12
-6943.400000000004
 22
-5963.54
 32
0.0
 13
-6943.400000000004
 23
-5313.54
 33
0.0
  0
SOLID
  5
29A
330
A
100
AcDbEntity
  8
SOLDERMASK_PADS_BTM
100
AcDbTrace
 10
-7543.400000000004
 20
-5963.539999999999
 30
0.0
 11
-7543.400000000004
 21
-5313.539999999999
 31
0.0
 12
-7919.400000000003
 22
-5963.539999999999
 32
0.0
 13
-7919.400000000003
 23
-5313.539999999999
 33
0.0
  0
SOLID
  5
29B
330
A
100
AcDbEntity
  8
SOLDERMASK_PADS_BTM
100
AcDbTrace
 10
6944.009999999997
 20
12896.418
 30
0.0
 11
6944.009999999997
 21
13546.418
 31
0.0
 12
6568.009999999998
 22
12896.418
 32
0.0
 13
6568.009999999998
 23
13546.418
 33
0.0
  0
SOLID
  5
29C
330
A
100
AcDbEntity
  8
SOLDERMASK_PADS_BTM
100
AcDbTrace
 10
7920.009999999997
 20
12896.418
 30
0.0
 11
7920.009999999997
 21
13546.418
 31
0.0
 12
7544.009999999997
 22
12896.418
 32
0.0
 13
7544.009999999997
 23
13546.418
 33
0.0
  0
SOLID
  5
29D
330
A
100
AcDbEntity
  8
SOLDERMASK_PADS_BTM
100
AcDbTrace
 10
6944.009999999997
 20
3896.417999999999
 30
0.0
 11
6944.009999999997
 21
4546.418
 31
0.0
 12
6568.009999999997
 22
3896.417999999999
 32
0.0
 13
6568.009999999997
 23
4546.418
 33
0.0
  0
SOLID
  5
29E
330
A
100
AcDbEntity
  8
SOLDERMASK_PADS_BTM
100
AcDbTrace
 10
7920.009999999996
 20
3896.417999999999
 30
0.0
 11
7920.009999999996
 21
4546.417999999999
 31
0.0
 12
7544.009999999997
 22
3896.417999999999
 32
0.0
 13
7544.009999999997
 23
4546.417999999999
 33
0.0
  0
SOLID
  5
29F
330
A
100
AcDbEntity
  8
SOLDERMASK_PADS_BTM
100
AcDbTrace
 10
6944.009999999996
 20
-7763.542
 30
0.0
 11
6944.009999999997
 21
-7113.541999999999
 31
0.0
 12
6568.009999999995
 22
-7763.542
 32
0.0
 13
6568.009999999997
 23
-7113.541999999999
 33
0.0
  0
SOLID
  5
2A0
330
A
100
AcDbEntity
  8
SOLDERMASK_PADS_BTM
100
AcDbTrace
 10
7920.009999999996
 20
-7763.542000000001
 30
0.0
 11
7920.009999999996
 21
-7113.542000000001
 31
0.0
 12
7544.009999999996
 22
-7763.542000000001
 32
0.0
 13
7544.009999999997
 23
-7113.542000000001
 33
0.0
  0
SOLID
  5
2A1
330
A
100
AcDbEntity
  8
SOLDERMASK_PADS_BTM
100
AcDbTrace
 10
4597.999999999998
 20
12416.32
 30
0.0
 11
4597.999999999998
 21
12736.32
 31
0.0
 12
4297.999999999997
 22
12416.32
 32
0.0
 13
4297.999999999997
 23
12736.32
 33
0.0
  0
SOLID
  5
2A2
330
A
100
AcDbEntity
  8
SOLDERMASK_PADS_BTM
100
AcDbTrace
 10
5097.999999999998
 20
12416.32
 30
0.0
 11
5097.999999999998
 21
12736.32
 31
0.0
 12
4797.999999999997
 22
12416.32
 32
0.0
 13
4797.999999999997
 23
12736.32
 33
0.0
  0
SOLID
  5
2A3
330
A
100
AcDbEntity
  8
SOLDERMASK_PADS_BTM
100
AcDbTrace
 10
5680.009999999998
 20
10246.42
 30
0.0
 11
5680.009999999998
 21
10546.42
 31
0.0
 12
5360.009999999998
 22
10246.42
 32
0.0
 13
5360.009999999998
 23
10546.42
 33
0.0
  0
SOLID
  5
2A4
330
A
100
AcDbEntity
  8
SOLDERMASK_PADS_BTM
100
AcDbTrace
 10
5680.009999999998
 20
9746.42
 30
0.0
 11
5680.009999999998
 21
10046.42
 31
0.0
 12
5360.009999999998
 22
9746.42
 32
0.0
 13
5360.009999999998
 23
10046.42
 33
0.0
  0
SOLID
  5
2A5
330
A
100
AcDbEntity
  8
SOLDERMASK_PADS_BTM
100
AcDbTrace
 10
6250.009999999996
 20
7096.420000000001
 30
0.0
 11
6250.009999999996
 21
7396.42
 31
0.0
 12
5930.009999999996
 22
7096.420000000001
 32
0.0
 13
5930.009999999996
 23
7396.42
 33
0.0
  0
SOLID
  5
2A6
330
A
100
AcDbEntity
  8
SOLDERMASK_PADS_BTM
100
AcDbTrace
 10
6250.009999999996
 20
6596.420000000001
 30
0.0
 11
6250.009999999996
 21
6896.42
 31
0.0
 12
5930.009999999996
 22
6596.420000000001
 32
0.0
 13
5930.009999999996
 23
6896.42
 33
0.0
  0
SOLID
  5
2A7
330
A
100
AcDbEntity
  8
SOLDERMASK_PADS_BTM
100
AcDbTrace
 10
4597.999999999996
 20
4436.32
 30
0.0
 11
4597.999999999996
 21
4756.319999999999
 31
0.0
 12
4297.999999999996
 22
4436.32
 32
0.0
 13
4297.999999999996
 23
4756.319999999999
 33
0.0
  0
SOLID
  5
2A8
330
A
100
AcDbEntity
  8
SOLDERMASK_PADS_BTM
100
AcDbTrace
 10
5097.999999999996
 20
4436.32
 30
0.0
 11
5097.999999999996
 21
4756.319999999999
 31
0.0
 12
4797.999999999996
 22
4436.32
 32
0.0
 13
4797.999999999996
 23
4756.319999999999
 33
0.0
  0
SOLID
  5
2A9
330
A
100
AcDbEntity
  8
SOLDERMASK_PADS_BTM
100
AcDbTrace
 10
6250.009999999996
 20
-1463.54
 30
0.0
 11
6250.009999999996
 21
-1163.54
 31
0.0
 12
5930.009999999996
 22
-1463.54
 32
0.0
 13
5930.009999999996
 23
-1163.54
 33
0.0
  0
SOLID
  5
2AA
330
A
100
AcDbEntity
  8
SOLDERMASK_PADS_BTM
100
AcDbTrace
 10
6250.009999999996
 20
-963.5400000000002
 30
0.0
 11
6250.009999999996
 21
-663.5400000000003
 31
0.0
 12
5930.009999999996
 22
-963.5400000000002
 32
0.0
 13
5930.009999999996
 23
-663.5400000000003
 33
0.0
  0
SOLID
  5
2AB
330
A
100
AcDbEntity
  8
SOLDERMASK_PADS_BTM
100
AcDbTrace
 10
4597.999999999995
 20
-9563.540000000001
 30
0.0
 11
4597.999999999995
 21
-9243.540000000001
 31
0.0
 12
4297.999999999995
 22
-9563.540000000001
 32
0.0
 13
4297.999999999995
 23
-9243.540000000001
 33
0.0
  0
SOLID
  5
2AC
330
A
100
AcDbEntity
  8
SOLDERMASK_PADS_BTM
100
AcDbTrace
 10
5097.999999999995
 20
-9563.540000000001
 30
0.0
 11
5097.999999999995
 21
-9243.540000000001
 31
0.0
 12
4797.999999999995
 22
-9563.540000000001
 32
0.0
 13
4797.999999999995
 23
-9243.540000000001
 33
0.0
  0
SOLID
  5
2AD
330
A
100
AcDbEntity
  8
SOLDERMASK_PADS_BTM
100
AcDbTrace
 10
4597.999999999996
 20
-3863.54
 30
0.0
 11
4597.999999999996
 21
-3543.540000000001
 31
0.0
 12
4297.999999999996
 22
-3863.54
 32
0.0
 13
4297.999999999996
 23
-3543.540000000001
 33
0.0
  0
SOLID
  5
2AE
330
A
100
AcDbEntity
  8
SOLDERMASK_PADS_BTM
100
AcDbTrace
 10
5097.999999999996
 20
-3863.54
 30
0.0
 11
5097.999999999996
 21
-3543.540000000001
 31
0.0
 12
4797.999999999996
 22
-3863.54
 32
0.0
 13
4797.999999999996
 23
-3543.540000000001
 33
0.0
  0
SOLID
  5
2AF
330
A
100
AcDbEntity
  8
SOLDERMASK_PADS_BTM
100
AcDbTrace
 10
5680.009999999996
 20
-6213.54
 30
0.0
 11
5680.009999999996
 21
-5913.540000000001
 31
0.0
 12
5360.009999999997
 22
-6213.54
 32
0.0
 13
5360.009999999997
 23
-5913.540000000001
 33
0.0
  0
SOLID
  5
2B0
330
A
100
AcDbEntity
  8
SOLDERMASK_PADS_BTM
100
AcDbTrace
 10
5680.009999999996
 20
-6713.54
 30
0.0
 11
5680.009999999996
 21
-6413.540000000001
 31
0.0
 12
5360.009999999997
 22
-6713.54
 32
0.0
 13
5360.009999999997
 23
-6413.540000000001
 33
0.0
  0
SOLID
  5
2B1
330
A
100
AcDbEntity
  8
SOLDERMASK_PADS_BTM
100
AcDbTrace
 10
-4297.390000000002
 20
11646.42
 30
0.0
 11
-4297.390000000002
 21
11966.42
 31
0.0
 12
-4597.390000000003
 22
11646.42
 32
0.0
 13
-4597.390000000003
 23
11966.42
 33
0.0
  0
SOLID
  5
2B2
330
A
100
AcDbEntity
  8
SOLDERMASK_PADS_BTM
100
AcDbTrace
 10
-4797.390000000002
 20
11646.42
 30
0.0
 11
-4797.390000000002
 21
11966.42
 31
0.0
 12
-5097.390000000003
 22
11646.42
 32
0.0
 13
-5097.390000000003
 23
11966.42
 33
0.0
  0
SOLID
  5
2B3
330
A
100
AcDbEntity
  8
SOLDERMASK_PADS_BTM
100
AcDbTrace
 10
-5359.400000000002
 20
7646.42
 30
0.0
 11
-5359.400000000002
 21
7946.42
 31
0.0
 12
-5679.400000000002
 22
7646.42
 32
0.0
 13
-5679.400000000002
 23
7946.42
 33
0.0
  0
SOLID
  5
2B4
330
A
100
AcDbEntity
  8
SOLDERMASK_PADS_BTM
100
AcDbTrace
 10
-5359.400000000002
 20
8146.42
 30
0.0
 11
-5359.400000000002
 21
8446.420000000001
 31
0.0
 12
-5679.400000000002
 22
8146.42
 32
0.0
 13
-5679.400000000002
 23
8446.420000000001
 33
0.0
  0
SOLID
  5
2B5
330
A
100
AcDbEntity
  8
SOLDERMASK_PADS_BTM
100
AcDbTrace
 10
-4297.390000000004
 20
4236.42
 30
0.0
 11
-4297.390000000004
 21
4556.42
 31
0.0
 12
-4597.390000000004
 22
4236.42
 32
0.0
 13
-4597.390000000004
 23
4556.42
 33
0.0
  0
SOLID
  5
2B6
330
A
100
AcDbEntity
  8
SOLDERMASK_PADS_BTM
100
AcDbTrace
 10
-4797.390000000004
 20
4236.42
 30
0.0
 11
-4797.390000000004
 21
4556.42
 31
0.0
 12
-5097.390000000004
 22
4236.42
 32
0.0
 13
-5097.390000000004
 23
4556.42
 33
0.0
  0
SOLID
  5
2B7
330
A
100
AcDbEntity
  8
SOLDERMASK_PADS_BTM
100
AcDbTrace
 10
-5359.400000000004
 20
-2013.54
 30
0.0
 11
-5359.400000000004
 21
-1713.54
 31
0.0
 12
-5679.400000000003
 22
-2013.54
 32
0.0
 13
-5679.400000000003
 23
-1713.54
 33
0.0
  0
SOLID
  5
2B8
330
A
100
AcDbEntity
  8
SOLDERMASK_PADS_BTM
100
AcDbTrace
 10
-5359.400000000004
 20
-2513.54
 30
0.0
 11
-5359.400000000004
 21
-2213.54
 31
0.0
 12
-5679.400000000003
 22
-2513.54
 32
0.0
 13
-5679.400000000003
 23
-2213.54
 33
0.0
  0
SOLID
  5
2B9
330
A
100
AcDbEntity
  8
SOLDERMASK_PADS_BTM
100
AcDbTrace
 10
-4297.390000000004
 20
-6143.54
 30
0.0
 11
-4297.390000000004
 21
-5823.54
 31
0.0
 12
-4597.390000000004
 22
-6143.54
 32
0.0
 13
-4597.390000000004
 23
-5823.54
 33
0.0
  0
SOLID
  5
2BA
330
A
100
AcDbEntity
  8
SOLDERMASK_PADS_BTM
100
AcDbTrace
 10
-4797.390000000004
 20
-6143.54
 30
0.0
 11
-4797.390000000004
 21
-5823.54
 31
0.0
 12
-5097.390000000004
 22
-6143.54
 32
0.0
 13
-5097.390000000004
 23
-5823.54
 33
0.0
  0
SOLID
  5
2BB
330
A
100
AcDbEntity
  8
SOLDERMASK_PADS_BTM
100
AcDbTrace
 10
-5359.400000000004
 20
-9863.54
 30
0.0
 11
-5359.400000000004
 21
-9563.540000000001
 31
0.0
 12
-5679.400000000004
 22
-9863.54
 32
0.0
 13
-5679.400000000004
 23
-9563.540000000001
 33
0.0
  0
SOLID
  5
2BC
330
A
100
AcDbEntity
  8
SOLDERMASK_PADS_BTM
100
AcDbTrace
 10
-5359.400000000004
 20
-9363.54
 30
0.0
 11
-5359.400000000004
 21
-9063.540000000001
 31
0.0
 12
-5679.400000000004
 22
-9363.54
 32
0.0
 13
-5679.400000000004
 23
-9063.540000000001
 33
0.0
  0
SOLID
  5
2BD
330
A
100
AcDbEntity
  8
SOLDERMASK_PADS_BTM
100
AcDbTrace
 10
-5929.400000000002
 20
10246.42
 30
0.0
 11
-5929.400000000002
 21
10546.42
 31
0.0
 12
-6249.400000000003
 22
10246.42
 32
0.0
 13
-6249.400000000003
 23
10546.42
 33
0.0
  0
SOLID
  5
2BE
330
A
100
AcDbEntity
  8
SOLDERMASK_PADS_BTM
100
AcDbTrace
 10
-5929.400000000002
 20
9746.42
 30
0.0
 11
-5929.400000000002
 21
10046.42
 31
0.0
 12
-6249.400000000003
 22
9746.42
 32
0.0
 13
-6249.400000000003
 23
10046.42
 33
0.0
  0
SOLID
  5
2BF
330
A
100
AcDbEntity
  8
SOLDERMASK_PADS_BTM
100
AcDbTrace
 10
-6567.400000000003
 20
4796.417
 30
0.0
 11
-6567.400000000003
 21
5446.417
 31
0.0
 12
-6943.400000000004
 22
4796.417
 32
0.0
 13
-6943.400000000004
 23
5446.417
 33
0.0
  0
SOLID
  5
2C0
330
A
100
AcDbEntity
  8
SOLDERMASK_PADS_BTM
100
AcDbTrace
 10
-7543.400000000004
 20
4796.417000000001
 30
0.0
 11
-7543.400000000004
 21
5446.417
 31
0.0
 12
-7919.400000000003
 22
4796.417000000001
 32
0.0
 13
-7919.400000000003
 23
5446.417
 33
0.0
  0
SOLID
  5
2C1
330
A
100
AcDbEntity
  8
SOLDERMASK_PADS_BTM
100
AcDbTrace
 10
-5929.400000000004
 20
-7763.54
 30
0.0
 11
-5929.400000000004
 21
-7463.54
 31
0.0
 12
-6249.400000000004
 22
-7763.54
 32
0.0
 13
-6249.400000000004
 23
-7463.54
 33
0.0
  0
SOLID
  5
2C2
330
A
100
AcDbEntity
  8
SOLDERMASK_PADS_BTM
100
AcDbTrace
 10
-5929.400000000003
 20
-7263.54
 30
0.0
 11
-5929.400000000003
 21
-6963.54
 31
0.0
 12
-6249.400000000004
 22
-7263.54
 32
0.0
 13
-6249.400000000004
 23
-6963.54
 33
0.0
  0
SOLID
  5
2C3
330
A
100
AcDbEntity
  8
SOLDERMASK_PADS_BTM
100
AcDbTrace
 10
-5929.400000000003
 20
-2013.54
 30
0.0
 11
-5929.400000000003
 21
-1713.54
 31
0.0
 12
-6249.400000000004
 22
-2013.54
 32
0.0
 13
-6249.400000000004
 23
-1713.54
 33
0.0
  0
SOLID
  5
2C4
330
A
100
AcDbEntity
  8
SOLDERMASK_PADS_BTM
100
AcDbTrace
 10
-5929.400000000003
 20
-2513.54
 30
0.0
 11
-5929.400000000003
 21
-2213.54
 31
0.0
 12
-6249.400000000004
 22
-2513.54
 32
0.0
 13
-6249.400000000004
 23
-2213.54
 33
0.0
  0
SOLID
  5
2C5
330
A
100
AcDbEntity
  8
SOLDERMASK_PADS_BTM
100
AcDbTrace
 10
6944.009999999997
 20
11996.418
 30
0.0
 11
6944.009999999997
 21
12646.418
 31
0.0
 12
6568.009999999998
 22
11996.418
 32
0.0
 13
6568.009999999998
 23
12646.418
 33
0.0
  0
SOLID
  5
2C6
330
A
100
AcDbEntity
  8
SOLDERMASK_PADS_BTM
100
AcDbTrace
 10
7920.009999999997
 20
11996.418
 30
0.0
 11
7920.009999999997
 21
12646.418
 31
0.0
 12
7544.009999999997
 22
11996.418
 32
0.0
 13
7544.009999999997
 23
12646.418
 33
0.0
  0
SOLID
  5
2C7
330
A
100
AcDbEntity
  8
SOLDERMASK_PADS_BTM
100
AcDbTrace
 10
6944.009999999997
 20
2996.422
 30
0.0
 11
6944.009999999997
 21
3646.422
 31
0.0
 12
6568.009999999997
 22
2996.422
 32
0.0
 13
6568.009999999997
 23
3646.422
 33
0.0
  0
SOLID
  5
2C8
330
A
100
AcDbEntity
  8
SOLDERMASK_PADS_BTM
100
AcDbTrace
 10
7920.009999999996
 20
2996.422
 30
0.0
 11
7920.009999999996
 21
3646.422
 31
0.0
 12
7544.009999999997
 22
2996.422
 32
0.0
 13
7544.009999999997
 23
3646.422
 33
0.0
  0
SOLID
  5
2C9
330
A
100
AcDbEntity
  8
SOLDERMASK_PADS_BTM
100
AcDbTrace
 10
6944.009999999996
 20
-8663.541999999999
 30
0.0
 11
6944.009999999996
 21
-8013.541999999999
 31
0.0
 12
6568.009999999995
 22
-8663.541999999999
 32
0.0
 13
6568.009999999995
 23
-8013.541999999999
 33
0.0
  0
SOLID
  5
2CA
330
A
100
AcDbEntity
  8
SOLDERMASK_PADS_BTM
100
AcDbTrace
 10
7920.009999999996
 20
-8663.541999999999
 30
0.0
 11
7920.009999999996
 21
-8013.542000000001
 31
0.0
 12
7544.009999999996
 22
-8663.541999999999
 32
0.0
 13
7544.009999999996
 23
-8013.542000000001
 33
0.0
  0
SOLID
  5
2CB
330
A
100
AcDbEntity
  8
SOLDERMASK_PADS_BTM
100
AcDbTrace
 10
6250.009999999997
 20
11846.42
 30
0.0
 11
6250.009999999997
 21
12146.42
 31
0.0
 12
5930.009999999998
 22
11846.42
 32
0.0
 13
5930.009999999998
 23
12146.42
 33
0.0
  0
SOLID
  5
2CC
330
A
100
AcDbEntity
  8
SOLDERMASK_PADS_BTM
100
AcDbTrace
 10
6250.009999999997
 20
12346.42
 30
0.0
 11
6250.009999999997
 21
12646.42
 31
0.0
 12
5930.009999999998
 22
12346.42
 32
0.0
 13
5930.009999999998
 23
12646.42
 33
0.0
  0
SOLID
  5
2CD
330
A
100
AcDbEntity
  8
SOLDERMASK_PADS_BTM
100
AcDbTrace
 10
4597.999999999998
 20
9566.320000000001
 30
0.0
 11
4597.999999999998
 21
9886.320000000001
 31
0.0
 12
4297.999999999997
 22
9566.320000000001
 32
0.0
 13
4297.999999999997
 23
9886.320000000001
 33
0.0
  0
SOLID
  5
2CE
330
A
100
AcDbEntity
  8
SOLDERMASK_PADS_BTM
100
AcDbTrace
 10
5097.999999999998
 20
9566.320000000001
 30
0.0
 11
5097.999999999998
 21
9886.320000000001
 31
0.0
 12
4797.999999999997
 22
9566.320000000001
 32
0.0
 13
4797.999999999997
 23
9886.320000000001
 33
0.0
  0
SOLID
  5
2CF
330
A
100
AcDbEntity
  8
SOLDERMASK_PADS_BTM
100
AcDbTrace
 10
5680.009999999996
 20
7096.420000000001
 30
0.0
 11
5680.009999999996
 21
7396.42
 31
0.0
 12
5360.009999999997
 22
7096.420000000001
 32
0.0
 13
5360.009999999997
 23
7396.42
 33
0.0
  0
SOLID
  5
2D0
330
A
100
AcDbEntity
  8
SOLDERMASK_PADS_BTM
100
AcDbTrace
 10
5680.009999999996
 20
6596.420000000001
 30
0.0
 11
5680.009999999996
 21
6896.42
 31
0.0
 12
5360.009999999997
 22
6596.420000000001
 32
0.0
 13
5360.009999999997
 23
6896.42
 33
0.0
  0
SOLID
  5
2D1
330
A
100
AcDbEntity
  8
SOLDERMASK_PADS_BTM
100
AcDbTrace
 10
4597.999999999996
 20
3866.32
 30
0.0
 11
4597.999999999996
 21
4186.32
 31
0.0
 12
4297.999999999996
 22
3866.32
 32
0.0
 13
4297.999999999996
 23
4186.32
 33
0.0
  0
SOLID
  5
2D2
330
A
100
AcDbEntity
  8
SOLDERMASK_PADS_BTM
100
AcDbTrace
 10
5097.999999999996
 20
3866.32
 30
0.0
 11
5097.999999999996
 21
4186.32
 31
0.0
 12
4797.999999999996
 22
3866.32
 32
0.0
 13
4797.999999999996
 23
4186.32
 33
0.0
  0
SOLID
  5
2D3
330
A
100
AcDbEntity
  8
SOLDERMASK_PADS_BTM
100
AcDbTrace
 10
5680.009999999996
 20
-1463.54
 30
0.0
 11
5680.009999999996
 21
-1163.54
 31
0.0
 12
5360.009999999997
 22
-1463.54
 32
0.0
 13
5360.009999999997
 23
-1163.54
 33
0.0
  0
SOLID
  5
2D4
330
A
100
AcDbEntity
  8
SOLDERMASK_PADS_BTM
100
AcDbTrace
 10
5680.009999999996
 20
-963.5400000000002
 30
0.0
 11
5680.009999999996
 21
-663.5400000000003
 31
0.0
 12
5360.009999999997
 22
-963.5400000000002
 32
0.0
 13
5360.009999999997
 23
-663.5400000000003
 33
0.0
  0
SOLID
  5
2D5
330
A
100
AcDbEntity
  8
SOLDERMASK_PADS_BTM
100
AcDbTrace
 10
6250.009999999996
 20
-9863.54
 30
0.0
 11
6250.009999999996
 21
-9563.540000000001
 31
0.0
 12
5930.009999999995
 22
-9863.54
 32
0.0
 13
5930.009999999995
 23
-9563.540000000001
 33
0.0
  0
SOLID
  5
2D6
330
A
100
AcDbEntity
  8
SOLDERMASK_PADS_BTM
100
AcDbTrace
 10
6250.009999999996
 20
-9363.54
 30
0.0
 11
6250.009999999996
 21
-9063.540000000001
 31
0.0
 12
5930.009999999995
 22
-9363.54
 32
0.0
 13
5930.009999999995
 23
-9063.540000000001
 33
0.0
  0
SOLID
  5
2D7
330
A
100
AcDbEntity
  8
SOLDERMASK_PADS_BTM
100
AcDbTrace
 10
6250.009999999996
 20
-4113.539999999999
 30
0.0
 11
6250.009999999996
 21
-3813.540000000001
 31
0.0
 12
5930.009999999996
 22
-4113.539999999999
 32
0.0
 13
5930.009999999996
 23
-3813.540000000001
 33
0.0
  0
SOLID
  5
2D8
330
A
100
AcDbEntity
  8
SOLDERMASK_PADS_BTM
100
AcDbTrace
 10
6250.009999999996
 20
-4613.539999999999
 30
0.0
 11
6250.009999999996
 21
-4313.539999999999
 31
0.0
 12
5930.009999999996
 22
-4613.539999999999
 32
0.0
 13
5930.009999999996
 23
-4313.539999999999
 33
0.0
  0
SOLID
  5
2D9
330
A
100
AcDbEntity
  8
SOLDERMASK_PADS_BTM
100
AcDbTrace
 10
-4297.390000000002
 20
11076.42
 30
0.0
 11
-4297.390000000002
 21
11396.42
 31
0.0
 12
-4597.390000000003
 22
11076.42
 32
0.0
 13
-4597.390000000003
 23
11396.42
 33
0.0
  0
SOLID
  5
2DA
330
A
100
AcDbEntity
  8
SOLDERMASK_PADS_BTM
100
AcDbTrace
 10
-4797.390000000002
 20
11076.42
 30
0.0
 11
-4797.390000000002
 21
11396.42
 31
0.0
 12
-5097.390000000003
 22
11076.42
 32
0.0
 13
-5097.390000000003
 23
11396.42
 33
0.0
  0
SOLID
  5
2DB
330
A
100
AcDbEntity
  8
SOLDERMASK_PADS_BTM
100
AcDbTrace
 10
4597.999999999996
 20
-6713.54
 30
0.0
 11
4597.999999999996
 21
-6393.54
 31
0.0
 12
4297.999999999996
 22
-6713.54
 32
0.0
 13
4297.999999999996
 23
-6393.54
 33
0.0
  0
SOLID
  5
2DC
330
A
100
AcDbEntity
  8
SOLDERMASK_PADS_BTM
100
AcDbTrace
 10
5097.999999999996
 20
-6713.54
 30
0.0
 11
5097.999999999996
 21
-6393.54
 31
0.0
 12
4797.999999999996
 22
-6713.54
 32
0.0
 13
4797.999999999996
 23
-6393.54
 33
0.0
  0
SOLID
  5
2DD
330
A
100
AcDbEntity
  8
SOLDERMASK_PADS_BTM
100
AcDbTrace
 10
-4297.390000000002
 20
7656.42
 30
0.0
 11
-4297.390000000002
 21
7976.42
 31
0.0
 12
-4597.390000000003
 22
7656.42
 32
0.0
 13
-4597.390000000003
 23
7976.42
 33
0.0
  0
SOLID
  5
2DE
330
A
100
AcDbEntity
  8
SOLDERMASK_PADS_BTM
100
AcDbTrace
 10
-4797.390000000002
 20
7656.42
 30
0.0
 11
-4797.390000000002
 21
7976.42
 31
0.0
 12
-5097.390000000003
 22
7656.42
 32
0.0
 13
-5097.390000000003
 23
7976.42
 33
0.0
  0
SOLID
  5
2DF
330
A
100
AcDbEntity
  8
SOLDERMASK_PADS_BTM
100
AcDbTrace
 10
-5359.400000000004
 20
3946.420000000001
 30
0.0
 11
-5359.400000000004
 21
4246.419999999999
 31
0.0
 12
-5679.400000000003
 22
3946.420000000001
 32
0.0
 13
-5679.400000000003
 23
4246.419999999999
 33
0.0
  0
SOLID
  5
2E0
330
A
100
AcDbEntity
  8
SOLDERMASK_PADS_BTM
100
AcDbTrace
 10
-5359.400000000004
 20
3446.420000000001
 30
0.0
 11
-5359.400000000004
 21
3746.42
 31
0.0
 12
-5679.400000000003
 22
3446.420000000001
 32
0.0
 13
-5679.400000000003
 23
3746.42
 33
0.0
  0
SOLID
  5
2E1
330
A
100
AcDbEntity
  8
SOLDERMASK_PADS_BTM
100
AcDbTrace
 10
-4297.390000000004
 20
-2723.54
 30
0.0
 11
-4297.390000000004
 21
-2403.54
 31
0.0
 12
-4597.390000000004
 22
-2723.54
 32
0.0
 13
-4597.390000000004
 23
-2403.54
 33
0.0
  0
SOLID
  5
2E2
330
A
100
AcDbEntity
  8
SOLDERMASK_PADS_BTM
100
AcDbTrace
 10
-4797.390000000004
 20
-2723.54
 30
0.0
 11
-4797.390000000004
 21
-2403.54
 31
0.0
 12
-5097.390000000004
 22
-2723.54
 32
0.0
 13
-5097.390000000004
 23
-2403.54
 33
0.0
  0
SOLID
  5
2E3
330
A
100
AcDbEntity
  8
SOLDERMASK_PADS_BTM
100
AcDbTrace
 10
-5359.400000000004
 20
-6213.54
 30
0.0
 11
-5359.400000000004
 21
-5913.540000000001
 31
0.0
 12
-5679.400000000003
 22
-6213.54
 32
0.0
 13
-5679.400000000003
 23
-5913.540000000001
 33
0.0
  0
SOLID
  5
2E4
330
A
100
AcDbEntity
  8
SOLDERMASK_PADS_BTM
100
AcDbTrace
 10
-5359.400000000004
 20
-6713.54
 30
0.0
 11
-5359.400000000004
 21
-6413.540000000001
 31
0.0
 12
-5679.400000000003
 22
-6713.54
 32
0.0
 13
-5679.400000000003
 23
-6413.540000000001
 33
0.0
  0
SOLID
  5
2E5
330
A
100
AcDbEntity
  8
SOLDERMASK_PADS_BTM
100
AcDbTrace
 10
-5929.400000000002
 20
13946.42
 30
0.0
 11
-5929.400000000002
 21
14246.42
 31
0.0
 12
-6249.400000000003
 22
13946.42
 32
0.0
 13
-6249.400000000003
 23
14246.42
 33
0.0
  0
SOLID
  5
2E6
330
A
100
AcDbEntity
  8
SOLDERMASK_PADS_BTM
100
AcDbTrace
 10
-5929.400000000002
 20
14446.42
 30
0.0
 11
-5929.400000000002
 21
14746.42
 31
0.0
 12
-6249.400000000003
 22
14446.42
 32
0.0
 13
-6249.400000000003
 23
14746.42
 33
0.0
  0
SOLID
  5
2E7
330
A
100
AcDbEntity
  8
SOLDERMASK_PADS_BTM
100
AcDbTrace
 10
-6567.400000000002
 20
9296.420000000001
 30
0.0
 11
-6567.400000000002
 21
9946.420000000001
 31
0.0
 12
-6943.400000000003
 22
9296.420000000001
 32
0.0
 13
-6943.400000000003
 23
9946.420000000001
 33
0.0
  0
SOLID
  5
2E8
330
A
100
AcDbEntity
  8
SOLDERMASK_PADS_BTM
100
AcDbTrace
 10
-7543.400000000002
 20
9296.420000000001
 30
0.0
 11
-7543.400000000002
 21
9946.420000000001
 31
0.0
 12
-7919.400000000003
 22
9296.420000000001
 32
0.0
 13
-7919.400000000003
 23
9946.420000000001
 33
0.0
  0
SOLID
  5
2E9
330
A
100
AcDbEntity
  8
SOLDERMASK_PADS_BTM
100
AcDbTrace
 10
-6567.400000000005
 20
-7763.54
 30
0.0
 11
-6567.400000000003
 21
-7113.54
 31
0.0
 12
-6943.400000000004
 22
-7763.54
 32
0.0
 13
-6943.400000000004
 23
-7113.54
 33
0.0
  0
SOLID
  5
2EA
330
A
100
AcDbEntity
  8
SOLDERMASK_PADS_BTM
100
AcDbTrace
 10
-7543.400000000004
 20
-7763.539999999998
 30
0.0
 11
-7543.400000000004
 21
-7113.539999999999
 31
0.0
 12
-7919.400000000004
 22
-7763.539999999998
 32
0.0
 13
-7919.400000000003
 23
-7113.539999999999
 33
0.0
  0
SOLID
  5
2EB
330
A
100
AcDbEntity
  8
SOLDERMASK_PADS_BTM
100
AcDbTrace
 10
-5929.400000000003
 20
4996.42
 30
0.0
 11
-5929.400000000003
 21
5296.420000000001
 31
0.0
 12
-6249.400000000004
 22
4996.42
 32
0.0
 13
-6249.400000000004
 23
5296.420000000001
 33
0.0
  0
SOLID
  5
2EC
330
A
100
AcDbEntity
  8
SOLDERMASK_PADS_BTM
100
AcDbTrace
 10
-5929.400000000003
 20
4496.419999999999
 30
0.0
 11
-5929.400000000003
 21
4796.42
 31
0.0
 12
-6249.400000000004
 22
4496.419999999999
 32
0.0
 13
-6249.400000000004
 23
4796.42
 33
0.0
  0
SOLID
  5
2ED
330
A
100
AcDbEntity
  8
SOLDERMASK_PADS_BTM
100
AcDbTrace
 10
-6567.400000000003
 20
-3263.54
 30
0.0
 11
-6567.400000000003
 21
-2613.54
 31
0.0
 12
-6943.400000000004
 22
-3263.54
 32
0.0
 13
-6943.400000000004
 23
-2613.54
 33
0.0
  0
SOLID
  5
2EE
330
A
100
AcDbEntity
  8
SOLDERMASK_PADS_BTM
100
AcDbTrace
 10
-7543.400000000004
 20
-3263.54
 30
0.0
 11
-7543.400000000004
 21
-2613.54
 31
0.0
 12
-7919.400000000003
 22
-3263.54
 32
0.0
 13
-7919.400000000003
 23
-2613.54
 33
0.0
  0
SOLID
  5
2EF
330
A
100
AcDbEntity
  8
SOLDERMASK_PADS_BTM
100
AcDbTrace
 10
6944.009999999997
 20
11096.422
 30
0.0
 11
6944.009999999997
 21
11746.422
 31
0.0
 12
6568.009999999998
 22
11096.422
 32
0.0
 13
6568.009999999998
 23
11746.422
 33
0.0
  0
SOLID
  5
2F0
330
A
100
AcDbEntity
  8
SOLDERMASK_PADS_BTM
100
AcDbTrace
 10
7920.009999999997
 20
11096.422
 30
0.0
 11
7920.009999999997
 21
11746.422
 31
0.0
 12
7544.009999999997
 22
11096.422
 32
0.0
 13
7544.009999999997
 23
11746.422
 33
0.0
  0
SOLID
  5
2F1
330
A
100
AcDbEntity
  8
SOLDERMASK_PADS_BTM
100
AcDbTrace
 10
6944.009999999997
 20
2096.417999999999
 30
0.0
 11
6944.009999999997
 21
2746.417999999999
 31
0.0
 12
6568.009999999997
 22
2096.417999999999
 32
0.0
 13
6568.009999999997
 23
2746.417999999999
 33
0.0
  0
SOLID
  5
2F2
330
A
100
AcDbEntity
  8
SOLDERMASK_PADS_BTM
100
AcDbTrace
 10
7920.009999999996
 20
2096.417999999999
 30
0.0
 11
7920.009999999996
 21
2746.417999999999
 31
0.0
 12
7544.009999999997
 22
2096.417999999999
 32
0.0
 13
7544.009999999997
 23
2746.417999999999
 33
0.0
  0
SOLID
  5
2F3
330
A
100
AcDbEntity
  8
SOLDERMASK_PADS_BTM
100
AcDbTrace
 10
7920.009999999996
 20
-9563.538000000001
 30
0.0
 11
7920.009999999996
 21
-8913.538
 31
0.0
 12
7544.009999999996
 22
-9563.538000000001
 32
0.0
 13
7544.009999999996
 23
-8913.538
 33
0.0
  0
SOLID
  5
2F4
330
A
100
AcDbEntity
  8
SOLDERMASK_PADS_BTM
100
AcDbTrace
 10
6944.009999999996
 20
-9563.538000000001
 30
0.0
 11
6944.009999999996
 21
-8913.538
 31
0.0
 12
6568.009999999995
 22
-9563.538000000001
 32
0.0
 13
6568.009999999995
 23
-8913.538
 33
0.0
  0
SOLID
  5
2F5
330
A
100
AcDbEntity
  8
SOLDERMASK_PADS_BTM
100
AcDbTrace
 10
5680.009999999998
 20
11846.42
 30
0.0
 11
5680.009999999998
 21
12146.42
 31
0.0
 12
5360.009999999998
 22
11846.42
 32
0.0
 13
5360.009999999998
 23
12146.42
 33
0.0
  0
SOLID
  5
2F6
330
A
100
AcDbEntity
  8
SOLDERMASK_PADS_BTM
100
AcDbTrace
 10
5680.009999999998
 20
12346.42
 30
0.0
 11
5680.009999999998
 21
12646.42
 31
0.0
 12
5360.009999999998
 22
12346.42
 32
0.0
 13
5360.009999999998
 23
12646.42
 33
0.0
  0
SOLID
  5
2F7
330
A
100
AcDbEntity
  8
SOLDERMASK_PADS_BTM
100
AcDbTrace
 10
4597.999999999998
 20
8996.32
 30
0.0
 11
4597.999999999998
 21
9316.320000000001
 31
0.0
 12
4297.999999999997
 22
8996.32
 32
0.0
 13
4297.999999999997
 23
9316.320000000001
 33
0.0
  0
SOLID
  5
2F8
330
A
100
AcDbEntity
  8
SOLDERMASK_PADS_BTM
100
AcDbTrace
 10
5097.999999999998
 20
8996.32
 30
0.0
 11
5097.999999999998
 21
9316.320000000001
 31
0.0
 12
4797.999999999997
 22
8996.32
 32
0.0
 13
4797.999999999997
 23
9316.320000000001
 33
0.0
  0
SOLID
  5
2F9
330
A
100
AcDbEntity
  8
SOLDERMASK_PADS_BTM
100
AcDbTrace
 10
4597.999999999996
 20
6716.32
 30
0.0
 11
4597.999999999996
 21
7036.319999999999
 31
0.0
 12
4297.999999999996
 22
6716.32
 32
0.0
 13
4297.999999999996
 23
7036.319999999999
 33
0.0
  0
SOLID
  5
2FA
330
A
100
AcDbEntity
  8
SOLDERMASK_PADS_BTM
100
AcDbTrace
 10
5097.999999999996
 20
6716.32
 30
0.0
 11
5097.999999999996
 21
7036.319999999999
 31
0.0
 12
4797.999999999996
 22
6716.32
 32
0.0
 13
4797.999999999996
 23
7036.319999999999
 33
0.0
  0
SOLID
  5
2FB
330
A
100
AcDbEntity
  8
SOLDERMASK_PADS_BTM
100
AcDbTrace
 10
6250.009999999996
 20
3946.42
 30
0.0
 11
6250.009999999996
 21
4246.419999999999
 31
0.0
 12
5930.009999999996
 22
3946.42
 32
0.0
 13
5930.009999999996
 23
4246.419999999999
 33
0.0
  0
SOLID
  5
2FC
330
A
100
AcDbEntity
  8
SOLDERMASK_PADS_BTM
100
AcDbTrace
 10
6250.009999999996
 20
3446.42
 30
0.0
 11
6250.009999999996
 21
3746.42
 31
0.0
 12
5930.009999999996
 22
3446.42
 32
0.0
 13
5930.009999999996
 23
3746.42
 33
0.0
  0
SOLID
  5
2FD
330
A
100
AcDbEntity
  8
SOLDERMASK_PADS_BTM
100
AcDbTrace
 10
4597.999999999996
 20
-1583.54
 30
0.0
 11
4597.999999999996
 21
-1263.54
 31
0.0
 12
4297.999999999996
 22
-1583.54
 32
0.0
 13
4297.999999999996
 23
-1263.54
 33
0.0
  0
SOLID
  5
2FE
330
A
100
AcDbEntity
  8
SOLDERMASK_PADS_BTM
100
AcDbTrace
 10
5097.999999999996
 20
-1583.54
 30
0.0
 11
5097.999999999996
 21
-1263.54
 31
0.0
 12
4797.999999999996
 22
-1583.54
 32
0.0
 13
4797.999999999996
 23
-1263.54
 33
0.0
  0
SOLID
  5
2FF
330
A
100
AcDbEntity
  8
SOLDERMASK_PADS_BTM
100
AcDbTrace
 10
5680.009999999995
 20
-9863.54
 30
0.0
 11
5680.009999999995
 21
-9563.540000000001
 31
0.0
 12
5360.009999999995
 22
-9863.54
 32
0.0
 13
5360.009999999995
 23
-9563.540000000001
 33
0.0
  0
SOLID
  5
300
330
A
100
AcDbEntity
  8
SOLDERMASK_PADS_BTM
100
AcDbTrace
 10
5680.009999999995
 20
-9363.54
 30
0.0
 11
5680.009999999995
 21
-9063.540000000001
 31
0.0
 12
5360.009999999995
 22
-9363.54
 32
0.0
 13
5360.009999999995
 23
-9063.540000000001
 33
0.0
  0
SOLID
  5
301
330
A
100
AcDbEntity
  8
SOLDERMASK_PADS_BTM
100
AcDbTrace
 10
5680.009999999996
 20
-4113.539999999999
 30
0.0
 11
5680.009999999996
 21
-3813.540000000001
 31
0.0
 12
5360.009999999997
 22
-4113.539999999999
 32
0.0
 13
5360.009999999997
 23
-3813.540000000001
 33
0.0
  0
SOLID
  5
302
330
A
100
AcDbEntity
  8
SOLDERMASK_PADS_BTM
100
AcDbTrace
 10
5680.009999999996
 20
-4613.539999999999
 30
0.0
 11
5680.009999999996
 21
-4313.539999999999
 31
0.0
 12
5360.009999999997
 22
-4613.539999999999
 32
0.0
 13
5360.009999999997
 23
-4313.539999999999
 33
0.0
  0
SOLID
  5
303
330
A
100
AcDbEntity
  8
SOLDERMASK_PADS_BTM
100
AcDbTrace
 10
-5359.400000000002
 20
10796.42
 30
0.0
 11
-5359.400000000002
 21
11096.42
 31
0.0
 12
-5679.400000000002
 22
10796.42
 32
0.0
 13
-5679.400000000002
 23
11096.42
 33
0.0
  0
SOLID
  5
304
330
A
100
AcDbEntity
  8
SOLDERMASK_PADS_BTM
100
AcDbTrace
 10
-5359.400000000002
 20
11296.42
 30
0.0
 11
-5359.400000000002
 21
11596.42
 31
0.0
 12
-5679.400000000002
 22
11296.42
 32
0.0
 13
-5679.400000000002
 23
11596.42
 33
0.0
  0
SOLID
  5
305
330
A
100
AcDbEntity
  8
SOLDERMASK_PADS_BTM
100
AcDbTrace
 10
4597.999999999996
 20
-7283.540000000001
 30
0.0
 11
4597.999999999996
 21
-6963.54
 31
0.0
 12
4297.999999999996
 22
-7283.540000000001
 32
0.0
 13
4297.999999999996
 23
-6963.54
 33
0.0
  0
SOLID
  5
306
330
A
100
AcDbEntity
  8
SOLDERMASK_PADS_BTM
100
AcDbTrace
 10
5097.999999999996
 20
-7283.540000000001
 30
0.0
 11
5097.999999999996
 21
-6963.54
 31
0.0
 12
4797.999999999996
 22
-7283.540000000001
 32
0.0
 13
4797.999999999996
 23
-6963.54
 33
0.0
  0
SOLID
  5
307
330
A
100
AcDbEntity
  8
SOLDERMASK_PADS_BTM
100
AcDbTrace
 10
-4297.390000000004
 20
7086.42
 30
0.0
 11
-4297.390000000004
 21
7406.42
 31
0.0
 12
-4597.390000000004
 22
7086.42
 32
0.0
 13
-4597.390000000004
 23
7406.42
 33
0.0
  0
SOLID
  5
308
330
A
100
AcDbEntity
  8
SOLDERMASK_PADS_BTM
100
AcDbTrace
 10
-4797.390000000004
 20
7086.42
 30
0.0
 11
-4797.390000000004
 21
7406.42
 31
0.0
 12
-5097.390000000004
 22
7086.42
 32
0.0
 13
-5097.390000000004
 23
7406.42
 33
0.0
  0
SOLID
  5
309
330
A
100
AcDbEntity
  8
SOLDERMASK_PADS_BTM
100
AcDbTrace
 10
-4297.390000000004
 20
3666.420000000001
 30
0.0
 11
-4297.390000000004
 21
3986.420000000001
 31
0.0
 12
-4597.390000000004
 22
3666.420000000001
 32
0.0
 13
-4597.390000000004
 23
3986.420000000001
 33
0.0
  0
SOLID
  5
30A
330
A
100
AcDbEntity
  8
SOLDERMASK_PADS_BTM
100
AcDbTrace
 10
-4797.390000000004
 20
3666.420000000001
 30
0.0
 11
-4797.390000000004
 21
3986.420000000001
 31
0.0
 12
-5097.390000000004
 22
3666.420000000001
 32
0.0
 13
-5097.390000000004
 23
3986.420000000001
 33
0.0
  0
SOLID
  5
30B
330
A
100
AcDbEntity
  8
SOLDERMASK_PADS_BTM
100
AcDbTrace
 10
-4297.390000000004
 20
-3293.54
 30
0.0
 11
-4297.390000000004
 21
-2973.54
 31
0.0
 12
-4597.390000000004
 22
-3293.54
 32
0.0
 13
-4597.390000000004
 23
-2973.54
 33
0.0
  0
SOLID
  5
30C
330
A
100
AcDbEntity
  8
SOLDERMASK_PADS_BTM
100
AcDbTrace
 10
-4797.390000000004
 20
-3293.54
 30
0.0
 11
-4797.390000000004
 21
-2973.54
 31
0.0
 12
-5097.390000000004
 22
-3293.54
 32
0.0
 13
-5097.390000000004
 23
-2973.54
 33
0.0
  0
SOLID
  5
30D
330
A
100
AcDbEntity
  8
SOLDERMASK_PADS_BTM
100
AcDbTrace
 10
-4297.390000000004
 20
-6713.54
 30
0.0
 11
-4297.390000000004
 21
-6393.54
 31
0.0
 12
-4597.390000000004
 22
-6713.54
 32
0.0
 13
-4597.390000000004
 23
-6393.54
 33
0.0
  0
SOLID
  5
30E
330
A
100
AcDbEntity
  8
SOLDERMASK_PADS_BTM
100
AcDbTrace
 10
-4797.390000000004
 20
-6713.54
 30
0.0
 11
-4797.390000000004
 21
-6393.54
 31
0.0
 12
-5097.390000000004
 22
-6713.54
 32
0.0
 13
-5097.390000000004
 23
-6393.54
 33
0.0
  0
SOLID
  5
30F
330
A
100
AcDbEntity
  8
SOLDERMASK_PADS_BTM
100
AcDbTrace
 10
-6567.400000000002
 20
13796.42
 30
0.0
 11
-6567.400000000002
 21
14446.42
 31
0.0
 12
-6943.400000000003
 22
13796.42
 32
0.0
 13
-6943.400000000003
 23
14446.42
 33
0.0
  0
SOLID
  5
310
330
A
100
AcDbEntity
  8
SOLDERMASK_PADS_BTM
100
AcDbTrace
 10
-7543.400000000002
 20
13796.42
 30
0.0
 11
-7543.400000000002
 21
14446.42
 31
0.0
 12
-7919.400000000003
 22
13796.42
 32
0.0
 13
-7919.400000000003
 23
14446.42
 33
0.0
  0
SOLID
  5
311
330
A
100
AcDbEntity
  8
SOLDERMASK_PADS_BTM
100
AcDbTrace
 10
-5929.400000000002
 20
8696.420000000001
 30
0.0
 11
-5929.400000000002
 21
8996.42
 31
0.0
 12
-6249.400000000003
 22
8696.420000000001
 32
0.0
 13
-6249.400000000003
 23
8996.42
 33
0.0
  0
SOLID
  5
312
330
A
100
AcDbEntity
  8
SOLDERMASK_PADS_BTM
100
AcDbTrace
 10
-5929.400000000002
 20
9196.420000000001
 30
0.0
 11
-5929.400000000002
 21
9496.42
 31
0.0
 12
-6249.400000000003
 22
9196.420000000001
 32
0.0
 13
-6249.400000000003
 23
9496.42
 33
0.0
  0
SOLID
  5
313
330
A
100
AcDbEntity
  8
SOLDERMASK_PADS_BTM
100
AcDbTrace
 10
-6567.400000000005
 20
-8663.540000000001
 30
0.0
 11
-6567.400000000005
 21
-8013.54
 31
0.0
 12
-6943.400000000004
 22
-8663.540000000001
 32
0.0
 13
-6943.400000000004
 23
-8013.54
 33
0.0
  0
SOLID
  5
314
330
A
100
AcDbEntity
  8
SOLDERMASK_PADS_BTM
100
AcDbTrace
 10
-7543.400000000004
 20
-8663.540000000001
 30
0.0
 11
-7543.400000000004
 21
-8013.539999999998
 31
0.0
 12
-7919.400000000004
 22
-8663.540000000001
 32
0.0
 13
-7919.400000000004
 23
-8013.539999999998
 33
0.0
  0
SOLID
  5
315
330
A
100
AcDbEntity
  8
SOLDERMASK_PADS_BTM
100
AcDbTrace
 10
-6567.400000000003
 20
3896.420000000001
 30
0.0
 11
-6567.400000000003
 21
4546.42
 31
0.0
 12
-6943.400000000004
 22
3896.420000000001
 32
0.0
 13
-6943.400000000004
 23
4546.42
 33
0.0
  0
SOLID
  5
316
330
A
100
AcDbEntity
  8
SOLDERMASK_PADS_BTM
100
AcDbTrace
 10
-7543.400000000004
 20
3896.420000000001
 30
0.0
 11
-7543.400000000004
 21
4546.420000000001
 31
0.0
 12
-7919.400000000003
 22
3896.420000000001
 32
0.0
 13
-7919.400000000003
 23
4546.420000000001
 33
0.0
  0
SOLID
  5
317
330
A
100
AcDbEntity
  8
SOLDERMASK_PADS_BTM
100
AcDbTrace
 10
-5929.400000000003
 20
-3563.54
 30
0.0
 11
-5929.400000000003
 21
-3263.54
 31
0.0
 12
-6249.400000000004
 22
-3563.54
 32
0.0
 13
-6249.400000000004
 23
-3263.54
 33
0.0
  0
SOLID
  5
318
330
A
100
AcDbEntity
  8
SOLDERMASK_PADS_BTM
100
AcDbTrace
 10
-5929.400000000003
 20
-3063.54
 30
0.0
 11
-5929.400000000003
 21
-2763.54
 31
0.0
 12
-6249.400000000004
 22
-3063.54
 32
0.0
 13
-6249.400000000004
 23
-2763.54
 33
0.0
  0
SOLID
  5
319
330
A
100
AcDbEntity
  8
SOLDERMASK_PADS_BTM
100
AcDbTrace
 10
6944.009999999997
 20
10196.418
 30
0.0
 11
6944.009999999997
 21
10846.418
 31
0.0
 12
6568.009999999998
 22
10196.418
 32
0.0
 13
6568.009999999998
 23
10846.418
 33
0.0
  0
SOLID
  5
31A
330
A
100
AcDbEntity
  8
SOLDERMASK_PADS_BTM
100
AcDbTrace
 10
7920.009999999997
 20
10196.418
 30
0.0
 11
7920.009999999997
 21
10846.418
 31
0.0
 12
7544.009999999997
 22
10196.418
 32
0.0
 13
7544.009999999997
 23
10846.418
 33
0.0
  0
SOLID
  5
31B
330
A
100
AcDbEntity
  8
SOLDERMASK_PADS_BTM
100
AcDbTrace
 10
6944.009999999997
 20
-1463.538
 30
0.0
 11
6944.009999999997
 21
-813.5380000000004
 31
0.0
 12
6568.009999999997
 22
-1463.538
 32
0.0
 13
6568.009999999997
 23
-813.5380000000004
 33
0.0
  0
SOLID
  5
31C
330
A
100
AcDbEntity
  8
SOLDERMASK_PADS_BTM
100
AcDbTrace
 10
7920.009999999996
 20
-1463.538
 30
0.0
 11
7920.009999999996
 21
-813.5380000000004
 31
0.0
 12
7544.009999999997
 22
-1463.538
 32
0.0
 13
7544.009999999997
 23
-813.5380000000004
 33
0.0
  0
SOLID
  5
31D
330
A
100
AcDbEntity
  8
SOLDERMASK_PADS_BTM
100
AcDbTrace
 10
6250.009999999997
 20
13946.42
 30
0.0
 11
6250.009999999997
 21
14246.42
 31
0.0
 12
5930.009999999998
 22
13946.42
 32
0.0
 13
5930.009999999998
 23
14246.42
 33
0.0
  0
SOLID
  5
31E
330
A
100
AcDbEntity
  8
SOLDERMASK_PADS_BTM
100
AcDbTrace
 10
6250.009999999997
 20
14446.42
 30
0.0
 11
6250.009999999997
 21
14746.42
 31
0.0
 12
5930.009999999998
 22
14446.42
 32
0.0
 13
5930.009999999998
 23
14746.42
 33
0.0
  0
SOLID
  5
31F
330
A
100
AcDbEntity
  8
SOLDERMASK_PADS_BTM
100
AcDbTrace
 10
4597.999999999998
 20
11846.32
 30
0.0
 11
4597.999999999998
 21
12166.32
 31
0.0
 12
4297.999999999997
 22
11846.32
 32
0.0
 13
4297.999999999997
 23
12166.32
 33
0.0
  0
SOLID
  5
320
330
A
100
AcDbEntity
  8
SOLDERMASK_PADS_BTM
100
AcDbTrace
 10
5097.999999999998
 20
11846.32
 30
0.0
 11
5097.999999999998
 21
12166.32
 31
0.0
 12
4797.999999999997
 22
11846.32
 32
0.0
 13
4797.999999999997
 23
12166.32
 33
0.0
  0
SOLID
  5
321
330
A
100
AcDbEntity
  8
SOLDERMASK_PADS_BTM
100
AcDbTrace
 10
6250.009999999997
 20
8696.420000000001
 30
0.0
 11
6250.009999999997
 21
8996.42
 31
0.0
 12
5930.009999999998
 22
8696.420000000001
 32
0.0
 13
5930.009999999998
 23
8996.42
 33
0.0
  0
SOLID
  5
322
330
A
100
AcDbEntity
  8
SOLDERMASK_PADS_BTM
100
AcDbTrace
 10
6250.009999999997
 20
9196.420000000001
 30
0.0
 11
6250.009999999997
 21
9496.42
 31
0.0
 12
5930.009999999998
 22
9196.420000000001
 32
0.0
 13
5930.009999999998
 23
9496.42
 33
0.0
  0
LWPOLYLINE
  5
325
330
A
100
AcDbEntity
  8
SOLDERMASK_PADS_BTM
100
AcDbPolyline
 90
        3
 70
     1
 43
0.0
 10
27250.0
 20
38250.0
 10
27750.0
 20
38250.0
 10
27750.0
 20
37750.0
  0
HATCH
  5
326
330
A
100
AcDbEntity
  8
SOLDERMASK_PADS_BTM
100
AcDbHatch
 10
0.0
 20
0.0
 30
0.0
210
0.0
220
0.0
230
1.0
  2
SOLID
 70
     1
 71
     0
 91
        1
 92
        2
 72
     0
 73
     1
 93
        3
 10
27250.0
 20
38250.0
 10
27750.0
 20
38250.0
 10
27750.0
 20
37750.0
 97
        0
 75
     0
 76
     1
 98
        1
 10
-0.000000000003638
 20
0.0
450
        0
451
        0
460
0.0
461
0.0
452
        0
462
0.0
453
        0
470

  0
SOLID
  5
27F9
330
A
100
AcDbEntity
  8
SOLDERMASK_PADS_BTM
100
AcDbTrace
 10
4597.999999999996
 20
6146.32
 30
0.0
 11
4597.999999999996
 21
6466.32
 31
0.0
 12
4297.999999999996
 22
6146.32
 32
0.0
 13
4297.999999999996
 23
6466.32
 33
0.0
  0
SOLID
  5
27FA
330
A
100
AcDbEntity
  8
SOLDERMASK_PADS_BTM
100
AcDbTrace
 10
5097.999999999996
 20
6146.32
 30
0.0
 11
5097.999999999996
 21
6466.32
 31
0.0
 12
4797.999999999996
 22
6146.32
 32
0.0
 13
4797.999999999996
 23
6466.32
 33
0.0
  0
SOLID
  5
27FB
330
A
100
AcDbEntity
  8
SOLDERMASK_PADS_BTM
100
AcDbTrace
 10
5680.009999999996
 20
3946.42
 30
0.0
 11
5680.009999999996
 21
4246.419999999999
 31
0.0
 12
5360.009999999997
 22
3946.42
 32
0.0
 13
5360.009999999997
 23
4246.419999999999
 33
0.0
  0
SOLID
  5
27FC
330
A
100
AcDbEntity
  8
SOLDERMASK_PADS_BTM
100
AcDbTrace
 10
5680.009999999996
 20
3446.42
 30
0.0
 11
5680.009999999996
 21
3746.42
 31
0.0
 12
5360.009999999997
 22
3446.42
 32
0.0
 13
5360.009999999997
 23
3746.42
 33
0.0
  0
SOLID
  5
2ABB
330
A
100
AcDbEntity
  8
SOLDERMASK_PADS_BTM
100
AcDbTrace
 10
4597.999999999996
 20
-2153.540000000001
 30
0.0
 11
4597.999999999996
 21
-1833.54
 31
0.0
 12
4297.999999999996
 22
-2153.540000000001
 32
0.0
 13
4297.999999999996
 23
-1833.54
 33
0.0
  0
SOLID
  5
2ABC
330
A
100
AcDbEntity
  8
SOLDERMASK_PADS_BTM
100
AcDbTrace
 10
5097.999999999996
 20
-2153.540000000001
 30
0.0
 11
5097.999999999996
 21
-1833.54
 31
0.0
 12
4797.999999999996
 22
-2153.540000000001
 32
0.0
 13
4797.999999999996
 23
-1833.54
 33
0.0
  0
SOLID
  5
2ABD
330
A
100
AcDbEntity
  8
SOLDERMASK_PADS_BTM
100
AcDbTrace
 10
-5359.400000000002
 20
13946.42
 30
0.0
 11
-5359.400000000002
 21
14246.42
 31
0.0
 12
-5679.400000000002
 22
13946.42
 32
0.0
 13
-5679.400000000002
 23
14246.42
 33
0.0
  0
SOLID
  5
2ABE
330
A
100
AcDbEntity
  8
SOLDERMASK_PADS_BTM
100
AcDbTrace
 10
-5359.400000000002
 20
14446.42
 30
0.0
 11
-5359.400000000002
 21
14746.42
 31
0.0
 12
-5679.400000000002
 22
14446.42
 32
0.0
 13
-5679.400000000002
 23
14746.42
 33
0.0
  0
SOLID
  5
2ABF
330
A
100
AcDbEntity
  8
SOLDERMASK_PADS_BTM
100
AcDbTrace
 10
4597.999999999996
 20
-4433.539999999999
 30
0.0
 11
4597.999999999996
 21
-4113.539999999999
 31
0.0
 12
4297.999999999996
 22
-4433.539999999999
 32
0.0
 13
4297.999999999996
 23
-4113.539999999999
 33
0.0
  0
SOLID
  5
2AC0
330
A
100
AcDbEntity
  8
SOLDERMASK_PADS_BTM
100
AcDbTrace
 10
5097.999999999996
 20
-4433.539999999999
 30
0.0
 11
5097.999999999996
 21
-4113.539999999999
 31
0.0
 12
4797.999999999996
 22
-4433.539999999999
 32
0.0
 13
4797.999999999996
 23
-4113.539999999999
 33
0.0
  0
SOLID
  5
2AC1
330
A
100
AcDbEntity
  8
SOLDERMASK_PADS_BTM
100
AcDbTrace
 10
-4297.390000000002
 20
10506.42
 30
0.0
 11
-4297.390000000002
 21
10826.42
 31
0.0
 12
-4597.390000000003
 22
10506.42
 32
0.0
 13
-4597.390000000003
 23
10826.42
 33
0.0
  0
SOLID
  5
2AC2
330
A
100
AcDbEntity
  8
SOLDERMASK_PADS_BTM
100
AcDbTrace
 10
-4797.390000000002
 20
10506.42
 30
0.0
 11
-4797.390000000002
 21
10826.42
 31
0.0
 12
-5097.390000000003
 22
10506.42
 32
0.0
 13
-5097.390000000003
 23
10826.42
 33
0.0
  0
SOLID
  5
2AC3
330
A
100
AcDbEntity
  8
SOLDERMASK_PADS_BTM
100
AcDbTrace
 10
6250.009999999996
 20
-7763.54
 30
0.0
 11
6250.009999999996
 21
-7463.54
 31
0.0
 12
5930.009999999995
 22
-7763.54
 32
0.0
 13
5930.009999999995
 23
-7463.54
 33
0.0
  0
SOLID
  5
2AC4
330
A
100
AcDbEntity
  8
SOLDERMASK_PADS_BTM
100
AcDbTrace
 10
6250.009999999996
 20
-7263.54
 30
0.0
 11
6250.009999999996
 21
-6963.54
 31
0.0
 12
5930.009999999996
 22
-7263.54
 32
0.0
 13
5930.009999999996
 23
-6963.54
 33
0.0
  0
SOLID
  5
2AC5
330
A
100
AcDbEntity
  8
SOLDERMASK_PADS_BTM
100
AcDbTrace
 10
-5359.400000000004
 20
7096.420000000001
 30
0.0
 11
-5359.400000000004
 21
7396.42
 31
0.0
 12
-5679.400000000003
 22
7096.420000000001
 32
0.0
 13
-5679.400000000003
 23
7396.42
 33
0.0
  0
SOLID
  5
2AC6
330
A
100
AcDbEntity
  8
SOLDERMASK_PADS_BTM
100
AcDbTrace
 10
-5359.400000000004
 20
6596.420000000001
 30
0.0
 11
-5359.400000000004
 21
6896.42
 31
0.0
 12
-5679.400000000003
 22
6596.420000000001
 32
0.0
 13
-5679.400000000003
 23
6896.42
 33
0.0
  0
SOLID
  5
2AC7
330
A
100
AcDbEntity
  8
SOLDERMASK_PADS_BTM
100
AcDbTrace
 10
-4297.390000000004
 20
3096.420000000001
 30
0.0
 11
-4297.390000000004
 21
3416.420000000001
 31
0.0
 12
-4597.390000000004
 22
3096.420000000001
 32
0.0
 13
-4597.390000000004
 23
3416.420000000001
 33
0.0
  0
SOLID
  5
2AC8
330
A
100
AcDbEntity
  8
SOLDERMASK_PADS_BTM
100
AcDbTrace
 10
-4797.390000000004
 20
3096.420000000001
 30
0.0
 11
-4797.390000000004
 21
3416.420000000001
 31
0.0
 12
-5097.390000000004
 22
3096.420000000001
 32
0.0
 13
-5097.390000000004
 23
3416.420000000001
 33
0.0
  0
SOLID
  5
2AC9
330
A
100
AcDbEntity
  8
SOLDERMASK_PADS_BTM
100
AcDbTrace
 10
-5359.400000000004
 20
-3563.54
 30
0.0
 11
-5359.400000000004
 21
-3263.54
 31
0.0
 12
-5679.400000000003
 22
-3563.54
 32
0.0
 13
-5679.400000000003
 23
-3263.54
 33
0.0
  0
SOLID
  5
2ACA
330
A
100
AcDbEntity
  8
SOLDERMASK_PADS_BTM
100
AcDbTrace
 10
-5359.400000000004
 20
-3063.54
 30
0.0
 11
-5359.400000000004
 21
-2763.54
 31
0.0
 12
-5679.400000000003
 22
-3063.54
 32
0.0
 13
-5679.400000000003
 23
-2763.54
 33
0.0
  0
SOLID
  5
2ACB
330
A
100
AcDbEntity
  8
SOLDERMASK_PADS_BTM
100
AcDbTrace
 10
-4297.390000000004
 20
-7283.540000000001
 30
0.0
 11
-4297.390000000004
 21
-6963.54
 31
0.0
 12
-4597.390000000004
 22
-7283.540000000001
 32
0.0
 13
-4597.390000000004
 23
-6963.54
 33
0.0
  0
SOLID
  5
2ACC
330
A
100
AcDbEntity
  8
SOLDERMASK_PADS_BTM
100
AcDbTrace
 10
-4797.390000000004
 20
-7283.540000000001
 30
0.0
 11
-4797.390000000004
 21
-6963.54
 31
0.0
 12
-5097.390000000004
 22
-7283.540000000001
 32
0.0
 13
-5097.390000000004
 23
-6963.54
 33
0.0
  0
SOLID
  5
2ACD
330
A
100
AcDbEntity
  8
SOLDERMASK_PADS_BTM
100
AcDbTrace
 10
-5929.400000000002
 20
13396.42
 30
0.0
 11
-5929.400000000002
 21
13696.42
 31
0.0
 12
-6249.400000000003
 22
13396.42
 32
0.0
 13
-6249.400000000003
 23
13696.42
 33
0.0
  0
SOLID
  5
2ACE
330
A
100
AcDbEntity
  8
SOLDERMASK_PADS_BTM
100
AcDbTrace
 10
-5929.400000000002
 20
12896.42
 30
0.0
 11
-5929.400000000002
 21
13196.42
 31
0.0
 12
-6249.400000000003
 22
12896.42
 32
0.0
 13
-6249.400000000003
 23
13196.42
 33
0.0
  0
SOLID
  5
2ACF
330
A
100
AcDbEntity
  8
SOLDERMASK_PADS_BTM
100
AcDbTrace
 10
-6567.400000000002
 20
8396.42
 30
0.0
 11
-6567.400000000002
 21
9046.420000000001
 31
0.0
 12
-6943.400000000003
 22
8396.42
 32
0.0
 13
-6943.400000000003
 23
9046.420000000001
 33
0.0
  0
SOLID
  5
2AD0
330
A
100
AcDbEntity
  8
SOLDERMASK_PADS_BTM
100
AcDbTrace
 10
-7543.400000000002
 20
8396.42
 30
0.0
 11
-7543.400000000002
 21
9046.420000000001
 31
0.0
 12
-7919.400000000003
 22
8396.42
 32
0.0
 13
-7919.400000000003
 23
9046.420000000001
 33
0.0
  0
SOLID
  5
2AD1
330
A
100
AcDbEntity
  8
SOLDERMASK_PADS_BTM
100
AcDbTrace
 10
-5929.400000000004
 20
-8313.540000000001
 30
0.0
 11
-5929.400000000004
 21
-8013.54
 31
0.0
 12
-6249.400000000004
 22
-8313.540000000001
 32
0.0
 13
-6249.400000000004
 23
-8013.54
 33
0.0
  0
SOLID
  5
2AD2
330
A
100
AcDbEntity
  8
SOLDERMASK_PADS_BTM
100
AcDbTrace
 10
-5929.400000000004
 20
-8813.540000000001
 30
0.0
 11
-5929.400000000004
 21
-8513.54
 31
0.0
 12
-6249.400000000004
 22
-8813.540000000001
 32
0.0
 13
-6249.400000000004
 23
-8513.54
 33
0.0
  0
SOLID
  5
2AD3
330
A
100
AcDbEntity
  8
SOLDERMASK_PADS_BTM
100
AcDbTrace
 10
-5929.400000000003
 20
3946.420000000001
 30
0.0
 11
-5929.400000000003
 21
4246.419999999999
 31
0.0
 12
-6249.400000000004
 22
3946.420000000001
 32
0.0
 13
-6249.400000000004
 23
4246.419999999999
 33
0.0
  0
SOLID
  5
2AD4
330
A
100
AcDbEntity
  8
SOLDERMASK_PADS_BTM
100
AcDbTrace
 10
-5929.400000000003
 20
3446.420000000001
 30
0.0
 11
-5929.400000000003
 21
3746.42
 31
0.0
 12
-6249.400000000004
 22
3446.420000000001
 32
0.0
 13
-6249.400000000004
 23
3746.42
 33
0.0
  0
SOLID
  5
2AD5
330
A
100
AcDbEntity
  8
SOLDERMASK_PADS_BTM
100
AcDbTrace
 10
-6567.400000000003
 20
-4163.54
 30
0.0
 11
-6567.400000000003
 21
-3513.54
 31
0.0
 12
-6943.400000000004
 22
-4163.54
 32
0.0
 13
-6943.400000000004
 23
-3513.54
 33
0.0
  0
SOLID
  5
2AD6
330
A
100
AcDbEntity
  8
SOLDERMASK_PADS_BTM
100
AcDbTrace
 10
-7543.400000000004
 20
-4163.539999999999
 30
0.0
 11
-7543.400000000004
 21
-3513.54
 31
0.0
 12
-7919.400000000003
 22
-4163.539999999999
 32
0.0
 13
-7919.400000000003
 23
-3513.54
 33
0.0
  0
SOLID
  5
2AD7
330
A
100
AcDbEntity
  8
SOLDERMASK_PADS_BTM
100
AcDbTrace
 10
6944.009999999997
 20
9296.418
 30
0.0
 11
6944.009999999997
 21
9946.418000000001
 31
0.0
 12
6568.009999999998
 22
9296.418
 32
0.0
 13
6568.009999999998
 23
9946.418000000001
 33
0.0
  0
SOLID
  5
2AD8
330
A
100
AcDbEntity
  8
SOLDERMASK_PADS_BTM
100
AcDbTrace
 10
7920.009999999997
 20
9296.418
 30
0.0
 11
7920.009999999997
 21
9946.418000000001
 31
0.0
 12
7544.009999999997
 22
9296.418
 32
0.0
 13
7544.009999999997
 23
9946.418000000001
 33
0.0
  0
SOLID
  5
2AD9
330
A
100
AcDbEntity
  8
SOLDERMASK_PADS_BTM
100
AcDbTrace
 10
6944.009999999997
 20
-2363.542
 30
0.0
 11
6944.009999999997
 21
-1713.542000000001
 31
0.0
 12
6568.009999999997
 22
-2363.542
 32
0.0
 13
6568.009999999997
 23
-1713.542000000001
 33
0.0
  0
SOLID
  5
2ADA
330
A
100
AcDbEntity
  8
SOLDERMASK_PADS_BTM
100
AcDbTrace
 10
7920.009999999996
 20
-2363.542
 30
0.0
 11
7920.009999999996
 21
-1713.542000000001
 31
0.0
 12
7544.009999999997
 22
-2363.542
 32
0.0
 13
7544.009999999997
 23
-1713.542000000001
 33
0.0
  0
SOLID
  5
2ADB
330
A
100
AcDbEntity
  8
SOLDERMASK_PADS_BTM
100
AcDbTrace
 10
5680.009999999998
 20
13946.42
 30
0.0
 11
5680.009999999998
 21
14246.42
 31
0.0
 12
5360.009999999998
 22
13946.42
 32
0.0
 13
5360.009999999998
 23
14246.42
 33
0.0
  0
SOLID
  5
2ADC
330
A
100
AcDbEntity
  8
SOLDERMASK_PADS_BTM
100
AcDbTrace
 10
5680.009999999998
 20
14446.42
 30
0.0
 11
5680.009999999998
 21
14746.42
 31
0.0
 12
5360.009999999998
 22
14446.42
 32
0.0
 13
5360.009999999998
 23
14746.42
 33
0.0
  0
SOLID
  5
2ADD
330
A
100
AcDbEntity
  8
SOLDERMASK_PADS_BTM
100
AcDbTrace
 10
4597.999999999998
 20
11276.32
 30
0.0
 11
4597.999999999998
 21
11596.32
 31
0.0
 12
4297.999999999997
 22
11276.32
 32
0.0
 13
4297.999999999997
 23
11596.32
 33
0.0
  0
SOLID
  5
2ADE
330
A
100
AcDbEntity
  8
SOLDERMASK_PADS_BTM
100
AcDbTrace
 10
5097.999999999998
 20
11276.32
 30
0.0
 11
5097.999999999998
 21
11596.32
 31
0.0
 12
4797.999999999997
 22
11276.32
 32
0.0
 13
4797.999999999997
 23
11596.32
 33
0.0
  0
SOLID
  5
2ADF
330
A
100
AcDbEntity
  8
SOLDERMASK_PADS_BTM
100
AcDbTrace
 10
5680.009999999998
 20
8696.420000000001
 30
0.0
 11
5680.009999999998
 21
8996.42
 31
0.0
 12
5360.009999999998
 22
8696.420000000001
 32
0.0
 13
5360.009999999998
 23
8996.42
 33
0.0
  0
SOLID
  5
2AE0
330
A
100
AcDbEntity
  8
SOLDERMASK_PADS_BTM
100
AcDbTrace
 10
5680.009999999998
 20
9196.420000000001
 30
0.0
 11
5680.009999999998
 21
9496.42
 31
0.0
 12
5360.009999999998
 22
9196.420000000001
 32
0.0
 13
5360.009999999998
 23
9496.42
 33
0.0
  0
SOLID
  5
2AE1
330
A
100
AcDbEntity
  8
SOLDERMASK_PADS_BTM
100
AcDbTrace
 10
6250.009999999996
 20
5546.420000000001
 30
0.0
 11
6250.009999999996
 21
5846.420000000001
 31
0.0
 12
5930.009999999996
 22
5546.420000000001
 32
0.0
 13
5930.009999999996
 23
5846.420000000001
 33
0.0
  0
SOLID
  5
2AE2
330
A
100
AcDbEntity
  8
SOLDERMASK_PADS_BTM
100
AcDbTrace
 10
6250.009999999996
 20
6046.420000000001
 30
0.0
 11
6250.009999999996
 21
6346.420000000001
 31
0.0
 12
5930.009999999996
 22
6046.420000000001
 32
0.0
 13
5930.009999999996
 23
6346.420000000001
 33
0.0
  0
SOLID
  5
2AE3
330
A
100
AcDbEntity
  8
SOLDERMASK_PADS_BTM
100
AcDbTrace
 10
4597.999999999996
 20
3296.32
 30
0.0
 11
4597.999999999996
 21
3616.32
 31
0.0
 12
4297.999999999996
 22
3296.32
 32
0.0
 13
4297.999999999996
 23
3616.32
 33
0.0
  0
SOLID
  5
2AE4
330
A
100
AcDbEntity
  8
SOLDERMASK_PADS_BTM
100
AcDbTrace
 10
5097.999999999996
 20
3296.32
 30
0.0
 11
5097.999999999996
 21
3616.32
 31
0.0
 12
4797.999999999996
 22
3296.32
 32
0.0
 13
4797.999999999996
 23
3616.32
 33
0.0
  0
SOLID
  5
2AE5
330
A
100
AcDbEntity
  8
SOLDERMASK_PADS_BTM
100
AcDbTrace
 10
6250.009999999996
 20
-2013.54
 30
0.0
 11
6250.009999999996
 21
-1713.54
 31
0.0
 12
5930.009999999996
 22
-2013.54
 32
0.0
 13
5930.009999999996
 23
-1713.54
 33
0.0
  0
SOLID
  5
2AE6
330
A
100
AcDbEntity
  8
SOLDERMASK_PADS_BTM
100
AcDbTrace
 10
6250.009999999996
 20
-2513.540000000001
 30
0.0
 11
6250.009999999996
 21
-2213.54
 31
0.0
 12
5930.009999999996
 22
-2513.540000000001
 32
0.0
 13
5930.009999999996
 23
-2213.54
 33
0.0
  0
SOLID
  5
2AE7
330
A
100
AcDbEntity
  8
SOLDERMASK_PADS_BTM
100
AcDbTrace
 10
-4297.390000000002
 20
13926.42
 30
0.0
 11
-4297.390000000002
 21
14246.42
 31
0.0
 12
-4597.390000000003
 22
13926.42
 32
0.0
 13
-4597.390000000003
 23
14246.42
 33
0.0
  0
SOLID
  5
2AE8
330
A
100
AcDbEntity
  8
SOLDERMASK_PADS_BTM
100
AcDbTrace
 10
-4797.390000000002
 20
13926.42
 30
0.0
 11
-4797.390000000002
 21
14246.42
 31
0.0
 12
-5097.390000000003
 22
13926.42
 32
0.0
 13
-5097.390000000003
 23
14246.42
 33
0.0
  0
SOLID
  5
2AE9
330
A
100
AcDbEntity
  8
SOLDERMASK_PADS_BTM
100
AcDbTrace
 10
4597.999999999996
 20
-5003.54
 30
0.0
 11
4597.999999999996
 21
-4683.539999999999
 31
0.0
 12
4297.999999999996
 22
-5003.54
 32
0.0
 13
4297.999999999996
 23
-4683.539999999999
 33
0.0
  0
SOLID
  5
2AEA
330
A
100
AcDbEntity
  8
SOLDERMASK_PADS_BTM
100
AcDbTrace
 10
5097.999999999996
 20
-5003.54
 30
0.0
 11
5097.999999999996
 21
-4683.539999999999
 31
0.0
 12
4797.999999999996
 22
-5003.54
 32
0.0
 13
4797.999999999996
 23
-4683.539999999999
 33
0.0
  0
SOLID
  5
2AEB
330
A
100
AcDbEntity
  8
SOLDERMASK_PADS_BTM
100
AcDbTrace
 10
-5359.400000000002
 20
10246.42
 30
0.0
 11
-5359.400000000002
 21
10546.42
 31
0.0
 12
-5679.400000000002
 22
10246.42
 32
0.0
 13
-5679.400000000002
 23
10546.42
 33
0.0
  0
SOLID
  5
2AEC
330
A
100
AcDbEntity
  8
SOLDERMASK_PADS_BTM
100
AcDbTrace
 10
-5359.400000000002
 20
9746.42
 30
0.0
 11
-5359.400000000002
 21
10046.42
 31
0.0
 12
-5679.400000000002
 22
9746.42
 32
0.0
 13
-5679.400000000002
 23
10046.42
 33
0.0
  0
SOLID
  5
2AED
330
A
100
AcDbEntity
  8
SOLDERMASK_PADS_BTM
100
AcDbTrace
 10
5680.009999999995
 20
-7763.54
 30
0.0
 11
5680.009999999995
 21
-7463.54
 31
0.0
 12
5360.009999999995
 22
-7763.54
 32
0.0
 13
5360.009999999995
 23
-7463.54
 33
0.0
  0
SOLID
  5
2AEE
330
A
100
AcDbEntity
  8
SOLDERMASK_PADS_BTM
100
AcDbTrace
 10
5680.009999999996
 20
-7263.54
 30
0.0
 11
5680.009999999996
 21
-6963.54
 31
0.0
 12
5360.009999999997
 22
-7263.54
 32
0.0
 13
5360.009999999997
 23
-6963.54
 33
0.0
  0
SOLID
  5
2AEF
330
A
100
AcDbEntity
  8
SOLDERMASK_PADS_BTM
100
AcDbTrace
 10
-4297.390000000004
 20
6516.42
 30
0.0
 11
-4297.390000000004
 21
6836.42
 31
0.0
 12
-4597.390000000004
 22
6516.42
 32
0.0
 13
-4597.390000000004
 23
6836.42
 33
0.0
  0
SOLID
  5
2AF0
330
A
100
AcDbEntity
  8
SOLDERMASK_PADS_BTM
100
AcDbTrace
 10
-4797.390000000004
 20
6516.42
 30
0.0
 11
-4797.390000000004
 21
6836.42
 31
0.0
 12
-5097.390000000004
 22
6516.42
 32
0.0
 13
-5097.390000000004
 23
6836.42
 33
0.0
  0
SOLID
  5
2AF1
330
A
100
AcDbEntity
  8
SOLDERMASK_PADS_BTM
100
AcDbTrace
 10
-5359.400000000004
 20
2396.42
 30
0.0
 11
-5359.400000000004
 21
2696.420000000001
 31
0.0
 12
-5679.400000000003
 22
2396.42
 32
0.0
 13
-5679.400000000003
 23
2696.420000000001
 33
0.0
  0
SOLID
  5
2AF2
330
A
100
AcDbEntity
  8
SOLDERMASK_PADS_BTM
100
AcDbTrace
 10
-5359.400000000004
 20
2896.420000000001
 30
0.0
 11
-5359.400000000004
 21
3196.420000000001
 31
0.0
 12
-5679.400000000003
 22
2896.420000000001
 32
0.0
 13
-5679.400000000003
 23
3196.420000000001
 33
0.0
  0
SOLID
  5
2AF3
330
A
100
AcDbEntity
  8
SOLDERMASK_PADS_BTM
100
AcDbTrace
 10
-4297.390000000004
 20
-3863.54
 30
0.0
 11
-4297.390000000004
 21
-3543.54
 31
0.0
 12
-4597.390000000004
 22
-3863.54
 32
0.0
 13
-4597.390000000004
 23
-3543.54
 33
0.0
  0
SOLID
  5
2AF4
330
A
100
AcDbEntity
  8
SOLDERMASK_PADS_BTM
100
AcDbTrace
 10
-4797.390000000004
 20
-3863.54
 30
0.0
 11
-4797.390000000004
 21
-3543.54
 31
0.0
 12
-5097.390000000004
 22
-3863.54
 32
0.0
 13
-5097.390000000004
 23
-3543.54
 33
0.0
  0
SOLID
  5
2AF5
330
A
100
AcDbEntity
  8
SOLDERMASK_PADS_BTM
100
AcDbTrace
 10
-5359.400000000004
 20
-7763.54
 30
0.0
 11
-5359.400000000004
 21
-7463.54
 31
0.0
 12
-5679.400000000004
 22
-7763.54
 32
0.0
 13
-5679.400000000004
 23
-7463.54
 33
0.0
  0
SOLID
  5
2AF6
330
A
100
AcDbEntity
  8
SOLDERMASK_PADS_BTM
100
AcDbTrace
 10
-5359.400000000004
 20
-7263.54
 30
0.0
 11
-5359.400000000004
 21
-6963.54
 31
0.0
 12
-5679.400000000003
 22
-7263.54
 32
0.0
 13
-5679.400000000003
 23
-6963.54
 33
0.0
  0
SOLID
  5
2AF7
330
A
100
AcDbEntity
  8
SOLDERMASK_PADS_BTM
100
AcDbTrace
 10
-6567.400000000002
 20
12896.42
 30
0.0
 11
-6567.400000000002
 21
13546.42
 31
0.0
 12
-6943.400000000003
 22
12896.42
 32
0.0
 13
-6943.400000000003
 23
13546.42
 33
0.0
  0
SOLID
  5
2AF8
330
A
100
AcDbEntity
  8
SOLDERMASK_PADS_BTM
100
AcDbTrace
 10
-7543.400000000002
 20
12896.42
 30
0.0
 11
-7543.400000000002
 21
13546.42
 31
0.0
 12
-7919.400000000003
 22
12896.42
 32
0.0
 13
-7919.400000000003
 23
13546.42
 33
0.0
  0
SOLID
  5
2AF9
330
A
100
AcDbEntity
  8
SOLDERMASK_PADS_BTM
100
AcDbTrace
 10
-5929.400000000002
 20
7646.42
 30
0.0
 11
-5929.400000000002
 21
7946.42
 31
0.0
 12
-6249.400000000003
 22
7646.42
 32
0.0
 13
-6249.400000000003
 23
7946.42
 33
0.0
  0
SOLID
  5
2AFA
330
A
100
AcDbEntity
  8
SOLDERMASK_PADS_BTM
100
AcDbTrace
 10
-5929.400000000002
 20
8146.42
 30
0.0
 11
-5929.400000000002
 21
8446.420000000001
 31
0.0
 12
-6249.400000000003
 22
8146.42
 32
0.0
 13
-6249.400000000003
 23
8446.420000000001
 33
0.0
  0
SOLID
  5
2AFB
330
A
100
AcDbEntity
  8
SOLDERMASK_PADS_BTM
100
AcDbTrace
 10
-7543.400000000004
 20
2996.42
 30
0.0
 11
-7543.400000000004
 21
3646.420000000001
 31
0.0
 12
-7919.400000000003
 22
2996.42
 32
0.0
 13
-7919.400000000003
 23
3646.420000000001
 33
0.0
  0
SOLID
  5
2AFC
330
A
100
AcDbEntity
  8
SOLDERMASK_PADS_BTM
100
AcDbTrace
 10
-6567.400000000003
 20
2996.42
 30
0.0
 11
-6567.400000000003
 21
3646.420000000001
 31
0.0
 12
-6943.400000000004
 22
2996.42
 32
0.0
 13
-6943.400000000004
 23
3646.420000000001
 33
0.0
  0
SOLID
  5
2AFD
330
A
100
AcDbEntity
  8
SOLDERMASK_PADS_BTM
100
AcDbTrace
 10
-7543.400000000004
 20
-9563.540000000001
 30
0.0
 11
-7543.400000000004
 21
-8913.540000000001
 31
0.0
 12
-7919.400000000004
 22
-9563.540000000001
 32
0.0
 13
-7919.400000000004
 23
-8913.540000000001
 33
0.0
  0
SOLID
  5
2AFE
330
A
100
AcDbEntity
  8
SOLDERMASK_PADS_BTM
100
AcDbTrace
 10
-6567.400000000005
 20
-9563.540000000001
 30
0.0
 11
-6567.400000000005
 21
-8913.540000000001
 31
0.0
 12
-6943.400000000004
 22
-9563.540000000001
 32
0.0
 13
-6943.400000000004
 23
-8913.540000000001
 33
0.0
  0
SOLID
  5
2AFF
330
A
100
AcDbEntity
  8
SOLDERMASK_PADS_BTM
100
AcDbTrace
 10
-5929.400000000003
 20
-4113.539999999999
 30
0.0
 11
-5929.400000000003
 21
-3813.54
 31
0.0
 12
-6249.400000000004
 22
-4113.539999999999
 32
0.0
 13
-6249.400000000004
 23
-3813.54
 33
0.0
  0
SOLID
  5
2B00
330
A
100
AcDbEntity
  8
SOLDERMASK_PADS_BTM
100
AcDbTrace
 10
-5929.400000000003
 20
-4613.539999999999
 30
0.0
 11
-5929.400000000003
 21
-4313.539999999999
 31
0.0
 12
-6249.400000000004
 22
-4613.539999999999
 32
0.0
 13
-6249.400000000004
 23
-4313.539999999999
 33
0.0
  0
SOLID
  5
2B01
330
A
100
AcDbEntity
  8
SOLDERMASK_PADS_BTM
100
AcDbTrace
 10
6944.009999999997
 20
8396.421999999999
 30
0.0
 11
6944.009999999997
 21
9046.421999999997
 31
0.0
 12
6568.009999999998
 22
8396.421999999999
 32
0.0
 13
6568.009999999998
 23
9046.421999999997
 33
0.0
  0
SOLID
  5
2B02
330
A
100
AcDbEntity
  8
SOLDERMASK_PADS_BTM
100
AcDbTrace
 10
7920.009999999997
 20
8396.421999999999
 30
0.0
 11
7920.009999999997
 21
9046.421999999997
 31
0.0
 12
7544.009999999997
 22
8396.421999999999
 32
0.0
 13
7544.009999999997
 23
9046.421999999997
 33
0.0
  0
SOLID
  5
2B03
330
A
100
AcDbEntity
  8
SOLDERMASK_PADS_BTM
100
AcDbTrace
 10
6944.009999999997
 20
-3263.542000000001
 30
0.0
 11
6944.009999999997
 21
-2613.542000000001
 31
0.0
 12
6568.009999999997
 22
-3263.542000000001
 32
0.0
 13
6568.009999999997
 23
-2613.542000000001
 33
0.0
  0
SOLID
  5
2B04
330
A
100
AcDbEntity
  8
SOLDERMASK_PADS_BTM
100
AcDbTrace
 10
7920.009999999996
 20
-3263.542000000001
 30
0.0
 11
7920.009999999996
 21
-2613.542000000001
 31
0.0
 12
7544.009999999997
 22
-3263.542000000001
 32
0.0
 13
7544.009999999997
 23
-2613.542000000001
 33
0.0
  0
SOLID
  5
2B05
330
A
100
AcDbEntity
  8
SOLDERMASK_PADS_BTM
100
AcDbTrace
 10
4597.999999999998
 20
14126.32
 30
0.0
 11
4597.999999999998
 21
14446.32
 31
0.0
 12
4297.999999999997
 22
14126.32
 32
0.0
 13
4297.999999999997
 23
14446.32
 33
0.0
  0
SOLID
  5
2B06
330
A
100
AcDbEntity
  8
SOLDERMASK_PADS_BTM
100
AcDbTrace
 10
5097.999999999998
 20
14126.32
 30
0.0
 11
5097.999999999998
 21
14446.32
 31
0.0
 12
4797.999999999997
 22
14126.32
 32
0.0
 13
4797.999999999997
 23
14446.32
 33
0.0
  0
SOLID
  5
2B07
330
A
100
AcDbEntity
  8
SOLDERMASK_PADS_BTM
100
AcDbTrace
 10
6250.009999999997
 20
10796.42
 30
0.0
 11
6250.009999999997
 21
11096.42
 31
0.0
 12
5930.009999999998
 22
10796.42
 32
0.0
 13
5930.009999999998
 23
11096.42
 33
0.0
  0
SOLID
  5
2B08
330
A
100
AcDbEntity
  8
SOLDERMASK_PADS_BTM
100
AcDbTrace
 10
6250.009999999997
 20
11296.42
 30
0.0
 11
6250.009999999997
 21
11596.42
 31
0.0
 12
5930.009999999998
 22
11296.42
 32
0.0
 13
5930.009999999998
 23
11596.42
 33
0.0
  0
SOLID
  5
2B09
330
A
100
AcDbEntity
  8
SOLDERMASK_PADS_BTM
100
AcDbTrace
 10
4597.999999999998
 20
8426.32
 30
0.0
 11
4597.999999999998
 21
8746.32
 31
0.0
 12
4297.999999999997
 22
8426.32
 32
0.0
 13
4297.999999999997
 23
8746.32
 33
0.0
  0
SOLID
  5
2B0A
330
A
100
AcDbEntity
  8
SOLDERMASK_PADS_BTM
100
AcDbTrace
 10
5097.999999999998
 20
8426.32
 30
0.0
 11
5097.999999999998
 21
8746.32
 31
0.0
 12
4797.999999999997
 22
8426.32
 32
0.0
 13
4797.999999999997
 23
8746.32
 33
0.0
  0
SOLID
  5
2B0B
330
A
100
AcDbEntity
  8
SOLDERMASK_PADS_BTM
100
AcDbTrace
 10
5680.009999999996
 20
5546.420000000001
 30
0.0
 11
5680.009999999996
 21
5846.420000000001
 31
0.0
 12
5360.009999999997
 22
5546.420000000001
 32
0.0
 13
5360.009999999997
 23
5846.420000000001
 33
0.0
  0
SOLID
  5
2B0C
330
A
100
AcDbEntity
  8
SOLDERMASK_PADS_BTM
100
AcDbTrace
 10
5680.009999999996
 20
6046.420000000001
 30
0.0
 11
5680.009999999996
 21
6346.420000000001
 31
0.0
 12
5360.009999999997
 22
6046.420000000001
 32
0.0
 13
5360.009999999997
 23
6346.420000000001
 33
0.0
  0
SOLID
  5
2B0D
330
A
100
AcDbEntity
  8
SOLDERMASK_PADS_BTM
100
AcDbTrace
 10
4597.999999999996
 20
2726.32
 30
0.0
 11
4597.999999999996
 21
3046.32
 31
0.0
 12
4297.999999999996
 22
2726.32
 32
0.0
 13
4297.999999999996
 23
3046.32
 33
0.0
  0
SOLID
  5
2B0E
330
A
100
AcDbEntity
  8
SOLDERMASK_PADS_BTM
100
AcDbTrace
 10
5097.999999999996
 20
2726.32
 30
0.0
 11
5097.999999999996
 21
3046.32
 31
0.0
 12
4797.999999999996
 22
2726.32
 32
0.0
 13
4797.999999999996
 23
3046.32
 33
0.0
  0
SOLID
  5
2B0F
330
A
100
AcDbEntity
  8
SOLDERMASK_PADS_BTM
100
AcDbTrace
 10
5680.009999999996
 20
-2013.54
 30
0.0
 11
5680.009999999996
 21
-1713.54
 31
0.0
 12
5360.009999999997
 22
-2013.54
 32
0.0
 13
5360.009999999997
 23
-1713.54
 33
0.0
  0
SOLID
  5
2B10
330
A
100
AcDbEntity
  8
SOLDERMASK_PADS_BTM
100
AcDbTrace
 10
5680.009999999996
 20
-2513.540000000001
 30
0.0
 11
5680.009999999996
 21
-2213.54
 31
0.0
 12
5360.009999999997
 22
-2513.540000000001
 32
0.0
 13
5360.009999999997
 23
-2213.54
 33
0.0
  0
SOLID
  5
2B11
330
A
100
AcDbEntity
  8
SOLDERMASK_PADS_BTM
100
AcDbTrace
 10
-4297.390000000002
 20
13356.42
 30
0.0
 11
-4297.390000000002
 21
13676.42
 31
0.0
 12
-4597.390000000003
 22
13356.42
 32
0.0
 13
-4597.390000000003
 23
13676.42
 33
0.0
  0
SOLID
  5
2B12
330
A
100
AcDbEntity
  8
SOLDERMASK_PADS_BTM
100
AcDbTrace
 10
-4797.390000000002
 20
13356.42
 30
0.0
 11
-4797.390000000002
 21
13676.42
 31
0.0
 12
-5097.390000000003
 22
13356.42
 32
0.0
 13
-5097.390000000003
 23
13676.42
 33
0.0
  0
SOLID
  5
2B13
330
A
100
AcDbEntity
  8
SOLDERMASK_PADS_BTM
100
AcDbTrace
 10
6250.009999999996
 20
-5663.540000000001
 30
0.0
 11
6250.009999999996
 21
-5363.54
 31
0.0
 12
5930.009999999996
 22
-5663.540000000001
 32
0.0
 13
5930.009999999996
 23
-5363.54
 33
0.0
  0
SOLID
  5
2B14
330
A
100
AcDbEntity
  8
SOLDERMASK_PADS_BTM
100
AcDbTrace
 10
6250.009999999996
 20
-5163.540000000001
 30
0.0
 11
6250.009999999996
 21
-4863.54
 31
0.0
 12
5930.009999999996
 22
-5163.540000000001
 32
0.0
 13
5930.009999999996
 23
-4863.54
 33
0.0
  0
SOLID
  5
2B15
330
A
100
AcDbEntity
  8
SOLDERMASK_PADS_BTM
100
AcDbTrace
 10
-4297.390000000002
 20
9936.42
 30
0.0
 11
-4297.390000000002
 21
10256.42
 31
0.0
 12
-4597.390000000003
 22
9936.42
 32
0.0
 13
-4597.390000000003
 23
10256.42
 33
0.0
  0
SOLID
  5
2B16
330
A
100
AcDbEntity
  8
SOLDERMASK_PADS_BTM
100
AcDbTrace
 10
-4797.390000000002
 20
9936.42
 30
0.0
 11
-4797.390000000002
 21
10256.42
 31
0.0
 12
-5097.390000000003
 22
9936.42
 32
0.0
 13
-5097.390000000003
 23
10256.42
 33
0.0
  0
SOLID
  5
2B17
330
A
100
AcDbEntity
  8
SOLDERMASK_PADS_BTM
100
AcDbTrace
 10
4597.999999999995
 20
-7853.539999999999
 30
0.0
 11
4597.999999999995
 21
-7533.540000000001
 31
0.0
 12
4297.999999999995
 22
-7853.539999999999
 32
0.0
 13
4297.999999999995
 23
-7533.540000000001
 33
0.0
  0
SOLID
  5
2B18
330
A
100
AcDbEntity
  8
SOLDERMASK_PADS_BTM
100
AcDbTrace
 10
5097.999999999995
 20
-7853.539999999999
 30
0.0
 11
5097.999999999995
 21
-7533.540000000001
 31
0.0
 12
4797.999999999995
 22
-7853.539999999999
 32
0.0
 13
4797.999999999995
 23
-7533.540000000001
 33
0.0
  0
SOLID
  5
2B19
330
A
100
AcDbEntity
  8
SOLDERMASK_PADS_BTM
100
AcDbTrace
 10
-4297.390000000004
 20
5946.42
 30
0.0
 11
-4297.390000000004
 21
6266.42
 31
0.0
 12
-4597.390000000004
 22
5946.42
 32
0.0
 13
-4597.390000000004
 23
6266.42
 33
0.0
  0
SOLID
  5
2B1A
330
A
100
AcDbEntity
  8
SOLDERMASK_PADS_BTM
100
AcDbTrace
 10
-4797.390000000004
 20
5946.42
 30
0.0
 11
-4797.390000000004
 21
6266.42
 31
0.0
 12
-5097.390000000004
 22
5946.42
 32
0.0
 13
-5097.390000000004
 23
6266.42
 33
0.0
  0
SOLID
  5
2B1B
330
A
100
AcDbEntity
  8
SOLDERMASK_PADS_BTM
100
AcDbTrace
 10
-4297.390000000004
 20
2526.420000000001
 30
0.0
 11
-4297.390000000004
 21
2846.420000000001
 31
0.0
 12
-4597.390000000004
 22
2526.420000000001
 32
0.0
 13
-4597.390000000004
 23
2846.420000000001
 33
0.0
  0
SOLID
  5
2B1C
330
A
100
AcDbEntity
  8
SOLDERMASK_PADS_BTM
100
AcDbTrace
 10
-4797.390000000004
 20
2526.420000000001
 30
0.0
 11
-4797.390000000004
 21
2846.420000000001
 31
0.0
 12
-5097.390000000004
 22
2526.420000000001
 32
0.0
 13
-5097.390000000004
 23
2846.420000000001
 33
0.0
  0
SOLID
  5
2B1D
330
A
100
AcDbEntity
  8
SOLDERMASK_PADS_BTM
100
AcDbTrace
 10
-5359.400000000004
 20
-4113.539999999999
 30
0.0
 11
-5359.400000000004
 21
-3813.54
 31
0.0
 12
-5679.400000000003
 22
-4113.539999999999
 32
0.0
 13
-5679.400000000003
 23
-3813.54
 33
0.0
  0
SOLID
  5
2B1E
330
A
100
AcDbEntity
  8
SOLDERMASK_PADS_BTM
100
AcDbTrace
 10
-5359.400000000004
 20
-4613.539999999999
 30
0.0
 11
-5359.400000000004
 21
-4313.539999999999
 31
0.0
 12
-5679.400000000003
 22
-4613.539999999999
 32
0.0
 13
-5679.400000000003
 23
-4313.539999999999
 33
0.0
  0
SOLID
  5
2B1F
330
A
100
AcDbEntity
  8
SOLDERMASK_PADS_BTM
100
AcDbTrace
 10
-4297.390000000005
 20
-7853.539999999999
 30
0.0
 11
-4297.390000000005
 21
-7533.540000000001
 31
0.0
 12
-4597.390000000005
 22
-7853.539999999999
 32
0.0
 13
-4597.390000000005
 23
-7533.540000000001
 33
0.0
  0
SOLID
  5
2B20
330
A
100
AcDbEntity
  8
SOLDERMASK_PADS_BTM
100
AcDbTrace
 10
-4797.390000000005
 20
-7853.539999999999
 30
0.0
 11
-4797.390000000005
 21
-7533.540000000001
 31
0.0
 12
-5097.390000000005
 22
-7853.539999999999
 32
0.0
 13
-5097.390000000005
 23
-7533.540000000001
 33
0.0
  0
SOLID
  5
2B21
330
A
100
AcDbEntity
  8
SOLDERMASK_PADS_BTM
100
AcDbTrace
 10
-6567.400000000002
 20
11996.42
 30
0.0
 11
-6567.400000000002
 21
12646.42
 31
0.0
 12
-6943.400000000003
 22
11996.42
 32
0.0
 13
-6943.400000000003
 23
12646.42
 33
0.0
  0
SOLID
  5
2B22
330
A
100
AcDbEntity
  8
SOLDERMASK_PADS_BTM
100
AcDbTrace
 10
-7543.400000000002
 20
11996.42
 30
0.0
 11
-7543.400000000002
 21
12646.42
 31
0.0
 12
-7919.400000000003
 22
11996.42
 32
0.0
 13
-7919.400000000003
 23
12646.42
 33
0.0
  0
SOLID
  5
2B23
330
A
100
AcDbEntity
  8
SOLDERMASK_PADS_BTM
100
AcDbTrace
 10
-6567.400000000002
 20
7496.42
 30
0.0
 11
-6567.400000000002
 21
8146.42
 31
0.0
 12
-6943.400000000003
 22
7496.42
 32
0.0
 13
-6943.400000000003
 23
8146.42
 33
0.0
  0
SOLID
  5
2B24
330
A
100
AcDbEntity
  8
SOLDERMASK_PADS_BTM
100
AcDbTrace
 10
-7543.400000000002
 20
7496.42
 30
0.0
 11
-7543.400000000002
 21
8146.42
 31
0.0
 12
-7919.400000000003
 22
7496.42
 32
0.0
 13
-7919.400000000003
 23
8146.42
 33
0.0
  0
SOLID
  5
2B25
330
A
100
AcDbEntity
  8
SOLDERMASK_PADS_BTM
100
AcDbTrace
 10
-5929.400000000004
 20
-9863.54
 30
0.0
 11
-5929.400000000004
 21
-9563.540000000001
 31
0.0
 12
-6249.400000000004
 22
-9863.54
 32
0.0
 13
-6249.400000000004
 23
-9563.540000000001
 33
0.0
  0
SOLID
  5
2B26
330
A
100
AcDbEntity
  8
SOLDERMASK_PADS_BTM
100
AcDbTrace
 10
-5929.400000000004
 20
-9363.54
 30
0.0
 11
-5929.400000000004
 21
-9063.540000000001
 31
0.0
 12
-6249.400000000004
 22
-9363.54
 32
0.0
 13
-6249.400000000004
 23
-9063.540000000001
 33
0.0
  0
SOLID
  5
2B27
330
A
100
AcDbEntity
  8
SOLDERMASK_PADS_BTM
100
AcDbTrace
 10
-5929.400000000003
 20
2396.42
 30
0.0
 11
-5929.400000000003
 21
2696.420000000001
 31
0.0
 12
-6249.400000000004
 22
2396.42
 32
0.0
 13
-6249.400000000004
 23
2696.420000000001
 33
0.0
  0
SOLID
  5
2B28
330
A
100
AcDbEntity
  8
SOLDERMASK_PADS_BTM
100
AcDbTrace
 10
-5929.400000000003
 20
2896.420000000001
 30
0.0
 11
-5929.400000000003
 21
3196.420000000001
 31
0.0
 12
-6249.400000000004
 22
2896.420000000001
 32
0.0
 13
-6249.400000000004
 23
3196.420000000001
 33
0.0
  0
SOLID
  5
2B29
330
A
100
AcDbEntity
  8
SOLDERMASK_PADS_BTM
100
AcDbTrace
 10
-6567.400000000003
 20
-5063.54
 30
0.0
 11
-6567.400000000003
 21
-4413.54
 31
0.0
 12
-6943.400000000004
 22
-5063.54
 32
0.0
 13
-6943.400000000004
 23
-4413.54
 33
0.0
  0
SOLID
  5
2B2A
330
A
100
AcDbEntity
  8
SOLDERMASK_PADS_BTM
100
AcDbTrace
 10
-7543.400000000004
 20
-5063.539999999999
 30
0.0
 11
-7543.400000000004
 21
-4413.539999999999
 31
0.0
 12
-7919.400000000003
 22
-5063.539999999999
 32
0.0
 13
-7919.400000000003
 23
-4413.539999999999
 33
0.0
  0
SOLID
  5
2B2B
330
A
100
AcDbEntity
  8
SOLDERMASK_PADS_BTM
100
AcDbTrace
 10
6944.009999999997
 20
5696.422
 30
0.0
 11
6944.009999999997
 21
6346.422
 31
0.0
 12
6568.009999999997
 22
5696.422
 32
0.0
 13
6568.009999999997
 23
6346.422
 33
0.0
  0
SOLID
  5
2B2C
330
A
100
AcDbEntity
  8
SOLDERMASK_PADS_BTM
100
AcDbTrace
 10
7920.009999999996
 20
5696.421999999999
 30
0.0
 11
7920.009999999996
 21
6346.421999999999
 31
0.0
 12
7544.009999999997
 22
5696.421999999999
 32
0.0
 13
7544.009999999997
 23
6346.421999999999
 33
0.0
  0
LWPOLYLINE
  5
2B2E
102
{ACAD_REACTORS
330
10995
330
10997
330
109A2
330
109A4
102
}
330
A
100
AcDbEntity
  8
PKG_OUTLINE
100
AcDbPolyline
 90
        8
 70
     1
 43
0.0
 10
28250.0
 20
-22238.506
 91
        3
 10
28250.0
 20
38750.0
 91
        4
 10
-28250.0
 20
38750.0
 91
        5
 10
-28250.00000000001
 20
-22238.506
 42
-0.830616
 10
-28250.00000000001
 20
-24381.494
 91
        1
 10
-28250.00000000001
 20
-38750.0
 91
        2
 10
28249.99999999999
 20
-38750.0
 91
        6
 10
28250.0
 20
-24381.494
 42
-0.830616
  0
INSERT
  5
1099B
102
{ACAD_REACTORS
330
1099D
102
}
330
A
100
AcDbEntity
  8
0
  6
CENTER2
100
AcDbBlockReference
  2
*U0
 10
-0.000000000003638
 20
-11655.0
 30
0.0
  0
INSERT
  5
109A8
102
{ACAD_REACTORS
330
109A9
102
}
330
A
100
AcDbEntity
  8
0
  6
CENTER2
100
AcDbBlockReference
  2
*U1
 10
-0.000000000003638
 20
0.0
 30
0.0
  0
ENDSEC
  0
SECTION
  2
OBJECTS
  0
DICTIONARY
  5
16
330
0
100
AcDbDictionary
281
     1
  3
ACAD_ASSOCNETWORK
350
10990
  3
ACAD_CIP_PREVIOUS_PRODUCT_INFO
350
1098C
  3
ACAD_COLOR
350
1096C
  3
ACAD_DETAILVIEWSTYLE
350
10986
  3
ACAD_GROUP
350
17
  3
ACAD_LAYOUT
350
1096D
  3
ACAD_MATERIAL
350
1093A
  3
ACAD_MLEADERSTYLE
350
10982
  3
ACAD_MLINESTYLE
350
18
  3
ACAD_PLOTSETTINGS
350
10988
  3
ACAD_PLOTSTYLENAME
350
10938
  3
ACAD_SCALELIST
350
10970
  3
ACAD_SECTIONVIEWSTYLE
350
10984
  3
ACAD_TABLESTYLE
350
1096E
  3
ACAD_VISUALSTYLE
350
10953
  3
ACDB_RECOMPOSE_DATA
350
109C8
  3
AcDbVariableDictionary
350
109BB
  3
ASE_INDEX_DICTIONARY
350
109B8
  0
DICTIONARY
  5
109AB
330
2B2F
100
AcDbDictionary
280
     1
281
     1
  3
ADSK_XREC_LAYER_RECONCILED
360
109AC
  0
DICTIONARY
  5
109AD
330
2B30
100
AcDbDictionary
280
     1
281
     1
  3
ADSK_XREC_LAYER_RECONCILED
360
109AE
  0
DICTIONARY
  5
109AF
330
2B31
100
AcDbDictionary
280
     1
281
     1
  3
ADSK_XREC_LAYER_RECONCILED
360
109B0
  0
DICTIONARY
  5
109B1
330
2B32
100
AcDbDictionary
280
     1
281
     1
  3
ADSK_XREC_LAYER_RECONCILED
360
109B2
  0
DICTIONARY
  5
109B3
330
2B33
100
AcDbDictionary
280
     1
281
     1
  3
ADSK_XREC_LAYER_RECONCILED
360
109B4
  0
DICTIONARY
  5
109B5
330
2B34
100
AcDbDictionary
280
     1
281
     1
  3
ADSK_XREC_LAYER_RECONCILED
360
109B6
  0
DICTIONARY
  5
1098D
330
A
100
AcDbDictionary
280
     1
281
     1
  3
ACAD_ASSOCNETWORK
360
1098E
  0
DICTIONARY
  5
10990
102
{ACAD_REACTORS
330
16
102
}
330
16
100
AcDbDictionary
281
     1
  3
ACAD_ASSOCNETWORK
350
10991
  0
XRECORD
  5
1098C
102
{ACAD_REACTORS
330
16
102
}
330
16
100
AcDbXrecord
280
     1
300
ACD
300
2021
300

  0
DICTIONARY
  5
1096C
102
{ACAD_REACTORS
330
16
102
}
330
16
100
AcDbDictionary
281
     1
  0
DICTIONARY
  5
10986
102
{ACAD_REACTORS
330
16
102
}
330
16
100
AcDbDictionary
281
     1
  3
Imperial24
350
10987
  0
DICTIONARY
  5
17
102
{ACAD_REACTORS
330
16
102
}
330
16
100
AcDbDictionary
281
     1
  0
DICTIONARY
  5
1096D
102
{ACAD_REACTORS
330
16
102
}
330
16
100
AcDbDictionary
281
     1
  3
Layout1
350
1098A
  3
Model
350
10989
  0
DICTIONARY
  5
1093A
102
{ACAD_REACTORS
330
16
102
}
330
16
100
AcDbDictionary
281
     1
  3
ByBlock
350
10943
  3
ByLayer
350
1093B
  3
Global
350
1094B
  0
DICTIONARY
  5
10982
102
{ACAD_REACTORS
330
16
102
}
330
16
100
AcDbDictionary
281
     1
  3
Standard
350
10983
  0
DICTIONARY
  5
18
102
{ACAD_REACTORS
330
16
102
}
330
16
100
AcDbDictionary
281
     1
  3
STANDARD
350
19
  0
DICTIONARY
  5
10988
102
{ACAD_REACTORS
330
16
102
}
330
16
100
AcDbDictionary
281
     1
  0
ACDBDICTIONARYWDFLT
  5
10938
102
{ACAD_REACTORS
330
16
102
}
330
16
100
AcDbDictionary
281
     1
  3
Normal
350
10939
100
AcDbDictionaryWithDefault
340
10939
  0
DICTIONARY
  5
10970
102
{ACAD_REACTORS
330
16
102
}
330
16
100
AcDbDictionary
281
     1
  3
A0
350
10971
  3
A1
350
10972
  3
A2
350
10973
  3
A3
350
10974
  3
A4
350
10975
  3
A5
350
10976
  3
A6
350
10977
  3
A7
350
10978
  3
A8
350
10979
  3
A9
350
1097A
  3
B0
350
1097B
  3
B1
350
1097C
  3
B2
350
1097D
  3
B3
350
1097E
  3
B4
350
1097F
  3
B5
350
10980
  3
B6
350
10981
  0
DICTIONARY
  5
10984
102
{ACAD_REACTORS
330
16
102
}
330
16
100
AcDbDictionary
281
     1
  3
Imperial24
350
10985
  0
DICTIONARY
  5
1096E
102
{ACAD_REACTORS
330
16
102
}
330
16
100
AcDbDictionary
281
     1
  3
Standard
350
1096F
  0
DICTIONARY
  5
10953
102
{ACAD_REACTORS
330
16
102
}
330
16
100
AcDbDictionary
281
     1
  3
2dWireframe
350
10959
  3
Basic
350
10958
  3
Brighten
350
1095F
  3
ColorChange
350
10963
  3
Conceptual
350
1095C
  3
Dim
350
1095E
  3
EdgeColorOff
350
1096B
  3
Facepattern
350
10962
  3
Flat
350
10954
  3
FlatWithEdges
350
10955
  3
Gouraud
350
10956
  3
GouraudWithEdges
350
10957
  3
Hidden
350
1095B
  3
JitterOff
350
10969
  3
Linepattern
350
10961
  3
OverhangOff
350
1096A
  3
Realistic
350
1095D
  3
Shaded
350
10968
  3
Shaded with edges
350
10967
  3
Shades of Gray
350
10964
  3
Sketchy
350
10965
  3
Thicken
350
10960
  3
Wireframe
350
1095A
  3
X-Ray
350
10966
  0
XRECORD
  5
109C8
102
{ACAD_REACTORS
330
16
102
}
330
16
100
AcDbXrecord
280
     1
 90
        1
330
1096F
  0
DICTIONARY
  5
109BB
102
{ACAD_REACTORS
330
16
102
}
330
16
100
AcDbDictionary
281
     1
  3
CANNOSCALE
350
109C1
  3
CMLEADERSTYLE
350
109BD
  3
CTABLESTYLE
350
109BC
  3
CVIEWDETAILSTYLE
350
109BE
  3
CVIEWSECTIONSTYLE
350
109BF
  3
LAYEREVAL
350
109C3
  3
LAYERNOTIFY
350
109C4
  3
LIGHTINGUNITS
350
109C2
  3
MSLTSCALE
350
109C0
  0
DICTIONARY
  5
109B8
102
{ACAD_REACTORS
330
16
102
}
330
16
100
AcDbDictionary
281
     1
  3
ASEBlockHierarchyIndexRecord
350
109BA
1001
DCO15
1040
2084528392.0
  0
XRECORD
  5
109AC
102
{ACAD_REACTORS
330
109AB
102
}
330
109AB
100
AcDbXrecord
280
     1
290
     1
  0
XRECORD
  5
109AE
102
{ACAD_REACTORS
330
109AD
102
}
330
109AD
100
AcDbXrecord
280
     1
290
     1
  0
XRECORD
  5
109B0
102
{ACAD_REACTORS
330
109AF
102
}
330
109AF
100
AcDbXrecord
280
     1
290
     1
  0
XRECORD
  5
109B2
102
{ACAD_REACTORS
330
109B1
102
}
330
109B1
100
AcDbXrecord
280
     1
290
     1
  0
XRECORD
  5
109B4
102
{ACAD_REACTORS
330
109B3
102
}
330
109B3
100
AcDbXrecord
280
     1
290
     1
  0
XRECORD
  5
109B6
102
{ACAD_REACTORS
330
109B5
102
}
330
109B5
100
AcDbXrecord
280
     1
290
     1
  0
DICTIONARY
  5
1098E
102
{ACAD_REACTORS
330
1098D
102
}
330
1098D
100
AcDbDictionary
281
     1
  3
ACAD_ASSOCNETWORK
350
1098F
  0
ACDBASSOCNETWORK
  5
10991
102
{ACAD_REACTORS
330
10990
102
}
330
10990
100
AcDbAssocAction
 90
        2
 90
        0
330
0
360
0
 90
        0
 90
        0
 90
        0
 90
        0
 90
        0
 90
        0
 90
        0
100
AcDbAssocNetwork
 90
        0
 90
        1
 90
        1
330
1098F
 90
        0
  0
ACDBDETAILVIEWSTYLE
  5
10987
102
{ACAD_REACTORS
330
10986
102
}
330
10986
100
AcDbModelDocViewStyle
 70
     0
  3
Imperial24
290
     0
300
Imperial24
 90
        0
100
AcDbDetailViewStyle
 70
     0
 71
     0
 90
        3
 71
     1
340
2B35
 62
   256
 40
0.24
340
0
 62
   256
 40
0.24
300

 40
0.36
280
     3
 71
     2
340
12
 90
       25
 62
   256
 71
     3
340
2B35
 62
   256
 40
0.24
 90
        1
 40
0.75
 90
        1
300
%<\AcVar ViewType \f "%tc1">% %<\AcVar ViewDetailId>%\PSCALE %<\AcVar ViewScale \f "%sn">%
 71
     4
340
12
 90
       25
 62
   256
340
12
 90
       25
 62
   256
280
     0
  0
LAYOUT
  5
1098A
102
{ACAD_REACTORS
330
1096D
102
}
330
1096D
100
AcDbPlotSettings
  1

  2
Intel Cloud Print
  4

  6

 40
0.0
 41
0.0
 42
0.0
 43
0.0
 44
0.0
 45
0.0
 46
0.0
 47
0.0
 48
0.0
 49
0.0
140
0.0
141
0.0
142
1.0
143
1.0
 70
   688
 72
     0
 73
     0
 74
     5
  7

 75
    16
147
1.0
 76
     0
 77
     2
 78
   300
148
0.0
149
0.0
100
AcDbLayout
  1
Layout1
 70
     0
 71
     1
 10
0.0
 20
0.0
 11
12.0
 21
9.0
 12
0.0
 22
0.0
 32
0.0
 14
1.000000000000000E+20
 24
1.000000000000000E+20
 34
1.000000000000000E+20
 15
-1.000000000000000E+20
 25
-1.000000000000000E+20
 35
-1.000000000000000E+20
146
0.0
 13
0.0
 23
0.0
 33
0.0
 16
1.0
 26
0.0
 36
0.0
 17
0.0
 27
1.0
 37
0.0
 76
     0
330
B
  0
LAYOUT
  5
10989
102
{ACAD_REACTORS
330
1096D
102
}
330
1096D
100
AcDbPlotSettings
  1

  2
Intel Cloud Print
  4

  6

 40
0.0
 41
0.0
 42
0.0
 43
0.0
 44
0.0
 45
0.0
 46
0.0
 47
0.0
 48
0.0
 49
0.0
140
0.0
141
0.0
142
1.0
143
1.0
 70
  1712
 72
     0
 73
     0
 74
     0
  7

 75
     0
147
1.0
 76
     0
 77
     2
 78
   300
148
0.0
149
0.0
100
AcDbLayout
  1
Model
 70
     1
 71
     0
 10
0.0
 20
0.0
 11
12.0
 21
9.0
 12
0.0
 22
0.0
 32
0.0
 14
0.0
 24
0.0
 34
0.0
 15
0.0
 25
0.0
 35
0.0
146
0.0
 13
0.0
 23
0.0
 33
0.0
 16
1.0
 26
0.0
 36
0.0
 17
0.0
 27
1.0
 37
0.0
 76
     0
330
A
331
13
  0
MATERIAL
  5
10943
102
{ACAD_XDICTIONARY
360
10944
102
}
102
{ACAD_REACTORS
330
1093A
102
}
330
1093A
100
AcDbMaterial
  1
ByBlock
 72
     0
 43
0.0208333333333333
 43
0.0
 43
0.0
 43
0.0
 43
0.0
 43
0.0208333333333333
 43
0.0
 43
0.0
 43
0.0
 43
0.0
 43
1.0
 43
0.0
 43
0.0
 43
0.0
 43
0.0
 43
1.0
 77
     0
 47
0.0208333333333333
 47
0.0
 47
0.0
 47
0.0
 47
0.0
 47
0.0208333333333333
 47
0.0
 47
0.0
 47
0.0
 47
0.0
 47
1.0
 47
0.0
 47
0.0
 47
0.0
 47
0.0
 47
1.0
171
     0
 49
0.0208333333333333
 49
0.0
 49
0.0
 49
0.0
 49
0.0
 49
0.0208333333333333
 49
0.0
 49
0.0
 49
0.0
 49
0.0
 49
1.0
 49
0.0
 49
0.0
 49
0.0
 49
0.0
 49
1.0
175
     0
142
0.0208333333333333
142
0.0
142
0.0
142
0.0
142
0.0
142
0.0208333333333333
142
0.0
142
0.0
142
0.0
142
0.0
142
1.0
142
0.0
142
0.0
142
0.0
142
0.0
142
1.0
179
     0
144
0.0208333333333333
144
0.0
144
0.0
144
0.0
144
0.0
144
0.0208333333333333
144
0.0
144
0.0
144
0.0
144
0.0
144
1.0
144
0.0
144
0.0
144
0.0
144
0.0
144
1.0
147
0.0208333333333333
147
0.0
147
0.0
147
0.0
147
0.0
147
0.0208333333333333
147
0.0
147
0.0
147
0.0
147
0.0
147
1.0
147
0.0
147
0.0
147
0.0
147
0.0
147
1.0
  0
MATERIAL
  5
1093B
102
{ACAD_XDICTIONARY
360
1093C
102
}
102
{ACAD_REACTORS
330
1093A
102
}
330
1093A
100
AcDbMaterial
  1
ByLayer
 72
     0
 43
0.0208333333333333
 43
0.0
 43
0.0
 43
0.0
 43
0.0
 43
0.0208333333333333
 43
0.0
 43
0.0
 43
0.0
 43
0.0
 43
1.0
 43
0.0
 43
0.0
 43
0.0
 43
0.0
 43
1.0
 77
     0
 47
0.0208333333333333
 47
0.0
 47
0.0
 47
0.0
 47
0.0
 47
0.0208333333333333
 47
0.0
 47
0.0
 47
0.0
 47
0.0
 47
1.0
 47
0.0
 47
0.0
 47
0.0
 47
0.0
 47
1.0
171
     0
 49
0.0208333333333333
 49
0.0
 49
0.0
 49
0.0
 49
0.0
 49
0.0208333333333333
 49
0.0
 49
0.0
 49
0.0
 49
0.0
 49
1.0
 49
0.0
 49
0.0
 49
0.0
 49
0.0
 49
1.0
175
     0
142
0.0208333333333333
142
0.0
142
0.0
142
0.0
142
0.0
142
0.0208333333333333
142
0.0
142
0.0
142
0.0
142
0.0
142
1.0
142
0.0
142
0.0
142
0.0
142
0.0
142
1.0
179
     0
144
0.0208333333333333
144
0.0
144
0.0
144
0.0
144
0.0
144
0.0208333333333333
144
0.0
144
0.0
144
0.0
144
0.0
144
1.0
144
0.0
144
0.0
144
0.0
144
0.0
144
1.0
147
0.0208333333333333
147
0.0
147
0.0
147
0.0
147
0.0
147
0.0208333333333333
147
0.0
147
0.0
147
0.0
147
0.0
147
1.0
147
0.0
147
0.0
147
0.0
147
0.0
147
1.0
  0
MATERIAL
  5
1094B
102
{ACAD_XDICTIONARY
360
1094C
102
}
102
{ACAD_REACTORS
330
1093A
102
}
330
1093A
100
AcDbMaterial
  1
Global
 72
     0
 43
0.0208333333333333
 43
0.0
 43
0.0
 43
0.0
 43
0.0
 43
0.0208333333333333
 43
0.0
 43
0.0
 43
0.0
 43
0.0
 43
1.0
 43
0.0
 43
0.0
 43
0.0
 43
0.0
 43
1.0
 77
     0
 47
0.0208333333333333
 47
0.0
 47
0.0
 47
0.0
 47
0.0
 47
0.0208333333333333
 47
0.0
 47
0.0
 47
0.0
 47
0.0
 47
1.0
 47
0.0
 47
0.0
 47
0.0
 47
0.0
 47
1.0
171
     0
 49
0.0208333333333333
 49
0.0
 49
0.0
 49
0.0
 49
0.0
 49
0.0208333333333333
 49
0.0
 49
0.0
 49
0.0
 49
0.0
 49
1.0
 49
0.0
 49
0.0
 49
0.0
 49
0.0
 49
1.0
175
     0
142
0.0208333333333333
142
0.0
142
0.0
142
0.0
142
0.0
142
0.0208333333333333
142
0.0
142
0.0
142
0.0
142
0.0
142
1.0
142
0.0
142
0.0
142
0.0
142
0.0
142
1.0
179
     0
144
0.0208333333333333
144
0.0
144
0.0
144
0.0
144
0.0
144
0.0208333333333333
144
0.0
144
0.0
144
0.0
144
0.0
144
1.0
144
0.0
144
0.0
144
0.0
144
0.0
144
1.0
147
0.0208333333333333
147
0.0
147
0.0
147
0.0
147
0.0
147
0.0208333333333333
147
0.0
147
0.0
147
0.0
147
0.0
147
1.0
147
0.0
147
0.0
147
0.0
147
0.0
147
1.0
  0
MLEADERSTYLE
  5
10983
102
{ACAD_REACTORS
330
10982
102
}
330
10982
100
AcDbMLeaderStyle
179
     2
170
     2
171
     1
172
     0
 90
        2
 40
0.0
 41
0.0
173
     1
 91
-1056964608
340
10
 92
       -2
290
     1
 42
0.09
291
     1
 43
0.36
  3
Standard
 44
0.18
300

342
2B35
174
     1
178
     6
175
     1
176
     0
 93
-1056964608
 45
0.18
292
     0
297
     0
 46
0.18
 94
-1056964608
 47
1.0
 49
1.0
140
1.0
293
     1
141
0.0
294
     1
177
     0
142
1.0
295
     0
296
     0
143
0.125
271
     0
272
     9
273
     9
298
     0
  0
MLINESTYLE
  5
19
102
{ACAD_REACTORS
330
18
102
}
330
18
100
AcDbMlineStyle
  2
STANDARD
 70
     0
  3

 62
     0
 51
90.0
 52
90.0
 71
     2
 49
0.5
 62
   256
  6
BYLAYER
 49
-0.5
 62
   256
  6
BYLAYER
  0
ACDBPLACEHOLDER
  5
10939
102
{ACAD_REACTORS
330
10938
102
}
330
10938
  0
SCALE
  5
10971
102
{ACAD_REACTORS
330
10970
102
}
330
10970
100
AcDbScale
 70
     0
300
1:1
140
1.0
141
1.0
290
     1
  0
SCALE
  5
10972
102
{ACAD_REACTORS
330
10970
102
}
330
10970
100
AcDbScale
 70
     0
300
1/128" = 1'-0"
140
0.0078125
141
12.0
290
     0
  0
SCALE
  5
10973
102
{ACAD_REACTORS
330
10970
102
}
330
10970
100
AcDbScale
 70
     0
300
1/64" = 1'-0"
140
0.015625
141
12.0
290
     0
  0
SCALE
  5
10974
102
{ACAD_REACTORS
330
10970
102
}
330
10970
100
AcDbScale
 70
     0
300
1/32" = 1'-0"
140
0.03125
141
12.0
290
     0
  0
SCALE
  5
10975
102
{ACAD_REACTORS
330
10970
102
}
330
10970
100
AcDbScale
 70
     0
300
1/16" = 1'-0"
140
0.0625
141
12.0
290
     0
  0
SCALE
  5
10976
102
{ACAD_REACTORS
330
10970
102
}
330
10970
100
AcDbScale
 70
     0
300
3/32" = 1'-0"
140
0.09375
141
12.0
290
     0
  0
SCALE
  5
10977
102
{ACAD_REACTORS
330
10970
102
}
330
10970
100
AcDbScale
 70
     0
300
1/8" = 1'-0"
140
0.125
141
12.0
290
     0
  0
SCALE
  5
10978
102
{ACAD_REACTORS
330
10970
102
}
330
10970
100
AcDbScale
 70
     0
300
3/16" = 1'-0"
140
0.1875
141
12.0
290
     0
  0
SCALE
  5
10979
102
{ACAD_REACTORS
330
10970
102
}
330
10970
100
AcDbScale
 70
     0
300
1/4" = 1'-0"
140
0.25
141
12.0
290
     0
  0
SCALE
  5
1097A
102
{ACAD_REACTORS
330
10970
102
}
330
10970
100
AcDbScale
 70
     0
300
3/8" = 1'-0"
140
0.375
141
12.0
290
     0
  0
SCALE
  5
1097B
102
{ACAD_REACTORS
330
10970
102
}
330
10970
100
AcDbScale
 70
     0
300
1/2" = 1'-0"
140
0.5
141
12.0
290
     0
  0
SCALE
  5
1097C
102
{ACAD_REACTORS
330
10970
102
}
330
10970
100
AcDbScale
 70
     0
300
3/4" = 1'-0"
140
0.75
141
12.0
290
     0
  0
SCALE
  5
1097D
102
{ACAD_REACTORS
330
10970
102
}
330
10970
100
AcDbScale
 70
     0
300
1" = 1'-0"
140
1.0
141
12.0
290
     0
  0
SCALE
  5
1097E
102
{ACAD_REACTORS
330
10970
102
}
330
10970
100
AcDbScale
 70
     0
300
1-1/2" = 1'-0"
140
1.5
141
12.0
290
     0
  0
SCALE
  5
1097F
102
{ACAD_REACTORS
330
10970
102
}
330
10970
100
AcDbScale
 70
     0
300
3" = 1'-0"
140
3.0
141
12.0
290
     0
  0
SCALE
  5
10980
102
{ACAD_REACTORS
330
10970
102
}
330
10970
100
AcDbScale
 70
     0
300
6" = 1'-0"
140
6.0
141
12.0
290
     0
  0
SCALE
  5
10981
102
{ACAD_REACTORS
330
10970
102
}
330
10970
100
AcDbScale
 70
     0
300
1'-0" = 1'-0"
140
12.0
141
12.0
290
     0
  0
ACDBSECTIONVIEWSTYLE
  5
10985
102
{ACAD_REACTORS
330
10984
102
}
330
10984
100
AcDbModelDocViewStyle
 70
     0
  3
Imperial24
290
     0
300
Imperial24
 90
        0
100
AcDbSectionViewStyle
 70
     0
 71
     0
 90
       78
 71
     1
340
2B35
 62
   256
 40
0.24
340
0
340
0
 62
   256
 40
0.24
300
I, O, Q, S, X, Z
 40
0.48
 90
        3
 40
0.18
 90
        1
 71
     2
340
12
 90
       25
 62
   256
340
12
 90
       50
 62
   256
 40
0.24
 40
0.0
 40
0.24
 71
     3
340
2B35
 62
   256
 40
0.24
 90
        1
 40
0.75
 90
        1
300
%<\AcVar ViewType \f "%tc1">% %<\AcVar ViewSectionStartId>%-%<\AcVar ViewSectionEndId>%\PSCALE %<\AcVar ViewScale \f "%sn">%
 71
     4
 62
   256
 62
   257
300
ANSI31
 40
1.0
 90
        0
290
     0
290
     0
 90
        6
 40
0.0
 40
1.570796326794896
 40
0.2617993877991494
 40
1.308996938995747
 40
-0.2617993877991494
 40
1.832595714594046
  0
TABLESTYLE
  5
1096F
102
{ACAD_XDICTIONARY
360
109C6
102
}
102
{ACAD_REACTORS
330
1096E
102
}
330
1096E
100
AcDbTableStyle
280
     0
  3
Standard
 70
     0
 71
     0
 40
0.06
 41
0.06
280
     0
281
     0
  7
STANDARD
140
0.18
170
     2
 62
     0
 63
     7
283
     0
 90
      512
 91
        0
  1

274
    -2
284
     1
 64
     0
275
    -2
285
     1
 65
     0
276
    -2
286
     1
 66
     0
277
    -2
287
     1
 67
     0
278
    -2
288
     1
 68
     0
279
    -2
289
     1
 69
     0
  7
STANDARD
140
0.25
170
     5
 62
     0
 63
     7
283
     0
 90
      512
 91
        0
  1

274
    -2
284
     1
 64
     0
275
    -2
285
     1
 65
     0
276
    -2
286
     1
 66
     0
277
    -2
287
     1
 67
     0
278
    -2
288
     1
 68
     0
279
    -2
289
     1
 69
     0
  7
STANDARD
140
0.18
170
     5
 62
     0
 63
     7
283
     0
 90
      512
 91
        0
  1

274
    -2
284
     1
 64
     0
275
    -2
285
     1
 65
     0
276
    -2
286
     1
 66
     0
277
    -2
287
     1
 67
     0
278
    -2
288
     1
 68
     0
279
    -2
289
     1
 69
     0
  0
VISUALSTYLE
  5
10959
102
{ACAD_REACTORS
330
10953
102
}
330
10953
100
AcDbVisualStyle
  2
2dWireframe
 70
     4
177
     3
291
     0
 70
    58
 90
        0
176
     1
 90
        2
176
     1
 90
        0
176
     1
 90
        0
176
     1
 40
0.6
176
     1
 40
30.0
176
     1
 62
     7
420
 16777215
176
     1
 90
        1
176
     1
 90
        4
176
     1
 62
     7
176
     1
 62
   257
176
     1
 90
        1
176
     1
 90
        1
176
     1
 40
1.0
176
     1
 90
        0
176
     1
 62
   257
176
     1
 40
1.0
176
     1
 90
        1
176
     1
 90
        6
176
     1
 90
        2
176
     1
 62
     7
176
     1
 90
        5
176
     1
 90
        0
176
     1
 90
        0
176
     1
290
     0
176
     1
 90
        1
176
     1
 40
0.0
176
     1
 90
        0
176
     1
290
     1
176
     1
290
     1
176
     1
290
     0
176
     1
290
     0
176
     1
290
     0
176
     1
290
     0
176
     1
290
     0
176
     1
290
     0
176
     1
290
     0
176
     1
 90
       50
176
     1
 40
0.0
176
     1
 40
1.0
176
     1
 90
        0
176
     1
 62
    18
420
        0
176
     1
 90
       50
176
     1
 90
        3
176
     1
 62
     5
420
      255
176
     1
290
     0
176
     1
 90
       50
176
     1
 90
       50
176
     1
 90
       50
176
     1
290
     0
176
     1
 90
       50
176
     1
 62
   256
176
     0
 40
1.0
176
     0
 90
        2
176
     1
  1
strokes_ogs.tif
176
     1
290
     0
176
     1
 40
1.0
176
     1
 40
1.0
176
     1
  0
VISUALSTYLE
  5
10958
102
{ACAD_REACTORS
330
10953
102
}
330
10953
100
AcDbVisualStyle
  2
Basic
 70
     7
177
     3
291
     1
 70
    58
 90
        1
176
     1
 90
        0
176
     1
 90
        1
176
     1
 90
        0
176
     1
 40
0.6
176
     1
 40
30.0
176
     1
 62
     7
420
 16777215
176
     1
 90
        0
176
     1
 90
        4
176
     1
 62
     7
176
     1
 62
   257
176
     1
 90
        1
176
     1
 90
        1
176
     1
 40
1.0
176
     1
 90
        8
176
     1
 62
     7
176
     1
 40
1.0
176
     1
 90
        1
176
     1
 90
        6
176
     1
 90
        2
176
     1
 62
     7
176
     1
 90
        5
176
     1
 90
        0
176
     1
 90
        0
176
     1
290
     0
176
     1
 90
        1
176
     1
 40
0.0
176
     1
 90
        0
176
     1
290
     0
176
     1
290
     1
176
     1
290
     1
176
     1
290
     0
176
     1
290
     0
176
     1
290
     0
176
     1
290
     0
176
     1
290
     0
176
     1
290
     0
176
     1
 90
       50
176
     1
 40
0.0
176
     1
 40
1.0
176
     1
 90
        0
176
     1
 62
    18
420
        0
176
     1
 90
       50
176
     1
 90
        3
176
     1
 62
     5
420
      255
176
     1
290
     0
176
     1
 90
       50
176
     1
 90
       50
176
     1
 90
       50
176
     1
290
     0
176
     1
 90
       50
176
     1
 62
   256
176
     0
 40
1.0
176
     0
 90
        2
176
     1
  1
strokes_ogs.tif
176
     1
290
     0
176
     1
 40
1.0
176
     1
 40
1.0
176
     1
  0
VISUALSTYLE
  5
1095F
102
{ACAD_REACTORS
330
10953
102
}
330
10953
100
AcDbVisualStyle
  2
Brighten
 70
    12
177
     3
291
     1
 70
    58
 90
        2
176
     1
 90
        2
176
     1
 90
        0
176
     1
 90
        0
176
     1
 40
0.6
176
     1
 40
30.0
176
     1
 62
     7
420
 16777215
176
     1
 90
        1
176
     1
 90
        4
176
     1
 62
     7
176
     1
 62
   257
176
     1
 90
        1
176
     1
 90
        1
176
     1
 40
1.0
176
     1
 90
        8
176
     1
 62
     7
176
     1
 40
1.0
176
     1
 90
        1
176
     1
 90
        6
176
     1
 90
        2
176
     1
 62
     7
176
     1
 90
        5
176
     1
 90
        0
176
     1
 90
        0
176
     1
290
     0
176
     1
 90
        1
176
     1
 40
50.0
176
     1
 90
        0
176
     1
290
     0
176
     1
290
     1
176
     1
290
     1
176
     1
290
     0
176
     1
290
     0
176
     1
290
     0
176
     1
290
     0
176
     1
290
     0
176
     1
290
     0
176
     1
 90
       50
176
     1
 40
0.0
176
     1
 40
1.0
176
     1
 90
        0
176
     1
 62
    18
420
        0
176
     1
 90
       50
176
     1
 90
        3
176
     1
 62
     5
420
      255
176
     1
290
     0
176
     1
 90
       50
176
     1
 90
       50
176
     1
 90
       50
176
     1
290
     0
176
     1
 90
       50
176
     1
 62
   256
176
     0
 40
1.0
176
     0
 90
        2
176
     1
  1
strokes_ogs.tif
176
     1
290
     0
176
     1
 40
1.0
176
     1
 40
1.0
176
     1
  0
VISUALSTYLE
  5
10963
102
{ACAD_REACTORS
330
10953
102
}
330
10953
100
AcDbVisualStyle
  2
ColorChange
 70
    16
177
     3
291
     1
 70
    58
 90
        2
176
     1
 90
        2
176
     1
 90
        3
176
     1
 90
        0
176
     1
 40
0.6
176
     1
 40
30.0
176
     1
 62
     8
420
  8421504
176
     1
 90
        1
176
     1
 90
        4
176
     1
 62
     7
176
     1
 62
   257
176
     1
 90
        1
176
     1
 90
        1
176
     1
 40
1.0
176
     1
 90
        8
176
     1
 62
     8
420
  8421504
176
     1
 40
1.0
176
     1
 90
        1
176
     1
 90
        6
176
     1
 90
        2
176
     1
 62
     7
176
     1
 90
        5
176
     1
 90
        0
176
     1
 90
        0
176
     1
290
     0
176
     1
 90
        1
176
     1
 40
0.0
176
     1
 90
        0
176
     1
290
     0
176
     1
290
     1
176
     1
290
     1
176
     1
290
     0
176
     1
290
     0
176
     1
290
     0
176
     1
290
     0
176
     1
290
     0
176
     1
290
     0
176
     1
 90
       50
176
     1
 40
0.0
176
     1
 40
1.0
176
     1
 90
        0
176
     1
 62
    18
420
        0
176
     1
 90
       50
176
     1
 90
        3
176
     1
 62
     5
420
      255
176
     1
290
     0
176
     1
 90
       50
176
     1
 90
       50
176
     1
 90
       50
176
     1
290
     0
176
     1
 90
       50
176
     1
 62
   256
176
     0
 40
1.0
176
     0
 90
        2
176
     1
  1
strokes_ogs.tif
176
     1
290
     0
176
     1
 40
1.0
176
     1
 40
1.0
176
     1
  0
VISUALSTYLE
  5
1095C
102
{ACAD_REACTORS
330
10953
102
}
330
10953
100
AcDbVisualStyle
  2
Conceptual
 70
     9
177
     3
291
     0
 70
    58
 90
        3
176
     1
 90
        2
176
     1
 90
        0
176
     1
 90
        0
176
     1
 40
0.6
176
     1
 40
30.0
176
     1
 62
     7
420
 16777215
176
     1
 90
        2
176
     1
 90
        2
176
     1
 62
     7
176
     1
 62
   257
176
     1
 90
        1
176
     1
 90
        1
176
     1
 40
179.0
176
     1
 90
        8
176
     1
 62
     7
176
     1
 40
1.0
176
     1
 90
        1
176
     1
 90
        6
176
     1
 90
        2
176
     1
 62
     7
176
     1
 90
        3
176
     1
 90
        0
176
     1
 90
        0
176
     1
290
     0
176
     1
 90
        1
176
     1
 40
0.0
176
     1
 90
        0
176
     1
290
     0
176
     1
290
     1
176
     1
290
     1
176
     1
290
     0
176
     1
290
     0
176
     1
290
     0
176
     1
290
     0
176
     1
290
     0
176
     1
290
     0
176
     1
 90
       50
176
     1
 40
0.0
176
     1
 40
1.0
176
     1
 90
        0
176
     1
 62
    18
420
        0
176
     1
 90
       50
176
     1
 90
        3
176
     1
 62
     5
420
      255
176
     1
290
     0
176
     1
 90
       50
176
     1
 90
       50
176
     1
 90
       50
176
     1
290
     0
176
     1
 90
       50
176
     1
 62
   256
176
     0
 40
1.0
176
     0
 90
        2
176
     1
  1
strokes_ogs.tif
176
     1
290
     0
176
     1
 40
1.0
176
     1
 40
1.0
176
     1
  0
VISUALSTYLE
  5
1095E
102
{ACAD_REACTORS
330
10953
102
}
330
10953
100
AcDbVisualStyle
  2
Dim
 70
    11
177
     3
291
     1
 70
    58
 90
        2
176
     1
 90
        2
176
     1
 90
        0
176
     1
 90
        0
176
     1
 40
0.6
176
     1
 40
30.0
176
     1
 62
     7
420
 16777215
176
     1
 90
        1
176
     1
 90
        4
176
     1
 62
     7
176
     1
 62
   257
176
     1
 90
        1
176
     1
 90
        1
176
     1
 40
1.0
176
     1
 90
        8
176
     1
 62
     7
176
     1
 40
1.0
176
     1
 90
        1
176
     1
 90
        6
176
     1
 90
        2
176
     1
 62
     7
176
     1
 90
        5
176
     1
 90
        0
176
     1
 90
        0
176
     1
290
     0
176
     1
 90
        1
176
     1
 40
-50.0
176
     1
 90
        0
176
     1
290
     0
176
     1
290
     1
176
     1
290
     1
176
     1
290
     0
176
     1
290
     0
176
     1
290
     0
176
     1
290
     0
176
     1
290
     0
176
     1
290
     0
176
     1
 90
       50
176
     1
 40
0.0
176
     1
 40
1.0
176
     1
 90
        0
176
     1
 62
    18
420
        0
176
     1
 90
       50
176
     1
 90
        3
176
     1
 62
     5
420
      255
176
     1
290
     0
176
     1
 90
       50
176
     1
 90
       50
176
     1
 90
       50
176
     1
290
     0
176
     1
 90
       50
176
     1
 62
   256
176
     0
 40
1.0
176
     0
 90
        2
176
     1
  1
strokes_ogs.tif
176
     1
290
     0
176
     1
 40
1.0
176
     1
 40
1.0
176
     1
  0
VISUALSTYLE
  5
1096B
102
{ACAD_REACTORS
330
10953
102
}
330
10953
100
AcDbVisualStyle
  2
EdgeColorOff
 70
    22
177
     3
291
     1
 70
    58
 90
        2
176
     0
 90
        2
176
     0
 90
        0
176
     0
 90
        0
176
     0
 40
0.6
176
     0
 40
30.0
176
     0
 62
     7
420
 16777215
176
     0
 90
        1
176
     0
 90
        4
176
     0
 62
     7
176
     0
 62
   257
176
     0
 90
        1
176
     0
 90
        1
176
     0
 40
1.0
176
     0
 90
        8
176
     2
 62
     7
176
     0
 40
1.0
176
     0
 90
        1
176
     0
 90
        6
176
     0
 90
        2
176
     0
 62
     7
176
     0
 90
        5
176
     0
 90
        0
176
     0
 90
        0
176
     0
290
     0
176
     0
 90
        1
176
     0
 40
0.0
176
     0
 90
        0
176
     0
290
     0
176
     1
290
     1
176
     1
290
     1
176
     1
290
     0
176
     1
290
     0
176
     1
290
     0
176
     1
290
     0
176
     1
290
     0
176
     1
290
     0
176
     1
 90
       50
176
     0
 40
0.0
176
     0
 40
1.0
176
     0
 90
        0
176
     0
 62
    18
420
        0
176
     0
 90
       50
176
     0
 90
        3
176
     0
 62
     5
420
      255
176
     0
290
     0
176
     1
 90
       50
176
     0
 90
       50
176
     0
 90
       50
176
     0
290
     0
176
     1
 90
       50
176
     0
 62
   256
176
     0
 40
1.0
176
     0
 90
        2
176
     0
  1
strokes_ogs.tif
176
     0
290
     0
176
     1
 40
1.0
176
     0
 40
1.0
176
     0
  0
VISUALSTYLE
  5
10962
102
{ACAD_REACTORS
330
10953
102
}
330
10953
100
AcDbVisualStyle
  2
Facepattern
 70
    15
177
     3
291
     1
 70
    58
 90
        2
176
     1
 90
        2
176
     1
 90
        0
176
     1
 90
        0
176
     1
 40
0.6
176
     1
 40
30.0
176
     1
 62
     7
420
 16777215
176
     1
 90
        1
176
     1
 90
        4
176
     1
 62
     7
176
     1
 62
   257
176
     1
 90
        1
176
     1
 90
        1
176
     1
 40
1.0
176
     1
 90
        8
176
     1
 62
     7
176
     1
 40
1.0
176
     1
 90
        1
176
     1
 90
        6
176
     1
 90
        2
176
     1
 62
     7
176
     1
 90
        5
176
     1
 90
        0
176
     1
 90
        0
176
     1
290
     0
176
     1
 90
        1
176
     1
 40
0.0
176
     1
 90
        0
176
     1
290
     0
176
     1
290
     1
176
     1
290
     1
176
     1
290
     0
176
     1
290
     0
176
     1
290
     0
176
     1
290
     0
176
     1
290
     0
176
     1
290
     0
176
     1
 90
       50
176
     1
 40
0.0
176
     1
 40
1.0
176
     1
 90
        0
176
     1
 62
    18
420
        0
176
     1
 90
       50
176
     1
 90
        3
176
     1
 62
     5
420
      255
176
     1
290
     0
176
     1
 90
       50
176
     1
 90
       50
176
     1
 90
       50
176
     1
290
     0
176
     1
 90
       50
176
     1
 62
   256
176
     0
 40
1.0
176
     0
 90
        2
176
     1
  1
strokes_ogs.tif
176
     1
290
     0
176
     1
 40
1.0
176
     1
 40
1.0
176
     1
  0
VISUALSTYLE
  5
10954
102
{ACAD_REACTORS
330
10953
102
}
330
10953
100
AcDbVisualStyle
  2
Flat
 70
     0
177
     3
291
     1
 70
    58
 90
        2
176
     1
 90
        1
176
     1
 90
        1
176
     1
 90
        2
176
     1
 40
0.6
176
     1
 40
30.0
176
     1
 62
     7
420
 16777215
176
     1
 90
        0
176
     1
 90
        0
176
     1
 62
     7
176
     1
 62
   257
176
     1
 90
        1
176
     1
 90
        1
176
     1
 40
1.0
176
     1
 90
        8
176
     1
 62
     7
176
     1
 40
1.0
176
     1
 90
        1
176
     1
 90
        6
176
     1
 90
        2
176
     1
 62
     7
176
     1
 90
        5
176
     1
 90
        0
176
     1
 90
        0
176
     1
290
     0
176
     1
 90
       13
176
     1
 40
0.0
176
     1
 90
        0
176
     1
290
     0
176
     1
290
     1
176
     1
290
     1
176
     1
290
     0
176
     1
290
     0
176
     1
290
     0
176
     1
290
     0
176
     1
290
     0
176
     1
290
     0
176
     1
 90
       50
176
     1
 40
0.0
176
     1
 40
1.0
176
     1
 90
        0
176
     1
 62
    18
420
        0
176
     1
 90
       50
176
     1
 90
        3
176
     1
 62
     5
420
      255
176
     1
290
     0
176
     1
 90
       50
176
     1
 90
       50
176
     1
 90
       50
176
     1
290
     0
176
     1
 90
       50
176
     1
 62
   256
176
     0
 40
1.0
176
     0
 90
        2
176
     1
  1
strokes_ogs.tif
176
     1
290
     0
176
     1
 40
1.0
176
     1
 40
1.0
176
     1
  0
VISUALSTYLE
  5
10955
102
{ACAD_REACTORS
330
10953
102
}
330
10953
100
AcDbVisualStyle
  2
FlatWithEdges
 70
     1
177
     3
291
     1
 70
    58
 90
        2
176
     1
 90
        1
176
     1
 90
        1
176
     1
 90
        2
176
     1
 40
0.6
176
     1
 40
30.0
176
     1
 62
     7
420
 16777215
176
     1
 90
        1
176
     1
 90
        0
176
     1
 62
     7
176
     1
 62
   257
176
     1
 90
        1
176
     1
 90
        1
176
     1
 40
1.0
176
     1
 90
        0
176
     1
 62
   257
176
     1
 40
1.0
176
     1
 90
        1
176
     1
 90
        6
176
     1
 90
        2
176
     1
 62
     7
176
     1
 90
        5
176
     1
 90
        0
176
     1
 90
        0
176
     1
290
     0
176
     1
 90
       13
176
     1
 40
0.0
176
     1
 90
        0
176
     1
290
     0
176
     1
290
     1
176
     1
290
     1
176
     1
290
     0
176
     1
290
     0
176
     1
290
     0
176
     1
290
     0
176
     1
290
     0
176
     1
290
     0
176
     1
 90
       50
176
     1
 40
0.0
176
     1
 40
1.0
176
     1
 90
        0
176
     1
 62
    18
420
        0
176
     1
 90
       50
176
     1
 90
        3
176
     1
 62
     5
420
      255
176
     1
290
     0
176
     1
 90
       50
176
     1
 90
       50
176
     1
 90
       50
176
     1
290
     0
176
     1
 90
       50
176
     1
 62
   256
176
     0
 40
1.0
176
     0
 90
        2
176
     1
  1
strokes_ogs.tif
176
     1
290
     0
176
     1
 40
1.0
176
     1
 40
1.0
176
     1
  0
VISUALSTYLE
  5
10956
102
{ACAD_REACTORS
330
10953
102
}
330
10953
100
AcDbVisualStyle
  2
Gouraud
 70
     2
177
     3
291
     1
 70
    58
 90
        2
176
     1
 90
        2
176
     1
 90
        1
176
     1
 90
        2
176
     1
 40
0.6
176
     1
 40
30.0
176
     1
 62
     7
420
 16777215
176
     1
 90
        0
176
     1
 90
        0
176
     1
 62
     7
176
     1
 62
   257
176
     1
 90
        1
176
     1
 90
        1
176
     1
 40
1.0
176
     1
 90
        0
176
     1
 62
     7
176
     1
 40
1.0
176
     1
 90
        1
176
     1
 90
        6
176
     1
 90
        2
176
     1
 62
     7
176
     1
 90
        5
176
     1
 90
        0
176
     1
 90
        0
176
     1
290
     0
176
     1
 90
       13
176
     1
 40
0.0
176
     1
 90
        0
176
     1
290
     0
176
     1
290
     1
176
     1
290
     1
176
     1
290
     0
176
     1
290
     0
176
     1
290
     0
176
     1
290
     0
176
     1
290
     0
176
     1
290
     0
176
     1
 90
       50
176
     1
 40
0.0
176
     1
 40
1.0
176
     1
 90
        0
176
     1
 62
    18
420
        0
176
     1
 90
       50
176
     1
 90
        3
176
     1
 62
     5
420
      255
176
     1
290
     0
176
     1
 90
       50
176
     1
 90
       50
176
     1
 90
       50
176
     1
290
     0
176
     1
 90
       50
176
     1
 62
   256
176
     0
 40
1.0
176
     0
 90
        2
176
     1
  1
strokes_ogs.tif
176
     1
290
     0
176
     1
 40
1.0
176
     1
 40
1.0
176
     1
  0
VISUALSTYLE
  5
10957
102
{ACAD_REACTORS
330
10953
102
}
330
10953
100
AcDbVisualStyle
  2
GouraudWithEdges
 70
     3
177
     3
291
     1
 70
    58
 90
        2
176
     1
 90
        2
176
     1
 90
        1
176
     1
 90
        2
176
     1
 40
0.6
176
     1
 40
30.0
176
     1
 62
     7
420
 16777215
176
     1
 90
        1
176
     1
 90
        0
176
     1
 62
     7
176
     1
 62
   257
176
     1
 90
        1
176
     1
 90
        1
176
     1
 40
1.0
176
     1
 90
        0
176
     1
 62
   257
176
     1
 40
1.0
176
     1
 90
        1
176
     1
 90
        6
176
     1
 90
        2
176
     1
 62
     7
176
     1
 90
        5
176
     1
 90
        0
176
     1
 90
        0
176
     1
290
     0
176
     1
 90
       13
176
     1
 40
0.0
176
     1
 90
        0
176
     1
290
     0
176
     1
290
     1
176
     1
290
     1
176
     1
290
     0
176
     1
290
     0
176
     1
290
     0
176
     1
290
     0
176
     1
290
     0
176
     1
290
     0
176
     1
 90
       50
176
     1
 40
0.0
176
     1
 40
1.0
176
     1
 90
        0
176
     1
 62
    18
420
        0
176
     1
 90
       50
176
     1
 90
        3
176
     1
 62
     5
420
      255
176
     1
290
     0
176
     1
 90
       50
176
     1
 90
       50
176
     1
 90
       50
176
     1
290
     0
176
     1
 90
       50
176
     1
 62
   256
176
     0
 40
1.0
176
     0
 90
        2
176
     1
  1
strokes_ogs.tif
176
     1
290
     0
176
     1
 40
1.0
176
     1
 40
1.0
176
     1
  0
VISUALSTYLE
  5
1095B
102
{ACAD_REACTORS
330
10953
102
}
330
10953
100
AcDbVisualStyle
  2
Hidden
 70
     6
177
     3
291
     0
 70
    58
 90
        1
176
     1
 90
        2
176
     1
 90
        2
176
     1
 90
        0
176
     1
 40
0.6
176
     1
 40
30.0
176
     1
 62
     7
420
 16777215
176
     1
 90
        2
176
     1
 90
        2
176
     1
 62
     7
176
     1
 62
   257
176
     1
 90
        2
176
     1
 90
        1
176
     1
 40
40.0
176
     1
 90
        0
176
     1
 62
   257
176
     1
 40
1.0
176
     1
 90
        1
176
     1
 90
        6
176
     1
 90
        2
176
     1
 62
     7
176
     1
 90
        3
176
     1
 90
        0
176
     1
 90
        0
176
     1
290
     0
176
     1
 90
        1
176
     1
 40
0.0
176
     1
 90
        0
176
     1
290
     0
176
     1
290
     1
176
     1
290
     1
176
     1
290
     0
176
     1
290
     0
176
     1
290
     0
176
     1
290
     0
176
     1
290
     0
176
     1
290
     0
176
     1
 90
       50
176
     1
 40
0.0
176
     1
 40
1.0
176
     1
 90
        0
176
     1
 62
    18
420
        0
176
     1
 90
       50
176
     1
 90
        3
176
     1
 62
     5
420
      255
176
     1
290
     0
176
     1
 90
       50
176
     1
 90
       50
176
     1
 90
       50
176
     1
290
     0
176
     1
 90
       50
176
     1
 62
   256
176
     0
 40
1.0
176
     0
 90
        2
176
     1
  1
strokes_ogs.tif
176
     1
290
     0
176
     1
 40
1.0
176
     1
 40
1.0
176
     1
  0
VISUALSTYLE
  5
10969
102
{ACAD_REACTORS
330
10953
102
}
330
10953
100
AcDbVisualStyle
  2
JitterOff
 70
    20
177
     3
291
     1
 70
    58
 90
        2
176
     0
 90
        2
176
     0
 90
        0
176
     0
 90
        0
176
     0
 40
0.6
176
     0
 40
30.0
176
     0
 62
     7
420
 16777215
176
     0
 90
        1
176
     0
 90
        4
176
     0
 62
     7
176
     0
 62
   257
176
     0
 90
        1
176
     0
 90
        1
176
     0
 40
1.0
176
     0
 90
       10
176
     2
 62
     7
176
     0
 40
1.0
176
     0
 90
        1
176
     0
 90
        6
176
     0
 90
        2
176
     0
 62
     7
176
     0
 90
        5
176
     0
 90
        0
176
     0
 90
        0
176
     0
290
     0
176
     0
 90
        1
176
     0
 40
0.0
176
     0
 90
        0
176
     0
290
     0
176
     1
290
     1
176
     1
290
     1
176
     1
290
     0
176
     1
290
     0
176
     1
290
     0
176
     1
290
     0
176
     1
290
     0
176
     1
290
     0
176
     1
 90
       50
176
     0
 40
0.0
176
     0
 40
1.0
176
     0
 90
        0
176
     0
 62
    18
420
        0
176
     0
 90
       50
176
     0
 90
        3
176
     0
 62
     5
420
      255
176
     0
290
     0
176
     1
 90
       50
176
     0
 90
       50
176
     0
 90
       50
176
     0
290
     0
176
     1
 90
       50
176
     0
 62
   256
176
     0
 40
1.0
176
     0
 90
        2
176
     0
  1
strokes_ogs.tif
176
     0
290
     0
176
     1
 40
1.0
176
     0
 40
1.0
176
     0
  0
VISUALSTYLE
  5
10961
102
{ACAD_REACTORS
330
10953
102
}
330
10953
100
AcDbVisualStyle
  2
Linepattern
 70
    14
177
     3
291
     1
 70
    58
 90
        2
176
     1
 90
        2
176
     1
 90
        0
176
     1
 90
        0
176
     1
 40
0.6
176
     1
 40
30.0
176
     1
 62
     7
420
 16777215
176
     1
 90
        1
176
     1
 90
        4
176
     1
 62
     7
176
     1
 62
   257
176
     1
 90
        7
176
     1
 90
        7
176
     1
 40
1.0
176
     1
 90
        8
176
     1
 62
     7
176
     1
 40
1.0
176
     1
 90
        1
176
     1
 90
        6
176
     1
 90
        2
176
     1
 62
     7
176
     1
 90
        5
176
     1
 90
        0
176
     1
 90
        0
176
     1
290
     0
176
     1
 90
        1
176
     1
 40
0.0
176
     1
 90
        0
176
     1
290
     0
176
     1
290
     1
176
     1
290
     1
176
     1
290
     0
176
     1
290
     0
176
     1
290
     0
176
     1
290
     0
176
     1
290
     0
176
     1
290
     0
176
     1
 90
       50
176
     1
 40
0.0
176
     1
 40
1.0
176
     1
 90
        0
176
     1
 62
    18
420
        0
176
     1
 90
       50
176
     1
 90
        3
176
     1
 62
     5
420
      255
176
     1
290
     0
176
     1
 90
       50
176
     1
 90
       50
176
     1
 90
       50
176
     1
290
     0
176
     1
 90
       50
176
     1
 62
   256
176
     0
 40
1.0
176
     0
 90
        2
176
     1
  1
strokes_ogs.tif
176
     1
290
     0
176
     1
 40
1.0
176
     1
 40
1.0
176
     1
  0
VISUALSTYLE
  5
1096A
102
{ACAD_REACTORS
330
10953
102
}
330
10953
100
AcDbVisualStyle
  2
OverhangOff
 70
    21
177
     3
291
     1
 70
    58
 90
        2
176
     0
 90
        2
176
     0
 90
        0
176
     0
 90
        0
176
     0
 40
0.6
176
     0
 40
30.0
176
     0
 62
     7
420
 16777215
176
     0
 90
        1
176
     0
 90
        4
176
     0
 62
     7
176
     0
 62
   257
176
     0
 90
        1
176
     0
 90
        1
176
     0
 40
1.0
176
     0
 90
        9
176
     2
 62
     7
176
     0
 40
1.0
176
     0
 90
        1
176
     0
 90
        6
176
     0
 90
        2
176
     0
 62
     7
176
     0
 90
        5
176
     0
 90
        0
176
     0
 90
        0
176
     0
290
     0
176
     0
 90
        1
176
     0
 40
0.0
176
     0
 90
        0
176
     0
290
     0
176
     1
290
     1
176
     1
290
     1
176
     1
290
     0
176
     1
290
     0
176
     1
290
     0
176
     1
290
     0
176
     1
290
     0
176
     1
290
     0
176
     1
 90
       50
176
     0
 40
0.0
176
     0
 40
1.0
176
     0
 90
        0
176
     0
 62
    18
420
        0
176
     0
 90
       50
176
     0
 90
        3
176
     0
 62
     5
420
      255
176
     0
290
     0
176
     1
 90
       50
176
     0
 90
       50
176
     0
 90
       50
176
     0
290
     0
176
     1
 90
       50
176
     0
 62
   256
176
     0
 40
1.0
176
     0
 90
        2
176
     0
  1
strokes_ogs.tif
176
     0
290
     0
176
     1
 40
1.0
176
     0
 40
1.0
176
     0
  0
VISUALSTYLE
  5
1095D
102
{ACAD_REACTORS
330
10953
102
}
330
10953
100
AcDbVisualStyle
  2
Realistic
 70
     8
177
     3
291
     0
 70
    58
 90
        2
176
     1
 90
        3
176
     1
 90
        0
176
     1
 90
        2
176
     1
 40
0.6
176
     1
 40
30.0
176
     1
 62
     7
420
 16777215
176
     1
 90
        0
176
     1
 90
        0
176
     1
 62
     7
176
     1
 62
   257
176
     1
 90
        1
176
     1
 90
        1
176
     1
 40
1.0
176
     1
 90
        8
176
     1
 62
   257
176
     1
 40
1.0
176
     1
 90
        1
176
     1
 90
        6
176
     1
 90
        2
176
     1
 62
     7
176
     1
 90
        3
176
     1
 90
        0
176
     1
 90
        0
176
     1
290
     0
176
     1
 90
       13
176
     1
 40
0.0
176
     1
 90
        0
176
     1
290
     0
176
     1
290
     1
176
     1
290
     1
176
     1
290
     0
176
     1
290
     0
176
     1
290
     0
176
     1
290
     0
176
     1
290
     0
176
     1
290
     0
176
     1
 90
       50
176
     1
 40
0.0
176
     1
 40
1.0
176
     1
 90
        0
176
     1
 62
    18
420
        0
176
     1
 90
       50
176
     1
 90
        3
176
     1
 62
     5
420
      255
176
     1
290
     0
176
     1
 90
       50
176
     1
 90
       50
176
     1
 90
       50
176
     1
290
     0
176
     1
 90
       50
176
     1
 62
   256
176
     0
 40
1.0
176
     0
 90
        2
176
     1
  1
strokes_ogs.tif
176
     1
290
     0
176
     1
 40
1.0
176
     1
 40
1.0
176
     1
  0
VISUALSTYLE
  5
10968
102
{ACAD_REACTORS
330
10953
102
}
330
10953
100
AcDbVisualStyle
  2
Shaded
 70
    27
177
     3
291
     0
 70
    58
 90
        2
176
     1
 90
        2
176
     1
 90
        1
176
     1
 90
        2
176
     1
 40
0.6
176
     1
 40
30.0
176
     1
 62
     7
420
 16777215
176
     1
 90
        0
176
     1
 90
        4
176
     1
 62
     7
176
     1
 62
   257
176
     1
 90
        1
176
     1
 90
        1
176
     1
 40
1.0
176
     1
 90
        8
176
     1
 62
   257
176
     1
 40
1.0
176
     1
 90
        1
176
     1
 90
        6
176
     1
 90
        2
176
     1
 62
     8
420
  7895160
176
     1
 90
        3
176
     1
 90
        0
176
     1
 90
        0
176
     1
290
     0
176
     1
 90
        5
176
     1
 40
0.0
176
     1
 90
        0
176
     1
290
     0
176
     1
290
     1
176
     1
290
     1
176
     1
290
     0
176
     1
290
     0
176
     1
290
     0
176
     1
290
     0
176
     1
290
     0
176
     1
290
     0
176
     1
 90
       50
176
     1
 40
0.0
176
     1
 40
1.0
176
     1
 90
        0
176
     1
 62
    18
420
        0
176
     1
 90
       50
176
     1
 90
        3
176
     1
 62
     5
420
      255
176
     1
290
     0
176
     1
 90
       50
176
     1
 90
       50
176
     1
 90
       50
176
     1
290
     0
176
     1
 90
       50
176
     1
 62
   256
176
     0
 40
1.0
176
     0
 90
        2
176
     1
  1
strokes_ogs.tif
176
     1
290
     0
176
     1
 40
1.0
176
     1
 40
1.0
176
     1
  0
VISUALSTYLE
  5
10967
102
{ACAD_REACTORS
330
10953
102
}
330
10953
100
AcDbVisualStyle
  2
Shaded with edges
 70
    26
177
     3
291
     0
 70
    58
 90
        2
176
     1
 90
        2
176
     1
 90
        1
176
     1
 90
        2
176
     1
 40
0.6
176
     1
 40
30.0
176
     1
 62
     7
420
 16777215
176
     1
 90
        1
176
     1
 90
        2
176
     1
 62
     7
176
     1
 62
   257
176
     1
 90
        2
176
     1
 90
        1
176
     1
 40
1.0
176
     1
 90
        8
176
     1
 62
   257
176
     1
 40
1.0
176
     1
 90
        1
176
     1
 90
        6
176
     1
 90
        2
176
     1
 62
     7
176
     1
 90
        3
176
     1
 90
        0
176
     1
 90
        0
176
     1
290
     0
176
     1
 90
        5
176
     1
 40
0.0
176
     1
 90
        0
176
     1
290
     0
176
     1
290
     1
176
     1
290
     1
176
     1
290
     0
176
     1
290
     0
176
     1
290
     0
176
     1
290
     0
176
     1
290
     0
176
     1
290
     0
176
     1
 90
       50
176
     1
 40
0.0
176
     1
 40
1.0
176
     1
 90
        0
176
     1
 62
    18
420
        0
176
     1
 90
       50
176
     1
 90
        3
176
     1
 62
     5
420
      255
176
     1
290
     0
176
     1
 90
       50
176
     1
 90
       50
176
     1
 90
       50
176
     1
290
     0
176
     1
 90
       50
176
     1
 62
   256
176
     0
 40
1.0
176
     0
 90
        2
176
     1
  1
strokes_ogs.tif
176
     1
290
     0
176
     1
 40
1.0
176
     1
 40
1.0
176
     1
  0
VISUALSTYLE
  5
10964
102
{ACAD_REACTORS
330
10953
102
}
330
10953
100
AcDbVisualStyle
  2
Shades of Gray
 70
    23
177
     3
291
     0
 70
    58
 90
        2
176
     1
 90
        2
176
     1
 90
        3
176
     1
 90
        0
176
     1
 40
0.6
176
     1
 40
30.0
176
     1
 62
     7
420
 16777215
176
     1
 90
        2
176
     1
 90
        2
176
     1
 62
     7
176
     1
 62
     7
176
     1
 90
        1
176
     1
 90
        1
176
     1
 40
40.0
176
     1
 90
        8
176
     1
 62
     7
176
     1
 40
1.0
176
     1
 90
        1
176
     1
 90
        6
176
     1
 90
        2
176
     1
 62
     7
176
     1
 90
        3
176
     1
 90
        0
176
     1
 90
        0
176
     1
290
     0
176
     1
 90
        1
176
     1
 40
0.0
176
     1
 90
        0
176
     1
290
     0
176
     1
290
     1
176
     1
290
     1
176
     1
290
     0
176
     1
290
     0
176
     1
290
     0
176
     1
290
     0
176
     1
290
     0
176
     1
290
     0
176
     1
 90
       50
176
     1
 40
0.0
176
     1
 40
1.0
176
     1
 90
        0
176
     1
 62
    18
420
        0
176
     1
 90
       50
176
     1
 90
        3
176
     1
 62
     5
420
      255
176
     1
290
     0
176
     1
 90
       50
176
     1
 90
       50
176
     1
 90
       50
176
     1
290
     0
176
     1
 90
       50
176
     1
 62
   256
176
     0
 40
1.0
176
     0
 90
        2
176
     1
  1
strokes_ogs.tif
176
     1
290
     0
176
     1
 40
1.0
176
     1
 40
1.0
176
     1
  0
VISUALSTYLE
  5
10965
102
{ACAD_REACTORS
330
10953
102
}
330
10953
100
AcDbVisualStyle
  2
Sketchy
 70
    24
177
     3
291
     0
 70
    58
 90
        1
176
     1
 90
        2
176
     1
 90
        2
176
     1
 90
        0
176
     1
 40
0.6
176
     1
 40
30.0
176
     1
 62
     7
420
 16777215
176
     1
 90
        2
176
     1
 90
        2
176
     1
 62
     7
176
     1
 62
     7
176
     1
 90
        1
176
     1
 90
        1
176
     1
 40
40.0
176
     1
 90
       11
176
     1
 62
     7
176
     1
 40
1.0
176
     1
 90
        1
176
     1
 90
        6
176
     1
 90
        2
176
     1
 62
     7
176
     1
 90
        6
176
     1
 90
        0
176
     1
 90
        0
176
     1
290
     0
176
     1
 90
        1
176
     1
 40
0.0
176
     1
 90
        0
176
     1
290
     0
176
     1
290
     1
176
     1
290
     1
176
     1
290
     0
176
     1
290
     0
176
     1
290
     0
176
     1
290
     0
176
     1
290
     0
176
     1
290
     0
176
     1
 90
       50
176
     1
 40
0.0
176
     1
 40
1.0
176
     1
 90
        0
176
     1
 62
    18
420
        0
176
     1
 90
       50
176
     1
 90
        3
176
     1
 62
     5
420
      255
176
     1
290
     0
176
     1
 90
       50
176
     1
 90
       50
176
     1
 90
       50
176
     1
290
     0
176
     1
 90
       50
176
     1
 62
   256
176
     0
 40
1.0
176
     0
 90
        2
176
     1
  1
strokes_ogs.tif
176
     1
290
     0
176
     1
 40
1.0
176
     1
 40
1.0
176
     1
  0
VISUALSTYLE
  5
10960
102
{ACAD_REACTORS
330
10953
102
}
330
10953
100
AcDbVisualStyle
  2
Thicken
 70
    13
177
     3
291
     1
 70
    58
 90
        2
176
     1
 90
        2
176
     1
 90
        0
176
     1
 90
        0
176
     1
 40
0.6
176
     1
 40
30.0
176
     1
 62
     7
420
 16777215
176
     1
 90
        1
176
     1
 90
        4
176
     1
 62
     7
176
     1
 62
   257
176
     1
 90
        1
176
     1
 90
        1
176
     1
 40
1.0
176
     1
 90
       12
176
     1
 62
     7
176
     1
 40
1.0
176
     1
 90
        1
176
     1
 90
        6
176
     1
 90
        2
176
     1
 62
     7
176
     1
 90
        5
176
     1
 90
        0
176
     1
 90
        0
176
     1
290
     0
176
     1
 90
        1
176
     1
 40
0.0
176
     1
 90
        0
176
     1
290
     0
176
     1
290
     1
176
     1
290
     1
176
     1
290
     0
176
     1
290
     0
176
     1
290
     0
176
     1
290
     0
176
     1
290
     0
176
     1
290
     0
176
     1
 90
       50
176
     1
 40
0.0
176
     1
 40
1.0
176
     1
 90
        0
176
     1
 62
    18
420
        0
176
     1
 90
       50
176
     1
 90
        3
176
     1
 62
     5
420
      255
176
     1
290
     0
176
     1
 90
       50
176
     1
 90
       50
176
     1
 90
       50
176
     1
290
     0
176
     1
 90
       50
176
     1
 62
   256
176
     0
 40
1.0
176
     0
 90
        2
176
     1
  1
strokes_ogs.tif
176
     1
290
     0
176
     1
 40
1.0
176
     1
 40
1.0
176
     1
  0
VISUALSTYLE
  5
1095A
102
{ACAD_REACTORS
330
10953
102
}
330
10953
100
AcDbVisualStyle
  2
Wireframe
 70
     5
177
     3
291
     0
 70
    58
 90
        0
176
     1
 90
        2
176
     1
 90
        0
176
     1
 90
        0
176
     1
 40
0.6
176
     1
 40
30.0
176
     1
 62
     7
420
 16777215
176
     1
 90
        1
176
     1
 90
        4
176
     1
 62
     7
176
     1
 62
   257
176
     1
 90
        1
176
     1
 90
        1
176
     1
 40
1.0
176
     1
 90
        0
176
     1
 62
   257
176
     1
 40
1.0
176
     1
 90
        1
176
     1
 90
        6
176
     1
 90
        2
176
     1
 62
     7
176
     1
 90
        3
176
     1
 90
        0
176
     1
 90
        0
176
     1
290
     0
176
     1
 90
        1
176
     1
 40
0.0
176
     1
 90
        0
176
     1
290
     0
176
     1
290
     1
176
     1
290
     1
176
     1
290
     0
176
     1
290
     0
176
     1
290
     0
176
     1
290
     0
176
     1
290
     0
176
     1
290
     0
176
     1
 90
       50
176
     1
 40
0.0
176
     1
 40
1.0
176
     1
 90
        0
176
     1
 62
    18
420
        0
176
     1
 90
       50
176
     1
 90
        3
176
     1
 62
     5
420
      255
176
     1
290
     0
176
     1
 90
       50
176
     1
 90
       50
176
     1
 90
       50
176
     1
290
     0
176
     1
 90
       50
176
     1
 62
   256
176
     0
 40
1.0
176
     0
 90
        2
176
     1
  1
strokes_ogs.tif
176
     1
290
     0
176
     1
 40
1.0
176
     1
 40
1.0
176
     1
  0
VISUALSTYLE
  5
10966
102
{ACAD_REACTORS
330
10953
102
}
330
10953
100
AcDbVisualStyle
  2
X-Ray
 70
    25
177
     3
291
     0
 70
    58
 90
        2
176
     1
 90
        2
176
     1
 90
        1
176
     1
 90
        1
176
     1
 40
0.5
176
     1
 40
30.0
176
     1
 62
     7
420
 16777215
176
     1
 90
        1
176
     1
 90
        0
176
     1
 62
     7
176
     1
 62
   257
176
     1
 90
        1
176
     1
 90
        1
176
     1
 40
1.0
176
     1
 90
        8
176
     1
 62
     7
176
     1
 40
1.0
176
     1
 90
        1
176
     1
 90
        6
176
     1
 90
        2
176
     1
 62
     7
176
     1
 90
        3
176
     1
 90
        0
176
     1
 90
        0
176
     1
290
     0
176
     1
 90
       13
176
     1
 40
0.0
176
     1
 90
        0
176
     1
290
     0
176
     1
290
     1
176
     1
290
     1
176
     1
290
     0
176
     1
290
     0
176
     1
290
     0
176
     1
290
     0
176
     1
290
     0
176
     1
290
     0
176
     1
 90
       50
176
     1
 40
0.0
176
     1
 40
1.0
176
     1
 90
        0
176
     1
 62
    18
420
        0
176
     1
 90
       50
176
     1
 90
        3
176
     1
 62
     5
420
      255
176
     1
290
     0
176
     1
 90
       50
176
     1
 90
       50
176
     1
 90
       50
176
     1
290
     0
176
     1
 90
       50
176
     1
 62
   256
176
     0
 40
1.0
176
     0
 90
        2
176
     1
  1
strokes_ogs.tif
176
     1
290
     0
176
     1
 40
1.0
176
     1
 40
1.0
176
     1
  0
DICTIONARYVAR
  5
109C1
102
{ACAD_REACTORS
330
109BB
102
}
330
109BB
100
DictionaryVariables
280
     0
  1
1:1
  0
DICTIONARYVAR
  5
109BD
102
{ACAD_REACTORS
330
109BB
102
}
330
109BB
100
DictionaryVariables
280
     0
  1
STANDARD
  0
DICTIONARYVAR
  5
109BC
102
{ACAD_REACTORS
330
109BB
102
}
330
109BB
100
DictionaryVariables
280
     0
  1
STANDARD
  0
DICTIONARYVAR
  5
109BE
102
{ACAD_REACTORS
330
109BB
102
}
330
109BB
100
DictionaryVariables
280
     0
  1
Imperial24
  0
DICTIONARYVAR
  5
109BF
102
{ACAD_REACTORS
330
109BB
102
}
330
109BB
100
DictionaryVariables
280
     0
  1
Imperial24
  0
DICTIONARYVAR
  5
109C3
102
{ACAD_REACTORS
330
109BB
102
}
330
109BB
100
DictionaryVariables
280
     0
  1
1
  0
DICTIONARYVAR
  5
109C4
102
{ACAD_REACTORS
330
109BB
102
}
330
109BB
100
DictionaryVariables
280
     0
  1
15
  0
DICTIONARYVAR
  5
109C2
102
{ACAD_REACTORS
330
109BB
102
}
330
109BB
100
DictionaryVariables
280
     0
  1
0
  0
DICTIONARYVAR
  5
109C0
102
{ACAD_REACTORS
330
109BB
102
}
330
109BB
100
DictionaryVariables
280
     0
  1
0
  0
XRECORD
  5
109BA
102
{ACAD_REACTORS
330
109B8
102
}
330
109B8
100
AcDbXrecord
280
     1
330
109A8
330
1099B
  0
ACDBASSOCNETWORK
  5
1098F
102
{ACAD_REACTORS
330
1098E
102
}
330
1098E
100
AcDbAssocAction
 90
        2
 90
        0
330
10991
360
0
 90
        1
 90
        0
 90
        0
 90
        0
 90
        0
 90
        0
 90
        0
100
AcDbAssocNetwork
 90
        0
 90
        2
 90
        2
360
10992
360
1099F
 90
        0
  0
DICTIONARY
  5
10944
330
10943
100
AcDbDictionary
280
     1
281
     1
  3
BUMPTILE
360
10946
  3
DIFFUSETILE
360
10945
  3
OPACITYTILE
360
10949
  3
REFLECTIONTILE
360
10948
  3
REFRACTIONTILE
360
1094A
  3
SPECULARTILE
360
10947
  0
DICTIONARY
  5
1093C
330
1093B
100
AcDbDictionary
280
     1
281
     1
  3
BUMPTILE
360
1093E
  3
DIFFUSETILE
360
1093D
  3
OPACITYTILE
360
10941
  3
REFLECTIONTILE
360
10940
  3
REFRACTIONTILE
360
10942
  3
SPECULARTILE
360
1093F
  0
DICTIONARY
  5
1094C
330
1094B
100
AcDbDictionary
280
     1
281
     1
  3
BUMPTILE
360
1094E
  3
DIFFUSETILE
360
1094D
  3
OPACITYTILE
360
10951
  3
REFLECTIONTILE
360
10950
  3
REFRACTIONTILE
360
10952
  3
SPECULARTILE
360
1094F
  0
DICTIONARY
  5
109C6
330
1096F
100
AcDbDictionary
280
     1
281
     1
  3
ACAD_ROUNDTRIP_2008_TABLESTYLE_CELLSTYLEMAP
360
109C7
  0
ACDBASSOCACTION
  5
10992
330
1098F
100
AcDbAssocAction
 90
        2
 90
        0
330
1098F
360
10993
 90
        1
 90
        3
 90
        3
360
10995
360
10997
360
1099D
 90
        0
 90
        2
360
10994
360
10996
 90
        0
 90
       14
 90
        0
  1
StartExtLength
 90
        0
 90
        1
 40
1.000000000000000E+60
330
0
330
0
 90
        0
  1
EndExtLength
 90
        0
 90
        1
 40
1.000000000000000E+60
330
0
330
0
 90
        0
  1
StartOvershoot
 90
        0
 90
        1
 40
0.12
330
0
330
0
 90
        0
  1
EndOvershoot
 90
        0
 90
        1
 40
0.12
330
0
330
0
 90
        0
  1
EdgeRefDirectionEnding
 90
        0
 90
        2
 90
        0
330
0
 90
        1
330
0
330
0
 90
        0
  1
CenterDepId
 90
        0
 90
        1
330
1099D
330
0
330
0
 90
        0
  1
CachedCenterLineLength
 90
        0
 90
        1
 40
37678.506
330
0
330
0
 90
        0
  1
CachedCenterLineDirectionX
 90
        0
 90
        1
 40
-0.0000000000000001
330
0
330
0
 90
        0
  1
CachedCenterLineDirectionY
 90
        0
 90
        1
 40
-1.0
330
0
330
0
 90
        0
  1
CachedCenterLineDirectionZ
 90
        0
 90
        1
 40
0.0
330
0
330
0
 90
        0
  1
SubentLineType
 90
        0
 90
        1
  1
CENTER2
330
0
330
0
 90
        0
  1
SubentLineWeight
 90
        0
 90
        1
 40
-1.0
330
0
330
0
 90
        0
  1
SubentLinetypeScale
 90
        0
 90
        1
 40
1.0
330
0
330
0
 90
        0
  1
CachedAssociateStatus
 90
        0
 90
        1
 40
1.0
330
0
330
0
  0
ACDBASSOCACTION
  5
1099F
330
1098F
100
AcDbAssocAction
 90
        2
 90
        0
330
1098F
360
109A0
 90
        2
 90
        3
 90
        3
360
109A2
360
109A4
360
109A9
 90
        0
 90
        2
360
109A1
360
109A3
 90
        0
 90
       14
 90
        0
  1
StartExtLength
 90
        0
 90
        1
 40
1.000000000000000E+60
330
0
330
0
 90
        0
  1
EndExtLength
 90
        0
 90
        1
 40
1.000000000000000E+60
330
0
330
0
 90
        0
  1
StartOvershoot
 90
        0
 90
        1
 40
0.12
330
0
330
0
 90
        0
  1
EndOvershoot
 90
        0
 90
        1
 40
0.12
330
0
330
0
 90
        0
  1
EdgeRefDirectionEnding
 90
        0
 90
        2
 90
        0
330
0
 90
        1
330
0
330
0
 90
        0
  1
CenterDepId
 90
        0
 90
        1
330
109A9
330
0
330
0
 90
        0
  1
CachedCenterLineLength
 90
        0
 90
        1
 40
56500.0
330
0
330
0
 90
        0
  1
CachedCenterLineDirectionX
 90
        0
 90
        1
 40
-1.0
330
0
330
0
 90
        0
  1
CachedCenterLineDirectionY
 90
        0
 90
        1
 40
0.0
330
0
330
0
 90
        0
  1
CachedCenterLineDirectionZ
 90
        0
 90
        1
 40
0.0
330
0
330
0
 90
        0
  1
SubentLineType
 90
        0
 90
        1
  1
CENTER2
330
0
330
0
 90
        0
  1
SubentLineWeight
 90
        0
 90
        1
 40
-1.0
330
0
330
0
 90
        0
  1
SubentLinetypeScale
 90
        0
 90
        1
 40
1.0
330
0
330
0
 90
        0
  1
CachedAssociateStatus
 90
        0
 90
        1
 40
1.0
330
0
330
0
  0
XRECORD
  5
10946
102
{ACAD_REACTORS
330
10944
102
}
330
10944
100
AcDbXrecord
280
     1
270
     1
271
     1
  0
XRECORD
  5
10945
102
{ACAD_REACTORS
330
10944
102
}
330
10944
100
AcDbXrecord
280
     1
270
     1
271
     1
  0
XRECORD
  5
10949
102
{ACAD_REACTORS
330
10944
102
}
330
10944
100
AcDbXrecord
280
     1
270
     1
271
     1
  0
XRECORD
  5
10948
102
{ACAD_REACTORS
330
10944
102
}
330
10944
100
AcDbXrecord
280
     1
270
     1
271
     1
  0
XRECORD
  5
1094A
102
{ACAD_REACTORS
330
10944
102
}
330
10944
100
AcDbXrecord
280
     1
270
     1
271
     1
  0
XRECORD
  5
10947
102
{ACAD_REACTORS
330
10944
102
}
330
10944
100
AcDbXrecord
280
     1
270
     1
271
     1
  0
XRECORD
  5
1093E
102
{ACAD_REACTORS
330
1093C
102
}
330
1093C
100
AcDbXrecord
280
     1
270
     1
271
     1
  0
XRECORD
  5
1093D
102
{ACAD_REACTORS
330
1093C
102
}
330
1093C
100
AcDbXrecord
280
     1
270
     1
271
     1
  0
XRECORD
  5
10941
102
{ACAD_REACTORS
330
1093C
102
}
330
1093C
100
AcDbXrecord
280
     1
270
     1
271
     1
  0
XRECORD
  5
10940
102
{ACAD_REACTORS
330
1093C
102
}
330
1093C
100
AcDbXrecord
280
     1
270
     1
271
     1
  0
XRECORD
  5
10942
102
{ACAD_REACTORS
330
1093C
102
}
330
1093C
100
AcDbXrecord
280
     1
270
     1
271
     1
  0
XRECORD
  5
1093F
102
{ACAD_REACTORS
330
1093C
102
}
330
1093C
100
AcDbXrecord
280
     1
270
     1
271
     1
  0
XRECORD
  5
1094E
102
{ACAD_REACTORS
330
1094C
102
}
330
1094C
100
AcDbXrecord
280
     1
270
     1
271
     1
  0
XRECORD
  5
1094D
102
{ACAD_REACTORS
330
1094C
102
}
330
1094C
100
AcDbXrecord
280
     1
270
     1
271
     1
  0
XRECORD
  5
10951
102
{ACAD_REACTORS
330
1094C
102
}
330
1094C
100
AcDbXrecord
280
     1
270
     1
271
     1
  0
XRECORD
  5
10950
102
{ACAD_REACTORS
330
1094C
102
}
330
1094C
100
AcDbXrecord
280
     1
270
     1
271
     1
  0
XRECORD
  5
10952
102
{ACAD_REACTORS
330
1094C
102
}
330
1094C
100
AcDbXrecord
280
     1
270
     1
271
     1
  0
XRECORD
  5
1094F
102
{ACAD_REACTORS
330
1094C
102
}
330
1094C
100
AcDbXrecord
280
     1
270
     1
271
     1
  0
CELLSTYLEMAP
  5
109C7
102
{ACAD_REACTORS
330
109C6
102
}
330
109C6
100
AcDbCellStyleMap
 90
        3
300
CELLSTYLE
  1
TABLEFORMAT_BEGIN
 90
        5
170
     1
 91
        0
 92
    32768
 62
   257
 93
        1
300
CONTENTFORMAT
  1
CONTENTFORMAT_BEGIN
 90
        0
 91
        0
 92
      512
 93
        0
300

 40
0.0
140
1.0
 94
        5
 62
     0
340
2B35
144
0.25
309
CONTENTFORMAT_END
171
     0
 94
        0
309
TABLEFORMAT_END
  1
CELLSTYLE_BEGIN
 90
        1
 91
        1
300
_TITLE
309
CELLSTYLE_END
300
CELLSTYLE
  1
TABLEFORMAT_BEGIN
 90
        5
170
     1
 91
        0
 92
        0
 62
   257
 93
        1
300
CONTENTFORMAT
  1
CONTENTFORMAT_BEGIN
 90
        0
 91
        0
 92
      512
 93
        0
300

 40
0.0
140
1.0
 94
        5
 62
     0
340
2B35
144
0.18
309
CONTENTFORMAT_END
171
     0
 94
        0
309
TABLEFORMAT_END
  1
CELLSTYLE_BEGIN
 90
        2
 91
        1
300
_HEADER
309
CELLSTYLE_END
300
CELLSTYLE
  1
TABLEFORMAT_BEGIN
 90
        5
170
     1
 91
        0
 92
        0
 62
   257
 93
        1
300
CONTENTFORMAT
  1
CONTENTFORMAT_BEGIN
 90
        0
 91
        0
 92
      512
 93
        0
300

 40
0.0
140
1.0
 94
        2
 62
     0
340
2B35
144
0.18
309
CONTENTFORMAT_END
171
     0
 94
        0
309
TABLEFORMAT_END
  1
CELLSTYLE_BEGIN
 90
        3
 91
        2
300
_DATA
309
CELLSTYLE_END
  0
AcDbCenterLineActionBody
  5
10993
330
10992
100
AcDbAssocActionBody
 90
        2
100
AcDbSmartCenterActionBody
 90
        0
  0
ACDBASSOCGEOMDEPENDENCY
  5
10995
330
10992
100
AcDbAssocDependency
 90
        2
 90
        0
290
     1
290
     0
290
     1
290
     1
 90
        0
330
2B2E
290
     0
330
0
330
10997
360
0
 90
        1
100
AcDbAssocGeomDependency
 90
        0
290
     1
  1
AcDbAssocEdgePersSubentId
 90
        0
 90
        1
 90
        2
290
     0
  0
ACDBASSOCGEOMDEPENDENCY
  5
10997
330
10992
100
AcDbAssocDependency
 90
        2
 90
        0
290
     1
290
     0
290
     1
290
     1
 90
        0
330
2B2E
290
     0
330
10995
330
109A2
360
0
 90
        2
100
AcDbAssocGeomDependency
 90
        0
290
     1
  1
AcDbAssocEdgePersSubentId
 90
        0
 90
        3
 90
        4
290
     0
  0
ACDBASSOCDEPENDENCY
  5
1099D
330
10992
100
AcDbAssocDependency
 90
        2
 90
        0
290
     1
290
     1
290
     1
290
     1
 90
        0
330
1099B
290
     0
330
0
330
0
360
0
 90
        3
  0
ACDBASSOCEDGEACTIONPARAM
  5
10994
330
10992
100
AcDbAssocActionParam
 90
        1
 90
        0
  1
InputEdge
100
AcDbAssocSingleDependencyActionParam
 90
        0
330
10995
100
AcDbAssocEdgeActionParam
 90
        0
330
0
290
     1
 90
       23
 10
-24381.494
 20
28250.0
 30
0.0
 10
-14368.506
 20
0.0
 30
0.0
  0
ACDBASSOCEDGEACTIONPARAM
  5
10996
330
10992
100
AcDbAssocActionParam
 90
        1
 90
        0
  1
InputEdge
100
AcDbAssocSingleDependencyActionParam
 90
        0
330
10997
100
AcDbAssocEdgeActionParam
 90
        0
330
0
290
     1
 90
       23
 10
-22238.506
 20
-28250.0
 30
0.0
 10
60988.50599999999
 20
0.0
 30
0.0
  0
AcDbCenterLineActionBody
  5
109A0
330
1099F
100
AcDbAssocActionBody
 90
        2
100
AcDbSmartCenterActionBody
 90
        0
  0
ACDBASSOCGEOMDEPENDENCY
  5
109A2
330
1099F
100
AcDbAssocDependency
 90
        2
 90
        0
290
     1
290
     0
290
     1
290
     1
 90
        0
330
2B2E
290
     0
330
10997
330
109A4
360
0
 90
        1
100
AcDbAssocGeomDependency
 90
        0
290
     1
  1
AcDbAssocEdgePersSubentId
 90
        0
 90
        4
 90
        5
290
     0
  0
ACDBASSOCGEOMDEPENDENCY
  5
109A4
330
1099F
100
AcDbAssocDependency
 90
        2
 90
        0
290
     1
290
     0
290
     1
290
     1
 90
        0
330
2B2E
290
     0
330
109A2
330
0
360
0
 90
        2
100
AcDbAssocGeomDependency
 90
        0
290
     1
  1
AcDbAssocEdgePersSubentId
 90
        0
 90
        2
 90
        6
290
     0
  0
ACDBASSOCDEPENDENCY
  5
109A9
330
1099F
100
AcDbAssocDependency
 90
        2
 90
        0
290
     1
290
     1
290
     1
290
     1
 90
        0
330
109A8
290
     0
330
0
330
0
360
0
 90
        3
  0
ACDBASSOCEDGEACTIONPARAM
  5
109A1
330
1099F
100
AcDbAssocActionParam
 90
        1
 90
        0
  1
InputEdge
100
AcDbAssocSingleDependencyActionParam
 90
        0
330
109A2
100
AcDbAssocEdgeActionParam
 90
        0
330
0
290
     1
 90
       23
 10
38750.0
 20
-28250.0
 30
0.0
 10
0.0
 20
56500.0
 30
0.0
  0
ACDBASSOCEDGEACTIONPARAM
  5
109A3
330
1099F
100
AcDbAssocActionParam
 90
        1
 90
        0
  1
InputEdge
100
AcDbAssocSingleDependencyActionParam
 90
        0
330
109A4
100
AcDbAssocEdgeActionParam
 90
        0
330
0
290
     1
 90
       23
 10
-38750.0
 20
28250.0
 30
0.0
 10
0.0
 20
-56500.0
 30
0.0
  0
ENDSEC
  0
EOF
