  0
SECTION
  2
HEADER
  9
$ACADVER
  1
AC1032
  9
$ACADMAINTVER
 90
      174
  9
$DWGCODEPAGE
  3
ANSI_1252
  9
$LASTSAVEDBY
  1
jpgreen
  9
$REQUIREDVERSIONS
160
                 0
  9
$INSBASE
 10
0.0
 20
0.0
 30
0.0
  9
$EXTMIN
 10
-38750.12
 20
-213313.0
 30
0.0
  9
$EXTMAX
 10
108652.828
 20
25000.12
 30
0.0
  9
$LIMMIN
 10
0.0
 20
0.0
  9
$LIMMAX
 10
0.0
 20
0.0
  9
$ORTHOMODE
 70
     0
  9
$REGENMODE
 70
     1
  9
$FILLMODE
 70
     1
  9
$QTEXTMODE
 70
     0
  9
$MIRRTEXT
 70
     1
  9
$LTSCALE
 40
1.0
  9
$ATTMODE
 70
     1
  9
$TEXTSIZE
 40
0.0
  9
$TRACEWID
 40
0.05
  9
$TEXTSTYLE
  7
STANDARD
  9
$CLAYER
  8
0
  9
$CELTYPE
  6
CONTINUOUS
  9
$CECOLOR
 62
   256
  9
$CELTSCALE
 40
1.0
  9
$DISPSILH
 70
     0
  9
$DIMSCALE
 40
1.0
  9
$DIMASZ
 40
0.18
  9
$DIMEXO
 40
0.0625
  9
$DIMDLI
 40
0.38
  9
$DIMRND
 40
0.0
  9
$DIMDLE
 40
0.0
  9
$DIMEXE
 40
0.18
  9
$DIMTP
 40
0.0
  9
$DIMTM
 40
0.0
  9
$DIMTXT
 40
0.18
  9
$DIMCEN
 40
0.09
  9
$DIMTSZ
 40
0.0
  9
$DIMTOL
 70
     0
  9
$DIMLIM
 70
     0
  9
$DIMTIH
 70
     1
  9
$DIMTOH
 70
     1
  9
$DIMSE1
 70
     0
  9
$DIMSE2
 70
     0
  9
$DIMTAD
 70
     0
  9
$DIMZIN
 70
     0
  9
$DIMBLK
  1

  9
$DIMASO
 70
     1
  9
$DIMSHO
 70
     1
  9
$DIMPOST
  1

  9
$DIMAPOST
  1

  9
$DIMALT
 70
     0
  9
$DIMALTD
 70
     2
  9
$DIMALTF
 40
25.4
  9
$DIMLFAC
 40
1.0
  9
$DIMTOFL
 70
     0
  9
$DIMTVP
 40
0.0
  9
$DIMTIX
 70
     0
  9
$DIMSOXD
 70
     0
  9
$DIMSAH
 70
     0
  9
$DIMBLK1
  1

  9
$DIMBLK2
  1

  9
$DIMSTYLE
  2
STANDARD
  9
$DIMCLRD
 70
     0
  9
$DIMCLRE
 70
     0
  9
$DIMCLRT
 70
     0
  9
$DIMTFAC
 40
1.0
  9
$DIMGAP
 40
0.09
  9
$DIMJUST
 70
     0
  9
$DIMSD1
 70
     0
  9
$DIMSD2
 70
     0
  9
$DIMTOLJ
 70
     1
  9
$DIMTZIN
 70
     0
  9
$DIMALTZ
 70
     0
  9
$DIMALTTZ
 70
     0
  9
$DIMUPT
 70
     0
  9
$DIMDEC
 70
     4
  9
$DIMTDEC
 70
     4
  9
$DIMALTU
 70
     2
  9
$DIMALTTD
 70
     2
  9
$DIMTXSTY
  7
STANDARD
  9
$DIMAUNIT
 70
     0
  9
$DIMADEC
 70
     0
  9
$DIMALTRND
 40
0.0
  9
$DIMAZIN
 70
     0
  9
$DIMDSEP
 70
    46
  9
$DIMATFIT
 70
     3
  9
$DIMFRAC
 70
     0
  9
$DIMLDRBLK
  1

  9
$DIMLUNIT
 70
     2
  9
$DIMLWD
 70
    -2
  9
$DIMLWE
 70
    -2
  9
$DIMTMOVE
 70
     0
  9
$DIMFXL
 40
1.0
  9
$DIMFXLON
 70
     0
  9
$DIMJOGANG
 40
0.7853981633974483
  9
$DIMTFILL
 70
     0
  9
$DIMTFILLCLR
 70
     0
  9
$DIMARCSYM
 70
     0
  9
$DIMLTYPE
  6

  9
$DIMLTEX1
  6

  9
$DIMLTEX2
  6

  9
$DIMTXTDIRECTION
 70
     0
  9
$LUNITS
 70
     2
  9
$LUPREC
 70
     4
  9
$SKETCHINC
 40
0.1
  9
$FILLETRAD
 40
0.0
  9
$AUNITS
 70
     0
  9
$AUPREC
 70
     0
  9
$MENU
  1
acad
  9
$ELEVATION
 40
0.0
  9
$PELEVATION
 40
0.0
  9
$THICKNESS
 40
0.0
  9
$LIMCHECK
 70
     0
  9
$CHAMFERA
 40
0.0
  9
$CHAMFERB
 40
0.0
  9
$CHAMFERC
 40
0.0
  9
$CHAMFERD
 40
0.0
  9
$SKPOLY
 70
     0
  9
$TDCREATE
 40
2414622.957627315
  9
$TDUCREATE
 40
2440587.999988426
  9
$TDUPDATE
 40
2459954.363564815
  9
$TDUUPDATE
 40
2459954.655231481
  9
$TDINDWG
 40
0.0014351852
  9
$TDUSRTIMER
 40
0.0014351852
  9
$USRTIMER
 70
     1
  9
$ANGBASE
 50
0.0
  9
$ANGDIR
 70
     0
  9
$PDMODE
 70
     0
  9
$PDSIZE
 40
0.0
  9
$PLINEWID
 40
0.0
  9
$SPLFRAME
 70
     0
  9
$SPLINETYPE
 70
     6
  9
$SPLINESEGS
 70
     8
  9
$HANDSEED
  5
92BB
  9
$SURFTAB1
 70
     6
  9
$SURFTAB2
 70
     6
  9
$SURFTYPE
 70
     6
  9
$SURFU
 70
     6
  9
$SURFV
 70
     6
  9
$UCSBASE
  2

  9
$UCSNAME
  2

  9
$UCSORG
 10
0.0
 20
0.0
 30
0.0
  9
$UCSXDIR
 10
1.0
 20
0.0
 30
0.0
  9
$UCSYDIR
 10
0.0
 20
1.0
 30
0.0
  9
$UCSORTHOREF
  2

  9
$UCSORTHOVIEW
 70
     0
  9
$UCSORGTOP
 10
0.0
 20
0.0
 30
0.0
  9
$UCSORGBOTTOM
 10
0.0
 20
0.0
 30
0.0
  9
$UCSORGLEFT
 10
0.0
 20
0.0
 30
0.0
  9
$UCSORGRIGHT
 10
0.0
 20
0.0
 30
0.0
  9
$UCSORGFRONT
 10
0.0
 20
0.0
 30
0.0
  9
$UCSORGBACK
 10
0.0
 20
0.0
 30
0.0
  9
$PUCSBASE
  2

  9
$PUCSNAME
  2

  9
$PUCSORG
 10
0.0
 20
0.0
 30
0.0
  9
$PUCSXDIR
 10
1.0
 20
0.0
 30
0.0
  9
$PUCSYDIR
 10
0.0
 20
1.0
 30
0.0
  9
$PUCSORTHOREF
  2

  9
$PUCSORTHOVIEW
 70
     0
  9
$PUCSORGTOP
 10
0.0
 20
0.0
 30
0.0
  9
$PUCSORGBOTTOM
 10
0.0
 20
0.0
 30
0.0
  9
$PUCSORGLEFT
 10
0.0
 20
0.0
 30
0.0
  9
$PUCSORGRIGHT
 10
0.0
 20
0.0
 30
0.0
  9
$PUCSORGFRONT
 10
0.0
 20
0.0
 30
0.0
  9
$PUCSORGBACK
 10
0.0
 20
0.0
 30
0.0
  9
$USERI1
 70
    -4
  9
$USERI2
 70
     0
  9
$USERI3
 70
     0
  9
$USERI4
 70
     0
  9
$USERI5
 70
     0
  9
$USERR1
 40
0.0
  9
$USERR2
 40
0.0
  9
$USERR3
 40
0.0
  9
$USERR4
 40
0.0
  9
$USERR5
 40
0.0
  9
$WORLDVIEW
 70
     1
  9
$SHADEDGE
 70
     3
  9
$SHADEDIF
 70
    70
  9
$TILEMODE
 70
     1
  9
$MAXACTVP
 70
    16
  9
$PINSBASE
 10
0.0
 20
0.0
 30
0.0
  9
$PLIMCHECK
 70
     0
  9
$PEXTMIN
 10
1.000000000000000E+20
 20
1.000000000000000E+20
 30
1.000000000000000E+20
  9
$PEXTMAX
 10
-1.000000000000000E+20
 20
-1.000000000000000E+20
 30
-1.000000000000000E+20
  9
$PLIMMIN
 10
0.0
 20
0.0
  9
$PLIMMAX
 10
12.0
 20
9.0
  9
$UNITMODE
 70
     0
  9
$VISRETAIN
 70
     0
  9
$PLINEGEN
 70
     1
  9
$PSLTSCALE
 70
     0
  9
$TREEDEPTH
 70
  3020
  9
$CMLSTYLE
  2
STANDARD
  9
$CMLJUST
 70
     0
  9
$CMLSCALE
 40
1.0
  9
$PROXYGRAPHICS
 70
     0
  9
$MEASUREMENT
 70
     0
  9
$CELWEIGHT
370
    -1
  9
$ENDCAPS
280
     0
  9
$JOINSTYLE
280
     0
  9
$LWDISPLAY
290
     0
  9
$INSUNITS
 70
     0
  9
$HYPERLINKBASE
  1

  9
$STYLESHEET
  1

  9
$XEDIT
290
     1
  9
$CEPSNTYPE
380
     0
  9
$PSTYLEMODE
290
     1
  9
$FINGERPRINTGUID
  2
{DBAF6345-DC00-AA49-9C9D-A5B2FAAAAA14}
  9
$VERSIONGUID
  2
{C880D5C8-BADD-204F-A18B-0D60BFDB60C4}
  9
$EXTNAMES
290
     1
  9
$PSVPSCALE
 40
0.0
  9
$OLESTARTUP
290
     0
  9
$SORTENTS
280
   127
  9
$INDEXCTL
280
     0
  9
$HIDETEXT
280
     0
  9
$XCLIPFRAME
280
     2
  9
$HALOGAP
280
     0
  9
$OBSCOLOR
 70
   257
  9
$OBSLTYPE
280
     0
  9
$INTERSECTIONDISPLAY
280
     0
  9
$INTERSECTIONCOLOR
 70
   257
  9
$DIMASSOC
280
     1
  9
$PROJECTNAME
  1

  9
$CAMERADISPLAY
290
     0
  9
$LENSLENGTH
 40
50.0
  9
$CAMERAHEIGHT
 40
0.0
  9
$STEPSPERSEC
 40
2.0
  9
$STEPSIZE
 40
6.0
  9
$3DDWFPREC
 40
2.0
  9
$PSOLWIDTH
 40
0.25
  9
$PSOLHEIGHT
 40
4.0
  9
$LOFTANG1
 40
1.570796326794896
  9
$LOFTANG2
 40
1.570796326794896
  9
$LOFTMAG1
 40
0.0
  9
$LOFTMAG2
 40
0.0
  9
$LOFTPARAM
 70
     7
  9
$LOFTNORMALS
280
     1
  9
$LATITUDE
 40
37.795
  9
$LONGITUDE
 40
-122.394
  9
$NORTHDIRECTION
 40
0.0
  9
$TIMEZONE
 70
 -8000
  9
$LIGHTGLYPHDISPLAY
280
     1
  9
$TILEMODELIGHTSYNCH
280
     1
  9
$CMATERIAL
347
922D
  9
$SOLIDHIST
280
     0
  9
$SHOWHIST
280
     1
  9
$DWFFRAME
280
     2
  9
$DGNFRAME
280
     0
  9
$REALWORLDSCALE
290
     1
  9
$INTERFERECOLOR
 62
     1
  9
$INTERFEREOBJVS
345
924F
  9
$INTERFEREVPVS
346
924C
  9
$CSHADOW
280
     0
  9
$SHADOWPLANELOCATION
 40
0.0
  0
ENDSEC
  0
SECTION
  2
CLASSES
  0
CLASS
  1
IMAGE
  2
AcDbRasterImage
  3
ISM
 90
     2175
 91
        0
280
     0
281
     1
  0
CLASS
  1
DICTIONARYVAR
  2
AcDbDictionaryVar
  3
ObjectDBX Classes
 90
        0
 91
        9
280
     0
281
     0
  0
CLASS
  1
RASTERVARIABLES
  2
AcDbRasterVariables
  3
ISM
 90
        0
 91
        0
280
     0
281
     0
  0
CLASS
  1
IMAGEDEF
  2
AcDbRasterImageDef
  3
ISM
 90
        0
 91
        0
280
     0
281
     0
  0
CLASS
  1
IMAGEDEF_REACTOR
  2
AcDbRasterImageDefReactor
  3
ISM
 90
        1
 91
        0
280
     0
281
     0
  0
CLASS
  1
IDBUFFER
  2
AcDbIdBuffer
  3
ObjectDBX Classes
 90
        0
 91
        0
280
     0
281
     0
  0
CLASS
  1
SPATIAL_FILTER
  2
AcDbSpatialFilter
  3
ObjectDBX Classes
 90
        0
 91
        0
280
     0
281
     0
  0
CLASS
  1
SORTENTSTABLE
  2
AcDbSortentsTable
  3
ObjectDBX Classes
 90
        0
 91
        0
280
     0
281
     0
  0
CLASS
  1
LAYER_INDEX
  2
AcDbLayerIndex
  3
ObjectDBX Classes
 90
        0
 91
        0
280
     0
281
     0
  0
CLASS
  1
SPATIAL_INDEX
  2
AcDbSpatialIndex
  3
ObjectDBX Classes
 90
        0
 91
        0
280
     0
281
     0
  0
CLASS
  1
OBJECT_PTR
  2
CAseDLPNTableRecord
  3
ASE-LPNTableRecord
 90
        1
 91
        0
280
     0
281
     0
  0
CLASS
  1
PLOTSETTINGS
  2
AcDbPlotSettings
  3
ObjectDBX Classes
 90
        0
 91
        0
280
     0
281
     0
  0
CLASS
  1
ACDBDICTIONARYWDFLT
  2
AcDbDictionaryWithDefault
  3
ObjectDBX Classes
 90
        0
 91
        1
280
     0
281
     0
  0
CLASS
  1
WIPEOUT
  2
AcDbWipeout
  3
WipeOut|Product Desc: Object Enabler for WipeOut entity | Company: Autodesk, Inc. | WEB Address: www.autodesk.com
 90
     2175
 91
        0
280
     0
281
     1
  0
CLASS
  1
WIPEOUTVARIABLES
  2
AcDbWipeoutVariables
  3
"WipeOut|Product Desc:     WipeOut Dbx Application|Company:          Autodesk, Inc.|WEB Address:      www.autodesk.com"
 90
        0
 91
        0
280
     0
281
     0
  0
CLASS
  1
RTEXT
  2
RText
  3
RText|AutoCAD Express Tool|expresstools@autodesk.com
 90
     3071
 91
        0
280
     0
281
     1
  0
CLASS
  1
ARCALIGNEDTEXT
  2
AcDbArcAlignedText
  3
ATEXT|AutoCAD Express Tool|expresstools@autodesk.com
 90
        0
 91
        0
280
     0
281
     1
  0
CLASS
  1
MATERIAL
  2
AcDbMaterial
  3
ObjectDBX Classes
 90
     1153
 91
        3
280
     0
281
     0
  0
CLASS
  1
VISUALSTYLE
  2
AcDbVisualStyle
  3
ObjectDBX Classes
 90
     4095
 91
       24
280
     0
281
     0
  0
CLASS
  1
TABLESTYLE
  2
AcDbTableStyle
  3
ObjectDBX Classes
 90
     4095
 91
        1
280
     0
281
     0
  0
CLASS
  1
SCALE
  2
AcDbScale
  3
ObjectDBX Classes
 90
     1153
 91
       17
280
     0
281
     0
  0
CLASS
  1
MLEADERSTYLE
  2
AcDbMLeaderStyle
  3
ACDB_MLEADERSTYLE_CLASS
 90
     4095
 91
        1
280
     0
281
     0
  0
CLASS
  1
ACDBSECTIONVIEWSTYLE
  2
AcDbSectionViewStyle
  3
ObjectDBX Classes
 90
     1025
 91
        1
280
     0
281
     0
  0
CLASS
  1
ACDBDETAILVIEWSTYLE
  2
AcDbDetailViewStyle
  3
ObjectDBX Classes
 90
     1025
 91
        1
280
     0
281
     0
  0
CLASS
  1
ACDBASSOCNETWORK
  2
AcDbAssocNetwork
  3
ObjectDBX Classes
 90
     1025
 91
        2
280
     0
281
     0
  0
CLASS
  1
ACDBASSOCACTION
  2
AcDbAssocAction
  3
ObjectDBX Classes
 90
     1025
 91
        2
280
     0
281
     0
  0
CLASS
  1
AcDbCenterLineActionBody
  2
AcDbCenterLineActionBody
  3
AcDbSmartCenter
 90
     1153
 91
        2
280
     0
281
     0
  0
CLASS
  1
ACDBASSOCEDGEACTIONPARAM
  2
AcDbAssocEdgeActionParam
  3
ObjectDBX Classes
 90
     1025
 91
        4
280
     0
281
     0
  0
CLASS
  1
ACDBASSOCGEOMDEPENDENCY
  2
AcDbAssocGeomDependency
  3
ObjectDBX Classes
 90
     1025
 91
        4
280
     0
281
     0
  0
CLASS
  1
ACDBASSOCDEPENDENCY
  2
AcDbAssocDependency
  3
ObjectDBX Classes
 90
     1025
 91
        2
280
     0
281
     0
  0
CLASS
  1
CELLSTYLEMAP
  2
AcDbCellStyleMap
  3
ObjectDBX Classes
 90
     1152
 91
        1
280
     0
281
     0
  0
ENDSEC
  0
SECTION
  2
TABLES
  0
TABLE
  2
VPORT
  5
7
330
0
100
AcDbSymbolTable
 70
     1
  0
VPORT
  5
13
330
7
100
AcDbSymbolTableRecord
100
AcDbViewportTableRecord
  2
*ACTIVE
 70
     0
 10
0.0
 20
0.0
 11
1.0
 21
1.0
 12
-66139.43465957698
 22
-5556.901145391937
 13
0.0
 23
0.0
 14
1.0
 24
1.0
 15
0.0
 25
0.0
 16
0.0
 26
0.0
 36
1.0
 17
0.0
 27
0.0
 37
0.0
 40
151735.7843585488
 41
2.065662002152852
 42
50.0
 43
0.0
 44
0.0
 50
0.0
 51
0.0
 71
     0
 72
   100
 73
     1
 74
     1
 75
     0
 76
     0
 77
     0
 78
     0
281
     0
 65
     1
110
0.0
120
0.0
130
0.0
111
1.0
121
0.0
131
0.0
112
0.0
122
1.0
132
0.0
 79
     0
146
0.0
348
924B
 60
     3
 61
     5
292
     1
282
     1
141
0.0
142
0.0
 63
   250
421
  3355443
1001
ACAD_NAV_VCDISPLAY
1070
     3
  0
ENDTAB
  0
TABLE
  2
LTYPE
  5
4
330
0
100
AcDbSymbolTable
 70
     2
  0
LTYPE
  5
10
330
4
100
AcDbSymbolTableRecord
100
AcDbLinetypeTableRecord
  2
BYBLOCK
 70
     0
  3

 72
    65
 73
     0
 40
0.0
  0
LTYPE
  5
11
330
4
100
AcDbSymbolTableRecord
100
AcDbLinetypeTableRecord
  2
BYLAYER
 70
     0
  3

 72
    65
 73
     0
 40
0.0
  0
LTYPE
  5
12
330
4
100
AcDbSymbolTableRecord
100
AcDbLinetypeTableRecord
  2
CONTINUOUS
 70
     0
  3
Solid Line
 72
    65
 73
     0
 40
0.0
  0
LTYPE
  5
928E
330
4
100
AcDbSymbolTableRecord
100
AcDbLinetypeTableRecord
  2
CENTER2
 70
     0
  3
Center (.5x) ___ _ ___ _ ___ _ ___ _ ___ _ ___
 72
    65
 73
     4
 40
1.125
 49
0.75
 74
     0
 49
-0.125
 74
     0
 49
0.125
 74
     0
 49
-0.125
 74
     0
  0
ENDTAB
  0
TABLE
  2
LAYER
  5
2
330
0
100
AcDbSymbolTable
 70
     6
  0
LAYER
  5
2489
102
{ACAD_XDICTIONARY
360
929D
102
}
330
2
100
AcDbSymbolTableRecord
100
AcDbLayerTableRecord
  2
0
 70
     0
 62
     7
  6
CONTINUOUS
370
    -3
390
922B
347
923D
348
0
  0
LAYER
  5
248A
102
{ACAD_XDICTIONARY
360
929F
102
}
330
2
100
AcDbSymbolTableRecord
100
AcDbLayerTableRecord
  2
PHOTOPLOT
 70
     0
 62
    37
  6
CONTINUOUS
370
    -3
390
922B
347
923D
348
0
  0
LAYER
  5
248B
102
{ACAD_XDICTIONARY
360
92A1
102
}
330
2
100
AcDbSymbolTableRecord
100
AcDbLayerTableRecord
  2
PIN_NOTATIONS
 70
     0
 62
   221
  6
CONTINUOUS
370
    -3
390
922B
347
923D
348
0
  0
LAYER
  5
248C
102
{ACAD_XDICTIONARY
360
92A3
102
}
330
2
100
AcDbSymbolTableRecord
100
AcDbLayerTableRecord
  2
SOLDERMASK_PADS_BTM
 70
     0
 62
    12
  6
CONTINUOUS
370
    -3
390
922B
347
923D
348
0
  0
LAYER
  5
248D
102
{ACAD_XDICTIONARY
360
92A5
102
}
330
2
100
AcDbSymbolTableRecord
100
AcDbLayerTableRecord
  2
TEXT_BSR
 70
     0
 62
   200
  6
CONTINUOUS
370
    -3
390
922B
347
923D
348
0
  0
LAYER
  5
248E
102
{ACAD_XDICTIONARY
360
92A7
102
}
330
2
100
AcDbSymbolTableRecord
100
AcDbLayerTableRecord
  2
PKG_OUTLINE
 70
     0
 62
    81
  6
CONTINUOUS
370
    -3
390
922B
347
923D
348
0
  0
ENDTAB
  0
TABLE
  2
STYLE
  5
3
330
0
100
AcDbSymbolTable
 70
     3
  0
STYLE
  5
248F
330
3
100
AcDbSymbolTableRecord
100
AcDbTextStyleTableRecord
  2
STANDARD
 70
     0
 40
0.0
 41
1.0
 50
0.0
 71
     0
 42
0.0
  3
txt
  4

  0
STYLE
  5
2490
330
3
100
AcDbSymbolTableRecord
100
AcDbTextStyleTableRecord
  2
ARIAL
 70
     0
 40
0.0
 41
1.0
 50
0.0
 71
     0
 42
0.0
  3
arial.ttf
  4

1001
ACAD
1000
Arial
1071
       34
  0
STYLE
  5
2491
330
3
100
AcDbSymbolTableRecord
100
AcDbTextStyleTableRecord
  2
VF_STD
 70
     0
 40
0.0
 41
1.0
 50
0.0
 71
     0
 42
0.0
  3
txt
  4

  0
ENDTAB
  0
TABLE
  2
VIEW
  5
5
330
0
100
AcDbSymbolTable
 70
     0
  0
ENDTAB
  0
TABLE
  2
UCS
  5
6
330
0
100
AcDbSymbolTable
 70
     0
  0
ENDTAB
  0
TABLE
  2
APPID
  5
8
330
0
100
AcDbSymbolTable
 70
     3
  0
APPID
  5
14
330
8
100
AcDbSymbolTableRecord
100
AcDbRegAppTableRecord
  2
ACAD
 70
     0
  0
APPID
  5
92AB
330
8
100
AcDbSymbolTableRecord
100
AcDbRegAppTableRecord
  2
DCO15
 70
     0
  0
APPID
  5
92B7
330
8
100
AcDbSymbolTableRecord
100
AcDbRegAppTableRecord
  2
ACAD_NAV_VCDISPLAY
 70
     0
  0
ENDTAB
  0
TABLE
  2
DIMSTYLE
  5
9
330
0
100
AcDbSymbolTable
 70
     1
100
AcDbDimStyleTable
 71
     0
  0
DIMSTYLE
105
15
330
9
100
AcDbSymbolTableRecord
100
AcDbDimStyleTableRecord
  2
STANDARD
 70
     0
340
17
  0
ENDTAB
  0
TABLE
  2
BLOCK_RECORD
  5
1
330
0
100
AcDbSymbolTable
 70
     2
  0
BLOCK_RECORD
  5
A
102
{ACAD_XDICTIONARY
360
927F
102
}
330
1
100
AcDbSymbolTableRecord
100
AcDbBlockTableRecord
  2
*MODEL_SPACE
340
927B
 70
     0
280
     1
281
     0
  0
BLOCK_RECORD
  5
B
330
1
100
AcDbSymbolTableRecord
100
AcDbBlockTableRecord
  2
*PAPER_SPACE
340
927C
 70
     0
280
     1
281
     0
  0
BLOCK_RECORD
  5
928A
330
1
100
AcDbSymbolTableRecord
100
AcDbBlockTableRecord
  2
*U0
340
0
102
{BLKREFS
331
928D
102
}
 70
     0
280
     1
281
     0
  0
BLOCK_RECORD
  5
9297
330
1
100
AcDbSymbolTableRecord
100
AcDbBlockTableRecord
  2
*U1
340
0
102
{BLKREFS
331
929A
102
}
 70
     0
280
     1
281
     0
  0
ENDTAB
  0
ENDSEC
  0
SECTION
  2
BLOCKS
  0
BLOCK
  5
C
330
A
100
AcDbEntity
  8
0
100
AcDbBlockBegin
  2
*MODEL_SPACE
 70
     0
 10
0.0
 20
0.0
 30
0.0
  3
*MODEL_SPACE
  1

  0
ENDBLK
  5
D
330
A
100
AcDbEntity
  8
0
100
AcDbBlockEnd
  0
BLOCK
  5
E
330
B
100
AcDbEntity
 67
     1
  8
0
100
AcDbBlockBegin
  2
*PAPER_SPACE
 70
     0
 10
0.0
 20
0.0
 30
0.0
  3
*PAPER_SPACE
  1

  0
ENDBLK
  5
F
330
B
100
AcDbEntity
 67
     1
  8
0
100
AcDbBlockEnd
  0
BLOCK
  5
928B
330
928A
100
AcDbEntity
  8
0
100
AcDbBlockBegin
  2
*U0
 70
     1
 10
0.0
 20
0.0
 30
0.0
  3
*U0
  1

  0
LINE
  5
9290
330
928A
100
AcDbEntity
  8
0
  6
CENTER2
 62
     0
440
 16777216
100
AcDbLine
 10
0.0
 20
-25000.12
 30
0.0
 11
0.0
 21
25000.12
 31
0.0
  0
ENDBLK
  5
928C
330
928A
100
AcDbEntity
  8
0
100
AcDbBlockEnd
  0
BLOCK
  5
9298
330
9297
100
AcDbEntity
  8
0
100
AcDbBlockBegin
  2
*U1
 70
     1
 10
0.0
 20
0.0
 30
0.0
  3
*U1
  1

  0
LINE
  5
929C
330
9297
100
AcDbEntity
  8
0
  6
CENTER2
 62
     0
440
 16777216
100
AcDbLine
 10
-38750.12
 20
0.0
 30
0.0
 11
38750.12
 21
0.0
 31
0.0
  0
ENDBLK
  5
9299
330
9297
100
AcDbEntity
  8
0
100
AcDbBlockEnd
  0
ENDSEC
  0
SECTION
  2
ENTITIES
  0
SOLID
  5
12B
330
A
100
AcDbEntity
  8
SOLDERMASK_PADS_BTM
100
AcDbTrace
 10
3373.002
 20
6800.0
 30
0.0
 11
3749.002
 21
6800.0
 31
0.0
 12
3373.002
 22
7300.0
 32
0.0
 13
3749.002
 23
7300.0
 33
0.0
  0
SOLID
  5
12C
330
A
100
AcDbEntity
  8
SOLDERMASK_PADS_BTM
100
AcDbTrace
 10
4199.002000000001
 20
6800.0
 30
0.0
 11
4575.002
 21
6800.0
 31
0.0
 12
4199.002000000001
 22
7300.0
 32
0.0
 13
4575.002
 23
7300.0
 33
0.0
  0
SOLID
  5
12D
330
A
100
AcDbEntity
  8
SOLDERMASK_PADS_BTM
100
AcDbTrace
 10
-3887.0
 20
6850.0
 30
0.0
 11
-3511.0
 21
6850.0
 31
0.0
 12
-3887.0
 22
7350.0
 32
0.0
 13
-3511.0
 23
7350.0
 33
0.0
  0
SOLID
  5
12E
330
A
100
AcDbEntity
  8
SOLDERMASK_PADS_BTM
100
AcDbTrace
 10
-3061.0
 20
6850.0
 30
0.0
 11
-2685.0
 21
6850.0
 31
0.0
 12
-3061.0
 22
7350.0
 32
0.0
 13
-2685.0
 23
7350.0
 33
0.0
  0
SOLID
  5
12F
330
A
100
AcDbEntity
  8
SOLDERMASK_PADS_BTM
100
AcDbTrace
 10
1294.998
 20
6100.0
 30
0.0
 11
1670.998
 21
6100.0
 31
0.0
 12
1294.998
 22
6600.0
 32
0.0
 13
1670.998
 23
6600.0
 33
0.0
  0
SOLID
  5
130
330
A
100
AcDbEntity
  8
SOLDERMASK_PADS_BTM
100
AcDbTrace
 10
468.998
 20
6100.0
 30
0.0
 11
844.998
 21
6100.0
 31
0.0
 12
468.998
 22
6600.0
 32
0.0
 13
844.998
 23
6600.0
 33
0.0
  0
SOLID
  5
131
330
A
100
AcDbEntity
  8
SOLDERMASK_PADS_BTM
100
AcDbTrace
 10
-1609.0
 20
6850.0
 30
0.0
 11
-1233.0
 21
6850.0
 31
0.0
 12
-1609.0
 22
7350.0
 32
0.0
 13
-1233.0
 23
7350.0
 33
0.0
  0
SOLID
  5
132
330
A
100
AcDbEntity
  8
SOLDERMASK_PADS_BTM
100
AcDbTrace
 10
-2435.0
 20
6850.0
 30
0.0
 11
-2059.0
 21
6850.0
 31
0.0
 12
-2435.0
 22
7350.0
 32
0.0
 13
-2059.0
 23
7350.0
 33
0.0
  0
SOLID
  5
133
330
A
100
AcDbEntity
  8
SOLDERMASK_PADS_BTM
100
AcDbTrace
 10
-7417.0
 20
4917.213
 30
0.0
 11
-7041.0
 21
4917.213
 31
0.0
 12
-7417.0
 22
5417.213000000001
 32
0.0
 13
-7041.0
 23
5417.213000000001
 33
0.0
  0
SOLID
  5
134
330
A
100
AcDbEntity
  8
SOLDERMASK_PADS_BTM
100
AcDbTrace
 10
-8243.0
 20
4917.213
 30
0.0
 11
-7867.0
 21
4917.213
 31
0.0
 12
-8243.0
 22
5417.213000000001
 32
0.0
 13
-7867.0
 23
5417.213000000001
 33
0.0
  0
SOLID
  5
135
330
A
100
AcDbEntity
  8
SOLDERMASK_PADS_BTM
100
AcDbTrace
 10
4199.002000000001
 20
4877.0
 30
0.0
 11
4575.002
 21
4877.0
 31
0.0
 12
4199.002000000001
 22
5377.0
 32
0.0
 13
4575.002
 23
5377.0
 33
0.0
  0
SOLID
  5
136
330
A
100
AcDbEntity
  8
SOLDERMASK_PADS_BTM
100
AcDbTrace
 10
3373.002
 20
4877.0
 30
0.0
 11
3749.002
 21
4877.0
 31
0.0
 12
3373.002
 22
5377.0
 32
0.0
 13
3749.002
 23
5377.0
 33
0.0
  0
SOLID
  5
137
330
A
100
AcDbEntity
  8
SOLDERMASK_PADS_BTM
100
AcDbTrace
 10
-3887.0
 20
2916.737
 30
0.0
 11
-3511.0
 21
2916.737
 31
0.0
 12
-3887.0
 22
3416.737
 32
0.0
 13
-3511.0
 23
3416.737
 33
0.0
  0
SOLID
  5
138
330
A
100
AcDbEntity
  8
SOLDERMASK_PADS_BTM
100
AcDbTrace
 10
-3061.0
 20
2916.737
 30
0.0
 11
-2685.0
 21
2916.737
 31
0.0
 12
-3061.0
 22
3416.737
 32
0.0
 13
-2685.0
 23
3416.737
 33
0.0
  0
SOLID
  5
139
330
A
100
AcDbEntity
  8
SOLDERMASK_PADS_BTM
100
AcDbTrace
 10
-5965.0
 20
4927.0
 30
0.0
 11
-5589.0
 21
4927.0
 31
0.0
 12
-5965.0
 22
5427.0
 32
0.0
 13
-5589.0
 23
5427.0
 33
0.0
  0
SOLID
  5
13A
330
A
100
AcDbEntity
  8
SOLDERMASK_PADS_BTM
100
AcDbTrace
 10
-6791.0
 20
4927.0
 30
0.0
 11
-6415.0
 21
4927.0
 31
0.0
 12
-6791.0
 22
5427.0
 32
0.0
 13
-6415.0
 23
5427.0
 33
0.0
  0
SOLID
  5
13B
330
A
100
AcDbEntity
  8
SOLDERMASK_PADS_BTM
100
AcDbTrace
 10
2747.0
 20
1953.0
 30
0.0
 11
3123.0
 21
1953.0
 31
0.0
 12
2747.0
 22
2453.0
 32
0.0
 13
3123.0
 23
2453.0
 33
0.0
  0
SOLID
  5
13C
330
A
100
AcDbEntity
  8
SOLDERMASK_PADS_BTM
100
AcDbTrace
 10
1921.0
 20
1953.0
 30
0.0
 11
2297.0
 21
1953.0
 31
0.0
 12
1921.0
 22
2453.0
 32
0.0
 13
2297.0
 23
2453.0
 33
0.0
  0
SOLID
  5
13D
330
A
100
AcDbEntity
  8
SOLDERMASK_PADS_BTM
100
AcDbTrace
 10
-1609.0
 20
2866.737
 30
0.0
 11
-1233.0
 21
2866.737
 31
0.0
 12
-1609.0
 22
3366.737
 32
0.0
 13
-1233.0
 23
3366.737
 33
0.0
  0
SOLID
  5
13E
330
A
100
AcDbEntity
  8
SOLDERMASK_PADS_BTM
100
AcDbTrace
 10
-2435.0
 20
2866.737
 30
0.0
 11
-2059.0
 21
2866.737
 31
0.0
 12
-2435.0
 22
3366.737
 32
0.0
 13
-2059.0
 23
3366.737
 33
0.0
  0
SOLID
  5
13F
330
A
100
AcDbEntity
  8
SOLDERMASK_PADS_BTM
100
AcDbTrace
 10
-5339.0
 20
1953.0
 30
0.0
 11
-4963.0
 21
1953.0
 31
0.0
 12
-5339.0
 22
2453.0
 32
0.0
 13
-4963.0
 23
2453.0
 33
0.0
  0
SOLID
  5
140
330
A
100
AcDbEntity
  8
SOLDERMASK_PADS_BTM
100
AcDbTrace
 10
-4513.0
 20
1953.0
 30
0.0
 11
-4137.0
 21
1953.0
 31
0.0
 12
-4513.0
 22
2453.0
 32
0.0
 13
-4137.0
 23
2453.0
 33
0.0
  0
SOLID
  5
141
330
A
100
AcDbEntity
  8
SOLDERMASK_PADS_BTM
100
AcDbTrace
 10
3373.002
 20
1953.0
 30
0.0
 11
3749.002
 21
1953.0
 31
0.0
 12
3373.002
 22
2453.0
 32
0.0
 13
3749.002
 23
2453.0
 33
0.0
  0
SOLID
  5
142
330
A
100
AcDbEntity
  8
SOLDERMASK_PADS_BTM
100
AcDbTrace
 10
4199.002000000001
 20
1953.0
 30
0.0
 11
4575.002
 21
1953.0
 31
0.0
 12
4199.002000000001
 22
2453.0
 32
0.0
 13
4575.002
 23
2453.0
 33
0.0
  0
SOLID
  5
143
330
A
100
AcDbEntity
  8
SOLDERMASK_PADS_BTM
100
AcDbTrace
 10
4199.002000000001
 20
-1425.0
 30
0.0
 11
4575.002
 21
-1425.0
 31
0.0
 12
4199.002000000001
 22
-925.0
 32
0.0
 13
4575.002
 23
-925.0
 33
0.0
  0
SOLID
  5
144
330
A
100
AcDbEntity
  8
SOLDERMASK_PADS_BTM
100
AcDbTrace
 10
3373.002
 20
-1425.0
 30
0.0
 11
3749.002
 21
-1425.0
 31
0.0
 12
3373.002
 22
-925.0
 32
0.0
 13
3749.002
 23
-925.0
 33
0.0
  0
SOLID
  5
145
330
A
100
AcDbEntity
  8
SOLDERMASK_PADS_BTM
100
AcDbTrace
 10
-3061.0
 20
1953.0
 30
0.0
 11
-2685.0
 21
1953.0
 31
0.0
 12
-3061.0
 22
2453.0
 32
0.0
 13
-2685.0
 23
2453.0
 33
0.0
  0
SOLID
  5
146
330
A
100
AcDbEntity
  8
SOLDERMASK_PADS_BTM
100
AcDbTrace
 10
-3887.0
 20
1953.0
 30
0.0
 11
-3511.0
 21
1953.0
 31
0.0
 12
-3887.0
 22
2453.0
 32
0.0
 13
-3511.0
 23
2453.0
 33
0.0
  0
SOLID
  5
147
330
A
100
AcDbEntity
  8
SOLDERMASK_PADS_BTM
100
AcDbTrace
 10
4825.003999999999
 20
-4350.0
 30
0.0
 11
5201.004000000001
 21
-4350.0
 31
0.0
 12
4825.003999999999
 22
-3850.0
 32
0.0
 13
5201.004000000001
 23
-3850.0
 33
0.0
  0
SOLID
  5
148
330
A
100
AcDbEntity
  8
SOLDERMASK_PADS_BTM
100
AcDbTrace
 10
5651.004
 20
-4350.0
 30
0.0
 11
6027.004
 21
-4350.0
 31
0.0
 12
5651.004
 22
-3850.0
 32
0.0
 13
6027.004
 23
-3850.0
 33
0.0
  0
SOLID
  5
149
330
A
100
AcDbEntity
  8
SOLDERMASK_PADS_BTM
100
AcDbTrace
 10
-983.0
 20
-2175.0
 30
0.0
 11
-607.0
 21
-2175.0
 31
0.0
 12
-983.0
 22
-1675.0
 32
0.0
 13
-607.0
 23
-1675.0
 33
0.0
  0
SOLID
  5
14A
330
A
100
AcDbEntity
  8
SOLDERMASK_PADS_BTM
100
AcDbTrace
 10
-157.0
 20
-2175.0
 30
0.0
 11
219.0
 21
-2175.0
 31
0.0
 12
-157.0
 22
-1675.0
 32
0.0
 13
219.0
 23
-1675.0
 33
0.0
  0
SOLID
  5
14B
330
A
100
AcDbEntity
  8
SOLDERMASK_PADS_BTM
100
AcDbTrace
 10
4825.003999999999
 20
-2100.0
 30
0.0
 11
5201.004000000001
 21
-2100.0
 31
0.0
 12
4825.003999999999
 22
-1600.0
 32
0.0
 13
5201.004000000001
 23
-1600.0
 33
0.0
  0
SOLID
  5
14C
330
A
100
AcDbEntity
  8
SOLDERMASK_PADS_BTM
100
AcDbTrace
 10
5651.004
 20
-2100.0
 30
0.0
 11
6027.004
 21
-2100.0
 31
0.0
 12
5651.004
 22
-1600.0
 32
0.0
 13
6027.004
 23
-1600.0
 33
0.0
  0
SOLID
  5
14D
330
A
100
AcDbEntity
  8
SOLDERMASK_PADS_BTM
100
AcDbTrace
 10
-4513.0
 20
-2925.0
 30
0.0
 11
-4137.0
 21
-2925.0
 31
0.0
 12
-4513.0
 22
-2425.0
 32
0.0
 13
-4137.0
 23
-2425.0
 33
0.0
  0
SOLID
  5
14E
330
A
100
AcDbEntity
  8
SOLDERMASK_PADS_BTM
100
AcDbTrace
 10
-5339.0
 20
-2925.0
 30
0.0
 11
-4963.0
 21
-2925.0
 31
0.0
 12
-5339.0
 22
-2425.0
 32
0.0
 13
-4963.0
 23
-2425.0
 33
0.0
  0
SOLID
  5
14F
330
A
100
AcDbEntity
  8
SOLDERMASK_PADS_BTM
100
AcDbTrace
 10
-3887.0
 20
-4425.0
 30
0.0
 11
-3511.0
 21
-4425.0
 31
0.0
 12
-3887.0
 22
-3925.0
 32
0.0
 13
-3511.0
 23
-3925.0
 33
0.0
  0
SOLID
  5
150
330
A
100
AcDbEntity
  8
SOLDERMASK_PADS_BTM
100
AcDbTrace
 10
-3061.0
 20
-4425.0
 30
0.0
 11
-2685.0
 21
-4425.0
 31
0.0
 12
-3061.0
 22
-3925.0
 32
0.0
 13
-2685.0
 23
-3925.0
 33
0.0
  0
SOLID
  5
151
330
A
100
AcDbEntity
  8
SOLDERMASK_PADS_BTM
100
AcDbTrace
 10
1294.998
 20
-2925.0
 30
0.0
 11
1670.998
 21
-2925.0
 31
0.0
 12
1294.998
 22
-2425.0
 32
0.0
 13
1670.998
 23
-2425.0
 33
0.0
  0
SOLID
  5
152
330
A
100
AcDbEntity
  8
SOLDERMASK_PADS_BTM
100
AcDbTrace
 10
468.998
 20
-2925.0
 30
0.0
 11
844.998
 21
-2925.0
 31
0.0
 12
468.998
 22
-2425.0
 32
0.0
 13
844.998
 23
-2425.0
 33
0.0
  0
SOLID
  5
153
330
A
100
AcDbEntity
  8
SOLDERMASK_PADS_BTM
100
AcDbTrace
 10
-8243.0
 20
-5100.0
 30
0.0
 11
-7867.0
 21
-5100.0
 31
0.0
 12
-8243.0
 22
-4600.0
 32
0.0
 13
-7867.0
 23
-4600.0
 33
0.0
  0
SOLID
  5
154
330
A
100
AcDbEntity
  8
SOLDERMASK_PADS_BTM
100
AcDbTrace
 10
-7417.0
 20
-5100.0
 30
0.0
 11
-7041.0
 21
-5100.0
 31
0.0
 12
-7417.0
 22
-4600.0
 32
0.0
 13
-7041.0
 23
-4600.0
 33
0.0
  0
SOLID
  5
155
330
A
100
AcDbEntity
  8
SOLDERMASK_PADS_BTM
100
AcDbTrace
 10
-4513.0
 20
-1425.0
 30
0.0
 11
-4137.0
 21
-1425.0
 31
0.0
 12
-4513.0
 22
-925.0
 32
0.0
 13
-4137.0
 23
-925.0
 33
0.0
  0
SOLID
  5
156
330
A
100
AcDbEntity
  8
SOLDERMASK_PADS_BTM
100
AcDbTrace
 10
-5339.0
 20
-1425.0
 30
0.0
 11
-4963.0
 21
-1425.0
 31
0.0
 12
-5339.0
 22
-925.0
 32
0.0
 13
-4963.0
 23
-925.0
 33
0.0
  0
SOLID
  5
157
330
A
100
AcDbEntity
  8
SOLDERMASK_PADS_BTM
100
AcDbTrace
 10
-983.0
 20
-3675.0
 30
0.0
 11
-607.0
 21
-3675.0
 31
0.0
 12
-983.0
 22
-3175.0
 32
0.0
 13
-607.0
 23
-3175.0
 33
0.0
  0
SOLID
  5
158
330
A
100
AcDbEntity
  8
SOLDERMASK_PADS_BTM
100
AcDbTrace
 10
-157.0
 20
-3675.0
 30
0.0
 11
219.0
 21
-3675.0
 31
0.0
 12
-157.0
 22
-3175.0
 32
0.0
 13
219.0
 23
-3175.0
 33
0.0
  0
SOLID
  5
159
330
A
100
AcDbEntity
  8
SOLDERMASK_PADS_BTM
100
AcDbTrace
 10
-2435.0
 20
-6600.0
 30
0.0
 11
-2059.0
 21
-6600.0
 31
0.0
 12
-2435.0
 22
-6100.0
 32
0.0
 13
-2059.0
 23
-6100.0
 33
0.0
  0
SOLID
  5
15A
330
A
100
AcDbEntity
  8
SOLDERMASK_PADS_BTM
100
AcDbTrace
 10
-1609.0
 20
-6600.0
 30
0.0
 11
-1233.0
 21
-6600.0
 31
0.0
 12
-1609.0
 22
-6100.0
 32
0.0
 13
-1233.0
 23
-6100.0
 33
0.0
  0
SOLID
  5
15B
330
A
100
AcDbEntity
  8
SOLDERMASK_PADS_BTM
100
AcDbTrace
 10
7103.0
 20
-4850.0
 30
0.0
 11
7479.0
 21
-4850.0
 31
0.0
 12
7103.0
 22
-4350.0
 32
0.0
 13
7479.0
 23
-4350.0
 33
0.0
  0
SOLID
  5
15C
330
A
100
AcDbEntity
  8
SOLDERMASK_PADS_BTM
100
AcDbTrace
 10
6277.0
 20
-4850.0
 30
0.0
 11
6653.0
 21
-4850.0
 31
0.0
 12
6277.0
 22
-4350.0
 32
0.0
 13
6653.0
 23
-4350.0
 33
0.0
  0
SOLID
  5
15D
330
A
100
AcDbEntity
  8
SOLDERMASK_PADS_BTM
100
AcDbTrace
 10
-8243.0
 20
-3600.0
 30
0.0
 11
-7867.0
 21
-3600.0
 31
0.0
 12
-8243.0
 22
-3100.0
 32
0.0
 13
-7867.0
 23
-3100.0
 33
0.0
  0
SOLID
  5
15E
330
A
100
AcDbEntity
  8
SOLDERMASK_PADS_BTM
100
AcDbTrace
 10
-7417.0
 20
-3600.0
 30
0.0
 11
-7041.0
 21
-3600.0
 31
0.0
 12
-7417.0
 22
-3100.0
 32
0.0
 13
-7041.0
 23
-3100.0
 33
0.0
  0
SOLID
  5
15F
330
A
100
AcDbEntity
  8
SOLDERMASK_PADS_BTM
100
AcDbTrace
 10
2747.0
 20
-7350.0
 30
0.0
 11
3123.0
 21
-7350.0
 31
0.0
 12
2747.0
 22
-6850.0
 32
0.0
 13
3123.0
 23
-6850.0
 33
0.0
  0
SOLID
  5
160
330
A
100
AcDbEntity
  8
SOLDERMASK_PADS_BTM
100
AcDbTrace
 10
1921.0
 20
-7350.0
 30
0.0
 11
2297.0
 21
-7350.0
 31
0.0
 12
1921.0
 22
-6850.0
 32
0.0
 13
2297.0
 23
-6850.0
 33
0.0
  0
SOLID
  5
161
330
A
100
AcDbEntity
  8
SOLDERMASK_PADS_BTM
100
AcDbTrace
 10
468.998
 20
-6600.0
 30
0.0
 11
844.998
 21
-6600.0
 31
0.0
 12
468.998
 22
-6100.0
 32
0.0
 13
844.998
 23
-6100.0
 33
0.0
  0
SOLID
  5
162
330
A
100
AcDbEntity
  8
SOLDERMASK_PADS_BTM
100
AcDbTrace
 10
1294.998
 20
-6600.0
 30
0.0
 11
1670.998
 21
-6600.0
 31
0.0
 12
1294.998
 22
-6100.0
 32
0.0
 13
1670.998
 23
-6100.0
 33
0.0
  0
SOLID
  5
163
330
A
100
AcDbEntity
  8
SOLDERMASK_PADS_BTM
100
AcDbTrace
 10
-5339.0
 20
-7350.0
 30
0.0
 11
-4963.0
 21
-7350.0
 31
0.0
 12
-5339.0
 22
-6850.0
 32
0.0
 13
-4963.0
 23
-6850.0
 33
0.0
  0
SOLID
  5
164
330
A
100
AcDbEntity
  8
SOLDERMASK_PADS_BTM
100
AcDbTrace
 10
-4513.0
 20
-7350.0
 30
0.0
 11
-4137.0
 21
-7350.0
 31
0.0
 12
-4513.0
 22
-6850.0
 32
0.0
 13
-4137.0
 23
-6850.0
 33
0.0
  0
SOLID
  5
165
330
A
100
AcDbEntity
  8
SOLDERMASK_PADS_BTM
100
AcDbTrace
 10
3373.002
 20
-7350.0
 30
0.0
 11
3749.002
 21
-7350.0
 31
0.0
 12
3373.002
 22
-6850.0
 32
0.0
 13
3749.002
 23
-6850.0
 33
0.0
  0
SOLID
  5
166
330
A
100
AcDbEntity
  8
SOLDERMASK_PADS_BTM
100
AcDbTrace
 10
4199.002000000001
 20
-7350.0
 30
0.0
 11
4575.002
 21
-7350.0
 31
0.0
 12
4199.002000000001
 22
-6850.0
 32
0.0
 13
4575.002
 23
-6850.0
 33
0.0
  0
SOLID
  5
167
330
A
100
AcDbEntity
  8
SOLDERMASK_PADS_BTM
100
AcDbTrace
 10
-3061.0
 20
-7350.0
 30
0.0
 11
-2685.0
 21
-7350.0
 31
0.0
 12
-3061.0
 22
-6850.0
 32
0.0
 13
-2685.0
 23
-6850.0
 33
0.0
  0
SOLID
  5
168
330
A
100
AcDbEntity
  8
SOLDERMASK_PADS_BTM
100
AcDbTrace
 10
-3887.0
 20
-7350.0
 30
0.0
 11
-3511.0
 21
-7350.0
 31
0.0
 12
-3887.0
 22
-6850.0
 32
0.0
 13
-3511.0
 23
-6850.0
 33
0.0
  0
SOLID
  5
169
330
A
100
AcDbEntity
  8
SOLDERMASK_PADS_BTM
100
AcDbTrace
 10
3029.0
 20
7600.0
 30
0.0
 11
3405.0
 21
7600.0
 31
0.0
 12
3029.0
 22
8100.0
 32
0.0
 13
3405.0
 23
8100.0
 33
0.0
  0
SOLID
  5
16A
330
A
100
AcDbEntity
  8
SOLDERMASK_PADS_BTM
100
AcDbTrace
 10
3855.0
 20
7600.0
 30
0.0
 11
4231.0
 21
7600.0
 31
0.0
 12
3855.0
 22
8100.0
 32
0.0
 13
4231.0
 23
8100.0
 33
0.0
  0
SOLID
  5
16B
330
A
100
AcDbEntity
  8
SOLDERMASK_PADS_BTM
100
AcDbTrace
 10
-3405.0
 20
7600.0
 30
0.0
 11
-3029.0
 21
7600.0
 31
0.0
 12
-3405.0
 22
8100.0
 32
0.0
 13
-3029.0
 23
8100.0
 33
0.0
  0
SOLID
  5
16C
330
A
100
AcDbEntity
  8
SOLDERMASK_PADS_BTM
100
AcDbTrace
 10
-4231.0
 20
7600.0
 30
0.0
 11
-3855.0
 21
7600.0
 31
0.0
 12
-4231.0
 22
8100.0
 32
0.0
 13
-3855.0
 23
8100.0
 33
0.0
  0
SOLID
  5
16D
330
A
100
AcDbEntity
  8
SOLDERMASK_PADS_BTM
100
AcDbTrace
 10
-983.0
 20
6100.0
 30
0.0
 11
-607.0
 21
6100.0
 31
0.0
 12
-983.0
 22
6600.0
 32
0.0
 13
-607.0
 23
6600.0
 33
0.0
  0
SOLID
  5
16E
330
A
100
AcDbEntity
  8
SOLDERMASK_PADS_BTM
100
AcDbTrace
 10
-157.0
 20
6100.0
 30
0.0
 11
219.0
 21
6100.0
 31
0.0
 12
-157.0
 22
6600.0
 32
0.0
 13
219.0
 23
6600.0
 33
0.0
  0
SOLID
  5
16F
330
A
100
AcDbEntity
  8
SOLDERMASK_PADS_BTM
100
AcDbTrace
 10
7103.0
 20
4625.0
 30
0.0
 11
7479.0
 21
4625.0
 31
0.0
 12
7103.0
 22
5125.0
 32
0.0
 13
7479.0
 23
5125.0
 33
0.0
  0
SOLID
  5
170
330
A
100
AcDbEntity
  8
SOLDERMASK_PADS_BTM
100
AcDbTrace
 10
6277.0
 20
4625.0
 30
0.0
 11
6653.0
 21
4625.0
 31
0.0
 12
6277.0
 22
5125.0
 32
0.0
 13
6653.0
 23
5125.0
 33
0.0
  0
SOLID
  5
171
330
A
100
AcDbEntity
  8
SOLDERMASK_PADS_BTM
100
AcDbTrace
 10
-5339.0
 20
3779.0
 30
0.0
 11
-4963.0
 21
3779.0
 31
0.0
 12
-5339.0
 22
4279.0
 32
0.0
 13
-4963.0
 23
4279.0
 33
0.0
  0
SOLID
  5
172
330
A
100
AcDbEntity
  8
SOLDERMASK_PADS_BTM
100
AcDbTrace
 10
-4513.0
 20
3779.0
 30
0.0
 11
-4137.0
 21
3779.0
 31
0.0
 12
-4513.0
 22
4279.0
 32
0.0
 13
-4137.0
 23
4279.0
 33
0.0
  0
SOLID
  5
173
330
A
100
AcDbEntity
  8
SOLDERMASK_PADS_BTM
100
AcDbTrace
 10
1921.0
 20
925.0
 30
0.0
 11
2297.0
 21
925.0
 31
0.0
 12
1921.0
 22
1425.0
 32
0.0
 13
2297.0
 23
1425.0
 33
0.0
  0
SOLID
  5
174
330
A
100
AcDbEntity
  8
SOLDERMASK_PADS_BTM
100
AcDbTrace
 10
2747.0
 20
925.0
 30
0.0
 11
3123.0
 21
925.0
 31
0.0
 12
2747.0
 22
1425.0
 32
0.0
 13
3123.0
 23
1425.0
 33
0.0
  0
SOLID
  5
175
330
A
100
AcDbEntity
  8
SOLDERMASK_PADS_BTM
100
AcDbTrace
 10
-4513.0
 20
925.0
 30
0.0
 11
-4137.0
 21
925.0
 31
0.0
 12
-4513.0
 22
1425.0
 32
0.0
 13
-4137.0
 23
1425.0
 33
0.0
  0
SOLID
  5
176
330
A
100
AcDbEntity
  8
SOLDERMASK_PADS_BTM
100
AcDbTrace
 10
-5339.0
 20
925.0
 30
0.0
 11
-4963.0
 21
925.0
 31
0.0
 12
-5339.0
 22
1425.0
 32
0.0
 13
-4963.0
 23
1425.0
 33
0.0
  0
SOLID
  5
177
330
A
100
AcDbEntity
  8
SOLDERMASK_PADS_BTM
100
AcDbTrace
 10
3373.002
 20
-2175.0
 30
0.0
 11
3749.002
 21
-2175.0
 31
0.0
 12
3373.002
 22
-1675.0
 32
0.0
 13
3749.002
 23
-1675.0
 33
0.0
  0
SOLID
  5
178
330
A
100
AcDbEntity
  8
SOLDERMASK_PADS_BTM
100
AcDbTrace
 10
4199.002000000001
 20
-2175.0
 30
0.0
 11
4575.002
 21
-2175.0
 31
0.0
 12
4199.002000000001
 22
-1675.0
 32
0.0
 13
4575.002
 23
-1675.0
 33
0.0
  0
SOLID
  5
179
330
A
100
AcDbEntity
  8
SOLDERMASK_PADS_BTM
100
AcDbTrace
 10
4825.003999999999
 20
-5100.0
 30
0.0
 11
5201.004000000001
 21
-5100.0
 31
0.0
 12
4825.003999999999
 22
-4600.0
 32
0.0
 13
5201.004000000001
 23
-4600.0
 33
0.0
  0
SOLID
  5
17A
330
A
100
AcDbEntity
  8
SOLDERMASK_PADS_BTM
100
AcDbTrace
 10
5651.004
 20
-5100.0
 30
0.0
 11
6027.004
 21
-5100.0
 31
0.0
 12
5651.004
 22
-4600.0
 32
0.0
 13
6027.004
 23
-4600.0
 33
0.0
  0
SOLID
  5
17B
330
A
100
AcDbEntity
  8
SOLDERMASK_PADS_BTM
100
AcDbTrace
 10
-983.0
 20
-2925.0
 30
0.0
 11
-607.0
 21
-2925.0
 31
0.0
 12
-983.0
 22
-2425.0
 32
0.0
 13
-607.0
 23
-2425.0
 33
0.0
  0
SOLID
  5
17C
330
A
100
AcDbEntity
  8
SOLDERMASK_PADS_BTM
100
AcDbTrace
 10
-157.0
 20
-2925.0
 30
0.0
 11
219.0
 21
-2925.0
 31
0.0
 12
-157.0
 22
-2425.0
 32
0.0
 13
219.0
 23
-2425.0
 33
0.0
  0
SOLID
  5
17D
330
A
100
AcDbEntity
  8
SOLDERMASK_PADS_BTM
100
AcDbTrace
 10
-6791.0
 20
-1425.0
 30
0.0
 11
-6415.0
 21
-1425.0
 31
0.0
 12
-6791.0
 22
-925.0
 32
0.0
 13
-6415.0
 23
-925.0
 33
0.0
  0
SOLID
  5
17E
330
A
100
AcDbEntity
  8
SOLDERMASK_PADS_BTM
100
AcDbTrace
 10
-5965.0
 20
-1425.0
 30
0.0
 11
-5589.0
 21
-1425.0
 31
0.0
 12
-5965.0
 22
-925.0
 32
0.0
 13
-5589.0
 23
-925.0
 33
0.0
  0
SOLID
  5
17F
330
A
100
AcDbEntity
  8
SOLDERMASK_PADS_BTM
100
AcDbTrace
 10
-3887.0
 20
-5175.0
 30
0.0
 11
-3511.0
 21
-5175.0
 31
0.0
 12
-3887.0
 22
-4675.0
 32
0.0
 13
-3511.0
 23
-4675.0
 33
0.0
  0
SOLID
  5
180
330
A
100
AcDbEntity
  8
SOLDERMASK_PADS_BTM
100
AcDbTrace
 10
-3061.0
 20
-5175.0
 30
0.0
 11
-2685.0
 21
-5175.0
 31
0.0
 12
-3061.0
 22
-4675.0
 32
0.0
 13
-2685.0
 23
-4675.0
 33
0.0
  0
SOLID
  5
181
330
A
100
AcDbEntity
  8
SOLDERMASK_PADS_BTM
100
AcDbTrace
 10
7103.0
 20
-5600.0
 30
0.0
 11
7479.0
 21
-5600.0
 31
0.0
 12
7103.0
 22
-5100.0
 32
0.0
 13
7479.0
 23
-5100.0
 33
0.0
  0
SOLID
  5
182
330
A
100
AcDbEntity
  8
SOLDERMASK_PADS_BTM
100
AcDbTrace
 10
6277.0
 20
-5600.0
 30
0.0
 11
6653.0
 21
-5600.0
 31
0.0
 12
6277.0
 22
-5100.0
 32
0.0
 13
6653.0
 23
-5100.0
 33
0.0
  0
SOLID
  5
183
330
A
100
AcDbEntity
  8
SOLDERMASK_PADS_BTM
100
AcDbTrace
 10
-3061.0
 20
-6600.0
 30
0.0
 11
-2685.0
 21
-6600.0
 31
0.0
 12
-3061.0
 22
-6100.0
 32
0.0
 13
-2685.0
 23
-6100.0
 33
0.0
  0
SOLID
  5
184
330
A
100
AcDbEntity
  8
SOLDERMASK_PADS_BTM
100
AcDbTrace
 10
-3887.0
 20
-6600.0
 30
0.0
 11
-3511.0
 21
-6600.0
 31
0.0
 12
-3887.0
 22
-6100.0
 32
0.0
 13
-3511.0
 23
-6100.0
 33
0.0
  0
SOLID
  5
185
330
A
100
AcDbEntity
  8
SOLDERMASK_PADS_BTM
100
AcDbTrace
 10
1921.0
 20
-8100.0
 30
0.0
 11
2297.0
 21
-8100.0
 31
0.0
 12
1921.0
 22
-7600.0
 32
0.0
 13
2297.0
 23
-7600.0
 33
0.0
  0
SOLID
  5
186
330
A
100
AcDbEntity
  8
SOLDERMASK_PADS_BTM
100
AcDbTrace
 10
2747.0
 20
-8100.0
 30
0.0
 11
3123.0
 21
-8100.0
 31
0.0
 12
2747.0
 22
-7600.0
 32
0.0
 13
3123.0
 23
-7600.0
 33
0.0
  0
SOLID
  5
187
330
A
100
AcDbEntity
  8
SOLDERMASK_PADS_BTM
100
AcDbTrace
 10
-5339.0
 20
-8100.0
 30
0.0
 11
-4963.0
 21
-8100.0
 31
0.0
 12
-5339.0
 22
-7600.0
 32
0.0
 13
-4963.0
 23
-7600.0
 33
0.0
  0
SOLID
  5
188
330
A
100
AcDbEntity
  8
SOLDERMASK_PADS_BTM
100
AcDbTrace
 10
-4513.0
 20
-8100.0
 30
0.0
 11
-4137.0
 21
-8100.0
 31
0.0
 12
-4513.0
 22
-7600.0
 32
0.0
 13
-4137.0
 23
-7600.0
 33
0.0
  0
SOLID
  5
189
330
A
100
AcDbEntity
  8
SOLDERMASK_PADS_BTM
100
AcDbTrace
 10
1921.0
 20
6800.0
 30
0.0
 11
2297.0
 21
6800.0
 31
0.0
 12
1921.0
 22
7300.0
 32
0.0
 13
2297.0
 23
7300.0
 33
0.0
  0
SOLID
  5
18A
330
A
100
AcDbEntity
  8
SOLDERMASK_PADS_BTM
100
AcDbTrace
 10
2747.0
 20
6800.0
 30
0.0
 11
3123.0
 21
6800.0
 31
0.0
 12
2747.0
 22
7300.0
 32
0.0
 13
3123.0
 23
7300.0
 33
0.0
  0
SOLID
  5
18B
330
A
100
AcDbEntity
  8
SOLDERMASK_PADS_BTM
100
AcDbTrace
 10
-4513.0
 20
6850.0
 30
0.0
 11
-4137.0
 21
6850.0
 31
0.0
 12
-4513.0
 22
7350.0
 32
0.0
 13
-4137.0
 23
7350.0
 33
0.0
  0
SOLID
  5
18C
330
A
100
AcDbEntity
  8
SOLDERMASK_PADS_BTM
100
AcDbTrace
 10
-5339.0
 20
6850.0
 30
0.0
 11
-4963.0
 21
6850.0
 31
0.0
 12
-5339.0
 22
7350.0
 32
0.0
 13
-4963.0
 23
7350.0
 33
0.0
  0
SOLID
  5
18D
330
A
100
AcDbEntity
  8
SOLDERMASK_PADS_BTM
100
AcDbTrace
 10
-1609.0
 20
6100.0
 30
0.0
 11
-1233.0
 21
6100.0
 31
0.0
 12
-1609.0
 22
6600.0
 32
0.0
 13
-1233.0
 23
6600.0
 33
0.0
  0
SOLID
  5
18E
330
A
100
AcDbEntity
  8
SOLDERMASK_PADS_BTM
100
AcDbTrace
 10
-2435.0
 20
6100.0
 30
0.0
 11
-2059.0
 21
6100.0
 31
0.0
 12
-2435.0
 22
6600.0
 32
0.0
 13
-2059.0
 23
6600.0
 33
0.0
  0
SOLID
  5
18F
330
A
100
AcDbEntity
  8
SOLDERMASK_PADS_BTM
100
AcDbTrace
 10
7103.0
 20
3875.0
 30
0.0
 11
7479.0
 21
3875.0
 31
0.0
 12
7103.0
 22
4375.0
 32
0.0
 13
7479.0
 23
4375.0
 33
0.0
  0
SOLID
  5
190
330
A
100
AcDbEntity
  8
SOLDERMASK_PADS_BTM
100
AcDbTrace
 10
6277.0
 20
3875.0
 30
0.0
 11
6653.0
 21
3875.0
 31
0.0
 12
6277.0
 22
4375.0
 32
0.0
 13
6653.0
 23
4375.0
 33
0.0
  0
SOLID
  5
191
330
A
100
AcDbEntity
  8
SOLDERMASK_PADS_BTM
100
AcDbTrace
 10
-4513.0
 20
2916.737
 30
0.0
 11
-4137.0
 21
2916.737
 31
0.0
 12
-4513.0
 22
3416.737
 32
0.0
 13
-4137.0
 23
3416.737
 33
0.0
  0
SOLID
  5
192
330
A
100
AcDbEntity
  8
SOLDERMASK_PADS_BTM
100
AcDbTrace
 10
-5339.0
 20
2916.737
 30
0.0
 11
-4963.0
 21
2916.737
 31
0.0
 12
-5339.0
 22
3416.737
 32
0.0
 13
-4963.0
 23
3416.737
 33
0.0
  0
SOLID
  5
193
330
A
100
AcDbEntity
  8
SOLDERMASK_PADS_BTM
100
AcDbTrace
 10
468.998
 20
1953.0
 30
0.0
 11
844.998
 21
1953.0
 31
0.0
 12
468.998
 22
2453.0
 32
0.0
 13
844.998
 23
2453.0
 33
0.0
  0
SOLID
  5
194
330
A
100
AcDbEntity
  8
SOLDERMASK_PADS_BTM
100
AcDbTrace
 10
1294.998
 20
1953.0
 30
0.0
 11
1670.998
 21
1953.0
 31
0.0
 12
1294.998
 22
2453.0
 32
0.0
 13
1670.998
 23
2453.0
 33
0.0
  0
SOLID
  5
195
330
A
100
AcDbEntity
  8
SOLDERMASK_PADS_BTM
100
AcDbTrace
 10
-5965.0
 20
1953.0
 30
0.0
 11
-5589.0
 21
1953.0
 31
0.0
 12
-5965.0
 22
2453.0
 32
0.0
 13
-5589.0
 23
2453.0
 33
0.0
  0
SOLID
  5
196
330
A
100
AcDbEntity
  8
SOLDERMASK_PADS_BTM
100
AcDbTrace
 10
-6791.0
 20
1953.0
 30
0.0
 11
-6415.0
 21
1953.0
 31
0.0
 12
-6791.0
 22
2453.0
 32
0.0
 13
-6415.0
 23
2453.0
 33
0.0
  0
SOLID
  5
197
330
A
100
AcDbEntity
  8
SOLDERMASK_PADS_BTM
100
AcDbTrace
 10
3373.002
 20
-2925.0
 30
0.0
 11
3749.002
 21
-2925.0
 31
0.0
 12
3373.002
 22
-2425.0
 32
0.0
 13
3749.002
 23
-2425.0
 33
0.0
  0
SOLID
  5
198
330
A
100
AcDbEntity
  8
SOLDERMASK_PADS_BTM
100
AcDbTrace
 10
4199.002000000001
 20
-2925.0
 30
0.0
 11
4575.002
 21
-2925.0
 31
0.0
 12
4199.002000000001
 22
-2425.0
 32
0.0
 13
4575.002
 23
-2425.0
 33
0.0
  0
SOLID
  5
199
330
A
100
AcDbEntity
  8
SOLDERMASK_PADS_BTM
100
AcDbTrace
 10
-1609.0
 20
-1425.0
 30
0.0
 11
-1233.0
 21
-1425.0
 31
0.0
 12
-1609.0
 22
-925.0
 32
0.0
 13
-1233.0
 23
-925.0
 33
0.0
  0
SOLID
  5
19A
330
A
100
AcDbEntity
  8
SOLDERMASK_PADS_BTM
100
AcDbTrace
 10
-2435.0
 20
-1425.0
 30
0.0
 11
-2059.0
 21
-1425.0
 31
0.0
 12
-2435.0
 22
-925.0
 32
0.0
 13
-2059.0
 23
-925.0
 33
0.0
  0
SOLID
  5
19B
330
A
100
AcDbEntity
  8
SOLDERMASK_PADS_BTM
100
AcDbTrace
 10
3373.002
 20
-3675.0
 30
0.0
 11
3749.002
 21
-3675.0
 31
0.0
 12
3373.002
 22
-3175.0
 32
0.0
 13
3749.002
 23
-3175.0
 33
0.0
  0
SOLID
  5
19C
330
A
100
AcDbEntity
  8
SOLDERMASK_PADS_BTM
100
AcDbTrace
 10
4199.002000000001
 20
-3675.0
 30
0.0
 11
4575.002
 21
-3675.0
 31
0.0
 12
4199.002000000001
 22
-3175.0
 32
0.0
 13
4575.002
 23
-3175.0
 33
0.0
  0
SOLID
  5
19D
330
A
100
AcDbEntity
  8
SOLDERMASK_PADS_BTM
100
AcDbTrace
 10
-4513.0
 20
-3675.0
 30
0.0
 11
-4137.0
 21
-3675.0
 31
0.0
 12
-4513.0
 22
-3175.0
 32
0.0
 13
-4137.0
 23
-3175.0
 33
0.0
  0
SOLID
  5
19E
330
A
100
AcDbEntity
  8
SOLDERMASK_PADS_BTM
100
AcDbTrace
 10
-5339.0
 20
-3675.0
 30
0.0
 11
-4963.0
 21
-3675.0
 31
0.0
 12
-5339.0
 22
-3175.0
 32
0.0
 13
-4963.0
 23
-3175.0
 33
0.0
  0
SOLID
  5
19F
330
A
100
AcDbEntity
  8
SOLDERMASK_PADS_BTM
100
AcDbTrace
 10
-5965.0
 20
-2175.0
 30
0.0
 11
-5589.0
 21
-2175.0
 31
0.0
 12
-5965.0
 22
-1675.0
 32
0.0
 13
-5589.0
 23
-1675.0
 33
0.0
  0
SOLID
  5
1A0
330
A
100
AcDbEntity
  8
SOLDERMASK_PADS_BTM
100
AcDbTrace
 10
-6791.0
 20
-2175.0
 30
0.0
 11
-6415.0
 21
-2175.0
 31
0.0
 12
-6791.0
 22
-1675.0
 32
0.0
 13
-6415.0
 23
-1675.0
 33
0.0
  0
SOLID
  5
1A1
330
A
100
AcDbEntity
  8
SOLDERMASK_PADS_BTM
100
AcDbTrace
 10
7103.0
 20
-6350.0
 30
0.0
 11
7479.0
 21
-6350.0
 31
0.0
 12
7103.0
 22
-5850.0
 32
0.0
 13
7479.0
 23
-5850.0
 33
0.0
  0
SOLID
  5
1A2
330
A
100
AcDbEntity
  8
SOLDERMASK_PADS_BTM
100
AcDbTrace
 10
6277.0
 20
-6350.0
 30
0.0
 11
6653.0
 21
-6350.0
 31
0.0
 12
6277.0
 22
-5850.0
 32
0.0
 13
6653.0
 23
-5850.0
 33
0.0
  0
SOLID
  5
1A3
330
A
100
AcDbEntity
  8
SOLDERMASK_PADS_BTM
100
AcDbTrace
 10
-5339.0
 20
-6600.0
 30
0.0
 11
-4963.0
 21
-6600.0
 31
0.0
 12
-5339.0
 22
-6100.0
 32
0.0
 13
-4963.0
 23
-6100.0
 33
0.0
  0
SOLID
  5
1A4
330
A
100
AcDbEntity
  8
SOLDERMASK_PADS_BTM
100
AcDbTrace
 10
-4513.0
 20
-6600.0
 30
0.0
 11
-4137.0
 21
-6600.0
 31
0.0
 12
-4513.0
 22
-6100.0
 32
0.0
 13
-4137.0
 23
-6100.0
 33
0.0
  0
SOLID
  5
1A5
330
A
100
AcDbEntity
  8
SOLDERMASK_PADS_BTM
100
AcDbTrace
 10
468.998
 20
-7350.0
 30
0.0
 11
844.998
 21
-7350.0
 31
0.0
 12
468.998
 22
-6850.0
 32
0.0
 13
844.998
 23
-6850.0
 33
0.0
  0
SOLID
  5
1A6
330
A
100
AcDbEntity
  8
SOLDERMASK_PADS_BTM
100
AcDbTrace
 10
1294.998
 20
-7350.0
 30
0.0
 11
1670.998
 21
-7350.0
 31
0.0
 12
1294.998
 22
-6850.0
 32
0.0
 13
1670.998
 23
-6850.0
 33
0.0
  0
SOLID
  5
1A7
330
A
100
AcDbEntity
  8
SOLDERMASK_PADS_BTM
100
AcDbTrace
 10
-5965.0
 20
-7350.0
 30
0.0
 11
-5589.0
 21
-7350.0
 31
0.0
 12
-5965.0
 22
-6850.0
 32
0.0
 13
-5589.0
 23
-6850.0
 33
0.0
  0
SOLID
  5
1A8
330
A
100
AcDbEntity
  8
SOLDERMASK_PADS_BTM
100
AcDbTrace
 10
-6791.0
 20
-7350.0
 30
0.0
 11
-6415.0
 21
-7350.0
 31
0.0
 12
-6791.0
 22
-6850.0
 32
0.0
 13
-6415.0
 23
-6850.0
 33
0.0
  0
SOLID
  5
1A9
330
A
100
AcDbEntity
  8
SOLDERMASK_PADS_BTM
100
AcDbTrace
 10
2403.0
 20
7600.0
 30
0.0
 11
2779.0
 21
7600.0
 31
0.0
 12
2403.0
 22
8100.0
 32
0.0
 13
2779.0
 23
8100.0
 33
0.0
  0
SOLID
  5
1AA
330
A
100
AcDbEntity
  8
SOLDERMASK_PADS_BTM
100
AcDbTrace
 10
1577.0
 20
7600.0
 30
0.0
 11
1953.0
 21
7600.0
 31
0.0
 12
1577.0
 22
8100.0
 32
0.0
 13
1953.0
 23
8100.0
 33
0.0
  0
SOLID
  5
1AB
330
A
100
AcDbEntity
  8
SOLDERMASK_PADS_BTM
100
AcDbTrace
 10
-5683.0
 20
7600.0
 30
0.0
 11
-5307.0
 21
7600.0
 31
0.0
 12
-5683.0
 22
8100.0
 32
0.0
 13
-5307.0
 23
8100.0
 33
0.0
  0
SOLID
  5
1AC
330
A
100
AcDbEntity
  8
SOLDERMASK_PADS_BTM
100
AcDbTrace
 10
-4857.0
 20
7600.0
 30
0.0
 11
-4481.0
 21
7600.0
 31
0.0
 12
-4857.0
 22
8100.0
 32
0.0
 13
-4481.0
 23
8100.0
 33
0.0
  0
SOLID
  5
1AD
330
A
100
AcDbEntity
  8
SOLDERMASK_PADS_BTM
100
AcDbTrace
 10
-3887.0
 20
6100.0
 30
0.0
 11
-3511.0
 21
6100.0
 31
0.0
 12
-3887.0
 22
6600.0
 32
0.0
 13
-3511.0
 23
6600.0
 33
0.0
  0
SOLID
  5
1AE
330
A
100
AcDbEntity
  8
SOLDERMASK_PADS_BTM
100
AcDbTrace
 10
-3061.0
 20
6100.0
 30
0.0
 11
-2685.0
 21
6100.0
 31
0.0
 12
-3061.0
 22
6600.0
 32
0.0
 13
-2685.0
 23
6600.0
 33
0.0
  0
SOLID
  5
1AF
330
A
100
AcDbEntity
  8
SOLDERMASK_PADS_BTM
100
AcDbTrace
 10
3373.002
 20
3779.0
 30
0.0
 11
3749.002
 21
3779.0
 31
0.0
 12
3373.002
 22
4279.0
 32
0.0
 13
3749.002
 23
4279.0
 33
0.0
  0
SOLID
  5
1B0
330
A
100
AcDbEntity
  8
SOLDERMASK_PADS_BTM
100
AcDbTrace
 10
4199.002000000001
 20
3779.0
 30
0.0
 11
4575.002
 21
3779.0
 31
0.0
 12
4199.002000000001
 22
4279.0
 32
0.0
 13
4575.002
 23
4279.0
 33
0.0
  0
SOLID
  5
1B1
330
A
100
AcDbEntity
  8
SOLDERMASK_PADS_BTM
100
AcDbTrace
 10
-5965.0
 20
3779.0
 30
0.0
 11
-5589.0
 21
3779.0
 31
0.0
 12
-5965.0
 22
4279.0
 32
0.0
 13
-5589.0
 23
4279.0
 33
0.0
  0
SOLID
  5
1B2
330
A
100
AcDbEntity
  8
SOLDERMASK_PADS_BTM
100
AcDbTrace
 10
-6791.0
 20
3779.0
 30
0.0
 11
-6415.0
 21
3779.0
 31
0.0
 12
-6791.0
 22
4279.0
 32
0.0
 13
-6415.0
 23
4279.0
 33
0.0
  0
SOLID
  5
1B3
330
A
100
AcDbEntity
  8
SOLDERMASK_PADS_BTM
100
AcDbTrace
 10
1294.998
 20
925.0
 30
0.0
 11
1670.998
 21
925.0
 31
0.0
 12
1294.998
 22
1425.0
 32
0.0
 13
1670.998
 23
1425.0
 33
0.0
  0
SOLID
  5
1B4
330
A
100
AcDbEntity
  8
SOLDERMASK_PADS_BTM
100
AcDbTrace
 10
468.998
 20
925.0
 30
0.0
 11
844.998
 21
925.0
 31
0.0
 12
468.998
 22
1425.0
 32
0.0
 13
844.998
 23
1425.0
 33
0.0
  0
SOLID
  5
1B5
330
A
100
AcDbEntity
  8
SOLDERMASK_PADS_BTM
100
AcDbTrace
 10
-6791.0
 20
925.0
 30
0.0
 11
-6415.0
 21
925.0
 31
0.0
 12
-6791.0
 22
1425.0
 32
0.0
 13
-6415.0
 23
1425.0
 33
0.0
  0
SOLID
  5
1B6
330
A
100
AcDbEntity
  8
SOLDERMASK_PADS_BTM
100
AcDbTrace
 10
-5965.0
 20
925.0
 30
0.0
 11
-5589.0
 21
925.0
 31
0.0
 12
-5965.0
 22
1425.0
 32
0.0
 13
-5589.0
 23
1425.0
 33
0.0
  0
SOLID
  5
1B7
330
A
100
AcDbEntity
  8
SOLDERMASK_PADS_BTM
100
AcDbTrace
 10
1921.0
 20
-1425.0
 30
0.0
 11
2297.0
 21
-1425.0
 31
0.0
 12
1921.0
 22
-925.0
 32
0.0
 13
2297.0
 23
-925.0
 33
0.0
  0
SOLID
  5
1B8
330
A
100
AcDbEntity
  8
SOLDERMASK_PADS_BTM
100
AcDbTrace
 10
2747.0
 20
-1425.0
 30
0.0
 11
3123.0
 21
-1425.0
 31
0.0
 12
2747.0
 22
-925.0
 32
0.0
 13
3123.0
 23
-925.0
 33
0.0
  0
SOLID
  5
1B9
330
A
100
AcDbEntity
  8
SOLDERMASK_PADS_BTM
100
AcDbTrace
 10
4199.002000000001
 20
-4425.0
 30
0.0
 11
4575.002
 21
-4425.0
 31
0.0
 12
4199.002000000001
 22
-3925.0
 32
0.0
 13
4575.002
 23
-3925.0
 33
0.0
  0
SOLID
  5
1BA
330
A
100
AcDbEntity
  8
SOLDERMASK_PADS_BTM
100
AcDbTrace
 10
3373.002
 20
-4425.0
 30
0.0
 11
3749.002
 21
-4425.0
 31
0.0
 12
3373.002
 22
-3925.0
 32
0.0
 13
3749.002
 23
-3925.0
 33
0.0
  0
SOLID
  5
1BB
330
A
100
AcDbEntity
  8
SOLDERMASK_PADS_BTM
100
AcDbTrace
 10
-1609.0
 20
-2175.0
 30
0.0
 11
-1233.0
 21
-2175.0
 31
0.0
 12
-1609.0
 22
-1675.0
 32
0.0
 13
-1233.0
 23
-1675.0
 33
0.0
  0
SOLID
  5
1BC
330
A
100
AcDbEntity
  8
SOLDERMASK_PADS_BTM
100
AcDbTrace
 10
-2435.0
 20
-2175.0
 30
0.0
 11
-2059.0
 21
-2175.0
 31
0.0
 12
-2435.0
 22
-1675.0
 32
0.0
 13
-2059.0
 23
-1675.0
 33
0.0
  0
SOLID
  5
1BD
330
A
100
AcDbEntity
  8
SOLDERMASK_PADS_BTM
100
AcDbTrace
 10
-4513.0
 20
-4425.0
 30
0.0
 11
-4137.0
 21
-4425.0
 31
0.0
 12
-4513.0
 22
-3925.0
 32
0.0
 13
-4137.0
 23
-3925.0
 33
0.0
  0
SOLID
  5
1BE
330
A
100
AcDbEntity
  8
SOLDERMASK_PADS_BTM
100
AcDbTrace
 10
-5339.0
 20
-4425.0
 30
0.0
 11
-4963.0
 21
-4425.0
 31
0.0
 12
-5339.0
 22
-3925.0
 32
0.0
 13
-4963.0
 23
-3925.0
 33
0.0
  0
SOLID
  5
1BF
330
A
100
AcDbEntity
  8
SOLDERMASK_PADS_BTM
100
AcDbTrace
 10
-5965.0
 20
-2925.0
 30
0.0
 11
-5589.0
 21
-2925.0
 31
0.0
 12
-5965.0
 22
-2425.0
 32
0.0
 13
-5589.0
 23
-2425.0
 33
0.0
  0
SOLID
  5
1C0
330
A
100
AcDbEntity
  8
SOLDERMASK_PADS_BTM
100
AcDbTrace
 10
-6791.0
 20
-2925.0
 30
0.0
 11
-6415.0
 21
-2925.0
 31
0.0
 12
-6791.0
 22
-2425.0
 32
0.0
 13
-6415.0
 23
-2425.0
 33
0.0
  0
SOLID
  5
1C1
330
A
100
AcDbEntity
  8
SOLDERMASK_PADS_BTM
100
AcDbTrace
 10
7103.0
 20
-7100.0
 30
0.0
 11
7479.0
 21
-7100.0
 31
0.0
 12
7103.0
 22
-6600.0
 32
0.0
 13
7479.0
 23
-6600.0
 33
0.0
  0
SOLID
  5
1C2
330
A
100
AcDbEntity
  8
SOLDERMASK_PADS_BTM
100
AcDbTrace
 10
6277.0
 20
-7100.0
 30
0.0
 11
6653.0
 21
-7100.0
 31
0.0
 12
6277.0
 22
-6600.0
 32
0.0
 13
6653.0
 23
-6600.0
 33
0.0
  0
SOLID
  5
1C3
330
A
100
AcDbEntity
  8
SOLDERMASK_PADS_BTM
100
AcDbTrace
 10
-5965.0
 20
-6600.0
 30
0.0
 11
-5589.0
 21
-6600.0
 31
0.0
 12
-5965.0
 22
-6100.0
 32
0.0
 13
-5589.0
 23
-6100.0
 33
0.0
  0
SOLID
  5
1C4
330
A
100
AcDbEntity
  8
SOLDERMASK_PADS_BTM
100
AcDbTrace
 10
-6791.0
 20
-6600.0
 30
0.0
 11
-6415.0
 21
-6600.0
 31
0.0
 12
-6791.0
 22
-6100.0
 32
0.0
 13
-6415.0
 23
-6100.0
 33
0.0
  0
SOLID
  5
1C5
330
A
100
AcDbEntity
  8
SOLDERMASK_PADS_BTM
100
AcDbTrace
 10
1294.998
 20
-8100.0
 30
0.0
 11
1670.998
 21
-8100.0
 31
0.0
 12
1294.998
 22
-7600.0
 32
0.0
 13
1670.998
 23
-7600.0
 33
0.0
  0
SOLID
  5
1C6
330
A
100
AcDbEntity
  8
SOLDERMASK_PADS_BTM
100
AcDbTrace
 10
468.998
 20
-8100.0
 30
0.0
 11
844.998
 21
-8100.0
 31
0.0
 12
468.998
 22
-7600.0
 32
0.0
 13
844.998
 23
-7600.0
 33
0.0
  0
SOLID
  5
1C7
330
A
100
AcDbEntity
  8
SOLDERMASK_PADS_BTM
100
AcDbTrace
 10
-5965.0
 20
-8100.0
 30
0.0
 11
-5589.0
 21
-8100.0
 31
0.0
 12
-5965.0
 22
-7600.0
 32
0.0
 13
-5589.0
 23
-7600.0
 33
0.0
  0
SOLID
  5
1C8
330
A
100
AcDbEntity
  8
SOLDERMASK_PADS_BTM
100
AcDbTrace
 10
-6791.0
 20
-8100.0
 30
0.0
 11
-6415.0
 21
-8100.0
 31
0.0
 12
-6791.0
 22
-7600.0
 32
0.0
 13
-6415.0
 23
-7600.0
 33
0.0
  0
SOLID
  5
1C9
330
A
100
AcDbEntity
  8
SOLDERMASK_PADS_BTM
100
AcDbTrace
 10
1294.998
 20
6850.0
 30
0.0
 11
1670.998
 21
6850.0
 31
0.0
 12
1294.998
 22
7350.0
 32
0.0
 13
1670.998
 23
7350.0
 33
0.0
  0
SOLID
  5
1CA
330
A
100
AcDbEntity
  8
SOLDERMASK_PADS_BTM
100
AcDbTrace
 10
468.998
 20
6850.0
 30
0.0
 11
844.998
 21
6850.0
 31
0.0
 12
468.998
 22
7350.0
 32
0.0
 13
844.998
 23
7350.0
 33
0.0
  0
SOLID
  5
1CB
330
A
100
AcDbEntity
  8
SOLDERMASK_PADS_BTM
100
AcDbTrace
 10
-6791.0
 20
6850.0
 30
0.0
 11
-6415.0
 21
6850.0
 31
0.0
 12
-6791.0
 22
7350.0
 32
0.0
 13
-6415.0
 23
7350.0
 33
0.0
  0
SOLID
  5
1CC
330
A
100
AcDbEntity
  8
SOLDERMASK_PADS_BTM
100
AcDbTrace
 10
-5965.0
 20
6850.0
 30
0.0
 11
-5589.0
 21
6850.0
 31
0.0
 12
-5965.0
 22
7350.0
 32
0.0
 13
-5589.0
 23
7350.0
 33
0.0
  0
SOLID
  5
1CD
330
A
100
AcDbEntity
  8
SOLDERMASK_PADS_BTM
100
AcDbTrace
 10
-3061.0
 20
4927.0
 30
0.0
 11
-2685.0
 21
4927.0
 31
0.0
 12
-3061.0
 22
5427.0
 32
0.0
 13
-2685.0
 23
5427.0
 33
0.0
  0
SOLID
  5
1CE
330
A
100
AcDbEntity
  8
SOLDERMASK_PADS_BTM
100
AcDbTrace
 10
-3887.0
 20
4927.0
 30
0.0
 11
-3511.0
 21
4927.0
 31
0.0
 12
-3887.0
 22
5427.0
 32
0.0
 13
-3511.0
 23
5427.0
 33
0.0
  0
SOLID
  5
1CF
330
A
100
AcDbEntity
  8
SOLDERMASK_PADS_BTM
100
AcDbTrace
 10
2375.0
 20
4175.0
 30
0.0
 11
2875.0
 21
4175.0
 31
0.0
 12
2375.0
 22
4551.0
 32
0.0
 13
2875.0
 23
4551.0
 33
0.0
  0
SOLID
  5
1D0
330
A
100
AcDbEntity
  8
SOLDERMASK_PADS_BTM
100
AcDbTrace
 10
2375.0
 20
5001.0
 30
0.0
 11
2875.0
 21
5001.0
 31
0.0
 12
2375.0
 22
5377.0
 32
0.0
 13
2875.0
 23
5377.0
 33
0.0
  0
SOLID
  5
1D1
330
A
100
AcDbEntity
  8
SOLDERMASK_PADS_BTM
100
AcDbTrace
 10
-6791.0
 20
2916.737
 30
0.0
 11
-6415.0
 21
2916.737
 31
0.0
 12
-6791.0
 22
3416.737
 32
0.0
 13
-6415.0
 23
3416.737
 33
0.0
  0
SOLID
  5
1D2
330
A
100
AcDbEntity
  8
SOLDERMASK_PADS_BTM
100
AcDbTrace
 10
-5965.0
 20
2916.737
 30
0.0
 11
-5589.0
 21
2916.737
 31
0.0
 12
-5965.0
 22
3416.737
 32
0.0
 13
-5589.0
 23
3416.737
 33
0.0
  0
SOLID
  5
1D3
330
A
100
AcDbEntity
  8
SOLDERMASK_PADS_BTM
100
AcDbTrace
 10
-157.0
 20
1953.0
 30
0.0
 11
219.0
 21
1953.0
 31
0.0
 12
-157.0
 22
2453.0
 32
0.0
 13
219.0
 23
2453.0
 33
0.0
  0
SOLID
  5
1D4
330
A
100
AcDbEntity
  8
SOLDERMASK_PADS_BTM
100
AcDbTrace
 10
-983.0
 20
1953.0
 30
0.0
 11
-607.0
 21
1953.0
 31
0.0
 12
-983.0
 22
2453.0
 32
0.0
 13
-607.0
 23
2453.0
 33
0.0
  0
SOLID
  5
1D5
330
A
100
AcDbEntity
  8
SOLDERMASK_PADS_BTM
100
AcDbTrace
 10
-7417.0
 20
1917.213
 30
0.0
 11
-7041.0
 21
1917.213
 31
0.0
 12
-7417.0
 22
2417.213
 32
0.0
 13
-7041.0
 23
2417.213
 33
0.0
  0
SOLID
  5
1D6
330
A
100
AcDbEntity
  8
SOLDERMASK_PADS_BTM
100
AcDbTrace
 10
-8243.0
 20
1917.213
 30
0.0
 11
-7867.0
 21
1917.213
 31
0.0
 12
-8243.0
 22
2417.213
 32
0.0
 13
-7867.0
 23
2417.213
 33
0.0
  0
SOLID
  5
1D7
330
A
100
AcDbEntity
  8
SOLDERMASK_PADS_BTM
100
AcDbTrace
 10
1921.0
 20
-2175.0
 30
0.0
 11
2297.0
 21
-2175.0
 31
0.0
 12
1921.0
 22
-1675.0
 32
0.0
 13
2297.0
 23
-1675.0
 33
0.0
  0
SOLID
  5
1D8
330
A
100
AcDbEntity
  8
SOLDERMASK_PADS_BTM
100
AcDbTrace
 10
2747.0
 20
-2175.0
 30
0.0
 11
3123.0
 21
-2175.0
 31
0.0
 12
2747.0
 22
-1675.0
 32
0.0
 13
3123.0
 23
-1675.0
 33
0.0
  0
SOLID
  5
1D9
330
A
100
AcDbEntity
  8
SOLDERMASK_PADS_BTM
100
AcDbTrace
 10
-1609.0
 20
-2925.0
 30
0.0
 11
-1233.0
 21
-2925.0
 31
0.0
 12
-1609.0
 22
-2425.0
 32
0.0
 13
-1233.0
 23
-2425.0
 33
0.0
  0
SOLID
  5
1DA
330
A
100
AcDbEntity
  8
SOLDERMASK_PADS_BTM
100
AcDbTrace
 10
-2435.0
 20
-2925.0
 30
0.0
 11
-2059.0
 21
-2925.0
 31
0.0
 12
-2435.0
 22
-2425.0
 32
0.0
 13
-2059.0
 23
-2425.0
 33
0.0
  0
SOLID
  5
1DB
330
A
100
AcDbEntity
  8
SOLDERMASK_PADS_BTM
100
AcDbTrace
 10
3373.002
 20
-5175.0
 30
0.0
 11
3749.002
 21
-5175.0
 31
0.0
 12
3373.002
 22
-4675.0
 32
0.0
 13
3749.002
 23
-4675.0
 33
0.0
  0
SOLID
  5
1DC
330
A
100
AcDbEntity
  8
SOLDERMASK_PADS_BTM
100
AcDbTrace
 10
4199.002000000001
 20
-5175.0
 30
0.0
 11
4575.002
 21
-5175.0
 31
0.0
 12
4199.002000000001
 22
-4675.0
 32
0.0
 13
4575.002
 23
-4675.0
 33
0.0
  0
SOLID
  5
1DD
330
A
100
AcDbEntity
  8
SOLDERMASK_PADS_BTM
100
AcDbTrace
 10
-4513.0
 20
-5175.0
 30
0.0
 11
-4137.0
 21
-5175.0
 31
0.0
 12
-4513.0
 22
-4675.0
 32
0.0
 13
-4137.0
 23
-4675.0
 33
0.0
  0
SOLID
  5
1DE
330
A
100
AcDbEntity
  8
SOLDERMASK_PADS_BTM
100
AcDbTrace
 10
-5339.0
 20
-5175.0
 30
0.0
 11
-4963.0
 21
-5175.0
 31
0.0
 12
-5339.0
 22
-4675.0
 32
0.0
 13
-4963.0
 23
-4675.0
 33
0.0
  0
SOLID
  5
1DF
330
A
100
AcDbEntity
  8
SOLDERMASK_PADS_BTM
100
AcDbTrace
 10
-8243.0
 20
-2100.0
 30
0.0
 11
-7867.0
 21
-2100.0
 31
0.0
 12
-8243.0
 22
-1600.0
 32
0.0
 13
-7867.0
 23
-1600.0
 33
0.0
  0
SOLID
  5
1E0
330
A
100
AcDbEntity
  8
SOLDERMASK_PADS_BTM
100
AcDbTrace
 10
-7417.0
 20
-2100.0
 30
0.0
 11
-7041.0
 21
-2100.0
 31
0.0
 12
-7417.0
 22
-1600.0
 32
0.0
 13
-7041.0
 23
-1600.0
 33
0.0
  0
SOLID
  5
1E1
330
A
100
AcDbEntity
  8
SOLDERMASK_PADS_BTM
100
AcDbTrace
 10
4825.003999999999
 20
-5850.0
 30
0.0
 11
5201.004000000001
 21
-5850.0
 31
0.0
 12
4825.003999999999
 22
-5350.0
 32
0.0
 13
5201.004000000001
 23
-5350.0
 33
0.0
  0
SOLID
  5
1E2
330
A
100
AcDbEntity
  8
SOLDERMASK_PADS_BTM
100
AcDbTrace
 10
5651.004
 20
-5850.0
 30
0.0
 11
6027.004
 21
-5850.0
 31
0.0
 12
5651.004
 22
-5350.0
 32
0.0
 13
6027.004
 23
-5350.0
 33
0.0
  0
SOLID
  5
1E3
330
A
100
AcDbEntity
  8
SOLDERMASK_PADS_BTM
100
AcDbTrace
 10
-8243.0
 20
-5850.0
 30
0.0
 11
-7867.0
 21
-5850.0
 31
0.0
 12
-8243.0
 22
-5350.0
 32
0.0
 13
-7867.0
 23
-5350.0
 33
0.0
  0
SOLID
  5
1E4
330
A
100
AcDbEntity
  8
SOLDERMASK_PADS_BTM
100
AcDbTrace
 10
-7417.0
 20
-5850.0
 30
0.0
 11
-7041.0
 21
-5850.0
 31
0.0
 12
-7417.0
 22
-5350.0
 32
0.0
 13
-7041.0
 23
-5350.0
 33
0.0
  0
SOLID
  5
1E5
330
A
100
AcDbEntity
  8
SOLDERMASK_PADS_BTM
100
AcDbTrace
 10
-157.0
 20
-7350.0
 30
0.0
 11
219.0
 21
-7350.0
 31
0.0
 12
-157.0
 22
-6850.0
 32
0.0
 13
219.0
 23
-6850.0
 33
0.0
  0
SOLID
  5
1E6
330
A
100
AcDbEntity
  8
SOLDERMASK_PADS_BTM
100
AcDbTrace
 10
-983.0
 20
-7350.0
 30
0.0
 11
-607.0
 21
-7350.0
 31
0.0
 12
-983.0
 22
-6850.0
 32
0.0
 13
-607.0
 23
-6850.0
 33
0.0
  0
SOLID
  5
1E7
330
A
100
AcDbEntity
  8
SOLDERMASK_PADS_BTM
100
AcDbTrace
 10
-7417.0
 20
-7350.0
 30
0.0
 11
-7041.0
 21
-7350.0
 31
0.0
 12
-7417.0
 22
-6850.0
 32
0.0
 13
-7041.0
 23
-6850.0
 33
0.0
  0
SOLID
  5
1E8
330
A
100
AcDbEntity
  8
SOLDERMASK_PADS_BTM
100
AcDbTrace
 10
-8243.0
 20
-7350.0
 30
0.0
 11
-7867.0
 21
-7350.0
 31
0.0
 12
-8243.0
 22
-6850.0
 32
0.0
 13
-7867.0
 23
-6850.0
 33
0.0
  0
CIRCLE
  5
1E9
330
A
100
AcDbEntity
  8
SOLDERMASK_PADS_BTM
100
AcDbCircle
 10
-8073.09
 20
8189.26
 30
0.0
 40
150.0
  0
HATCH
  5
1EA
330
A
100
AcDbEntity
  8
SOLDERMASK_PADS_BTM
100
AcDbHatch
 10
0.0
 20
0.0
 30
0.0
210
0.0
220
0.0
230
1.0
  2
SOLID
 70
     1
 71
     0
 91
        1
 92
        1
 93
        1
 72
     2
 10
-8073.09
 20
8189.26
 40
150.0
 50
0.0
 51
360.0
 73
     0
 97
        0
 75
     0
 76
     1
 98
        1
 10
0.0
 20
0.0
450
        0
451
        0
460
0.0
461
0.0
452
        0
462
0.0
453
        0
470

  0
CIRCLE
  5
1EB
330
A
100
AcDbEntity
  8
SOLDERMASK_PADS_BTM
100
AcDbCircle
 10
8139.790000000001
 20
-8217.159999999999
 30
0.0
 40
150.0
  0
HATCH
  5
1EC
330
A
100
AcDbEntity
  8
SOLDERMASK_PADS_BTM
100
AcDbHatch
 10
0.0
 20
0.0
 30
0.0
210
0.0
220
0.0
230
1.0
  2
SOLID
 70
     1
 71
     0
 91
        1
 92
        1
 93
        1
 72
     2
 10
8139.790000000001
 20
-8217.159999999999
 40
150.0
 50
0.0
 51
360.0
 73
     0
 97
        0
 75
     0
 76
     1
 98
        1
 10
0.0
 20
0.0
450
        0
451
        0
460
0.0
461
0.0
452
        0
462
0.0
453
        0
470

  0
LWPOLYLINE
  5
1ED
330
A
100
AcDbEntity
  8
SOLDERMASK_PADS_BTM
100
AcDbPolyline
 90
        3
 70
     1
 43
0.0
 10
38330.0
 20
-24080.0
 10
38330.0
 20
-24580.0
 10
37830.0
 20
-24580.0
  0
HATCH
  5
1EE
330
A
100
AcDbEntity
  8
SOLDERMASK_PADS_BTM
100
AcDbHatch
 10
0.0
 20
0.0
 30
0.0
210
0.0
220
0.0
230
1.0
  2
SOLID
 70
     1
 71
     0
 91
        1
 92
        2
 72
     0
 73
     1
 93
        3
 10
38330.0
 20
-24080.0
 10
38330.0
 20
-24580.0
 10
37830.0
 20
-24580.0
 97
        0
 75
     0
 76
     1
 98
        1
 10
0.0
 20
0.0
450
        0
451
        0
460
0.0
461
0.0
452
        0
462
0.0
453
        0
470

  0
SOLID
  5
240F
330
A
100
AcDbEntity
  8
SOLDERMASK_PADS_BTM
100
AcDbTrace
 10
125.0
 20
7600.0
 30
0.0
 11
501.0
 21
7600.0
 31
0.0
 12
125.0
 22
8100.0
 32
0.0
 13
501.0
 23
8100.0
 33
0.0
  0
SOLID
  5
2410
330
A
100
AcDbEntity
  8
SOLDERMASK_PADS_BTM
100
AcDbTrace
 10
951.0
 20
7600.0
 30
0.0
 11
1327.0
 21
7600.0
 31
0.0
 12
951.0
 22
8100.0
 32
0.0
 13
1327.0
 23
8100.0
 33
0.0
  0
SOLID
  5
2411
330
A
100
AcDbEntity
  8
SOLDERMASK_PADS_BTM
100
AcDbTrace
 10
7103.0
 20
6125.0
 30
0.0
 11
7479.0
 21
6125.0
 31
0.0
 12
7103.0
 22
6625.0
 32
0.0
 13
7479.0
 23
6625.0
 33
0.0
  0
SOLID
  5
2412
330
A
100
AcDbEntity
  8
SOLDERMASK_PADS_BTM
100
AcDbTrace
 10
6277.0
 20
6125.0
 30
0.0
 11
6653.0
 21
6125.0
 31
0.0
 12
6277.0
 22
6625.0
 32
0.0
 13
6653.0
 23
6625.0
 33
0.0
  0
SOLID
  5
2413
330
A
100
AcDbEntity
  8
SOLDERMASK_PADS_BTM
100
AcDbTrace
 10
-4513.0
 20
6100.0
 30
0.0
 11
-4137.0
 21
6100.0
 31
0.0
 12
-4513.0
 22
6600.0
 32
0.0
 13
-4137.0
 23
6600.0
 33
0.0
  0
SOLID
  5
2414
330
A
100
AcDbEntity
  8
SOLDERMASK_PADS_BTM
100
AcDbTrace
 10
-5339.0
 20
6100.0
 30
0.0
 11
-4963.0
 21
6100.0
 31
0.0
 12
-5339.0
 22
6600.0
 32
0.0
 13
-4963.0
 23
6600.0
 33
0.0
  0
SOLID
  5
2415
330
A
100
AcDbEntity
  8
SOLDERMASK_PADS_BTM
100
AcDbTrace
 10
1921.0
 20
2866.737
 30
0.0
 11
2297.0
 21
2866.737
 31
0.0
 12
1921.0
 22
3366.737
 32
0.0
 13
2297.0
 23
3366.737
 33
0.0
  0
SOLID
  5
2416
330
A
100
AcDbEntity
  8
SOLDERMASK_PADS_BTM
100
AcDbTrace
 10
2747.0
 20
2866.737
 30
0.0
 11
3123.0
 21
2866.737
 31
0.0
 12
2747.0
 22
3366.737
 32
0.0
 13
3123.0
 23
3366.737
 33
0.0
  0
SOLID
  5
2417
330
A
100
AcDbEntity
  8
SOLDERMASK_PADS_BTM
100
AcDbTrace
 10
-7417.0
 20
4167.212999999999
 30
0.0
 11
-7041.0
 21
4167.212999999999
 31
0.0
 12
-7417.0
 22
4667.212999999999
 32
0.0
 13
-7041.0
 23
4667.212999999999
 33
0.0
  0
SOLID
  5
2418
330
A
100
AcDbEntity
  8
SOLDERMASK_PADS_BTM
100
AcDbTrace
 10
-8243.0
 20
4167.212999999999
 30
0.0
 11
-7867.0
 21
4167.212999999999
 31
0.0
 12
-8243.0
 22
4667.212999999999
 32
0.0
 13
-7867.0
 23
4667.212999999999
 33
0.0
  0
SOLID
  5
2419
330
A
100
AcDbEntity
  8
SOLDERMASK_PADS_BTM
100
AcDbTrace
 10
-983.0
 20
925.0
 30
0.0
 11
-607.0
 21
925.0
 31
0.0
 12
-983.0
 22
1425.0
 32
0.0
 13
-607.0
 23
1425.0
 33
0.0
  0
SOLID
  5
241A
330
A
100
AcDbEntity
  8
SOLDERMASK_PADS_BTM
100
AcDbTrace
 10
-157.0
 20
925.0
 30
0.0
 11
219.0
 21
925.0
 31
0.0
 12
-157.0
 22
1425.0
 32
0.0
 13
219.0
 23
1425.0
 33
0.0
  0
SOLID
  5
241B
330
A
100
AcDbEntity
  8
SOLDERMASK_PADS_BTM
100
AcDbTrace
 10
-7417.0
 20
1167.213
 30
0.0
 11
-7041.0
 21
1167.213
 31
0.0
 12
-7417.0
 22
1667.213
 32
0.0
 13
-7041.0
 23
1667.213
 33
0.0
  0
SOLID
  5
241C
330
A
100
AcDbEntity
  8
SOLDERMASK_PADS_BTM
100
AcDbTrace
 10
-8243.0
 20
1167.213
 30
0.0
 11
-7867.0
 21
1167.213
 31
0.0
 12
-8243.0
 22
1667.213
 32
0.0
 13
-7867.0
 23
1667.213
 33
0.0
  0
SOLID
  5
241D
330
A
100
AcDbEntity
  8
SOLDERMASK_PADS_BTM
100
AcDbTrace
 10
1921.0
 20
-2925.0
 30
0.0
 11
2297.0
 21
-2925.0
 31
0.0
 12
1921.0
 22
-2425.0
 32
0.0
 13
2297.0
 23
-2425.0
 33
0.0
  0
SOLID
  5
241E
330
A
100
AcDbEntity
  8
SOLDERMASK_PADS_BTM
100
AcDbTrace
 10
2747.0
 20
-2925.0
 30
0.0
 11
3123.0
 21
-2925.0
 31
0.0
 12
2747.0
 22
-2425.0
 32
0.0
 13
3123.0
 23
-2425.0
 33
0.0
  0
SOLID
  5
241F
330
A
100
AcDbEntity
  8
SOLDERMASK_PADS_BTM
100
AcDbTrace
 10
-3887.0
 20
-1425.0
 30
0.0
 11
-3511.0
 21
-1425.0
 31
0.0
 12
-3887.0
 22
-925.0
 32
0.0
 13
-3511.0
 23
-925.0
 33
0.0
  0
SOLID
  5
2420
330
A
100
AcDbEntity
  8
SOLDERMASK_PADS_BTM
100
AcDbTrace
 10
-3061.0
 20
-1425.0
 30
0.0
 11
-2685.0
 21
-1425.0
 31
0.0
 12
-3061.0
 22
-925.0
 32
0.0
 13
-2685.0
 23
-925.0
 33
0.0
  0
SOLID
  5
2421
330
A
100
AcDbEntity
  8
SOLDERMASK_PADS_BTM
100
AcDbTrace
 10
2375.0
 20
-5127.0
 30
0.0
 11
2875.0
 21
-5127.0
 31
0.0
 12
2375.0
 22
-4751.0
 32
0.0
 13
2875.0
 23
-4751.0
 33
0.0
  0
SOLID
  5
2422
330
A
100
AcDbEntity
  8
SOLDERMASK_PADS_BTM
100
AcDbTrace
 10
2375.0
 20
-4301.0
 30
0.0
 11
2875.0
 21
-4301.0
 31
0.0
 12
2375.0
 22
-3925.0
 32
0.0
 13
2875.0
 23
-3925.0
 33
0.0
  0
SOLID
  5
2423
330
A
100
AcDbEntity
  8
SOLDERMASK_PADS_BTM
100
AcDbTrace
 10
-8243.0
 20
-2850.0
 30
0.0
 11
-7867.0
 21
-2850.0
 31
0.0
 12
-8243.0
 22
-2350.0
 32
0.0
 13
-7867.0
 23
-2350.0
 33
0.0
  0
SOLID
  5
2424
330
A
100
AcDbEntity
  8
SOLDERMASK_PADS_BTM
100
AcDbTrace
 10
-7417.0
 20
-2850.0
 30
0.0
 11
-7041.0
 21
-2850.0
 31
0.0
 12
-7417.0
 22
-2350.0
 32
0.0
 13
-7041.0
 23
-2350.0
 33
0.0
  0
SOLID
  5
2425
330
A
100
AcDbEntity
  8
SOLDERMASK_PADS_BTM
100
AcDbTrace
 10
-6791.0
 20
-3675.0
 30
0.0
 11
-6415.0
 21
-3675.0
 31
0.0
 12
-6791.0
 22
-3175.0
 32
0.0
 13
-6415.0
 23
-3175.0
 33
0.0
  0
SOLID
  5
2426
330
A
100
AcDbEntity
  8
SOLDERMASK_PADS_BTM
100
AcDbTrace
 10
-5965.0
 20
-3675.0
 30
0.0
 11
-5589.0
 21
-3675.0
 31
0.0
 12
-5965.0
 22
-3175.0
 32
0.0
 13
-5589.0
 23
-3175.0
 33
0.0
  0
SOLID
  5
2427
330
A
100
AcDbEntity
  8
SOLDERMASK_PADS_BTM
100
AcDbTrace
 10
4825.003999999999
 20
-6600.0
 30
0.0
 11
5201.004000000001
 21
-6600.0
 31
0.0
 12
4825.003999999999
 22
-6100.0
 32
0.0
 13
5201.004000000001
 23
-6100.0
 33
0.0
  0
SOLID
  5
2428
330
A
100
AcDbEntity
  8
SOLDERMASK_PADS_BTM
100
AcDbTrace
 10
5651.004
 20
-6600.0
 30
0.0
 11
6027.004
 21
-6600.0
 31
0.0
 12
5651.004
 22
-6100.0
 32
0.0
 13
6027.004
 23
-6100.0
 33
0.0
  0
SOLID
  5
2429
330
A
100
AcDbEntity
  8
SOLDERMASK_PADS_BTM
100
AcDbTrace
 10
-7417.0
 20
-6600.0
 30
0.0
 11
-7041.0
 21
-6600.0
 31
0.0
 12
-7417.0
 22
-6100.0
 32
0.0
 13
-7041.0
 23
-6100.0
 33
0.0
  0
SOLID
  5
242A
330
A
100
AcDbEntity
  8
SOLDERMASK_PADS_BTM
100
AcDbTrace
 10
-8243.0
 20
-6600.0
 30
0.0
 11
-7867.0
 21
-6600.0
 31
0.0
 12
-8243.0
 22
-6100.0
 32
0.0
 13
-7867.0
 23
-6100.0
 33
0.0
  0
SOLID
  5
242B
330
A
100
AcDbEntity
  8
SOLDERMASK_PADS_BTM
100
AcDbTrace
 10
-157.0
 20
-8100.0
 30
0.0
 11
219.0
 21
-8100.0
 31
0.0
 12
-157.0
 22
-7600.0
 32
0.0
 13
219.0
 23
-7600.0
 33
0.0
  0
SOLID
  5
242C
330
A
100
AcDbEntity
  8
SOLDERMASK_PADS_BTM
100
AcDbTrace
 10
-983.0
 20
-8100.0
 30
0.0
 11
-607.0
 21
-8100.0
 31
0.0
 12
-983.0
 22
-7600.0
 32
0.0
 13
-607.0
 23
-7600.0
 33
0.0
  0
SOLID
  5
242D
330
A
100
AcDbEntity
  8
SOLDERMASK_PADS_BTM
100
AcDbTrace
 10
-983.0
 20
6850.0
 30
0.0
 11
-607.0
 21
6850.0
 31
0.0
 12
-983.0
 22
7350.0
 32
0.0
 13
-607.0
 23
7350.0
 33
0.0
  0
SOLID
  5
242E
330
A
100
AcDbEntity
  8
SOLDERMASK_PADS_BTM
100
AcDbTrace
 10
-157.0
 20
6850.0
 30
0.0
 11
219.0
 21
6850.0
 31
0.0
 12
-157.0
 22
7350.0
 32
0.0
 13
219.0
 23
7350.0
 33
0.0
  0
SOLID
  5
242F
330
A
100
AcDbEntity
  8
SOLDERMASK_PADS_BTM
100
AcDbTrace
 10
7103.0
 20
5375.0
 30
0.0
 11
7479.0
 21
5375.0
 31
0.0
 12
7103.0
 22
5875.0
 32
0.0
 13
7479.0
 23
5875.0
 33
0.0
  0
SOLID
  5
2430
330
A
100
AcDbEntity
  8
SOLDERMASK_PADS_BTM
100
AcDbTrace
 10
6277.0
 20
5375.0
 30
0.0
 11
6653.0
 21
5375.0
 31
0.0
 12
6277.0
 22
5875.0
 32
0.0
 13
6653.0
 23
5875.0
 33
0.0
  0
SOLID
  5
2431
330
A
100
AcDbEntity
  8
SOLDERMASK_PADS_BTM
100
AcDbTrace
 10
-5339.0
 20
4927.0
 30
0.0
 11
-4963.0
 21
4927.0
 31
0.0
 12
-5339.0
 22
5427.0
 32
0.0
 13
-4963.0
 23
5427.0
 33
0.0
  0
SOLID
  5
2432
330
A
100
AcDbEntity
  8
SOLDERMASK_PADS_BTM
100
AcDbTrace
 10
-4513.0
 20
4927.0
 30
0.0
 11
-4137.0
 21
4927.0
 31
0.0
 12
-4513.0
 22
5427.0
 32
0.0
 13
-4137.0
 23
5427.0
 33
0.0
  0
SOLID
  5
2433
330
A
100
AcDbEntity
  8
SOLDERMASK_PADS_BTM
100
AcDbTrace
 10
1294.998
 20
2866.737
 30
0.0
 11
1670.998
 21
2866.737
 31
0.0
 12
1294.998
 22
3366.737
 32
0.0
 13
1670.998
 23
3366.737
 33
0.0
  0
SOLID
  5
2434
330
A
100
AcDbEntity
  8
SOLDERMASK_PADS_BTM
100
AcDbTrace
 10
468.998
 20
2866.737
 30
0.0
 11
844.998
 21
2866.737
 31
0.0
 12
468.998
 22
3366.737
 32
0.0
 13
844.998
 23
3366.737
 33
0.0
  0
SOLID
  5
2435
330
A
100
AcDbEntity
  8
SOLDERMASK_PADS_BTM
100
AcDbTrace
 10
6277.0
 20
1900.0
 30
0.0
 11
6653.0
 21
1900.0
 31
0.0
 12
6277.0
 22
2400.0
 32
0.0
 13
6653.0
 23
2400.0
 33
0.0
  0
SOLID
  5
2436
330
A
100
AcDbEntity
  8
SOLDERMASK_PADS_BTM
100
AcDbTrace
 10
7103.0
 20
1900.0
 30
0.0
 11
7479.0
 21
1900.0
 31
0.0
 12
7103.0
 22
2400.0
 32
0.0
 13
7479.0
 23
2400.0
 33
0.0
  0
SOLID
  5
2437
330
A
100
AcDbEntity
  8
SOLDERMASK_PADS_BTM
100
AcDbTrace
 10
-2435.0
 20
1953.0
 30
0.0
 11
-2059.0
 21
1953.0
 31
0.0
 12
-2435.0
 22
2453.0
 32
0.0
 13
-2059.0
 23
2453.0
 33
0.0
  0
SOLID
  5
2438
330
A
100
AcDbEntity
  8
SOLDERMASK_PADS_BTM
100
AcDbTrace
 10
-1609.0
 20
1953.0
 30
0.0
 11
-1233.0
 21
1953.0
 31
0.0
 12
-1609.0
 22
2453.0
 32
0.0
 13
-1233.0
 23
2453.0
 33
0.0
  0
SOLID
  5
2439
330
A
100
AcDbEntity
  8
SOLDERMASK_PADS_BTM
100
AcDbTrace
 10
7103.0
 20
-1850.0
 30
0.0
 11
7479.0
 21
-1850.0
 31
0.0
 12
7103.0
 22
-1350.0
 32
0.0
 13
7479.0
 23
-1350.0
 33
0.0
  0
SOLID
  5
243A
330
A
100
AcDbEntity
  8
SOLDERMASK_PADS_BTM
100
AcDbTrace
 10
6277.0
 20
-1850.0
 30
0.0
 11
6653.0
 21
-1850.0
 31
0.0
 12
6277.0
 22
-1350.0
 32
0.0
 13
6653.0
 23
-1350.0
 33
0.0
  0
SOLID
  5
243B
330
A
100
AcDbEntity
  8
SOLDERMASK_PADS_BTM
100
AcDbTrace
 10
1294.998
 20
-1425.0
 30
0.0
 11
1670.998
 21
-1425.0
 31
0.0
 12
1294.998
 22
-925.0
 32
0.0
 13
1670.998
 23
-925.0
 33
0.0
  0
SOLID
  5
243C
330
A
100
AcDbEntity
  8
SOLDERMASK_PADS_BTM
100
AcDbTrace
 10
468.998
 20
-1425.0
 30
0.0
 11
844.998
 21
-1425.0
 31
0.0
 12
468.998
 22
-925.0
 32
0.0
 13
844.998
 23
-925.0
 33
0.0
  0
SOLID
  5
243D
330
A
100
AcDbEntity
  8
SOLDERMASK_PADS_BTM
100
AcDbTrace
 10
-3887.0
 20
-2175.0
 30
0.0
 11
-3511.0
 21
-2175.0
 31
0.0
 12
-3887.0
 22
-1675.0
 32
0.0
 13
-3511.0
 23
-1675.0
 33
0.0
  0
SOLID
  5
243E
330
A
100
AcDbEntity
  8
SOLDERMASK_PADS_BTM
100
AcDbTrace
 10
-3061.0
 20
-2175.0
 30
0.0
 11
-2685.0
 21
-2175.0
 31
0.0
 12
-3061.0
 22
-1675.0
 32
0.0
 13
-2685.0
 23
-1675.0
 33
0.0
  0
SOLID
  5
243F
330
A
100
AcDbEntity
  8
SOLDERMASK_PADS_BTM
100
AcDbTrace
 10
1921.0
 20
-3675.0
 30
0.0
 11
2297.0
 21
-3675.0
 31
0.0
 12
1921.0
 22
-3175.0
 32
0.0
 13
2297.0
 23
-3175.0
 33
0.0
  0
SOLID
  5
2440
330
A
100
AcDbEntity
  8
SOLDERMASK_PADS_BTM
100
AcDbTrace
 10
2747.0
 20
-3675.0
 30
0.0
 11
3123.0
 21
-3675.0
 31
0.0
 12
2747.0
 22
-3175.0
 32
0.0
 13
3123.0
 23
-3175.0
 33
0.0
  0
SOLID
  5
2441
330
A
100
AcDbEntity
  8
SOLDERMASK_PADS_BTM
100
AcDbTrace
 10
-6791.0
 20
-4425.0
 30
0.0
 11
-6415.0
 21
-4425.0
 31
0.0
 12
-6791.0
 22
-3925.0
 32
0.0
 13
-6415.0
 23
-3925.0
 33
0.0
  0
SOLID
  5
2442
330
A
100
AcDbEntity
  8
SOLDERMASK_PADS_BTM
100
AcDbTrace
 10
-5965.0
 20
-4425.0
 30
0.0
 11
-5589.0
 21
-4425.0
 31
0.0
 12
-5965.0
 22
-3925.0
 32
0.0
 13
-5589.0
 23
-3925.0
 33
0.0
  0
SOLID
  5
2443
330
A
100
AcDbEntity
  8
SOLDERMASK_PADS_BTM
100
AcDbTrace
 10
7103.0
 20
-3350.0
 30
0.0
 11
7479.0
 21
-3350.0
 31
0.0
 12
7103.0
 22
-2850.0
 32
0.0
 13
7479.0
 23
-2850.0
 33
0.0
  0
SOLID
  5
2444
330
A
100
AcDbEntity
  8
SOLDERMASK_PADS_BTM
100
AcDbTrace
 10
6277.0
 20
-3350.0
 30
0.0
 11
6653.0
 21
-3350.0
 31
0.0
 12
6277.0
 22
-2850.0
 32
0.0
 13
6653.0
 23
-2850.0
 33
0.0
  0
SOLID
  5
2445
330
A
100
AcDbEntity
  8
SOLDERMASK_PADS_BTM
100
AcDbTrace
 10
3373.002
 20
-6600.0
 30
0.0
 11
3749.002
 21
-6600.0
 31
0.0
 12
3373.002
 22
-6100.0
 32
0.0
 13
3749.002
 23
-6100.0
 33
0.0
  0
SOLID
  5
2446
330
A
100
AcDbEntity
  8
SOLDERMASK_PADS_BTM
100
AcDbTrace
 10
4199.002000000001
 20
-6600.0
 30
0.0
 11
4575.002
 21
-6600.0
 31
0.0
 12
4199.002000000001
 22
-6100.0
 32
0.0
 13
4575.002
 23
-6100.0
 33
0.0
  0
SOLID
  5
2447
330
A
100
AcDbEntity
  8
SOLDERMASK_PADS_BTM
100
AcDbTrace
 10
4825.003999999999
 20
-7350.0
 30
0.0
 11
5201.004000000001
 21
-7350.0
 31
0.0
 12
4825.003999999999
 22
-6850.0
 32
0.0
 13
5201.004000000001
 23
-6850.0
 33
0.0
  0
SOLID
  5
2448
330
A
100
AcDbEntity
  8
SOLDERMASK_PADS_BTM
100
AcDbTrace
 10
5651.004
 20
-7350.0
 30
0.0
 11
6027.004
 21
-7350.0
 31
0.0
 12
5651.004
 22
-6850.0
 32
0.0
 13
6027.004
 23
-6850.0
 33
0.0
  0
SOLID
  5
2449
330
A
100
AcDbEntity
  8
SOLDERMASK_PADS_BTM
100
AcDbTrace
 10
-2435.0
 20
-7350.0
 30
0.0
 11
-2059.0
 21
-7350.0
 31
0.0
 12
-2435.0
 22
-6850.0
 32
0.0
 13
-2059.0
 23
-6850.0
 33
0.0
  0
SOLID
  5
244A
330
A
100
AcDbEntity
  8
SOLDERMASK_PADS_BTM
100
AcDbTrace
 10
-1609.0
 20
-7350.0
 30
0.0
 11
-1233.0
 21
-7350.0
 31
0.0
 12
-1609.0
 22
-6850.0
 32
0.0
 13
-1233.0
 23
-6850.0
 33
0.0
  0
SOLID
  5
244B
330
A
100
AcDbEntity
  8
SOLDERMASK_PADS_BTM
100
AcDbTrace
 10
-2779.0
 20
7600.0
 30
0.0
 11
-2403.0
 21
7600.0
 31
0.0
 12
-2779.0
 22
8100.0
 32
0.0
 13
-2403.0
 23
8100.0
 33
0.0
  0
SOLID
  5
244C
330
A
100
AcDbEntity
  8
SOLDERMASK_PADS_BTM
100
AcDbTrace
 10
-1953.0
 20
7600.0
 30
0.0
 11
-1577.0
 21
7600.0
 31
0.0
 12
-1953.0
 22
8100.0
 32
0.0
 13
-1577.0
 23
8100.0
 33
0.0
  0
SOLID
  5
244D
330
A
100
AcDbEntity
  8
SOLDERMASK_PADS_BTM
100
AcDbTrace
 10
1921.0
 20
6050.0
 30
0.0
 11
2297.0
 21
6050.0
 31
0.0
 12
1921.0
 22
6550.0
 32
0.0
 13
2297.0
 23
6550.0
 33
0.0
  0
SOLID
  5
244E
330
A
100
AcDbEntity
  8
SOLDERMASK_PADS_BTM
100
AcDbTrace
 10
2747.0
 20
6050.0
 30
0.0
 11
3123.0
 21
6050.0
 31
0.0
 12
2747.0
 22
6550.0
 32
0.0
 13
3123.0
 23
6550.0
 33
0.0
  0
SOLID
  5
244F
330
A
100
AcDbEntity
  8
SOLDERMASK_PADS_BTM
100
AcDbTrace
 10
-501.0
 20
7600.0
 30
0.0
 11
-125.0
 21
7600.0
 31
0.0
 12
-501.0
 22
8100.0
 32
0.0
 13
-125.0
 23
8100.0
 33
0.0
  0
SOLID
  5
2450
330
A
100
AcDbEntity
  8
SOLDERMASK_PADS_BTM
100
AcDbTrace
 10
-1327.0
 20
7600.0
 30
0.0
 11
-951.0
 21
7600.0
 31
0.0
 12
-1327.0
 22
8100.0
 32
0.0
 13
-951.0
 23
8100.0
 33
0.0
  0
SOLID
  5
2451
330
A
100
AcDbEntity
  8
SOLDERMASK_PADS_BTM
100
AcDbTrace
 10
-7417.0
 20
5667.213000000001
 30
0.0
 11
-7041.0
 21
5667.213000000001
 31
0.0
 12
-7417.0
 22
6167.213000000001
 32
0.0
 13
-7041.0
 23
6167.213000000001
 33
0.0
  0
SOLID
  5
2452
330
A
100
AcDbEntity
  8
SOLDERMASK_PADS_BTM
100
AcDbTrace
 10
-8243.0
 20
5667.213000000001
 30
0.0
 11
-7867.0
 21
5667.213000000001
 31
0.0
 12
-8243.0
 22
6167.213000000001
 32
0.0
 13
-7867.0
 23
6167.213000000001
 33
0.0
  0
SOLID
  5
2453
330
A
100
AcDbEntity
  8
SOLDERMASK_PADS_BTM
100
AcDbTrace
 10
3373.002
 20
6050.0
 30
0.0
 11
3749.002
 21
6050.0
 31
0.0
 12
3373.002
 22
6550.0
 32
0.0
 13
3749.002
 23
6550.0
 33
0.0
  0
SOLID
  5
2454
330
A
100
AcDbEntity
  8
SOLDERMASK_PADS_BTM
100
AcDbTrace
 10
4199.002000000001
 20
6050.0
 30
0.0
 11
4575.002
 21
6050.0
 31
0.0
 12
4199.002000000001
 22
6550.0
 32
0.0
 13
4575.002
 23
6550.0
 33
0.0
  0
SOLID
  5
2455
330
A
100
AcDbEntity
  8
SOLDERMASK_PADS_BTM
100
AcDbTrace
 10
-3061.0
 20
3779.0
 30
0.0
 11
-2685.0
 21
3779.0
 31
0.0
 12
-3061.0
 22
4279.0
 32
0.0
 13
-2685.0
 23
4279.0
 33
0.0
  0
SOLID
  5
2456
330
A
100
AcDbEntity
  8
SOLDERMASK_PADS_BTM
100
AcDbTrace
 10
-3887.0
 20
3779.0
 30
0.0
 11
-3511.0
 21
3779.0
 31
0.0
 12
-3887.0
 22
4279.0
 32
0.0
 13
-3511.0
 23
4279.0
 33
0.0
  0
SOLID
  5
2457
330
A
100
AcDbEntity
  8
SOLDERMASK_PADS_BTM
100
AcDbTrace
 10
-6791.0
 20
6100.0
 30
0.0
 11
-6415.0
 21
6100.0
 31
0.0
 12
-6791.0
 22
6600.0
 32
0.0
 13
-6415.0
 23
6600.0
 33
0.0
  0
SOLID
  5
2458
330
A
100
AcDbEntity
  8
SOLDERMASK_PADS_BTM
100
AcDbTrace
 10
-5965.0
 20
6100.0
 30
0.0
 11
-5589.0
 21
6100.0
 31
0.0
 12
-5965.0
 22
6600.0
 32
0.0
 13
-5589.0
 23
6600.0
 33
0.0
  0
SOLID
  5
2459
330
A
100
AcDbEntity
  8
SOLDERMASK_PADS_BTM
100
AcDbTrace
 10
4199.002000000001
 20
925.0
 30
0.0
 11
4575.002
 21
925.0
 31
0.0
 12
4199.002000000001
 22
1425.0
 32
0.0
 13
4575.002
 23
1425.0
 33
0.0
  0
SOLID
  5
245A
330
A
100
AcDbEntity
  8
SOLDERMASK_PADS_BTM
100
AcDbTrace
 10
3373.002
 20
925.0
 30
0.0
 11
3749.002
 21
925.0
 31
0.0
 12
3373.002
 22
1425.0
 32
0.0
 13
3749.002
 23
1425.0
 33
0.0
  0
SOLID
  5
245B
330
A
100
AcDbEntity
  8
SOLDERMASK_PADS_BTM
100
AcDbTrace
 10
-983.0
 20
2866.737
 30
0.0
 11
-607.0
 21
2866.737
 31
0.0
 12
-983.0
 22
3366.737
 32
0.0
 13
-607.0
 23
3366.737
 33
0.0
  0
SOLID
  5
245C
330
A
100
AcDbEntity
  8
SOLDERMASK_PADS_BTM
100
AcDbTrace
 10
-157.0
 20
2866.737
 30
0.0
 11
219.0
 21
2866.737
 31
0.0
 12
-157.0
 22
3366.737
 32
0.0
 13
219.0
 23
3366.737
 33
0.0
  0
SOLID
  5
245D
330
A
100
AcDbEntity
  8
SOLDERMASK_PADS_BTM
100
AcDbTrace
 10
-3887.0
 20
925.0
 30
0.0
 11
-3511.0
 21
925.0
 31
0.0
 12
-3887.0
 22
1425.0
 32
0.0
 13
-3511.0
 23
1425.0
 33
0.0
  0
SOLID
  5
245E
330
A
100
AcDbEntity
  8
SOLDERMASK_PADS_BTM
100
AcDbTrace
 10
-3061.0
 20
925.0
 30
0.0
 11
-2685.0
 21
925.0
 31
0.0
 12
-3061.0
 22
1425.0
 32
0.0
 13
-2685.0
 23
1425.0
 33
0.0
  0
SOLID
  5
245F
330
A
100
AcDbEntity
  8
SOLDERMASK_PADS_BTM
100
AcDbTrace
 10
6277.0
 20
1150.0
 30
0.0
 11
6653.0
 21
1150.0
 31
0.0
 12
6277.0
 22
1650.0
 32
0.0
 13
6653.0
 23
1650.0
 33
0.0
  0
SOLID
  5
2460
330
A
100
AcDbEntity
  8
SOLDERMASK_PADS_BTM
100
AcDbTrace
 10
7103.0
 20
1150.0
 30
0.0
 11
7479.0
 21
1150.0
 31
0.0
 12
7103.0
 22
1650.0
 32
0.0
 13
7479.0
 23
1650.0
 33
0.0
  0
SOLID
  5
2461
330
A
100
AcDbEntity
  8
SOLDERMASK_PADS_BTM
100
AcDbTrace
 10
4825.003999999999
 20
-2850.0
 30
0.0
 11
5201.004000000001
 21
-2850.0
 31
0.0
 12
4825.003999999999
 22
-2350.0
 32
0.0
 13
5201.004000000001
 23
-2350.0
 33
0.0
  0
SOLID
  5
2462
330
A
100
AcDbEntity
  8
SOLDERMASK_PADS_BTM
100
AcDbTrace
 10
5651.004
 20
-2850.0
 30
0.0
 11
6027.004
 21
-2850.0
 31
0.0
 12
5651.004
 22
-2350.0
 32
0.0
 13
6027.004
 23
-2350.0
 33
0.0
  0
SOLID
  5
2463
330
A
100
AcDbEntity
  8
SOLDERMASK_PADS_BTM
100
AcDbTrace
 10
-1609.0
 20
925.0
 30
0.0
 11
-1233.0
 21
925.0
 31
0.0
 12
-1609.0
 22
1425.0
 32
0.0
 13
-1233.0
 23
1425.0
 33
0.0
  0
SOLID
  5
2464
330
A
100
AcDbEntity
  8
SOLDERMASK_PADS_BTM
100
AcDbTrace
 10
-2435.0
 20
925.0
 30
0.0
 11
-2059.0
 21
925.0
 31
0.0
 12
-2435.0
 22
1425.0
 32
0.0
 13
-2059.0
 23
1425.0
 33
0.0
  0
SOLID
  5
2465
330
A
100
AcDbEntity
  8
SOLDERMASK_PADS_BTM
100
AcDbTrace
 10
4825.003999999999
 20
-3600.0
 30
0.0
 11
5201.004000000001
 21
-3600.0
 31
0.0
 12
4825.003999999999
 22
-3100.0
 32
0.0
 13
5201.004000000001
 23
-3100.0
 33
0.0
  0
SOLID
  5
2466
330
A
100
AcDbEntity
  8
SOLDERMASK_PADS_BTM
100
AcDbTrace
 10
5651.004
 20
-3600.0
 30
0.0
 11
6027.004
 21
-3600.0
 31
0.0
 12
5651.004
 22
-3100.0
 32
0.0
 13
6027.004
 23
-3100.0
 33
0.0
  0
SOLID
  5
2467
330
A
100
AcDbEntity
  8
SOLDERMASK_PADS_BTM
100
AcDbTrace
 10
-983.0
 20
-1425.0
 30
0.0
 11
-607.0
 21
-1425.0
 31
0.0
 12
-983.0
 22
-925.0
 32
0.0
 13
-607.0
 23
-925.0
 33
0.0
  0
SOLID
  5
2468
330
A
100
AcDbEntity
  8
SOLDERMASK_PADS_BTM
100
AcDbTrace
 10
-157.0
 20
-1425.0
 30
0.0
 11
219.0
 21
-1425.0
 31
0.0
 12
-157.0
 22
-925.0
 32
0.0
 13
219.0
 23
-925.0
 33
0.0
  0
SOLID
  5
2469
330
A
100
AcDbEntity
  8
SOLDERMASK_PADS_BTM
100
AcDbTrace
 10
7103.0
 20
-2600.0
 30
0.0
 11
7479.0
 21
-2600.0
 31
0.0
 12
7103.0
 22
-2100.0
 32
0.0
 13
7479.0
 23
-2100.0
 33
0.0
  0
SOLID
  5
246A
330
A
100
AcDbEntity
  8
SOLDERMASK_PADS_BTM
100
AcDbTrace
 10
6277.0
 20
-2600.0
 30
0.0
 11
6653.0
 21
-2600.0
 31
0.0
 12
6277.0
 22
-2100.0
 32
0.0
 13
6653.0
 23
-2100.0
 33
0.0
  0
SOLID
  5
246B
330
A
100
AcDbEntity
  8
SOLDERMASK_PADS_BTM
100
AcDbTrace
 10
-3887.0
 20
-3675.0
 30
0.0
 11
-3511.0
 21
-3675.0
 31
0.0
 12
-3887.0
 22
-3175.0
 32
0.0
 13
-3511.0
 23
-3175.0
 33
0.0
  0
SOLID
  5
246C
330
A
100
AcDbEntity
  8
SOLDERMASK_PADS_BTM
100
AcDbTrace
 10
-3061.0
 20
-3675.0
 30
0.0
 11
-2685.0
 21
-3675.0
 31
0.0
 12
-3061.0
 22
-3175.0
 32
0.0
 13
-2685.0
 23
-3175.0
 33
0.0
  0
SOLID
  5
246D
330
A
100
AcDbEntity
  8
SOLDERMASK_PADS_BTM
100
AcDbTrace
 10
-4513.0
 20
-2175.0
 30
0.0
 11
-4137.0
 21
-2175.0
 31
0.0
 12
-4513.0
 22
-1675.0
 32
0.0
 13
-4137.0
 23
-1675.0
 33
0.0
  0
SOLID
  5
246E
330
A
100
AcDbEntity
  8
SOLDERMASK_PADS_BTM
100
AcDbTrace
 10
-5339.0
 20
-2175.0
 30
0.0
 11
-4963.0
 21
-2175.0
 31
0.0
 12
-5339.0
 22
-1675.0
 32
0.0
 13
-4963.0
 23
-1675.0
 33
0.0
  0
SOLID
  5
246F
330
A
100
AcDbEntity
  8
SOLDERMASK_PADS_BTM
100
AcDbTrace
 10
1294.998
 20
-2175.0
 30
0.0
 11
1670.998
 21
-2175.0
 31
0.0
 12
1294.998
 22
-1675.0
 32
0.0
 13
1670.998
 23
-1675.0
 33
0.0
  0
SOLID
  5
2470
330
A
100
AcDbEntity
  8
SOLDERMASK_PADS_BTM
100
AcDbTrace
 10
468.998
 20
-2175.0
 30
0.0
 11
844.998
 21
-2175.0
 31
0.0
 12
468.998
 22
-1675.0
 32
0.0
 13
844.998
 23
-1675.0
 33
0.0
  0
SOLID
  5
2471
330
A
100
AcDbEntity
  8
SOLDERMASK_PADS_BTM
100
AcDbTrace
 10
-8243.0
 20
-4350.0
 30
0.0
 11
-7867.0
 21
-4350.0
 31
0.0
 12
-8243.0
 22
-3850.0
 32
0.0
 13
-7867.0
 23
-3850.0
 33
0.0
  0
SOLID
  5
2472
330
A
100
AcDbEntity
  8
SOLDERMASK_PADS_BTM
100
AcDbTrace
 10
-7417.0
 20
-4350.0
 30
0.0
 11
-7041.0
 21
-4350.0
 31
0.0
 12
-7417.0
 22
-3850.0
 32
0.0
 13
-7041.0
 23
-3850.0
 33
0.0
  0
SOLID
  5
2473
330
A
100
AcDbEntity
  8
SOLDERMASK_PADS_BTM
100
AcDbTrace
 10
1294.998
 20
-3675.0
 30
0.0
 11
1670.998
 21
-3675.0
 31
0.0
 12
1294.998
 22
-3175.0
 32
0.0
 13
1670.998
 23
-3175.0
 33
0.0
  0
SOLID
  5
2474
330
A
100
AcDbEntity
  8
SOLDERMASK_PADS_BTM
100
AcDbTrace
 10
468.998
 20
-3675.0
 30
0.0
 11
844.998
 21
-3675.0
 31
0.0
 12
468.998
 22
-3175.0
 32
0.0
 13
844.998
 23
-3175.0
 33
0.0
  0
SOLID
  5
2475
330
A
100
AcDbEntity
  8
SOLDERMASK_PADS_BTM
100
AcDbTrace
 10
-3887.0
 20
-2925.0
 30
0.0
 11
-3511.0
 21
-2925.0
 31
0.0
 12
-3887.0
 22
-2425.0
 32
0.0
 13
-3511.0
 23
-2425.0
 33
0.0
  0
SOLID
  5
2476
330
A
100
AcDbEntity
  8
SOLDERMASK_PADS_BTM
100
AcDbTrace
 10
-3061.0
 20
-2925.0
 30
0.0
 11
-2685.0
 21
-2925.0
 31
0.0
 12
-3061.0
 22
-2425.0
 32
0.0
 13
-2685.0
 23
-2425.0
 33
0.0
  0
SOLID
  5
2477
330
A
100
AcDbEntity
  8
SOLDERMASK_PADS_BTM
100
AcDbTrace
 10
-157.0
 20
-6600.0
 30
0.0
 11
219.0
 21
-6600.0
 31
0.0
 12
-157.0
 22
-6100.0
 32
0.0
 13
219.0
 23
-6100.0
 33
0.0
  0
SOLID
  5
2478
330
A
100
AcDbEntity
  8
SOLDERMASK_PADS_BTM
100
AcDbTrace
 10
-983.0
 20
-6600.0
 30
0.0
 11
-607.0
 21
-6600.0
 31
0.0
 12
-983.0
 22
-6100.0
 32
0.0
 13
-607.0
 23
-6100.0
 33
0.0
  0
SOLID
  5
2479
330
A
100
AcDbEntity
  8
SOLDERMASK_PADS_BTM
100
AcDbTrace
 10
-6791.0
 20
-5175.0
 30
0.0
 11
-6415.0
 21
-5175.0
 31
0.0
 12
-6791.0
 22
-4675.0
 32
0.0
 13
-6415.0
 23
-4675.0
 33
0.0
  0
SOLID
  5
247A
330
A
100
AcDbEntity
  8
SOLDERMASK_PADS_BTM
100
AcDbTrace
 10
-5965.0
 20
-5175.0
 30
0.0
 11
-5589.0
 21
-5175.0
 31
0.0
 12
-5965.0
 22
-4675.0
 32
0.0
 13
-5589.0
 23
-4675.0
 33
0.0
  0
SOLID
  5
247B
330
A
100
AcDbEntity
  8
SOLDERMASK_PADS_BTM
100
AcDbTrace
 10
7103.0
 20
-4100.0
 30
0.0
 11
7479.0
 21
-4100.0
 31
0.0
 12
7103.0
 22
-3600.0
 32
0.0
 13
7479.0
 23
-3600.0
 33
0.0
  0
SOLID
  5
247C
330
A
100
AcDbEntity
  8
SOLDERMASK_PADS_BTM
100
AcDbTrace
 10
6277.0
 20
-4100.0
 30
0.0
 11
6653.0
 21
-4100.0
 31
0.0
 12
6277.0
 22
-3600.0
 32
0.0
 13
6653.0
 23
-3600.0
 33
0.0
  0
SOLID
  5
247D
330
A
100
AcDbEntity
  8
SOLDERMASK_PADS_BTM
100
AcDbTrace
 10
3373.002
 20
-8100.0
 30
0.0
 11
3749.002
 21
-8100.0
 31
0.0
 12
3373.002
 22
-7600.0
 32
0.0
 13
3749.002
 23
-7600.0
 33
0.0
  0
SOLID
  5
247E
330
A
100
AcDbEntity
  8
SOLDERMASK_PADS_BTM
100
AcDbTrace
 10
4199.002000000001
 20
-8100.0
 30
0.0
 11
4575.002
 21
-8100.0
 31
0.0
 12
4199.002000000001
 22
-7600.0
 32
0.0
 13
4575.002
 23
-7600.0
 33
0.0
  0
SOLID
  5
247F
330
A
100
AcDbEntity
  8
SOLDERMASK_PADS_BTM
100
AcDbTrace
 10
2747.0
 20
-6600.0
 30
0.0
 11
3123.0
 21
-6600.0
 31
0.0
 12
2747.0
 22
-6100.0
 32
0.0
 13
3123.0
 23
-6100.0
 33
0.0
  0
SOLID
  5
2480
330
A
100
AcDbEntity
  8
SOLDERMASK_PADS_BTM
100
AcDbTrace
 10
1921.0
 20
-6600.0
 30
0.0
 11
2297.0
 21
-6600.0
 31
0.0
 12
1921.0
 22
-6100.0
 32
0.0
 13
2297.0
 23
-6100.0
 33
0.0
  0
SOLID
  5
2481
330
A
100
AcDbEntity
  8
SOLDERMASK_PADS_BTM
100
AcDbTrace
 10
-3061.0
 20
-8100.0
 30
0.0
 11
-2685.0
 21
-8100.0
 31
0.0
 12
-3061.0
 22
-7600.0
 32
0.0
 13
-2685.0
 23
-7600.0
 33
0.0
  0
SOLID
  5
2482
330
A
100
AcDbEntity
  8
SOLDERMASK_PADS_BTM
100
AcDbTrace
 10
-3887.0
 20
-8100.0
 30
0.0
 11
-3511.0
 21
-8100.0
 31
0.0
 12
-3887.0
 22
-7600.0
 32
0.0
 13
-3511.0
 23
-7600.0
 33
0.0
  0
SOLID
  5
2483
330
A
100
AcDbEntity
  8
SOLDERMASK_PADS_BTM
100
AcDbTrace
 10
4825.003999999999
 20
-8100.0
 30
0.0
 11
5201.004000000001
 21
-8100.0
 31
0.0
 12
4825.003999999999
 22
-7600.0
 32
0.0
 13
5201.004000000001
 23
-7600.0
 33
0.0
  0
SOLID
  5
2484
330
A
100
AcDbEntity
  8
SOLDERMASK_PADS_BTM
100
AcDbTrace
 10
5651.004
 20
-8100.0
 30
0.0
 11
6027.004
 21
-8100.0
 31
0.0
 12
5651.004
 22
-7600.0
 32
0.0
 13
6027.004
 23
-7600.0
 33
0.0
  0
SOLID
  5
2485
330
A
100
AcDbEntity
  8
SOLDERMASK_PADS_BTM
100
AcDbTrace
 10
-2435.0
 20
-8100.0
 30
0.0
 11
-2059.0
 21
-8100.0
 31
0.0
 12
-2435.0
 22
-7600.0
 32
0.0
 13
-2059.0
 23
-7600.0
 33
0.0
  0
SOLID
  5
2486
330
A
100
AcDbEntity
  8
SOLDERMASK_PADS_BTM
100
AcDbTrace
 10
-1609.0
 20
-8100.0
 30
0.0
 11
-1233.0
 21
-8100.0
 31
0.0
 12
-1609.0
 22
-7600.0
 32
0.0
 13
-1233.0
 23
-7600.0
 33
0.0
  0
LWPOLYLINE
  5
2488
102
{ACAD_REACTORS
330
9287
330
9289
330
9294
330
9296
102
}
330
A
100
AcDbEntity
  8
PKG_OUTLINE
100
AcDbPolyline
 90
        4
 70
     1
 43
0.0
 10
-38750.0
 20
-25000.0
 91
        1
 10
-38750.0
 20
25000.0
 91
        2
 10
38750.0
 20
25000.0
 91
        3
 10
38750.0
 20
-25000.0
 91
        4
  0
INSERT
  5
928D
102
{ACAD_REACTORS
330
928F
102
}
330
A
100
AcDbEntity
  8
0
  6
CENTER2
100
AcDbBlockReference
  2
*U0
 10
0.0
 20
0.0
 30
0.0
  0
INSERT
  5
929A
102
{ACAD_REACTORS
330
929B
102
}
330
A
100
AcDbEntity
  8
0
  6
CENTER2
100
AcDbBlockReference
  2
*U1
 10
0.0
 20
0.0
 30
0.0
  0
ENDSEC
  0
SECTION
  2
OBJECTS
  0
DICTIONARY
  5
16
330
0
100
AcDbDictionary
281
     1
  3
ACAD_ASSOCNETWORK
350
9282
  3
ACAD_CIP_PREVIOUS_PRODUCT_INFO
350
927E
  3
ACAD_COLOR
350
925E
  3
ACAD_DETAILVIEWSTYLE
350
9278
  3
ACAD_GROUP
350
17
  3
ACAD_LAYOUT
350
925F
  3
ACAD_MATERIAL
350
922C
  3
ACAD_MLEADERSTYLE
350
9274
  3
ACAD_MLINESTYLE
350
18
  3
ACAD_PLOTSETTINGS
350
927A
  3
ACAD_PLOTSTYLENAME
350
922A
  3
ACAD_SCALELIST
350
9262
  3
ACAD_SECTIONVIEWSTYLE
350
9276
  3
ACAD_TABLESTYLE
350
9260
  3
ACAD_VISUALSTYLE
350
9245
  3
ACDB_RECOMPOSE_DATA
350
92BA
  3
AcDbVariableDictionary
350
92AD
  3
ASE_INDEX_DICTIONARY
350
92AA
  0
DICTIONARY
  5
929D
330
2489
100
AcDbDictionary
280
     1
281
     1
  3
ADSK_XREC_LAYER_RECONCILED
360
929E
  0
DICTIONARY
  5
929F
330
248A
100
AcDbDictionary
280
     1
281
     1
  3
ADSK_XREC_LAYER_RECONCILED
360
92A0
  0
DICTIONARY
  5
92A1
330
248B
100
AcDbDictionary
280
     1
281
     1
  3
ADSK_XREC_LAYER_RECONCILED
360
92A2
  0
DICTIONARY
  5
92A3
330
248C
100
AcDbDictionary
280
     1
281
     1
  3
ADSK_XREC_LAYER_RECONCILED
360
92A4
  0
DICTIONARY
  5
92A5
330
248D
100
AcDbDictionary
280
     1
281
     1
  3
ADSK_XREC_LAYER_RECONCILED
360
92A6
  0
DICTIONARY
  5
92A7
330
248E
100
AcDbDictionary
280
     1
281
     1
  3
ADSK_XREC_LAYER_RECONCILED
360
92A8
  0
DICTIONARY
  5
927F
330
A
100
AcDbDictionary
280
     1
281
     1
  3
ACAD_ASSOCNETWORK
360
9280
  0
DICTIONARY
  5
9282
102
{ACAD_REACTORS
330
16
102
}
330
16
100
AcDbDictionary
281
     1
  3
ACAD_ASSOCNETWORK
350
9283
  0
XRECORD
  5
927E
102
{ACAD_REACTORS
330
16
102
}
330
16
100
AcDbXrecord
280
     1
300
ACD
300
2021
300
87393ACD_2021_0F
  0
DICTIONARY
  5
925E
102
{ACAD_REACTORS
330
16
102
}
330
16
100
AcDbDictionary
281
     1
  0
DICTIONARY
  5
9278
102
{ACAD_REACTORS
330
16
102
}
330
16
100
AcDbDictionary
281
     1
  3
Imperial24
350
9279
  0
DICTIONARY
  5
17
102
{ACAD_REACTORS
330
16
102
}
330
16
100
AcDbDictionary
281
     1
  0
DICTIONARY
  5
925F
102
{ACAD_REACTORS
330
16
102
}
330
16
100
AcDbDictionary
281
     1
  3
Layout1
350
927C
  3
Model
350
927B
  0
DICTIONARY
  5
922C
102
{ACAD_REACTORS
330
16
102
}
330
16
100
AcDbDictionary
281
     1
  3
ByBlock
350
9235
  3
ByLayer
350
922D
  3
Global
350
923D
  0
DICTIONARY
  5
9274
102
{ACAD_REACTORS
330
16
102
}
330
16
100
AcDbDictionary
281
     1
  3
Standard
350
9275
  0
DICTIONARY
  5
18
102
{ACAD_REACTORS
330
16
102
}
330
16
100
AcDbDictionary
281
     1
  3
STANDARD
350
19
  0
DICTIONARY
  5
927A
102
{ACAD_REACTORS
330
16
102
}
330
16
100
AcDbDictionary
281
     1
  0
ACDBDICTIONARYWDFLT
  5
922A
102
{ACAD_REACTORS
330
16
102
}
330
16
100
AcDbDictionary
281
     1
  3
Normal
350
922B
100
AcDbDictionaryWithDefault
340
922B
  0
DICTIONARY
  5
9262
102
{ACAD_REACTORS
330
16
102
}
330
16
100
AcDbDictionary
281
     1
  3
A0
350
9263
  3
A1
350
9264
  3
A2
350
9265
  3
A3
350
9266
  3
A4
350
9267
  3
A5
350
9268
  3
A6
350
9269
  3
A7
350
926A
  3
A8
350
926B
  3
A9
350
926C
  3
B0
350
926D
  3
B1
350
926E
  3
B2
350
926F
  3
B3
350
9270
  3
B4
350
9271
  3
B5
350
9272
  3
B6
350
9273
  0
DICTIONARY
  5
9276
102
{ACAD_REACTORS
330
16
102
}
330
16
100
AcDbDictionary
281
     1
  3
Imperial24
350
9277
  0
DICTIONARY
  5
9260
102
{ACAD_REACTORS
330
16
102
}
330
16
100
AcDbDictionary
281
     1
  3
Standard
350
9261
  0
DICTIONARY
  5
9245
102
{ACAD_REACTORS
330
16
102
}
330
16
100
AcDbDictionary
281
     1
  3
2dWireframe
350
924B
  3
Basic
350
924A
  3
Brighten
350
9251
  3
ColorChange
350
9255
  3
Conceptual
350
924E
  3
Dim
350
9250
  3
EdgeColorOff
350
925D
  3
Facepattern
350
9254
  3
Flat
350
9246
  3
FlatWithEdges
350
9247
  3
Gouraud
350
9248
  3
GouraudWithEdges
350
9249
  3
Hidden
350
924D
  3
JitterOff
350
925B
  3
Linepattern
350
9253
  3
OverhangOff
350
925C
  3
Realistic
350
924F
  3
Shaded
350
925A
  3
Shaded with edges
350
9259
  3
Shades of Gray
350
9256
  3
Sketchy
350
9257
  3
Thicken
350
9252
  3
Wireframe
350
924C
  3
X-Ray
350
9258
  0
XRECORD
  5
92BA
102
{ACAD_REACTORS
330
16
102
}
330
16
100
AcDbXrecord
280
     1
 90
        1
330
9261
  0
DICTIONARY
  5
92AD
102
{ACAD_REACTORS
330
16
102
}
330
16
100
AcDbDictionary
281
     1
  3
CANNOSCALE
350
92B3
  3
CMLEADERSTYLE
350
92AF
  3
CTABLESTYLE
350
92AE
  3
CVIEWDETAILSTYLE
350
92B0
  3
CVIEWSECTIONSTYLE
350
92B1
  3
LAYEREVAL
350
92B5
  3
LAYERNOTIFY
350
92B6
  3
LIGHTINGUNITS
350
92B4
  3
MSLTSCALE
350
92B2
  0
DICTIONARY
  5
92AA
102
{ACAD_REACTORS
330
16
102
}
330
16
100
AcDbDictionary
281
     1
  3
ASEBlockHierarchyIndexRecord
350
92AC
1001
DCO15
1040
2086659508.0
  0
XRECORD
  5
929E
102
{ACAD_REACTORS
330
929D
102
}
330
929D
100
AcDbXrecord
280
     1
290
     1
  0
XRECORD
  5
92A0
102
{ACAD_REACTORS
330
929F
102
}
330
929F
100
AcDbXrecord
280
     1
290
     1
  0
XRECORD
  5
92A2
102
{ACAD_REACTORS
330
92A1
102
}
330
92A1
100
AcDbXrecord
280
     1
290
     1
  0
XRECORD
  5
92A4
102
{ACAD_REACTORS
330
92A3
102
}
330
92A3
100
AcDbXrecord
280
     1
290
     1
  0
XRECORD
  5
92A6
102
{ACAD_REACTORS
330
92A5
102
}
330
92A5
100
AcDbXrecord
280
     1
290
     1
  0
XRECORD
  5
92A8
102
{ACAD_REACTORS
330
92A7
102
}
330
92A7
100
AcDbXrecord
280
     1
290
     1
  0
DICTIONARY
  5
9280
102
{ACAD_REACTORS
330
927F
102
}
330
927F
100
AcDbDictionary
281
     1
  3
ACAD_ASSOCNETWORK
350
9281
  0
ACDBASSOCNETWORK
  5
9283
102
{ACAD_REACTORS
330
9282
102
}
330
9282
100
AcDbAssocAction
 90
        2
 90
        0
330
0
360
0
 90
        0
 90
        0
 90
        0
 90
        0
 90
        0
 90
        0
 90
        0
100
AcDbAssocNetwork
 90
        0
 90
        1
 90
        1
330
9281
 90
        0
  0
ACDBDETAILVIEWSTYLE
  5
9279
102
{ACAD_REACTORS
330
9278
102
}
330
9278
100
AcDbModelDocViewStyle
 70
     0
  3
Imperial24
290
     0
300
Imperial24
 90
        0
100
AcDbDetailViewStyle
 70
     0
 71
     0
 90
        3
 71
     1
340
248F
 62
   256
 40
0.24
340
0
 62
   256
 40
0.24
300

 40
0.36
280
     3
 71
     2
340
12
 90
       25
 62
   256
 71
     3
340
248F
 62
   256
 40
0.24
 90
        1
 40
0.75
 90
        1
300
%<\AcVar ViewType \f "%tc1">% %<\AcVar ViewDetailId>%\PSCALE %<\AcVar ViewScale \f "%sn">%
 71
     4
340
12
 90
       25
 62
   256
340
12
 90
       25
 62
   256
280
     0
  0
LAYOUT
  5
927C
102
{ACAD_REACTORS
330
925F
102
}
330
925F
100
AcDbPlotSettings
  1

  2
Intel Cloud Print
  4

  6

 40
0.0
 41
0.0
 42
0.0
 43
0.0
 44
0.0
 45
0.0
 46
0.0
 47
0.0
 48
0.0
 49
0.0
140
0.0
141
0.0
142
1.0
143
1.0
 70
   688
 72
     0
 73
     0
 74
     5
  7

 75
    16
147
1.0
 76
     0
 77
     2
 78
   300
148
0.0
149
0.0
100
AcDbLayout
  1
Layout1
 70
     0
 71
     1
 10
0.0
 20
0.0
 11
12.0
 21
9.0
 12
0.0
 22
0.0
 32
0.0
 14
1.000000000000000E+20
 24
1.000000000000000E+20
 34
1.000000000000000E+20
 15
-1.000000000000000E+20
 25
-1.000000000000000E+20
 35
-1.000000000000000E+20
146
0.0
 13
0.0
 23
0.0
 33
0.0
 16
1.0
 26
0.0
 36
0.0
 17
0.0
 27
1.0
 37
0.0
 76
     0
330
B
  0
LAYOUT
  5
927B
102
{ACAD_REACTORS
330
925F
102
}
330
925F
100
AcDbPlotSettings
  1

  2
Intel Cloud Print
  4

  6

 40
0.0
 41
0.0
 42
0.0
 43
0.0
 44
0.0
 45
0.0
 46
0.0
 47
0.0
 48
0.0
 49
0.0
140
0.0
141
0.0
142
1.0
143
1.0
 70
  1712
 72
     0
 73
     0
 74
     0
  7

 75
     0
147
1.0
 76
     0
 77
     2
 78
   300
148
0.0
149
0.0
100
AcDbLayout
  1
Model
 70
     1
 71
     0
 10
0.0
 20
0.0
 11
12.0
 21
9.0
 12
0.0
 22
0.0
 32
0.0
 14
0.0
 24
0.0
 34
0.0
 15
0.0
 25
0.0
 35
0.0
146
0.0
 13
0.0
 23
0.0
 33
0.0
 16
1.0
 26
0.0
 36
0.0
 17
0.0
 27
1.0
 37
0.0
 76
     0
330
A
331
13
  0
MATERIAL
  5
9235
102
{ACAD_XDICTIONARY
360
9236
102
}
102
{ACAD_REACTORS
330
922C
102
}
330
922C
100
AcDbMaterial
  1
ByBlock
 72
     0
 43
0.0208333333333333
 43
0.0
 43
0.0
 43
0.0
 43
0.0
 43
0.0208333333333333
 43
0.0
 43
0.0
 43
0.0
 43
0.0
 43
1.0
 43
0.0
 43
0.0
 43
0.0
 43
0.0
 43
1.0
 77
     0
 47
0.0208333333333333
 47
0.0
 47
0.0
 47
0.0
 47
0.0
 47
0.0208333333333333
 47
0.0
 47
0.0
 47
0.0
 47
0.0
 47
1.0
 47
0.0
 47
0.0
 47
0.0
 47
0.0
 47
1.0
171
     0
 49
0.0208333333333333
 49
0.0
 49
0.0
 49
0.0
 49
0.0
 49
0.0208333333333333
 49
0.0
 49
0.0
 49
0.0
 49
0.0
 49
1.0
 49
0.0
 49
0.0
 49
0.0
 49
0.0
 49
1.0
175
     0
142
0.0208333333333333
142
0.0
142
0.0
142
0.0
142
0.0
142
0.0208333333333333
142
0.0
142
0.0
142
0.0
142
0.0
142
1.0
142
0.0
142
0.0
142
0.0
142
0.0
142
1.0
179
     0
144
0.0208333333333333
144
0.0
144
0.0
144
0.0
144
0.0
144
0.0208333333333333
144
0.0
144
0.0
144
0.0
144
0.0
144
1.0
144
0.0
144
0.0
144
0.0
144
0.0
144
1.0
147
0.0208333333333333
147
0.0
147
0.0
147
0.0
147
0.0
147
0.0208333333333333
147
0.0
147
0.0
147
0.0
147
0.0
147
1.0
147
0.0
147
0.0
147
0.0
147
0.0
147
1.0
  0
MATERIAL
  5
922D
102
{ACAD_XDICTIONARY
360
922E
102
}
102
{ACAD_REACTORS
330
922C
102
}
330
922C
100
AcDbMaterial
  1
ByLayer
 72
     0
 43
0.0208333333333333
 43
0.0
 43
0.0
 43
0.0
 43
0.0
 43
0.0208333333333333
 43
0.0
 43
0.0
 43
0.0
 43
0.0
 43
1.0
 43
0.0
 43
0.0
 43
0.0
 43
0.0
 43
1.0
 77
     0
 47
0.0208333333333333
 47
0.0
 47
0.0
 47
0.0
 47
0.0
 47
0.0208333333333333
 47
0.0
 47
0.0
 47
0.0
 47
0.0
 47
1.0
 47
0.0
 47
0.0
 47
0.0
 47
0.0
 47
1.0
171
     0
 49
0.0208333333333333
 49
0.0
 49
0.0
 49
0.0
 49
0.0
 49
0.0208333333333333
 49
0.0
 49
0.0
 49
0.0
 49
0.0
 49
1.0
 49
0.0
 49
0.0
 49
0.0
 49
0.0
 49
1.0
175
     0
142
0.0208333333333333
142
0.0
142
0.0
142
0.0
142
0.0
142
0.0208333333333333
142
0.0
142
0.0
142
0.0
142
0.0
142
1.0
142
0.0
142
0.0
142
0.0
142
0.0
142
1.0
179
     0
144
0.0208333333333333
144
0.0
144
0.0
144
0.0
144
0.0
144
0.0208333333333333
144
0.0
144
0.0
144
0.0
144
0.0
144
1.0
144
0.0
144
0.0
144
0.0
144
0.0
144
1.0
147
0.0208333333333333
147
0.0
147
0.0
147
0.0
147
0.0
147
0.0208333333333333
147
0.0
147
0.0
147
0.0
147
0.0
147
1.0
147
0.0
147
0.0
147
0.0
147
0.0
147
1.0
  0
MATERIAL
  5
923D
102
{ACAD_XDICTIONARY
360
923E
102
}
102
{ACAD_REACTORS
330
922C
102
}
330
922C
100
AcDbMaterial
  1
Global
 72
     0
 43
0.0208333333333333
 43
0.0
 43
0.0
 43
0.0
 43
0.0
 43
0.0208333333333333
 43
0.0
 43
0.0
 43
0.0
 43
0.0
 43
1.0
 43
0.0
 43
0.0
 43
0.0
 43
0.0
 43
1.0
 77
     0
 47
0.0208333333333333
 47
0.0
 47
0.0
 47
0.0
 47
0.0
 47
0.0208333333333333
 47
0.0
 47
0.0
 47
0.0
 47
0.0
 47
1.0
 47
0.0
 47
0.0
 47
0.0
 47
0.0
 47
1.0
171
     0
 49
0.0208333333333333
 49
0.0
 49
0.0
 49
0.0
 49
0.0
 49
0.0208333333333333
 49
0.0
 49
0.0
 49
0.0
 49
0.0
 49
1.0
 49
0.0
 49
0.0
 49
0.0
 49
0.0
 49
1.0
175
     0
142
0.0208333333333333
142
0.0
142
0.0
142
0.0
142
0.0
142
0.0208333333333333
142
0.0
142
0.0
142
0.0
142
0.0
142
1.0
142
0.0
142
0.0
142
0.0
142
0.0
142
1.0
179
     0
144
0.0208333333333333
144
0.0
144
0.0
144
0.0
144
0.0
144
0.0208333333333333
144
0.0
144
0.0
144
0.0
144
0.0
144
1.0
144
0.0
144
0.0
144
0.0
144
0.0
144
1.0
147
0.0208333333333333
147
0.0
147
0.0
147
0.0
147
0.0
147
0.0208333333333333
147
0.0
147
0.0
147
0.0
147
0.0
147
1.0
147
0.0
147
0.0
147
0.0
147
0.0
147
1.0
  0
MLEADERSTYLE
  5
9275
102
{ACAD_REACTORS
330
9274
102
}
330
9274
100
AcDbMLeaderStyle
179
     2
170
     2
171
     1
172
     0
 90
        2
 40
0.0
 41
0.0
173
     1
 91
-1056964608
340
10
 92
       -2
290
     1
 42
0.09
291
     1
 43
0.36
  3
Standard
 44
0.18
300

342
248F
174
     1
178
     6
175
     1
176
     0
 93
-1056964608
 45
0.18
292
     0
297
     0
 46
0.18
 94
-1056964608
 47
1.0
 49
1.0
140
1.0
293
     1
141
0.0
294
     1
177
     0
142
1.0
295
     0
296
     0
143
0.125
271
     0
272
     9
273
     9
298
     0
  0
MLINESTYLE
  5
19
102
{ACAD_REACTORS
330
18
102
}
330
18
100
AcDbMlineStyle
  2
STANDARD
 70
     0
  3

 62
     0
 51
90.0
 52
90.0
 71
     2
 49
0.5
 62
   256
  6
BYLAYER
 49
-0.5
 62
   256
  6
BYLAYER
  0
ACDBPLACEHOLDER
  5
922B
102
{ACAD_REACTORS
330
922A
102
}
330
922A
  0
SCALE
  5
9263
102
{ACAD_REACTORS
330
9262
102
}
330
9262
100
AcDbScale
 70
     0
300
1:1
140
1.0
141
1.0
290
     1
  0
SCALE
  5
9264
102
{ACAD_REACTORS
330
9262
102
}
330
9262
100
AcDbScale
 70
     0
300
1/128" = 1'-0"
140
0.0078125
141
12.0
290
     0
  0
SCALE
  5
9265
102
{ACAD_REACTORS
330
9262
102
}
330
9262
100
AcDbScale
 70
     0
300
1/64" = 1'-0"
140
0.015625
141
12.0
290
     0
  0
SCALE
  5
9266
102
{ACAD_REACTORS
330
9262
102
}
330
9262
100
AcDbScale
 70
     0
300
1/32" = 1'-0"
140
0.03125
141
12.0
290
     0
  0
SCALE
  5
9267
102
{ACAD_REACTORS
330
9262
102
}
330
9262
100
AcDbScale
 70
     0
300
1/16" = 1'-0"
140
0.0625
141
12.0
290
     0
  0
SCALE
  5
9268
102
{ACAD_REACTORS
330
9262
102
}
330
9262
100
AcDbScale
 70
     0
300
3/32" = 1'-0"
140
0.09375
141
12.0
290
     0
  0
SCALE
  5
9269
102
{ACAD_REACTORS
330
9262
102
}
330
9262
100
AcDbScale
 70
     0
300
1/8" = 1'-0"
140
0.125
141
12.0
290
     0
  0
SCALE
  5
926A
102
{ACAD_REACTORS
330
9262
102
}
330
9262
100
AcDbScale
 70
     0
300
3/16" = 1'-0"
140
0.1875
141
12.0
290
     0
  0
SCALE
  5
926B
102
{ACAD_REACTORS
330
9262
102
}
330
9262
100
AcDbScale
 70
     0
300
1/4" = 1'-0"
140
0.25
141
12.0
290
     0
  0
SCALE
  5
926C
102
{ACAD_REACTORS
330
9262
102
}
330
9262
100
AcDbScale
 70
     0
300
3/8" = 1'-0"
140
0.375
141
12.0
290
     0
  0
SCALE
  5
926D
102
{ACAD_REACTORS
330
9262
102
}
330
9262
100
AcDbScale
 70
     0
300
1/2" = 1'-0"
140
0.5
141
12.0
290
     0
  0
SCALE
  5
926E
102
{ACAD_REACTORS
330
9262
102
}
330
9262
100
AcDbScale
 70
     0
300
3/4" = 1'-0"
140
0.75
141
12.0
290
     0
  0
SCALE
  5
926F
102
{ACAD_REACTORS
330
9262
102
}
330
9262
100
AcDbScale
 70
     0
300
1" = 1'-0"
140
1.0
141
12.0
290
     0
  0
SCALE
  5
9270
102
{ACAD_REACTORS
330
9262
102
}
330
9262
100
AcDbScale
 70
     0
300
1-1/2" = 1'-0"
140
1.5
141
12.0
290
     0
  0
SCALE
  5
9271
102
{ACAD_REACTORS
330
9262
102
}
330
9262
100
AcDbScale
 70
     0
300
3" = 1'-0"
140
3.0
141
12.0
290
     0
  0
SCALE
  5
9272
102
{ACAD_REACTORS
330
9262
102
}
330
9262
100
AcDbScale
 70
     0
300
6" = 1'-0"
140
6.0
141
12.0
290
     0
  0
SCALE
  5
9273
102
{ACAD_REACTORS
330
9262
102
}
330
9262
100
AcDbScale
 70
     0
300
1'-0" = 1'-0"
140
12.0
141
12.0
290
     0
  0
ACDBSECTIONVIEWSTYLE
  5
9277
102
{ACAD_REACTORS
330
9276
102
}
330
9276
100
AcDbModelDocViewStyle
 70
     0
  3
Imperial24
290
     0
300
Imperial24
 90
        0
100
AcDbSectionViewStyle
 70
     0
 71
     0
 90
       78
 71
     1
340
248F
 62
   256
 40
0.24
340
0
340
0
 62
   256
 40
0.24
300
I, O, Q, S, X, Z
 40
0.48
 90
        3
 40
0.18
 90
        1
 71
     2
340
12
 90
       25
 62
   256
340
12
 90
       50
 62
   256
 40
0.24
 40
0.0
 40
0.24
 71
     3
340
248F
 62
   256
 40
0.24
 90
        1
 40
0.75
 90
        1
300
%<\AcVar ViewType \f "%tc1">% %<\AcVar ViewSectionStartId>%-%<\AcVar ViewSectionEndId>%\PSCALE %<\AcVar ViewScale \f "%sn">%
 71
     4
 62
   256
 62
   257
300
ANSI31
 40
1.0
 90
        0
290
     0
290
     0
 90
        6
 40
0.0
 40
1.570796326794896
 40
0.2617993877991494
 40
1.308996938995747
 40
-0.2617993877991494
 40
1.832595714594046
  0
TABLESTYLE
  5
9261
102
{ACAD_XDICTIONARY
360
92B8
102
}
102
{ACAD_REACTORS
330
9260
102
}
330
9260
100
AcDbTableStyle
280
     0
  3
Standard
 70
     0
 71
     0
 40
0.06
 41
0.06
280
     0
281
     0
  7
STANDARD
140
0.18
170
     2
 62
     0
 63
     7
283
     0
 90
      512
 91
        0
  1

274
    -2
284
     1
 64
     0
275
    -2
285
     1
 65
     0
276
    -2
286
     1
 66
     0
277
    -2
287
     1
 67
     0
278
    -2
288
     1
 68
     0
279
    -2
289
     1
 69
     0
  7
STANDARD
140
0.25
170
     5
 62
     0
 63
     7
283
     0
 90
      512
 91
        0
  1

274
    -2
284
     1
 64
     0
275
    -2
285
     1
 65
     0
276
    -2
286
     1
 66
     0
277
    -2
287
     1
 67
     0
278
    -2
288
     1
 68
     0
279
    -2
289
     1
 69
     0
  7
STANDARD
140
0.18
170
     5
 62
     0
 63
     7
283
     0
 90
      512
 91
        0
  1

274
    -2
284
     1
 64
     0
275
    -2
285
     1
 65
     0
276
    -2
286
     1
 66
     0
277
    -2
287
     1
 67
     0
278
    -2
288
     1
 68
     0
279
    -2
289
     1
 69
     0
  0
VISUALSTYLE
  5
924B
102
{ACAD_REACTORS
330
9245
102
}
330
9245
100
AcDbVisualStyle
  2
2dWireframe
 70
     4
177
     3
291
     0
 70
    58
 90
        0
176
     1
 90
        2
176
     1
 90
        0
176
     1
 90
        0
176
     1
 40
0.6
176
     1
 40
30.0
176
     1
 62
     7
420
 16777215
176
     1
 90
        1
176
     1
 90
        4
176
     1
 62
     7
176
     1
 62
   257
176
     1
 90
        1
176
     1
 90
        1
176
     1
 40
1.0
176
     1
 90
        0
176
     1
 62
   257
176
     1
 40
1.0
176
     1
 90
        1
176
     1
 90
        6
176
     1
 90
        2
176
     1
 62
     7
176
     1
 90
        5
176
     1
 90
        0
176
     1
 90
        0
176
     1
290
     0
176
     1
 90
        1
176
     1
 40
0.0
176
     1
 90
        0
176
     1
290
     1
176
     1
290
     1
176
     1
290
     0
176
     1
290
     0
176
     1
290
     0
176
     1
290
     0
176
     1
290
     0
176
     1
290
     0
176
     1
290
     0
176
     1
 90
       50
176
     1
 40
0.0
176
     1
 40
1.0
176
     1
 90
        0
176
     1
 62
    18
420
        0
176
     1
 90
       50
176
     1
 90
        3
176
     1
 62
     5
420
      255
176
     1
290
     0
176
     1
 90
       50
176
     1
 90
       50
176
     1
 90
       50
176
     1
290
     0
176
     1
 90
       50
176
     1
 62
   256
176
     0
 40
1.0
176
     0
 90
        2
176
     1
  1
strokes_ogs.tif
176
     1
290
     0
176
     1
 40
1.0
176
     1
 40
1.0
176
     1
  0
VISUALSTYLE
  5
924A
102
{ACAD_REACTORS
330
9245
102
}
330
9245
100
AcDbVisualStyle
  2
Basic
 70
     7
177
     3
291
     1
 70
    58
 90
        1
176
     1
 90
        0
176
     1
 90
        1
176
     1
 90
        0
176
     1
 40
0.6
176
     1
 40
30.0
176
     1
 62
     7
420
 16777215
176
     1
 90
        0
176
     1
 90
        4
176
     1
 62
     7
176
     1
 62
   257
176
     1
 90
        1
176
     1
 90
        1
176
     1
 40
1.0
176
     1
 90
        8
176
     1
 62
     7
176
     1
 40
1.0
176
     1
 90
        1
176
     1
 90
        6
176
     1
 90
        2
176
     1
 62
     7
176
     1
 90
        5
176
     1
 90
        0
176
     1
 90
        0
176
     1
290
     0
176
     1
 90
        1
176
     1
 40
0.0
176
     1
 90
        0
176
     1
290
     0
176
     1
290
     1
176
     1
290
     1
176
     1
290
     0
176
     1
290
     0
176
     1
290
     0
176
     1
290
     0
176
     1
290
     0
176
     1
290
     0
176
     1
 90
       50
176
     1
 40
0.0
176
     1
 40
1.0
176
     1
 90
        0
176
     1
 62
    18
420
        0
176
     1
 90
       50
176
     1
 90
        3
176
     1
 62
     5
420
      255
176
     1
290
     0
176
     1
 90
       50
176
     1
 90
       50
176
     1
 90
       50
176
     1
290
     0
176
     1
 90
       50
176
     1
 62
   256
176
     0
 40
1.0
176
     0
 90
        2
176
     1
  1
strokes_ogs.tif
176
     1
290
     0
176
     1
 40
1.0
176
     1
 40
1.0
176
     1
  0
VISUALSTYLE
  5
9251
102
{ACAD_REACTORS
330
9245
102
}
330
9245
100
AcDbVisualStyle
  2
Brighten
 70
    12
177
     3
291
     1
 70
    58
 90
        2
176
     1
 90
        2
176
     1
 90
        0
176
     1
 90
        0
176
     1
 40
0.6
176
     1
 40
30.0
176
     1
 62
     7
420
 16777215
176
     1
 90
        1
176
     1
 90
        4
176
     1
 62
     7
176
     1
 62
   257
176
     1
 90
        1
176
     1
 90
        1
176
     1
 40
1.0
176
     1
 90
        8
176
     1
 62
     7
176
     1
 40
1.0
176
     1
 90
        1
176
     1
 90
        6
176
     1
 90
        2
176
     1
 62
     7
176
     1
 90
        5
176
     1
 90
        0
176
     1
 90
        0
176
     1
290
     0
176
     1
 90
        1
176
     1
 40
50.0
176
     1
 90
        0
176
     1
290
     0
176
     1
290
     1
176
     1
290
     1
176
     1
290
     0
176
     1
290
     0
176
     1
290
     0
176
     1
290
     0
176
     1
290
     0
176
     1
290
     0
176
     1
 90
       50
176
     1
 40
0.0
176
     1
 40
1.0
176
     1
 90
        0
176
     1
 62
    18
420
        0
176
     1
 90
       50
176
     1
 90
        3
176
     1
 62
     5
420
      255
176
     1
290
     0
176
     1
 90
       50
176
     1
 90
       50
176
     1
 90
       50
176
     1
290
     0
176
     1
 90
       50
176
     1
 62
   256
176
     0
 40
1.0
176
     0
 90
        2
176
     1
  1
strokes_ogs.tif
176
     1
290
     0
176
     1
 40
1.0
176
     1
 40
1.0
176
     1
  0
VISUALSTYLE
  5
9255
102
{ACAD_REACTORS
330
9245
102
}
330
9245
100
AcDbVisualStyle
  2
ColorChange
 70
    16
177
     3
291
     1
 70
    58
 90
        2
176
     1
 90
        2
176
     1
 90
        3
176
     1
 90
        0
176
     1
 40
0.6
176
     1
 40
30.0
176
     1
 62
     8
420
  8421504
176
     1
 90
        1
176
     1
 90
        4
176
     1
 62
     7
176
     1
 62
   257
176
     1
 90
        1
176
     1
 90
        1
176
     1
 40
1.0
176
     1
 90
        8
176
     1
 62
     8
420
  8421504
176
     1
 40
1.0
176
     1
 90
        1
176
     1
 90
        6
176
     1
 90
        2
176
     1
 62
     7
176
     1
 90
        5
176
     1
 90
        0
176
     1
 90
        0
176
     1
290
     0
176
     1
 90
        1
176
     1
 40
0.0
176
     1
 90
        0
176
     1
290
     0
176
     1
290
     1
176
     1
290
     1
176
     1
290
     0
176
     1
290
     0
176
     1
290
     0
176
     1
290
     0
176
     1
290
     0
176
     1
290
     0
176
     1
 90
       50
176
     1
 40
0.0
176
     1
 40
1.0
176
     1
 90
        0
176
     1
 62
    18
420
        0
176
     1
 90
       50
176
     1
 90
        3
176
     1
 62
     5
420
      255
176
     1
290
     0
176
     1
 90
       50
176
     1
 90
       50
176
     1
 90
       50
176
     1
290
     0
176
     1
 90
       50
176
     1
 62
   256
176
     0
 40
1.0
176
     0
 90
        2
176
     1
  1
strokes_ogs.tif
176
     1
290
     0
176
     1
 40
1.0
176
     1
 40
1.0
176
     1
  0
VISUALSTYLE
  5
924E
102
{ACAD_REACTORS
330
9245
102
}
330
9245
100
AcDbVisualStyle
  2
Conceptual
 70
     9
177
     3
291
     0
 70
    58
 90
        3
176
     1
 90
        2
176
     1
 90
        0
176
     1
 90
        0
176
     1
 40
0.6
176
     1
 40
30.0
176
     1
 62
     7
420
 16777215
176
     1
 90
        2
176
     1
 90
        2
176
     1
 62
     7
176
     1
 62
   257
176
     1
 90
        1
176
     1
 90
        1
176
     1
 40
179.0
176
     1
 90
        8
176
     1
 62
     7
176
     1
 40
1.0
176
     1
 90
        1
176
     1
 90
        6
176
     1
 90
        2
176
     1
 62
     7
176
     1
 90
        3
176
     1
 90
        0
176
     1
 90
        0
176
     1
290
     0
176
     1
 90
        1
176
     1
 40
0.0
176
     1
 90
        0
176
     1
290
     0
176
     1
290
     1
176
     1
290
     1
176
     1
290
     0
176
     1
290
     0
176
     1
290
     0
176
     1
290
     0
176
     1
290
     0
176
     1
290
     0
176
     1
 90
       50
176
     1
 40
0.0
176
     1
 40
1.0
176
     1
 90
        0
176
     1
 62
    18
420
        0
176
     1
 90
       50
176
     1
 90
        3
176
     1
 62
     5
420
      255
176
     1
290
     0
176
     1
 90
       50
176
     1
 90
       50
176
     1
 90
       50
176
     1
290
     0
176
     1
 90
       50
176
     1
 62
   256
176
     0
 40
1.0
176
     0
 90
        2
176
     1
  1
strokes_ogs.tif
176
     1
290
     0
176
     1
 40
1.0
176
     1
 40
1.0
176
     1
  0
VISUALSTYLE
  5
9250
102
{ACAD_REACTORS
330
9245
102
}
330
9245
100
AcDbVisualStyle
  2
Dim
 70
    11
177
     3
291
     1
 70
    58
 90
        2
176
     1
 90
        2
176
     1
 90
        0
176
     1
 90
        0
176
     1
 40
0.6
176
     1
 40
30.0
176
     1
 62
     7
420
 16777215
176
     1
 90
        1
176
     1
 90
        4
176
     1
 62
     7
176
     1
 62
   257
176
     1
 90
        1
176
     1
 90
        1
176
     1
 40
1.0
176
     1
 90
        8
176
     1
 62
     7
176
     1
 40
1.0
176
     1
 90
        1
176
     1
 90
        6
176
     1
 90
        2
176
     1
 62
     7
176
     1
 90
        5
176
     1
 90
        0
176
     1
 90
        0
176
     1
290
     0
176
     1
 90
        1
176
     1
 40
-50.0
176
     1
 90
        0
176
     1
290
     0
176
     1
290
     1
176
     1
290
     1
176
     1
290
     0
176
     1
290
     0
176
     1
290
     0
176
     1
290
     0
176
     1
290
     0
176
     1
290
     0
176
     1
 90
       50
176
     1
 40
0.0
176
     1
 40
1.0
176
     1
 90
        0
176
     1
 62
    18
420
        0
176
     1
 90
       50
176
     1
 90
        3
176
     1
 62
     5
420
      255
176
     1
290
     0
176
     1
 90
       50
176
     1
 90
       50
176
     1
 90
       50
176
     1
290
     0
176
     1
 90
       50
176
     1
 62
   256
176
     0
 40
1.0
176
     0
 90
        2
176
     1
  1
strokes_ogs.tif
176
     1
290
     0
176
     1
 40
1.0
176
     1
 40
1.0
176
     1
  0
VISUALSTYLE
  5
925D
102
{ACAD_REACTORS
330
9245
102
}
330
9245
100
AcDbVisualStyle
  2
EdgeColorOff
 70
    22
177
     3
291
     1
 70
    58
 90
        2
176
     0
 90
        2
176
     0
 90
        0
176
     0
 90
        0
176
     0
 40
0.6
176
     0
 40
30.0
176
     0
 62
     7
420
 16777215
176
     0
 90
        1
176
     0
 90
        4
176
     0
 62
     7
176
     0
 62
   257
176
     0
 90
        1
176
     0
 90
        1
176
     0
 40
1.0
176
     0
 90
        8
176
     2
 62
     7
176
     0
 40
1.0
176
     0
 90
        1
176
     0
 90
        6
176
     0
 90
        2
176
     0
 62
     7
176
     0
 90
        5
176
     0
 90
        0
176
     0
 90
        0
176
     0
290
     0
176
     0
 90
        1
176
     0
 40
0.0
176
     0
 90
        0
176
     0
290
     0
176
     1
290
     1
176
     1
290
     1
176
     1
290
     0
176
     1
290
     0
176
     1
290
     0
176
     1
290
     0
176
     1
290
     0
176
     1
290
     0
176
     1
 90
       50
176
     0
 40
0.0
176
     0
 40
1.0
176
     0
 90
        0
176
     0
 62
    18
420
        0
176
     0
 90
       50
176
     0
 90
        3
176
     0
 62
     5
420
      255
176
     0
290
     0
176
     1
 90
       50
176
     0
 90
       50
176
     0
 90
       50
176
     0
290
     0
176
     1
 90
       50
176
     0
 62
   256
176
     0
 40
1.0
176
     0
 90
        2
176
     0
  1
strokes_ogs.tif
176
     0
290
     0
176
     1
 40
1.0
176
     0
 40
1.0
176
     0
  0
VISUALSTYLE
  5
9254
102
{ACAD_REACTORS
330
9245
102
}
330
9245
100
AcDbVisualStyle
  2
Facepattern
 70
    15
177
     3
291
     1
 70
    58
 90
        2
176
     1
 90
        2
176
     1
 90
        0
176
     1
 90
        0
176
     1
 40
0.6
176
     1
 40
30.0
176
     1
 62
     7
420
 16777215
176
     1
 90
        1
176
     1
 90
        4
176
     1
 62
     7
176
     1
 62
   257
176
     1
 90
        1
176
     1
 90
        1
176
     1
 40
1.0
176
     1
 90
        8
176
     1
 62
     7
176
     1
 40
1.0
176
     1
 90
        1
176
     1
 90
        6
176
     1
 90
        2
176
     1
 62
     7
176
     1
 90
        5
176
     1
 90
        0
176
     1
 90
        0
176
     1
290
     0
176
     1
 90
        1
176
     1
 40
0.0
176
     1
 90
        0
176
     1
290
     0
176
     1
290
     1
176
     1
290
     1
176
     1
290
     0
176
     1
290
     0
176
     1
290
     0
176
     1
290
     0
176
     1
290
     0
176
     1
290
     0
176
     1
 90
       50
176
     1
 40
0.0
176
     1
 40
1.0
176
     1
 90
        0
176
     1
 62
    18
420
        0
176
     1
 90
       50
176
     1
 90
        3
176
     1
 62
     5
420
      255
176
     1
290
     0
176
     1
 90
       50
176
     1
 90
       50
176
     1
 90
       50
176
     1
290
     0
176
     1
 90
       50
176
     1
 62
   256
176
     0
 40
1.0
176
     0
 90
        2
176
     1
  1
strokes_ogs.tif
176
     1
290
     0
176
     1
 40
1.0
176
     1
 40
1.0
176
     1
  0
VISUALSTYLE
  5
9246
102
{ACAD_REACTORS
330
9245
102
}
330
9245
100
AcDbVisualStyle
  2
Flat
 70
     0
177
     3
291
     1
 70
    58
 90
        2
176
     1
 90
        1
176
     1
 90
        1
176
     1
 90
        2
176
     1
 40
0.6
176
     1
 40
30.0
176
     1
 62
     7
420
 16777215
176
     1
 90
        0
176
     1
 90
        0
176
     1
 62
     7
176
     1
 62
   257
176
     1
 90
        1
176
     1
 90
        1
176
     1
 40
1.0
176
     1
 90
        8
176
     1
 62
     7
176
     1
 40
1.0
176
     1
 90
        1
176
     1
 90
        6
176
     1
 90
        2
176
     1
 62
     7
176
     1
 90
        5
176
     1
 90
        0
176
     1
 90
        0
176
     1
290
     0
176
     1
 90
       13
176
     1
 40
0.0
176
     1
 90
        0
176
     1
290
     0
176
     1
290
     1
176
     1
290
     1
176
     1
290
     0
176
     1
290
     0
176
     1
290
     0
176
     1
290
     0
176
     1
290
     0
176
     1
290
     0
176
     1
 90
       50
176
     1
 40
0.0
176
     1
 40
1.0
176
     1
 90
        0
176
     1
 62
    18
420
        0
176
     1
 90
       50
176
     1
 90
        3
176
     1
 62
     5
420
      255
176
     1
290
     0
176
     1
 90
       50
176
     1
 90
       50
176
     1
 90
       50
176
     1
290
     0
176
     1
 90
       50
176
     1
 62
   256
176
     0
 40
1.0
176
     0
 90
        2
176
     1
  1
strokes_ogs.tif
176
     1
290
     0
176
     1
 40
1.0
176
     1
 40
1.0
176
     1
  0
VISUALSTYLE
  5
9247
102
{ACAD_REACTORS
330
9245
102
}
330
9245
100
AcDbVisualStyle
  2
FlatWithEdges
 70
     1
177
     3
291
     1
 70
    58
 90
        2
176
     1
 90
        1
176
     1
 90
        1
176
     1
 90
        2
176
     1
 40
0.6
176
     1
 40
30.0
176
     1
 62
     7
420
 16777215
176
     1
 90
        1
176
     1
 90
        0
176
     1
 62
     7
176
     1
 62
   257
176
     1
 90
        1
176
     1
 90
        1
176
     1
 40
1.0
176
     1
 90
        0
176
     1
 62
   257
176
     1
 40
1.0
176
     1
 90
        1
176
     1
 90
        6
176
     1
 90
        2
176
     1
 62
     7
176
     1
 90
        5
176
     1
 90
        0
176
     1
 90
        0
176
     1
290
     0
176
     1
 90
       13
176
     1
 40
0.0
176
     1
 90
        0
176
     1
290
     0
176
     1
290
     1
176
     1
290
     1
176
     1
290
     0
176
     1
290
     0
176
     1
290
     0
176
     1
290
     0
176
     1
290
     0
176
     1
290
     0
176
     1
 90
       50
176
     1
 40
0.0
176
     1
 40
1.0
176
     1
 90
        0
176
     1
 62
    18
420
        0
176
     1
 90
       50
176
     1
 90
        3
176
     1
 62
     5
420
      255
176
     1
290
     0
176
     1
 90
       50
176
     1
 90
       50
176
     1
 90
       50
176
     1
290
     0
176
     1
 90
       50
176
     1
 62
   256
176
     0
 40
1.0
176
     0
 90
        2
176
     1
  1
strokes_ogs.tif
176
     1
290
     0
176
     1
 40
1.0
176
     1
 40
1.0
176
     1
  0
VISUALSTYLE
  5
9248
102
{ACAD_REACTORS
330
9245
102
}
330
9245
100
AcDbVisualStyle
  2
Gouraud
 70
     2
177
     3
291
     1
 70
    58
 90
        2
176
     1
 90
        2
176
     1
 90
        1
176
     1
 90
        2
176
     1
 40
0.6
176
     1
 40
30.0
176
     1
 62
     7
420
 16777215
176
     1
 90
        0
176
     1
 90
        0
176
     1
 62
     7
176
     1
 62
   257
176
     1
 90
        1
176
     1
 90
        1
176
     1
 40
1.0
176
     1
 90
        0
176
     1
 62
     7
176
     1
 40
1.0
176
     1
 90
        1
176
     1
 90
        6
176
     1
 90
        2
176
     1
 62
     7
176
     1
 90
        5
176
     1
 90
        0
176
     1
 90
        0
176
     1
290
     0
176
     1
 90
       13
176
     1
 40
0.0
176
     1
 90
        0
176
     1
290
     0
176
     1
290
     1
176
     1
290
     1
176
     1
290
     0
176
     1
290
     0
176
     1
290
     0
176
     1
290
     0
176
     1
290
     0
176
     1
290
     0
176
     1
 90
       50
176
     1
 40
0.0
176
     1
 40
1.0
176
     1
 90
        0
176
     1
 62
    18
420
        0
176
     1
 90
       50
176
     1
 90
        3
176
     1
 62
     5
420
      255
176
     1
290
     0
176
     1
 90
       50
176
     1
 90
       50
176
     1
 90
       50
176
     1
290
     0
176
     1
 90
       50
176
     1
 62
   256
176
     0
 40
1.0
176
     0
 90
        2
176
     1
  1
strokes_ogs.tif
176
     1
290
     0
176
     1
 40
1.0
176
     1
 40
1.0
176
     1
  0
VISUALSTYLE
  5
9249
102
{ACAD_REACTORS
330
9245
102
}
330
9245
100
AcDbVisualStyle
  2
GouraudWithEdges
 70
     3
177
     3
291
     1
 70
    58
 90
        2
176
     1
 90
        2
176
     1
 90
        1
176
     1
 90
        2
176
     1
 40
0.6
176
     1
 40
30.0
176
     1
 62
     7
420
 16777215
176
     1
 90
        1
176
     1
 90
        0
176
     1
 62
     7
176
     1
 62
   257
176
     1
 90
        1
176
     1
 90
        1
176
     1
 40
1.0
176
     1
 90
        0
176
     1
 62
   257
176
     1
 40
1.0
176
     1
 90
        1
176
     1
 90
        6
176
     1
 90
        2
176
     1
 62
     7
176
     1
 90
        5
176
     1
 90
        0
176
     1
 90
        0
176
     1
290
     0
176
     1
 90
       13
176
     1
 40
0.0
176
     1
 90
        0
176
     1
290
     0
176
     1
290
     1
176
     1
290
     1
176
     1
290
     0
176
     1
290
     0
176
     1
290
     0
176
     1
290
     0
176
     1
290
     0
176
     1
290
     0
176
     1
 90
       50
176
     1
 40
0.0
176
     1
 40
1.0
176
     1
 90
        0
176
     1
 62
    18
420
        0
176
     1
 90
       50
176
     1
 90
        3
176
     1
 62
     5
420
      255
176
     1
290
     0
176
     1
 90
       50
176
     1
 90
       50
176
     1
 90
       50
176
     1
290
     0
176
     1
 90
       50
176
     1
 62
   256
176
     0
 40
1.0
176
     0
 90
        2
176
     1
  1
strokes_ogs.tif
176
     1
290
     0
176
     1
 40
1.0
176
     1
 40
1.0
176
     1
  0
VISUALSTYLE
  5
924D
102
{ACAD_REACTORS
330
9245
102
}
330
9245
100
AcDbVisualStyle
  2
Hidden
 70
     6
177
     3
291
     0
 70
    58
 90
        1
176
     1
 90
        2
176
     1
 90
        2
176
     1
 90
        0
176
     1
 40
0.6
176
     1
 40
30.0
176
     1
 62
     7
420
 16777215
176
     1
 90
        2
176
     1
 90
        2
176
     1
 62
     7
176
     1
 62
   257
176
     1
 90
        2
176
     1
 90
        1
176
     1
 40
40.0
176
     1
 90
        0
176
     1
 62
   257
176
     1
 40
1.0
176
     1
 90
        1
176
     1
 90
        6
176
     1
 90
        2
176
     1
 62
     7
176
     1
 90
        3
176
     1
 90
        0
176
     1
 90
        0
176
     1
290
     0
176
     1
 90
        1
176
     1
 40
0.0
176
     1
 90
        0
176
     1
290
     0
176
     1
290
     1
176
     1
290
     1
176
     1
290
     0
176
     1
290
     0
176
     1
290
     0
176
     1
290
     0
176
     1
290
     0
176
     1
290
     0
176
     1
 90
       50
176
     1
 40
0.0
176
     1
 40
1.0
176
     1
 90
        0
176
     1
 62
    18
420
        0
176
     1
 90
       50
176
     1
 90
        3
176
     1
 62
     5
420
      255
176
     1
290
     0
176
     1
 90
       50
176
     1
 90
       50
176
     1
 90
       50
176
     1
290
     0
176
     1
 90
       50
176
     1
 62
   256
176
     0
 40
1.0
176
     0
 90
        2
176
     1
  1
strokes_ogs.tif
176
     1
290
     0
176
     1
 40
1.0
176
     1
 40
1.0
176
     1
  0
VISUALSTYLE
  5
925B
102
{ACAD_REACTORS
330
9245
102
}
330
9245
100
AcDbVisualStyle
  2
JitterOff
 70
    20
177
     3
291
     1
 70
    58
 90
        2
176
     0
 90
        2
176
     0
 90
        0
176
     0
 90
        0
176
     0
 40
0.6
176
     0
 40
30.0
176
     0
 62
     7
420
 16777215
176
     0
 90
        1
176
     0
 90
        4
176
     0
 62
     7
176
     0
 62
   257
176
     0
 90
        1
176
     0
 90
        1
176
     0
 40
1.0
176
     0
 90
       10
176
     2
 62
     7
176
     0
 40
1.0
176
     0
 90
        1
176
     0
 90
        6
176
     0
 90
        2
176
     0
 62
     7
176
     0
 90
        5
176
     0
 90
        0
176
     0
 90
        0
176
     0
290
     0
176
     0
 90
        1
176
     0
 40
0.0
176
     0
 90
        0
176
     0
290
     0
176
     1
290
     1
176
     1
290
     1
176
     1
290
     0
176
     1
290
     0
176
     1
290
     0
176
     1
290
     0
176
     1
290
     0
176
     1
290
     0
176
     1
 90
       50
176
     0
 40
0.0
176
     0
 40
1.0
176
     0
 90
        0
176
     0
 62
    18
420
        0
176
     0
 90
       50
176
     0
 90
        3
176
     0
 62
     5
420
      255
176
     0
290
     0
176
     1
 90
       50
176
     0
 90
       50
176
     0
 90
       50
176
     0
290
     0
176
     1
 90
       50
176
     0
 62
   256
176
     0
 40
1.0
176
     0
 90
        2
176
     0
  1
strokes_ogs.tif
176
     0
290
     0
176
     1
 40
1.0
176
     0
 40
1.0
176
     0
  0
VISUALSTYLE
  5
9253
102
{ACAD_REACTORS
330
9245
102
}
330
9245
100
AcDbVisualStyle
  2
Linepattern
 70
    14
177
     3
291
     1
 70
    58
 90
        2
176
     1
 90
        2
176
     1
 90
        0
176
     1
 90
        0
176
     1
 40
0.6
176
     1
 40
30.0
176
     1
 62
     7
420
 16777215
176
     1
 90
        1
176
     1
 90
        4
176
     1
 62
     7
176
     1
 62
   257
176
     1
 90
        7
176
     1
 90
        7
176
     1
 40
1.0
176
     1
 90
        8
176
     1
 62
     7
176
     1
 40
1.0
176
     1
 90
        1
176
     1
 90
        6
176
     1
 90
        2
176
     1
 62
     7
176
     1
 90
        5
176
     1
 90
        0
176
     1
 90
        0
176
     1
290
     0
176
     1
 90
        1
176
     1
 40
0.0
176
     1
 90
        0
176
     1
290
     0
176
     1
290
     1
176
     1
290
     1
176
     1
290
     0
176
     1
290
     0
176
     1
290
     0
176
     1
290
     0
176
     1
290
     0
176
     1
290
     0
176
     1
 90
       50
176
     1
 40
0.0
176
     1
 40
1.0
176
     1
 90
        0
176
     1
 62
    18
420
        0
176
     1
 90
       50
176
     1
 90
        3
176
     1
 62
     5
420
      255
176
     1
290
     0
176
     1
 90
       50
176
     1
 90
       50
176
     1
 90
       50
176
     1
290
     0
176
     1
 90
       50
176
     1
 62
   256
176
     0
 40
1.0
176
     0
 90
        2
176
     1
  1
strokes_ogs.tif
176
     1
290
     0
176
     1
 40
1.0
176
     1
 40
1.0
176
     1
  0
VISUALSTYLE
  5
925C
102
{ACAD_REACTORS
330
9245
102
}
330
9245
100
AcDbVisualStyle
  2
OverhangOff
 70
    21
177
     3
291
     1
 70
    58
 90
        2
176
     0
 90
        2
176
     0
 90
        0
176
     0
 90
        0
176
     0
 40
0.6
176
     0
 40
30.0
176
     0
 62
     7
420
 16777215
176
     0
 90
        1
176
     0
 90
        4
176
     0
 62
     7
176
     0
 62
   257
176
     0
 90
        1
176
     0
 90
        1
176
     0
 40
1.0
176
     0
 90
        9
176
     2
 62
     7
176
     0
 40
1.0
176
     0
 90
        1
176
     0
 90
        6
176
     0
 90
        2
176
     0
 62
     7
176
     0
 90
        5
176
     0
 90
        0
176
     0
 90
        0
176
     0
290
     0
176
     0
 90
        1
176
     0
 40
0.0
176
     0
 90
        0
176
     0
290
     0
176
     1
290
     1
176
     1
290
     1
176
     1
290
     0
176
     1
290
     0
176
     1
290
     0
176
     1
290
     0
176
     1
290
     0
176
     1
290
     0
176
     1
 90
       50
176
     0
 40
0.0
176
     0
 40
1.0
176
     0
 90
        0
176
     0
 62
    18
420
        0
176
     0
 90
       50
176
     0
 90
        3
176
     0
 62
     5
420
      255
176
     0
290
     0
176
     1
 90
       50
176
     0
 90
       50
176
     0
 90
       50
176
     0
290
     0
176
     1
 90
       50
176
     0
 62
   256
176
     0
 40
1.0
176
     0
 90
        2
176
     0
  1
strokes_ogs.tif
176
     0
290
     0
176
     1
 40
1.0
176
     0
 40
1.0
176
     0
  0
VISUALSTYLE
  5
924F
102
{ACAD_REACTORS
330
9245
102
}
330
9245
100
AcDbVisualStyle
  2
Realistic
 70
     8
177
     3
291
     0
 70
    58
 90
        2
176
     1
 90
        3
176
     1
 90
        0
176
     1
 90
        2
176
     1
 40
0.6
176
     1
 40
30.0
176
     1
 62
     7
420
 16777215
176
     1
 90
        0
176
     1
 90
        0
176
     1
 62
     7
176
     1
 62
   257
176
     1
 90
        1
176
     1
 90
        1
176
     1
 40
1.0
176
     1
 90
        8
176
     1
 62
   257
176
     1
 40
1.0
176
     1
 90
        1
176
     1
 90
        6
176
     1
 90
        2
176
     1
 62
     7
176
     1
 90
        3
176
     1
 90
        0
176
     1
 90
        0
176
     1
290
     0
176
     1
 90
       13
176
     1
 40
0.0
176
     1
 90
        0
176
     1
290
     0
176
     1
290
     1
176
     1
290
     1
176
     1
290
     0
176
     1
290
     0
176
     1
290
     0
176
     1
290
     0
176
     1
290
     0
176
     1
290
     0
176
     1
 90
       50
176
     1
 40
0.0
176
     1
 40
1.0
176
     1
 90
        0
176
     1
 62
    18
420
        0
176
     1
 90
       50
176
     1
 90
        3
176
     1
 62
     5
420
      255
176
     1
290
     0
176
     1
 90
       50
176
     1
 90
       50
176
     1
 90
       50
176
     1
290
     0
176
     1
 90
       50
176
     1
 62
   256
176
     0
 40
1.0
176
     0
 90
        2
176
     1
  1
strokes_ogs.tif
176
     1
290
     0
176
     1
 40
1.0
176
     1
 40
1.0
176
     1
  0
VISUALSTYLE
  5
925A
102
{ACAD_REACTORS
330
9245
102
}
330
9245
100
AcDbVisualStyle
  2
Shaded
 70
    27
177
     3
291
     0
 70
    58
 90
        2
176
     1
 90
        2
176
     1
 90
        1
176
     1
 90
        2
176
     1
 40
0.6
176
     1
 40
30.0
176
     1
 62
     7
420
 16777215
176
     1
 90
        0
176
     1
 90
        4
176
     1
 62
     7
176
     1
 62
   257
176
     1
 90
        1
176
     1
 90
        1
176
     1
 40
1.0
176
     1
 90
        8
176
     1
 62
   257
176
     1
 40
1.0
176
     1
 90
        1
176
     1
 90
        6
176
     1
 90
        2
176
     1
 62
     8
420
  7895160
176
     1
 90
        3
176
     1
 90
        0
176
     1
 90
        0
176
     1
290
     0
176
     1
 90
        5
176
     1
 40
0.0
176
     1
 90
        0
176
     1
290
     0
176
     1
290
     1
176
     1
290
     1
176
     1
290
     0
176
     1
290
     0
176
     1
290
     0
176
     1
290
     0
176
     1
290
     0
176
     1
290
     0
176
     1
 90
       50
176
     1
 40
0.0
176
     1
 40
1.0
176
     1
 90
        0
176
     1
 62
    18
420
        0
176
     1
 90
       50
176
     1
 90
        3
176
     1
 62
     5
420
      255
176
     1
290
     0
176
     1
 90
       50
176
     1
 90
       50
176
     1
 90
       50
176
     1
290
     0
176
     1
 90
       50
176
     1
 62
   256
176
     0
 40
1.0
176
     0
 90
        2
176
     1
  1
strokes_ogs.tif
176
     1
290
     0
176
     1
 40
1.0
176
     1
 40
1.0
176
     1
  0
VISUALSTYLE
  5
9259
102
{ACAD_REACTORS
330
9245
102
}
330
9245
100
AcDbVisualStyle
  2
Shaded with edges
 70
    26
177
     3
291
     0
 70
    58
 90
        2
176
     1
 90
        2
176
     1
 90
        1
176
     1
 90
        2
176
     1
 40
0.6
176
     1
 40
30.0
176
     1
 62
     7
420
 16777215
176
     1
 90
        1
176
     1
 90
        2
176
     1
 62
     7
176
     1
 62
   257
176
     1
 90
        2
176
     1
 90
        1
176
     1
 40
1.0
176
     1
 90
        8
176
     1
 62
   257
176
     1
 40
1.0
176
     1
 90
        1
176
     1
 90
        6
176
     1
 90
        2
176
     1
 62
     7
176
     1
 90
        3
176
     1
 90
        0
176
     1
 90
        0
176
     1
290
     0
176
     1
 90
        5
176
     1
 40
0.0
176
     1
 90
        0
176
     1
290
     0
176
     1
290
     1
176
     1
290
     1
176
     1
290
     0
176
     1
290
     0
176
     1
290
     0
176
     1
290
     0
176
     1
290
     0
176
     1
290
     0
176
     1
 90
       50
176
     1
 40
0.0
176
     1
 40
1.0
176
     1
 90
        0
176
     1
 62
    18
420
        0
176
     1
 90
       50
176
     1
 90
        3
176
     1
 62
     5
420
      255
176
     1
290
     0
176
     1
 90
       50
176
     1
 90
       50
176
     1
 90
       50
176
     1
290
     0
176
     1
 90
       50
176
     1
 62
   256
176
     0
 40
1.0
176
     0
 90
        2
176
     1
  1
strokes_ogs.tif
176
     1
290
     0
176
     1
 40
1.0
176
     1
 40
1.0
176
     1
  0
VISUALSTYLE
  5
9256
102
{ACAD_REACTORS
330
9245
102
}
330
9245
100
AcDbVisualStyle
  2
Shades of Gray
 70
    23
177
     3
291
     0
 70
    58
 90
        2
176
     1
 90
        2
176
     1
 90
        3
176
     1
 90
        0
176
     1
 40
0.6
176
     1
 40
30.0
176
     1
 62
     7
420
 16777215
176
     1
 90
        2
176
     1
 90
        2
176
     1
 62
     7
176
     1
 62
     7
176
     1
 90
        1
176
     1
 90
        1
176
     1
 40
40.0
176
     1
 90
        8
176
     1
 62
     7
176
     1
 40
1.0
176
     1
 90
        1
176
     1
 90
        6
176
     1
 90
        2
176
     1
 62
     7
176
     1
 90
        3
176
     1
 90
        0
176
     1
 90
        0
176
     1
290
     0
176
     1
 90
        1
176
     1
 40
0.0
176
     1
 90
        0
176
     1
290
     0
176
     1
290
     1
176
     1
290
     1
176
     1
290
     0
176
     1
290
     0
176
     1
290
     0
176
     1
290
     0
176
     1
290
     0
176
     1
290
     0
176
     1
 90
       50
176
     1
 40
0.0
176
     1
 40
1.0
176
     1
 90
        0
176
     1
 62
    18
420
        0
176
     1
 90
       50
176
     1
 90
        3
176
     1
 62
     5
420
      255
176
     1
290
     0
176
     1
 90
       50
176
     1
 90
       50
176
     1
 90
       50
176
     1
290
     0
176
     1
 90
       50
176
     1
 62
   256
176
     0
 40
1.0
176
     0
 90
        2
176
     1
  1
strokes_ogs.tif
176
     1
290
     0
176
     1
 40
1.0
176
     1
 40
1.0
176
     1
  0
VISUALSTYLE
  5
9257
102
{ACAD_REACTORS
330
9245
102
}
330
9245
100
AcDbVisualStyle
  2
Sketchy
 70
    24
177
     3
291
     0
 70
    58
 90
        1
176
     1
 90
        2
176
     1
 90
        2
176
     1
 90
        0
176
     1
 40
0.6
176
     1
 40
30.0
176
     1
 62
     7
420
 16777215
176
     1
 90
        2
176
     1
 90
        2
176
     1
 62
     7
176
     1
 62
     7
176
     1
 90
        1
176
     1
 90
        1
176
     1
 40
40.0
176
     1
 90
       11
176
     1
 62
     7
176
     1
 40
1.0
176
     1
 90
        1
176
     1
 90
        6
176
     1
 90
        2
176
     1
 62
     7
176
     1
 90
        6
176
     1
 90
        0
176
     1
 90
        0
176
     1
290
     0
176
     1
 90
        1
176
     1
 40
0.0
176
     1
 90
        0
176
     1
290
     0
176
     1
290
     1
176
     1
290
     1
176
     1
290
     0
176
     1
290
     0
176
     1
290
     0
176
     1
290
     0
176
     1
290
     0
176
     1
290
     0
176
     1
 90
       50
176
     1
 40
0.0
176
     1
 40
1.0
176
     1
 90
        0
176
     1
 62
    18
420
        0
176
     1
 90
       50
176
     1
 90
        3
176
     1
 62
     5
420
      255
176
     1
290
     0
176
     1
 90
       50
176
     1
 90
       50
176
     1
 90
       50
176
     1
290
     0
176
     1
 90
       50
176
     1
 62
   256
176
     0
 40
1.0
176
     0
 90
        2
176
     1
  1
strokes_ogs.tif
176
     1
290
     0
176
     1
 40
1.0
176
     1
 40
1.0
176
     1
  0
VISUALSTYLE
  5
9252
102
{ACAD_REACTORS
330
9245
102
}
330
9245
100
AcDbVisualStyle
  2
Thicken
 70
    13
177
     3
291
     1
 70
    58
 90
        2
176
     1
 90
        2
176
     1
 90
        0
176
     1
 90
        0
176
     1
 40
0.6
176
     1
 40
30.0
176
     1
 62
     7
420
 16777215
176
     1
 90
        1
176
     1
 90
        4
176
     1
 62
     7
176
     1
 62
   257
176
     1
 90
        1
176
     1
 90
        1
176
     1
 40
1.0
176
     1
 90
       12
176
     1
 62
     7
176
     1
 40
1.0
176
     1
 90
        1
176
     1
 90
        6
176
     1
 90
        2
176
     1
 62
     7
176
     1
 90
        5
176
     1
 90
        0
176
     1
 90
        0
176
     1
290
     0
176
     1
 90
        1
176
     1
 40
0.0
176
     1
 90
        0
176
     1
290
     0
176
     1
290
     1
176
     1
290
     1
176
     1
290
     0
176
     1
290
     0
176
     1
290
     0
176
     1
290
     0
176
     1
290
     0
176
     1
290
     0
176
     1
 90
       50
176
     1
 40
0.0
176
     1
 40
1.0
176
     1
 90
        0
176
     1
 62
    18
420
        0
176
     1
 90
       50
176
     1
 90
        3
176
     1
 62
     5
420
      255
176
     1
290
     0
176
     1
 90
       50
176
     1
 90
       50
176
     1
 90
       50
176
     1
290
     0
176
     1
 90
       50
176
     1
 62
   256
176
     0
 40
1.0
176
     0
 90
        2
176
     1
  1
strokes_ogs.tif
176
     1
290
     0
176
     1
 40
1.0
176
     1
 40
1.0
176
     1
  0
VISUALSTYLE
  5
924C
102
{ACAD_REACTORS
330
9245
102
}
330
9245
100
AcDbVisualStyle
  2
Wireframe
 70
     5
177
     3
291
     0
 70
    58
 90
        0
176
     1
 90
        2
176
     1
 90
        0
176
     1
 90
        0
176
     1
 40
0.6
176
     1
 40
30.0
176
     1
 62
     7
420
 16777215
176
     1
 90
        1
176
     1
 90
        4
176
     1
 62
     7
176
     1
 62
   257
176
     1
 90
        1
176
     1
 90
        1
176
     1
 40
1.0
176
     1
 90
        0
176
     1
 62
   257
176
     1
 40
1.0
176
     1
 90
        1
176
     1
 90
        6
176
     1
 90
        2
176
     1
 62
     7
176
     1
 90
        3
176
     1
 90
        0
176
     1
 90
        0
176
     1
290
     0
176
     1
 90
        1
176
     1
 40
0.0
176
     1
 90
        0
176
     1
290
     0
176
     1
290
     1
176
     1
290
     1
176
     1
290
     0
176
     1
290
     0
176
     1
290
     0
176
     1
290
     0
176
     1
290
     0
176
     1
290
     0
176
     1
 90
       50
176
     1
 40
0.0
176
     1
 40
1.0
176
     1
 90
        0
176
     1
 62
    18
420
        0
176
     1
 90
       50
176
     1
 90
        3
176
     1
 62
     5
420
      255
176
     1
290
     0
176
     1
 90
       50
176
     1
 90
       50
176
     1
 90
       50
176
     1
290
     0
176
     1
 90
       50
176
     1
 62
   256
176
     0
 40
1.0
176
     0
 90
        2
176
     1
  1
strokes_ogs.tif
176
     1
290
     0
176
     1
 40
1.0
176
     1
 40
1.0
176
     1
  0
VISUALSTYLE
  5
9258
102
{ACAD_REACTORS
330
9245
102
}
330
9245
100
AcDbVisualStyle
  2
X-Ray
 70
    25
177
     3
291
     0
 70
    58
 90
        2
176
     1
 90
        2
176
     1
 90
        1
176
     1
 90
        1
176
     1
 40
0.5
176
     1
 40
30.0
176
     1
 62
     7
420
 16777215
176
     1
 90
        1
176
     1
 90
        0
176
     1
 62
     7
176
     1
 62
   257
176
     1
 90
        1
176
     1
 90
        1
176
     1
 40
1.0
176
     1
 90
        8
176
     1
 62
     7
176
     1
 40
1.0
176
     1
 90
        1
176
     1
 90
        6
176
     1
 90
        2
176
     1
 62
     7
176
     1
 90
        3
176
     1
 90
        0
176
     1
 90
        0
176
     1
290
     0
176
     1
 90
       13
176
     1
 40
0.0
176
     1
 90
        0
176
     1
290
     0
176
     1
290
     1
176
     1
290
     1
176
     1
290
     0
176
     1
290
     0
176
     1
290
     0
176
     1
290
     0
176
     1
290
     0
176
     1
290
     0
176
     1
 90
       50
176
     1
 40
0.0
176
     1
 40
1.0
176
     1
 90
        0
176
     1
 62
    18
420
        0
176
     1
 90
       50
176
     1
 90
        3
176
     1
 62
     5
420
      255
176
     1
290
     0
176
     1
 90
       50
176
     1
 90
       50
176
     1
 90
       50
176
     1
290
     0
176
     1
 90
       50
176
     1
 62
   256
176
     0
 40
1.0
176
     0
 90
        2
176
     1
  1
strokes_ogs.tif
176
     1
290
     0
176
     1
 40
1.0
176
     1
 40
1.0
176
     1
  0
DICTIONARYVAR
  5
92B3
102
{ACAD_REACTORS
330
92AD
102
}
330
92AD
100
DictionaryVariables
280
     0
  1
1:1
  0
DICTIONARYVAR
  5
92AF
102
{ACAD_REACTORS
330
92AD
102
}
330
92AD
100
DictionaryVariables
280
     0
  1
STANDARD
  0
DICTIONARYVAR
  5
92AE
102
{ACAD_REACTORS
330
92AD
102
}
330
92AD
100
DictionaryVariables
280
     0
  1
STANDARD
  0
DICTIONARYVAR
  5
92B0
102
{ACAD_REACTORS
330
92AD
102
}
330
92AD
100
DictionaryVariables
280
     0
  1
Imperial24
  0
DICTIONARYVAR
  5
92B1
102
{ACAD_REACTORS
330
92AD
102
}
330
92AD
100
DictionaryVariables
280
     0
  1
Imperial24
  0
DICTIONARYVAR
  5
92B5
102
{ACAD_REACTORS
330
92AD
102
}
330
92AD
100
DictionaryVariables
280
     0
  1
1
  0
DICTIONARYVAR
  5
92B6
102
{ACAD_REACTORS
330
92AD
102
}
330
92AD
100
DictionaryVariables
280
     0
  1
15
  0
DICTIONARYVAR
  5
92B4
102
{ACAD_REACTORS
330
92AD
102
}
330
92AD
100
DictionaryVariables
280
     0
  1
0
  0
DICTIONARYVAR
  5
92B2
102
{ACAD_REACTORS
330
92AD
102
}
330
92AD
100
DictionaryVariables
280
     0
  1
0
  0
XRECORD
  5
92AC
102
{ACAD_REACTORS
330
92AA
102
}
330
92AA
100
AcDbXrecord
280
     1
330
928D
330
929A
  0
ACDBASSOCNETWORK
  5
9281
102
{ACAD_REACTORS
330
9280
102
}
330
9280
100
AcDbAssocAction
 90
        2
 90
        0
330
9283
360
0
 90
        1
 90
        0
 90
        0
 90
        0
 90
        0
 90
        0
 90
        0
100
AcDbAssocNetwork
 90
        0
 90
        2
 90
        2
360
9284
360
9291
 90
        0
  0
DICTIONARY
  5
9236
330
9235
100
AcDbDictionary
280
     1
281
     1
  3
BUMPTILE
360
9238
  3
DIFFUSETILE
360
9237
  3
OPACITYTILE
360
923B
  3
REFLECTIONTILE
360
923A
  3
REFRACTIONTILE
360
923C
  3
SPECULARTILE
360
9239
  0
DICTIONARY
  5
922E
330
922D
100
AcDbDictionary
280
     1
281
     1
  3
BUMPTILE
360
9230
  3
DIFFUSETILE
360
922F
  3
OPACITYTILE
360
9233
  3
REFLECTIONTILE
360
9232
  3
REFRACTIONTILE
360
9234
  3
SPECULARTILE
360
9231
  0
DICTIONARY
  5
923E
330
923D
100
AcDbDictionary
280
     1
281
     1
  3
BUMPTILE
360
9240
  3
DIFFUSETILE
360
923F
  3
OPACITYTILE
360
9243
  3
REFLECTIONTILE
360
9242
  3
REFRACTIONTILE
360
9244
  3
SPECULARTILE
360
9241
  0
DICTIONARY
  5
92B8
330
9261
100
AcDbDictionary
280
     1
281
     1
  3
ACAD_ROUNDTRIP_2008_TABLESTYLE_CELLSTYLEMAP
360
92B9
  0
ACDBASSOCACTION
  5
9284
330
9281
100
AcDbAssocAction
 90
        2
 90
        0
330
9281
360
9285
 90
        1
 90
        3
 90
        3
360
9287
360
9289
360
928F
 90
        0
 90
        2
360
9286
360
9288
 90
        0
 90
       14
 90
        0
  1
StartExtLength
 90
        0
 90
        1
 40
1.000000000000000E+60
330
0
330
0
 90
        0
  1
EndExtLength
 90
        0
 90
        1
 40
1.000000000000000E+60
330
0
330
0
 90
        0
  1
StartOvershoot
 90
        0
 90
        1
 40
0.12
330
0
330
0
 90
        0
  1
EndOvershoot
 90
        0
 90
        1
 40
0.12
330
0
330
0
 90
        0
  1
EdgeRefDirectionEnding
 90
        0
 90
        2
 90
        0
330
0
 90
        1
330
0
330
0
 90
        0
  1
CenterDepId
 90
        0
 90
        1
330
928F
330
0
330
0
 90
        0
  1
CachedCenterLineLength
 90
        0
 90
        1
 40
50000.0
330
0
330
0
 90
        0
  1
CachedCenterLineDirectionX
 90
        0
 90
        1
 40
0.0
330
0
330
0
 90
        0
  1
CachedCenterLineDirectionY
 90
        0
 90
        1
 40
1.0
330
0
330
0
 90
        0
  1
CachedCenterLineDirectionZ
 90
        0
 90
        1
 40
0.0
330
0
330
0
 90
        0
  1
SubentLineType
 90
        0
 90
        1
  1
CENTER2
330
0
330
0
 90
        0
  1
SubentLineWeight
 90
        0
 90
        1
 40
-1.0
330
0
330
0
 90
        0
  1
SubentLinetypeScale
 90
        0
 90
        1
 40
1.0
330
0
330
0
 90
        0
  1
CachedAssociateStatus
 90
        0
 90
        1
 40
1.0
330
0
330
0
  0
ACDBASSOCACTION
  5
9291
330
9281
100
AcDbAssocAction
 90
        2
 90
        0
330
9281
360
9292
 90
        2
 90
        3
 90
        3
360
9294
360
9296
360
929B
 90
        0
 90
        2
360
9293
360
9295
 90
        0
 90
       14
 90
        0
  1
StartExtLength
 90
        0
 90
        1
 40
1.000000000000000E+60
330
0
330
0
 90
        0
  1
EndExtLength
 90
        0
 90
        1
 40
1.000000000000000E+60
330
0
330
0
 90
        0
  1
StartOvershoot
 90
        0
 90
        1
 40
0.12
330
0
330
0
 90
        0
  1
EndOvershoot
 90
        0
 90
        1
 40
0.12
330
0
330
0
 90
        0
  1
EdgeRefDirectionEnding
 90
        0
 90
        2
 90
        0
330
0
 90
        1
330
0
330
0
 90
        0
  1
CenterDepId
 90
        0
 90
        1
330
929B
330
0
330
0
 90
        0
  1
CachedCenterLineLength
 90
        0
 90
        1
 40
77500.0
330
0
330
0
 90
        0
  1
CachedCenterLineDirectionX
 90
        0
 90
        1
 40
1.0
330
0
330
0
 90
        0
  1
CachedCenterLineDirectionY
 90
        0
 90
        1
 40
0.0
330
0
330
0
 90
        0
  1
CachedCenterLineDirectionZ
 90
        0
 90
        1
 40
0.0
330
0
330
0
 90
        0
  1
SubentLineType
 90
        0
 90
        1
  1
CENTER2
330
0
330
0
 90
        0
  1
SubentLineWeight
 90
        0
 90
        1
 40
-1.0
330
0
330
0
 90
        0
  1
SubentLinetypeScale
 90
        0
 90
        1
 40
1.0
330
0
330
0
 90
        0
  1
CachedAssociateStatus
 90
        0
 90
        1
 40
1.0
330
0
330
0
  0
XRECORD
  5
9238
102
{ACAD_REACTORS
330
9236
102
}
330
9236
100
AcDbXrecord
280
     1
270
     1
271
     1
  0
XRECORD
  5
9237
102
{ACAD_REACTORS
330
9236
102
}
330
9236
100
AcDbXrecord
280
     1
270
     1
271
     1
  0
XRECORD
  5
923B
102
{ACAD_REACTORS
330
9236
102
}
330
9236
100
AcDbXrecord
280
     1
270
     1
271
     1
  0
XRECORD
  5
923A
102
{ACAD_REACTORS
330
9236
102
}
330
9236
100
AcDbXrecord
280
     1
270
     1
271
     1
  0
XRECORD
  5
923C
102
{ACAD_REACTORS
330
9236
102
}
330
9236
100
AcDbXrecord
280
     1
270
     1
271
     1
  0
XRECORD
  5
9239
102
{ACAD_REACTORS
330
9236
102
}
330
9236
100
AcDbXrecord
280
     1
270
     1
271
     1
  0
XRECORD
  5
9230
102
{ACAD_REACTORS
330
922E
102
}
330
922E
100
AcDbXrecord
280
     1
270
     1
271
     1
  0
XRECORD
  5
922F
102
{ACAD_REACTORS
330
922E
102
}
330
922E
100
AcDbXrecord
280
     1
270
     1
271
     1
  0
XRECORD
  5
9233
102
{ACAD_REACTORS
330
922E
102
}
330
922E
100
AcDbXrecord
280
     1
270
     1
271
     1
  0
XRECORD
  5
9232
102
{ACAD_REACTORS
330
922E
102
}
330
922E
100
AcDbXrecord
280
     1
270
     1
271
     1
  0
XRECORD
  5
9234
102
{ACAD_REACTORS
330
922E
102
}
330
922E
100
AcDbXrecord
280
     1
270
     1
271
     1
  0
XRECORD
  5
9231
102
{ACAD_REACTORS
330
922E
102
}
330
922E
100
AcDbXrecord
280
     1
270
     1
271
     1
  0
XRECORD
  5
9240
102
{ACAD_REACTORS
330
923E
102
}
330
923E
100
AcDbXrecord
280
     1
270
     1
271
     1
  0
XRECORD
  5
923F
102
{ACAD_REACTORS
330
923E
102
}
330
923E
100
AcDbXrecord
280
     1
270
     1
271
     1
  0
XRECORD
  5
9243
102
{ACAD_REACTORS
330
923E
102
}
330
923E
100
AcDbXrecord
280
     1
270
     1
271
     1
  0
XRECORD
  5
9242
102
{ACAD_REACTORS
330
923E
102
}
330
923E
100
AcDbXrecord
280
     1
270
     1
271
     1
  0
XRECORD
  5
9244
102
{ACAD_REACTORS
330
923E
102
}
330
923E
100
AcDbXrecord
280
     1
270
     1
271
     1
  0
XRECORD
  5
9241
102
{ACAD_REACTORS
330
923E
102
}
330
923E
100
AcDbXrecord
280
     1
270
     1
271
     1
  0
CELLSTYLEMAP
  5
92B9
102
{ACAD_REACTORS
330
92B8
102
}
330
92B8
100
AcDbCellStyleMap
 90
        3
300
CELLSTYLE
  1
TABLEFORMAT_BEGIN
 90
        5
170
     1
 91
        0
 92
    32768
 62
   257
 93
        1
300
CONTENTFORMAT
  1
CONTENTFORMAT_BEGIN
 90
        0
 91
        0
 92
      512
 93
        0
300

 40
0.0
140
1.0
 94
        5
 62
     0
340
248F
144
0.25
309
CONTENTFORMAT_END
171
     0
 94
        0
309
TABLEFORMAT_END
  1
CELLSTYLE_BEGIN
 90
        1
 91
        1
300
_TITLE
309
CELLSTYLE_END
300
CELLSTYLE
  1
TABLEFORMAT_BEGIN
 90
        5
170
     1
 91
        0
 92
        0
 62
   257
 93
        1
300
CONTENTFORMAT
  1
CONTENTFORMAT_BEGIN
 90
        0
 91
        0
 92
      512
 93
        0
300

 40
0.0
140
1.0
 94
        5
 62
     0
340
248F
144
0.18
309
CONTENTFORMAT_END
171
     0
 94
        0
309
TABLEFORMAT_END
  1
CELLSTYLE_BEGIN
 90
        2
 91
        1
300
_HEADER
309
CELLSTYLE_END
300
CELLSTYLE
  1
TABLEFORMAT_BEGIN
 90
        5
170
     1
 91
        0
 92
        0
 62
   257
 93
        1
300
CONTENTFORMAT
  1
CONTENTFORMAT_BEGIN
 90
        0
 91
        0
 92
      512
 93
        0
300

 40
0.0
140
1.0
 94
        2
 62
     0
340
248F
144
0.18
309
CONTENTFORMAT_END
171
     0
 94
        0
309
TABLEFORMAT_END
  1
CELLSTYLE_BEGIN
 90
        3
 91
        2
300
_DATA
309
CELLSTYLE_END
  0
AcDbCenterLineActionBody
  5
9285
330
9284
100
AcDbAssocActionBody
 90
        2
100
AcDbSmartCenterActionBody
 90
        0
  0
ACDBASSOCGEOMDEPENDENCY
  5
9287
330
9284
100
AcDbAssocDependency
 90
        2
 90
        0
290
     1
290
     0
290
     1
290
     1
 90
        0
330
2488
290
     0
330
0
330
9289
360
0
 90
        1
100
AcDbAssocGeomDependency
 90
        0
290
     1
  1
AcDbAssocEdgePersSubentId
 90
        0
 90
        1
 90
        2
290
     0
  0
ACDBASSOCGEOMDEPENDENCY
  5
9289
330
9284
100
AcDbAssocDependency
 90
        2
 90
        0
290
     1
290
     0
290
     1
290
     1
 90
        0
330
2488
290
     0
330
9287
330
9294
360
0
 90
        2
100
AcDbAssocGeomDependency
 90
        0
290
     1
  1
AcDbAssocEdgePersSubentId
 90
        0
 90
        3
 90
        4
290
     0
  0
ACDBASSOCDEPENDENCY
  5
928F
330
9284
100
AcDbAssocDependency
 90
        2
 90
        0
290
     1
290
     1
290
     1
290
     1
 90
        0
330
928D
290
     0
330
0
330
0
360
0
 90
        3
  0
ACDBASSOCEDGEACTIONPARAM
  5
9286
330
9284
100
AcDbAssocActionParam
 90
        1
 90
        0
  1
InputEdge
100
AcDbAssocSingleDependencyActionParam
 90
        0
330
9287
100
AcDbAssocEdgeActionParam
 90
        0
330
0
290
     1
 90
       23
 10
-38750.0
 20
-25000.0
 30
0.0
 10
0.0
 20
50000.0
 30
0.0
  0
ACDBASSOCEDGEACTIONPARAM
  5
9288
330
9284
100
AcDbAssocActionParam
 90
        1
 90
        0
  1
InputEdge
100
AcDbAssocSingleDependencyActionParam
 90
        0
330
9289
100
AcDbAssocEdgeActionParam
 90
        0
330
0
290
     1
 90
       23
 10
38750.0
 20
25000.0
 30
0.0
 10
0.0
 20
-50000.0
 30
0.0
  0
AcDbCenterLineActionBody
  5
9292
330
9291
100
AcDbAssocActionBody
 90
        2
100
AcDbSmartCenterActionBody
 90
        0
  0
ACDBASSOCGEOMDEPENDENCY
  5
9294
330
9291
100
AcDbAssocDependency
 90
        2
 90
        0
290
     1
290
     0
290
     1
290
     1
 90
        0
330
2488
290
     0
330
9289
330
9296
360
0
 90
        1
100
AcDbAssocGeomDependency
 90
        0
290
     1
  1
AcDbAssocEdgePersSubentId
 90
        0
 90
        2
 90
        3
290
     0
  0
ACDBASSOCGEOMDEPENDENCY
  5
9296
330
9291
100
AcDbAssocDependency
 90
        2
 90
        0
290
     1
290
     0
290
     1
290
     1
 90
        0
330
2488
290
     0
330
9294
330
0
360
0
 90
        2
100
AcDbAssocGeomDependency
 90
        0
290
     1
  1
AcDbAssocEdgePersSubentId
 90
        0
 90
        4
 90
        1
290
     0
  0
ACDBASSOCDEPENDENCY
  5
929B
330
9291
100
AcDbAssocDependency
 90
        2
 90
        0
290
     1
290
     1
290
     1
290
     1
 90
        0
330
929A
290
     0
330
0
330
0
360
0
 90
        3
  0
ACDBASSOCEDGEACTIONPARAM
  5
9293
330
9291
100
AcDbAssocActionParam
 90
        1
 90
        0
  1
InputEdge
100
AcDbAssocSingleDependencyActionParam
 90
        0
330
9294
100
AcDbAssocEdgeActionParam
 90
        0
330
0
290
     1
 90
       23
 10
-38750.0
 20
25000.0
 30
0.0
 10
77500.0
 20
0.0
 30
0.0
  0
ACDBASSOCEDGEACTIONPARAM
  5
9295
330
9291
100
AcDbAssocActionParam
 90
        1
 90
        0
  1
InputEdge
100
AcDbAssocSingleDependencyActionParam
 90
        0
330
9296
100
AcDbAssocEdgeActionParam
 90
        0
330
0
290
     1
 90
       23
 10
38750.0
 20
-25000.0
 30
0.0
 10
-77500.0
 20
0.0
 30
0.0
  0
ENDSEC
  0
EOF
