  0
SECTION
  2
HEADER
  9
$ACADVER
  1
AC1032
  9
$ACADMAINTVER
 90
      174
  9
$DWGCODEPAGE
  3
ANSI_1252
  9
$LASTSAVEDBY
  1
jpgreen
  9
$REQUIREDVERSIONS
160
                 0
  9
$INSBASE
 10
0.0
 20
0.0
 30
0.0
  9
$EXTMIN
 10
-42000.5
 20
-40000.49999999999
 30
0.0
  9
$EXTMAX
 10
45000.49999999999
 20
40000.49999999999
 30
0.0
  9
$LIMMIN
 10
0.0
 20
0.0
  9
$LIMMAX
 10
0.0
 20
0.0
  9
$ORTHOMODE
 70
     0
  9
$REGENMODE
 70
     1
  9
$FILLMODE
 70
     1
  9
$QTEXTMODE
 70
     0
  9
$MIRRTEXT
 70
     1
  9
$LTSCALE
 40
1.0
  9
$ATTMODE
 70
     1
  9
$TEXTSIZE
 40
0.0
  9
$TRACEWID
 40
0.05
  9
$TEXTSTYLE
  7
STANDARD
  9
$CLAYER
  8
0
  9
$CELTYPE
  6
CONTINUOUS
  9
$CECOLOR
 62
   256
  9
$CELTSCALE
 40
1.0
  9
$DISPSILH
 70
     0
  9
$DIMSCALE
 40
1.0
  9
$DIMASZ
 40
0.18
  9
$DIMEXO
 40
0.0625
  9
$DIMDLI
 40
0.38
  9
$DIMRND
 40
0.0
  9
$DIMDLE
 40
0.0
  9
$DIMEXE
 40
0.18
  9
$DIMTP
 40
0.0
  9
$DIMTM
 40
0.0
  9
$DIMTXT
 40
0.18
  9
$DIMCEN
 40
0.09
  9
$DIMTSZ
 40
0.0
  9
$DIMTOL
 70
     0
  9
$DIMLIM
 70
     0
  9
$DIMTIH
 70
     1
  9
$DIMTOH
 70
     1
  9
$DIMSE1
 70
     0
  9
$DIMSE2
 70
     0
  9
$DIMTAD
 70
     0
  9
$DIMZIN
 70
     0
  9
$DIMBLK
  1

  9
$DIMASO
 70
     1
  9
$DIMSHO
 70
     1
  9
$DIMPOST
  1

  9
$DIMAPOST
  1

  9
$DIMALT
 70
     0
  9
$DIMALTD
 70
     2
  9
$DIMALTF
 40
25.4
  9
$DIMLFAC
 40
1.0
  9
$DIMTOFL
 70
     0
  9
$DIMTVP
 40
0.0
  9
$DIMTIX
 70
     0
  9
$DIMSOXD
 70
     0
  9
$DIMSAH
 70
     0
  9
$DIMBLK1
  1

  9
$DIMBLK2
  1

  9
$DIMSTYLE
  2
STANDARD
  9
$DIMCLRD
 70
     0
  9
$DIMCLRE
 70
     0
  9
$DIMCLRT
 70
     0
  9
$DIMTFAC
 40
1.0
  9
$DIMGAP
 40
0.09
  9
$DIMJUST
 70
     0
  9
$DIMSD1
 70
     0
  9
$DIMSD2
 70
     0
  9
$DIMTOLJ
 70
     1
  9
$DIMTZIN
 70
     0
  9
$DIMALTZ
 70
     0
  9
$DIMALTTZ
 70
     0
  9
$DIMUPT
 70
     0
  9
$DIMDEC
 70
     4
  9
$DIMTDEC
 70
     4
  9
$DIMALTU
 70
     2
  9
$DIMALTTD
 70
     2
  9
$DIMTXSTY
  7
STANDARD
  9
$DIMAUNIT
 70
     0
  9
$DIMADEC
 70
     0
  9
$DIMALTRND
 40
0.0
  9
$DIMAZIN
 70
     0
  9
$DIMDSEP
 70
    46
  9
$DIMATFIT
 70
     3
  9
$DIMFRAC
 70
     0
  9
$DIMLDRBLK
  1

  9
$DIMLUNIT
 70
     2
  9
$DIMLWD
 70
    -2
  9
$DIMLWE
 70
    -2
  9
$DIMTMOVE
 70
     0
  9
$DIMFXL
 40
1.0
  9
$DIMFXLON
 70
     0
  9
$DIMJOGANG
 40
0.7853981633974483
  9
$DIMTFILL
 70
     0
  9
$DIMTFILLCLR
 70
     0
  9
$DIMARCSYM
 70
     0
  9
$DIMLTYPE
  6

  9
$DIMLTEX1
  6

  9
$DIMLTEX2
  6

  9
$DIMTXTDIRECTION
 70
     0
  9
$LUNITS
 70
     2
  9
$LUPREC
 70
     4
  9
$SKETCHINC
 40
0.1
  9
$FILLETRAD
 40
0.0
  9
$AUNITS
 70
     0
  9
$AUPREC
 70
     0
  9
$MENU
  1
acad
  9
$ELEVATION
 40
0.0
  9
$PELEVATION
 40
0.0
  9
$THICKNESS
 40
0.0
  9
$LIMCHECK
 70
     0
  9
$CHAMFERA
 40
0.0
  9
$CHAMFERB
 40
0.0
  9
$CHAMFERC
 40
0.0
  9
$CHAMFERD
 40
0.0
  9
$SKPOLY
 70
     0
  9
$TDCREATE
 40
2414622.957627315
  9
$TDUCREATE
 40
2440587.999988426
  9
$TDUPDATE
 40
2459767.356053241
  9
$TDUUPDATE
 40
2459767.647719908
  9
$TDINDWG
 40
0.0022453704
  9
$TDUSRTIMER
 40
0.0022453704
  9
$USRTIMER
 70
     1
  9
$ANGBASE
 50
0.0
  9
$ANGDIR
 70
     0
  9
$PDMODE
 70
     0
  9
$PDSIZE
 40
0.0
  9
$PLINEWID
 40
0.0
  9
$SPLFRAME
 70
     0
  9
$SPLINETYPE
 70
     6
  9
$SPLINESEGS
 70
     8
  9
$HANDSEED
  5
272B
  9
$SURFTAB1
 70
     6
  9
$SURFTAB2
 70
     6
  9
$SURFTYPE
 70
     6
  9
$SURFU
 70
     6
  9
$SURFV
 70
     6
  9
$UCSBASE
  2

  9
$UCSNAME
  2

  9
$UCSORG
 10
0.0
 20
0.0
 30
0.0
  9
$UCSXDIR
 10
1.0
 20
0.0
 30
0.0
  9
$UCSYDIR
 10
0.0
 20
1.0
 30
0.0
  9
$UCSORTHOREF
  2

  9
$UCSORTHOVIEW
 70
     0
  9
$UCSORGTOP
 10
0.0
 20
0.0
 30
0.0
  9
$UCSORGBOTTOM
 10
0.0
 20
0.0
 30
0.0
  9
$UCSORGLEFT
 10
0.0
 20
0.0
 30
0.0
  9
$UCSORGRIGHT
 10
0.0
 20
0.0
 30
0.0
  9
$UCSORGFRONT
 10
0.0
 20
0.0
 30
0.0
  9
$UCSORGBACK
 10
0.0
 20
0.0
 30
0.0
  9
$PUCSBASE
  2

  9
$PUCSNAME
  2

  9
$PUCSORG
 10
0.0
 20
0.0
 30
0.0
  9
$PUCSXDIR
 10
1.0
 20
0.0
 30
0.0
  9
$PUCSYDIR
 10
0.0
 20
1.0
 30
0.0
  9
$PUCSORTHOREF
  2

  9
$PUCSORTHOVIEW
 70
     0
  9
$PUCSORGTOP
 10
0.0
 20
0.0
 30
0.0
  9
$PUCSORGBOTTOM
 10
0.0
 20
0.0
 30
0.0
  9
$PUCSORGLEFT
 10
0.0
 20
0.0
 30
0.0
  9
$PUCSORGRIGHT
 10
0.0
 20
0.0
 30
0.0
  9
$PUCSORGFRONT
 10
0.0
 20
0.0
 30
0.0
  9
$PUCSORGBACK
 10
0.0
 20
0.0
 30
0.0
  9
$USERI1
 70
    -4
  9
$USERI2
 70
     0
  9
$USERI3
 70
     0
  9
$USERI4
 70
     0
  9
$USERI5
 70
     0
  9
$USERR1
 40
0.0
  9
$USERR2
 40
0.0
  9
$USERR3
 40
0.0
  9
$USERR4
 40
0.0
  9
$USERR5
 40
0.0
  9
$WORLDVIEW
 70
     1
  9
$SHADEDGE
 70
     3
  9
$SHADEDIF
 70
    70
  9
$TILEMODE
 70
     1
  9
$MAXACTVP
 70
    16
  9
$PINSBASE
 10
0.0
 20
0.0
 30
0.0
  9
$PLIMCHECK
 70
     0
  9
$PEXTMIN
 10
1.000000000000000E+20
 20
1.000000000000000E+20
 30
1.000000000000000E+20
  9
$PEXTMAX
 10
-1.000000000000000E+20
 20
-1.000000000000000E+20
 30
-1.000000000000000E+20
  9
$PLIMMIN
 10
0.0
 20
0.0
  9
$PLIMMAX
 10
12.0
 20
9.0
  9
$UNITMODE
 70
     0
  9
$VISRETAIN
 70
     0
  9
$PLINEGEN
 70
     1
  9
$PSLTSCALE
 70
     0
  9
$TREEDEPTH
 70
  3020
  9
$CMLSTYLE
  2
STANDARD
  9
$CMLJUST
 70
     0
  9
$CMLSCALE
 40
1.0
  9
$PROXYGRAPHICS
 70
     0
  9
$MEASUREMENT
 70
     0
  9
$CELWEIGHT
370
    -1
  9
$ENDCAPS
280
     0
  9
$JOINSTYLE
280
     0
  9
$LWDISPLAY
290
     0
  9
$INSUNITS
 70
     0
  9
$HYPERLINKBASE
  1

  9
$STYLESHEET
  1

  9
$XEDIT
290
     1
  9
$CEPSNTYPE
380
     0
  9
$PSTYLEMODE
290
     1
  9
$FINGERPRINTGUID
  2
{03622E7A-4CAC-D845-B5E2-7354B99F17DA}
  9
$VERSIONGUID
  2
{BBAB7298-08B6-7F43-BEEF-73444D3069F3}
  9
$EXTNAMES
290
     1
  9
$PSVPSCALE
 40
0.0
  9
$OLESTARTUP
290
     0
  9
$SORTENTS
280
   127
  9
$INDEXCTL
280
     0
  9
$HIDETEXT
280
     0
  9
$XCLIPFRAME
280
     2
  9
$HALOGAP
280
     0
  9
$OBSCOLOR
 70
   257
  9
$OBSLTYPE
280
     0
  9
$INTERSECTIONDISPLAY
280
     0
  9
$INTERSECTIONCOLOR
 70
   257
  9
$DIMASSOC
280
     1
  9
$PROJECTNAME
  1

  9
$CAMERADISPLAY
290
     0
  9
$LENSLENGTH
 40
50.0
  9
$CAMERAHEIGHT
 40
0.0
  9
$STEPSPERSEC
 40
2.0
  9
$STEPSIZE
 40
6.0
  9
$3DDWFPREC
 40
2.0
  9
$PSOLWIDTH
 40
0.25
  9
$PSOLHEIGHT
 40
4.0
  9
$LOFTANG1
 40
1.570796326794896
  9
$LOFTANG2
 40
1.570796326794896
  9
$LOFTMAG1
 40
0.0
  9
$LOFTMAG2
 40
0.0
  9
$LOFTPARAM
 70
     7
  9
$LOFTNORMALS
280
     1
  9
$LATITUDE
 40
37.795
  9
$LONGITUDE
 40
-122.394
  9
$NORTHDIRECTION
 40
0.0
  9
$TIMEZONE
 70
 -8000
  9
$LIGHTGLYPHDISPLAY
280
     1
  9
$TILEMODELIGHTSYNCH
280
     1
  9
$CMATERIAL
347
269D
  9
$SOLIDHIST
280
     0
  9
$SHOWHIST
280
     1
  9
$DWFFRAME
280
     2
  9
$DGNFRAME
280
     0
  9
$REALWORLDSCALE
290
     1
  9
$INTERFERECOLOR
 62
     1
  9
$INTERFEREOBJVS
345
26BF
  9
$INTERFEREVPVS
346
26BC
  9
$CSHADOW
280
     0
  9
$SHADOWPLANELOCATION
 40
0.0
  0
ENDSEC
  0
SECTION
  2
CLASSES
  0
CLASS
  1
IMAGE
  2
AcDbRasterImage
  3
ISM
 90
     2175
 91
        0
280
     0
281
     1
  0
CLASS
  1
DICTIONARYVAR
  2
AcDbDictionaryVar
  3
ObjectDBX Classes
 90
        0
 91
        9
280
     0
281
     0
  0
CLASS
  1
RASTERVARIABLES
  2
AcDbRasterVariables
  3
ISM
 90
        0
 91
        0
280
     0
281
     0
  0
CLASS
  1
IMAGEDEF
  2
AcDbRasterImageDef
  3
ISM
 90
        0
 91
        0
280
     0
281
     0
  0
CLASS
  1
IMAGEDEF_REACTOR
  2
AcDbRasterImageDefReactor
  3
ISM
 90
        1
 91
        0
280
     0
281
     0
  0
CLASS
  1
IDBUFFER
  2
AcDbIdBuffer
  3
ObjectDBX Classes
 90
        0
 91
        0
280
     0
281
     0
  0
CLASS
  1
SPATIAL_FILTER
  2
AcDbSpatialFilter
  3
ObjectDBX Classes
 90
        0
 91
        0
280
     0
281
     0
  0
CLASS
  1
SORTENTSTABLE
  2
AcDbSortentsTable
  3
ObjectDBX Classes
 90
        0
 91
        0
280
     0
281
     0
  0
CLASS
  1
LAYER_INDEX
  2
AcDbLayerIndex
  3
ObjectDBX Classes
 90
        0
 91
        0
280
     0
281
     0
  0
CLASS
  1
SPATIAL_INDEX
  2
AcDbSpatialIndex
  3
ObjectDBX Classes
 90
        0
 91
        0
280
     0
281
     0
  0
CLASS
  1
OBJECT_PTR
  2
CAseDLPNTableRecord
  3
ASE-LPNTableRecord
 90
        1
 91
        0
280
     0
281
     0
  0
CLASS
  1
PLOTSETTINGS
  2
AcDbPlotSettings
  3
ObjectDBX Classes
 90
        0
 91
        0
280
     0
281
     0
  0
CLASS
  1
ACDBDICTIONARYWDFLT
  2
AcDbDictionaryWithDefault
  3
ObjectDBX Classes
 90
        0
 91
        1
280
     0
281
     0
  0
CLASS
  1
WIPEOUT
  2
AcDbWipeout
  3
WipeOut|Product Desc: Object Enabler for WipeOut entity | Company: Autodesk, Inc. | WEB Address: www.autodesk.com
 90
     2175
 91
        0
280
     0
281
     1
  0
CLASS
  1
WIPEOUTVARIABLES
  2
AcDbWipeoutVariables
  3
"WipeOut|Product Desc:     WipeOut Dbx Application|Company:          Autodesk, Inc.|WEB Address:      www.autodesk.com"
 90
        0
 91
        0
280
     0
281
     0
  0
CLASS
  1
RTEXT
  2
RText
  3
RText|AutoCAD Express Tool|expresstools@autodesk.com
 90
     3071
 91
        0
280
     0
281
     1
  0
CLASS
  1
ARCALIGNEDTEXT
  2
AcDbArcAlignedText
  3
ATEXT|AutoCAD Express Tool|expresstools@autodesk.com
 90
        0
 91
        0
280
     0
281
     1
  0
CLASS
  1
MATERIAL
  2
AcDbMaterial
  3
ObjectDBX Classes
 90
     1153
 91
        3
280
     0
281
     0
  0
CLASS
  1
VISUALSTYLE
  2
AcDbVisualStyle
  3
ObjectDBX Classes
 90
     4095
 91
       24
280
     0
281
     0
  0
CLASS
  1
TABLESTYLE
  2
AcDbTableStyle
  3
ObjectDBX Classes
 90
     4095
 91
        1
280
     0
281
     0
  0
CLASS
  1
SCALE
  2
AcDbScale
  3
ObjectDBX Classes
 90
     1153
 91
       17
280
     0
281
     0
  0
CLASS
  1
MLEADERSTYLE
  2
AcDbMLeaderStyle
  3
ACDB_MLEADERSTYLE_CLASS
 90
     4095
 91
        1
280
     0
281
     0
  0
CLASS
  1
ACDBSECTIONVIEWSTYLE
  2
AcDbSectionViewStyle
  3
ObjectDBX Classes
 90
     1025
 91
        1
280
     0
281
     0
  0
CLASS
  1
ACDBDETAILVIEWSTYLE
  2
AcDbDetailViewStyle
  3
ObjectDBX Classes
 90
     1025
 91
        1
280
     0
281
     0
  0
CLASS
  1
ACDBASSOCNETWORK
  2
AcDbAssocNetwork
  3
ObjectDBX Classes
 90
     1025
 91
        2
280
     0
281
     0
  0
CLASS
  1
ACDBASSOCACTION
  2
AcDbAssocAction
  3
ObjectDBX Classes
 90
     1025
 91
        2
280
     0
281
     0
  0
CLASS
  1
AcDbCenterLineActionBody
  2
AcDbCenterLineActionBody
  3
AcDbSmartCenter
 90
     1153
 91
        2
280
     0
281
     0
  0
CLASS
  1
ACDBASSOCEDGEACTIONPARAM
  2
AcDbAssocEdgeActionParam
  3
ObjectDBX Classes
 90
     1025
 91
        4
280
     0
281
     0
  0
CLASS
  1
ACDBASSOCGEOMDEPENDENCY
  2
AcDbAssocGeomDependency
  3
ObjectDBX Classes
 90
     1025
 91
        4
280
     0
281
     0
  0
CLASS
  1
ACDBASSOCDEPENDENCY
  2
AcDbAssocDependency
  3
ObjectDBX Classes
 90
     1025
 91
        2
280
     0
281
     0
  0
CLASS
  1
CELLSTYLEMAP
  2
AcDbCellStyleMap
  3
ObjectDBX Classes
 90
     1152
 91
        1
280
     0
281
     0
  0
ENDSEC
  0
SECTION
  2
TABLES
  0
TABLE
  2
VPORT
  5
7
330
0
100
AcDbSymbolTable
 70
     1
  0
VPORT
  5
13
330
7
100
AcDbSymbolTableRecord
100
AcDbViewportTableRecord
  2
*ACTIVE
 70
     0
 10
0.0
 20
0.0
 11
1.0
 21
1.0
 12
-24558.85984910581
 22
4227.342361468822
 13
0.0
 23
0.0
 14
1.0
 24
1.0
 15
0.0
 25
0.0
 16
0.0
 26
0.0
 36
1.0
 17
0.0
 27
0.0
 37
0.0
 40
53341.68356465414
 41
2.703900709219857
 42
50.0
 43
0.0
 44
0.0
 50
0.0
 51
0.0
 71
     0
 72
   100
 73
     1
 74
     1
 75
     0
 76
     0
 77
     0
 78
     0
281
     0
 65
     1
110
0.0
120
0.0
130
0.0
111
1.0
121
0.0
131
0.0
112
0.0
122
1.0
132
0.0
 79
     0
146
0.0
348
26BB
 60
     3
 61
     5
292
     1
282
     1
141
0.0
142
0.0
 63
   250
421
  3355443
1001
ACAD_NAV_VCDISPLAY
1070
     3
  0
ENDTAB
  0
TABLE
  2
LTYPE
  5
4
330
0
100
AcDbSymbolTable
 70
     2
  0
LTYPE
  5
10
330
4
100
AcDbSymbolTableRecord
100
AcDbLinetypeTableRecord
  2
BYBLOCK
 70
     0
  3

 72
    65
 73
     0
 40
0.0
  0
LTYPE
  5
11
330
4
100
AcDbSymbolTableRecord
100
AcDbLinetypeTableRecord
  2
BYLAYER
 70
     0
  3

 72
    65
 73
     0
 40
0.0
  0
LTYPE
  5
12
330
4
100
AcDbSymbolTableRecord
100
AcDbLinetypeTableRecord
  2
CONTINUOUS
 70
     0
  3
Solid Line
 72
    65
 73
     0
 40
0.0
  0
LTYPE
  5
26FE
330
4
100
AcDbSymbolTableRecord
100
AcDbLinetypeTableRecord
  2
CENTER2
 70
     0
  3
Center (.5x) ___ _ ___ _ ___ _ ___ _ ___ _ ___
 72
    65
 73
     4
 40
1.125
 49
0.75
 74
     0
 49
-0.125
 74
     0
 49
0.125
 74
     0
 49
-0.125
 74
     0
  0
ENDTAB
  0
TABLE
  2
LAYER
  5
2
330
0
100
AcDbSymbolTable
 70
     6
  0
LAYER
  5
B39
102
{ACAD_XDICTIONARY
360
270D
102
}
330
2
100
AcDbSymbolTableRecord
100
AcDbLayerTableRecord
  2
0
 70
     0
 62
     7
  6
CONTINUOUS
370
    -3
390
269B
347
26AD
348
0
  0
LAYER
  5
B3A
102
{ACAD_XDICTIONARY
360
270F
102
}
330
2
100
AcDbSymbolTableRecord
100
AcDbLayerTableRecord
  2
PHOTOPLOT
 70
     0
 62
    81
  6
CONTINUOUS
370
    -3
390
269B
347
26AD
348
0
  0
LAYER
  5
B3B
102
{ACAD_XDICTIONARY
360
2711
102
}
330
2
100
AcDbSymbolTableRecord
100
AcDbLayerTableRecord
  2
PIN_NOTATIONS
 70
     0
 62
   221
  6
CONTINUOUS
370
    -3
390
269B
347
26AD
348
0
  0
LAYER
  5
B3C
102
{ACAD_XDICTIONARY
360
2713
102
}
330
2
100
AcDbSymbolTableRecord
100
AcDbLayerTableRecord
  2
SOLDERMASK_PADS_BTM
 70
     0
 62
    12
  6
CONTINUOUS
370
    -3
390
269B
347
26AD
348
0
  0
LAYER
  5
B3D
102
{ACAD_XDICTIONARY
360
2715
102
}
330
2
100
AcDbSymbolTableRecord
100
AcDbLayerTableRecord
  2
TEXT_BSR
 70
     0
 62
   104
  6
CONTINUOUS
370
    -3
390
269B
347
26AD
348
0
  0
LAYER
  5
B3E
102
{ACAD_XDICTIONARY
360
2717
102
}
330
2
100
AcDbSymbolTableRecord
100
AcDbLayerTableRecord
  2
PKG_OUTLINE
 70
     0
 62
    81
  6
CONTINUOUS
370
    -3
390
269B
347
26AD
348
0
  0
ENDTAB
  0
TABLE
  2
STYLE
  5
3
330
0
100
AcDbSymbolTable
 70
     3
  0
STYLE
  5
B3F
330
3
100
AcDbSymbolTableRecord
100
AcDbTextStyleTableRecord
  2
STANDARD
 70
     0
 40
0.0
 41
1.0
 50
0.0
 71
     0
 42
0.0
  3
txt
  4

  0
STYLE
  5
B40
330
3
100
AcDbSymbolTableRecord
100
AcDbTextStyleTableRecord
  2
ARIAL
 70
     0
 40
0.0
 41
1.0
 50
0.0
 71
     0
 42
0.0
  3
arial.ttf
  4

1001
ACAD
1000
Arial
1071
       34
  0
STYLE
  5
B41
330
3
100
AcDbSymbolTableRecord
100
AcDbTextStyleTableRecord
  2
VF_STD
 70
     0
 40
0.0
 41
1.0
 50
0.0
 71
     0
 42
0.0
  3
txt
  4

  0
ENDTAB
  0
TABLE
  2
VIEW
  5
5
330
0
100
AcDbSymbolTable
 70
     0
  0
ENDTAB
  0
TABLE
  2
UCS
  5
6
330
0
100
AcDbSymbolTable
 70
     0
  0
ENDTAB
  0
TABLE
  2
APPID
  5
8
330
0
100
AcDbSymbolTable
 70
     3
  0
APPID
  5
14
330
8
100
AcDbSymbolTableRecord
100
AcDbRegAppTableRecord
  2
ACAD
 70
     0
  0
APPID
  5
271B
330
8
100
AcDbSymbolTableRecord
100
AcDbRegAppTableRecord
  2
DCO15
 70
     0
  0
APPID
  5
2727
330
8
100
AcDbSymbolTableRecord
100
AcDbRegAppTableRecord
  2
ACAD_NAV_VCDISPLAY
 70
     0
  0
ENDTAB
  0
TABLE
  2
DIMSTYLE
  5
9
330
0
100
AcDbSymbolTable
 70
     1
100
AcDbDimStyleTable
 71
     0
  0
DIMSTYLE
105
15
330
9
100
AcDbSymbolTableRecord
100
AcDbDimStyleTableRecord
  2
STANDARD
 70
     0
340
17
  0
ENDTAB
  0
TABLE
  2
BLOCK_RECORD
  5
1
330
0
100
AcDbSymbolTable
 70
     2
  0
BLOCK_RECORD
  5
A
102
{ACAD_XDICTIONARY
360
26EF
102
}
330
1
100
AcDbSymbolTableRecord
100
AcDbBlockTableRecord
  2
*MODEL_SPACE
340
26EB
 70
     0
280
     1
281
     0
  0
BLOCK_RECORD
  5
B
330
1
100
AcDbSymbolTableRecord
100
AcDbBlockTableRecord
  2
*PAPER_SPACE
340
26EC
 70
     0
280
     1
281
     0
  0
BLOCK_RECORD
  5
26FA
330
1
100
AcDbSymbolTableRecord
100
AcDbBlockTableRecord
  2
*U0
340
0
102
{BLKREFS
331
26FD
102
}
 70
     0
280
     1
281
     0
  0
BLOCK_RECORD
  5
2707
330
1
100
AcDbSymbolTableRecord
100
AcDbBlockTableRecord
  2
*U1
340
0
102
{BLKREFS
331
270A
102
}
 70
     0
280
     1
281
     0
  0
ENDTAB
  0
ENDSEC
  0
SECTION
  2
BLOCKS
  0
BLOCK
  5
C
330
A
100
AcDbEntity
  8
0
100
AcDbBlockBegin
  2
*MODEL_SPACE
 70
     0
 10
0.0
 20
0.0
 30
0.0
  3
*MODEL_SPACE
  1

  0
ENDBLK
  5
D
330
A
100
AcDbEntity
  8
0
100
AcDbBlockEnd
  0
BLOCK
  5
E
330
B
100
AcDbEntity
 67
     1
  8
0
100
AcDbBlockBegin
  2
*PAPER_SPACE
 70
     0
 10
0.0
 20
0.0
 30
0.0
  3
*PAPER_SPACE
  1

  0
ENDBLK
  5
F
330
B
100
AcDbEntity
 67
     1
  8
0
100
AcDbBlockEnd
  0
BLOCK
  5
26FB
330
26FA
100
AcDbEntity
  8
0
100
AcDbBlockBegin
  2
*U0
 70
     1
 10
0.0
 20
0.0
 30
0.0
  3
*U0
  1

  0
LINE
  5
2700
330
26FA
100
AcDbEntity
  8
0
  6
CENTER2
 62
     0
440
 16777216
100
AcDbLine
 10
0.0
 20
-18750.12
 30
0.0
 11
0.0
 21
18750.12
 31
0.0
  0
ENDBLK
  5
26FC
330
26FA
100
AcDbEntity
  8
0
100
AcDbBlockEnd
  0
BLOCK
  5
2708
330
2707
100
AcDbEntity
  8
0
100
AcDbBlockBegin
  2
*U1
 70
     1
 10
0.0
 20
0.0
 30
0.0
  3
*U1
  1

  0
LINE
  5
270C
330
2707
100
AcDbEntity
  8
0
  6
CENTER2
 62
     0
440
 16777216
100
AcDbLine
 10
13739.373
 20
0.0
 30
0.0
 11
-13739.373
 21
0.0
 31
0.0
  0
ENDBLK
  5
2709
330
2707
100
AcDbEntity
  8
0
100
AcDbBlockEnd
  0
ENDSEC
  0
SECTION
  2
ENTITIES
  0
SOLID
  5
6F
330
A
100
AcDbEntity
  8
SOLDERMASK_PADS_BTM
100
AcDbTrace
 10
-2653.0
 20
3519.5
 30
0.0
 11
-2283.0
 21
3519.5
 31
0.0
 12
-2653.0
 22
3819.5
 32
0.0
 13
-2283.0
 23
3819.5
 33
0.0
  0
SOLID
  5
70
330
A
100
AcDbEntity
  8
SOLDERMASK_PADS_BTM
100
AcDbTrace
 10
-2653.0
 20
2969.5
 30
0.0
 11
-2283.0
 21
2969.5
 31
0.0
 12
-2653.0
 22
3269.5
 32
0.0
 13
-2283.0
 23
3269.5
 33
0.0
  0
SOLID
  5
71
330
A
100
AcDbEntity
  8
SOLDERMASK_PADS_BTM
100
AcDbTrace
 10
-2653.0
 20
4694.5
 30
0.0
 11
-2283.0
 21
4694.5
 31
0.0
 12
-2653.0
 22
4994.5
 32
0.0
 13
-2283.0
 23
4994.5
 33
0.0
  0
SOLID
  5
72
330
A
100
AcDbEntity
  8
SOLDERMASK_PADS_BTM
100
AcDbTrace
 10
-2653.0
 20
4144.499999999999
 30
0.0
 11
-2283.0
 21
4144.499999999999
 31
0.0
 12
-2653.0
 22
4444.5
 32
0.0
 13
-2283.0
 23
4444.5
 33
0.0
  0
SOLID
  5
73
330
A
100
AcDbEntity
  8
SOLDERMASK_PADS_BTM
100
AcDbTrace
 10
-1983.0
 20
-3530.5
 30
0.0
 11
-1613.0
 21
-3530.5
 31
0.0
 12
-1983.0
 22
-3230.5
 32
0.0
 13
-1613.0
 23
-3230.5
 33
0.0
  0
SOLID
  5
74
330
A
100
AcDbEntity
  8
SOLDERMASK_PADS_BTM
100
AcDbTrace
 10
-1983.0
 20
-4080.499999999999
 30
0.0
 11
-1613.0
 21
-4080.499999999999
 31
0.0
 12
-1983.0
 22
-3780.5
 32
0.0
 13
-1613.0
 23
-3780.5
 33
0.0
  0
SOLID
  5
75
330
A
100
AcDbEntity
  8
SOLDERMASK_PADS_BTM
100
AcDbTrace
 10
-1983.0
 20
-2355.5
 30
0.0
 11
-1613.0
 21
-2355.5
 31
0.0
 12
-1983.0
 22
-2055.5
 32
0.0
 13
-1613.0
 23
-2055.5
 33
0.0
  0
SOLID
  5
76
330
A
100
AcDbEntity
  8
SOLDERMASK_PADS_BTM
100
AcDbTrace
 10
-1983.0
 20
-2905.5
 30
0.0
 11
-1613.0
 21
-2905.5
 31
0.0
 12
-1983.0
 22
-2605.5
 32
0.0
 13
-1613.0
 23
-2605.5
 33
0.0
  0
SOLID
  5
77
330
A
100
AcDbEntity
  8
SOLDERMASK_PADS_BTM
100
AcDbTrace
 10
-1983.0
 20
-1180.5
 30
0.0
 11
-1613.0
 21
-1180.5
 31
0.0
 12
-1983.0
 22
-880.4999999999999
 32
0.0
 13
-1613.0
 23
-880.4999999999999
 33
0.0
  0
SOLID
  5
78
330
A
100
AcDbEntity
  8
SOLDERMASK_PADS_BTM
100
AcDbTrace
 10
-1983.0
 20
-1730.5
 30
0.0
 11
-1613.0
 21
-1730.5
 31
0.0
 12
-1983.0
 22
-1430.5
 32
0.0
 13
-1613.0
 23
-1430.5
 33
0.0
  0
SOLID
  5
79
330
A
100
AcDbEntity
  8
SOLDERMASK_PADS_BTM
100
AcDbTrace
 10
-1983.0
 20
-5.5
 30
0.0
 11
-1613.0
 21
-5.5
 31
0.0
 12
-1983.0
 22
294.5
 32
0.0
 13
-1613.0
 23
294.5
 33
0.0
  0
SOLID
  5
7A
330
A
100
AcDbEntity
  8
SOLDERMASK_PADS_BTM
100
AcDbTrace
 10
-1983.0
 20
-555.4999999999999
 30
0.0
 11
-1613.0
 21
-555.4999999999999
 31
0.0
 12
-1983.0
 22
-255.5
 32
0.0
 13
-1613.0
 23
-255.5
 33
0.0
  0
SOLID
  5
7B
330
A
100
AcDbEntity
  8
SOLDERMASK_PADS_BTM
100
AcDbTrace
 10
-1983.0
 20
3519.5
 30
0.0
 11
-1613.0
 21
3519.5
 31
0.0
 12
-1983.0
 22
3819.5
 32
0.0
 13
-1613.0
 23
3819.5
 33
0.0
  0
SOLID
  5
7C
330
A
100
AcDbEntity
  8
SOLDERMASK_PADS_BTM
100
AcDbTrace
 10
-1983.0
 20
2969.5
 30
0.0
 11
-1613.0
 21
2969.5
 31
0.0
 12
-1983.0
 22
3269.5
 32
0.0
 13
-1613.0
 23
3269.5
 33
0.0
  0
SOLID
  5
7D
330
A
100
AcDbEntity
  8
SOLDERMASK_PADS_BTM
100
AcDbTrace
 10
-1983.0
 20
1169.5
 30
0.0
 11
-1613.0
 21
1169.5
 31
0.0
 12
-1983.0
 22
1469.5
 32
0.0
 13
-1613.0
 23
1469.5
 33
0.0
  0
SOLID
  5
7E
330
A
100
AcDbEntity
  8
SOLDERMASK_PADS_BTM
100
AcDbTrace
 10
-1983.0
 20
619.5
 30
0.0
 11
-1613.0
 21
619.5
 31
0.0
 12
-1983.0
 22
919.5
 32
0.0
 13
-1613.0
 23
919.5
 33
0.0
  0
SOLID
  5
7F
330
A
100
AcDbEntity
  8
SOLDERMASK_PADS_BTM
100
AcDbTrace
 10
3197.0
 20
2344.5
 30
0.0
 11
3567.0
 21
2344.5
 31
0.0
 12
3197.0
 22
2644.5
 32
0.0
 13
3567.0
 23
2644.5
 33
0.0
  0
SOLID
  5
80
330
A
100
AcDbEntity
  8
SOLDERMASK_PADS_BTM
100
AcDbTrace
 10
3197.0
 20
1794.5
 30
0.0
 11
3567.0
 21
1794.5
 31
0.0
 12
3197.0
 22
2094.5
 32
0.0
 13
3567.0
 23
2094.5
 33
0.0
  0
SOLID
  5
81
330
A
100
AcDbEntity
  8
SOLDERMASK_PADS_BTM
100
AcDbTrace
 10
-1983.0
 20
4694.5
 30
0.0
 11
-1613.0
 21
4694.5
 31
0.0
 12
-1983.0
 22
4994.5
 32
0.0
 13
-1613.0
 23
4994.5
 33
0.0
  0
SOLID
  5
82
330
A
100
AcDbEntity
  8
SOLDERMASK_PADS_BTM
100
AcDbTrace
 10
-1983.0
 20
4144.499999999999
 30
0.0
 11
-1613.0
 21
4144.499999999999
 31
0.0
 12
-1983.0
 22
4444.5
 32
0.0
 13
-1613.0
 23
4444.5
 33
0.0
  0
SOLID
  5
83
330
A
100
AcDbEntity
  8
SOLDERMASK_PADS_BTM
100
AcDbTrace
 10
-1983.0
 20
2344.5
 30
0.0
 11
-1613.0
 21
2344.5
 31
0.0
 12
-1983.0
 22
2644.5
 32
0.0
 13
-1613.0
 23
2644.5
 33
0.0
  0
SOLID
  5
84
330
A
100
AcDbEntity
  8
SOLDERMASK_PADS_BTM
100
AcDbTrace
 10
-1983.0
 20
1794.5
 30
0.0
 11
-1613.0
 21
1794.5
 31
0.0
 12
-1983.0
 22
2094.5
 32
0.0
 13
-1613.0
 23
2094.5
 33
0.0
  0
SOLID
  5
85
330
A
100
AcDbEntity
  8
SOLDERMASK_PADS_BTM
100
AcDbTrace
 10
3867.0
 20
4694.5
 30
0.0
 11
4237.0
 21
4694.5
 31
0.0
 12
3867.0
 22
4994.5
 32
0.0
 13
4237.0
 23
4994.5
 33
0.0
  0
SOLID
  5
86
330
A
100
AcDbEntity
  8
SOLDERMASK_PADS_BTM
100
AcDbTrace
 10
3867.0
 20
4144.499999999999
 30
0.0
 11
4237.0
 21
4144.499999999999
 31
0.0
 12
3867.0
 22
4444.5
 32
0.0
 13
4237.0
 23
4444.5
 33
0.0
  0
SOLID
  5
87
330
A
100
AcDbEntity
  8
SOLDERMASK_PADS_BTM
100
AcDbTrace
 10
-1313.0
 20
-3530.5
 30
0.0
 11
-943.0
 21
-3530.5
 31
0.0
 12
-1313.0
 22
-3230.5
 32
0.0
 13
-943.0
 23
-3230.5
 33
0.0
  0
SOLID
  5
88
330
A
100
AcDbEntity
  8
SOLDERMASK_PADS_BTM
100
AcDbTrace
 10
-1313.0
 20
-4080.499999999999
 30
0.0
 11
-943.0
 21
-4080.499999999999
 31
0.0
 12
-1313.0
 22
-3780.5
 32
0.0
 13
-943.0
 23
-3780.5
 33
0.0
  0
SOLID
  5
89
330
A
100
AcDbEntity
  8
SOLDERMASK_PADS_BTM
100
AcDbTrace
 10
5207.0
 20
4694.5
 30
0.0
 11
5577.0
 21
4694.5
 31
0.0
 12
5207.0
 22
4994.5
 32
0.0
 13
5577.0
 23
4994.5
 33
0.0
  0
SOLID
  5
8A
330
A
100
AcDbEntity
  8
SOLDERMASK_PADS_BTM
100
AcDbTrace
 10
5207.0
 20
4144.499999999999
 30
0.0
 11
5577.0
 21
4144.499999999999
 31
0.0
 12
5207.0
 22
4444.5
 32
0.0
 13
5577.0
 23
4444.5
 33
0.0
  0
SOLID
  5
8B
330
A
100
AcDbEntity
  8
SOLDERMASK_PADS_BTM
100
AcDbTrace
 10
-1313.0
 20
-2355.5
 30
0.0
 11
-943.0
 21
-2355.5
 31
0.0
 12
-1313.0
 22
-2055.5
 32
0.0
 13
-943.0
 23
-2055.5
 33
0.0
  0
SOLID
  5
8C
330
A
100
AcDbEntity
  8
SOLDERMASK_PADS_BTM
100
AcDbTrace
 10
-1313.0
 20
-2905.5
 30
0.0
 11
-943.0
 21
-2905.5
 31
0.0
 12
-1313.0
 22
-2605.5
 32
0.0
 13
-943.0
 23
-2605.5
 33
0.0
  0
SOLID
  5
8D
330
A
100
AcDbEntity
  8
SOLDERMASK_PADS_BTM
100
AcDbTrace
 10
3867.0
 20
2344.5
 30
0.0
 11
4237.0
 21
2344.5
 31
0.0
 12
3867.0
 22
2644.5
 32
0.0
 13
4237.0
 23
2644.5
 33
0.0
  0
SOLID
  5
8E
330
A
100
AcDbEntity
  8
SOLDERMASK_PADS_BTM
100
AcDbTrace
 10
3867.0
 20
1794.5
 30
0.0
 11
4237.0
 21
1794.5
 31
0.0
 12
3867.0
 22
2094.5
 32
0.0
 13
4237.0
 23
2094.5
 33
0.0
  0
SOLID
  5
8F
330
A
100
AcDbEntity
  8
SOLDERMASK_PADS_BTM
100
AcDbTrace
 10
6547.0
 20
1169.5
 30
0.0
 11
6917.0
 21
1169.5
 31
0.0
 12
6547.0
 22
1469.5
 32
0.0
 13
6917.0
 23
1469.5
 33
0.0
  0
SOLID
  5
90
330
A
100
AcDbEntity
  8
SOLDERMASK_PADS_BTM
100
AcDbTrace
 10
6547.0
 20
619.5
 30
0.0
 11
6917.0
 21
619.5
 31
0.0
 12
6547.0
 22
919.5
 32
0.0
 13
6917.0
 23
919.5
 33
0.0
  0
SOLID
  5
91
330
A
100
AcDbEntity
  8
SOLDERMASK_PADS_BTM
100
AcDbTrace
 10
-1313.0
 20
-1180.5
 30
0.0
 11
-943.0
 21
-1180.5
 31
0.0
 12
-1313.0
 22
-880.4999999999999
 32
0.0
 13
-943.0
 23
-880.4999999999999
 33
0.0
  0
SOLID
  5
92
330
A
100
AcDbEntity
  8
SOLDERMASK_PADS_BTM
100
AcDbTrace
 10
-1313.0
 20
-1730.5
 30
0.0
 11
-943.0
 21
-1730.5
 31
0.0
 12
-1313.0
 22
-1430.5
 32
0.0
 13
-943.0
 23
-1430.5
 33
0.0
  0
SOLID
  5
93
330
A
100
AcDbEntity
  8
SOLDERMASK_PADS_BTM
100
AcDbTrace
 10
5207.0
 20
2344.5
 30
0.0
 11
5577.0
 21
2344.5
 31
0.0
 12
5207.0
 22
2644.5
 32
0.0
 13
5577.0
 23
2644.5
 33
0.0
  0
SOLID
  5
94
330
A
100
AcDbEntity
  8
SOLDERMASK_PADS_BTM
100
AcDbTrace
 10
5207.0
 20
1794.5
 30
0.0
 11
5577.0
 21
1794.5
 31
0.0
 12
5207.0
 22
2094.5
 32
0.0
 13
5577.0
 23
2094.5
 33
0.0
  0
SOLID
  5
95
330
A
100
AcDbEntity
  8
SOLDERMASK_PADS_BTM
100
AcDbTrace
 10
7217.0
 20
3519.5
 30
0.0
 11
7587.0
 21
3519.5
 31
0.0
 12
7217.0
 22
3819.5
 32
0.0
 13
7587.0
 23
3819.5
 33
0.0
  0
SOLID
  5
96
330
A
100
AcDbEntity
  8
SOLDERMASK_PADS_BTM
100
AcDbTrace
 10
7217.0
 20
2969.5
 30
0.0
 11
7587.0
 21
2969.5
 31
0.0
 12
7217.0
 22
3269.5
 32
0.0
 13
7587.0
 23
3269.5
 33
0.0
  0
SOLID
  5
97
330
A
100
AcDbEntity
  8
SOLDERMASK_PADS_BTM
100
AcDbTrace
 10
-1313.0
 20
-5.5
 30
0.0
 11
-943.0
 21
-5.5
 31
0.0
 12
-1313.0
 22
294.5
 32
0.0
 13
-943.0
 23
294.5
 33
0.0
  0
SOLID
  5
98
330
A
100
AcDbEntity
  8
SOLDERMASK_PADS_BTM
100
AcDbTrace
 10
-1313.0
 20
-555.4999999999999
 30
0.0
 11
-943.0
 21
-555.4999999999999
 31
0.0
 12
-1313.0
 22
-255.5
 32
0.0
 13
-943.0
 23
-255.5
 33
0.0
  0
SOLID
  5
99
330
A
100
AcDbEntity
  8
SOLDERMASK_PADS_BTM
100
AcDbTrace
 10
6547.0
 20
-1180.5
 30
0.0
 11
6917.0
 21
-1180.5
 31
0.0
 12
6547.0
 22
-880.4999999999999
 32
0.0
 13
6917.0
 23
-880.4999999999999
 33
0.0
  0
SOLID
  5
9A
330
A
100
AcDbEntity
  8
SOLDERMASK_PADS_BTM
100
AcDbTrace
 10
6547.0
 20
-1730.5
 30
0.0
 11
6917.0
 21
-1730.5
 31
0.0
 12
6547.0
 22
-1430.5
 32
0.0
 13
6917.0
 23
-1430.5
 33
0.0
  0
SOLID
  5
9B
330
A
100
AcDbEntity
  8
SOLDERMASK_PADS_BTM
100
AcDbTrace
 10
8557.0
 20
-3530.5
 30
0.0
 11
8927.0
 21
-3530.5
 31
0.0
 12
8557.0
 22
-3230.5
 32
0.0
 13
8927.0
 23
-3230.5
 33
0.0
  0
SOLID
  5
9C
330
A
100
AcDbEntity
  8
SOLDERMASK_PADS_BTM
100
AcDbTrace
 10
8557.0
 20
-4080.499999999999
 30
0.0
 11
8927.0
 21
-4080.499999999999
 31
0.0
 12
8557.0
 22
-3780.5
 32
0.0
 13
8927.0
 23
-3780.5
 33
0.0
  0
SOLID
  5
9D
330
A
100
AcDbEntity
  8
SOLDERMASK_PADS_BTM
100
AcDbTrace
 10
-1313.0
 20
1169.5
 30
0.0
 11
-943.0
 21
1169.5
 31
0.0
 12
-1313.0
 22
1469.5
 32
0.0
 13
-943.0
 23
1469.5
 33
0.0
  0
SOLID
  5
9E
330
A
100
AcDbEntity
  8
SOLDERMASK_PADS_BTM
100
AcDbTrace
 10
-1313.0
 20
619.5
 30
0.0
 11
-943.0
 21
619.5
 31
0.0
 12
-1313.0
 22
919.5
 32
0.0
 13
-943.0
 23
919.5
 33
0.0
  0
SOLID
  5
9F
330
A
100
AcDbEntity
  8
SOLDERMASK_PADS_BTM
100
AcDbTrace
 10
7217.0
 20
1169.5
 30
0.0
 11
7587.0
 21
1169.5
 31
0.0
 12
7217.0
 22
1469.5
 32
0.0
 13
7587.0
 23
1469.5
 33
0.0
  0
SOLID
  5
A0
330
A
100
AcDbEntity
  8
SOLDERMASK_PADS_BTM
100
AcDbTrace
 10
7217.0
 20
619.5
 30
0.0
 11
7587.0
 21
619.5
 31
0.0
 12
7217.0
 22
919.5
 32
0.0
 13
7587.0
 23
919.5
 33
0.0
  0
SOLID
  5
A1
330
A
100
AcDbEntity
  8
SOLDERMASK_PADS_BTM
100
AcDbTrace
 10
-1313.0
 20
2344.5
 30
0.0
 11
-943.0
 21
2344.5
 31
0.0
 12
-1313.0
 22
2644.5
 32
0.0
 13
-943.0
 23
2644.5
 33
0.0
  0
SOLID
  5
A2
330
A
100
AcDbEntity
  8
SOLDERMASK_PADS_BTM
100
AcDbTrace
 10
-1313.0
 20
1794.5
 30
0.0
 11
-943.0
 21
1794.5
 31
0.0
 12
-1313.0
 22
2094.5
 32
0.0
 13
-943.0
 23
2094.5
 33
0.0
  0
SOLID
  5
A3
330
A
100
AcDbEntity
  8
SOLDERMASK_PADS_BTM
100
AcDbTrace
 10
7887.0
 20
3519.5
 30
0.0
 11
8257.0
 21
3519.5
 31
0.0
 12
7887.0
 22
3819.5
 32
0.0
 13
8257.0
 23
3819.5
 33
0.0
  0
SOLID
  5
A4
330
A
100
AcDbEntity
  8
SOLDERMASK_PADS_BTM
100
AcDbTrace
 10
7887.0
 20
2969.5
 30
0.0
 11
8257.0
 21
2969.5
 31
0.0
 12
7887.0
 22
3269.5
 32
0.0
 13
8257.0
 23
3269.5
 33
0.0
  0
SOLID
  5
A5
330
A
100
AcDbEntity
  8
SOLDERMASK_PADS_BTM
100
AcDbTrace
 10
-1313.0
 20
3519.5
 30
0.0
 11
-943.0
 21
3519.5
 31
0.0
 12
-1313.0
 22
3819.5
 32
0.0
 13
-943.0
 23
3819.5
 33
0.0
  0
SOLID
  5
A6
330
A
100
AcDbEntity
  8
SOLDERMASK_PADS_BTM
100
AcDbTrace
 10
-1313.0
 20
2969.5
 30
0.0
 11
-943.0
 21
2969.5
 31
0.0
 12
-1313.0
 22
3269.5
 32
0.0
 13
-943.0
 23
3269.5
 33
0.0
  0
SOLID
  5
A7
330
A
100
AcDbEntity
  8
SOLDERMASK_PADS_BTM
100
AcDbTrace
 10
1857.0
 20
-2355.5
 30
0.0
 11
2227.0
 21
-2355.5
 31
0.0
 12
1857.0
 22
-2055.5
 32
0.0
 13
2227.0
 23
-2055.5
 33
0.0
  0
SOLID
  5
A8
330
A
100
AcDbEntity
  8
SOLDERMASK_PADS_BTM
100
AcDbTrace
 10
1857.0
 20
-2905.5
 30
0.0
 11
2227.0
 21
-2905.5
 31
0.0
 12
1857.0
 22
-2605.5
 32
0.0
 13
2227.0
 23
-2605.5
 33
0.0
  0
SOLID
  5
A9
330
A
100
AcDbEntity
  8
SOLDERMASK_PADS_BTM
100
AcDbTrace
 10
-1313.0
 20
4694.5
 30
0.0
 11
-943.0
 21
4694.5
 31
0.0
 12
-1313.0
 22
4994.5
 32
0.0
 13
-943.0
 23
4994.5
 33
0.0
  0
SOLID
  5
AA
330
A
100
AcDbEntity
  8
SOLDERMASK_PADS_BTM
100
AcDbTrace
 10
-1313.0
 20
4144.499999999999
 30
0.0
 11
-943.0
 21
4144.499999999999
 31
0.0
 12
-1313.0
 22
4444.5
 32
0.0
 13
-943.0
 23
4444.5
 33
0.0
  0
SOLID
  5
AB
330
A
100
AcDbEntity
  8
SOLDERMASK_PADS_BTM
100
AcDbTrace
 10
1857.0
 20
-1180.5
 30
0.0
 11
2227.0
 21
-1180.5
 31
0.0
 12
1857.0
 22
-880.4999999999999
 32
0.0
 13
2227.0
 23
-880.4999999999999
 33
0.0
  0
SOLID
  5
AC
330
A
100
AcDbEntity
  8
SOLDERMASK_PADS_BTM
100
AcDbTrace
 10
1857.0
 20
-1730.5
 30
0.0
 11
2227.0
 21
-1730.5
 31
0.0
 12
1857.0
 22
-1430.5
 32
0.0
 13
2227.0
 23
-1430.5
 33
0.0
  0
SOLID
  5
AD
330
A
100
AcDbEntity
  8
SOLDERMASK_PADS_BTM
100
AcDbTrace
 10
1857.0
 20
-5.5
 30
0.0
 11
2227.0
 21
-5.5
 31
0.0
 12
1857.0
 22
294.5
 32
0.0
 13
2227.0
 23
294.5
 33
0.0
  0
SOLID
  5
AE
330
A
100
AcDbEntity
  8
SOLDERMASK_PADS_BTM
100
AcDbTrace
 10
1857.0
 20
-555.4999999999999
 30
0.0
 11
2227.0
 21
-555.4999999999999
 31
0.0
 12
1857.0
 22
-255.5
 32
0.0
 13
2227.0
 23
-255.5
 33
0.0
  0
SOLID
  5
AF
330
A
100
AcDbEntity
  8
SOLDERMASK_PADS_BTM
100
AcDbTrace
 10
1857.0
 20
1169.5
 30
0.0
 11
2227.0
 21
1169.5
 31
0.0
 12
1857.0
 22
1469.5
 32
0.0
 13
2227.0
 23
1469.5
 33
0.0
  0
SOLID
  5
B0
330
A
100
AcDbEntity
  8
SOLDERMASK_PADS_BTM
100
AcDbTrace
 10
1857.0
 20
619.5
 30
0.0
 11
2227.0
 21
619.5
 31
0.0
 12
1857.0
 22
919.5
 32
0.0
 13
2227.0
 23
919.5
 33
0.0
  0
SOLID
  5
B1
330
A
100
AcDbEntity
  8
SOLDERMASK_PADS_BTM
100
AcDbTrace
 10
1857.0
 20
2344.5
 30
0.0
 11
2227.0
 21
2344.5
 31
0.0
 12
1857.0
 22
2644.5
 32
0.0
 13
2227.0
 23
2644.5
 33
0.0
  0
SOLID
  5
B2
330
A
100
AcDbEntity
  8
SOLDERMASK_PADS_BTM
100
AcDbTrace
 10
1857.0
 20
1794.5
 30
0.0
 11
2227.0
 21
1794.5
 31
0.0
 12
1857.0
 22
2094.5
 32
0.0
 13
2227.0
 23
2094.5
 33
0.0
  0
SOLID
  5
B3
330
A
100
AcDbEntity
  8
SOLDERMASK_PADS_BTM
100
AcDbTrace
 10
1857.0
 20
3519.5
 30
0.0
 11
2227.0
 21
3519.5
 31
0.0
 12
1857.0
 22
3819.5
 32
0.0
 13
2227.0
 23
3819.5
 33
0.0
  0
SOLID
  5
B4
330
A
100
AcDbEntity
  8
SOLDERMASK_PADS_BTM
100
AcDbTrace
 10
1857.0
 20
2969.5
 30
0.0
 11
2227.0
 21
2969.5
 31
0.0
 12
1857.0
 22
3269.5
 32
0.0
 13
2227.0
 23
3269.5
 33
0.0
  0
SOLID
  5
B5
330
A
100
AcDbEntity
  8
SOLDERMASK_PADS_BTM
100
AcDbTrace
 10
1857.0
 20
4694.5
 30
0.0
 11
2227.0
 21
4694.5
 31
0.0
 12
1857.0
 22
4994.5
 32
0.0
 13
2227.0
 23
4994.5
 33
0.0
  0
SOLID
  5
B6
330
A
100
AcDbEntity
  8
SOLDERMASK_PADS_BTM
100
AcDbTrace
 10
1857.0
 20
4144.499999999999
 30
0.0
 11
2227.0
 21
4144.499999999999
 31
0.0
 12
1857.0
 22
4444.5
 32
0.0
 13
2227.0
 23
4444.5
 33
0.0
  0
SOLID
  5
B7
330
A
100
AcDbEntity
  8
SOLDERMASK_PADS_BTM
100
AcDbTrace
 10
2527.0
 20
-1180.5
 30
0.0
 11
2897.0
 21
-1180.5
 31
0.0
 12
2527.0
 22
-880.4999999999999
 32
0.0
 13
2897.0
 23
-880.4999999999999
 33
0.0
  0
SOLID
  5
B8
330
A
100
AcDbEntity
  8
SOLDERMASK_PADS_BTM
100
AcDbTrace
 10
2527.0
 20
-1730.5
 30
0.0
 11
2897.0
 21
-1730.5
 31
0.0
 12
2527.0
 22
-1430.5
 32
0.0
 13
2897.0
 23
-1430.5
 33
0.0
  0
SOLID
  5
B9
330
A
100
AcDbEntity
  8
SOLDERMASK_PADS_BTM
100
AcDbTrace
 10
2527.0
 20
-2355.5
 30
0.0
 11
2897.0
 21
-2355.5
 31
0.0
 12
2527.0
 22
-2055.5
 32
0.0
 13
2897.0
 23
-2055.5
 33
0.0
  0
SOLID
  5
BA
330
A
100
AcDbEntity
  8
SOLDERMASK_PADS_BTM
100
AcDbTrace
 10
2527.0
 20
-2905.5
 30
0.0
 11
2897.0
 21
-2905.5
 31
0.0
 12
2527.0
 22
-2605.5
 32
0.0
 13
2897.0
 23
-2605.5
 33
0.0
  0
SOLID
  5
BB
330
A
100
AcDbEntity
  8
SOLDERMASK_PADS_BTM
100
AcDbTrace
 10
2527.0
 20
-5.5
 30
0.0
 11
2897.0
 21
-5.5
 31
0.0
 12
2527.0
 22
294.5
 32
0.0
 13
2897.0
 23
294.5
 33
0.0
  0
SOLID
  5
BC
330
A
100
AcDbEntity
  8
SOLDERMASK_PADS_BTM
100
AcDbTrace
 10
2527.0
 20
-555.4999999999999
 30
0.0
 11
2897.0
 21
-555.4999999999999
 31
0.0
 12
2527.0
 22
-255.5
 32
0.0
 13
2897.0
 23
-255.5
 33
0.0
  0
SOLID
  5
BD
330
A
100
AcDbEntity
  8
SOLDERMASK_PADS_BTM
100
AcDbTrace
 10
2527.0
 20
1169.5
 30
0.0
 11
2897.0
 21
1169.5
 31
0.0
 12
2527.0
 22
1469.5
 32
0.0
 13
2897.0
 23
1469.5
 33
0.0
  0
SOLID
  5
BE
330
A
100
AcDbEntity
  8
SOLDERMASK_PADS_BTM
100
AcDbTrace
 10
2527.0
 20
619.5
 30
0.0
 11
2897.0
 21
619.5
 31
0.0
 12
2527.0
 22
919.5
 32
0.0
 13
2897.0
 23
919.5
 33
0.0
  0
SOLID
  5
BF
330
A
100
AcDbEntity
  8
SOLDERMASK_PADS_BTM
100
AcDbTrace
 10
2527.0
 20
2344.5
 30
0.0
 11
2897.0
 21
2344.5
 31
0.0
 12
2527.0
 22
2644.5
 32
0.0
 13
2897.0
 23
2644.5
 33
0.0
  0
SOLID
  5
C0
330
A
100
AcDbEntity
  8
SOLDERMASK_PADS_BTM
100
AcDbTrace
 10
2527.0
 20
1794.5
 30
0.0
 11
2897.0
 21
1794.5
 31
0.0
 12
2527.0
 22
2094.5
 32
0.0
 13
2897.0
 23
2094.5
 33
0.0
  0
SOLID
  5
C1
330
A
100
AcDbEntity
  8
SOLDERMASK_PADS_BTM
100
AcDbTrace
 10
2527.0
 20
3519.5
 30
0.0
 11
2897.0
 21
3519.5
 31
0.0
 12
2527.0
 22
3819.5
 32
0.0
 13
2897.0
 23
3819.5
 33
0.0
  0
SOLID
  5
C2
330
A
100
AcDbEntity
  8
SOLDERMASK_PADS_BTM
100
AcDbTrace
 10
2527.0
 20
2969.5
 30
0.0
 11
2897.0
 21
2969.5
 31
0.0
 12
2527.0
 22
3269.5
 32
0.0
 13
2897.0
 23
3269.5
 33
0.0
  0
SOLID
  5
C3
330
A
100
AcDbEntity
  8
SOLDERMASK_PADS_BTM
100
AcDbTrace
 10
2527.0
 20
4694.5
 30
0.0
 11
2897.0
 21
4694.5
 31
0.0
 12
2527.0
 22
4994.5
 32
0.0
 13
2897.0
 23
4994.5
 33
0.0
  0
SOLID
  5
C4
330
A
100
AcDbEntity
  8
SOLDERMASK_PADS_BTM
100
AcDbTrace
 10
2527.0
 20
4144.499999999999
 30
0.0
 11
2897.0
 21
4144.499999999999
 31
0.0
 12
2527.0
 22
4444.5
 32
0.0
 13
2897.0
 23
4444.5
 33
0.0
  0
SOLID
  5
C5
330
A
100
AcDbEntity
  8
SOLDERMASK_PADS_BTM
100
AcDbTrace
 10
3197.0
 20
-3530.5
 30
0.0
 11
3567.0
 21
-3530.5
 31
0.0
 12
3197.0
 22
-3230.5
 32
0.0
 13
3567.0
 23
-3230.5
 33
0.0
  0
SOLID
  5
C6
330
A
100
AcDbEntity
  8
SOLDERMASK_PADS_BTM
100
AcDbTrace
 10
3197.0
 20
-4080.499999999999
 30
0.0
 11
3567.0
 21
-4080.499999999999
 31
0.0
 12
3197.0
 22
-3780.5
 32
0.0
 13
3567.0
 23
-3780.5
 33
0.0
  0
SOLID
  5
C7
330
A
100
AcDbEntity
  8
SOLDERMASK_PADS_BTM
100
AcDbTrace
 10
3197.0
 20
-2355.5
 30
0.0
 11
3567.0
 21
-2355.5
 31
0.0
 12
3197.0
 22
-2055.5
 32
0.0
 13
3567.0
 23
-2055.5
 33
0.0
  0
SOLID
  5
C8
330
A
100
AcDbEntity
  8
SOLDERMASK_PADS_BTM
100
AcDbTrace
 10
3197.0
 20
-2905.5
 30
0.0
 11
3567.0
 21
-2905.5
 31
0.0
 12
3197.0
 22
-2605.5
 32
0.0
 13
3567.0
 23
-2605.5
 33
0.0
  0
SOLID
  5
C9
330
A
100
AcDbEntity
  8
SOLDERMASK_PADS_BTM
100
AcDbTrace
 10
3197.0
 20
-1180.5
 30
0.0
 11
3567.0
 21
-1180.5
 31
0.0
 12
3197.0
 22
-880.4999999999999
 32
0.0
 13
3567.0
 23
-880.4999999999999
 33
0.0
  0
SOLID
  5
CA
330
A
100
AcDbEntity
  8
SOLDERMASK_PADS_BTM
100
AcDbTrace
 10
3197.0
 20
-1730.5
 30
0.0
 11
3567.0
 21
-1730.5
 31
0.0
 12
3197.0
 22
-1430.5
 32
0.0
 13
3567.0
 23
-1430.5
 33
0.0
  0
SOLID
  5
CB
330
A
100
AcDbEntity
  8
SOLDERMASK_PADS_BTM
100
AcDbTrace
 10
3197.0
 20
-5.5
 30
0.0
 11
3567.0
 21
-5.5
 31
0.0
 12
3197.0
 22
294.5
 32
0.0
 13
3567.0
 23
294.5
 33
0.0
  0
SOLID
  5
CC
330
A
100
AcDbEntity
  8
SOLDERMASK_PADS_BTM
100
AcDbTrace
 10
3197.0
 20
-555.4999999999999
 30
0.0
 11
3567.0
 21
-555.4999999999999
 31
0.0
 12
3197.0
 22
-255.5
 32
0.0
 13
3567.0
 23
-255.5
 33
0.0
  0
SOLID
  5
CD
330
A
100
AcDbEntity
  8
SOLDERMASK_PADS_BTM
100
AcDbTrace
 10
3197.0
 20
3519.5
 30
0.0
 11
3567.0
 21
3519.5
 31
0.0
 12
3197.0
 22
3819.5
 32
0.0
 13
3567.0
 23
3819.5
 33
0.0
  0
SOLID
  5
CE
330
A
100
AcDbEntity
  8
SOLDERMASK_PADS_BTM
100
AcDbTrace
 10
3197.0
 20
2969.5
 30
0.0
 11
3567.0
 21
2969.5
 31
0.0
 12
3197.0
 22
3269.5
 32
0.0
 13
3567.0
 23
3269.5
 33
0.0
  0
SOLID
  5
CF
330
A
100
AcDbEntity
  8
SOLDERMASK_PADS_BTM
100
AcDbTrace
 10
4537.0
 20
-3530.5
 30
0.0
 11
4907.0
 21
-3530.5
 31
0.0
 12
4537.0
 22
-3230.5
 32
0.0
 13
4907.0
 23
-3230.5
 33
0.0
  0
SOLID
  5
D0
330
A
100
AcDbEntity
  8
SOLDERMASK_PADS_BTM
100
AcDbTrace
 10
4537.0
 20
-4080.499999999999
 30
0.0
 11
4907.0
 21
-4080.499999999999
 31
0.0
 12
4537.0
 22
-3780.5
 32
0.0
 13
4907.0
 23
-3780.5
 33
0.0
  0
SOLID
  5
D1
330
A
100
AcDbEntity
  8
SOLDERMASK_PADS_BTM
100
AcDbTrace
 10
5877.0
 20
-3530.5
 30
0.0
 11
6247.0
 21
-3530.5
 31
0.0
 12
5877.0
 22
-3230.5
 32
0.0
 13
6247.0
 23
-3230.5
 33
0.0
  0
SOLID
  5
D2
330
A
100
AcDbEntity
  8
SOLDERMASK_PADS_BTM
100
AcDbTrace
 10
5877.0
 20
-4080.499999999999
 30
0.0
 11
6247.0
 21
-4080.499999999999
 31
0.0
 12
5877.0
 22
-3780.5
 32
0.0
 13
6247.0
 23
-3780.5
 33
0.0
  0
SOLID
  5
D3
330
A
100
AcDbEntity
  8
SOLDERMASK_PADS_BTM
100
AcDbTrace
 10
6547.0
 20
2344.5
 30
0.0
 11
6917.0
 21
2344.5
 31
0.0
 12
6547.0
 22
2644.5
 32
0.0
 13
6917.0
 23
2644.5
 33
0.0
  0
SOLID
  5
D4
330
A
100
AcDbEntity
  8
SOLDERMASK_PADS_BTM
100
AcDbTrace
 10
6547.0
 20
1794.5
 30
0.0
 11
6917.0
 21
1794.5
 31
0.0
 12
6547.0
 22
2094.5
 32
0.0
 13
6917.0
 23
2094.5
 33
0.0
  0
SOLID
  5
D5
330
A
100
AcDbEntity
  8
SOLDERMASK_PADS_BTM
100
AcDbTrace
 10
7217.0
 20
4694.5
 30
0.0
 11
7587.0
 21
4694.5
 31
0.0
 12
7217.0
 22
4994.5
 32
0.0
 13
7587.0
 23
4994.5
 33
0.0
  0
SOLID
  5
D6
330
A
100
AcDbEntity
  8
SOLDERMASK_PADS_BTM
100
AcDbTrace
 10
7217.0
 20
4144.499999999999
 30
0.0
 11
7587.0
 21
4144.499999999999
 31
0.0
 12
7217.0
 22
4444.5
 32
0.0
 13
7587.0
 23
4444.5
 33
0.0
  0
SOLID
  5
D7
330
A
100
AcDbEntity
  8
SOLDERMASK_PADS_BTM
100
AcDbTrace
 10
8557.0
 20
-2355.5
 30
0.0
 11
8927.0
 21
-2355.5
 31
0.0
 12
8557.0
 22
-2055.5
 32
0.0
 13
8927.0
 23
-2055.5
 33
0.0
  0
SOLID
  5
D8
330
A
100
AcDbEntity
  8
SOLDERMASK_PADS_BTM
100
AcDbTrace
 10
8557.0
 20
-2905.5
 30
0.0
 11
8927.0
 21
-2905.5
 31
0.0
 12
8557.0
 22
-2605.5
 32
0.0
 13
8927.0
 23
-2605.5
 33
0.0
  0
SOLID
  5
D9
330
A
100
AcDbEntity
  8
SOLDERMASK_PADS_BTM
100
AcDbTrace
 10
3197.0
 20
4694.5
 30
0.0
 11
3567.0
 21
4694.5
 31
0.0
 12
3197.0
 22
4994.5
 32
0.0
 13
3567.0
 23
4994.5
 33
0.0
  0
SOLID
  5
DA
330
A
100
AcDbEntity
  8
SOLDERMASK_PADS_BTM
100
AcDbTrace
 10
3197.0
 20
4144.499999999999
 30
0.0
 11
3567.0
 21
4144.499999999999
 31
0.0
 12
3197.0
 22
4444.5
 32
0.0
 13
3567.0
 23
4444.5
 33
0.0
  0
SOLID
  5
DB
330
A
100
AcDbEntity
  8
SOLDERMASK_PADS_BTM
100
AcDbTrace
 10
4537.0
 20
-2355.5
 30
0.0
 11
4907.0
 21
-2355.5
 31
0.0
 12
4537.0
 22
-2055.5
 32
0.0
 13
4907.0
 23
-2055.5
 33
0.0
  0
SOLID
  5
DC
330
A
100
AcDbEntity
  8
SOLDERMASK_PADS_BTM
100
AcDbTrace
 10
4537.0
 20
-2905.5
 30
0.0
 11
4907.0
 21
-2905.5
 31
0.0
 12
4537.0
 22
-2605.5
 32
0.0
 13
4907.0
 23
-2605.5
 33
0.0
  0
SOLID
  5
DD
330
A
100
AcDbEntity
  8
SOLDERMASK_PADS_BTM
100
AcDbTrace
 10
5877.0
 20
-2355.5
 30
0.0
 11
6247.0
 21
-2355.5
 31
0.0
 12
5877.0
 22
-2055.5
 32
0.0
 13
6247.0
 23
-2055.5
 33
0.0
  0
SOLID
  5
DE
330
A
100
AcDbEntity
  8
SOLDERMASK_PADS_BTM
100
AcDbTrace
 10
5877.0
 20
-2905.5
 30
0.0
 11
6247.0
 21
-2905.5
 31
0.0
 12
5877.0
 22
-2605.5
 32
0.0
 13
6247.0
 23
-2605.5
 33
0.0
  0
SOLID
  5
DF
330
A
100
AcDbEntity
  8
SOLDERMASK_PADS_BTM
100
AcDbTrace
 10
6547.0
 20
3519.5
 30
0.0
 11
6917.0
 21
3519.5
 31
0.0
 12
6547.0
 22
3819.5
 32
0.0
 13
6917.0
 23
3819.5
 33
0.0
  0
SOLID
  5
E0
330
A
100
AcDbEntity
  8
SOLDERMASK_PADS_BTM
100
AcDbTrace
 10
6547.0
 20
2969.5
 30
0.0
 11
6917.0
 21
2969.5
 31
0.0
 12
6547.0
 22
3269.5
 32
0.0
 13
6917.0
 23
3269.5
 33
0.0
  0
SOLID
  5
E1
330
A
100
AcDbEntity
  8
SOLDERMASK_PADS_BTM
100
AcDbTrace
 10
7887.0
 20
-3530.5
 30
0.0
 11
8257.0
 21
-3530.5
 31
0.0
 12
7887.0
 22
-3230.5
 32
0.0
 13
8257.0
 23
-3230.5
 33
0.0
  0
SOLID
  5
E2
330
A
100
AcDbEntity
  8
SOLDERMASK_PADS_BTM
100
AcDbTrace
 10
7887.0
 20
-4080.499999999999
 30
0.0
 11
8257.0
 21
-4080.499999999999
 31
0.0
 12
7887.0
 22
-3780.5
 32
0.0
 13
8257.0
 23
-3780.5
 33
0.0
  0
SOLID
  5
E3
330
A
100
AcDbEntity
  8
SOLDERMASK_PADS_BTM
100
AcDbTrace
 10
8557.0
 20
-1180.5
 30
0.0
 11
8927.0
 21
-1180.5
 31
0.0
 12
8557.0
 22
-880.4999999999999
 32
0.0
 13
8927.0
 23
-880.4999999999999
 33
0.0
  0
SOLID
  5
E4
330
A
100
AcDbEntity
  8
SOLDERMASK_PADS_BTM
100
AcDbTrace
 10
8557.0
 20
-1730.5
 30
0.0
 11
8927.0
 21
-1730.5
 31
0.0
 12
8557.0
 22
-1430.5
 32
0.0
 13
8927.0
 23
-1430.5
 33
0.0
  0
SOLID
  5
E5
330
A
100
AcDbEntity
  8
SOLDERMASK_PADS_BTM
100
AcDbTrace
 10
3867.0
 20
-3530.5
 30
0.0
 11
4237.0
 21
-3530.5
 31
0.0
 12
3867.0
 22
-3230.5
 32
0.0
 13
4237.0
 23
-3230.5
 33
0.0
  0
SOLID
  5
E6
330
A
100
AcDbEntity
  8
SOLDERMASK_PADS_BTM
100
AcDbTrace
 10
3867.0
 20
-4080.499999999999
 30
0.0
 11
4237.0
 21
-4080.499999999999
 31
0.0
 12
3867.0
 22
-3780.5
 32
0.0
 13
4237.0
 23
-3780.5
 33
0.0
  0
SOLID
  5
E7
330
A
100
AcDbEntity
  8
SOLDERMASK_PADS_BTM
100
AcDbTrace
 10
4537.0
 20
2344.5
 30
0.0
 11
4907.0
 21
2344.5
 31
0.0
 12
4537.0
 22
2644.5
 32
0.0
 13
4907.0
 23
2644.5
 33
0.0
  0
SOLID
  5
E8
330
A
100
AcDbEntity
  8
SOLDERMASK_PADS_BTM
100
AcDbTrace
 10
4537.0
 20
1794.5
 30
0.0
 11
4907.0
 21
1794.5
 31
0.0
 12
4537.0
 22
2094.5
 32
0.0
 13
4907.0
 23
2094.5
 33
0.0
  0
SOLID
  5
E9
330
A
100
AcDbEntity
  8
SOLDERMASK_PADS_BTM
100
AcDbTrace
 10
5877.0
 20
2344.5
 30
0.0
 11
6247.0
 21
2344.5
 31
0.0
 12
5877.0
 22
2644.5
 32
0.0
 13
6247.0
 23
2644.5
 33
0.0
  0
SOLID
  5
EA
330
A
100
AcDbEntity
  8
SOLDERMASK_PADS_BTM
100
AcDbTrace
 10
5877.0
 20
1794.5
 30
0.0
 11
6247.0
 21
1794.5
 31
0.0
 12
5877.0
 22
2094.5
 32
0.0
 13
6247.0
 23
2094.5
 33
0.0
  0
SOLID
  5
EB
330
A
100
AcDbEntity
  8
SOLDERMASK_PADS_BTM
100
AcDbTrace
 10
6547.0
 20
4694.5
 30
0.0
 11
6917.0
 21
4694.5
 31
0.0
 12
6547.0
 22
4994.5
 32
0.0
 13
6917.0
 23
4994.5
 33
0.0
  0
SOLID
  5
EC
330
A
100
AcDbEntity
  8
SOLDERMASK_PADS_BTM
100
AcDbTrace
 10
6547.0
 20
4144.499999999999
 30
0.0
 11
6917.0
 21
4144.499999999999
 31
0.0
 12
6547.0
 22
4444.5
 32
0.0
 13
6917.0
 23
4444.5
 33
0.0
  0
SOLID
  5
ED
330
A
100
AcDbEntity
  8
SOLDERMASK_PADS_BTM
100
AcDbTrace
 10
7887.0
 20
-2355.5
 30
0.0
 11
8257.0
 21
-2355.5
 31
0.0
 12
7887.0
 22
-2055.5
 32
0.0
 13
8257.0
 23
-2055.5
 33
0.0
  0
SOLID
  5
EE
330
A
100
AcDbEntity
  8
SOLDERMASK_PADS_BTM
100
AcDbTrace
 10
7887.0
 20
-2905.5
 30
0.0
 11
8257.0
 21
-2905.5
 31
0.0
 12
7887.0
 22
-2605.5
 32
0.0
 13
8257.0
 23
-2605.5
 33
0.0
  0
SOLID
  5
EF
330
A
100
AcDbEntity
  8
SOLDERMASK_PADS_BTM
100
AcDbTrace
 10
8557.0
 20
-5.5
 30
0.0
 11
8927.0
 21
-5.5
 31
0.0
 12
8557.0
 22
294.5
 32
0.0
 13
8927.0
 23
294.5
 33
0.0
  0
SOLID
  5
F0
330
A
100
AcDbEntity
  8
SOLDERMASK_PADS_BTM
100
AcDbTrace
 10
8557.0
 20
-555.4999999999999
 30
0.0
 11
8927.0
 21
-555.4999999999999
 31
0.0
 12
8557.0
 22
-255.5
 32
0.0
 13
8927.0
 23
-255.5
 33
0.0
  0
SOLID
  5
F1
330
A
100
AcDbEntity
  8
SOLDERMASK_PADS_BTM
100
AcDbTrace
 10
3867.0
 20
-2355.5
 30
0.0
 11
4237.0
 21
-2355.5
 31
0.0
 12
3867.0
 22
-2055.5
 32
0.0
 13
4237.0
 23
-2055.5
 33
0.0
  0
SOLID
  5
F2
330
A
100
AcDbEntity
  8
SOLDERMASK_PADS_BTM
100
AcDbTrace
 10
3867.0
 20
-2905.5
 30
0.0
 11
4237.0
 21
-2905.5
 31
0.0
 12
3867.0
 22
-2605.5
 32
0.0
 13
4237.0
 23
-2605.5
 33
0.0
  0
SOLID
  5
F3
330
A
100
AcDbEntity
  8
SOLDERMASK_PADS_BTM
100
AcDbTrace
 10
4537.0
 20
3519.5
 30
0.0
 11
4907.0
 21
3519.5
 31
0.0
 12
4537.0
 22
3819.5
 32
0.0
 13
4907.0
 23
3819.5
 33
0.0
  0
SOLID
  5
F4
330
A
100
AcDbEntity
  8
SOLDERMASK_PADS_BTM
100
AcDbTrace
 10
4537.0
 20
2969.5
 30
0.0
 11
4907.0
 21
2969.5
 31
0.0
 12
4537.0
 22
3269.5
 32
0.0
 13
4907.0
 23
3269.5
 33
0.0
  0
SOLID
  5
F5
330
A
100
AcDbEntity
  8
SOLDERMASK_PADS_BTM
100
AcDbTrace
 10
5877.0
 20
3519.5
 30
0.0
 11
6247.0
 21
3519.5
 31
0.0
 12
5877.0
 22
3819.5
 32
0.0
 13
6247.0
 23
3819.5
 33
0.0
  0
SOLID
  5
F6
330
A
100
AcDbEntity
  8
SOLDERMASK_PADS_BTM
100
AcDbTrace
 10
5877.0
 20
2969.5
 30
0.0
 11
6247.0
 21
2969.5
 31
0.0
 12
5877.0
 22
3269.5
 32
0.0
 13
6247.0
 23
3269.5
 33
0.0
  0
SOLID
  5
F7
330
A
100
AcDbEntity
  8
SOLDERMASK_PADS_BTM
100
AcDbTrace
 10
7217.0
 20
-3530.5
 30
0.0
 11
7587.0
 21
-3530.5
 31
0.0
 12
7217.0
 22
-3230.5
 32
0.0
 13
7587.0
 23
-3230.5
 33
0.0
  0
SOLID
  5
F8
330
A
100
AcDbEntity
  8
SOLDERMASK_PADS_BTM
100
AcDbTrace
 10
7217.0
 20
-4080.499999999999
 30
0.0
 11
7587.0
 21
-4080.499999999999
 31
0.0
 12
7217.0
 22
-3780.5
 32
0.0
 13
7587.0
 23
-3780.5
 33
0.0
  0
SOLID
  5
F9
330
A
100
AcDbEntity
  8
SOLDERMASK_PADS_BTM
100
AcDbTrace
 10
7887.0
 20
-1180.5
 30
0.0
 11
8257.0
 21
-1180.5
 31
0.0
 12
7887.0
 22
-880.4999999999999
 32
0.0
 13
8257.0
 23
-880.4999999999999
 33
0.0
  0
SOLID
  5
FA
330
A
100
AcDbEntity
  8
SOLDERMASK_PADS_BTM
100
AcDbTrace
 10
7887.0
 20
-1730.5
 30
0.0
 11
8257.0
 21
-1730.5
 31
0.0
 12
7887.0
 22
-1430.5
 32
0.0
 13
8257.0
 23
-1430.5
 33
0.0
  0
SOLID
  5
FB
330
A
100
AcDbEntity
  8
SOLDERMASK_PADS_BTM
100
AcDbTrace
 10
8557.0
 20
1169.5
 30
0.0
 11
8927.0
 21
1169.5
 31
0.0
 12
8557.0
 22
1469.5
 32
0.0
 13
8927.0
 23
1469.5
 33
0.0
  0
SOLID
  5
FC
330
A
100
AcDbEntity
  8
SOLDERMASK_PADS_BTM
100
AcDbTrace
 10
8557.0
 20
619.5
 30
0.0
 11
8927.0
 21
619.5
 31
0.0
 12
8557.0
 22
919.5
 32
0.0
 13
8927.0
 23
919.5
 33
0.0
  0
LWPOLYLINE
  5
101
330
A
100
AcDbEntity
  8
SOLDERMASK_PADS_BTM
100
AcDbPolyline
 90
        3
 70
     1
 43
0.0
 10
18180.0
 20
-17680.0
 10
18180.0
 20
-18180.0
 10
17680.0
 20
-18180.0
  0
HATCH
  5
102
330
A
100
AcDbEntity
  8
SOLDERMASK_PADS_BTM
100
AcDbHatch
 10
0.0
 20
0.0
 30
0.0
210
0.0
220
0.0
230
1.0
  2
SOLID
 70
     1
 71
     1
 91
        1
 92
        2
 72
     0
 73
     1
 93
        3
 10
18180.0
 20
-17680.0
 10
18180.0
 20
-18180.0
 10
17680.0
 20
-18180.0
 97
        1
330
257
 75
     0
 76
     1
 98
        1
 10
0.0
 20
0.0
450
        0
451
        0
460
0.0
461
0.0
452
        0
462
0.0
453
        0
470

  0
SOLID
  5
A63
330
A
100
AcDbEntity
  8
SOLDERMASK_PADS_BTM
100
AcDbTrace
 10
-8013.0
 20
-3530.5
 30
0.0
 11
-7643.0
 21
-3530.5
 31
0.0
 12
-8013.0
 22
-3230.5
 32
0.0
 13
-7643.0
 23
-3230.5
 33
0.0
  0
SOLID
  5
A64
330
A
100
AcDbEntity
  8
SOLDERMASK_PADS_BTM
100
AcDbTrace
 10
-8013.0
 20
-4080.499999999999
 30
0.0
 11
-7643.0
 21
-4080.499999999999
 31
0.0
 12
-8013.0
 22
-3780.5
 32
0.0
 13
-7643.0
 23
-3780.5
 33
0.0
  0
SOLID
  5
A8D
330
A
100
AcDbEntity
  8
SOLDERMASK_PADS_BTM
100
AcDbTrace
 10
3867.0
 20
-1180.5
 30
0.0
 11
4237.0
 21
-1180.5
 31
0.0
 12
3867.0
 22
-880.4999999999999
 32
0.0
 13
4237.0
 23
-880.4999999999999
 33
0.0
  0
SOLID
  5
A8E
330
A
100
AcDbEntity
  8
SOLDERMASK_PADS_BTM
100
AcDbTrace
 10
3867.0
 20
-1730.5
 30
0.0
 11
4237.0
 21
-1730.5
 31
0.0
 12
3867.0
 22
-1430.5
 32
0.0
 13
4237.0
 23
-1430.5
 33
0.0
  0
SOLID
  5
A8F
330
A
100
AcDbEntity
  8
SOLDERMASK_PADS_BTM
100
AcDbTrace
 10
1699.0
 20
-3850.0
 30
0.0
 11
2075.0
 21
-3850.0
 31
0.0
 12
1699.0
 22
-3350.0
 32
0.0
 13
2075.0
 23
-3350.0
 33
0.0
  0
SOLID
  5
A90
330
A
100
AcDbEntity
  8
SOLDERMASK_PADS_BTM
100
AcDbTrace
 10
2525.0
 20
-3850.0
 30
0.0
 11
2901.0
 21
-3850.0
 31
0.0
 12
2525.0
 22
-3350.0
 32
0.0
 13
2901.0
 23
-3350.0
 33
0.0
  0
SOLID
  5
A91
330
A
100
AcDbEntity
  8
SOLDERMASK_PADS_BTM
100
AcDbTrace
 10
4537.0
 20
4694.5
 30
0.0
 11
4907.0
 21
4694.5
 31
0.0
 12
4537.0
 22
4994.5
 32
0.0
 13
4907.0
 23
4994.5
 33
0.0
  0
SOLID
  5
A92
330
A
100
AcDbEntity
  8
SOLDERMASK_PADS_BTM
100
AcDbTrace
 10
4537.0
 20
4144.499999999999
 30
0.0
 11
4907.0
 21
4144.499999999999
 31
0.0
 12
4537.0
 22
4444.5
 32
0.0
 13
4907.0
 23
4444.5
 33
0.0
  0
SOLID
  5
A93
330
A
100
AcDbEntity
  8
SOLDERMASK_PADS_BTM
100
AcDbTrace
 10
5877.0
 20
4694.5
 30
0.0
 11
6247.0
 21
4694.5
 31
0.0
 12
5877.0
 22
4994.5
 32
0.0
 13
6247.0
 23
4994.5
 33
0.0
  0
SOLID
  5
A94
330
A
100
AcDbEntity
  8
SOLDERMASK_PADS_BTM
100
AcDbTrace
 10
5877.0
 20
4144.499999999999
 30
0.0
 11
6247.0
 21
4144.499999999999
 31
0.0
 12
5877.0
 22
4444.5
 32
0.0
 13
6247.0
 23
4444.5
 33
0.0
  0
SOLID
  5
A95
330
A
100
AcDbEntity
  8
SOLDERMASK_PADS_BTM
100
AcDbTrace
 10
7217.0
 20
-2355.5
 30
0.0
 11
7587.0
 21
-2355.5
 31
0.0
 12
7217.0
 22
-2055.5
 32
0.0
 13
7587.0
 23
-2055.5
 33
0.0
  0
SOLID
  5
A96
330
A
100
AcDbEntity
  8
SOLDERMASK_PADS_BTM
100
AcDbTrace
 10
7217.0
 20
-2905.5
 30
0.0
 11
7587.0
 21
-2905.5
 31
0.0
 12
7217.0
 22
-2605.5
 32
0.0
 13
7587.0
 23
-2605.5
 33
0.0
  0
SOLID
  5
A97
330
A
100
AcDbEntity
  8
SOLDERMASK_PADS_BTM
100
AcDbTrace
 10
7887.0
 20
-5.5
 30
0.0
 11
8257.0
 21
-5.5
 31
0.0
 12
7887.0
 22
294.5
 32
0.0
 13
8257.0
 23
294.5
 33
0.0
  0
SOLID
  5
A98
330
A
100
AcDbEntity
  8
SOLDERMASK_PADS_BTM
100
AcDbTrace
 10
7887.0
 20
-555.4999999999999
 30
0.0
 11
8257.0
 21
-555.4999999999999
 31
0.0
 12
7887.0
 22
-255.5
 32
0.0
 13
8257.0
 23
-255.5
 33
0.0
  0
SOLID
  5
A99
330
A
100
AcDbEntity
  8
SOLDERMASK_PADS_BTM
100
AcDbTrace
 10
-8013.0
 20
-2355.5
 30
0.0
 11
-7643.0
 21
-2355.5
 31
0.0
 12
-8013.0
 22
-2055.5
 32
0.0
 13
-7643.0
 23
-2055.5
 33
0.0
  0
SOLID
  5
A9A
330
A
100
AcDbEntity
  8
SOLDERMASK_PADS_BTM
100
AcDbTrace
 10
-8013.0
 20
-2905.5
 30
0.0
 11
-7643.0
 21
-2905.5
 31
0.0
 12
-8013.0
 22
-2605.5
 32
0.0
 13
-7643.0
 23
-2605.5
 33
0.0
  0
SOLID
  5
A9B
330
A
100
AcDbEntity
  8
SOLDERMASK_PADS_BTM
100
AcDbTrace
 10
8557.0
 20
2344.5
 30
0.0
 11
8927.0
 21
2344.5
 31
0.0
 12
8557.0
 22
2644.5
 32
0.0
 13
8927.0
 23
2644.5
 33
0.0
  0
SOLID
  5
A9C
330
A
100
AcDbEntity
  8
SOLDERMASK_PADS_BTM
100
AcDbTrace
 10
8557.0
 20
1794.5
 30
0.0
 11
8927.0
 21
1794.5
 31
0.0
 12
8557.0
 22
2094.5
 32
0.0
 13
8927.0
 23
2094.5
 33
0.0
  0
SOLID
  5
A9D
330
A
100
AcDbEntity
  8
SOLDERMASK_PADS_BTM
100
AcDbTrace
 10
-8013.0
 20
-1180.5
 30
0.0
 11
-7643.0
 21
-1180.5
 31
0.0
 12
-8013.0
 22
-880.4999999999999
 32
0.0
 13
-7643.0
 23
-880.4999999999999
 33
0.0
  0
SOLID
  5
A9E
330
A
100
AcDbEntity
  8
SOLDERMASK_PADS_BTM
100
AcDbTrace
 10
-8013.0
 20
-1730.5
 30
0.0
 11
-7643.0
 21
-1730.5
 31
0.0
 12
-8013.0
 22
-1430.5
 32
0.0
 13
-7643.0
 23
-1430.5
 33
0.0
  0
SOLID
  5
A9F
330
A
100
AcDbEntity
  8
SOLDERMASK_PADS_BTM
100
AcDbTrace
 10
-8013.0
 20
-5.5
 30
0.0
 11
-7643.0
 21
-5.5
 31
0.0
 12
-8013.0
 22
294.5
 32
0.0
 13
-7643.0
 23
294.5
 33
0.0
  0
SOLID
  5
AA0
330
A
100
AcDbEntity
  8
SOLDERMASK_PADS_BTM
100
AcDbTrace
 10
-8013.0
 20
-555.4999999999999
 30
0.0
 11
-7643.0
 21
-555.4999999999999
 31
0.0
 12
-8013.0
 22
-255.5
 32
0.0
 13
-7643.0
 23
-255.5
 33
0.0
  0
SOLID
  5
AA1
330
A
100
AcDbEntity
  8
SOLDERMASK_PADS_BTM
100
AcDbTrace
 10
-8013.0
 20
1169.5
 30
0.0
 11
-7643.0
 21
1169.5
 31
0.0
 12
-8013.0
 22
1469.5
 32
0.0
 13
-7643.0
 23
1469.5
 33
0.0
  0
SOLID
  5
AA2
330
A
100
AcDbEntity
  8
SOLDERMASK_PADS_BTM
100
AcDbTrace
 10
-8013.0
 20
619.5
 30
0.0
 11
-7643.0
 21
619.5
 31
0.0
 12
-8013.0
 22
919.5
 32
0.0
 13
-7643.0
 23
919.5
 33
0.0
  0
SOLID
  5
AA3
330
A
100
AcDbEntity
  8
SOLDERMASK_PADS_BTM
100
AcDbTrace
 10
3867.0
 20
-5.5
 30
0.0
 11
4237.0
 21
-5.5
 31
0.0
 12
3867.0
 22
294.5
 32
0.0
 13
4237.0
 23
294.5
 33
0.0
  0
SOLID
  5
AA4
330
A
100
AcDbEntity
  8
SOLDERMASK_PADS_BTM
100
AcDbTrace
 10
3867.0
 20
-555.4999999999999
 30
0.0
 11
4237.0
 21
-555.4999999999999
 31
0.0
 12
3867.0
 22
-255.5
 32
0.0
 13
4237.0
 23
-255.5
 33
0.0
  0
SOLID
  5
AA5
330
A
100
AcDbEntity
  8
SOLDERMASK_PADS_BTM
100
AcDbTrace
 10
5207.0
 20
-3530.5
 30
0.0
 11
5577.0
 21
-3530.5
 31
0.0
 12
5207.0
 22
-3230.5
 32
0.0
 13
5577.0
 23
-3230.5
 33
0.0
  0
SOLID
  5
AA6
330
A
100
AcDbEntity
  8
SOLDERMASK_PADS_BTM
100
AcDbTrace
 10
5207.0
 20
-4080.499999999999
 30
0.0
 11
5577.0
 21
-4080.499999999999
 31
0.0
 12
5207.0
 22
-3780.5
 32
0.0
 13
5577.0
 23
-3780.5
 33
0.0
  0
SOLID
  5
AA7
330
A
100
AcDbEntity
  8
SOLDERMASK_PADS_BTM
100
AcDbTrace
 10
6547.0
 20
-3530.5
 30
0.0
 11
6917.0
 21
-3530.5
 31
0.0
 12
6547.0
 22
-3230.5
 32
0.0
 13
6917.0
 23
-3230.5
 33
0.0
  0
SOLID
  5
AA8
330
A
100
AcDbEntity
  8
SOLDERMASK_PADS_BTM
100
AcDbTrace
 10
6547.0
 20
-4080.499999999999
 30
0.0
 11
6917.0
 21
-4080.499999999999
 31
0.0
 12
6547.0
 22
-3780.5
 32
0.0
 13
6917.0
 23
-3780.5
 33
0.0
  0
SOLID
  5
AA9
330
A
100
AcDbEntity
  8
SOLDERMASK_PADS_BTM
100
AcDbTrace
 10
7217.0
 20
-1180.5
 30
0.0
 11
7587.0
 21
-1180.5
 31
0.0
 12
7217.0
 22
-880.4999999999999
 32
0.0
 13
7587.0
 23
-880.4999999999999
 33
0.0
  0
SOLID
  5
AAA
330
A
100
AcDbEntity
  8
SOLDERMASK_PADS_BTM
100
AcDbTrace
 10
7217.0
 20
-1730.5
 30
0.0
 11
7587.0
 21
-1730.5
 31
0.0
 12
7217.0
 22
-1430.5
 32
0.0
 13
7587.0
 23
-1430.5
 33
0.0
  0
SOLID
  5
AAB
330
A
100
AcDbEntity
  8
SOLDERMASK_PADS_BTM
100
AcDbTrace
 10
7887.0
 20
1169.5
 30
0.0
 11
8257.0
 21
1169.5
 31
0.0
 12
7887.0
 22
1469.5
 32
0.0
 13
8257.0
 23
1469.5
 33
0.0
  0
SOLID
  5
AAC
330
A
100
AcDbEntity
  8
SOLDERMASK_PADS_BTM
100
AcDbTrace
 10
7887.0
 20
619.5
 30
0.0
 11
8257.0
 21
619.5
 31
0.0
 12
7887.0
 22
919.5
 32
0.0
 13
8257.0
 23
919.5
 33
0.0
  0
SOLID
  5
AAD
330
A
100
AcDbEntity
  8
SOLDERMASK_PADS_BTM
100
AcDbTrace
 10
-8013.0
 20
2344.5
 30
0.0
 11
-7643.0
 21
2344.5
 31
0.0
 12
-8013.0
 22
2644.5
 32
0.0
 13
-7643.0
 23
2644.5
 33
0.0
  0
SOLID
  5
AAE
330
A
100
AcDbEntity
  8
SOLDERMASK_PADS_BTM
100
AcDbTrace
 10
-8013.0
 20
1794.5
 30
0.0
 11
-7643.0
 21
1794.5
 31
0.0
 12
-8013.0
 22
2094.5
 32
0.0
 13
-7643.0
 23
2094.5
 33
0.0
  0
SOLID
  5
AAF
330
A
100
AcDbEntity
  8
SOLDERMASK_PADS_BTM
100
AcDbTrace
 10
8557.0
 20
3519.5
 30
0.0
 11
8927.0
 21
3519.5
 31
0.0
 12
8557.0
 22
3819.5
 32
0.0
 13
8927.0
 23
3819.5
 33
0.0
  0
SOLID
  5
AB0
330
A
100
AcDbEntity
  8
SOLDERMASK_PADS_BTM
100
AcDbTrace
 10
8557.0
 20
2969.5
 30
0.0
 11
8927.0
 21
2969.5
 31
0.0
 12
8557.0
 22
3269.5
 32
0.0
 13
8927.0
 23
3269.5
 33
0.0
  0
SOLID
  5
AB1
330
A
100
AcDbEntity
  8
SOLDERMASK_PADS_BTM
100
AcDbTrace
 10
-7343.0
 20
-2355.5
 30
0.0
 11
-6973.0
 21
-2355.5
 31
0.0
 12
-7343.0
 22
-2055.5
 32
0.0
 13
-6973.0
 23
-2055.5
 33
0.0
  0
SOLID
  5
AB2
330
A
100
AcDbEntity
  8
SOLDERMASK_PADS_BTM
100
AcDbTrace
 10
-7343.0
 20
-2905.5
 30
0.0
 11
-6973.0
 21
-2905.5
 31
0.0
 12
-7343.0
 22
-2605.5
 32
0.0
 13
-6973.0
 23
-2605.5
 33
0.0
  0
SOLID
  5
AB3
330
A
100
AcDbEntity
  8
SOLDERMASK_PADS_BTM
100
AcDbTrace
 10
-8013.0
 20
3519.5
 30
0.0
 11
-7643.0
 21
3519.5
 31
0.0
 12
-8013.0
 22
3819.5
 32
0.0
 13
-7643.0
 23
3819.5
 33
0.0
  0
SOLID
  5
AB4
330
A
100
AcDbEntity
  8
SOLDERMASK_PADS_BTM
100
AcDbTrace
 10
-8013.0
 20
2969.5
 30
0.0
 11
-7643.0
 21
2969.5
 31
0.0
 12
-8013.0
 22
3269.5
 32
0.0
 13
-7643.0
 23
3269.5
 33
0.0
  0
SOLID
  5
AB5
330
A
100
AcDbEntity
  8
SOLDERMASK_PADS_BTM
100
AcDbTrace
 10
-7343.0
 20
-1180.5
 30
0.0
 11
-6973.0
 21
-1180.5
 31
0.0
 12
-7343.0
 22
-880.4999999999999
 32
0.0
 13
-6973.0
 23
-880.4999999999999
 33
0.0
  0
SOLID
  5
AB6
330
A
100
AcDbEntity
  8
SOLDERMASK_PADS_BTM
100
AcDbTrace
 10
-7343.0
 20
-1730.5
 30
0.0
 11
-6973.0
 21
-1730.5
 31
0.0
 12
-7343.0
 22
-1430.5
 32
0.0
 13
-6973.0
 23
-1430.5
 33
0.0
  0
SOLID
  5
AB7
330
A
100
AcDbEntity
  8
SOLDERMASK_PADS_BTM
100
AcDbTrace
 10
-7343.0
 20
-5.5
 30
0.0
 11
-6973.0
 21
-5.5
 31
0.0
 12
-7343.0
 22
294.5
 32
0.0
 13
-6973.0
 23
294.5
 33
0.0
  0
SOLID
  5
AB8
330
A
100
AcDbEntity
  8
SOLDERMASK_PADS_BTM
100
AcDbTrace
 10
-7343.0
 20
-555.4999999999999
 30
0.0
 11
-6973.0
 21
-555.4999999999999
 31
0.0
 12
-7343.0
 22
-255.5
 32
0.0
 13
-6973.0
 23
-255.5
 33
0.0
  0
SOLID
  5
AB9
330
A
100
AcDbEntity
  8
SOLDERMASK_PADS_BTM
100
AcDbTrace
 10
-7343.0
 20
1169.5
 30
0.0
 11
-6973.0
 21
1169.5
 31
0.0
 12
-7343.0
 22
1469.5
 32
0.0
 13
-6973.0
 23
1469.5
 33
0.0
  0
SOLID
  5
ABA
330
A
100
AcDbEntity
  8
SOLDERMASK_PADS_BTM
100
AcDbTrace
 10
-7343.0
 20
619.5
 30
0.0
 11
-6973.0
 21
619.5
 31
0.0
 12
-7343.0
 22
919.5
 32
0.0
 13
-6973.0
 23
919.5
 33
0.0
  0
SOLID
  5
ABB
330
A
100
AcDbEntity
  8
SOLDERMASK_PADS_BTM
100
AcDbTrace
 10
-7343.0
 20
2344.5
 30
0.0
 11
-6973.0
 21
2344.5
 31
0.0
 12
-7343.0
 22
2644.5
 32
0.0
 13
-6973.0
 23
2644.5
 33
0.0
  0
SOLID
  5
ABC
330
A
100
AcDbEntity
  8
SOLDERMASK_PADS_BTM
100
AcDbTrace
 10
-7343.0
 20
1794.5
 30
0.0
 11
-6973.0
 21
1794.5
 31
0.0
 12
-7343.0
 22
2094.5
 32
0.0
 13
-6973.0
 23
2094.5
 33
0.0
  0
SOLID
  5
ABD
330
A
100
AcDbEntity
  8
SOLDERMASK_PADS_BTM
100
AcDbTrace
 10
-7343.0
 20
3519.5
 30
0.0
 11
-6973.0
 21
3519.5
 31
0.0
 12
-7343.0
 22
3819.5
 32
0.0
 13
-6973.0
 23
3819.5
 33
0.0
  0
SOLID
  5
ABE
330
A
100
AcDbEntity
  8
SOLDERMASK_PADS_BTM
100
AcDbTrace
 10
-7343.0
 20
2969.5
 30
0.0
 11
-6973.0
 21
2969.5
 31
0.0
 12
-7343.0
 22
3269.5
 32
0.0
 13
-6973.0
 23
3269.5
 33
0.0
  0
SOLID
  5
ABF
330
A
100
AcDbEntity
  8
SOLDERMASK_PADS_BTM
100
AcDbTrace
 10
-7343.0
 20
4694.5
 30
0.0
 11
-6973.0
 21
4694.5
 31
0.0
 12
-7343.0
 22
4994.5
 32
0.0
 13
-6973.0
 23
4994.5
 33
0.0
  0
SOLID
  5
AC0
330
A
100
AcDbEntity
  8
SOLDERMASK_PADS_BTM
100
AcDbTrace
 10
-7343.0
 20
4144.499999999999
 30
0.0
 11
-6973.0
 21
4144.499999999999
 31
0.0
 12
-7343.0
 22
4444.5
 32
0.0
 13
-6973.0
 23
4444.5
 33
0.0
  0
SOLID
  5
AC1
330
A
100
AcDbEntity
  8
SOLDERMASK_PADS_BTM
100
AcDbTrace
 10
-6673.0
 20
-3530.5
 30
0.0
 11
-6303.0
 21
-3530.5
 31
0.0
 12
-6673.0
 22
-3230.5
 32
0.0
 13
-6303.0
 23
-3230.5
 33
0.0
  0
SOLID
  5
AC2
330
A
100
AcDbEntity
  8
SOLDERMASK_PADS_BTM
100
AcDbTrace
 10
-6673.0
 20
-4080.499999999999
 30
0.0
 11
-6303.0
 21
-4080.499999999999
 31
0.0
 12
-6673.0
 22
-3780.5
 32
0.0
 13
-6303.0
 23
-3780.5
 33
0.0
  0
SOLID
  5
AC3
330
A
100
AcDbEntity
  8
SOLDERMASK_PADS_BTM
100
AcDbTrace
 10
-6673.0
 20
-2355.5
 30
0.0
 11
-6303.0
 21
-2355.5
 31
0.0
 12
-6673.0
 22
-2055.5
 32
0.0
 13
-6303.0
 23
-2055.5
 33
0.0
  0
SOLID
  5
AC4
330
A
100
AcDbEntity
  8
SOLDERMASK_PADS_BTM
100
AcDbTrace
 10
-6673.0
 20
-2905.5
 30
0.0
 11
-6303.0
 21
-2905.5
 31
0.0
 12
-6673.0
 22
-2605.5
 32
0.0
 13
-6303.0
 23
-2605.5
 33
0.0
  0
SOLID
  5
AC5
330
A
100
AcDbEntity
  8
SOLDERMASK_PADS_BTM
100
AcDbTrace
 10
-6673.0
 20
-5.5
 30
0.0
 11
-6303.0
 21
-5.5
 31
0.0
 12
-6673.0
 22
294.5
 32
0.0
 13
-6303.0
 23
294.5
 33
0.0
  0
SOLID
  5
AC6
330
A
100
AcDbEntity
  8
SOLDERMASK_PADS_BTM
100
AcDbTrace
 10
-6673.0
 20
-555.4999999999999
 30
0.0
 11
-6303.0
 21
-555.4999999999999
 31
0.0
 12
-6673.0
 22
-255.5
 32
0.0
 13
-6303.0
 23
-255.5
 33
0.0
  0
SOLID
  5
AC7
330
A
100
AcDbEntity
  8
SOLDERMASK_PADS_BTM
100
AcDbTrace
 10
-8013.0
 20
4694.5
 30
0.0
 11
-7643.0
 21
4694.5
 31
0.0
 12
-8013.0
 22
4994.5
 32
0.0
 13
-7643.0
 23
4994.5
 33
0.0
  0
SOLID
  5
AC8
330
A
100
AcDbEntity
  8
SOLDERMASK_PADS_BTM
100
AcDbTrace
 10
-8013.0
 20
4144.499999999999
 30
0.0
 11
-7643.0
 21
4144.499999999999
 31
0.0
 12
-8013.0
 22
4444.5
 32
0.0
 13
-7643.0
 23
4444.5
 33
0.0
  0
SOLID
  5
AC9
330
A
100
AcDbEntity
  8
SOLDERMASK_PADS_BTM
100
AcDbTrace
 10
-6673.0
 20
1169.5
 30
0.0
 11
-6303.0
 21
1169.5
 31
0.0
 12
-6673.0
 22
1469.5
 32
0.0
 13
-6303.0
 23
1469.5
 33
0.0
  0
SOLID
  5
ACA
330
A
100
AcDbEntity
  8
SOLDERMASK_PADS_BTM
100
AcDbTrace
 10
-6673.0
 20
619.5
 30
0.0
 11
-6303.0
 21
619.5
 31
0.0
 12
-6673.0
 22
919.5
 32
0.0
 13
-6303.0
 23
919.5
 33
0.0
  0
SOLID
  5
ACB
330
A
100
AcDbEntity
  8
SOLDERMASK_PADS_BTM
100
AcDbTrace
 10
-6673.0
 20
-1180.5
 30
0.0
 11
-6303.0
 21
-1180.5
 31
0.0
 12
-6673.0
 22
-880.4999999999999
 32
0.0
 13
-6303.0
 23
-880.4999999999999
 33
0.0
  0
SOLID
  5
ACC
330
A
100
AcDbEntity
  8
SOLDERMASK_PADS_BTM
100
AcDbTrace
 10
-6673.0
 20
-1730.5
 30
0.0
 11
-6303.0
 21
-1730.5
 31
0.0
 12
-6673.0
 22
-1430.5
 32
0.0
 13
-6303.0
 23
-1430.5
 33
0.0
  0
SOLID
  5
ACD
330
A
100
AcDbEntity
  8
SOLDERMASK_PADS_BTM
100
AcDbTrace
 10
-6673.0
 20
2344.5
 30
0.0
 11
-6303.0
 21
2344.5
 31
0.0
 12
-6673.0
 22
2644.5
 32
0.0
 13
-6303.0
 23
2644.5
 33
0.0
  0
SOLID
  5
ACE
330
A
100
AcDbEntity
  8
SOLDERMASK_PADS_BTM
100
AcDbTrace
 10
-6673.0
 20
1794.5
 30
0.0
 11
-6303.0
 21
1794.5
 31
0.0
 12
-6673.0
 22
2094.5
 32
0.0
 13
-6303.0
 23
2094.5
 33
0.0
  0
SOLID
  5
ACF
330
A
100
AcDbEntity
  8
SOLDERMASK_PADS_BTM
100
AcDbTrace
 10
-6673.0
 20
3519.5
 30
0.0
 11
-6303.0
 21
3519.5
 31
0.0
 12
-6673.0
 22
3819.5
 32
0.0
 13
-6303.0
 23
3819.5
 33
0.0
  0
SOLID
  5
AD0
330
A
100
AcDbEntity
  8
SOLDERMASK_PADS_BTM
100
AcDbTrace
 10
-6673.0
 20
2969.5
 30
0.0
 11
-6303.0
 21
2969.5
 31
0.0
 12
-6673.0
 22
3269.5
 32
0.0
 13
-6303.0
 23
3269.5
 33
0.0
  0
SOLID
  5
AD1
330
A
100
AcDbEntity
  8
SOLDERMASK_PADS_BTM
100
AcDbTrace
 10
-6673.0
 20
4694.5
 30
0.0
 11
-6303.0
 21
4694.5
 31
0.0
 12
-6673.0
 22
4994.5
 32
0.0
 13
-6303.0
 23
4994.5
 33
0.0
  0
SOLID
  5
AD2
330
A
100
AcDbEntity
  8
SOLDERMASK_PADS_BTM
100
AcDbTrace
 10
-6673.0
 20
4144.499999999999
 30
0.0
 11
-6303.0
 21
4144.499999999999
 31
0.0
 12
-6673.0
 22
4444.5
 32
0.0
 13
-6303.0
 23
4444.5
 33
0.0
  0
SOLID
  5
AD3
330
A
100
AcDbEntity
  8
SOLDERMASK_PADS_BTM
100
AcDbTrace
 10
-6003.0
 20
-3530.5
 30
0.0
 11
-5633.0
 21
-3530.5
 31
0.0
 12
-6003.0
 22
-3230.5
 32
0.0
 13
-5633.0
 23
-3230.5
 33
0.0
  0
SOLID
  5
AD4
330
A
100
AcDbEntity
  8
SOLDERMASK_PADS_BTM
100
AcDbTrace
 10
-6003.0
 20
-4080.499999999999
 30
0.0
 11
-5633.0
 21
-4080.499999999999
 31
0.0
 12
-6003.0
 22
-3780.5
 32
0.0
 13
-5633.0
 23
-3780.5
 33
0.0
  0
SOLID
  5
AD5
330
A
100
AcDbEntity
  8
SOLDERMASK_PADS_BTM
100
AcDbTrace
 10
-6003.0
 20
-2355.5
 30
0.0
 11
-5633.0
 21
-2355.5
 31
0.0
 12
-6003.0
 22
-2055.5
 32
0.0
 13
-5633.0
 23
-2055.5
 33
0.0
  0
SOLID
  5
AD6
330
A
100
AcDbEntity
  8
SOLDERMASK_PADS_BTM
100
AcDbTrace
 10
-6003.0
 20
-2905.5
 30
0.0
 11
-5633.0
 21
-2905.5
 31
0.0
 12
-6003.0
 22
-2605.5
 32
0.0
 13
-5633.0
 23
-2605.5
 33
0.0
  0
SOLID
  5
AD7
330
A
100
AcDbEntity
  8
SOLDERMASK_PADS_BTM
100
AcDbTrace
 10
-6003.0
 20
-1180.5
 30
0.0
 11
-5633.0
 21
-1180.5
 31
0.0
 12
-6003.0
 22
-880.4999999999999
 32
0.0
 13
-5633.0
 23
-880.4999999999999
 33
0.0
  0
SOLID
  5
AD8
330
A
100
AcDbEntity
  8
SOLDERMASK_PADS_BTM
100
AcDbTrace
 10
-6003.0
 20
-1730.5
 30
0.0
 11
-5633.0
 21
-1730.5
 31
0.0
 12
-6003.0
 22
-1430.5
 32
0.0
 13
-5633.0
 23
-1430.5
 33
0.0
  0
SOLID
  5
AD9
330
A
100
AcDbEntity
  8
SOLDERMASK_PADS_BTM
100
AcDbTrace
 10
-6003.0
 20
2344.5
 30
0.0
 11
-5633.0
 21
2344.5
 31
0.0
 12
-6003.0
 22
2644.5
 32
0.0
 13
-5633.0
 23
2644.5
 33
0.0
  0
SOLID
  5
ADA
330
A
100
AcDbEntity
  8
SOLDERMASK_PADS_BTM
100
AcDbTrace
 10
-6003.0
 20
1794.5
 30
0.0
 11
-5633.0
 21
1794.5
 31
0.0
 12
-6003.0
 22
2094.5
 32
0.0
 13
-5633.0
 23
2094.5
 33
0.0
  0
SOLID
  5
ADB
330
A
100
AcDbEntity
  8
SOLDERMASK_PADS_BTM
100
AcDbTrace
 10
-6003.0
 20
-5.5
 30
0.0
 11
-5633.0
 21
-5.5
 31
0.0
 12
-6003.0
 22
294.5
 32
0.0
 13
-5633.0
 23
294.5
 33
0.0
  0
SOLID
  5
ADC
330
A
100
AcDbEntity
  8
SOLDERMASK_PADS_BTM
100
AcDbTrace
 10
-6003.0
 20
-555.4999999999999
 30
0.0
 11
-5633.0
 21
-555.4999999999999
 31
0.0
 12
-6003.0
 22
-255.5
 32
0.0
 13
-5633.0
 23
-255.5
 33
0.0
  0
SOLID
  5
ADD
330
A
100
AcDbEntity
  8
SOLDERMASK_PADS_BTM
100
AcDbTrace
 10
-7343.0
 20
-3530.5
 30
0.0
 11
-6973.0
 21
-3530.5
 31
0.0
 12
-7343.0
 22
-3230.5
 32
0.0
 13
-6973.0
 23
-3230.5
 33
0.0
  0
SOLID
  5
ADE
330
A
100
AcDbEntity
  8
SOLDERMASK_PADS_BTM
100
AcDbTrace
 10
-7343.0
 20
-4080.499999999999
 30
0.0
 11
-6973.0
 21
-4080.499999999999
 31
0.0
 12
-7343.0
 22
-3780.5
 32
0.0
 13
-6973.0
 23
-3780.5
 33
0.0
  0
SOLID
  5
ADF
330
A
100
AcDbEntity
  8
SOLDERMASK_PADS_BTM
100
AcDbTrace
 10
3197.0
 20
1169.5
 30
0.0
 11
3567.0
 21
1169.5
 31
0.0
 12
3197.0
 22
1469.5
 32
0.0
 13
3567.0
 23
1469.5
 33
0.0
  0
SOLID
  5
AE0
330
A
100
AcDbEntity
  8
SOLDERMASK_PADS_BTM
100
AcDbTrace
 10
3197.0
 20
619.5
 30
0.0
 11
3567.0
 21
619.5
 31
0.0
 12
3197.0
 22
919.5
 32
0.0
 13
3567.0
 23
919.5
 33
0.0
  0
SOLID
  5
AE1
330
A
100
AcDbEntity
  8
SOLDERMASK_PADS_BTM
100
AcDbTrace
 10
-6003.0
 20
3519.5
 30
0.0
 11
-5633.0
 21
3519.5
 31
0.0
 12
-6003.0
 22
3819.5
 32
0.0
 13
-5633.0
 23
3819.5
 33
0.0
  0
SOLID
  5
AE2
330
A
100
AcDbEntity
  8
SOLDERMASK_PADS_BTM
100
AcDbTrace
 10
-6003.0
 20
2969.5
 30
0.0
 11
-5633.0
 21
2969.5
 31
0.0
 12
-6003.0
 22
3269.5
 32
0.0
 13
-5633.0
 23
3269.5
 33
0.0
  0
SOLID
  5
AE3
330
A
100
AcDbEntity
  8
SOLDERMASK_PADS_BTM
100
AcDbTrace
 10
-6003.0
 20
1169.5
 30
0.0
 11
-5633.0
 21
1169.5
 31
0.0
 12
-6003.0
 22
1469.5
 32
0.0
 13
-5633.0
 23
1469.5
 33
0.0
  0
SOLID
  5
AE4
330
A
100
AcDbEntity
  8
SOLDERMASK_PADS_BTM
100
AcDbTrace
 10
-6003.0
 20
619.5
 30
0.0
 11
-5633.0
 21
619.5
 31
0.0
 12
-6003.0
 22
919.5
 32
0.0
 13
-5633.0
 23
919.5
 33
0.0
  0
SOLID
  5
AE5
330
A
100
AcDbEntity
  8
SOLDERMASK_PADS_BTM
100
AcDbTrace
 10
3867.0
 20
3519.5
 30
0.0
 11
4237.0
 21
3519.5
 31
0.0
 12
3867.0
 22
3819.5
 32
0.0
 13
4237.0
 23
3819.5
 33
0.0
  0
SOLID
  5
AE6
330
A
100
AcDbEntity
  8
SOLDERMASK_PADS_BTM
100
AcDbTrace
 10
3867.0
 20
2969.5
 30
0.0
 11
4237.0
 21
2969.5
 31
0.0
 12
3867.0
 22
3269.5
 32
0.0
 13
4237.0
 23
3269.5
 33
0.0
  0
SOLID
  5
AE7
330
A
100
AcDbEntity
  8
SOLDERMASK_PADS_BTM
100
AcDbTrace
 10
-6003.0
 20
4694.5
 30
0.0
 11
-5633.0
 21
4694.5
 31
0.0
 12
-6003.0
 22
4994.5
 32
0.0
 13
-5633.0
 23
4994.5
 33
0.0
  0
SOLID
  5
AE8
330
A
100
AcDbEntity
  8
SOLDERMASK_PADS_BTM
100
AcDbTrace
 10
-6003.0
 20
4144.499999999999
 30
0.0
 11
-5633.0
 21
4144.499999999999
 31
0.0
 12
-6003.0
 22
4444.5
 32
0.0
 13
-5633.0
 23
4444.5
 33
0.0
  0
SOLID
  5
AE9
330
A
100
AcDbEntity
  8
SOLDERMASK_PADS_BTM
100
AcDbTrace
 10
5207.0
 20
3519.5
 30
0.0
 11
5577.0
 21
3519.5
 31
0.0
 12
5207.0
 22
3819.5
 32
0.0
 13
5577.0
 23
3819.5
 33
0.0
  0
SOLID
  5
AEA
330
A
100
AcDbEntity
  8
SOLDERMASK_PADS_BTM
100
AcDbTrace
 10
5207.0
 20
2969.5
 30
0.0
 11
5577.0
 21
2969.5
 31
0.0
 12
5207.0
 22
3269.5
 32
0.0
 13
5577.0
 23
3269.5
 33
0.0
  0
SOLID
  5
AEB
330
A
100
AcDbEntity
  8
SOLDERMASK_PADS_BTM
100
AcDbTrace
 10
-5333.0
 20
-3530.5
 30
0.0
 11
-4963.0
 21
-3530.5
 31
0.0
 12
-5333.0
 22
-3230.5
 32
0.0
 13
-4963.0
 23
-3230.5
 33
0.0
  0
SOLID
  5
AEC
330
A
100
AcDbEntity
  8
SOLDERMASK_PADS_BTM
100
AcDbTrace
 10
-5333.0
 20
-4080.499999999999
 30
0.0
 11
-4963.0
 21
-4080.499999999999
 31
0.0
 12
-5333.0
 22
-3780.5
 32
0.0
 13
-4963.0
 23
-3780.5
 33
0.0
  0
SOLID
  5
AED
330
A
100
AcDbEntity
  8
SOLDERMASK_PADS_BTM
100
AcDbTrace
 10
3867.0
 20
1169.5
 30
0.0
 11
4237.0
 21
1169.5
 31
0.0
 12
3867.0
 22
1469.5
 32
0.0
 13
4237.0
 23
1469.5
 33
0.0
  0
SOLID
  5
AEE
330
A
100
AcDbEntity
  8
SOLDERMASK_PADS_BTM
100
AcDbTrace
 10
3867.0
 20
619.5
 30
0.0
 11
4237.0
 21
619.5
 31
0.0
 12
3867.0
 22
919.5
 32
0.0
 13
4237.0
 23
919.5
 33
0.0
  0
SOLID
  5
AEF
330
A
100
AcDbEntity
  8
SOLDERMASK_PADS_BTM
100
AcDbTrace
 10
6547.0
 20
-5.5
 30
0.0
 11
6917.0
 21
-5.5
 31
0.0
 12
6547.0
 22
294.5
 32
0.0
 13
6917.0
 23
294.5
 33
0.0
  0
SOLID
  5
AF0
330
A
100
AcDbEntity
  8
SOLDERMASK_PADS_BTM
100
AcDbTrace
 10
6547.0
 20
-555.4999999999999
 30
0.0
 11
6917.0
 21
-555.4999999999999
 31
0.0
 12
6547.0
 22
-255.5
 32
0.0
 13
6917.0
 23
-255.5
 33
0.0
  0
SOLID
  5
AF1
330
A
100
AcDbEntity
  8
SOLDERMASK_PADS_BTM
100
AcDbTrace
 10
-5333.0
 20
-2355.5
 30
0.0
 11
-4963.0
 21
-2355.5
 31
0.0
 12
-5333.0
 22
-2055.5
 32
0.0
 13
-4963.0
 23
-2055.5
 33
0.0
  0
SOLID
  5
AF2
330
A
100
AcDbEntity
  8
SOLDERMASK_PADS_BTM
100
AcDbTrace
 10
-5333.0
 20
-2905.5
 30
0.0
 11
-4963.0
 21
-2905.5
 31
0.0
 12
-5333.0
 22
-2605.5
 32
0.0
 13
-4963.0
 23
-2605.5
 33
0.0
  0
SOLID
  5
AF3
330
A
100
AcDbEntity
  8
SOLDERMASK_PADS_BTM
100
AcDbTrace
 10
5207.0
 20
-2355.5
 30
0.0
 11
5577.0
 21
-2355.5
 31
0.0
 12
5207.0
 22
-2055.5
 32
0.0
 13
5577.0
 23
-2055.5
 33
0.0
  0
SOLID
  5
AF4
330
A
100
AcDbEntity
  8
SOLDERMASK_PADS_BTM
100
AcDbTrace
 10
5207.0
 20
-2905.5
 30
0.0
 11
5577.0
 21
-2905.5
 31
0.0
 12
5207.0
 22
-2605.5
 32
0.0
 13
5577.0
 23
-2605.5
 33
0.0
  0
SOLID
  5
AF5
330
A
100
AcDbEntity
  8
SOLDERMASK_PADS_BTM
100
AcDbTrace
 10
7217.0
 20
2344.5
 30
0.0
 11
7587.0
 21
2344.5
 31
0.0
 12
7217.0
 22
2644.5
 32
0.0
 13
7587.0
 23
2644.5
 33
0.0
  0
SOLID
  5
AF6
330
A
100
AcDbEntity
  8
SOLDERMASK_PADS_BTM
100
AcDbTrace
 10
7217.0
 20
1794.5
 30
0.0
 11
7587.0
 21
1794.5
 31
0.0
 12
7217.0
 22
2094.5
 32
0.0
 13
7587.0
 23
2094.5
 33
0.0
  0
SOLID
  5
AF7
330
A
100
AcDbEntity
  8
SOLDERMASK_PADS_BTM
100
AcDbTrace
 10
-5333.0
 20
2344.5
 30
0.0
 11
-4963.0
 21
2344.5
 31
0.0
 12
-5333.0
 22
2644.5
 32
0.0
 13
-4963.0
 23
2644.5
 33
0.0
  0
SOLID
  5
AF8
330
A
100
AcDbEntity
  8
SOLDERMASK_PADS_BTM
100
AcDbTrace
 10
-5333.0
 20
1794.5
 30
0.0
 11
-4963.0
 21
1794.5
 31
0.0
 12
-5333.0
 22
2094.5
 32
0.0
 13
-4963.0
 23
2094.5
 33
0.0
  0
SOLID
  5
AF9
330
A
100
AcDbEntity
  8
SOLDERMASK_PADS_BTM
100
AcDbTrace
 10
6547.0
 20
-2355.5
 30
0.0
 11
6917.0
 21
-2355.5
 31
0.0
 12
6547.0
 22
-2055.5
 32
0.0
 13
6917.0
 23
-2055.5
 33
0.0
  0
SOLID
  5
AFA
330
A
100
AcDbEntity
  8
SOLDERMASK_PADS_BTM
100
AcDbTrace
 10
6547.0
 20
-2905.5
 30
0.0
 11
6917.0
 21
-2905.5
 31
0.0
 12
6547.0
 22
-2605.5
 32
0.0
 13
6917.0
 23
-2605.5
 33
0.0
  0
SOLID
  5
AFB
330
A
100
AcDbEntity
  8
SOLDERMASK_PADS_BTM
100
AcDbTrace
 10
7887.0
 20
4694.5
 30
0.0
 11
8257.0
 21
4694.5
 31
0.0
 12
7887.0
 22
4994.5
 32
0.0
 13
8257.0
 23
4994.5
 33
0.0
  0
SOLID
  5
AFC
330
A
100
AcDbEntity
  8
SOLDERMASK_PADS_BTM
100
AcDbTrace
 10
7887.0
 20
4144.499999999999
 30
0.0
 11
8257.0
 21
4144.499999999999
 31
0.0
 12
7887.0
 22
4444.5
 32
0.0
 13
8257.0
 23
4444.5
 33
0.0
  0
SOLID
  5
AFD
330
A
100
AcDbEntity
  8
SOLDERMASK_PADS_BTM
100
AcDbTrace
 10
-5333.0
 20
3519.5
 30
0.0
 11
-4963.0
 21
3519.5
 31
0.0
 12
-5333.0
 22
3819.5
 32
0.0
 13
-4963.0
 23
3819.5
 33
0.0
  0
SOLID
  5
AFE
330
A
100
AcDbEntity
  8
SOLDERMASK_PADS_BTM
100
AcDbTrace
 10
-5333.0
 20
2969.5
 30
0.0
 11
-4963.0
 21
2969.5
 31
0.0
 12
-5333.0
 22
3269.5
 32
0.0
 13
-4963.0
 23
3269.5
 33
0.0
  0
SOLID
  5
AFF
330
A
100
AcDbEntity
  8
SOLDERMASK_PADS_BTM
100
AcDbTrace
 10
7217.0
 20
-5.5
 30
0.0
 11
7587.0
 21
-5.5
 31
0.0
 12
7217.0
 22
294.5
 32
0.0
 13
7587.0
 23
294.5
 33
0.0
  0
SOLID
  5
B00
330
A
100
AcDbEntity
  8
SOLDERMASK_PADS_BTM
100
AcDbTrace
 10
7217.0
 20
-555.4999999999999
 30
0.0
 11
7587.0
 21
-555.4999999999999
 31
0.0
 12
7217.0
 22
-255.5
 32
0.0
 13
7587.0
 23
-255.5
 33
0.0
  0
SOLID
  5
B01
330
A
100
AcDbEntity
  8
SOLDERMASK_PADS_BTM
100
AcDbTrace
 10
-5333.0
 20
4694.5
 30
0.0
 11
-4963.0
 21
4694.5
 31
0.0
 12
-5333.0
 22
4994.5
 32
0.0
 13
-4963.0
 23
4994.5
 33
0.0
  0
SOLID
  5
B02
330
A
100
AcDbEntity
  8
SOLDERMASK_PADS_BTM
100
AcDbTrace
 10
-5333.0
 20
4144.499999999999
 30
0.0
 11
-4963.0
 21
4144.499999999999
 31
0.0
 12
-5333.0
 22
4444.5
 32
0.0
 13
-4963.0
 23
4444.5
 33
0.0
  0
SOLID
  5
B03
330
A
100
AcDbEntity
  8
SOLDERMASK_PADS_BTM
100
AcDbTrace
 10
7887.0
 20
2344.5
 30
0.0
 11
8257.0
 21
2344.5
 31
0.0
 12
7887.0
 22
2644.5
 32
0.0
 13
8257.0
 23
2644.5
 33
0.0
  0
SOLID
  5
B04
330
A
100
AcDbEntity
  8
SOLDERMASK_PADS_BTM
100
AcDbTrace
 10
7887.0
 20
1794.5
 30
0.0
 11
8257.0
 21
1794.5
 31
0.0
 12
7887.0
 22
2094.5
 32
0.0
 13
8257.0
 23
2094.5
 33
0.0
  0
SOLID
  5
B05
330
A
100
AcDbEntity
  8
SOLDERMASK_PADS_BTM
100
AcDbTrace
 10
-4663.0
 20
2344.5
 30
0.0
 11
-4293.0
 21
2344.5
 31
0.0
 12
-4663.0
 22
2644.5
 32
0.0
 13
-4293.0
 23
2644.5
 33
0.0
  0
SOLID
  5
B06
330
A
100
AcDbEntity
  8
SOLDERMASK_PADS_BTM
100
AcDbTrace
 10
-4663.0
 20
1794.5
 30
0.0
 11
-4293.0
 21
1794.5
 31
0.0
 12
-4663.0
 22
2094.5
 32
0.0
 13
-4293.0
 23
2094.5
 33
0.0
  0
SOLID
  5
B07
330
A
100
AcDbEntity
  8
SOLDERMASK_PADS_BTM
100
AcDbTrace
 10
-4663.0
 20
-3530.5
 30
0.0
 11
-4293.0
 21
-3530.5
 31
0.0
 12
-4663.0
 22
-3230.5
 32
0.0
 13
-4293.0
 23
-3230.5
 33
0.0
  0
SOLID
  5
B08
330
A
100
AcDbEntity
  8
SOLDERMASK_PADS_BTM
100
AcDbTrace
 10
-4663.0
 20
-4080.499999999999
 30
0.0
 11
-4293.0
 21
-4080.499999999999
 31
0.0
 12
-4663.0
 22
-3780.5
 32
0.0
 13
-4293.0
 23
-3780.5
 33
0.0
  0
SOLID
  5
B09
330
A
100
AcDbEntity
  8
SOLDERMASK_PADS_BTM
100
AcDbTrace
 10
8557.0
 20
4694.5
 30
0.0
 11
8927.0
 21
4694.5
 31
0.0
 12
8557.0
 22
4994.5
 32
0.0
 13
8927.0
 23
4994.5
 33
0.0
  0
SOLID
  5
B0A
330
A
100
AcDbEntity
  8
SOLDERMASK_PADS_BTM
100
AcDbTrace
 10
8557.0
 20
4144.499999999999
 30
0.0
 11
8927.0
 21
4144.499999999999
 31
0.0
 12
8557.0
 22
4444.5
 32
0.0
 13
8927.0
 23
4444.5
 33
0.0
  0
SOLID
  5
B0B
330
A
100
AcDbEntity
  8
SOLDERMASK_PADS_BTM
100
AcDbTrace
 10
-4663.0
 20
-2355.5
 30
0.0
 11
-4293.0
 21
-2355.5
 31
0.0
 12
-4663.0
 22
-2055.5
 32
0.0
 13
-4293.0
 23
-2055.5
 33
0.0
  0
SOLID
  5
B0C
330
A
100
AcDbEntity
  8
SOLDERMASK_PADS_BTM
100
AcDbTrace
 10
-4663.0
 20
-2905.5
 30
0.0
 11
-4293.0
 21
-2905.5
 31
0.0
 12
-4663.0
 22
-2605.5
 32
0.0
 13
-4293.0
 23
-2605.5
 33
0.0
  0
SOLID
  5
B0D
330
A
100
AcDbEntity
  8
SOLDERMASK_PADS_BTM
100
AcDbTrace
 10
-4663.0
 20
3519.5
 30
0.0
 11
-4293.0
 21
3519.5
 31
0.0
 12
-4663.0
 22
3819.5
 32
0.0
 13
-4293.0
 23
3819.5
 33
0.0
  0
SOLID
  5
B0E
330
A
100
AcDbEntity
  8
SOLDERMASK_PADS_BTM
100
AcDbTrace
 10
-4663.0
 20
2969.5
 30
0.0
 11
-4293.0
 21
2969.5
 31
0.0
 12
-4663.0
 22
3269.5
 32
0.0
 13
-4293.0
 23
3269.5
 33
0.0
  0
SOLID
  5
B0F
330
A
100
AcDbEntity
  8
SOLDERMASK_PADS_BTM
100
AcDbTrace
 10
-4663.0
 20
4694.5
 30
0.0
 11
-4293.0
 21
4694.5
 31
0.0
 12
-4663.0
 22
4994.5
 32
0.0
 13
-4293.0
 23
4994.5
 33
0.0
  0
SOLID
  5
B10
330
A
100
AcDbEntity
  8
SOLDERMASK_PADS_BTM
100
AcDbTrace
 10
-4663.0
 20
4144.499999999999
 30
0.0
 11
-4293.0
 21
4144.499999999999
 31
0.0
 12
-4663.0
 22
4444.5
 32
0.0
 13
-4293.0
 23
4444.5
 33
0.0
  0
SOLID
  5
B11
330
A
100
AcDbEntity
  8
SOLDERMASK_PADS_BTM
100
AcDbTrace
 10
-3993.0
 20
-3530.5
 30
0.0
 11
-3623.0
 21
-3530.5
 31
0.0
 12
-3993.0
 22
-3230.5
 32
0.0
 13
-3623.0
 23
-3230.5
 33
0.0
  0
SOLID
  5
B12
330
A
100
AcDbEntity
  8
SOLDERMASK_PADS_BTM
100
AcDbTrace
 10
-3993.0
 20
-4080.499999999999
 30
0.0
 11
-3623.0
 21
-4080.499999999999
 31
0.0
 12
-3993.0
 22
-3780.5
 32
0.0
 13
-3623.0
 23
-3780.5
 33
0.0
  0
SOLID
  5
B13
330
A
100
AcDbEntity
  8
SOLDERMASK_PADS_BTM
100
AcDbTrace
 10
-3993.0
 20
-2355.5
 30
0.0
 11
-3623.0
 21
-2355.5
 31
0.0
 12
-3993.0
 22
-2055.5
 32
0.0
 13
-3623.0
 23
-2055.5
 33
0.0
  0
SOLID
  5
B14
330
A
100
AcDbEntity
  8
SOLDERMASK_PADS_BTM
100
AcDbTrace
 10
-3993.0
 20
-2905.5
 30
0.0
 11
-3623.0
 21
-2905.5
 31
0.0
 12
-3993.0
 22
-2605.5
 32
0.0
 13
-3623.0
 23
-2605.5
 33
0.0
  0
SOLID
  5
B15
330
A
100
AcDbEntity
  8
SOLDERMASK_PADS_BTM
100
AcDbTrace
 10
-3993.0
 20
2344.5
 30
0.0
 11
-3623.0
 21
2344.5
 31
0.0
 12
-3993.0
 22
2644.5
 32
0.0
 13
-3623.0
 23
2644.5
 33
0.0
  0
SOLID
  5
B16
330
A
100
AcDbEntity
  8
SOLDERMASK_PADS_BTM
100
AcDbTrace
 10
-3993.0
 20
1794.5
 30
0.0
 11
-3623.0
 21
1794.5
 31
0.0
 12
-3993.0
 22
2094.5
 32
0.0
 13
-3623.0
 23
2094.5
 33
0.0
  0
SOLID
  5
B17
330
A
100
AcDbEntity
  8
SOLDERMASK_PADS_BTM
100
AcDbTrace
 10
-3993.0
 20
3519.5
 30
0.0
 11
-3623.0
 21
3519.5
 31
0.0
 12
-3993.0
 22
3819.5
 32
0.0
 13
-3623.0
 23
3819.5
 33
0.0
  0
SOLID
  5
B18
330
A
100
AcDbEntity
  8
SOLDERMASK_PADS_BTM
100
AcDbTrace
 10
-3993.0
 20
2969.5
 30
0.0
 11
-3623.0
 21
2969.5
 31
0.0
 12
-3993.0
 22
3269.5
 32
0.0
 13
-3623.0
 23
3269.5
 33
0.0
  0
SOLID
  5
B19
330
A
100
AcDbEntity
  8
SOLDERMASK_PADS_BTM
100
AcDbTrace
 10
-3993.0
 20
4694.5
 30
0.0
 11
-3623.0
 21
4694.5
 31
0.0
 12
-3993.0
 22
4994.5
 32
0.0
 13
-3623.0
 23
4994.5
 33
0.0
  0
SOLID
  5
B1A
330
A
100
AcDbEntity
  8
SOLDERMASK_PADS_BTM
100
AcDbTrace
 10
-3993.0
 20
4144.499999999999
 30
0.0
 11
-3623.0
 21
4144.499999999999
 31
0.0
 12
-3993.0
 22
4444.5
 32
0.0
 13
-3623.0
 23
4444.5
 33
0.0
  0
SOLID
  5
B1B
330
A
100
AcDbEntity
  8
SOLDERMASK_PADS_BTM
100
AcDbTrace
 10
-3323.0
 20
-1180.5
 30
0.0
 11
-2953.0
 21
-1180.5
 31
0.0
 12
-3323.0
 22
-880.4999999999999
 32
0.0
 13
-2953.0
 23
-880.4999999999999
 33
0.0
  0
SOLID
  5
B1C
330
A
100
AcDbEntity
  8
SOLDERMASK_PADS_BTM
100
AcDbTrace
 10
-3323.0
 20
-1730.5
 30
0.0
 11
-2953.0
 21
-1730.5
 31
0.0
 12
-3323.0
 22
-1430.5
 32
0.0
 13
-2953.0
 23
-1430.5
 33
0.0
  0
SOLID
  5
B1D
330
A
100
AcDbEntity
  8
SOLDERMASK_PADS_BTM
100
AcDbTrace
 10
-3323.0
 20
-3530.5
 30
0.0
 11
-2953.0
 21
-3530.5
 31
0.0
 12
-3323.0
 22
-3230.5
 32
0.0
 13
-2953.0
 23
-3230.5
 33
0.0
  0
SOLID
  5
B1E
330
A
100
AcDbEntity
  8
SOLDERMASK_PADS_BTM
100
AcDbTrace
 10
-3323.0
 20
-4080.499999999999
 30
0.0
 11
-2953.0
 21
-4080.499999999999
 31
0.0
 12
-3323.0
 22
-3780.5
 32
0.0
 13
-2953.0
 23
-3780.5
 33
0.0
  0
SOLID
  5
B1F
330
A
100
AcDbEntity
  8
SOLDERMASK_PADS_BTM
100
AcDbTrace
 10
-3323.0
 20
-2355.5
 30
0.0
 11
-2953.0
 21
-2355.5
 31
0.0
 12
-3323.0
 22
-2055.5
 32
0.0
 13
-2953.0
 23
-2055.5
 33
0.0
  0
SOLID
  5
B20
330
A
100
AcDbEntity
  8
SOLDERMASK_PADS_BTM
100
AcDbTrace
 10
-3323.0
 20
-2905.5
 30
0.0
 11
-2953.0
 21
-2905.5
 31
0.0
 12
-3323.0
 22
-2605.5
 32
0.0
 13
-2953.0
 23
-2605.5
 33
0.0
  0
SOLID
  5
B21
330
A
100
AcDbEntity
  8
SOLDERMASK_PADS_BTM
100
AcDbTrace
 10
-3323.0
 20
-555.4999999999999
 30
0.0
 11
-2953.0
 21
-555.4999999999999
 31
0.0
 12
-3323.0
 22
-255.5
 32
0.0
 13
-2953.0
 23
-255.5
 33
0.0
  0
SOLID
  5
B22
330
A
100
AcDbEntity
  8
SOLDERMASK_PADS_BTM
100
AcDbTrace
 10
-3323.0
 20
-5.5
 30
0.0
 11
-2953.0
 21
-5.5
 31
0.0
 12
-3323.0
 22
294.5
 32
0.0
 13
-2953.0
 23
294.5
 33
0.0
  0
SOLID
  5
B23
330
A
100
AcDbEntity
  8
SOLDERMASK_PADS_BTM
100
AcDbTrace
 10
-3323.0
 20
1169.5
 30
0.0
 11
-2953.0
 21
1169.5
 31
0.0
 12
-3323.0
 22
1469.5
 32
0.0
 13
-2953.0
 23
1469.5
 33
0.0
  0
SOLID
  5
B24
330
A
100
AcDbEntity
  8
SOLDERMASK_PADS_BTM
100
AcDbTrace
 10
-3323.0
 20
619.5
 30
0.0
 11
-2953.0
 21
619.5
 31
0.0
 12
-3323.0
 22
919.5
 32
0.0
 13
-2953.0
 23
919.5
 33
0.0
  0
SOLID
  5
B25
330
A
100
AcDbEntity
  8
SOLDERMASK_PADS_BTM
100
AcDbTrace
 10
-3323.0
 20
2344.5
 30
0.0
 11
-2953.0
 21
2344.5
 31
0.0
 12
-3323.0
 22
2644.5
 32
0.0
 13
-2953.0
 23
2644.5
 33
0.0
  0
SOLID
  5
B26
330
A
100
AcDbEntity
  8
SOLDERMASK_PADS_BTM
100
AcDbTrace
 10
-3323.0
 20
1794.5
 30
0.0
 11
-2953.0
 21
1794.5
 31
0.0
 12
-3323.0
 22
2094.5
 32
0.0
 13
-2953.0
 23
2094.5
 33
0.0
  0
SOLID
  5
B27
330
A
100
AcDbEntity
  8
SOLDERMASK_PADS_BTM
100
AcDbTrace
 10
-3323.0
 20
3519.5
 30
0.0
 11
-2953.0
 21
3519.5
 31
0.0
 12
-3323.0
 22
3819.5
 32
0.0
 13
-2953.0
 23
3819.5
 33
0.0
  0
SOLID
  5
B28
330
A
100
AcDbEntity
  8
SOLDERMASK_PADS_BTM
100
AcDbTrace
 10
-3323.0
 20
2969.5
 30
0.0
 11
-2953.0
 21
2969.5
 31
0.0
 12
-3323.0
 22
3269.5
 32
0.0
 13
-2953.0
 23
3269.5
 33
0.0
  0
SOLID
  5
B29
330
A
100
AcDbEntity
  8
SOLDERMASK_PADS_BTM
100
AcDbTrace
 10
-3323.0
 20
4694.5
 30
0.0
 11
-2953.0
 21
4694.5
 31
0.0
 12
-3323.0
 22
4994.5
 32
0.0
 13
-2953.0
 23
4994.5
 33
0.0
  0
SOLID
  5
B2A
330
A
100
AcDbEntity
  8
SOLDERMASK_PADS_BTM
100
AcDbTrace
 10
-3323.0
 20
4144.499999999999
 30
0.0
 11
-2953.0
 21
4144.499999999999
 31
0.0
 12
-3323.0
 22
4444.5
 32
0.0
 13
-2953.0
 23
4444.5
 33
0.0
  0
SOLID
  5
B2B
330
A
100
AcDbEntity
  8
SOLDERMASK_PADS_BTM
100
AcDbTrace
 10
-2653.0
 20
-3530.5
 30
0.0
 11
-2283.0
 21
-3530.5
 31
0.0
 12
-2653.0
 22
-3230.5
 32
0.0
 13
-2283.0
 23
-3230.5
 33
0.0
  0
SOLID
  5
B2C
330
A
100
AcDbEntity
  8
SOLDERMASK_PADS_BTM
100
AcDbTrace
 10
-2653.0
 20
-4080.499999999999
 30
0.0
 11
-2283.0
 21
-4080.499999999999
 31
0.0
 12
-2653.0
 22
-3780.5
 32
0.0
 13
-2283.0
 23
-3780.5
 33
0.0
  0
SOLID
  5
B2D
330
A
100
AcDbEntity
  8
SOLDERMASK_PADS_BTM
100
AcDbTrace
 10
-2653.0
 20
-2355.5
 30
0.0
 11
-2283.0
 21
-2355.5
 31
0.0
 12
-2653.0
 22
-2055.5
 32
0.0
 13
-2283.0
 23
-2055.5
 33
0.0
  0
SOLID
  5
B2E
330
A
100
AcDbEntity
  8
SOLDERMASK_PADS_BTM
100
AcDbTrace
 10
-2653.0
 20
-2905.5
 30
0.0
 11
-2283.0
 21
-2905.5
 31
0.0
 12
-2653.0
 22
-2605.5
 32
0.0
 13
-2283.0
 23
-2605.5
 33
0.0
  0
SOLID
  5
B2F
330
A
100
AcDbEntity
  8
SOLDERMASK_PADS_BTM
100
AcDbTrace
 10
-2653.0
 20
1169.5
 30
0.0
 11
-2283.0
 21
1169.5
 31
0.0
 12
-2653.0
 22
1469.5
 32
0.0
 13
-2283.0
 23
1469.5
 33
0.0
  0
SOLID
  5
B30
330
A
100
AcDbEntity
  8
SOLDERMASK_PADS_BTM
100
AcDbTrace
 10
-2653.0
 20
619.5
 30
0.0
 11
-2283.0
 21
619.5
 31
0.0
 12
-2653.0
 22
919.5
 32
0.0
 13
-2283.0
 23
919.5
 33
0.0
  0
SOLID
  5
B31
330
A
100
AcDbEntity
  8
SOLDERMASK_PADS_BTM
100
AcDbTrace
 10
-2653.0
 20
-1180.5
 30
0.0
 11
-2283.0
 21
-1180.5
 31
0.0
 12
-2653.0
 22
-880.4999999999999
 32
0.0
 13
-2283.0
 23
-880.4999999999999
 33
0.0
  0
SOLID
  5
B32
330
A
100
AcDbEntity
  8
SOLDERMASK_PADS_BTM
100
AcDbTrace
 10
-2653.0
 20
-1730.5
 30
0.0
 11
-2283.0
 21
-1730.5
 31
0.0
 12
-2653.0
 22
-1430.5
 32
0.0
 13
-2283.0
 23
-1430.5
 33
0.0
  0
SOLID
  5
B33
330
A
100
AcDbEntity
  8
SOLDERMASK_PADS_BTM
100
AcDbTrace
 10
-2653.0
 20
2344.5
 30
0.0
 11
-2283.0
 21
2344.5
 31
0.0
 12
-2653.0
 22
2644.5
 32
0.0
 13
-2283.0
 23
2644.5
 33
0.0
  0
SOLID
  5
B34
330
A
100
AcDbEntity
  8
SOLDERMASK_PADS_BTM
100
AcDbTrace
 10
-2653.0
 20
1794.5
 30
0.0
 11
-2283.0
 21
1794.5
 31
0.0
 12
-2653.0
 22
2094.5
 32
0.0
 13
-2283.0
 23
2094.5
 33
0.0
  0
SOLID
  5
B35
330
A
100
AcDbEntity
  8
SOLDERMASK_PADS_BTM
100
AcDbTrace
 10
-2653.0
 20
-5.5
 30
0.0
 11
-2283.0
 21
-5.5
 31
0.0
 12
-2653.0
 22
294.5
 32
0.0
 13
-2283.0
 23
294.5
 33
0.0
  0
SOLID
  5
B36
330
A
100
AcDbEntity
  8
SOLDERMASK_PADS_BTM
100
AcDbTrace
 10
-2653.0
 20
-555.4999999999999
 30
0.0
 11
-2283.0
 21
-555.4999999999999
 31
0.0
 12
-2653.0
 22
-255.5
 32
0.0
 13
-2283.0
 23
-255.5
 33
0.0
  0
LWPOLYLINE
  5
B38
102
{ACAD_REACTORS
330
26F7
330
26F9
330
2704
330
2706
102
}
330
A
100
AcDbEntity
  8
PKG_OUTLINE
100
AcDbPolyline
 90
        8
 70
     1
 43
0.0
 10
10871.494
 20
-18750.0
 10
18750.0
 20
-18750.0
 91
        1
 10
18750.0
 20
18750.0
 91
        2
 10
10871.494
 20
18750.0
 42
-0.830616
 10
8728.506000000001
 20
18750.0
 91
        5
 10
-18750.0
 20
18750.0
 91
        3
 10
-18750.0
 20
-18750.0
 91
        4
 10
8728.506000000001
 20
-18750.0
 42
-0.830616
 91
        6
  0
INSERT
  5
26FD
102
{ACAD_REACTORS
330
26FF
102
}
330
A
100
AcDbEntity
  8
0
  6
CENTER2
100
AcDbBlockReference
  2
*U0
 10
0.0
 20
0.0
 30
0.0
  0
INSERT
  5
270A
102
{ACAD_REACTORS
330
270B
102
}
330
A
100
AcDbEntity
  8
0
  6
CENTER2
100
AcDbBlockReference
  2
*U1
 10
-5010.746999999999
 20
0.0
 30
0.0
  0
ENDSEC
  0
SECTION
  2
OBJECTS
  0
DICTIONARY
  5
16
330
0
100
AcDbDictionary
281
     1
  3
ACAD_ASSOCNETWORK
350
26F2
  3
ACAD_CIP_PREVIOUS_PRODUCT_INFO
350
26EE
  3
ACAD_COLOR
350
26CE
  3
ACAD_DETAILVIEWSTYLE
350
26E8
  3
ACAD_GROUP
350
17
  3
ACAD_LAYOUT
350
26CF
  3
ACAD_MATERIAL
350
269C
  3
ACAD_MLEADERSTYLE
350
26E4
  3
ACAD_MLINESTYLE
350
18
  3
ACAD_PLOTSETTINGS
350
26EA
  3
ACAD_PLOTSTYLENAME
350
269A
  3
ACAD_SCALELIST
350
26D2
  3
ACAD_SECTIONVIEWSTYLE
350
26E6
  3
ACAD_TABLESTYLE
350
26D0
  3
ACAD_VISUALSTYLE
350
26B5
  3
ACDB_RECOMPOSE_DATA
350
272A
  3
AcDbVariableDictionary
350
271D
  3
ASE_INDEX_DICTIONARY
350
271A
  0
DICTIONARY
  5
270D
330
B39
100
AcDbDictionary
280
     1
281
     1
  3
ADSK_XREC_LAYER_RECONCILED
360
270E
  0
DICTIONARY
  5
270F
330
B3A
100
AcDbDictionary
280
     1
281
     1
  3
ADSK_XREC_LAYER_RECONCILED
360
2710
  0
DICTIONARY
  5
2711
330
B3B
100
AcDbDictionary
280
     1
281
     1
  3
ADSK_XREC_LAYER_RECONCILED
360
2712
  0
DICTIONARY
  5
2713
330
B3C
100
AcDbDictionary
280
     1
281
     1
  3
ADSK_XREC_LAYER_RECONCILED
360
2714
  0
DICTIONARY
  5
2715
330
B3D
100
AcDbDictionary
280
     1
281
     1
  3
ADSK_XREC_LAYER_RECONCILED
360
2716
  0
DICTIONARY
  5
2717
330
B3E
100
AcDbDictionary
280
     1
281
     1
  3
ADSK_XREC_LAYER_RECONCILED
360
2718
  0
DICTIONARY
  5
26EF
330
A
100
AcDbDictionary
280
     1
281
     1
  3
ACAD_ASSOCNETWORK
360
26F0
  0
DICTIONARY
  5
26F2
102
{ACAD_REACTORS
330
16
102
}
330
16
100
AcDbDictionary
281
     1
  3
ACAD_ASSOCNETWORK
350
26F3
  0
XRECORD
  5
26EE
102
{ACAD_REACTORS
330
16
102
}
330
16
100
AcDbXrecord
280
     1
300
ACD
300
2021
300

  0
DICTIONARY
  5
26CE
102
{ACAD_REACTORS
330
16
102
}
330
16
100
AcDbDictionary
281
     1
  0
DICTIONARY
  5
26E8
102
{ACAD_REACTORS
330
16
102
}
330
16
100
AcDbDictionary
281
     1
  3
Imperial24
350
26E9
  0
DICTIONARY
  5
17
102
{ACAD_REACTORS
330
16
102
}
330
16
100
AcDbDictionary
281
     1
  0
DICTIONARY
  5
26CF
102
{ACAD_REACTORS
330
16
102
}
330
16
100
AcDbDictionary
281
     1
  3
Layout1
350
26EC
  3
Model
350
26EB
  0
DICTIONARY
  5
269C
102
{ACAD_REACTORS
330
16
102
}
330
16
100
AcDbDictionary
281
     1
  3
ByBlock
350
26A5
  3
ByLayer
350
269D
  3
Global
350
26AD
  0
DICTIONARY
  5
26E4
102
{ACAD_REACTORS
330
16
102
}
330
16
100
AcDbDictionary
281
     1
  3
Standard
350
26E5
  0
DICTIONARY
  5
18
102
{ACAD_REACTORS
330
16
102
}
330
16
100
AcDbDictionary
281
     1
  3
STANDARD
350
19
  0
DICTIONARY
  5
26EA
102
{ACAD_REACTORS
330
16
102
}
330
16
100
AcDbDictionary
281
     1
  0
ACDBDICTIONARYWDFLT
  5
269A
102
{ACAD_REACTORS
330
16
102
}
330
16
100
AcDbDictionary
281
     1
  3
Normal
350
269B
100
AcDbDictionaryWithDefault
340
269B
  0
DICTIONARY
  5
26D2
102
{ACAD_REACTORS
330
16
102
}
330
16
100
AcDbDictionary
281
     1
  3
A0
350
26D3
  3
A1
350
26D4
  3
A2
350
26D5
  3
A3
350
26D6
  3
A4
350
26D7
  3
A5
350
26D8
  3
A6
350
26D9
  3
A7
350
26DA
  3
A8
350
26DB
  3
A9
350
26DC
  3
B0
350
26DD
  3
B1
350
26DE
  3
B2
350
26DF
  3
B3
350
26E0
  3
B4
350
26E1
  3
B5
350
26E2
  3
B6
350
26E3
  0
DICTIONARY
  5
26E6
102
{ACAD_REACTORS
330
16
102
}
330
16
100
AcDbDictionary
281
     1
  3
Imperial24
350
26E7
  0
DICTIONARY
  5
26D0
102
{ACAD_REACTORS
330
16
102
}
330
16
100
AcDbDictionary
281
     1
  3
Standard
350
26D1
  0
DICTIONARY
  5
26B5
102
{ACAD_REACTORS
330
16
102
}
330
16
100
AcDbDictionary
281
     1
  3
2dWireframe
350
26BB
  3
Basic
350
26BA
  3
Brighten
350
26C1
  3
ColorChange
350
26C5
  3
Conceptual
350
26BE
  3
Dim
350
26C0
  3
EdgeColorOff
350
26CD
  3
Facepattern
350
26C4
  3
Flat
350
26B6
  3
FlatWithEdges
350
26B7
  3
Gouraud
350
26B8
  3
GouraudWithEdges
350
26B9
  3
Hidden
350
26BD
  3
JitterOff
350
26CB
  3
Linepattern
350
26C3
  3
OverhangOff
350
26CC
  3
Realistic
350
26BF
  3
Shaded
350
26CA
  3
Shaded with edges
350
26C9
  3
Shades of Gray
350
26C6
  3
Sketchy
350
26C7
  3
Thicken
350
26C2
  3
Wireframe
350
26BC
  3
X-Ray
350
26C8
  0
XRECORD
  5
272A
102
{ACAD_REACTORS
330
16
102
}
330
16
100
AcDbXrecord
280
     1
 90
        1
330
26D1
  0
DICTIONARY
  5
271D
102
{ACAD_REACTORS
330
16
102
}
330
16
100
AcDbDictionary
281
     1
  3
CANNOSCALE
350
2723
  3
CMLEADERSTYLE
350
271F
  3
CTABLESTYLE
350
271E
  3
CVIEWDETAILSTYLE
350
2720
  3
CVIEWSECTIONSTYLE
350
2721
  3
LAYEREVAL
350
2725
  3
LAYERNOTIFY
350
2726
  3
LIGHTINGUNITS
350
2724
  3
MSLTSCALE
350
2722
  0
DICTIONARY
  5
271A
102
{ACAD_REACTORS
330
16
102
}
330
16
100
AcDbDictionary
281
     1
  3
ASEBlockHierarchyIndexRecord
350
271C
1001
DCO15
1040
2070502059.0
  0
XRECORD
  5
270E
102
{ACAD_REACTORS
330
270D
102
}
330
270D
100
AcDbXrecord
280
     1
290
     1
  0
XRECORD
  5
2710
102
{ACAD_REACTORS
330
270F
102
}
330
270F
100
AcDbXrecord
280
     1
290
     1
  0
XRECORD
  5
2712
102
{ACAD_REACTORS
330
2711
102
}
330
2711
100
AcDbXrecord
280
     1
290
     1
  0
XRECORD
  5
2714
102
{ACAD_REACTORS
330
2713
102
}
330
2713
100
AcDbXrecord
280
     1
290
     1
  0
XRECORD
  5
2716
102
{ACAD_REACTORS
330
2715
102
}
330
2715
100
AcDbXrecord
280
     1
290
     1
  0
XRECORD
  5
2718
102
{ACAD_REACTORS
330
2717
102
}
330
2717
100
AcDbXrecord
280
     1
290
     1
  0
DICTIONARY
  5
26F0
102
{ACAD_REACTORS
330
26EF
102
}
330
26EF
100
AcDbDictionary
281
     1
  3
ACAD_ASSOCNETWORK
350
26F1
  0
ACDBASSOCNETWORK
  5
26F3
102
{ACAD_REACTORS
330
26F2
102
}
330
26F2
100
AcDbAssocAction
 90
        2
 90
        0
330
0
360
0
 90
        0
 90
        0
 90
        0
 90
        0
 90
        0
 90
        0
 90
        0
100
AcDbAssocNetwork
 90
        0
 90
        1
 90
        1
330
26F1
 90
        0
  0
ACDBDETAILVIEWSTYLE
  5
26E9
102
{ACAD_REACTORS
330
26E8
102
}
330
26E8
100
AcDbModelDocViewStyle
 70
     0
  3
Imperial24
290
     0
300
Imperial24
 90
        0
100
AcDbDetailViewStyle
 70
     0
 71
     0
 90
        3
 71
     1
340
B3F
 62
   256
 40
0.24
340
0
 62
   256
 40
0.24
300

 40
0.36
280
     3
 71
     2
340
12
 90
       25
 62
   256
 71
     3
340
B3F
 62
   256
 40
0.24
 90
        1
 40
0.75
 90
        1
300
%<\AcVar ViewType \f "%tc1">% %<\AcVar ViewDetailId>%\PSCALE %<\AcVar ViewScale \f "%sn">%
 71
     4
340
12
 90
       25
 62
   256
340
12
 90
       25
 62
   256
280
     0
  0
LAYOUT
  5
26EC
102
{ACAD_REACTORS
330
26CF
102
}
330
26CF
100
AcDbPlotSettings
  1

  2
Intel Cloud Print
  4

  6

 40
0.0
 41
0.0
 42
0.0
 43
0.0
 44
0.0
 45
0.0
 46
0.0
 47
0.0
 48
0.0
 49
0.0
140
0.0
141
0.0
142
1.0
143
1.0
 70
   688
 72
     0
 73
     0
 74
     5
  7

 75
    16
147
1.0
 76
     0
 77
     2
 78
   300
148
0.0
149
0.0
100
AcDbLayout
  1
Layout1
 70
     0
 71
     1
 10
0.0
 20
0.0
 11
12.0
 21
9.0
 12
0.0
 22
0.0
 32
0.0
 14
1.000000000000000E+20
 24
1.000000000000000E+20
 34
1.000000000000000E+20
 15
-1.000000000000000E+20
 25
-1.000000000000000E+20
 35
-1.000000000000000E+20
146
0.0
 13
0.0
 23
0.0
 33
0.0
 16
1.0
 26
0.0
 36
0.0
 17
0.0
 27
1.0
 37
0.0
 76
     0
330
B
  0
LAYOUT
  5
26EB
102
{ACAD_REACTORS
330
26CF
102
}
330
26CF
100
AcDbPlotSettings
  1

  2
Intel Cloud Print
  4

  6

 40
0.0
 41
0.0
 42
0.0
 43
0.0
 44
0.0
 45
0.0
 46
0.0
 47
0.0
 48
0.0
 49
0.0
140
0.0
141
0.0
142
1.0
143
1.0
 70
  1712
 72
     0
 73
     0
 74
     0
  7

 75
     0
147
1.0
 76
     0
 77
     2
 78
   300
148
0.0
149
0.0
100
AcDbLayout
  1
Model
 70
     1
 71
     0
 10
0.0
 20
0.0
 11
12.0
 21
9.0
 12
0.0
 22
0.0
 32
0.0
 14
0.0
 24
0.0
 34
0.0
 15
0.0
 25
0.0
 35
0.0
146
0.0
 13
0.0
 23
0.0
 33
0.0
 16
1.0
 26
0.0
 36
0.0
 17
0.0
 27
1.0
 37
0.0
 76
     0
330
A
331
13
  0
MATERIAL
  5
26A5
102
{ACAD_XDICTIONARY
360
26A6
102
}
102
{ACAD_REACTORS
330
269C
102
}
330
269C
100
AcDbMaterial
  1
ByBlock
 72
     0
 43
0.0208333333333333
 43
0.0
 43
0.0
 43
0.0
 43
0.0
 43
0.0208333333333333
 43
0.0
 43
0.0
 43
0.0
 43
0.0
 43
1.0
 43
0.0
 43
0.0
 43
0.0
 43
0.0
 43
1.0
 77
     0
 47
0.0208333333333333
 47
0.0
 47
0.0
 47
0.0
 47
0.0
 47
0.0208333333333333
 47
0.0
 47
0.0
 47
0.0
 47
0.0
 47
1.0
 47
0.0
 47
0.0
 47
0.0
 47
0.0
 47
1.0
171
     0
 49
0.0208333333333333
 49
0.0
 49
0.0
 49
0.0
 49
0.0
 49
0.0208333333333333
 49
0.0
 49
0.0
 49
0.0
 49
0.0
 49
1.0
 49
0.0
 49
0.0
 49
0.0
 49
0.0
 49
1.0
175
     0
142
0.0208333333333333
142
0.0
142
0.0
142
0.0
142
0.0
142
0.0208333333333333
142
0.0
142
0.0
142
0.0
142
0.0
142
1.0
142
0.0
142
0.0
142
0.0
142
0.0
142
1.0
179
     0
144
0.0208333333333333
144
0.0
144
0.0
144
0.0
144
0.0
144
0.0208333333333333
144
0.0
144
0.0
144
0.0
144
0.0
144
1.0
144
0.0
144
0.0
144
0.0
144
0.0
144
1.0
147
0.0208333333333333
147
0.0
147
0.0
147
0.0
147
0.0
147
0.0208333333333333
147
0.0
147
0.0
147
0.0
147
0.0
147
1.0
147
0.0
147
0.0
147
0.0
147
0.0
147
1.0
  0
MATERIAL
  5
269D
102
{ACAD_XDICTIONARY
360
269E
102
}
102
{ACAD_REACTORS
330
269C
102
}
330
269C
100
AcDbMaterial
  1
ByLayer
 72
     0
 43
0.0208333333333333
 43
0.0
 43
0.0
 43
0.0
 43
0.0
 43
0.0208333333333333
 43
0.0
 43
0.0
 43
0.0
 43
0.0
 43
1.0
 43
0.0
 43
0.0
 43
0.0
 43
0.0
 43
1.0
 77
     0
 47
0.0208333333333333
 47
0.0
 47
0.0
 47
0.0
 47
0.0
 47
0.0208333333333333
 47
0.0
 47
0.0
 47
0.0
 47
0.0
 47
1.0
 47
0.0
 47
0.0
 47
0.0
 47
0.0
 47
1.0
171
     0
 49
0.0208333333333333
 49
0.0
 49
0.0
 49
0.0
 49
0.0
 49
0.0208333333333333
 49
0.0
 49
0.0
 49
0.0
 49
0.0
 49
1.0
 49
0.0
 49
0.0
 49
0.0
 49
0.0
 49
1.0
175
     0
142
0.0208333333333333
142
0.0
142
0.0
142
0.0
142
0.0
142
0.0208333333333333
142
0.0
142
0.0
142
0.0
142
0.0
142
1.0
142
0.0
142
0.0
142
0.0
142
0.0
142
1.0
179
     0
144
0.0208333333333333
144
0.0
144
0.0
144
0.0
144
0.0
144
0.0208333333333333
144
0.0
144
0.0
144
0.0
144
0.0
144
1.0
144
0.0
144
0.0
144
0.0
144
0.0
144
1.0
147
0.0208333333333333
147
0.0
147
0.0
147
0.0
147
0.0
147
0.0208333333333333
147
0.0
147
0.0
147
0.0
147
0.0
147
1.0
147
0.0
147
0.0
147
0.0
147
0.0
147
1.0
  0
MATERIAL
  5
26AD
102
{ACAD_XDICTIONARY
360
26AE
102
}
102
{ACAD_REACTORS
330
269C
102
}
330
269C
100
AcDbMaterial
  1
Global
 72
     0
 43
0.0208333333333333
 43
0.0
 43
0.0
 43
0.0
 43
0.0
 43
0.0208333333333333
 43
0.0
 43
0.0
 43
0.0
 43
0.0
 43
1.0
 43
0.0
 43
0.0
 43
0.0
 43
0.0
 43
1.0
 77
     0
 47
0.0208333333333333
 47
0.0
 47
0.0
 47
0.0
 47
0.0
 47
0.0208333333333333
 47
0.0
 47
0.0
 47
0.0
 47
0.0
 47
1.0
 47
0.0
 47
0.0
 47
0.0
 47
0.0
 47
1.0
171
     0
 49
0.0208333333333333
 49
0.0
 49
0.0
 49
0.0
 49
0.0
 49
0.0208333333333333
 49
0.0
 49
0.0
 49
0.0
 49
0.0
 49
1.0
 49
0.0
 49
0.0
 49
0.0
 49
0.0
 49
1.0
175
     0
142
0.0208333333333333
142
0.0
142
0.0
142
0.0
142
0.0
142
0.0208333333333333
142
0.0
142
0.0
142
0.0
142
0.0
142
1.0
142
0.0
142
0.0
142
0.0
142
0.0
142
1.0
179
     0
144
0.0208333333333333
144
0.0
144
0.0
144
0.0
144
0.0
144
0.0208333333333333
144
0.0
144
0.0
144
0.0
144
0.0
144
1.0
144
0.0
144
0.0
144
0.0
144
0.0
144
1.0
147
0.0208333333333333
147
0.0
147
0.0
147
0.0
147
0.0
147
0.0208333333333333
147
0.0
147
0.0
147
0.0
147
0.0
147
1.0
147
0.0
147
0.0
147
0.0
147
0.0
147
1.0
  0
MLEADERSTYLE
  5
26E5
102
{ACAD_REACTORS
330
26E4
102
}
330
26E4
100
AcDbMLeaderStyle
179
     2
170
     2
171
     1
172
     0
 90
        2
 40
0.0
 41
0.0
173
     1
 91
-1056964608
340
10
 92
       -2
290
     1
 42
0.09
291
     1
 43
0.36
  3
Standard
 44
0.18
300

342
B3F
174
     1
178
     6
175
     1
176
     0
 93
-1056964608
 45
0.18
292
     0
297
     0
 46
0.18
 94
-1056964608
 47
1.0
 49
1.0
140
1.0
293
     1
141
0.0
294
     1
177
     0
142
1.0
295
     0
296
     0
143
0.125
271
     0
272
     9
273
     9
298
     0
  0
MLINESTYLE
  5
19
102
{ACAD_REACTORS
330
18
102
}
330
18
100
AcDbMlineStyle
  2
STANDARD
 70
     0
  3

 62
     0
 51
90.0
 52
90.0
 71
     2
 49
0.5
 62
   256
  6
BYLAYER
 49
-0.5
 62
   256
  6
BYLAYER
  0
ACDBPLACEHOLDER
  5
269B
102
{ACAD_REACTORS
330
269A
102
}
330
269A
  0
SCALE
  5
26D3
102
{ACAD_REACTORS
330
26D2
102
}
330
26D2
100
AcDbScale
 70
     0
300
1:1
140
1.0
141
1.0
290
     1
  0
SCALE
  5
26D4
102
{ACAD_REACTORS
330
26D2
102
}
330
26D2
100
AcDbScale
 70
     0
300
1/128" = 1'-0"
140
0.0078125
141
12.0
290
     0
  0
SCALE
  5
26D5
102
{ACAD_REACTORS
330
26D2
102
}
330
26D2
100
AcDbScale
 70
     0
300
1/64" = 1'-0"
140
0.015625
141
12.0
290
     0
  0
SCALE
  5
26D6
102
{ACAD_REACTORS
330
26D2
102
}
330
26D2
100
AcDbScale
 70
     0
300
1/32" = 1'-0"
140
0.03125
141
12.0
290
     0
  0
SCALE
  5
26D7
102
{ACAD_REACTORS
330
26D2
102
}
330
26D2
100
AcDbScale
 70
     0
300
1/16" = 1'-0"
140
0.0625
141
12.0
290
     0
  0
SCALE
  5
26D8
102
{ACAD_REACTORS
330
26D2
102
}
330
26D2
100
AcDbScale
 70
     0
300
3/32" = 1'-0"
140
0.09375
141
12.0
290
     0
  0
SCALE
  5
26D9
102
{ACAD_REACTORS
330
26D2
102
}
330
26D2
100
AcDbScale
 70
     0
300
1/8" = 1'-0"
140
0.125
141
12.0
290
     0
  0
SCALE
  5
26DA
102
{ACAD_REACTORS
330
26D2
102
}
330
26D2
100
AcDbScale
 70
     0
300
3/16" = 1'-0"
140
0.1875
141
12.0
290
     0
  0
SCALE
  5
26DB
102
{ACAD_REACTORS
330
26D2
102
}
330
26D2
100
AcDbScale
 70
     0
300
1/4" = 1'-0"
140
0.25
141
12.0
290
     0
  0
SCALE
  5
26DC
102
{ACAD_REACTORS
330
26D2
102
}
330
26D2
100
AcDbScale
 70
     0
300
3/8" = 1'-0"
140
0.375
141
12.0
290
     0
  0
SCALE
  5
26DD
102
{ACAD_REACTORS
330
26D2
102
}
330
26D2
100
AcDbScale
 70
     0
300
1/2" = 1'-0"
140
0.5
141
12.0
290
     0
  0
SCALE
  5
26DE
102
{ACAD_REACTORS
330
26D2
102
}
330
26D2
100
AcDbScale
 70
     0
300
3/4" = 1'-0"
140
0.75
141
12.0
290
     0
  0
SCALE
  5
26DF
102
{ACAD_REACTORS
330
26D2
102
}
330
26D2
100
AcDbScale
 70
     0
300
1" = 1'-0"
140
1.0
141
12.0
290
     0
  0
SCALE
  5
26E0
102
{ACAD_REACTORS
330
26D2
102
}
330
26D2
100
AcDbScale
 70
     0
300
1-1/2" = 1'-0"
140
1.5
141
12.0
290
     0
  0
SCALE
  5
26E1
102
{ACAD_REACTORS
330
26D2
102
}
330
26D2
100
AcDbScale
 70
     0
300
3" = 1'-0"
140
3.0
141
12.0
290
     0
  0
SCALE
  5
26E2
102
{ACAD_REACTORS
330
26D2
102
}
330
26D2
100
AcDbScale
 70
     0
300
6" = 1'-0"
140
6.0
141
12.0
290
     0
  0
SCALE
  5
26E3
102
{ACAD_REACTORS
330
26D2
102
}
330
26D2
100
AcDbScale
 70
     0
300
1'-0" = 1'-0"
140
12.0
141
12.0
290
     0
  0
ACDBSECTIONVIEWSTYLE
  5
26E7
102
{ACAD_REACTORS
330
26E6
102
}
330
26E6
100
AcDbModelDocViewStyle
 70
     0
  3
Imperial24
290
     0
300
Imperial24
 90
        0
100
AcDbSectionViewStyle
 70
     0
 71
     0
 90
       78
 71
     1
340
B3F
 62
   256
 40
0.24
340
0
340
0
 62
   256
 40
0.24
300
I, O, Q, S, X, Z
 40
0.48
 90
        3
 40
0.18
 90
        1
 71
     2
340
12
 90
       25
 62
   256
340
12
 90
       50
 62
   256
 40
0.24
 40
0.0
 40
0.24
 71
     3
340
B3F
 62
   256
 40
0.24
 90
        1
 40
0.75
 90
        1
300
%<\AcVar ViewType \f "%tc1">% %<\AcVar ViewSectionStartId>%-%<\AcVar ViewSectionEndId>%\PSCALE %<\AcVar ViewScale \f "%sn">%
 71
     4
 62
   256
 62
   257
300
ANSI31
 40
1.0
 90
        0
290
     0
290
     0
 90
        6
 40
0.0
 40
1.570796326794896
 40
0.2617993877991494
 40
1.308996938995747
 40
-0.2617993877991494
 40
1.832595714594046
  0
TABLESTYLE
  5
26D1
102
{ACAD_XDICTIONARY
360
2728
102
}
102
{ACAD_REACTORS
330
26D0
102
}
330
26D0
100
AcDbTableStyle
280
     0
  3
Standard
 70
     0
 71
     0
 40
0.06
 41
0.06
280
     0
281
     0
  7
STANDARD
140
0.18
170
     2
 62
     0
 63
     7
283
     0
 90
      512
 91
        0
  1

274
    -2
284
     1
 64
     0
275
    -2
285
     1
 65
     0
276
    -2
286
     1
 66
     0
277
    -2
287
     1
 67
     0
278
    -2
288
     1
 68
     0
279
    -2
289
     1
 69
     0
  7
STANDARD
140
0.25
170
     5
 62
     0
 63
     7
283
     0
 90
      512
 91
        0
  1

274
    -2
284
     1
 64
     0
275
    -2
285
     1
 65
     0
276
    -2
286
     1
 66
     0
277
    -2
287
     1
 67
     0
278
    -2
288
     1
 68
     0
279
    -2
289
     1
 69
     0
  7
STANDARD
140
0.18
170
     5
 62
     0
 63
     7
283
     0
 90
      512
 91
        0
  1

274
    -2
284
     1
 64
     0
275
    -2
285
     1
 65
     0
276
    -2
286
     1
 66
     0
277
    -2
287
     1
 67
     0
278
    -2
288
     1
 68
     0
279
    -2
289
     1
 69
     0
  0
VISUALSTYLE
  5
26BB
102
{ACAD_REACTORS
330
26B5
102
}
330
26B5
100
AcDbVisualStyle
  2
2dWireframe
 70
     4
177
     3
291
     0
 70
    58
 90
        0
176
     1
 90
        2
176
     1
 90
        0
176
     1
 90
        0
176
     1
 40
0.6
176
     1
 40
30.0
176
     1
 62
     7
420
 16777215
176
     1
 90
        1
176
     1
 90
        4
176
     1
 62
     7
176
     1
 62
   257
176
     1
 90
        1
176
     1
 90
        1
176
     1
 40
1.0
176
     1
 90
        0
176
     1
 62
   257
176
     1
 40
1.0
176
     1
 90
        1
176
     1
 90
        6
176
     1
 90
        2
176
     1
 62
     7
176
     1
 90
        5
176
     1
 90
        0
176
     1
 90
        0
176
     1
290
     0
176
     1
 90
        1
176
     1
 40
0.0
176
     1
 90
        0
176
     1
290
     1
176
     1
290
     1
176
     1
290
     0
176
     1
290
     0
176
     1
290
     0
176
     1
290
     0
176
     1
290
     0
176
     1
290
     0
176
     1
290
     0
176
     1
 90
       50
176
     1
 40
0.0
176
     1
 40
1.0
176
     1
 90
        0
176
     1
 62
    18
420
        0
176
     1
 90
       50
176
     1
 90
        3
176
     1
 62
     5
420
      255
176
     1
290
     0
176
     1
 90
       50
176
     1
 90
       50
176
     1
 90
       50
176
     1
290
     0
176
     1
 90
       50
176
     1
 62
   256
176
     0
 40
1.0
176
     0
 90
        2
176
     1
  1
strokes_ogs.tif
176
     1
290
     0
176
     1
 40
1.0
176
     1
 40
1.0
176
     1
  0
VISUALSTYLE
  5
26BA
102
{ACAD_REACTORS
330
26B5
102
}
330
26B5
100
AcDbVisualStyle
  2
Basic
 70
     7
177
     3
291
     1
 70
    58
 90
        1
176
     1
 90
        0
176
     1
 90
        1
176
     1
 90
        0
176
     1
 40
0.6
176
     1
 40
30.0
176
     1
 62
     7
420
 16777215
176
     1
 90
        0
176
     1
 90
        4
176
     1
 62
     7
176
     1
 62
   257
176
     1
 90
        1
176
     1
 90
        1
176
     1
 40
1.0
176
     1
 90
        8
176
     1
 62
     7
176
     1
 40
1.0
176
     1
 90
        1
176
     1
 90
        6
176
     1
 90
        2
176
     1
 62
     7
176
     1
 90
        5
176
     1
 90
        0
176
     1
 90
        0
176
     1
290
     0
176
     1
 90
        1
176
     1
 40
0.0
176
     1
 90
        0
176
     1
290
     0
176
     1
290
     1
176
     1
290
     1
176
     1
290
     0
176
     1
290
     0
176
     1
290
     0
176
     1
290
     0
176
     1
290
     0
176
     1
290
     0
176
     1
 90
       50
176
     1
 40
0.0
176
     1
 40
1.0
176
     1
 90
        0
176
     1
 62
    18
420
        0
176
     1
 90
       50
176
     1
 90
        3
176
     1
 62
     5
420
      255
176
     1
290
     0
176
     1
 90
       50
176
     1
 90
       50
176
     1
 90
       50
176
     1
290
     0
176
     1
 90
       50
176
     1
 62
   256
176
     0
 40
1.0
176
     0
 90
        2
176
     1
  1
strokes_ogs.tif
176
     1
290
     0
176
     1
 40
1.0
176
     1
 40
1.0
176
     1
  0
VISUALSTYLE
  5
26C1
102
{ACAD_REACTORS
330
26B5
102
}
330
26B5
100
AcDbVisualStyle
  2
Brighten
 70
    12
177
     3
291
     1
 70
    58
 90
        2
176
     1
 90
        2
176
     1
 90
        0
176
     1
 90
        0
176
     1
 40
0.6
176
     1
 40
30.0
176
     1
 62
     7
420
 16777215
176
     1
 90
        1
176
     1
 90
        4
176
     1
 62
     7
176
     1
 62
   257
176
     1
 90
        1
176
     1
 90
        1
176
     1
 40
1.0
176
     1
 90
        8
176
     1
 62
     7
176
     1
 40
1.0
176
     1
 90
        1
176
     1
 90
        6
176
     1
 90
        2
176
     1
 62
     7
176
     1
 90
        5
176
     1
 90
        0
176
     1
 90
        0
176
     1
290
     0
176
     1
 90
        1
176
     1
 40
50.0
176
     1
 90
        0
176
     1
290
     0
176
     1
290
     1
176
     1
290
     1
176
     1
290
     0
176
     1
290
     0
176
     1
290
     0
176
     1
290
     0
176
     1
290
     0
176
     1
290
     0
176
     1
 90
       50
176
     1
 40
0.0
176
     1
 40
1.0
176
     1
 90
        0
176
     1
 62
    18
420
        0
176
     1
 90
       50
176
     1
 90
        3
176
     1
 62
     5
420
      255
176
     1
290
     0
176
     1
 90
       50
176
     1
 90
       50
176
     1
 90
       50
176
     1
290
     0
176
     1
 90
       50
176
     1
 62
   256
176
     0
 40
1.0
176
     0
 90
        2
176
     1
  1
strokes_ogs.tif
176
     1
290
     0
176
     1
 40
1.0
176
     1
 40
1.0
176
     1
  0
VISUALSTYLE
  5
26C5
102
{ACAD_REACTORS
330
26B5
102
}
330
26B5
100
AcDbVisualStyle
  2
ColorChange
 70
    16
177
     3
291
     1
 70
    58
 90
        2
176
     1
 90
        2
176
     1
 90
        3
176
     1
 90
        0
176
     1
 40
0.6
176
     1
 40
30.0
176
     1
 62
     8
420
  8421504
176
     1
 90
        1
176
     1
 90
        4
176
     1
 62
     7
176
     1
 62
   257
176
     1
 90
        1
176
     1
 90
        1
176
     1
 40
1.0
176
     1
 90
        8
176
     1
 62
     8
420
  8421504
176
     1
 40
1.0
176
     1
 90
        1
176
     1
 90
        6
176
     1
 90
        2
176
     1
 62
     7
176
     1
 90
        5
176
     1
 90
        0
176
     1
 90
        0
176
     1
290
     0
176
     1
 90
        1
176
     1
 40
0.0
176
     1
 90
        0
176
     1
290
     0
176
     1
290
     1
176
     1
290
     1
176
     1
290
     0
176
     1
290
     0
176
     1
290
     0
176
     1
290
     0
176
     1
290
     0
176
     1
290
     0
176
     1
 90
       50
176
     1
 40
0.0
176
     1
 40
1.0
176
     1
 90
        0
176
     1
 62
    18
420
        0
176
     1
 90
       50
176
     1
 90
        3
176
     1
 62
     5
420
      255
176
     1
290
     0
176
     1
 90
       50
176
     1
 90
       50
176
     1
 90
       50
176
     1
290
     0
176
     1
 90
       50
176
     1
 62
   256
176
     0
 40
1.0
176
     0
 90
        2
176
     1
  1
strokes_ogs.tif
176
     1
290
     0
176
     1
 40
1.0
176
     1
 40
1.0
176
     1
  0
VISUALSTYLE
  5
26BE
102
{ACAD_REACTORS
330
26B5
102
}
330
26B5
100
AcDbVisualStyle
  2
Conceptual
 70
     9
177
     3
291
     0
 70
    58
 90
        3
176
     1
 90
        2
176
     1
 90
        0
176
     1
 90
        0
176
     1
 40
0.6
176
     1
 40
30.0
176
     1
 62
     7
420
 16777215
176
     1
 90
        2
176
     1
 90
        2
176
     1
 62
     7
176
     1
 62
   257
176
     1
 90
        1
176
     1
 90
        1
176
     1
 40
179.0
176
     1
 90
        8
176
     1
 62
     7
176
     1
 40
1.0
176
     1
 90
        1
176
     1
 90
        6
176
     1
 90
        2
176
     1
 62
     7
176
     1
 90
        3
176
     1
 90
        0
176
     1
 90
        0
176
     1
290
     0
176
     1
 90
        1
176
     1
 40
0.0
176
     1
 90
        0
176
     1
290
     0
176
     1
290
     1
176
     1
290
     1
176
     1
290
     0
176
     1
290
     0
176
     1
290
     0
176
     1
290
     0
176
     1
290
     0
176
     1
290
     0
176
     1
 90
       50
176
     1
 40
0.0
176
     1
 40
1.0
176
     1
 90
        0
176
     1
 62
    18
420
        0
176
     1
 90
       50
176
     1
 90
        3
176
     1
 62
     5
420
      255
176
     1
290
     0
176
     1
 90
       50
176
     1
 90
       50
176
     1
 90
       50
176
     1
290
     0
176
     1
 90
       50
176
     1
 62
   256
176
     0
 40
1.0
176
     0
 90
        2
176
     1
  1
strokes_ogs.tif
176
     1
290
     0
176
     1
 40
1.0
176
     1
 40
1.0
176
     1
  0
VISUALSTYLE
  5
26C0
102
{ACAD_REACTORS
330
26B5
102
}
330
26B5
100
AcDbVisualStyle
  2
Dim
 70
    11
177
     3
291
     1
 70
    58
 90
        2
176
     1
 90
        2
176
     1
 90
        0
176
     1
 90
        0
176
     1
 40
0.6
176
     1
 40
30.0
176
     1
 62
     7
420
 16777215
176
     1
 90
        1
176
     1
 90
        4
176
     1
 62
     7
176
     1
 62
   257
176
     1
 90
        1
176
     1
 90
        1
176
     1
 40
1.0
176
     1
 90
        8
176
     1
 62
     7
176
     1
 40
1.0
176
     1
 90
        1
176
     1
 90
        6
176
     1
 90
        2
176
     1
 62
     7
176
     1
 90
        5
176
     1
 90
        0
176
     1
 90
        0
176
     1
290
     0
176
     1
 90
        1
176
     1
 40
-50.0
176
     1
 90
        0
176
     1
290
     0
176
     1
290
     1
176
     1
290
     1
176
     1
290
     0
176
     1
290
     0
176
     1
290
     0
176
     1
290
     0
176
     1
290
     0
176
     1
290
     0
176
     1
 90
       50
176
     1
 40
0.0
176
     1
 40
1.0
176
     1
 90
        0
176
     1
 62
    18
420
        0
176
     1
 90
       50
176
     1
 90
        3
176
     1
 62
     5
420
      255
176
     1
290
     0
176
     1
 90
       50
176
     1
 90
       50
176
     1
 90
       50
176
     1
290
     0
176
     1
 90
       50
176
     1
 62
   256
176
     0
 40
1.0
176
     0
 90
        2
176
     1
  1
strokes_ogs.tif
176
     1
290
     0
176
     1
 40
1.0
176
     1
 40
1.0
176
     1
  0
VISUALSTYLE
  5
26CD
102
{ACAD_REACTORS
330
26B5
102
}
330
26B5
100
AcDbVisualStyle
  2
EdgeColorOff
 70
    22
177
     3
291
     1
 70
    58
 90
        2
176
     0
 90
        2
176
     0
 90
        0
176
     0
 90
        0
176
     0
 40
0.6
176
     0
 40
30.0
176
     0
 62
     7
420
 16777215
176
     0
 90
        1
176
     0
 90
        4
176
     0
 62
     7
176
     0
 62
   257
176
     0
 90
        1
176
     0
 90
        1
176
     0
 40
1.0
176
     0
 90
        8
176
     2
 62
     7
176
     0
 40
1.0
176
     0
 90
        1
176
     0
 90
        6
176
     0
 90
        2
176
     0
 62
     7
176
     0
 90
        5
176
     0
 90
        0
176
     0
 90
        0
176
     0
290
     0
176
     0
 90
        1
176
     0
 40
0.0
176
     0
 90
        0
176
     0
290
     0
176
     1
290
     1
176
     1
290
     1
176
     1
290
     0
176
     1
290
     0
176
     1
290
     0
176
     1
290
     0
176
     1
290
     0
176
     1
290
     0
176
     1
 90
       50
176
     0
 40
0.0
176
     0
 40
1.0
176
     0
 90
        0
176
     0
 62
    18
420
        0
176
     0
 90
       50
176
     0
 90
        3
176
     0
 62
     5
420
      255
176
     0
290
     0
176
     1
 90
       50
176
     0
 90
       50
176
     0
 90
       50
176
     0
290
     0
176
     1
 90
       50
176
     0
 62
   256
176
     0
 40
1.0
176
     0
 90
        2
176
     0
  1
strokes_ogs.tif
176
     0
290
     0
176
     1
 40
1.0
176
     0
 40
1.0
176
     0
  0
VISUALSTYLE
  5
26C4
102
{ACAD_REACTORS
330
26B5
102
}
330
26B5
100
AcDbVisualStyle
  2
Facepattern
 70
    15
177
     3
291
     1
 70
    58
 90
        2
176
     1
 90
        2
176
     1
 90
        0
176
     1
 90
        0
176
     1
 40
0.6
176
     1
 40
30.0
176
     1
 62
     7
420
 16777215
176
     1
 90
        1
176
     1
 90
        4
176
     1
 62
     7
176
     1
 62
   257
176
     1
 90
        1
176
     1
 90
        1
176
     1
 40
1.0
176
     1
 90
        8
176
     1
 62
     7
176
     1
 40
1.0
176
     1
 90
        1
176
     1
 90
        6
176
     1
 90
        2
176
     1
 62
     7
176
     1
 90
        5
176
     1
 90
        0
176
     1
 90
        0
176
     1
290
     0
176
     1
 90
        1
176
     1
 40
0.0
176
     1
 90
        0
176
     1
290
     0
176
     1
290
     1
176
     1
290
     1
176
     1
290
     0
176
     1
290
     0
176
     1
290
     0
176
     1
290
     0
176
     1
290
     0
176
     1
290
     0
176
     1
 90
       50
176
     1
 40
0.0
176
     1
 40
1.0
176
     1
 90
        0
176
     1
 62
    18
420
        0
176
     1
 90
       50
176
     1
 90
        3
176
     1
 62
     5
420
      255
176
     1
290
     0
176
     1
 90
       50
176
     1
 90
       50
176
     1
 90
       50
176
     1
290
     0
176
     1
 90
       50
176
     1
 62
   256
176
     0
 40
1.0
176
     0
 90
        2
176
     1
  1
strokes_ogs.tif
176
     1
290
     0
176
     1
 40
1.0
176
     1
 40
1.0
176
     1
  0
VISUALSTYLE
  5
26B6
102
{ACAD_REACTORS
330
26B5
102
}
330
26B5
100
AcDbVisualStyle
  2
Flat
 70
     0
177
     3
291
     1
 70
    58
 90
        2
176
     1
 90
        1
176
     1
 90
        1
176
     1
 90
        2
176
     1
 40
0.6
176
     1
 40
30.0
176
     1
 62
     7
420
 16777215
176
     1
 90
        0
176
     1
 90
        0
176
     1
 62
     7
176
     1
 62
   257
176
     1
 90
        1
176
     1
 90
        1
176
     1
 40
1.0
176
     1
 90
        8
176
     1
 62
     7
176
     1
 40
1.0
176
     1
 90
        1
176
     1
 90
        6
176
     1
 90
        2
176
     1
 62
     7
176
     1
 90
        5
176
     1
 90
        0
176
     1
 90
        0
176
     1
290
     0
176
     1
 90
       13
176
     1
 40
0.0
176
     1
 90
        0
176
     1
290
     0
176
     1
290
     1
176
     1
290
     1
176
     1
290
     0
176
     1
290
     0
176
     1
290
     0
176
     1
290
     0
176
     1
290
     0
176
     1
290
     0
176
     1
 90
       50
176
     1
 40
0.0
176
     1
 40
1.0
176
     1
 90
        0
176
     1
 62
    18
420
        0
176
     1
 90
       50
176
     1
 90
        3
176
     1
 62
     5
420
      255
176
     1
290
     0
176
     1
 90
       50
176
     1
 90
       50
176
     1
 90
       50
176
     1
290
     0
176
     1
 90
       50
176
     1
 62
   256
176
     0
 40
1.0
176
     0
 90
        2
176
     1
  1
strokes_ogs.tif
176
     1
290
     0
176
     1
 40
1.0
176
     1
 40
1.0
176
     1
  0
VISUALSTYLE
  5
26B7
102
{ACAD_REACTORS
330
26B5
102
}
330
26B5
100
AcDbVisualStyle
  2
FlatWithEdges
 70
     1
177
     3
291
     1
 70
    58
 90
        2
176
     1
 90
        1
176
     1
 90
        1
176
     1
 90
        2
176
     1
 40
0.6
176
     1
 40
30.0
176
     1
 62
     7
420
 16777215
176
     1
 90
        1
176
     1
 90
        0
176
     1
 62
     7
176
     1
 62
   257
176
     1
 90
        1
176
     1
 90
        1
176
     1
 40
1.0
176
     1
 90
        0
176
     1
 62
   257
176
     1
 40
1.0
176
     1
 90
        1
176
     1
 90
        6
176
     1
 90
        2
176
     1
 62
     7
176
     1
 90
        5
176
     1
 90
        0
176
     1
 90
        0
176
     1
290
     0
176
     1
 90
       13
176
     1
 40
0.0
176
     1
 90
        0
176
     1
290
     0
176
     1
290
     1
176
     1
290
     1
176
     1
290
     0
176
     1
290
     0
176
     1
290
     0
176
     1
290
     0
176
     1
290
     0
176
     1
290
     0
176
     1
 90
       50
176
     1
 40
0.0
176
     1
 40
1.0
176
     1
 90
        0
176
     1
 62
    18
420
        0
176
     1
 90
       50
176
     1
 90
        3
176
     1
 62
     5
420
      255
176
     1
290
     0
176
     1
 90
       50
176
     1
 90
       50
176
     1
 90
       50
176
     1
290
     0
176
     1
 90
       50
176
     1
 62
   256
176
     0
 40
1.0
176
     0
 90
        2
176
     1
  1
strokes_ogs.tif
176
     1
290
     0
176
     1
 40
1.0
176
     1
 40
1.0
176
     1
  0
VISUALSTYLE
  5
26B8
102
{ACAD_REACTORS
330
26B5
102
}
330
26B5
100
AcDbVisualStyle
  2
Gouraud
 70
     2
177
     3
291
     1
 70
    58
 90
        2
176
     1
 90
        2
176
     1
 90
        1
176
     1
 90
        2
176
     1
 40
0.6
176
     1
 40
30.0
176
     1
 62
     7
420
 16777215
176
     1
 90
        0
176
     1
 90
        0
176
     1
 62
     7
176
     1
 62
   257
176
     1
 90
        1
176
     1
 90
        1
176
     1
 40
1.0
176
     1
 90
        0
176
     1
 62
     7
176
     1
 40
1.0
176
     1
 90
        1
176
     1
 90
        6
176
     1
 90
        2
176
     1
 62
     7
176
     1
 90
        5
176
     1
 90
        0
176
     1
 90
        0
176
     1
290
     0
176
     1
 90
       13
176
     1
 40
0.0
176
     1
 90
        0
176
     1
290
     0
176
     1
290
     1
176
     1
290
     1
176
     1
290
     0
176
     1
290
     0
176
     1
290
     0
176
     1
290
     0
176
     1
290
     0
176
     1
290
     0
176
     1
 90
       50
176
     1
 40
0.0
176
     1
 40
1.0
176
     1
 90
        0
176
     1
 62
    18
420
        0
176
     1
 90
       50
176
     1
 90
        3
176
     1
 62
     5
420
      255
176
     1
290
     0
176
     1
 90
       50
176
     1
 90
       50
176
     1
 90
       50
176
     1
290
     0
176
     1
 90
       50
176
     1
 62
   256
176
     0
 40
1.0
176
     0
 90
        2
176
     1
  1
strokes_ogs.tif
176
     1
290
     0
176
     1
 40
1.0
176
     1
 40
1.0
176
     1
  0
VISUALSTYLE
  5
26B9
102
{ACAD_REACTORS
330
26B5
102
}
330
26B5
100
AcDbVisualStyle
  2
GouraudWithEdges
 70
     3
177
     3
291
     1
 70
    58
 90
        2
176
     1
 90
        2
176
     1
 90
        1
176
     1
 90
        2
176
     1
 40
0.6
176
     1
 40
30.0
176
     1
 62
     7
420
 16777215
176
     1
 90
        1
176
     1
 90
        0
176
     1
 62
     7
176
     1
 62
   257
176
     1
 90
        1
176
     1
 90
        1
176
     1
 40
1.0
176
     1
 90
        0
176
     1
 62
   257
176
     1
 40
1.0
176
     1
 90
        1
176
     1
 90
        6
176
     1
 90
        2
176
     1
 62
     7
176
     1
 90
        5
176
     1
 90
        0
176
     1
 90
        0
176
     1
290
     0
176
     1
 90
       13
176
     1
 40
0.0
176
     1
 90
        0
176
     1
290
     0
176
     1
290
     1
176
     1
290
     1
176
     1
290
     0
176
     1
290
     0
176
     1
290
     0
176
     1
290
     0
176
     1
290
     0
176
     1
290
     0
176
     1
 90
       50
176
     1
 40
0.0
176
     1
 40
1.0
176
     1
 90
        0
176
     1
 62
    18
420
        0
176
     1
 90
       50
176
     1
 90
        3
176
     1
 62
     5
420
      255
176
     1
290
     0
176
     1
 90
       50
176
     1
 90
       50
176
     1
 90
       50
176
     1
290
     0
176
     1
 90
       50
176
     1
 62
   256
176
     0
 40
1.0
176
     0
 90
        2
176
     1
  1
strokes_ogs.tif
176
     1
290
     0
176
     1
 40
1.0
176
     1
 40
1.0
176
     1
  0
VISUALSTYLE
  5
26BD
102
{ACAD_REACTORS
330
26B5
102
}
330
26B5
100
AcDbVisualStyle
  2
Hidden
 70
     6
177
     3
291
     0
 70
    58
 90
        1
176
     1
 90
        2
176
     1
 90
        2
176
     1
 90
        0
176
     1
 40
0.6
176
     1
 40
30.0
176
     1
 62
     7
420
 16777215
176
     1
 90
        2
176
     1
 90
        2
176
     1
 62
     7
176
     1
 62
   257
176
     1
 90
        2
176
     1
 90
        1
176
     1
 40
40.0
176
     1
 90
        0
176
     1
 62
   257
176
     1
 40
1.0
176
     1
 90
        1
176
     1
 90
        6
176
     1
 90
        2
176
     1
 62
     7
176
     1
 90
        3
176
     1
 90
        0
176
     1
 90
        0
176
     1
290
     0
176
     1
 90
        1
176
     1
 40
0.0
176
     1
 90
        0
176
     1
290
     0
176
     1
290
     1
176
     1
290
     1
176
     1
290
     0
176
     1
290
     0
176
     1
290
     0
176
     1
290
     0
176
     1
290
     0
176
     1
290
     0
176
     1
 90
       50
176
     1
 40
0.0
176
     1
 40
1.0
176
     1
 90
        0
176
     1
 62
    18
420
        0
176
     1
 90
       50
176
     1
 90
        3
176
     1
 62
     5
420
      255
176
     1
290
     0
176
     1
 90
       50
176
     1
 90
       50
176
     1
 90
       50
176
     1
290
     0
176
     1
 90
       50
176
     1
 62
   256
176
     0
 40
1.0
176
     0
 90
        2
176
     1
  1
strokes_ogs.tif
176
     1
290
     0
176
     1
 40
1.0
176
     1
 40
1.0
176
     1
  0
VISUALSTYLE
  5
26CB
102
{ACAD_REACTORS
330
26B5
102
}
330
26B5
100
AcDbVisualStyle
  2
JitterOff
 70
    20
177
     3
291
     1
 70
    58
 90
        2
176
     0
 90
        2
176
     0
 90
        0
176
     0
 90
        0
176
     0
 40
0.6
176
     0
 40
30.0
176
     0
 62
     7
420
 16777215
176
     0
 90
        1
176
     0
 90
        4
176
     0
 62
     7
176
     0
 62
   257
176
     0
 90
        1
176
     0
 90
        1
176
     0
 40
1.0
176
     0
 90
       10
176
     2
 62
     7
176
     0
 40
1.0
176
     0
 90
        1
176
     0
 90
        6
176
     0
 90
        2
176
     0
 62
     7
176
     0
 90
        5
176
     0
 90
        0
176
     0
 90
        0
176
     0
290
     0
176
     0
 90
        1
176
     0
 40
0.0
176
     0
 90
        0
176
     0
290
     0
176
     1
290
     1
176
     1
290
     1
176
     1
290
     0
176
     1
290
     0
176
     1
290
     0
176
     1
290
     0
176
     1
290
     0
176
     1
290
     0
176
     1
 90
       50
176
     0
 40
0.0
176
     0
 40
1.0
176
     0
 90
        0
176
     0
 62
    18
420
        0
176
     0
 90
       50
176
     0
 90
        3
176
     0
 62
     5
420
      255
176
     0
290
     0
176
     1
 90
       50
176
     0
 90
       50
176
     0
 90
       50
176
     0
290
     0
176
     1
 90
       50
176
     0
 62
   256
176
     0
 40
1.0
176
     0
 90
        2
176
     0
  1
strokes_ogs.tif
176
     0
290
     0
176
     1
 40
1.0
176
     0
 40
1.0
176
     0
  0
VISUALSTYLE
  5
26C3
102
{ACAD_REACTORS
330
26B5
102
}
330
26B5
100
AcDbVisualStyle
  2
Linepattern
 70
    14
177
     3
291
     1
 70
    58
 90
        2
176
     1
 90
        2
176
     1
 90
        0
176
     1
 90
        0
176
     1
 40
0.6
176
     1
 40
30.0
176
     1
 62
     7
420
 16777215
176
     1
 90
        1
176
     1
 90
        4
176
     1
 62
     7
176
     1
 62
   257
176
     1
 90
        7
176
     1
 90
        7
176
     1
 40
1.0
176
     1
 90
        8
176
     1
 62
     7
176
     1
 40
1.0
176
     1
 90
        1
176
     1
 90
        6
176
     1
 90
        2
176
     1
 62
     7
176
     1
 90
        5
176
     1
 90
        0
176
     1
 90
        0
176
     1
290
     0
176
     1
 90
        1
176
     1
 40
0.0
176
     1
 90
        0
176
     1
290
     0
176
     1
290
     1
176
     1
290
     1
176
     1
290
     0
176
     1
290
     0
176
     1
290
     0
176
     1
290
     0
176
     1
290
     0
176
     1
290
     0
176
     1
 90
       50
176
     1
 40
0.0
176
     1
 40
1.0
176
     1
 90
        0
176
     1
 62
    18
420
        0
176
     1
 90
       50
176
     1
 90
        3
176
     1
 62
     5
420
      255
176
     1
290
     0
176
     1
 90
       50
176
     1
 90
       50
176
     1
 90
       50
176
     1
290
     0
176
     1
 90
       50
176
     1
 62
   256
176
     0
 40
1.0
176
     0
 90
        2
176
     1
  1
strokes_ogs.tif
176
     1
290
     0
176
     1
 40
1.0
176
     1
 40
1.0
176
     1
  0
VISUALSTYLE
  5
26CC
102
{ACAD_REACTORS
330
26B5
102
}
330
26B5
100
AcDbVisualStyle
  2
OverhangOff
 70
    21
177
     3
291
     1
 70
    58
 90
        2
176
     0
 90
        2
176
     0
 90
        0
176
     0
 90
        0
176
     0
 40
0.6
176
     0
 40
30.0
176
     0
 62
     7
420
 16777215
176
     0
 90
        1
176
     0
 90
        4
176
     0
 62
     7
176
     0
 62
   257
176
     0
 90
        1
176
     0
 90
        1
176
     0
 40
1.0
176
     0
 90
        9
176
     2
 62
     7
176
     0
 40
1.0
176
     0
 90
        1
176
     0
 90
        6
176
     0
 90
        2
176
     0
 62
     7
176
     0
 90
        5
176
     0
 90
        0
176
     0
 90
        0
176
     0
290
     0
176
     0
 90
        1
176
     0
 40
0.0
176
     0
 90
        0
176
     0
290
     0
176
     1
290
     1
176
     1
290
     1
176
     1
290
     0
176
     1
290
     0
176
     1
290
     0
176
     1
290
     0
176
     1
290
     0
176
     1
290
     0
176
     1
 90
       50
176
     0
 40
0.0
176
     0
 40
1.0
176
     0
 90
        0
176
     0
 62
    18
420
        0
176
     0
 90
       50
176
     0
 90
        3
176
     0
 62
     5
420
      255
176
     0
290
     0
176
     1
 90
       50
176
     0
 90
       50
176
     0
 90
       50
176
     0
290
     0
176
     1
 90
       50
176
     0
 62
   256
176
     0
 40
1.0
176
     0
 90
        2
176
     0
  1
strokes_ogs.tif
176
     0
290
     0
176
     1
 40
1.0
176
     0
 40
1.0
176
     0
  0
VISUALSTYLE
  5
26BF
102
{ACAD_REACTORS
330
26B5
102
}
330
26B5
100
AcDbVisualStyle
  2
Realistic
 70
     8
177
     3
291
     0
 70
    58
 90
        2
176
     1
 90
        3
176
     1
 90
        0
176
     1
 90
        2
176
     1
 40
0.6
176
     1
 40
30.0
176
     1
 62
     7
420
 16777215
176
     1
 90
        0
176
     1
 90
        0
176
     1
 62
     7
176
     1
 62
   257
176
     1
 90
        1
176
     1
 90
        1
176
     1
 40
1.0
176
     1
 90
        8
176
     1
 62
   257
176
     1
 40
1.0
176
     1
 90
        1
176
     1
 90
        6
176
     1
 90
        2
176
     1
 62
     7
176
     1
 90
        3
176
     1
 90
        0
176
     1
 90
        0
176
     1
290
     0
176
     1
 90
       13
176
     1
 40
0.0
176
     1
 90
        0
176
     1
290
     0
176
     1
290
     1
176
     1
290
     1
176
     1
290
     0
176
     1
290
     0
176
     1
290
     0
176
     1
290
     0
176
     1
290
     0
176
     1
290
     0
176
     1
 90
       50
176
     1
 40
0.0
176
     1
 40
1.0
176
     1
 90
        0
176
     1
 62
    18
420
        0
176
     1
 90
       50
176
     1
 90
        3
176
     1
 62
     5
420
      255
176
     1
290
     0
176
     1
 90
       50
176
     1
 90
       50
176
     1
 90
       50
176
     1
290
     0
176
     1
 90
       50
176
     1
 62
   256
176
     0
 40
1.0
176
     0
 90
        2
176
     1
  1
strokes_ogs.tif
176
     1
290
     0
176
     1
 40
1.0
176
     1
 40
1.0
176
     1
  0
VISUALSTYLE
  5
26CA
102
{ACAD_REACTORS
330
26B5
102
}
330
26B5
100
AcDbVisualStyle
  2
Shaded
 70
    27
177
     3
291
     0
 70
    58
 90
        2
176
     1
 90
        2
176
     1
 90
        1
176
     1
 90
        2
176
     1
 40
0.6
176
     1
 40
30.0
176
     1
 62
     7
420
 16777215
176
     1
 90
        0
176
     1
 90
        4
176
     1
 62
     7
176
     1
 62
   257
176
     1
 90
        1
176
     1
 90
        1
176
     1
 40
1.0
176
     1
 90
        8
176
     1
 62
   257
176
     1
 40
1.0
176
     1
 90
        1
176
     1
 90
        6
176
     1
 90
        2
176
     1
 62
     8
420
  7895160
176
     1
 90
        3
176
     1
 90
        0
176
     1
 90
        0
176
     1
290
     0
176
     1
 90
        5
176
     1
 40
0.0
176
     1
 90
        0
176
     1
290
     0
176
     1
290
     1
176
     1
290
     1
176
     1
290
     0
176
     1
290
     0
176
     1
290
     0
176
     1
290
     0
176
     1
290
     0
176
     1
290
     0
176
     1
 90
       50
176
     1
 40
0.0
176
     1
 40
1.0
176
     1
 90
        0
176
     1
 62
    18
420
        0
176
     1
 90
       50
176
     1
 90
        3
176
     1
 62
     5
420
      255
176
     1
290
     0
176
     1
 90
       50
176
     1
 90
       50
176
     1
 90
       50
176
     1
290
     0
176
     1
 90
       50
176
     1
 62
   256
176
     0
 40
1.0
176
     0
 90
        2
176
     1
  1
strokes_ogs.tif
176
     1
290
     0
176
     1
 40
1.0
176
     1
 40
1.0
176
     1
  0
VISUALSTYLE
  5
26C9
102
{ACAD_REACTORS
330
26B5
102
}
330
26B5
100
AcDbVisualStyle
  2
Shaded with edges
 70
    26
177
     3
291
     0
 70
    58
 90
        2
176
     1
 90
        2
176
     1
 90
        1
176
     1
 90
        2
176
     1
 40
0.6
176
     1
 40
30.0
176
     1
 62
     7
420
 16777215
176
     1
 90
        1
176
     1
 90
        2
176
     1
 62
     7
176
     1
 62
   257
176
     1
 90
        2
176
     1
 90
        1
176
     1
 40
1.0
176
     1
 90
        8
176
     1
 62
   257
176
     1
 40
1.0
176
     1
 90
        1
176
     1
 90
        6
176
     1
 90
        2
176
     1
 62
     7
176
     1
 90
        3
176
     1
 90
        0
176
     1
 90
        0
176
     1
290
     0
176
     1
 90
        5
176
     1
 40
0.0
176
     1
 90
        0
176
     1
290
     0
176
     1
290
     1
176
     1
290
     1
176
     1
290
     0
176
     1
290
     0
176
     1
290
     0
176
     1
290
     0
176
     1
290
     0
176
     1
290
     0
176
     1
 90
       50
176
     1
 40
0.0
176
     1
 40
1.0
176
     1
 90
        0
176
     1
 62
    18
420
        0
176
     1
 90
       50
176
     1
 90
        3
176
     1
 62
     5
420
      255
176
     1
290
     0
176
     1
 90
       50
176
     1
 90
       50
176
     1
 90
       50
176
     1
290
     0
176
     1
 90
       50
176
     1
 62
   256
176
     0
 40
1.0
176
     0
 90
        2
176
     1
  1
strokes_ogs.tif
176
     1
290
     0
176
     1
 40
1.0
176
     1
 40
1.0
176
     1
  0
VISUALSTYLE
  5
26C6
102
{ACAD_REACTORS
330
26B5
102
}
330
26B5
100
AcDbVisualStyle
  2
Shades of Gray
 70
    23
177
     3
291
     0
 70
    58
 90
        2
176
     1
 90
        2
176
     1
 90
        3
176
     1
 90
        0
176
     1
 40
0.6
176
     1
 40
30.0
176
     1
 62
     7
420
 16777215
176
     1
 90
        2
176
     1
 90
        2
176
     1
 62
     7
176
     1
 62
     7
176
     1
 90
        1
176
     1
 90
        1
176
     1
 40
40.0
176
     1
 90
        8
176
     1
 62
     7
176
     1
 40
1.0
176
     1
 90
        1
176
     1
 90
        6
176
     1
 90
        2
176
     1
 62
     7
176
     1
 90
        3
176
     1
 90
        0
176
     1
 90
        0
176
     1
290
     0
176
     1
 90
        1
176
     1
 40
0.0
176
     1
 90
        0
176
     1
290
     0
176
     1
290
     1
176
     1
290
     1
176
     1
290
     0
176
     1
290
     0
176
     1
290
     0
176
     1
290
     0
176
     1
290
     0
176
     1
290
     0
176
     1
 90
       50
176
     1
 40
0.0
176
     1
 40
1.0
176
     1
 90
        0
176
     1
 62
    18
420
        0
176
     1
 90
       50
176
     1
 90
        3
176
     1
 62
     5
420
      255
176
     1
290
     0
176
     1
 90
       50
176
     1
 90
       50
176
     1
 90
       50
176
     1
290
     0
176
     1
 90
       50
176
     1
 62
   256
176
     0
 40
1.0
176
     0
 90
        2
176
     1
  1
strokes_ogs.tif
176
     1
290
     0
176
     1
 40
1.0
176
     1
 40
1.0
176
     1
  0
VISUALSTYLE
  5
26C7
102
{ACAD_REACTORS
330
26B5
102
}
330
26B5
100
AcDbVisualStyle
  2
Sketchy
 70
    24
177
     3
291
     0
 70
    58
 90
        1
176
     1
 90
        2
176
     1
 90
        2
176
     1
 90
        0
176
     1
 40
0.6
176
     1
 40
30.0
176
     1
 62
     7
420
 16777215
176
     1
 90
        2
176
     1
 90
        2
176
     1
 62
     7
176
     1
 62
     7
176
     1
 90
        1
176
     1
 90
        1
176
     1
 40
40.0
176
     1
 90
       11
176
     1
 62
     7
176
     1
 40
1.0
176
     1
 90
        1
176
     1
 90
        6
176
     1
 90
        2
176
     1
 62
     7
176
     1
 90
        6
176
     1
 90
        0
176
     1
 90
        0
176
     1
290
     0
176
     1
 90
        1
176
     1
 40
0.0
176
     1
 90
        0
176
     1
290
     0
176
     1
290
     1
176
     1
290
     1
176
     1
290
     0
176
     1
290
     0
176
     1
290
     0
176
     1
290
     0
176
     1
290
     0
176
     1
290
     0
176
     1
 90
       50
176
     1
 40
0.0
176
     1
 40
1.0
176
     1
 90
        0
176
     1
 62
    18
420
        0
176
     1
 90
       50
176
     1
 90
        3
176
     1
 62
     5
420
      255
176
     1
290
     0
176
     1
 90
       50
176
     1
 90
       50
176
     1
 90
       50
176
     1
290
     0
176
     1
 90
       50
176
     1
 62
   256
176
     0
 40
1.0
176
     0
 90
        2
176
     1
  1
strokes_ogs.tif
176
     1
290
     0
176
     1
 40
1.0
176
     1
 40
1.0
176
     1
  0
VISUALSTYLE
  5
26C2
102
{ACAD_REACTORS
330
26B5
102
}
330
26B5
100
AcDbVisualStyle
  2
Thicken
 70
    13
177
     3
291
     1
 70
    58
 90
        2
176
     1
 90
        2
176
     1
 90
        0
176
     1
 90
        0
176
     1
 40
0.6
176
     1
 40
30.0
176
     1
 62
     7
420
 16777215
176
     1
 90
        1
176
     1
 90
        4
176
     1
 62
     7
176
     1
 62
   257
176
     1
 90
        1
176
     1
 90
        1
176
     1
 40
1.0
176
     1
 90
       12
176
     1
 62
     7
176
     1
 40
1.0
176
     1
 90
        1
176
     1
 90
        6
176
     1
 90
        2
176
     1
 62
     7
176
     1
 90
        5
176
     1
 90
        0
176
     1
 90
        0
176
     1
290
     0
176
     1
 90
        1
176
     1
 40
0.0
176
     1
 90
        0
176
     1
290
     0
176
     1
290
     1
176
     1
290
     1
176
     1
290
     0
176
     1
290
     0
176
     1
290
     0
176
     1
290
     0
176
     1
290
     0
176
     1
290
     0
176
     1
 90
       50
176
     1
 40
0.0
176
     1
 40
1.0
176
     1
 90
        0
176
     1
 62
    18
420
        0
176
     1
 90
       50
176
     1
 90
        3
176
     1
 62
     5
420
      255
176
     1
290
     0
176
     1
 90
       50
176
     1
 90
       50
176
     1
 90
       50
176
     1
290
     0
176
     1
 90
       50
176
     1
 62
   256
176
     0
 40
1.0
176
     0
 90
        2
176
     1
  1
strokes_ogs.tif
176
     1
290
     0
176
     1
 40
1.0
176
     1
 40
1.0
176
     1
  0
VISUALSTYLE
  5
26BC
102
{ACAD_REACTORS
330
26B5
102
}
330
26B5
100
AcDbVisualStyle
  2
Wireframe
 70
     5
177
     3
291
     0
 70
    58
 90
        0
176
     1
 90
        2
176
     1
 90
        0
176
     1
 90
        0
176
     1
 40
0.6
176
     1
 40
30.0
176
     1
 62
     7
420
 16777215
176
     1
 90
        1
176
     1
 90
        4
176
     1
 62
     7
176
     1
 62
   257
176
     1
 90
        1
176
     1
 90
        1
176
     1
 40
1.0
176
     1
 90
        0
176
     1
 62
   257
176
     1
 40
1.0
176
     1
 90
        1
176
     1
 90
        6
176
     1
 90
        2
176
     1
 62
     7
176
     1
 90
        3
176
     1
 90
        0
176
     1
 90
        0
176
     1
290
     0
176
     1
 90
        1
176
     1
 40
0.0
176
     1
 90
        0
176
     1
290
     0
176
     1
290
     1
176
     1
290
     1
176
     1
290
     0
176
     1
290
     0
176
     1
290
     0
176
     1
290
     0
176
     1
290
     0
176
     1
290
     0
176
     1
 90
       50
176
     1
 40
0.0
176
     1
 40
1.0
176
     1
 90
        0
176
     1
 62
    18
420
        0
176
     1
 90
       50
176
     1
 90
        3
176
     1
 62
     5
420
      255
176
     1
290
     0
176
     1
 90
       50
176
     1
 90
       50
176
     1
 90
       50
176
     1
290
     0
176
     1
 90
       50
176
     1
 62
   256
176
     0
 40
1.0
176
     0
 90
        2
176
     1
  1
strokes_ogs.tif
176
     1
290
     0
176
     1
 40
1.0
176
     1
 40
1.0
176
     1
  0
VISUALSTYLE
  5
26C8
102
{ACAD_REACTORS
330
26B5
102
}
330
26B5
100
AcDbVisualStyle
  2
X-Ray
 70
    25
177
     3
291
     0
 70
    58
 90
        2
176
     1
 90
        2
176
     1
 90
        1
176
     1
 90
        1
176
     1
 40
0.5
176
     1
 40
30.0
176
     1
 62
     7
420
 16777215
176
     1
 90
        1
176
     1
 90
        0
176
     1
 62
     7
176
     1
 62
   257
176
     1
 90
        1
176
     1
 90
        1
176
     1
 40
1.0
176
     1
 90
        8
176
     1
 62
     7
176
     1
 40
1.0
176
     1
 90
        1
176
     1
 90
        6
176
     1
 90
        2
176
     1
 62
     7
176
     1
 90
        3
176
     1
 90
        0
176
     1
 90
        0
176
     1
290
     0
176
     1
 90
       13
176
     1
 40
0.0
176
     1
 90
        0
176
     1
290
     0
176
     1
290
     1
176
     1
290
     1
176
     1
290
     0
176
     1
290
     0
176
     1
290
     0
176
     1
290
     0
176
     1
290
     0
176
     1
290
     0
176
     1
 90
       50
176
     1
 40
0.0
176
     1
 40
1.0
176
     1
 90
        0
176
     1
 62
    18
420
        0
176
     1
 90
       50
176
     1
 90
        3
176
     1
 62
     5
420
      255
176
     1
290
     0
176
     1
 90
       50
176
     1
 90
       50
176
     1
 90
       50
176
     1
290
     0
176
     1
 90
       50
176
     1
 62
   256
176
     0
 40
1.0
176
     0
 90
        2
176
     1
  1
strokes_ogs.tif
176
     1
290
     0
176
     1
 40
1.0
176
     1
 40
1.0
176
     1
  0
DICTIONARYVAR
  5
2723
102
{ACAD_REACTORS
330
271D
102
}
330
271D
100
DictionaryVariables
280
     0
  1
1:1
  0
DICTIONARYVAR
  5
271F
102
{ACAD_REACTORS
330
271D
102
}
330
271D
100
DictionaryVariables
280
     0
  1
STANDARD
  0
DICTIONARYVAR
  5
271E
102
{ACAD_REACTORS
330
271D
102
}
330
271D
100
DictionaryVariables
280
     0
  1
STANDARD
  0
DICTIONARYVAR
  5
2720
102
{ACAD_REACTORS
330
271D
102
}
330
271D
100
DictionaryVariables
280
     0
  1
Imperial24
  0
DICTIONARYVAR
  5
2721
102
{ACAD_REACTORS
330
271D
102
}
330
271D
100
DictionaryVariables
280
     0
  1
Imperial24
  0
DICTIONARYVAR
  5
2725
102
{ACAD_REACTORS
330
271D
102
}
330
271D
100
DictionaryVariables
280
     0
  1
1
  0
DICTIONARYVAR
  5
2726
102
{ACAD_REACTORS
330
271D
102
}
330
271D
100
DictionaryVariables
280
     0
  1
15
  0
DICTIONARYVAR
  5
2724
102
{ACAD_REACTORS
330
271D
102
}
330
271D
100
DictionaryVariables
280
     0
  1
0
  0
DICTIONARYVAR
  5
2722
102
{ACAD_REACTORS
330
271D
102
}
330
271D
100
DictionaryVariables
280
     0
  1
0
  0
XRECORD
  5
271C
102
{ACAD_REACTORS
330
271A
102
}
330
271A
100
AcDbXrecord
280
     1
330
26FD
330
270A
  0
ACDBASSOCNETWORK
  5
26F1
102
{ACAD_REACTORS
330
26F0
102
}
330
26F0
100
AcDbAssocAction
 90
        2
 90
        0
330
26F3
360
0
 90
        1
 90
        0
 90
        0
 90
        0
 90
        0
 90
        0
 90
        0
100
AcDbAssocNetwork
 90
        0
 90
        2
 90
        2
360
26F4
360
2701
 90
        0
  0
DICTIONARY
  5
26A6
330
26A5
100
AcDbDictionary
280
     1
281
     1
  3
BUMPTILE
360
26A8
  3
DIFFUSETILE
360
26A7
  3
OPACITYTILE
360
26AB
  3
REFLECTIONTILE
360
26AA
  3
REFRACTIONTILE
360
26AC
  3
SPECULARTILE
360
26A9
  0
DICTIONARY
  5
269E
330
269D
100
AcDbDictionary
280
     1
281
     1
  3
BUMPTILE
360
26A0
  3
DIFFUSETILE
360
269F
  3
OPACITYTILE
360
26A3
  3
REFLECTIONTILE
360
26A2
  3
REFRACTIONTILE
360
26A4
  3
SPECULARTILE
360
26A1
  0
DICTIONARY
  5
26AE
330
26AD
100
AcDbDictionary
280
     1
281
     1
  3
BUMPTILE
360
26B0
  3
DIFFUSETILE
360
26AF
  3
OPACITYTILE
360
26B3
  3
REFLECTIONTILE
360
26B2
  3
REFRACTIONTILE
360
26B4
  3
SPECULARTILE
360
26B1
  0
DICTIONARY
  5
2728
330
26D1
100
AcDbDictionary
280
     1
281
     1
  3
ACAD_ROUNDTRIP_2008_TABLESTYLE_CELLSTYLEMAP
360
2729
  0
ACDBASSOCACTION
  5
26F4
330
26F1
100
AcDbAssocAction
 90
        2
 90
        0
330
26F1
360
26F5
 90
        1
 90
        3
 90
        3
360
26F7
360
26F9
360
26FF
 90
        0
 90
        2
360
26F6
360
26F8
 90
        0
 90
       14
 90
        0
  1
StartExtLength
 90
        0
 90
        1
 40
1.000000000000000E+60
330
0
330
0
 90
        0
  1
EndExtLength
 90
        0
 90
        1
 40
1.000000000000000E+60
330
0
330
0
 90
        0
  1
StartOvershoot
 90
        0
 90
        1
 40
0.12
330
0
330
0
 90
        0
  1
EndOvershoot
 90
        0
 90
        1
 40
0.12
330
0
330
0
 90
        0
  1
EdgeRefDirectionEnding
 90
        0
 90
        2
 90
        0
330
0
 90
        1
330
0
330
0
 90
        0
  1
CenterDepId
 90
        0
 90
        1
330
26FF
330
0
330
0
 90
        0
  1
CachedCenterLineLength
 90
        0
 90
        1
 40
37500.0
330
0
330
0
 90
        0
  1
CachedCenterLineDirectionX
 90
        0
 90
        1
 40
0.0
330
0
330
0
 90
        0
  1
CachedCenterLineDirectionY
 90
        0
 90
        1
 40
1.0
330
0
330
0
 90
        0
  1
CachedCenterLineDirectionZ
 90
        0
 90
        1
 40
0.0
330
0
330
0
 90
        0
  1
SubentLineType
 90
        0
 90
        1
  1
CENTER2
330
0
330
0
 90
        0
  1
SubentLineWeight
 90
        0
 90
        1
 40
-1.0
330
0
330
0
 90
        0
  1
SubentLinetypeScale
 90
        0
 90
        1
 40
1.0
330
0
330
0
 90
        0
  1
CachedAssociateStatus
 90
        0
 90
        1
 40
1.0
330
0
330
0
  0
ACDBASSOCACTION
  5
2701
330
26F1
100
AcDbAssocAction
 90
        2
 90
        0
330
26F1
360
2702
 90
        2
 90
        3
 90
        3
360
2704
360
2706
360
270B
 90
        0
 90
        2
360
2703
360
2705
 90
        0
 90
       14
 90
        0
  1
StartExtLength
 90
        0
 90
        1
 40
1.000000000000000E+60
330
0
330
0
 90
        0
  1
EndExtLength
 90
        0
 90
        1
 40
1.000000000000000E+60
330
0
330
0
 90
        0
  1
StartOvershoot
 90
        0
 90
        1
 40
0.12
330
0
330
0
 90
        0
  1
EndOvershoot
 90
        0
 90
        1
 40
0.12
330
0
330
0
 90
        0
  1
EdgeRefDirectionEnding
 90
        0
 90
        2
 90
        0
330
0
 90
        1
330
0
330
0
 90
        0
  1
CenterDepId
 90
        0
 90
        1
330
270B
330
0
330
0
 90
        0
  1
CachedCenterLineLength
 90
        0
 90
        1
 40
27478.506
330
0
330
0
 90
        0
  1
CachedCenterLineDirectionX
 90
        0
 90
        1
 40
-1.0
330
0
330
0
 90
        0
  1
CachedCenterLineDirectionY
 90
        0
 90
        1
 40
0.0
330
0
330
0
 90
        0
  1
CachedCenterLineDirectionZ
 90
        0
 90
        1
 40
0.0
330
0
330
0
 90
        0
  1
SubentLineType
 90
        0
 90
        1
  1
CENTER2
330
0
330
0
 90
        0
  1
SubentLineWeight
 90
        0
 90
        1
 40
-1.0
330
0
330
0
 90
        0
  1
SubentLinetypeScale
 90
        0
 90
        1
 40
1.0
330
0
330
0
 90
        0
  1
CachedAssociateStatus
 90
        0
 90
        1
 40
1.0
330
0
330
0
  0
XRECORD
  5
26A8
102
{ACAD_REACTORS
330
26A6
102
}
330
26A6
100
AcDbXrecord
280
     1
270
     1
271
     1
  0
XRECORD
  5
26A7
102
{ACAD_REACTORS
330
26A6
102
}
330
26A6
100
AcDbXrecord
280
     1
270
     1
271
     1
  0
XRECORD
  5
26AB
102
{ACAD_REACTORS
330
26A6
102
}
330
26A6
100
AcDbXrecord
280
     1
270
     1
271
     1
  0
XRECORD
  5
26AA
102
{ACAD_REACTORS
330
26A6
102
}
330
26A6
100
AcDbXrecord
280
     1
270
     1
271
     1
  0
XRECORD
  5
26AC
102
{ACAD_REACTORS
330
26A6
102
}
330
26A6
100
AcDbXrecord
280
     1
270
     1
271
     1
  0
XRECORD
  5
26A9
102
{ACAD_REACTORS
330
26A6
102
}
330
26A6
100
AcDbXrecord
280
     1
270
     1
271
     1
  0
XRECORD
  5
26A0
102
{ACAD_REACTORS
330
269E
102
}
330
269E
100
AcDbXrecord
280
     1
270
     1
271
     1
  0
XRECORD
  5
269F
102
{ACAD_REACTORS
330
269E
102
}
330
269E
100
AcDbXrecord
280
     1
270
     1
271
     1
  0
XRECORD
  5
26A3
102
{ACAD_REACTORS
330
269E
102
}
330
269E
100
AcDbXrecord
280
     1
270
     1
271
     1
  0
XRECORD
  5
26A2
102
{ACAD_REACTORS
330
269E
102
}
330
269E
100
AcDbXrecord
280
     1
270
     1
271
     1
  0
XRECORD
  5
26A4
102
{ACAD_REACTORS
330
269E
102
}
330
269E
100
AcDbXrecord
280
     1
270
     1
271
     1
  0
XRECORD
  5
26A1
102
{ACAD_REACTORS
330
269E
102
}
330
269E
100
AcDbXrecord
280
     1
270
     1
271
     1
  0
XRECORD
  5
26B0
102
{ACAD_REACTORS
330
26AE
102
}
330
26AE
100
AcDbXrecord
280
     1
270
     1
271
     1
  0
XRECORD
  5
26AF
102
{ACAD_REACTORS
330
26AE
102
}
330
26AE
100
AcDbXrecord
280
     1
270
     1
271
     1
  0
XRECORD
  5
26B3
102
{ACAD_REACTORS
330
26AE
102
}
330
26AE
100
AcDbXrecord
280
     1
270
     1
271
     1
  0
XRECORD
  5
26B2
102
{ACAD_REACTORS
330
26AE
102
}
330
26AE
100
AcDbXrecord
280
     1
270
     1
271
     1
  0
XRECORD
  5
26B4
102
{ACAD_REACTORS
330
26AE
102
}
330
26AE
100
AcDbXrecord
280
     1
270
     1
271
     1
  0
XRECORD
  5
26B1
102
{ACAD_REACTORS
330
26AE
102
}
330
26AE
100
AcDbXrecord
280
     1
270
     1
271
     1
  0
CELLSTYLEMAP
  5
2729
102
{ACAD_REACTORS
330
2728
102
}
330
2728
100
AcDbCellStyleMap
 90
        3
300
CELLSTYLE
  1
TABLEFORMAT_BEGIN
 90
        5
170
     1
 91
        0
 92
    32768
 62
   257
 93
        1
300
CONTENTFORMAT
  1
CONTENTFORMAT_BEGIN
 90
        0
 91
        0
 92
      512
 93
        0
300

 40
0.0
140
1.0
 94
        5
 62
     0
340
B3F
144
0.25
309
CONTENTFORMAT_END
171
     0
 94
        0
309
TABLEFORMAT_END
  1
CELLSTYLE_BEGIN
 90
        1
 91
        1
300
_TITLE
309
CELLSTYLE_END
300
CELLSTYLE
  1
TABLEFORMAT_BEGIN
 90
        5
170
     1
 91
        0
 92
        0
 62
   257
 93
        1
300
CONTENTFORMAT
  1
CONTENTFORMAT_BEGIN
 90
        0
 91
        0
 92
      512
 93
        0
300

 40
0.0
140
1.0
 94
        5
 62
     0
340
B3F
144
0.18
309
CONTENTFORMAT_END
171
     0
 94
        0
309
TABLEFORMAT_END
  1
CELLSTYLE_BEGIN
 90
        2
 91
        1
300
_HEADER
309
CELLSTYLE_END
300
CELLSTYLE
  1
TABLEFORMAT_BEGIN
 90
        5
170
     1
 91
        0
 92
        0
 62
   257
 93
        1
300
CONTENTFORMAT
  1
CONTENTFORMAT_BEGIN
 90
        0
 91
        0
 92
      512
 93
        0
300

 40
0.0
140
1.0
 94
        2
 62
     0
340
B3F
144
0.18
309
CONTENTFORMAT_END
171
     0
 94
        0
309
TABLEFORMAT_END
  1
CELLSTYLE_BEGIN
 90
        3
 91
        2
300
_DATA
309
CELLSTYLE_END
  0
AcDbCenterLineActionBody
  5
26F5
330
26F4
100
AcDbAssocActionBody
 90
        2
100
AcDbSmartCenterActionBody
 90
        0
  0
ACDBASSOCGEOMDEPENDENCY
  5
26F7
330
26F4
100
AcDbAssocDependency
 90
        2
 90
        0
290
     1
290
     0
290
     1
290
     1
 90
        0
330
B38
290
     0
330
0
330
26F9
360
0
 90
        1
100
AcDbAssocGeomDependency
 90
        0
290
     1
  1
AcDbAssocEdgePersSubentId
 90
        0
 90
        1
 90
        2
290
     0
  0
ACDBASSOCGEOMDEPENDENCY
  5
26F9
330
26F4
100
AcDbAssocDependency
 90
        2
 90
        0
290
     1
290
     0
290
     1
290
     1
 90
        0
330
B38
290
     0
330
26F7
330
2704
360
0
 90
        2
100
AcDbAssocGeomDependency
 90
        0
290
     1
  1
AcDbAssocEdgePersSubentId
 90
        0
 90
        3
 90
        4
290
     0
  0
ACDBASSOCDEPENDENCY
  5
26FF
330
26F4
100
AcDbAssocDependency
 90
        2
 90
        0
290
     1
290
     1
290
     1
290
     1
 90
        0
330
26FD
290
     0
330
0
330
0
360
0
 90
        3
  0
ACDBASSOCEDGEACTIONPARAM
  5
26F6
330
26F4
100
AcDbAssocActionParam
 90
        1
 90
        0
  1
InputEdge
100
AcDbAssocSingleDependencyActionParam
 90
        0
330
26F7
100
AcDbAssocEdgeActionParam
 90
        0
330
0
290
     1
 90
       23
 10
18750.0
 20
-18750.0
 30
0.0
 10
0.0
 20
37500.0
 30
0.0
  0
ACDBASSOCEDGEACTIONPARAM
  5
26F8
330
26F4
100
AcDbAssocActionParam
 90
        1
 90
        0
  1
InputEdge
100
AcDbAssocSingleDependencyActionParam
 90
        0
330
26F9
100
AcDbAssocEdgeActionParam
 90
        0
330
0
290
     1
 90
       23
 10
-18750.0
 20
18750.0
 30
0.0
 10
0.0
 20
-37500.0
 30
0.0
  0
AcDbCenterLineActionBody
  5
2702
330
2701
100
AcDbAssocActionBody
 90
        2
100
AcDbSmartCenterActionBody
 90
        0
  0
ACDBASSOCGEOMDEPENDENCY
  5
2704
330
2701
100
AcDbAssocDependency
 90
        2
 90
        0
290
     1
290
     0
290
     1
290
     1
 90
        0
330
B38
290
     0
330
26F9
330
2706
360
0
 90
        1
100
AcDbAssocGeomDependency
 90
        0
290
     1
  1
AcDbAssocEdgePersSubentId
 90
        0
 90
        5
 90
        3
290
     0
  0
ACDBASSOCGEOMDEPENDENCY
  5
2706
330
2701
100
AcDbAssocDependency
 90
        2
 90
        0
290
     1
290
     0
290
     1
290
     1
 90
        0
330
B38
290
     0
330
2704
330
0
360
0
 90
        2
100
AcDbAssocGeomDependency
 90
        0
290
     1
  1
AcDbAssocEdgePersSubentId
 90
        0
 90
        4
 90
        6
290
     0
  0
ACDBASSOCDEPENDENCY
  5
270B
330
2701
100
AcDbAssocDependency
 90
        2
 90
        0
290
     1
290
     1
290
     1
290
     1
 90
        0
330
270A
290
     0
330
0
330
0
360
0
 90
        3
  0
ACDBASSOCEDGEACTIONPARAM
  5
2703
330
2701
100
AcDbAssocActionParam
 90
        1
 90
        0
  1
InputEdge
100
AcDbAssocSingleDependencyActionParam
 90
        0
330
2704
100
AcDbAssocEdgeActionParam
 90
        0
330
0
290
     1
 90
       23
 10
8728.506000000001
 20
18750.0
 30
0.0
 10
-27478.506
 20
0.0
 30
0.0
  0
ACDBASSOCEDGEACTIONPARAM
  5
2705
330
2701
100
AcDbAssocActionParam
 90
        1
 90
        0
  1
InputEdge
100
AcDbAssocSingleDependencyActionParam
 90
        0
330
2706
100
AcDbAssocEdgeActionParam
 90
        0
330
0
290
     1
 90
       23
 10
-18750.0
 20
-18750.0
 30
0.0
 10
27478.506
 20
0.0
 30
0.0
  0
ENDSEC
  0
EOF
