  0
SECTION
  2
HEADER
  9
$ACADVER
  1
AC1032
  9
$ACADMAINTVER
 90
      174
  9
$DWGCODEPAGE
  3
ANSI_1252
  9
$LASTSAVEDBY
  1
sarevalo
  9
$REQUIREDVERSIONS
160
                 0
  9
$INSBASE
 10
0.0
 20
0.0
 30
0.0
  9
$EXTMIN
 10
-25000.0
 20
-12500.0
 30
0.0
  9
$EXTMAX
 10
25000.0
 20
12500.0
 30
0.0
  9
$LIMMIN
 10
0.0
 20
0.0
  9
$LIMMAX
 10
0.0
 20
0.0
  9
$ORTHOMODE
 70
     0
  9
$REGENMODE
 70
     1
  9
$FILLMODE
 70
     1
  9
$QTEXTMODE
 70
     0
  9
$MIRRTEXT
 70
     1
  9
$LTSCALE
 40
1.0
  9
$ATTMODE
 70
     1
  9
$TEXTSIZE
 40
0.0
  9
$TRACEWID
 40
0.05
  9
$TEXTSTYLE
  7
STANDARD
  9
$CLAYER
  8
0
  9
$CELTYPE
  6
CONTINUOUS
  9
$CECOLOR
 62
   256
  9
$CELTSCALE
 40
1.0
  9
$DISPSILH
 70
     0
  9
$DIMSCALE
 40
1.0
  9
$DIMASZ
 40
0.18
  9
$DIMEXO
 40
0.0625
  9
$DIMDLI
 40
0.38
  9
$DIMRND
 40
0.0
  9
$DIMDLE
 40
0.0
  9
$DIMEXE
 40
0.18
  9
$DIMTP
 40
0.0
  9
$DIMTM
 40
0.0
  9
$DIMTXT
 40
0.18
  9
$DIMCEN
 40
0.09
  9
$DIMTSZ
 40
0.0
  9
$DIMTOL
 70
     0
  9
$DIMLIM
 70
     0
  9
$DIMTIH
 70
     1
  9
$DIMTOH
 70
     1
  9
$DIMSE1
 70
     0
  9
$DIMSE2
 70
     0
  9
$DIMTAD
 70
     0
  9
$DIMZIN
 70
     0
  9
$DIMBLK
  1

  9
$DIMASO
 70
     1
  9
$DIMSHO
 70
     1
  9
$DIMPOST
  1

  9
$DIMAPOST
  1

  9
$DIMALT
 70
     0
  9
$DIMALTD
 70
     2
  9
$DIMALTF
 40
25.4
  9
$DIMLFAC
 40
1.0
  9
$DIMTOFL
 70
     0
  9
$DIMTVP
 40
0.0
  9
$DIMTIX
 70
     0
  9
$DIMSOXD
 70
     0
  9
$DIMSAH
 70
     0
  9
$DIMBLK1
  1

  9
$DIMBLK2
  1

  9
$DIMSTYLE
  2
STANDARD
  9
$DIMCLRD
 70
     0
  9
$DIMCLRE
 70
     0
  9
$DIMCLRT
 70
     0
  9
$DIMTFAC
 40
1.0
  9
$DIMGAP
 40
0.09
  9
$DIMJUST
 70
     0
  9
$DIMSD1
 70
     0
  9
$DIMSD2
 70
     0
  9
$DIMTOLJ
 70
     1
  9
$DIMTZIN
 70
     0
  9
$DIMALTZ
 70
     0
  9
$DIMALTTZ
 70
     0
  9
$DIMUPT
 70
     0
  9
$DIMDEC
 70
     4
  9
$DIMTDEC
 70
     4
  9
$DIMALTU
 70
     2
  9
$DIMALTTD
 70
     2
  9
$DIMTXSTY
  7
STANDARD
  9
$DIMAUNIT
 70
     0
  9
$DIMADEC
 70
     0
  9
$DIMALTRND
 40
0.0
  9
$DIMAZIN
 70
     0
  9
$DIMDSEP
 70
    46
  9
$DIMATFIT
 70
     3
  9
$DIMFRAC
 70
     0
  9
$DIMLDRBLK
  1

  9
$DIMLUNIT
 70
     2
  9
$DIMLWD
 70
    -2
  9
$DIMLWE
 70
    -2
  9
$DIMTMOVE
 70
     0
  9
$DIMFXL
 40
1.0
  9
$DIMFXLON
 70
     0
  9
$DIMJOGANG
 40
0.7853981633974483
  9
$DIMTFILL
 70
     0
  9
$DIMTFILLCLR
 70
     0
  9
$DIMARCSYM
 70
     0
  9
$DIMLTYPE
  6

  9
$DIMLTEX1
  6

  9
$DIMLTEX2
  6

  9
$DIMTXTDIRECTION
 70
     0
  9
$LUNITS
 70
     2
  9
$LUPREC
 70
     4
  9
$SKETCHINC
 40
0.1
  9
$FILLETRAD
 40
0.0
  9
$AUNITS
 70
     0
  9
$AUPREC
 70
     0
  9
$MENU
  1
acad
  9
$ELEVATION
 40
0.0
  9
$PELEVATION
 40
0.0
  9
$THICKNESS
 40
0.0
  9
$LIMCHECK
 70
     0
  9
$CHAMFERA
 40
0.0
  9
$CHAMFERB
 40
0.0
  9
$CHAMFERC
 40
0.0
  9
$CHAMFERD
 40
0.0
  9
$SKPOLY
 70
     0
  9
$TDCREATE
 40
2414622.957627315
  9
$TDUCREATE
 40
2440587.999988426
  9
$TDUPDATE
 40
2460123.451574074
  9
$TDUUPDATE
 40
2460123.743240741
  9
$TDINDWG
 40
0.0006944444
  9
$TDUSRTIMER
 40
0.0006944444
  9
$USRTIMER
 70
     1
  9
$ANGBASE
 50
0.0
  9
$ANGDIR
 70
     0
  9
$PDMODE
 70
     0
  9
$PDSIZE
 40
0.0
  9
$PLINEWID
 40
0.0
  9
$SPLFRAME
 70
     0
  9
$SPLINETYPE
 70
     6
  9
$SPLINESEGS
 70
     8
  9
$HANDSEED
  5
37BF
  9
$SURFTAB1
 70
     6
  9
$SURFTAB2
 70
     6
  9
$SURFTYPE
 70
     6
  9
$SURFU
 70
     6
  9
$SURFV
 70
     6
  9
$UCSBASE
  2

  9
$UCSNAME
  2

  9
$UCSORG
 10
0.0
 20
0.0
 30
0.0
  9
$UCSXDIR
 10
1.0
 20
0.0
 30
0.0
  9
$UCSYDIR
 10
0.0
 20
1.0
 30
0.0
  9
$UCSORTHOREF
  2

  9
$UCSORTHOVIEW
 70
     0
  9
$UCSORGTOP
 10
0.0
 20
0.0
 30
0.0
  9
$UCSORGBOTTOM
 10
0.0
 20
0.0
 30
0.0
  9
$UCSORGLEFT
 10
0.0
 20
0.0
 30
0.0
  9
$UCSORGRIGHT
 10
0.0
 20
0.0
 30
0.0
  9
$UCSORGFRONT
 10
0.0
 20
0.0
 30
0.0
  9
$UCSORGBACK
 10
0.0
 20
0.0
 30
0.0
  9
$PUCSBASE
  2

  9
$PUCSNAME
  2

  9
$PUCSORG
 10
0.0
 20
0.0
 30
0.0
  9
$PUCSXDIR
 10
1.0
 20
0.0
 30
0.0
  9
$PUCSYDIR
 10
0.0
 20
1.0
 30
0.0
  9
$PUCSORTHOREF
  2

  9
$PUCSORTHOVIEW
 70
     0
  9
$PUCSORGTOP
 10
0.0
 20
0.0
 30
0.0
  9
$PUCSORGBOTTOM
 10
0.0
 20
0.0
 30
0.0
  9
$PUCSORGLEFT
 10
0.0
 20
0.0
 30
0.0
  9
$PUCSORGRIGHT
 10
0.0
 20
0.0
 30
0.0
  9
$PUCSORGFRONT
 10
0.0
 20
0.0
 30
0.0
  9
$PUCSORGBACK
 10
0.0
 20
0.0
 30
0.0
  9
$USERI1
 70
    -4
  9
$USERI2
 70
     0
  9
$USERI3
 70
     0
  9
$USERI4
 70
     0
  9
$USERI5
 70
     0
  9
$USERR1
 40
0.0
  9
$USERR2
 40
0.0
  9
$USERR3
 40
0.0
  9
$USERR4
 40
0.0
  9
$USERR5
 40
0.0
  9
$WORLDVIEW
 70
     1
  9
$SHADEDGE
 70
     3
  9
$SHADEDIF
 70
    70
  9
$TILEMODE
 70
     1
  9
$MAXACTVP
 70
    16
  9
$PINSBASE
 10
0.0
 20
0.0
 30
0.0
  9
$PLIMCHECK
 70
     0
  9
$PEXTMIN
 10
1.000000000000000E+20
 20
1.000000000000000E+20
 30
1.000000000000000E+20
  9
$PEXTMAX
 10
-1.000000000000000E+20
 20
-1.000000000000000E+20
 30
-1.000000000000000E+20
  9
$PLIMMIN
 10
0.0
 20
0.0
  9
$PLIMMAX
 10
12.0
 20
9.0
  9
$UNITMODE
 70
     0
  9
$VISRETAIN
 70
     0
  9
$PLINEGEN
 70
     1
  9
$PSLTSCALE
 70
     0
  9
$TREEDEPTH
 70
  3020
  9
$CMLSTYLE
  2
STANDARD
  9
$CMLJUST
 70
     0
  9
$CMLSCALE
 40
1.0
  9
$PROXYGRAPHICS
 70
     0
  9
$MEASUREMENT
 70
     0
  9
$CELWEIGHT
370
    -1
  9
$ENDCAPS
280
     0
  9
$JOINSTYLE
280
     0
  9
$LWDISPLAY
290
     0
  9
$INSUNITS
 70
     0
  9
$HYPERLINKBASE
  1

  9
$STYLESHEET
  1

  9
$XEDIT
290
     1
  9
$CEPSNTYPE
380
     0
  9
$PSTYLEMODE
290
     1
  9
$FINGERPRINTGUID
  2
{FC578A2B-59DB-874F-8DA1-30FB6797ABE3}
  9
$VERSIONGUID
  2
{8D54E0E6-D77F-6B4E-AC65-864F3F6D9219}
  9
$EXTNAMES
290
     1
  9
$PSVPSCALE
 40
0.0
  9
$OLESTARTUP
290
     0
  9
$SORTENTS
280
   127
  9
$INDEXCTL
280
     0
  9
$HIDETEXT
280
     0
  9
$XCLIPFRAME
280
     2
  9
$HALOGAP
280
     0
  9
$OBSCOLOR
 70
   257
  9
$OBSLTYPE
280
     0
  9
$INTERSECTIONDISPLAY
280
     0
  9
$INTERSECTIONCOLOR
 70
   257
  9
$DIMASSOC
280
     1
  9
$PROJECTNAME
  1

  9
$CAMERADISPLAY
290
     0
  9
$LENSLENGTH
 40
50.0
  9
$CAMERAHEIGHT
 40
0.0
  9
$STEPSPERSEC
 40
2.0
  9
$STEPSIZE
 40
6.0
  9
$3DDWFPREC
 40
2.0
  9
$PSOLWIDTH
 40
0.25
  9
$PSOLHEIGHT
 40
4.0
  9
$LOFTANG1
 40
1.570796326794896
  9
$LOFTANG2
 40
1.570796326794896
  9
$LOFTMAG1
 40
0.0
  9
$LOFTMAG2
 40
0.0
  9
$LOFTPARAM
 70
     7
  9
$LOFTNORMALS
280
     1
  9
$LATITUDE
 40
37.795
  9
$LONGITUDE
 40
-122.394
  9
$NORTHDIRECTION
 40
0.0
  9
$TIMEZONE
 70
 -8000
  9
$LIGHTGLYPHDISPLAY
280
     1
  9
$TILEMODELIGHTSYNCH
280
     1
  9
$CMATERIAL
347
3754
  9
$SOLIDHIST
280
     0
  9
$SHOWHIST
280
     1
  9
$DWFFRAME
280
     2
  9
$DGNFRAME
280
     0
  9
$REALWORLDSCALE
290
     1
  9
$INTERFERECOLOR
 62
     1
  9
$INTERFEREOBJVS
345
3776
  9
$INTERFEREVPVS
346
3773
  9
$CSHADOW
280
     0
  9
$SHADOWPLANELOCATION
 40
0.0
  0
ENDSEC
  0
SECTION
  2
CLASSES
  0
CLASS
  1
IMAGE
  2
AcDbRasterImage
  3
ISM
 90
     2175
 91
        0
280
     0
281
     1
  0
CLASS
  1
DICTIONARYVAR
  2
AcDbDictionaryVar
  3
ObjectDBX Classes
 90
        0
 91
        9
280
     0
281
     0
  0
CLASS
  1
RASTERVARIABLES
  2
AcDbRasterVariables
  3
ISM
 90
        0
 91
        0
280
     0
281
     0
  0
CLASS
  1
IMAGEDEF
  2
AcDbRasterImageDef
  3
ISM
 90
        0
 91
        0
280
     0
281
     0
  0
CLASS
  1
IMAGEDEF_REACTOR
  2
AcDbRasterImageDefReactor
  3
ISM
 90
        1
 91
        0
280
     0
281
     0
  0
CLASS
  1
IDBUFFER
  2
AcDbIdBuffer
  3
ObjectDBX Classes
 90
        0
 91
        0
280
     0
281
     0
  0
CLASS
  1
SPATIAL_FILTER
  2
AcDbSpatialFilter
  3
ObjectDBX Classes
 90
        0
 91
        0
280
     0
281
     0
  0
CLASS
  1
SORTENTSTABLE
  2
AcDbSortentsTable
  3
ObjectDBX Classes
 90
        0
 91
        0
280
     0
281
     0
  0
CLASS
  1
LAYER_INDEX
  2
AcDbLayerIndex
  3
ObjectDBX Classes
 90
        0
 91
        0
280
     0
281
     0
  0
CLASS
  1
SPATIAL_INDEX
  2
AcDbSpatialIndex
  3
ObjectDBX Classes
 90
        0
 91
        0
280
     0
281
     0
  0
CLASS
  1
OBJECT_PTR
  2
CAseDLPNTableRecord
  3
ASE-LPNTableRecord
 90
        1
 91
        0
280
     0
281
     0
  0
CLASS
  1
PLOTSETTINGS
  2
AcDbPlotSettings
  3
ObjectDBX Classes
 90
        0
 91
        0
280
     0
281
     0
  0
CLASS
  1
ACDBDICTIONARYWDFLT
  2
AcDbDictionaryWithDefault
  3
ObjectDBX Classes
 90
        0
 91
        1
280
     0
281
     0
  0
CLASS
  1
WIPEOUT
  2
AcDbWipeout
  3
WipeOut|Product Desc: Object Enabler for WipeOut entity | Company: Autodesk, Inc. | WEB Address: www.autodesk.com
 90
     2175
 91
        0
280
     0
281
     1
  0
CLASS
  1
WIPEOUTVARIABLES
  2
AcDbWipeoutVariables
  3
"WipeOut|Product Desc:     WipeOut Dbx Application|Company:          Autodesk, Inc.|WEB Address:      www.autodesk.com"
 90
        0
 91
        0
280
     0
281
     0
  0
CLASS
  1
RTEXT
  2
RText
  3
RText|AutoCAD Express Tool|expresstools@autodesk.com
 90
     3071
 91
        0
280
     0
281
     1
  0
CLASS
  1
ARCALIGNEDTEXT
  2
AcDbArcAlignedText
  3
ATEXT|AutoCAD Express Tool|expresstools@autodesk.com
 90
        0
 91
        0
280
     0
281
     1
  0
CLASS
  1
MATERIAL
  2
AcDbMaterial
  3
ObjectDBX Classes
 90
     1153
 91
        3
280
     0
281
     0
  0
CLASS
  1
VISUALSTYLE
  2
AcDbVisualStyle
  3
ObjectDBX Classes
 90
     4095
 91
       24
280
     0
281
     0
  0
CLASS
  1
TABLESTYLE
  2
AcDbTableStyle
  3
ObjectDBX Classes
 90
     4095
 91
        1
280
     0
281
     0
  0
CLASS
  1
SCALE
  2
AcDbScale
  3
ObjectDBX Classes
 90
     1153
 91
       17
280
     0
281
     0
  0
CLASS
  1
MLEADERSTYLE
  2
AcDbMLeaderStyle
  3
ACDB_MLEADERSTYLE_CLASS
 90
     4095
 91
        1
280
     0
281
     0
  0
CLASS
  1
ACDBSECTIONVIEWSTYLE
  2
AcDbSectionViewStyle
  3
ObjectDBX Classes
 90
     1025
 91
        1
280
     0
281
     0
  0
CLASS
  1
ACDBDETAILVIEWSTYLE
  2
AcDbDetailViewStyle
  3
ObjectDBX Classes
 90
     1025
 91
        1
280
     0
281
     0
  0
CLASS
  1
CELLSTYLEMAP
  2
AcDbCellStyleMap
  3
ObjectDBX Classes
 90
     1152
 91
        1
280
     0
281
     0
  0
ENDSEC
  0
SECTION
  2
TABLES
  0
TABLE
  2
VPORT
  5
7
330
0
100
AcDbSymbolTable
 70
     1
  0
VPORT
  5
13
330
7
100
AcDbSymbolTableRecord
100
AcDbViewportTableRecord
  2
*ACTIVE
 70
     0
 10
0.0
 20
0.0
 11
1.0
 21
1.0
 12
1718.386460396345
 22
-1813.501004887279
 13
0.0
 23
0.0
 14
1.0
 24
1.0
 15
0.0
 25
0.0
 16
0.0
 26
0.0
 36
1.0
 17
0.0
 27
0.0
 37
0.0
 40
26723.77888972294
 41
2.848360655737705
 42
50.0
 43
0.0
 44
0.0
 50
0.0
 51
0.0
 71
     0
 72
   100
 73
     1
 74
     1
 75
     0
 76
     0
 77
     0
 78
     0
281
     0
 65
     1
110
0.0
120
0.0
130
0.0
111
1.0
121
0.0
131
0.0
112
0.0
122
1.0
132
0.0
 79
     0
146
0.0
348
3772
 60
     3
 61
     5
292
     1
282
     1
141
0.0
142
0.0
 63
   250
421
  3355443
1001
ACAD_NAV_VCDISPLAY
1070
     3
  0
ENDTAB
  0
TABLE
  2
LTYPE
  5
4
330
0
100
AcDbSymbolTable
 70
     1
  0
LTYPE
  5
10
330
4
100
AcDbSymbolTableRecord
100
AcDbLinetypeTableRecord
  2
BYBLOCK
 70
     0
  3

 72
    65
 73
     0
 40
0.0
  0
LTYPE
  5
11
330
4
100
AcDbSymbolTableRecord
100
AcDbLinetypeTableRecord
  2
BYLAYER
 70
     0
  3

 72
    65
 73
     0
 40
0.0
  0
LTYPE
  5
12
330
4
100
AcDbSymbolTableRecord
100
AcDbLinetypeTableRecord
  2
CONTINUOUS
 70
     0
  3
Solid Line
 72
    65
 73
     0
 40
0.0
  0
ENDTAB
  0
TABLE
  2
LAYER
  5
2
330
0
100
AcDbSymbolTable
 70
     3
  0
LAYER
  5
F88
102
{ACAD_XDICTIONARY
360
37A7
102
}
330
2
100
AcDbSymbolTableRecord
100
AcDbLayerTableRecord
  2
0
 70
     0
 62
     7
  6
CONTINUOUS
370
    -3
390
3752
347
3764
348
0
  0
LAYER
  5
F89
102
{ACAD_XDICTIONARY
360
37A9
102
}
330
2
100
AcDbSymbolTableRecord
100
AcDbLayerTableRecord
  2
PKG_OUTLINE
 70
     0
 62
    37
  6
CONTINUOUS
370
    -3
390
3752
347
3764
348
0
  0
LAYER
  5
F8A
102
{ACAD_XDICTIONARY
360
37AB
102
}
330
2
100
AcDbSymbolTableRecord
100
AcDbLayerTableRecord
  2
SOLDERMASK_PADS_BTM
 70
     0
 62
   150
  6
CONTINUOUS
370
    -3
390
3752
347
3764
348
0
  0
ENDTAB
  0
TABLE
  2
STYLE
  5
3
330
0
100
AcDbSymbolTable
 70
     1
  0
STYLE
  5
F8B
330
3
100
AcDbSymbolTableRecord
100
AcDbTextStyleTableRecord
  2
STANDARD
 70
     0
 40
0.0
 41
1.0
 50
0.0
 71
     0
 42
0.0
  3
txt
  4

  0
ENDTAB
  0
TABLE
  2
VIEW
  5
5
330
0
100
AcDbSymbolTable
 70
     0
  0
ENDTAB
  0
TABLE
  2
UCS
  5
6
330
0
100
AcDbSymbolTable
 70
     0
  0
ENDTAB
  0
TABLE
  2
APPID
  5
8
330
0
100
AcDbSymbolTable
 70
     3
  0
APPID
  5
14
330
8
100
AcDbSymbolTableRecord
100
AcDbRegAppTableRecord
  2
ACAD
 70
     0
  0
APPID
  5
37AF
330
8
100
AcDbSymbolTableRecord
100
AcDbRegAppTableRecord
  2
DCO15
 70
     0
  0
APPID
  5
37BB
330
8
100
AcDbSymbolTableRecord
100
AcDbRegAppTableRecord
  2
ACAD_NAV_VCDISPLAY
 70
     0
  0
ENDTAB
  0
TABLE
  2
DIMSTYLE
  5
9
330
0
100
AcDbSymbolTable
 70
     1
100
AcDbDimStyleTable
 71
     0
  0
DIMSTYLE
105
15
330
9
100
AcDbSymbolTableRecord
100
AcDbDimStyleTableRecord
  2
STANDARD
 70
     0
340
17
  0
ENDTAB
  0
TABLE
  2
BLOCK_RECORD
  5
1
330
0
100
AcDbSymbolTable
 70
     0
  0
BLOCK_RECORD
  5
A
330
1
100
AcDbSymbolTableRecord
100
AcDbBlockTableRecord
  2
*MODEL_SPACE
340
37A2
 70
     0
280
     1
281
     0
  0
BLOCK_RECORD
  5
B
330
1
100
AcDbSymbolTableRecord
100
AcDbBlockTableRecord
  2
*PAPER_SPACE
340
37A3
 70
     0
280
     1
281
     0
  0
ENDTAB
  0
ENDSEC
  0
SECTION
  2
BLOCKS
  0
BLOCK
  5
C
330
A
100
AcDbEntity
  8
0
100
AcDbBlockBegin
  2
*MODEL_SPACE
 70
     0
 10
0.0
 20
0.0
 30
0.0
  3
*MODEL_SPACE
  1

  0
ENDBLK
  5
D
330
A
100
AcDbEntity
  8
0
100
AcDbBlockEnd
  0
BLOCK
  5
E
330
B
100
AcDbEntity
 67
     1
  8
0
100
AcDbBlockBegin
  2
*PAPER_SPACE
 70
     0
 10
0.0
 20
0.0
 30
0.0
  3
*PAPER_SPACE
  1

  0
ENDBLK
  5
F
330
B
100
AcDbEntity
 67
     1
  8
0
100
AcDbBlockEnd
  0
ENDSEC
  0
SECTION
  2
ENTITIES
  0
LWPOLYLINE
  5
1B
330
A
100
AcDbEntity
  8
PKG_OUTLINE
100
AcDbPolyline
 90
        4
 70
     1
 43
0.0
 10
-25000.0
 20
-12500.0
 10
-25000.0
 20
12500.0
 10
25000.0
 20
12500.0
 10
25000.0
 20
-12500.0
  0
SOLID
  5
1C
330
A
100
AcDbEntity
  8
SOLDERMASK_PADS_BTM
100
AcDbTrace
 10
8359.316999999998
 20
1321.68
 30
0.0
 11
8559.316999999998
 21
1321.68
 31
0.0
 12
8359.316999999998
 22
2321.68
 32
0.0
 13
8559.316999999998
 23
2321.68
 33
0.0
  0
SOLID
  5
1D
330
A
100
AcDbEntity
  8
SOLDERMASK_PADS_BTM
100
AcDbTrace
 10
7959.316999999998
 20
1321.68
 30
0.0
 11
8159.316999999999
 21
1321.68
 31
0.0
 12
7959.316999999998
 22
2321.68
 32
0.0
 13
8159.316999999999
 23
2321.68
 33
0.0
  0
SOLID
  5
1E
330
A
100
AcDbEntity
  8
SOLDERMASK_PADS_BTM
100
AcDbTrace
 10
-833.6529999999999
 20
3591.989
 30
0.0
 11
166.347
 21
3591.989
 31
0.0
 12
-833.6529999999999
 22
3791.989
 32
0.0
 13
166.347
 23
3791.989
 33
0.0
  0
SOLID
  5
1F
330
A
100
AcDbEntity
  8
SOLDERMASK_PADS_BTM
100
AcDbTrace
 10
-833.6529999999999
 20
3191.989
 30
0.0
 11
166.347
 21
3191.989
 31
0.0
 12
-833.6529999999999
 22
3391.989000000001
 32
0.0
 13
166.347
 23
3391.989000000001
 33
0.0
  0
SOLID
  5
20
330
A
100
AcDbEntity
  8
SOLDERMASK_PADS_BTM
100
AcDbTrace
 10
-5829.12
 20
3641.989000000001
 30
0.0
 11
-5629.12
 21
3641.989000000001
 31
0.0
 12
-5829.12
 22
3791.989
 32
0.0
 13
-5629.12
 23
3791.989
 33
0.0
  0
SOLID
  5
21
330
A
100
AcDbEntity
  8
SOLDERMASK_PADS_BTM
100
AcDbTrace
 10
-5829.12
 20
3311.989
 30
0.0
 11
-5629.12
 21
3311.989
 31
0.0
 12
-5829.12
 22
3461.989
 32
0.0
 13
-5629.12
 23
3461.989
 33
0.0
  0
SOLID
  5
22
330
A
100
AcDbEntity
  8
SOLDERMASK_PADS_BTM
100
AcDbTrace
 10
-1453.724
 20
1854.771
 30
0.0
 11
-953.7239999999998
 21
1854.771
 31
0.0
 12
-1453.724
 22
2230.771
 32
0.0
 13
-953.7239999999998
 23
2230.771
 33
0.0
  0
SOLID
  5
23
330
A
100
AcDbEntity
  8
SOLDERMASK_PADS_BTM
100
AcDbTrace
 10
-1453.724
 20
1028.771
 30
0.0
 11
-953.7239999999998
 21
1028.771
 31
0.0
 12
-1453.724
 22
1404.771
 32
0.0
 13
-953.7239999999998
 23
1404.771
 33
0.0
  0
SOLID
  5
24
330
A
100
AcDbEntity
  8
SOLDERMASK_PADS_BTM
100
AcDbTrace
 10
-1665.858
 20
3168.718
 30
0.0
 11
-1465.858
 21
3168.718
 31
0.0
 12
-1665.858
 22
3318.718
 32
0.0
 13
-1465.858
 23
3318.718
 33
0.0
  0
SOLID
  5
25
330
A
100
AcDbEntity
  8
SOLDERMASK_PADS_BTM
100
AcDbTrace
 10
-1665.858
 20
3498.718
 30
0.0
 11
-1465.858
 21
3498.718
 31
0.0
 12
-1665.858
 22
3648.718000000001
 32
0.0
 13
-1465.858
 23
3648.718000000001
 33
0.0
  0
SOLID
  5
26
330
A
100
AcDbEntity
  8
SOLDERMASK_PADS_BTM
100
AcDbTrace
 10
-1451.927
 20
-5299.904000000001
 30
0.0
 11
-951.927
 21
-5299.904000000001
 31
0.0
 12
-1451.927
 22
-4923.904
 32
0.0
 13
-951.927
 23
-4923.904
 33
0.0
  0
SOLID
  5
27
330
A
100
AcDbEntity
  8
SOLDERMASK_PADS_BTM
100
AcDbTrace
 10
-1451.927
 20
-4473.904
 30
0.0
 11
-951.927
 21
-4473.904
 31
0.0
 12
-1451.927
 22
-4097.904
 32
0.0
 13
-951.927
 23
-4097.904
 33
0.0
  0
SOLID
  5
28
330
A
100
AcDbEntity
  8
SOLDERMASK_PADS_BTM
100
AcDbTrace
 10
8359.316999999998
 20
118.464
 30
0.0
 11
8559.316999999998
 21
118.464
 31
0.0
 12
8359.316999999998
 22
1118.464
 32
0.0
 13
8559.316999999998
 23
1118.464
 33
0.0
  0
SOLID
  5
29
330
A
100
AcDbEntity
  8
SOLDERMASK_PADS_BTM
100
AcDbTrace
 10
7959.316999999998
 20
118.464
 30
0.0
 11
8159.316999999999
 21
118.464
 31
0.0
 12
7959.316999999998
 22
1118.464
 32
0.0
 13
8159.316999999999
 23
1118.464
 33
0.0
  0
SOLID
  5
2A
330
A
100
AcDbEntity
  8
SOLDERMASK_PADS_BTM
100
AcDbTrace
 10
-1453.724
 20
-348.229
 30
0.0
 11
-953.7239999999998
 21
-348.229
 31
0.0
 12
-1453.724
 22
27.771
 32
0.0
 13
-953.7239999999998
 23
27.771
 33
0.0
  0
SOLID
  5
2B
330
A
100
AcDbEntity
  8
SOLDERMASK_PADS_BTM
100
AcDbTrace
 10
-1453.724
 20
477.7709999999999
 30
0.0
 11
-953.7239999999998
 21
477.7709999999999
 31
0.0
 12
-1453.724
 22
853.771
 32
0.0
 13
-953.7239999999998
 23
853.771
 33
0.0
  0
SOLID
  5
2C
330
A
100
AcDbEntity
  8
SOLDERMASK_PADS_BTM
100
AcDbTrace
 10
-1451.927
 20
-3096.904000000001
 30
0.0
 11
-951.927
 21
-3096.904000000001
 31
0.0
 12
-1451.927
 22
-2720.904000000001
 32
0.0
 13
-951.927
 23
-2720.904000000001
 33
0.0
  0
SOLID
  5
2D
330
A
100
AcDbEntity
  8
SOLDERMASK_PADS_BTM
100
AcDbTrace
 10
-1451.927
 20
-3922.904000000001
 30
0.0
 11
-951.927
 21
-3922.904000000001
 31
0.0
 12
-1451.927
 22
-3546.904000000001
 32
0.0
 13
-951.927
 23
-3546.904000000001
 33
0.0
  0
SOLID
  5
2E
330
A
100
AcDbEntity
  8
SOLDERMASK_PADS_BTM
100
AcDbTrace
 10
8359.316999999998
 20
-1084.752
 30
0.0
 11
8559.316999999998
 21
-1084.752
 31
0.0
 12
8359.316999999998
 22
-84.752
 32
0.0
 13
8559.316999999998
 23
-84.752
 33
0.0
  0
SOLID
  5
2F
330
A
100
AcDbEntity
  8
SOLDERMASK_PADS_BTM
100
AcDbTrace
 10
7959.316999999998
 20
-1084.752
 30
0.0
 11
8159.316999999999
 21
-1084.752
 31
0.0
 12
7959.316999999998
 22
-84.752
 32
0.0
 13
8159.316999999999
 23
-84.752
 33
0.0
  0
SOLID
  5
30
330
A
100
AcDbEntity
  8
SOLDERMASK_PADS_BTM
100
AcDbTrace
 10
-1113.724
 20
2405.771
 30
0.0
 11
-963.724
 21
2405.771
 31
0.0
 12
-1113.724
 22
2605.771000000001
 32
0.0
 13
-963.724
 23
2605.771000000001
 33
0.0
  0
SOLID
  5
31
330
A
100
AcDbEntity
  8
SOLDERMASK_PADS_BTM
100
AcDbTrace
 10
-1443.724
 20
2405.771
 30
0.0
 11
-1293.724
 21
2405.771
 31
0.0
 12
-1443.724
 22
2605.771000000001
 32
0.0
 13
-1293.724
 23
2605.771000000001
 33
0.0
  0
SOLID
  5
32
330
A
100
AcDbEntity
  8
SOLDERMASK_PADS_BTM
100
AcDbTrace
 10
1891.049
 20
1980.771
 30
0.0
 11
2091.049
 21
1980.771
 31
0.0
 12
1891.049
 22
2980.771
 32
0.0
 13
2091.049
 23
2980.771
 33
0.0
  0
SOLID
  5
33
330
A
100
AcDbEntity
  8
SOLDERMASK_PADS_BTM
100
AcDbTrace
 10
1491.049
 20
1980.771
 30
0.0
 11
1691.049
 21
1980.771
 31
0.0
 12
1491.049
 22
2980.771
 32
0.0
 13
1691.049
 23
2980.771
 33
0.0
  0
SOLID
  5
34
330
A
100
AcDbEntity
  8
SOLDERMASK_PADS_BTM
100
AcDbTrace
 10
-1441.927
 20
-5674.904000000001
 30
0.0
 11
-1291.927
 21
-5674.904000000001
 31
0.0
 12
-1441.927
 22
-5474.904000000001
 32
0.0
 13
-1291.927
 23
-5474.904000000001
 33
0.0
  0
SOLID
  5
35
330
A
100
AcDbEntity
  8
SOLDERMASK_PADS_BTM
100
AcDbTrace
 10
-1111.927
 20
-5674.904000000001
 30
0.0
 11
-961.927
 21
-5674.904000000001
 31
0.0
 12
-1111.927
 22
-5474.904000000001
 32
0.0
 13
-961.927
 23
-5474.904000000001
 33
0.0
  0
SOLID
  5
36
330
A
100
AcDbEntity
  8
SOLDERMASK_PADS_BTM
100
AcDbTrace
 10
1892.846
 20
-6049.904000000001
 30
0.0
 11
2092.846
 21
-6049.904000000001
 31
0.0
 12
1892.846
 22
-5049.904000000001
 32
0.0
 13
2092.846
 23
-5049.904000000001
 33
0.0
  0
SOLID
  5
37
330
A
100
AcDbEntity
  8
SOLDERMASK_PADS_BTM
100
AcDbTrace
 10
1492.846
 20
-6049.904000000001
 30
0.0
 11
1692.846
 21
-6049.904000000001
 31
0.0
 12
1492.846
 22
-5049.904000000001
 32
0.0
 13
1692.846
 23
-5049.904000000001
 33
0.0
  0
SOLID
  5
38
330
A
100
AcDbEntity
  8
SOLDERMASK_PADS_BTM
100
AcDbTrace
 10
8359.316999999998
 20
-2362.915
 30
0.0
 11
8559.316999999998
 21
-2362.915
 31
0.0
 12
8359.316999999998
 22
-1362.915
 32
0.0
 13
8559.316999999998
 23
-1362.915
 33
0.0
  0
SOLID
  5
39
330
A
100
AcDbEntity
  8
SOLDERMASK_PADS_BTM
100
AcDbTrace
 10
7959.316999999998
 20
-2362.915
 30
0.0
 11
8159.316999999999
 21
-2362.915
 31
0.0
 12
7959.316999999998
 22
-1362.915
 32
0.0
 13
8159.316999999999
 23
-1362.915
 33
0.0
  0
SOLID
  5
3A
330
A
100
AcDbEntity
  8
SOLDERMASK_PADS_BTM
100
AcDbTrace
 10
8359.316999999998
 20
-4769.346999999999
 30
0.0
 11
8559.316999999998
 21
-4769.346999999999
 31
0.0
 12
8359.316999999998
 22
-3769.347000000001
 32
0.0
 13
8559.316999999998
 23
-3769.347000000001
 33
0.0
  0
SOLID
  5
3B
330
A
100
AcDbEntity
  8
SOLDERMASK_PADS_BTM
100
AcDbTrace
 10
7959.316999999998
 20
-4769.346999999999
 30
0.0
 11
8159.316999999999
 21
-4769.346999999999
 31
0.0
 12
7959.316999999998
 22
-3769.347000000001
 32
0.0
 13
8159.316999999999
 23
-3769.347000000001
 33
0.0
  0
SOLID
  5
3C
330
A
100
AcDbEntity
  8
SOLDERMASK_PADS_BTM
100
AcDbTrace
 10
-1113.724
 20
2780.771
 30
0.0
 11
-963.724
 21
2780.771
 31
0.0
 12
-1113.724
 22
2980.771
 32
0.0
 13
-963.724
 23
2980.771
 33
0.0
  0
SOLID
  5
3D
330
A
100
AcDbEntity
  8
SOLDERMASK_PADS_BTM
100
AcDbTrace
 10
-1443.724
 20
2780.771
 30
0.0
 11
-1293.724
 21
2780.771
 31
0.0
 12
-1443.724
 22
2980.771
 32
0.0
 13
-1293.724
 23
2980.771
 33
0.0
  0
SOLID
  5
3E
330
A
100
AcDbEntity
  8
SOLDERMASK_PADS_BTM
100
AcDbTrace
 10
1891.049
 20
778.587
 30
0.0
 11
2091.049
 21
778.587
 31
0.0
 12
1891.049
 22
1778.587
 32
0.0
 13
2091.049
 23
1778.587
 33
0.0
  0
SOLID
  5
3F
330
A
100
AcDbEntity
  8
SOLDERMASK_PADS_BTM
100
AcDbTrace
 10
1491.049
 20
778.587
 30
0.0
 11
1691.049
 21
778.587
 31
0.0
 12
1491.049
 22
1778.587
 32
0.0
 13
1691.049
 23
1778.587
 33
0.0
  0
SOLID
  5
40
330
A
100
AcDbEntity
  8
SOLDERMASK_PADS_BTM
100
AcDbTrace
 10
-1441.927
 20
-6049.904000000001
 30
0.0
 11
-1291.927
 21
-6049.904000000001
 31
0.0
 12
-1441.927
 22
-5849.904000000001
 32
0.0
 13
-1291.927
 23
-5849.904000000001
 33
0.0
  0
SOLID
  5
41
330
A
100
AcDbEntity
  8
SOLDERMASK_PADS_BTM
100
AcDbTrace
 10
-1111.927
 20
-6049.904000000001
 30
0.0
 11
-961.927
 21
-6049.904000000001
 31
0.0
 12
-1111.927
 22
-5849.904000000001
 32
0.0
 13
-961.927
 23
-5849.904000000001
 33
0.0
  0
SOLID
  5
42
330
A
100
AcDbEntity
  8
SOLDERMASK_PADS_BTM
100
AcDbTrace
 10
1892.846
 20
-4847.72
 30
0.0
 11
2092.846
 21
-4847.72
 31
0.0
 12
1892.846
 22
-3847.72
 32
0.0
 13
2092.846
 23
-3847.72
 33
0.0
  0
SOLID
  5
43
330
A
100
AcDbEntity
  8
SOLDERMASK_PADS_BTM
100
AcDbTrace
 10
1492.846
 20
-4847.72
 30
0.0
 11
1692.846
 21
-4847.72
 31
0.0
 12
1492.846
 22
-3847.72
 32
0.0
 13
1692.846
 23
-3847.72
 33
0.0
  0
SOLID
  5
44
330
A
100
AcDbEntity
  8
SOLDERMASK_PADS_BTM
100
AcDbTrace
 10
-6975.497
 20
2780.771
 30
0.0
 11
-6825.497
 21
2780.771
 31
0.0
 12
-6975.497
 22
2980.771
 32
0.0
 13
-6825.497
 23
2980.771
 33
0.0
  0
SOLID
  5
45
330
A
100
AcDbEntity
  8
SOLDERMASK_PADS_BTM
100
AcDbTrace
 10
-7305.496999999999
 20
2780.771
 30
0.0
 11
-7155.497
 21
2780.771
 31
0.0
 12
-7305.496999999999
 22
2980.771
 32
0.0
 13
-7155.497
 23
2980.771
 33
0.0
  0
SOLID
  5
46
330
A
100
AcDbEntity
  8
SOLDERMASK_PADS_BTM
100
AcDbTrace
 10
8359.316999999998
 20
-3566.131
 30
0.0
 11
8559.316999999998
 21
-3566.131
 31
0.0
 12
8359.316999999998
 22
-2566.131
 32
0.0
 13
8559.316999999998
 23
-2566.131
 33
0.0
  0
SOLID
  5
47
330
A
100
AcDbEntity
  8
SOLDERMASK_PADS_BTM
100
AcDbTrace
 10
7959.316999999998
 20
-3566.131
 30
0.0
 11
8159.316999999999
 21
-3566.131
 31
0.0
 12
7959.316999999998
 22
-2566.131
 32
0.0
 13
8159.316999999999
 23
-2566.131
 33
0.0
  0
SOLID
  5
48
330
A
100
AcDbEntity
  8
SOLDERMASK_PADS_BTM
100
AcDbTrace
 10
8359.316999999998
 20
-5972.563
 30
0.0
 11
8559.316999999998
 21
-5972.563
 31
0.0
 12
8359.316999999998
 22
-4972.563
 32
0.0
 13
8559.316999999998
 23
-4972.563
 33
0.0
  0
SOLID
  5
49
330
A
100
AcDbEntity
  8
SOLDERMASK_PADS_BTM
100
AcDbTrace
 10
7959.316999999998
 20
-5972.563
 30
0.0
 11
8159.316999999999
 21
-5972.563
 31
0.0
 12
7959.316999999998
 22
-4972.563
 32
0.0
 13
8159.316999999999
 23
-4972.563
 33
0.0
  0
SOLID
  5
4A
330
A
100
AcDbEntity
  8
SOLDERMASK_PADS_BTM
100
AcDbTrace
 10
1891.049
 20
-423.597
 30
0.0
 11
2091.049
 21
-423.597
 31
0.0
 12
1891.049
 22
576.4029999999999
 32
0.0
 13
2091.049
 23
576.4029999999999
 33
0.0
  0
SOLID
  5
4B
330
A
100
AcDbEntity
  8
SOLDERMASK_PADS_BTM
100
AcDbTrace
 10
1491.049
 20
-423.597
 30
0.0
 11
1691.049
 21
-423.597
 31
0.0
 12
1491.049
 22
576.4029999999999
 32
0.0
 13
1691.049
 23
576.4029999999999
 33
0.0
  0
SOLID
  5
4C
330
A
100
AcDbEntity
  8
SOLDERMASK_PADS_BTM
100
AcDbTrace
 10
1892.846
 20
-3645.536
 30
0.0
 11
2092.846
 21
-3645.536
 31
0.0
 12
1892.846
 22
-2645.536
 32
0.0
 13
2092.846
 23
-2645.536
 33
0.0
  0
SOLID
  5
4D
330
A
100
AcDbEntity
  8
SOLDERMASK_PADS_BTM
100
AcDbTrace
 10
1492.846
 20
-3645.536
 30
0.0
 11
1692.846
 21
-3645.536
 31
0.0
 12
1492.846
 22
-2645.536
 32
0.0
 13
1692.846
 23
-2645.536
 33
0.0
  0
SOLID
  5
4E
330
A
100
AcDbEntity
  8
SOLDERMASK_PADS_BTM
100
AcDbTrace
 10
9134.316999999999
 20
2524.896
 30
0.0
 11
9334.316999999998
 21
2524.896
 31
0.0
 12
9134.316999999999
 22
3524.896
 32
0.0
 13
9334.316999999998
 23
3524.896
 33
0.0
  0
SOLID
  5
4F
330
A
100
AcDbEntity
  8
SOLDERMASK_PADS_BTM
100
AcDbTrace
 10
8734.316999999998
 20
2524.896
 30
0.0
 11
8934.316999999998
 21
2524.896
 31
0.0
 12
8734.316999999998
 22
3524.896
 32
0.0
 13
8934.316999999998
 23
3524.896
 33
0.0
  0
SOLID
  5
50
330
A
100
AcDbEntity
  8
SOLDERMASK_PADS_BTM
100
AcDbTrace
 10
17.717
 20
1980.771
 30
0.0
 11
217.717
 21
1980.771
 31
0.0
 12
17.717
 22
2980.771
 32
0.0
 13
217.717
 23
2980.771
 33
0.0
  0
SOLID
  5
51
330
A
100
AcDbEntity
  8
SOLDERMASK_PADS_BTM
100
AcDbTrace
 10
417.717
 20
1980.771
 30
0.0
 11
617.717
 21
1980.771
 31
0.0
 12
417.717
 22
2980.771
 32
0.0
 13
617.717
 23
2980.771
 33
0.0
  0
SOLID
  5
52
330
A
100
AcDbEntity
  8
SOLDERMASK_PADS_BTM
100
AcDbTrace
 10
19.514
 20
-6049.904000000001
 30
0.0
 11
219.514
 21
-6049.904000000001
 31
0.0
 12
19.514
 22
-5049.904000000001
 32
0.0
 13
219.514
 23
-5049.904000000001
 33
0.0
  0
SOLID
  5
53
330
A
100
AcDbEntity
  8
SOLDERMASK_PADS_BTM
100
AcDbTrace
 10
419.514
 20
-6049.904000000001
 30
0.0
 11
619.514
 21
-6049.904000000001
 31
0.0
 12
419.514
 22
-5049.904000000001
 32
0.0
 13
619.514
 23
-5049.904000000001
 33
0.0
  0
SOLID
  5
54
330
A
100
AcDbEntity
  8
SOLDERMASK_PADS_BTM
100
AcDbTrace
 10
-9219.924999999999
 20
-905.442
 30
0.0
 11
-9019.924999999998
 21
-905.442
 31
0.0
 12
-9219.924999999999
 22
94.55799999999999
 32
0.0
 13
-9019.924999999998
 23
94.55799999999999
 33
0.0
  0
SOLID
  5
55
330
A
100
AcDbEntity
  8
SOLDERMASK_PADS_BTM
100
AcDbTrace
 10
-9619.925
 20
-905.442
 30
0.0
 11
-9419.924999999999
 21
-905.442
 31
0.0
 12
-9619.925
 22
94.55799999999999
 32
0.0
 13
-9419.924999999999
 23
94.55799999999999
 33
0.0
  0
SOLID
  5
56
330
A
100
AcDbEntity
  8
SOLDERMASK_PADS_BTM
100
AcDbTrace
 10
-7669.925
 20
-2200.71
 30
0.0
 11
-6669.925
 21
-2200.71
 31
0.0
 12
-7669.925
 22
-2000.71
 32
0.0
 13
-6669.925
 23
-2000.71
 33
0.0
  0
SOLID
  5
57
330
A
100
AcDbEntity
  8
SOLDERMASK_PADS_BTM
100
AcDbTrace
 10
-7669.925
 20
-1800.71
 30
0.0
 11
-6669.925
 21
-1800.71
 31
0.0
 12
-7669.925
 22
-1600.71
 32
0.0
 13
-6669.925
 23
-1600.71
 33
0.0
  0
SOLID
  5
58
330
A
100
AcDbEntity
  8
SOLDERMASK_PADS_BTM
100
AcDbTrace
 10
9134.316999999999
 20
1321.68
 30
0.0
 11
9334.316999999998
 21
1321.68
 31
0.0
 12
9134.316999999999
 22
2321.68
 32
0.0
 13
9334.316999999998
 23
2321.68
 33
0.0
  0
SOLID
  5
59
330
A
100
AcDbEntity
  8
SOLDERMASK_PADS_BTM
100
AcDbTrace
 10
8734.316999999998
 20
1321.68
 30
0.0
 11
8934.316999999998
 21
1321.68
 31
0.0
 12
8734.316999999998
 22
2321.68
 32
0.0
 13
8934.316999999998
 23
2321.68
 33
0.0
  0
SOLID
  5
5A
330
A
100
AcDbEntity
  8
SOLDERMASK_PADS_BTM
100
AcDbTrace
 10
-6046.7
 20
-2592.27
 30
0.0
 11
-5846.7
 21
-2592.27
 31
0.0
 12
-6046.7
 22
-1592.27
 32
0.0
 13
-5846.7
 23
-1592.27
 33
0.0
  0
SOLID
  5
5B
330
A
100
AcDbEntity
  8
SOLDERMASK_PADS_BTM
100
AcDbTrace
 10
-5646.7
 20
-2592.27
 30
0.0
 11
-5446.699999999999
 21
-2592.27
 31
0.0
 12
-5646.7
 22
-1592.27
 32
0.0
 13
-5446.699999999999
 23
-1592.27
 33
0.0
  0
SOLID
  5
5C
330
A
100
AcDbEntity
  8
SOLDERMASK_PADS_BTM
100
AcDbTrace
 10
17.717
 20
778.587
 30
0.0
 11
217.717
 21
778.587
 31
0.0
 12
17.717
 22
1778.587
 32
0.0
 13
217.717
 23
1778.587
 33
0.0
  0
SOLID
  5
5D
330
A
100
AcDbEntity
  8
SOLDERMASK_PADS_BTM
100
AcDbTrace
 10
417.717
 20
778.587
 30
0.0
 11
617.717
 21
778.587
 31
0.0
 12
417.717
 22
1778.587
 32
0.0
 13
617.717
 23
1778.587
 33
0.0
  0
SOLID
  5
5E
330
A
100
AcDbEntity
  8
SOLDERMASK_PADS_BTM
100
AcDbTrace
 10
19.514
 20
-4847.72
 30
0.0
 11
219.514
 21
-4847.72
 31
0.0
 12
19.514
 22
-3847.72
 32
0.0
 13
219.514
 23
-3847.72
 33
0.0
  0
SOLID
  5
5F
330
A
100
AcDbEntity
  8
SOLDERMASK_PADS_BTM
100
AcDbTrace
 10
419.514
 20
-4847.72
 30
0.0
 11
619.514
 21
-4847.72
 31
0.0
 12
419.514
 22
-3847.72
 32
0.0
 13
619.514
 23
-3847.72
 33
0.0
  0
SOLID
  5
60
330
A
100
AcDbEntity
  8
SOLDERMASK_PADS_BTM
100
AcDbTrace
 10
-10394.925
 20
657.5099999999999
 30
0.0
 11
-10194.925
 21
657.5099999999999
 31
0.0
 12
-10394.925
 22
1657.51
 32
0.0
 13
-10194.925
 23
1657.51
 33
0.0
  0
SOLID
  5
61
330
A
100
AcDbEntity
  8
SOLDERMASK_PADS_BTM
100
AcDbTrace
 10
-9994.925
 20
657.5099999999999
 30
0.0
 11
-9794.924999999999
 21
657.5099999999999
 31
0.0
 12
-9994.925
 22
1657.51
 32
0.0
 13
-9794.924999999999
 23
1657.51
 33
0.0
  0
SOLID
  5
62
330
A
100
AcDbEntity
  8
SOLDERMASK_PADS_BTM
100
AcDbTrace
 10
-8987.496999999999
 20
-5457.89
 30
0.0
 11
-8787.497
 21
-5457.89
 31
0.0
 12
-8987.496999999999
 22
-4457.89
 32
0.0
 13
-8787.497
 23
-4457.89
 33
0.0
  0
SOLID
  5
63
330
A
100
AcDbEntity
  8
SOLDERMASK_PADS_BTM
100
AcDbTrace
 10
-9387.496999999999
 20
-5457.89
 30
0.0
 11
-9187.496999999998
 21
-5457.89
 31
0.0
 12
-9387.496999999999
 22
-4457.89
 32
0.0
 13
-9187.496999999998
 23
-4457.89
 33
0.0
  0
SOLID
  5
64
330
A
100
AcDbEntity
  8
SOLDERMASK_PADS_BTM
100
AcDbTrace
 10
9134.316999999999
 20
118.464
 30
0.0
 11
9334.316999999998
 21
118.464
 31
0.0
 12
9134.316999999999
 22
1118.464
 32
0.0
 13
9334.316999999998
 23
1118.464
 33
0.0
  0
SOLID
  5
65
330
A
100
AcDbEntity
  8
SOLDERMASK_PADS_BTM
100
AcDbTrace
 10
8734.316999999998
 20
118.464
 30
0.0
 11
8934.316999999998
 21
118.464
 31
0.0
 12
8734.316999999998
 22
1118.464
 32
0.0
 13
8934.316999999998
 23
1118.464
 33
0.0
  0
SOLID
  5
66
330
A
100
AcDbEntity
  8
SOLDERMASK_PADS_BTM
100
AcDbTrace
 10
-8796.700000000001
 20
-6232.890000000001
 30
0.0
 11
-7796.7
 21
-6232.890000000001
 31
0.0
 12
-8796.700000000001
 22
-6032.89
 32
0.0
 13
-7796.7
 23
-6032.89
 33
0.0
  0
SOLID
  5
67
330
A
100
AcDbEntity
  8
SOLDERMASK_PADS_BTM
100
AcDbTrace
 10
-8796.700000000001
 20
-5832.89
 30
0.0
 11
-7796.7
 21
-5832.89
 31
0.0
 12
-8796.700000000001
 22
-5632.89
 32
0.0
 13
-7796.7
 23
-5632.89
 33
0.0
  0
SOLID
  5
68
330
A
100
AcDbEntity
  8
SOLDERMASK_PADS_BTM
100
AcDbTrace
 10
17.717
 20
-423.597
 30
0.0
 11
217.717
 21
-423.597
 31
0.0
 12
17.717
 22
576.4029999999999
 32
0.0
 13
217.717
 23
576.4029999999999
 33
0.0
  0
SOLID
  5
69
330
A
100
AcDbEntity
  8
SOLDERMASK_PADS_BTM
100
AcDbTrace
 10
417.717
 20
-423.597
 30
0.0
 11
617.717
 21
-423.597
 31
0.0
 12
417.717
 22
576.4029999999999
 32
0.0
 13
617.717
 23
576.4029999999999
 33
0.0
  0
SOLID
  5
6A
330
A
100
AcDbEntity
  8
SOLDERMASK_PADS_BTM
100
AcDbTrace
 10
-6446.699999999999
 20
-5057.89
 30
0.0
 11
-5446.699999999999
 21
-5057.89
 31
0.0
 12
-6446.699999999999
 22
-4857.890000000001
 32
0.0
 13
-5446.699999999999
 23
-4857.890000000001
 33
0.0
  0
SOLID
  5
6B
330
A
100
AcDbEntity
  8
SOLDERMASK_PADS_BTM
100
AcDbTrace
 10
-6446.699999999999
 20
-5457.89
 30
0.0
 11
-5446.699999999999
 21
-5457.89
 31
0.0
 12
-6446.699999999999
 22
-5257.89
 32
0.0
 13
-5446.699999999999
 23
-5257.89
 33
0.0
  0
SOLID
  5
6C
330
A
100
AcDbEntity
  8
SOLDERMASK_PADS_BTM
100
AcDbTrace
 10
19.514
 20
-3645.536
 30
0.0
 11
219.514
 21
-3645.536
 31
0.0
 12
19.514
 22
-2645.536
 32
0.0
 13
219.514
 23
-2645.536
 33
0.0
  0
SOLID
  5
6D
330
A
100
AcDbEntity
  8
SOLDERMASK_PADS_BTM
100
AcDbTrace
 10
419.514
 20
-3645.536
 30
0.0
 11
619.514
 21
-3645.536
 31
0.0
 12
419.514
 22
-2645.536
 32
0.0
 13
619.514
 23
-2645.536
 33
0.0
  0
SOLID
  5
6E
330
A
100
AcDbEntity
  8
SOLDERMASK_PADS_BTM
100
AcDbTrace
 10
-8800.306
 20
3612.771
 30
0.0
 11
-8600.306000000001
 21
3612.771
 31
0.0
 12
-8800.306
 22
3762.771
 32
0.0
 13
-8600.306000000001
 23
3762.771
 33
0.0
  0
SOLID
  5
6F
330
A
100
AcDbEntity
  8
SOLDERMASK_PADS_BTM
100
AcDbTrace
 10
-8800.306
 20
3282.771
 30
0.0
 11
-8600.306000000001
 21
3282.771
 31
0.0
 12
-8800.306
 22
3432.771
 32
0.0
 13
-8600.306000000001
 23
3432.771
 33
0.0
  0
SOLID
  5
70
330
A
100
AcDbEntity
  8
SOLDERMASK_PADS_BTM
100
AcDbTrace
 10
9134.316999999999
 20
-1084.752
 30
0.0
 11
9334.316999999998
 21
-1084.752
 31
0.0
 12
9134.316999999999
 22
-84.752
 32
0.0
 13
9334.316999999998
 23
-84.752
 33
0.0
  0
SOLID
  5
71
330
A
100
AcDbEntity
  8
SOLDERMASK_PADS_BTM
100
AcDbTrace
 10
8734.316999999998
 20
-1084.752
 30
0.0
 11
8934.316999999998
 21
-1084.752
 31
0.0
 12
8734.316999999998
 22
-84.752
 32
0.0
 13
8934.316999999998
 23
-84.752
 33
0.0
  0
SOLID
  5
72
330
A
100
AcDbEntity
  8
SOLDERMASK_PADS_BTM
100
AcDbTrace
 10
349.4
 20
3612.771
 30
0.0
 11
549.3999999999999
 21
3612.771
 31
0.0
 12
349.4
 22
3762.771
 32
0.0
 13
549.3999999999999
 23
3762.771
 33
0.0
  0
SOLID
  5
73
330
A
100
AcDbEntity
  8
SOLDERMASK_PADS_BTM
100
AcDbTrace
 10
349.4
 20
3282.771
 30
0.0
 11
549.3999999999999
 21
3282.771
 31
0.0
 12
349.4
 22
3432.771
 32
0.0
 13
549.3999999999999
 23
3432.771
 33
0.0
  0
SOLID
  5
74
330
A
100
AcDbEntity
  8
SOLDERMASK_PADS_BTM
100
AcDbTrace
 10
804.3829999999999
 20
1854.771
 30
0.0
 11
1304.383
 21
1854.771
 31
0.0
 12
804.3829999999999
 22
2230.771
 32
0.0
 13
1304.383
 23
2230.771
 33
0.0
  0
SOLID
  5
75
330
A
100
AcDbEntity
  8
SOLDERMASK_PADS_BTM
100
AcDbTrace
 10
804.3829999999999
 20
1028.771
 30
0.0
 11
1304.383
 21
1028.771
 31
0.0
 12
804.3829999999999
 22
1404.771
 32
0.0
 13
1304.383
 23
1404.771
 33
0.0
  0
SOLID
  5
76
330
A
100
AcDbEntity
  8
SOLDERMASK_PADS_BTM
100
AcDbTrace
 10
-1216.706
 20
3612.771
 30
0.0
 11
-1016.706
 21
3612.771
 31
0.0
 12
-1216.706
 22
3762.771
 32
0.0
 13
-1016.706
 23
3762.771
 33
0.0
  0
SOLID
  5
77
330
A
100
AcDbEntity
  8
SOLDERMASK_PADS_BTM
100
AcDbTrace
 10
-1216.706
 20
3282.771
 30
0.0
 11
-1016.706
 21
3282.771
 31
0.0
 12
-1216.706
 22
3432.771
 32
0.0
 13
-1016.706
 23
3432.771
 33
0.0
  0
SOLID
  5
78
330
A
100
AcDbEntity
  8
SOLDERMASK_PADS_BTM
100
AcDbTrace
 10
806.1799999999999
 20
-5299.904000000001
 30
0.0
 11
1306.18
 21
-5299.904000000001
 31
0.0
 12
806.1799999999999
 22
-4923.904
 32
0.0
 13
1306.18
 23
-4923.904
 33
0.0
  0
SOLID
  5
79
330
A
100
AcDbEntity
  8
SOLDERMASK_PADS_BTM
100
AcDbTrace
 10
806.1799999999999
 20
-4473.904
 30
0.0
 11
1306.18
 21
-4473.904
 31
0.0
 12
806.1799999999999
 22
-4097.904
 32
0.0
 13
1306.18
 23
-4097.904
 33
0.0
  0
SOLID
  5
7A
330
A
100
AcDbEntity
  8
SOLDERMASK_PADS_BTM
100
AcDbTrace
 10
9134.316999999999
 20
-2362.915
 30
0.0
 11
9334.316999999998
 21
-2362.915
 31
0.0
 12
9134.316999999999
 22
-1362.915
 32
0.0
 13
9334.316999999998
 23
-1362.915
 33
0.0
  0
SOLID
  5
7B
330
A
100
AcDbEntity
  8
SOLDERMASK_PADS_BTM
100
AcDbTrace
 10
8734.316999999998
 20
-2362.915
 30
0.0
 11
8934.316999999998
 21
-2362.915
 31
0.0
 12
8734.316999999998
 22
-1362.915
 32
0.0
 13
8934.316999999998
 23
-1362.915
 33
0.0
  0
SOLID
  5
7C
330
A
100
AcDbEntity
  8
SOLDERMASK_PADS_BTM
100
AcDbTrace
 10
804.3829999999999
 20
-348.229
 30
0.0
 11
1304.383
 21
-348.229
 31
0.0
 12
804.3829999999999
 22
27.771
 32
0.0
 13
1304.383
 23
27.771
 33
0.0
  0
SOLID
  5
7D
330
A
100
AcDbEntity
  8
SOLDERMASK_PADS_BTM
100
AcDbTrace
 10
804.3829999999999
 20
477.7709999999999
 30
0.0
 11
1304.383
 21
477.7709999999999
 31
0.0
 12
804.3829999999999
 22
853.771
 32
0.0
 13
1304.383
 23
853.771
 33
0.0
  0
SOLID
  5
7E
330
A
100
AcDbEntity
  8
SOLDERMASK_PADS_BTM
100
AcDbTrace
 10
806.1799999999999
 20
-3096.904000000001
 30
0.0
 11
1306.18
 21
-3096.904000000001
 31
0.0
 12
806.1799999999999
 22
-2720.904000000001
 32
0.0
 13
1306.18
 23
-2720.904000000001
 33
0.0
  0
SOLID
  5
7F
330
A
100
AcDbEntity
  8
SOLDERMASK_PADS_BTM
100
AcDbTrace
 10
806.1799999999999
 20
-3922.904000000001
 30
0.0
 11
1306.18
 21
-3922.904000000001
 31
0.0
 12
806.1799999999999
 22
-3546.904000000001
 32
0.0
 13
1306.18
 23
-3546.904000000001
 33
0.0
  0
SOLID
  5
80
330
A
100
AcDbEntity
  8
SOLDERMASK_PADS_BTM
100
AcDbTrace
 10
9134.316999999999
 20
-3566.131
 30
0.0
 11
9334.316999999998
 21
-3566.131
 31
0.0
 12
9134.316999999999
 22
-2566.131
 32
0.0
 13
9334.316999999998
 23
-2566.131
 33
0.0
  0
SOLID
  5
81
330
A
100
AcDbEntity
  8
SOLDERMASK_PADS_BTM
100
AcDbTrace
 10
8734.316999999998
 20
-3566.131
 30
0.0
 11
8934.316999999998
 21
-3566.131
 31
0.0
 12
8734.316999999998
 22
-2566.131
 32
0.0
 13
8934.316999999998
 23
-2566.131
 33
0.0
  0
SOLID
  5
82
330
A
100
AcDbEntity
  8
SOLDERMASK_PADS_BTM
100
AcDbTrace
 10
1144.383
 20
2405.771
 30
0.0
 11
1294.383
 21
2405.771
 31
0.0
 12
1144.383
 22
2605.771000000001
 32
0.0
 13
1294.383
 23
2605.771000000001
 33
0.0
  0
SOLID
  5
83
330
A
100
AcDbEntity
  8
SOLDERMASK_PADS_BTM
100
AcDbTrace
 10
814.3830000000001
 20
2405.771
 30
0.0
 11
964.3830000000001
 21
2405.771
 31
0.0
 12
814.3830000000001
 22
2605.771000000001
 32
0.0
 13
964.3830000000001
 23
2605.771000000001
 33
0.0
  0
SOLID
  5
84
330
A
100
AcDbEntity
  8
SOLDERMASK_PADS_BTM
100
AcDbTrace
 10
816.1799999999999
 20
-5674.904000000001
 30
0.0
 11
966.1799999999999
 21
-5674.904000000001
 31
0.0
 12
816.1799999999999
 22
-5474.904000000001
 32
0.0
 13
966.1799999999999
 23
-5474.904000000001
 33
0.0
  0
SOLID
  5
85
330
A
100
AcDbEntity
  8
SOLDERMASK_PADS_BTM
100
AcDbTrace
 10
1146.18
 20
-5674.904000000001
 30
0.0
 11
1296.18
 21
-5674.904000000001
 31
0.0
 12
1146.18
 22
-5474.904000000001
 32
0.0
 13
1296.18
 23
-5474.904000000001
 33
0.0
  0
SOLID
  5
86
330
A
100
AcDbEntity
  8
SOLDERMASK_PADS_BTM
100
AcDbTrace
 10
9134.316999999999
 20
-4769.346999999999
 30
0.0
 11
9334.316999999998
 21
-4769.346999999999
 31
0.0
 12
9134.316999999999
 22
-3769.347000000001
 32
0.0
 13
9334.316999999998
 23
-3769.347000000001
 33
0.0
  0
SOLID
  5
87
330
A
100
AcDbEntity
  8
SOLDERMASK_PADS_BTM
100
AcDbTrace
 10
8734.316999999998
 20
-4769.346999999999
 30
0.0
 11
8934.316999999998
 21
-4769.346999999999
 31
0.0
 12
8734.316999999998
 22
-3769.347000000001
 32
0.0
 13
8934.316999999998
 23
-3769.347000000001
 33
0.0
  0
SOLID
  5
88
330
A
100
AcDbEntity
  8
SOLDERMASK_PADS_BTM
100
AcDbTrace
 10
1144.383
 20
2780.771
 30
0.0
 11
1294.383
 21
2780.771
 31
0.0
 12
1144.383
 22
2980.771
 32
0.0
 13
1294.383
 23
2980.771
 33
0.0
  0
SOLID
  5
89
330
A
100
AcDbEntity
  8
SOLDERMASK_PADS_BTM
100
AcDbTrace
 10
814.3830000000001
 20
2780.771
 30
0.0
 11
964.3830000000001
 21
2780.771
 31
0.0
 12
814.3830000000001
 22
2980.771
 32
0.0
 13
964.3830000000001
 23
2980.771
 33
0.0
  0
SOLID
  5
8A
330
A
100
AcDbEntity
  8
SOLDERMASK_PADS_BTM
100
AcDbTrace
 10
816.1799999999999
 20
-6049.904000000001
 30
0.0
 11
966.1799999999999
 21
-6049.904000000001
 31
0.0
 12
816.1799999999999
 22
-5849.904000000001
 32
0.0
 13
966.1799999999999
 23
-5849.904000000001
 33
0.0
  0
SOLID
  5
8B
330
A
100
AcDbEntity
  8
SOLDERMASK_PADS_BTM
100
AcDbTrace
 10
1146.18
 20
-6049.904000000001
 30
0.0
 11
1296.18
 21
-6049.904000000001
 31
0.0
 12
1146.18
 22
-5849.904000000001
 32
0.0
 13
1296.18
 23
-5849.904000000001
 33
0.0
  0
SOLID
  5
8C
330
A
100
AcDbEntity
  8
SOLDERMASK_PADS_BTM
100
AcDbTrace
 10
9134.316999999999
 20
-5972.563
 30
0.0
 11
9334.316999999998
 21
-5972.563
 31
0.0
 12
9134.316999999999
 22
-4972.563
 32
0.0
 13
9334.316999999998
 23
-4972.563
 33
0.0
  0
SOLID
  5
8D
330
A
100
AcDbEntity
  8
SOLDERMASK_PADS_BTM
100
AcDbTrace
 10
8734.316999999998
 20
-5972.563
 30
0.0
 11
8934.316999999998
 21
-5972.563
 31
0.0
 12
8734.316999999998
 22
-4972.563
 32
0.0
 13
8934.316999999998
 23
-4972.563
 33
0.0
  0
SOLID
  5
8E
330
A
100
AcDbEntity
  8
SOLDERMASK_PADS_BTM
100
AcDbTrace
 10
-9219.924999999999
 20
269.558
 30
0.0
 11
-9019.924999999998
 21
269.558
 31
0.0
 12
-9219.924999999999
 22
1269.558
 32
0.0
 13
-9019.924999999998
 23
1269.558
 33
0.0
  0
SOLID
  5
8F
330
A
100
AcDbEntity
  8
SOLDERMASK_PADS_BTM
100
AcDbTrace
 10
-9619.925
 20
269.558
 30
0.0
 11
-9419.924999999999
 21
269.558
 31
0.0
 12
-9619.925
 22
1269.558
 32
0.0
 13
-9419.924999999999
 23
1269.558
 33
0.0
  0
SOLID
  5
90
330
A
100
AcDbEntity
  8
SOLDERMASK_PADS_BTM
100
AcDbTrace
 10
-6494.925000000001
 20
-2120.71
 30
0.0
 11
-6294.925
 21
-2120.71
 31
0.0
 12
-6494.925000000001
 22
-1970.71
 32
0.0
 13
-6294.925
 23
-1970.71
 33
0.0
  0
SOLID
  5
91
330
A
100
AcDbEntity
  8
SOLDERMASK_PADS_BTM
100
AcDbTrace
 10
-6494.925000000001
 20
-1790.71
 30
0.0
 11
-6294.925
 21
-1790.71
 31
0.0
 12
-6494.925000000001
 22
-1640.71
 32
0.0
 13
-6294.925
 23
-1640.71
 33
0.0
  0
SOLID
  5
92
330
A
100
AcDbEntity
  8
SOLDERMASK_PADS_BTM
100
AcDbTrace
 10
-6046.7
 20
-3767.27
 30
0.0
 11
-5846.7
 21
-3767.27
 31
0.0
 12
-6046.7
 22
-2767.27
 32
0.0
 13
-5846.7
 23
-2767.27
 33
0.0
  0
SOLID
  5
93
330
A
100
AcDbEntity
  8
SOLDERMASK_PADS_BTM
100
AcDbTrace
 10
-5646.7
 20
-3767.27
 30
0.0
 11
-5446.699999999999
 21
-3767.27
 31
0.0
 12
-5646.7
 22
-2767.27
 32
0.0
 13
-5446.699999999999
 23
-2767.27
 33
0.0
  0
SOLID
  5
94
330
A
100
AcDbEntity
  8
SOLDERMASK_PADS_BTM
100
AcDbTrace
 10
-10394.925
 20
-517.49
 30
0.0
 11
-10194.925
 21
-517.49
 31
0.0
 12
-10394.925
 22
482.5099999999999
 32
0.0
 13
-10194.925
 23
482.5099999999999
 33
0.0
  0
SOLID
  5
95
330
A
100
AcDbEntity
  8
SOLDERMASK_PADS_BTM
100
AcDbTrace
 10
-9994.925
 20
-517.49
 30
0.0
 11
-9794.924999999999
 21
-517.49
 31
0.0
 12
-9994.925
 22
482.5099999999999
 32
0.0
 13
-9794.924999999999
 23
482.5099999999999
 33
0.0
  0
SOLID
  5
96
330
A
100
AcDbEntity
  8
SOLDERMASK_PADS_BTM
100
AcDbTrace
 10
-8612.496999999999
 20
-5457.89
 30
0.0
 11
-8412.497
 21
-5457.89
 31
0.0
 12
-8612.496999999999
 22
-4457.89
 32
0.0
 13
-8412.497
 23
-4457.89
 33
0.0
  0
SOLID
  5
97
330
A
100
AcDbEntity
  8
SOLDERMASK_PADS_BTM
100
AcDbTrace
 10
-8212.496999999999
 20
-5457.89
 30
0.0
 11
-8012.496999999999
 21
-5457.89
 31
0.0
 12
-8212.496999999999
 22
-4457.89
 32
0.0
 13
-8012.496999999999
 23
-4457.89
 33
0.0
  0
SOLID
  5
98
330
A
100
AcDbEntity
  8
SOLDERMASK_PADS_BTM
100
AcDbTrace
 10
-7621.7
 20
-6232.890000000001
 30
0.0
 11
-6621.7
 21
-6232.890000000001
 31
0.0
 12
-7621.7
 22
-6032.89
 32
0.0
 13
-6621.7
 23
-6032.89
 33
0.0
  0
SOLID
  5
99
330
A
100
AcDbEntity
  8
SOLDERMASK_PADS_BTM
100
AcDbTrace
 10
-7621.7
 20
-5832.89
 30
0.0
 11
-6621.7
 21
-5832.89
 31
0.0
 12
-7621.7
 22
-5632.89
 32
0.0
 13
-6621.7
 23
-5632.89
 33
0.0
  0
SOLID
  5
9A
330
A
100
AcDbEntity
  8
SOLDERMASK_PADS_BTM
100
AcDbTrace
 10
-8351.155000000002
 20
3641.989000000001
 30
0.0
 11
-8151.155000000001
 21
3641.989000000001
 31
0.0
 12
-8351.155000000002
 22
3791.989
 32
0.0
 13
-8151.155000000001
 23
3791.989
 33
0.0
  0
SOLID
  5
9B
330
A
100
AcDbEntity
  8
SOLDERMASK_PADS_BTM
100
AcDbTrace
 10
-8351.155000000002
 20
3311.989
 30
0.0
 11
-8151.155000000001
 21
3311.989
 31
0.0
 12
-8351.155000000002
 22
3461.989
 32
0.0
 13
-8151.155000000001
 23
3461.989
 33
0.0
  0
SOLID
  5
9C
330
A
100
AcDbEntity
  8
SOLDERMASK_PADS_BTM
100
AcDbTrace
 10
-4187.893
 20
3641.989000000001
 30
0.0
 11
-3987.893000000001
 21
3641.989000000001
 31
0.0
 12
-4187.893
 22
3791.989
 32
0.0
 13
-3987.893000000001
 23
3791.989
 33
0.0
  0
SOLID
  5
9D
330
A
100
AcDbEntity
  8
SOLDERMASK_PADS_BTM
100
AcDbTrace
 10
-4187.893
 20
3311.989
 30
0.0
 11
-3987.893000000001
 21
3311.989
 31
0.0
 12
-4187.893
 22
3461.989
 32
0.0
 13
-3987.893000000001
 23
3461.989
 33
0.0
  0
SOLID
  5
9E
330
A
100
AcDbEntity
  8
SOLDERMASK_PADS_BTM
100
AcDbTrace
 10
2266.049
 20
2004.03
 30
0.0
 11
2466.049
 21
2004.03
 31
0.0
 12
2266.049
 22
3004.03
 32
0.0
 13
2466.049
 23
3004.03
 33
0.0
  0
SOLID
  5
9F
330
A
100
AcDbEntity
  8
SOLDERMASK_PADS_BTM
100
AcDbTrace
 10
2666.049000000001
 20
2004.03
 30
0.0
 11
2866.049000000001
 21
2004.03
 31
0.0
 12
2666.049000000001
 22
3004.03
 32
0.0
 13
2866.049000000001
 23
3004.03
 33
0.0
  0
SOLID
  5
A0
330
A
100
AcDbEntity
  8
SOLDERMASK_PADS_BTM
100
AcDbTrace
 10
2267.846
 20
-6073.163
 30
0.0
 11
2467.846
 21
-6073.163
 31
0.0
 12
2267.846
 22
-5073.163
 32
0.0
 13
2467.846
 23
-5073.163
 33
0.0
  0
SOLID
  5
A1
330
A
100
AcDbEntity
  8
SOLDERMASK_PADS_BTM
100
AcDbTrace
 10
2667.846
 20
-6073.163
 30
0.0
 11
2867.846
 21
-6073.163
 31
0.0
 12
2667.846
 22
-5073.163
 32
0.0
 13
2867.846
 23
-5073.163
 33
0.0
  0
SOLID
  5
A2
330
A
100
AcDbEntity
  8
SOLDERMASK_PADS_BTM
100
AcDbTrace
 10
-5824.497
 20
2480.771000000001
 30
0.0
 11
-5448.496999999999
 21
2480.771000000001
 31
0.0
 12
-5824.497
 22
2980.771
 32
0.0
 13
-5448.496999999999
 23
2980.771
 33
0.0
  0
SOLID
  5
A3
330
A
100
AcDbEntity
  8
SOLDERMASK_PADS_BTM
100
AcDbTrace
 10
-6650.497
 20
2480.771000000001
 30
0.0
 11
-6274.497
 21
2480.771000000001
 31
0.0
 12
-6650.497
 22
2980.771
 32
0.0
 13
-6274.497
 23
2980.771
 33
0.0
  0
SOLID
  5
A4
330
A
100
AcDbEntity
  8
SOLDERMASK_PADS_BTM
100
AcDbTrace
 10
6859.316999999998
 20
3299.896
 30
0.0
 11
7009.316999999999
 21
3299.896
 31
0.0
 12
6859.316999999998
 22
3499.896
 32
0.0
 13
7009.316999999999
 23
3499.896
 33
0.0
  0
SOLID
  5
A5
330
A
100
AcDbEntity
  8
SOLDERMASK_PADS_BTM
100
AcDbTrace
 10
6529.316999999998
 20
3299.896
 30
0.0
 11
6679.316999999999
 21
3299.896
 31
0.0
 12
6529.316999999998
 22
3499.896
 32
0.0
 13
6679.316999999999
 23
3499.896
 33
0.0
  0
SOLID
  5
A6
330
A
100
AcDbEntity
  8
SOLDERMASK_PADS_BTM
100
AcDbTrace
 10
3041.049000000001
 20
2004.03
 30
0.0
 11
3241.049
 21
2004.03
 31
0.0
 12
3041.049000000001
 22
3004.03
 32
0.0
 13
3241.049
 23
3004.03
 33
0.0
  0
SOLID
  5
A7
330
A
100
AcDbEntity
  8
SOLDERMASK_PADS_BTM
100
AcDbTrace
 10
3441.049
 20
2004.03
 30
0.0
 11
3641.049000000001
 21
2004.03
 31
0.0
 12
3441.049
 22
3004.03
 32
0.0
 13
3641.049000000001
 23
3004.03
 33
0.0
  0
SOLID
  5
A8
330
A
100
AcDbEntity
  8
SOLDERMASK_PADS_BTM
100
AcDbTrace
 10
3042.846
 20
-6073.163
 30
0.0
 11
3242.846
 21
-6073.163
 31
0.0
 12
3042.846
 22
-5073.163
 32
0.0
 13
3242.846
 23
-5073.163
 33
0.0
  0
SOLID
  5
A9
330
A
100
AcDbEntity
  8
SOLDERMASK_PADS_BTM
100
AcDbTrace
 10
3442.845999999999
 20
-6073.163
 30
0.0
 11
3642.846
 21
-6073.163
 31
0.0
 12
3442.845999999999
 22
-5073.163
 32
0.0
 13
3642.846
 23
-5073.163
 33
0.0
  0
SOLID
  5
AA
330
A
100
AcDbEntity
  8
SOLDERMASK_PADS_BTM
100
AcDbTrace
 10
-5824.497
 20
1805.771
 30
0.0
 11
-5448.496999999999
 21
1805.771
 31
0.0
 12
-5824.497
 22
2305.771
 32
0.0
 13
-5448.496999999999
 23
2305.771
 33
0.0
  0
SOLID
  5
AB
330
A
100
AcDbEntity
  8
SOLDERMASK_PADS_BTM
100
AcDbTrace
 10
-6650.497
 20
1805.771
 30
0.0
 11
-6274.497
 21
1805.771
 31
0.0
 12
-6650.497
 22
2305.771
 32
0.0
 13
-6274.497
 23
2305.771
 33
0.0
  0
SOLID
  5
AC
330
A
100
AcDbEntity
  8
SOLDERMASK_PADS_BTM
100
AcDbTrace
 10
6859.316999999998
 20
2924.896
 30
0.0
 11
7009.316999999999
 21
2924.896
 31
0.0
 12
6859.316999999998
 22
3124.896
 32
0.0
 13
7009.316999999999
 23
3124.896
 33
0.0
  0
SOLID
  5
AD
330
A
100
AcDbEntity
  8
SOLDERMASK_PADS_BTM
100
AcDbTrace
 10
6529.316999999998
 20
2924.896
 30
0.0
 11
6679.316999999999
 21
2924.896
 31
0.0
 12
6529.316999999998
 22
3124.896
 32
0.0
 13
6679.316999999999
 23
3124.896
 33
0.0
  0
SOLID
  5
AE
330
A
100
AcDbEntity
  8
SOLDERMASK_PADS_BTM
100
AcDbTrace
 10
4216.049
 20
2004.03
 30
0.0
 11
4416.049
 21
2004.03
 31
0.0
 12
4216.049
 22
3004.03
 32
0.0
 13
4416.049
 23
3004.03
 33
0.0
  0
SOLID
  5
AF
330
A
100
AcDbEntity
  8
SOLDERMASK_PADS_BTM
100
AcDbTrace
 10
3816.049000000001
 20
2004.03
 30
0.0
 11
4016.049
 21
2004.03
 31
0.0
 12
3816.049000000001
 22
3004.03
 32
0.0
 13
4016.049
 23
3004.03
 33
0.0
  0
SOLID
  5
B0
330
A
100
AcDbEntity
  8
SOLDERMASK_PADS_BTM
100
AcDbTrace
 10
4217.845999999999
 20
-6073.163
 30
0.0
 11
4417.845999999999
 21
-6073.163
 31
0.0
 12
4217.845999999999
 22
-5073.163
 32
0.0
 13
4417.845999999999
 23
-5073.163
 33
0.0
  0
SOLID
  5
B1
330
A
100
AcDbEntity
  8
SOLDERMASK_PADS_BTM
100
AcDbTrace
 10
3817.845999999999
 20
-6073.163
 30
0.0
 11
4017.845999999999
 21
-6073.163
 31
0.0
 12
3817.845999999999
 22
-5073.163
 32
0.0
 13
4017.845999999999
 23
-5073.163
 33
0.0
  0
SOLID
  5
B2
330
A
100
AcDbEntity
  8
SOLDERMASK_PADS_BTM
100
AcDbTrace
 10
-5824.497
 20
1130.771
 30
0.0
 11
-5448.496999999999
 21
1130.771
 31
0.0
 12
-5824.497
 22
1630.771
 32
0.0
 13
-5448.496999999999
 23
1630.771
 33
0.0
  0
SOLID
  5
B3
330
A
100
AcDbEntity
  8
SOLDERMASK_PADS_BTM
100
AcDbTrace
 10
-6650.497
 20
1130.771
 30
0.0
 11
-6274.497
 21
1130.771
 31
0.0
 12
-6650.497
 22
1630.771
 32
0.0
 13
-6274.497
 23
1630.771
 33
0.0
  0
SOLID
  5
B4
330
A
100
AcDbEntity
  8
SOLDERMASK_PADS_BTM
100
AcDbTrace
 10
6859.316999999998
 20
2549.896
 30
0.0
 11
7009.316999999999
 21
2549.896
 31
0.0
 12
6859.316999999998
 22
2749.896
 32
0.0
 13
7009.316999999999
 23
2749.896
 33
0.0
  0
SOLID
  5
B5
330
A
100
AcDbEntity
  8
SOLDERMASK_PADS_BTM
100
AcDbTrace
 10
6529.316999999998
 20
2549.896
 30
0.0
 11
6679.316999999999
 21
2549.896
 31
0.0
 12
6529.316999999998
 22
2749.896
 32
0.0
 13
6679.316999999999
 23
2749.896
 33
0.0
  0
SOLID
  5
B6
330
A
100
AcDbEntity
  8
SOLDERMASK_PADS_BTM
100
AcDbTrace
 10
4991.049
 20
2004.03
 30
0.0
 11
5191.049
 21
2004.03
 31
0.0
 12
4991.049
 22
3004.03
 32
0.0
 13
5191.049
 23
3004.03
 33
0.0
  0
SOLID
  5
B7
330
A
100
AcDbEntity
  8
SOLDERMASK_PADS_BTM
100
AcDbTrace
 10
4591.049
 20
2004.03
 30
0.0
 11
4791.049
 21
2004.03
 31
0.0
 12
4591.049
 22
3004.03
 32
0.0
 13
4791.049
 23
3004.03
 33
0.0
  0
SOLID
  5
B8
330
A
100
AcDbEntity
  8
SOLDERMASK_PADS_BTM
100
AcDbTrace
 10
-9239.924999999999
 20
1444.558
 30
0.0
 11
-9089.924999999999
 21
1444.558
 31
0.0
 12
-9239.924999999999
 22
1644.558
 32
0.0
 13
-9089.924999999999
 23
1644.558
 33
0.0
  0
SOLID
  5
B9
330
A
100
AcDbEntity
  8
SOLDERMASK_PADS_BTM
100
AcDbTrace
 10
-9569.924999999999
 20
1444.558
 30
0.0
 11
-9419.924999999999
 21
1444.558
 31
0.0
 12
-9569.924999999999
 22
1644.558
 32
0.0
 13
-9419.924999999999
 23
1644.558
 33
0.0
  0
SOLID
  5
BA
330
A
100
AcDbEntity
  8
SOLDERMASK_PADS_BTM
100
AcDbTrace
 10
-5824.497
 20
455.7709999999999
 30
0.0
 11
-5448.496999999999
 21
455.7709999999999
 31
0.0
 12
-5824.497
 22
955.771
 32
0.0
 13
-5448.496999999999
 23
955.771
 33
0.0
  0
SOLID
  5
BB
330
A
100
AcDbEntity
  8
SOLDERMASK_PADS_BTM
100
AcDbTrace
 10
-6650.497
 20
455.7709999999999
 30
0.0
 11
-6274.497
 21
455.7709999999999
 31
0.0
 12
-6650.497
 22
955.771
 32
0.0
 13
-6274.497
 23
955.771
 33
0.0
  0
SOLID
  5
BC
330
A
100
AcDbEntity
  8
SOLDERMASK_PADS_BTM
100
AcDbTrace
 10
6859.316999999998
 20
2096.68
 30
0.0
 11
7009.316999999999
 21
2096.68
 31
0.0
 12
6859.316999999998
 22
2296.68
 32
0.0
 13
7009.316999999999
 23
2296.68
 33
0.0
  0
SOLID
  5
BD
330
A
100
AcDbEntity
  8
SOLDERMASK_PADS_BTM
100
AcDbTrace
 10
6529.316999999998
 20
2096.68
 30
0.0
 11
6679.316999999999
 21
2096.68
 31
0.0
 12
6529.316999999998
 22
2296.68
 32
0.0
 13
6679.316999999999
 23
2296.68
 33
0.0
  0
SOLID
  5
BE
330
A
100
AcDbEntity
  8
SOLDERMASK_PADS_BTM
100
AcDbTrace
 10
-5924.278000000001
 20
-1417.27
 30
0.0
 11
-5774.278
 21
-1417.27
 31
0.0
 12
-5924.278000000001
 22
-1217.27
 32
0.0
 13
-5774.278
 23
-1217.27
 33
0.0
  0
SOLID
  5
BF
330
A
100
AcDbEntity
  8
SOLDERMASK_PADS_BTM
100
AcDbTrace
 10
-5594.278
 20
-1417.27
 30
0.0
 11
-5444.278
 21
-1417.27
 31
0.0
 12
-5594.278
 22
-1217.27
 32
0.0
 13
-5444.278
 23
-1217.27
 33
0.0
  0
SOLID
  5
C0
330
A
100
AcDbEntity
  8
SOLDERMASK_PADS_BTM
100
AcDbTrace
 10
4992.846
 20
-6073.163
 30
0.0
 11
5192.845999999999
 21
-6073.163
 31
0.0
 12
4992.846
 22
-5073.163
 32
0.0
 13
5192.845999999999
 23
-5073.163
 33
0.0
  0
SOLID
  5
C1
330
A
100
AcDbEntity
  8
SOLDERMASK_PADS_BTM
100
AcDbTrace
 10
4592.845999999999
 20
-6073.163
 30
0.0
 11
4792.845999999999
 21
-6073.163
 31
0.0
 12
4592.845999999999
 22
-5073.163
 32
0.0
 13
4792.845999999999
 23
-5073.163
 33
0.0
  0
SOLID
  5
C2
330
A
100
AcDbEntity
  8
SOLDERMASK_PADS_BTM
100
AcDbTrace
 10
-10394.925
 20
-1692.49
 30
0.0
 11
-10194.925
 21
-1692.49
 31
0.0
 12
-10394.925
 22
-692.49
 32
0.0
 13
-10194.925
 23
-692.49
 33
0.0
  0
SOLID
  5
C3
330
A
100
AcDbEntity
  8
SOLDERMASK_PADS_BTM
100
AcDbTrace
 10
-9994.925
 20
-1692.49
 30
0.0
 11
-9794.924999999999
 21
-1692.49
 31
0.0
 12
-9994.925
 22
-692.49
 32
0.0
 13
-9794.924999999999
 23
-692.49
 33
0.0
  0
SOLID
  5
C4
330
A
100
AcDbEntity
  8
SOLDERMASK_PADS_BTM
100
AcDbTrace
 10
6859.316999999998
 20
1721.68
 30
0.0
 11
7009.316999999999
 21
1721.68
 31
0.0
 12
6859.316999999998
 22
1921.68
 32
0.0
 13
7009.316999999999
 23
1921.68
 33
0.0
  0
SOLID
  5
C5
330
A
100
AcDbEntity
  8
SOLDERMASK_PADS_BTM
100
AcDbTrace
 10
6529.316999999998
 20
1721.68
 30
0.0
 11
6679.316999999999
 21
1721.68
 31
0.0
 12
6529.316999999998
 22
1921.68
 32
0.0
 13
6679.316999999999
 23
1921.68
 33
0.0
  0
SOLID
  5
C6
330
A
100
AcDbEntity
  8
SOLDERMASK_PADS_BTM
100
AcDbTrace
 10
-6446.699999999999
 20
-6232.890000000001
 30
0.0
 11
-5446.699999999999
 21
-6232.890000000001
 31
0.0
 12
-6446.699999999999
 22
-6032.89
 32
0.0
 13
-5446.699999999999
 23
-6032.89
 33
0.0
  0
SOLID
  5
C7
330
A
100
AcDbEntity
  8
SOLDERMASK_PADS_BTM
100
AcDbTrace
 10
-6446.699999999999
 20
-5832.89
 30
0.0
 11
-5446.699999999999
 21
-5832.89
 31
0.0
 12
-6446.699999999999
 22
-5632.89
 32
0.0
 13
-5446.699999999999
 23
-5632.89
 33
0.0
  0
SOLID
  5
C8
330
A
100
AcDbEntity
  8
SOLDERMASK_PADS_BTM
100
AcDbTrace
 10
-7902.003
 20
3612.771
 30
0.0
 11
-7702.003000000001
 21
3612.771
 31
0.0
 12
-7902.003
 22
3762.771
 32
0.0
 13
-7702.003000000001
 23
3762.771
 33
0.0
  0
SOLID
  5
C9
330
A
100
AcDbEntity
  8
SOLDERMASK_PADS_BTM
100
AcDbTrace
 10
-7902.003
 20
3282.771
 30
0.0
 11
-7702.003000000001
 21
3282.771
 31
0.0
 12
-7902.003
 22
3432.771
 32
0.0
 13
-7702.003000000001
 23
3432.771
 33
0.0
  0
SOLID
  5
CA
330
A
100
AcDbEntity
  8
SOLDERMASK_PADS_BTM
100
AcDbTrace
 10
-3796.366
 20
3612.771
 30
0.0
 11
-3596.366
 21
3612.771
 31
0.0
 12
-3796.366
 22
3762.771
 32
0.0
 13
-3596.366
 23
3762.771
 33
0.0
  0
SOLID
  5
CB
330
A
100
AcDbEntity
  8
SOLDERMASK_PADS_BTM
100
AcDbTrace
 10
-3796.366
 20
3282.771
 30
0.0
 11
-3596.366
 21
3282.771
 31
0.0
 12
-3796.366
 22
3432.771
 32
0.0
 13
-3596.366
 23
3432.771
 33
0.0
  0
SOLID
  5
CC
330
A
100
AcDbEntity
  8
SOLDERMASK_PADS_BTM
100
AcDbTrace
 10
6859.316999999998
 20
1346.68
 30
0.0
 11
7009.316999999999
 21
1346.68
 31
0.0
 12
6859.316999999998
 22
1546.68
 32
0.0
 13
7009.316999999999
 23
1546.68
 33
0.0
  0
SOLID
  5
CD
330
A
100
AcDbEntity
  8
SOLDERMASK_PADS_BTM
100
AcDbTrace
 10
6529.316999999998
 20
1346.68
 30
0.0
 11
6679.316999999999
 21
1346.68
 31
0.0
 12
6529.316999999998
 22
1546.68
 32
0.0
 13
6679.316999999999
 23
1546.68
 33
0.0
  0
SOLID
  5
CE
330
A
100
AcDbEntity
  8
SOLDERMASK_PADS_BTM
100
AcDbTrace
 10
6859.316999999998
 20
893.4639999999999
 30
0.0
 11
7009.316999999999
 21
893.4639999999999
 31
0.0
 12
6859.316999999998
 22
1093.464
 32
0.0
 13
7009.316999999999
 23
1093.464
 33
0.0
  0
SOLID
  5
CF
330
A
100
AcDbEntity
  8
SOLDERMASK_PADS_BTM
100
AcDbTrace
 10
6529.316999999998
 20
893.4639999999999
 30
0.0
 11
6679.316999999999
 21
893.4639999999999
 31
0.0
 12
6529.316999999998
 22
1093.464
 32
0.0
 13
6679.316999999999
 23
1093.464
 33
0.0
  0
SOLID
  5
D0
330
A
100
AcDbEntity
  8
SOLDERMASK_PADS_BTM
100
AcDbTrace
 10
6859.316999999998
 20
518.464
 30
0.0
 11
7009.316999999999
 21
518.464
 31
0.0
 12
6859.316999999998
 22
718.4639999999999
 32
0.0
 13
7009.316999999999
 23
718.4639999999999
 33
0.0
  0
SOLID
  5
D1
330
A
100
AcDbEntity
  8
SOLDERMASK_PADS_BTM
100
AcDbTrace
 10
6529.316999999998
 20
518.464
 30
0.0
 11
6679.316999999999
 21
518.464
 31
0.0
 12
6529.316999999998
 22
718.4639999999999
 32
0.0
 13
6679.316999999999
 23
718.4639999999999
 33
0.0
  0
SOLID
  5
D2
330
A
100
AcDbEntity
  8
SOLDERMASK_PADS_BTM
100
AcDbTrace
 10
2266.049
 20
829.03
 30
0.0
 11
2466.049
 21
829.03
 31
0.0
 12
2266.049
 22
1829.03
 32
0.0
 13
2466.049
 23
1829.03
 33
0.0
  0
SOLID
  5
D3
330
A
100
AcDbEntity
  8
SOLDERMASK_PADS_BTM
100
AcDbTrace
 10
2666.049000000001
 20
829.03
 30
0.0
 11
2866.049000000001
 21
829.03
 31
0.0
 12
2666.049000000001
 22
1829.03
 32
0.0
 13
2866.049000000001
 23
1829.03
 33
0.0
  0
SOLID
  5
D4
330
A
100
AcDbEntity
  8
SOLDERMASK_PADS_BTM
100
AcDbTrace
 10
2267.846
 20
-4898.163
 30
0.0
 11
2467.846
 21
-4898.163
 31
0.0
 12
2267.846
 22
-3898.163
 32
0.0
 13
2467.846
 23
-3898.163
 33
0.0
  0
SOLID
  5
D5
330
A
100
AcDbEntity
  8
SOLDERMASK_PADS_BTM
100
AcDbTrace
 10
2667.846
 20
-4898.163
 30
0.0
 11
2867.846
 21
-4898.163
 31
0.0
 12
2667.846
 22
-3898.163
 32
0.0
 13
2867.846
 23
-3898.163
 33
0.0
  0
SOLID
  5
D6
330
A
100
AcDbEntity
  8
SOLDERMASK_PADS_BTM
100
AcDbTrace
 10
6859.316999999998
 20
143.464
 30
0.0
 11
7009.316999999999
 21
143.464
 31
0.0
 12
6859.316999999998
 22
343.464
 32
0.0
 13
7009.316999999999
 23
343.464
 33
0.0
  0
SOLID
  5
D7
330
A
100
AcDbEntity
  8
SOLDERMASK_PADS_BTM
100
AcDbTrace
 10
6529.316999999998
 20
143.464
 30
0.0
 11
6679.316999999999
 21
143.464
 31
0.0
 12
6529.316999999998
 22
343.464
 32
0.0
 13
6679.316999999999
 23
343.464
 33
0.0
  0
SOLID
  5
D8
330
A
100
AcDbEntity
  8
SOLDERMASK_PADS_BTM
100
AcDbTrace
 10
3041.049000000001
 20
829.03
 30
0.0
 11
3241.049
 21
829.03
 31
0.0
 12
3041.049000000001
 22
1829.03
 32
0.0
 13
3241.049
 23
1829.03
 33
0.0
  0
SOLID
  5
D9
330
A
100
AcDbEntity
  8
SOLDERMASK_PADS_BTM
100
AcDbTrace
 10
3441.049
 20
829.03
 30
0.0
 11
3641.049000000001
 21
829.03
 31
0.0
 12
3441.049
 22
1829.03
 32
0.0
 13
3641.049000000001
 23
1829.03
 33
0.0
  0
SOLID
  5
DA
330
A
100
AcDbEntity
  8
SOLDERMASK_PADS_BTM
100
AcDbTrace
 10
3042.846
 20
-4898.163
 30
0.0
 11
3242.846
 21
-4898.163
 31
0.0
 12
3042.846
 22
-3898.163
 32
0.0
 13
3242.846
 23
-3898.163
 33
0.0
  0
SOLID
  5
DB
330
A
100
AcDbEntity
  8
SOLDERMASK_PADS_BTM
100
AcDbTrace
 10
3442.845999999999
 20
-4898.163
 30
0.0
 11
3642.846
 21
-4898.163
 31
0.0
 12
3442.845999999999
 22
-3898.163
 32
0.0
 13
3642.846
 23
-3898.163
 33
0.0
  0
SOLID
  5
DC
330
A
100
AcDbEntity
  8
SOLDERMASK_PADS_BTM
100
AcDbTrace
 10
4216.049
 20
829.03
 30
0.0
 11
4416.049
 21
829.03
 31
0.0
 12
4216.049
 22
1829.03
 32
0.0
 13
4416.049
 23
1829.03
 33
0.0
  0
SOLID
  5
DD
330
A
100
AcDbEntity
  8
SOLDERMASK_PADS_BTM
100
AcDbTrace
 10
3816.049000000001
 20
829.03
 30
0.0
 11
4016.049
 21
829.03
 31
0.0
 12
3816.049000000001
 22
1829.03
 32
0.0
 13
4016.049
 23
1829.03
 33
0.0
  0
SOLID
  5
DE
330
A
100
AcDbEntity
  8
SOLDERMASK_PADS_BTM
100
AcDbTrace
 10
4217.845999999999
 20
-4898.163
 30
0.0
 11
4417.845999999999
 21
-4898.163
 31
0.0
 12
4217.845999999999
 22
-3898.163
 32
0.0
 13
4417.845999999999
 23
-3898.163
 33
0.0
  0
SOLID
  5
DF
330
A
100
AcDbEntity
  8
SOLDERMASK_PADS_BTM
100
AcDbTrace
 10
3817.845999999999
 20
-4898.163
 30
0.0
 11
4017.845999999999
 21
-4898.163
 31
0.0
 12
3817.845999999999
 22
-3898.163
 32
0.0
 13
4017.845999999999
 23
-3898.163
 33
0.0
  0
SOLID
  5
E0
330
A
100
AcDbEntity
  8
SOLDERMASK_PADS_BTM
100
AcDbTrace
 10
4991.049
 20
829.03
 30
0.0
 11
5191.049
 21
829.03
 31
0.0
 12
4991.049
 22
1829.03
 32
0.0
 13
5191.049
 23
1829.03
 33
0.0
  0
SOLID
  5
E1
330
A
100
AcDbEntity
  8
SOLDERMASK_PADS_BTM
100
AcDbTrace
 10
4591.049
 20
829.03
 30
0.0
 11
4791.049
 21
829.03
 31
0.0
 12
4591.049
 22
1829.03
 32
0.0
 13
4791.049
 23
1829.03
 33
0.0
  0
SOLID
  5
E2
330
A
100
AcDbEntity
  8
SOLDERMASK_PADS_BTM
100
AcDbTrace
 10
4992.846
 20
-4898.163
 30
0.0
 11
5192.845999999999
 21
-4898.163
 31
0.0
 12
4992.846
 22
-3898.163
 32
0.0
 13
5192.845999999999
 23
-3898.163
 33
0.0
  0
SOLID
  5
E3
330
A
100
AcDbEntity
  8
SOLDERMASK_PADS_BTM
100
AcDbTrace
 10
4592.845999999999
 20
-4898.163
 30
0.0
 11
4792.845999999999
 21
-4898.163
 31
0.0
 12
4592.845999999999
 22
-3898.163
 32
0.0
 13
4792.845999999999
 23
-3898.163
 33
0.0
  0
SOLID
  5
E4
330
A
100
AcDbEntity
  8
SOLDERMASK_PADS_BTM
100
AcDbTrace
 10
-9619.925
 20
1819.558
 30
0.0
 11
-9419.924999999999
 21
1819.558
 31
0.0
 12
-9619.925
 22
2819.558
 32
0.0
 13
-9419.924999999999
 23
2819.558
 33
0.0
  0
SOLID
  5
E5
330
A
100
AcDbEntity
  8
SOLDERMASK_PADS_BTM
100
AcDbTrace
 10
-9219.924999999999
 20
1819.558
 30
0.0
 11
-9019.924999999998
 21
1819.558
 31
0.0
 12
-9219.924999999999
 22
2819.558
 32
0.0
 13
-9019.924999999998
 23
2819.558
 33
0.0
  0
SOLID
  5
E6
330
A
100
AcDbEntity
  8
SOLDERMASK_PADS_BTM
100
AcDbTrace
 10
-5924.278000000001
 20
-1042.27
 30
0.0
 11
-5774.278
 21
-1042.27
 31
0.0
 12
-5924.278000000001
 22
-842.27
 32
0.0
 13
-5774.278
 23
-842.27
 33
0.0
  0
SOLID
  5
E7
330
A
100
AcDbEntity
  8
SOLDERMASK_PADS_BTM
100
AcDbTrace
 10
-5594.278
 20
-1042.27
 30
0.0
 11
-5444.278
 21
-1042.27
 31
0.0
 12
-5594.278
 22
-842.27
 32
0.0
 13
-5444.278
 23
-842.27
 33
0.0
  0
SOLID
  5
E8
330
A
100
AcDbEntity
  8
SOLDERMASK_PADS_BTM
100
AcDbTrace
 10
-10394.925
 20
-2867.49
 30
0.0
 11
-10194.925
 21
-2867.49
 31
0.0
 12
-10394.925
 22
-1867.49
 32
0.0
 13
-10194.925
 23
-1867.49
 33
0.0
  0
SOLID
  5
E9
330
A
100
AcDbEntity
  8
SOLDERMASK_PADS_BTM
100
AcDbTrace
 10
-9994.925
 20
-2867.49
 30
0.0
 11
-9794.924999999999
 21
-2867.49
 31
0.0
 12
-9994.925
 22
-1867.49
 32
0.0
 13
-9794.924999999999
 23
-1867.49
 33
0.0
  0
SOLID
  5
EA
330
A
100
AcDbEntity
  8
SOLDERMASK_PADS_BTM
100
AcDbTrace
 10
-7452.850999999999
 20
3641.989000000001
 30
0.0
 11
-7252.850999999999
 21
3641.989000000001
 31
0.0
 12
-7452.850999999999
 22
3791.989
 32
0.0
 13
-7252.850999999999
 23
3791.989
 33
0.0
  0
SOLID
  5
EB
330
A
100
AcDbEntity
  8
SOLDERMASK_PADS_BTM
100
AcDbTrace
 10
-7452.850999999999
 20
3311.989
 30
0.0
 11
-7252.850999999999
 21
3311.989
 31
0.0
 12
-7452.850999999999
 22
3461.989
 32
0.0
 13
-7252.850999999999
 23
3461.989
 33
0.0
  0
SOLID
  5
EC
330
A
100
AcDbEntity
  8
SOLDERMASK_PADS_BTM
100
AcDbTrace
 10
-3404.84
 20
3641.989000000001
 30
0.0
 11
-3204.84
 21
3641.989000000001
 31
0.0
 12
-3404.84
 22
3791.989
 32
0.0
 13
-3204.84
 23
3791.989
 33
0.0
  0
SOLID
  5
ED
330
A
100
AcDbEntity
  8
SOLDERMASK_PADS_BTM
100
AcDbTrace
 10
-3404.84
 20
3311.989
 30
0.0
 11
-3204.84
 21
3311.989
 31
0.0
 12
-3404.84
 22
3461.989
 32
0.0
 13
-3204.84
 23
3461.989
 33
0.0
  0
SOLID
  5
EE
330
A
100
AcDbEntity
  8
SOLDERMASK_PADS_BTM
100
AcDbTrace
 10
2266.049
 20
-345.97
 30
0.0
 11
2466.049
 21
-345.97
 31
0.0
 12
2266.049
 22
654.03
 32
0.0
 13
2466.049
 23
654.03
 33
0.0
  0
SOLID
  5
EF
330
A
100
AcDbEntity
  8
SOLDERMASK_PADS_BTM
100
AcDbTrace
 10
2666.049000000001
 20
-345.97
 30
0.0
 11
2866.049000000001
 21
-345.97
 31
0.0
 12
2666.049000000001
 22
654.03
 32
0.0
 13
2866.049000000001
 23
654.03
 33
0.0
  0
SOLID
  5
F0
330
A
100
AcDbEntity
  8
SOLDERMASK_PADS_BTM
100
AcDbTrace
 10
2267.846
 20
-3723.163
 30
0.0
 11
2467.846
 21
-3723.163
 31
0.0
 12
2267.846
 22
-2723.163
 32
0.0
 13
2467.846
 23
-2723.163
 33
0.0
  0
SOLID
  5
F1
330
A
100
AcDbEntity
  8
SOLDERMASK_PADS_BTM
100
AcDbTrace
 10
2667.846
 20
-3723.163
 30
0.0
 11
2867.846
 21
-3723.163
 31
0.0
 12
2667.846
 22
-2723.163
 32
0.0
 13
2867.846
 23
-2723.163
 33
0.0
  0
SOLID
  5
F2
330
A
100
AcDbEntity
  8
SOLDERMASK_PADS_BTM
100
AcDbTrace
 10
3041.049000000001
 20
-345.97
 30
0.0
 11
3241.049
 21
-345.97
 31
0.0
 12
3041.049000000001
 22
654.03
 32
0.0
 13
3241.049
 23
654.03
 33
0.0
  0
SOLID
  5
F3
330
A
100
AcDbEntity
  8
SOLDERMASK_PADS_BTM
100
AcDbTrace
 10
3441.049
 20
-345.97
 30
0.0
 11
3641.049000000001
 21
-345.97
 31
0.0
 12
3441.049
 22
654.03
 32
0.0
 13
3641.049000000001
 23
654.03
 33
0.0
  0
SOLID
  5
F4
330
A
100
AcDbEntity
  8
SOLDERMASK_PADS_BTM
100
AcDbTrace
 10
3042.846
 20
-3723.163
 30
0.0
 11
3242.846
 21
-3723.163
 31
0.0
 12
3042.846
 22
-2723.163
 32
0.0
 13
3242.846
 23
-2723.163
 33
0.0
  0
SOLID
  5
F5
330
A
100
AcDbEntity
  8
SOLDERMASK_PADS_BTM
100
AcDbTrace
 10
3442.845999999999
 20
-3723.163
 30
0.0
 11
3642.846
 21
-3723.163
 31
0.0
 12
3442.845999999999
 22
-2723.163
 32
0.0
 13
3642.846
 23
-2723.163
 33
0.0
  0
SOLID
  5
F6
330
A
100
AcDbEntity
  8
SOLDERMASK_PADS_BTM
100
AcDbTrace
 10
4216.049
 20
-345.97
 30
0.0
 11
4416.049
 21
-345.97
 31
0.0
 12
4216.049
 22
654.03
 32
0.0
 13
4416.049
 23
654.03
 33
0.0
  0
SOLID
  5
F7
330
A
100
AcDbEntity
  8
SOLDERMASK_PADS_BTM
100
AcDbTrace
 10
3816.049000000001
 20
-345.97
 30
0.0
 11
4016.049
 21
-345.97
 31
0.0
 12
3816.049000000001
 22
654.03
 32
0.0
 13
4016.049
 23
654.03
 33
0.0
  0
SOLID
  5
F8
330
A
100
AcDbEntity
  8
SOLDERMASK_PADS_BTM
100
AcDbTrace
 10
4217.845999999999
 20
-3723.163
 30
0.0
 11
4417.845999999999
 21
-3723.163
 31
0.0
 12
4217.845999999999
 22
-2723.163
 32
0.0
 13
4417.845999999999
 23
-2723.163
 33
0.0
  0
SOLID
  5
F9
330
A
100
AcDbEntity
  8
SOLDERMASK_PADS_BTM
100
AcDbTrace
 10
3817.845999999999
 20
-3723.163
 30
0.0
 11
4017.845999999999
 21
-3723.163
 31
0.0
 12
3817.845999999999
 22
-2723.163
 32
0.0
 13
4017.845999999999
 23
-2723.163
 33
0.0
  0
SOLID
  5
FA
330
A
100
AcDbEntity
  8
SOLDERMASK_PADS_BTM
100
AcDbTrace
 10
4991.049
 20
-345.97
 30
0.0
 11
5191.049
 21
-345.97
 31
0.0
 12
4991.049
 22
654.03
 32
0.0
 13
5191.049
 23
654.03
 33
0.0
  0
SOLID
  5
FB
330
A
100
AcDbEntity
  8
SOLDERMASK_PADS_BTM
100
AcDbTrace
 10
4591.049
 20
-345.97
 30
0.0
 11
4791.049
 21
-345.97
 31
0.0
 12
4591.049
 22
654.03
 32
0.0
 13
4791.049
 23
654.03
 33
0.0
  0
SOLID
  5
FC
330
A
100
AcDbEntity
  8
SOLDERMASK_PADS_BTM
100
AcDbTrace
 10
4992.846
 20
-3723.163
 30
0.0
 11
5192.845999999999
 21
-3723.163
 31
0.0
 12
4992.846
 22
-2723.163
 32
0.0
 13
5192.845999999999
 23
-2723.163
 33
0.0
  0
SOLID
  5
FD
330
A
100
AcDbEntity
  8
SOLDERMASK_PADS_BTM
100
AcDbTrace
 10
4592.845999999999
 20
-3723.163
 30
0.0
 11
4792.845999999999
 21
-3723.163
 31
0.0
 12
4592.845999999999
 22
-2723.163
 32
0.0
 13
4792.845999999999
 23
-2723.163
 33
0.0
  0
SOLID
  5
FE
330
A
100
AcDbEntity
  8
SOLDERMASK_PADS_BTM
100
AcDbTrace
 10
-7003.699000000001
 20
3612.771
 30
0.0
 11
-6803.699
 21
3612.771
 31
0.0
 12
-7003.699000000001
 22
3762.771
 32
0.0
 13
-6803.699
 23
3762.771
 33
0.0
  0
SOLID
  5
FF
330
A
100
AcDbEntity
  8
SOLDERMASK_PADS_BTM
100
AcDbTrace
 10
-7003.699000000001
 20
3282.771
 30
0.0
 11
-6803.699
 21
3282.771
 31
0.0
 12
-7003.699000000001
 22
3432.771
 32
0.0
 13
-6803.699
 23
3432.771
 33
0.0
  0
SOLID
  5
100
330
A
100
AcDbEntity
  8
SOLDERMASK_PADS_BTM
100
AcDbTrace
 10
-3013.313
 20
3612.771
 30
0.0
 11
-2813.313
 21
3612.771
 31
0.0
 12
-3013.313
 22
3762.771
 32
0.0
 13
-2813.313
 23
3762.771
 33
0.0
  0
SOLID
  5
101
330
A
100
AcDbEntity
  8
SOLDERMASK_PADS_BTM
100
AcDbTrace
 10
-3013.313
 20
3282.771
 30
0.0
 11
-2813.313
 21
3282.771
 31
0.0
 12
-3013.313
 22
3432.771
 32
0.0
 13
-2813.313
 23
3432.771
 33
0.0
  0
LWPOLYLINE
  5
102
330
A
100
AcDbEntity
  8
SOLDERMASK_PADS_BTM
100
AcDbPolyline
 90
        3
 70
     1
 43
0.0
 10
-24715.0
 20
-11715.0
 10
-24215.0
 20
-12215.0
 10
-24715.0
 20
-12215.0
  0
HATCH
  5
103
330
A
100
AcDbEntity
  8
SOLDERMASK_PADS_BTM
100
AcDbHatch
 10
0.0
 20
0.0
 30
0.0
210
0.0
220
0.0
230
1.0
  2
SOLID
 70
     1
 71
     1
 91
        1
 92
        2
 72
     0
 73
     1
 93
        3
 10
-24715.0
 20
-11715.0
 10
-24215.0
 20
-12215.0
 10
-24715.0
 20
-12215.0
 97
        1
330
258
 75
     0
 76
     1
 98
        1
 10
0.0
 20
0.0
450
        0
451
        0
460
0.0
461
0.0
452
        0
462
0.0
453
        0
470

  0
SOLID
  5
EA8
330
A
100
AcDbEntity
  8
SOLDERMASK_PADS_BTM
100
AcDbTrace
 10
13619.943
 20
2675.9
 30
0.0
 11
13819.943
 21
2675.9
 31
0.0
 12
13619.943
 22
2825.9
 32
0.0
 13
13819.943
 23
2825.9
 33
0.0
  0
SOLID
  5
EA9
330
A
100
AcDbEntity
  8
SOLDERMASK_PADS_BTM
100
AcDbTrace
 10
13619.943
 20
2345.9
 30
0.0
 11
13819.943
 21
2345.9
 31
0.0
 12
13619.943
 22
2495.900000000001
 32
0.0
 13
13819.943
 23
2495.900000000001
 33
0.0
  0
SOLID
  5
EAA
330
A
100
AcDbEntity
  8
SOLDERMASK_PADS_BTM
100
AcDbTrace
 10
-4871.7
 20
-6049.904000000001
 30
0.0
 11
-4671.7
 21
-6049.904000000001
 31
0.0
 12
-4871.7
 22
-5049.904000000001
 32
0.0
 13
-4671.7
 23
-5049.904000000001
 33
0.0
  0
SOLID
  5
EAB
330
A
100
AcDbEntity
  8
SOLDERMASK_PADS_BTM
100
AcDbTrace
 10
-5271.7
 20
-6049.904000000001
 30
0.0
 11
-5071.699999999999
 21
-6049.904000000001
 31
0.0
 12
-5271.7
 22
-5049.904000000001
 32
0.0
 13
-5071.699999999999
 23
-5049.904000000001
 33
0.0
  0
SOLID
  5
EAC
330
A
100
AcDbEntity
  8
SOLDERMASK_PADS_BTM
100
AcDbTrace
 10
-5111.32
 20
-1109.566
 30
0.0
 11
-4735.32
 21
-1109.566
 31
0.0
 12
-5111.32
 22
-609.566
 32
0.0
 13
-4735.32
 23
-609.566
 33
0.0
  0
SOLID
  5
EAD
330
A
100
AcDbEntity
  8
SOLDERMASK_PADS_BTM
100
AcDbTrace
 10
-4285.32
 20
-1109.566
 30
0.0
 11
-3909.320000000001
 21
-1109.566
 31
0.0
 12
-4285.32
 22
-609.566
 32
0.0
 13
-3909.320000000001
 23
-609.566
 33
0.0
  0
SOLID
  5
EAE
330
A
100
AcDbEntity
  8
SOLDERMASK_PADS_BTM
100
AcDbTrace
 10
-4873.497
 20
1980.771
 30
0.0
 11
-4673.497
 21
1980.771
 31
0.0
 12
-4873.497
 22
2980.771
 32
0.0
 13
-4673.497
 23
2980.771
 33
0.0
  0
SOLID
  5
EAF
330
A
100
AcDbEntity
  8
SOLDERMASK_PADS_BTM
100
AcDbTrace
 10
-5273.496999999999
 20
1980.771
 30
0.0
 11
-5073.497
 21
1980.771
 31
0.0
 12
-5273.496999999999
 22
2980.771
 32
0.0
 13
-5073.497
 23
2980.771
 33
0.0
  0
SOLID
  5
EB0
330
A
100
AcDbEntity
  8
SOLDERMASK_PADS_BTM
100
AcDbTrace
 10
9509.316999999999
 20
2524.896
 30
0.0
 11
9709.316999999998
 21
2524.896
 31
0.0
 12
9509.316999999999
 22
3524.896
 32
0.0
 13
9709.316999999998
 23
3524.896
 33
0.0
  0
SOLID
  5
EB1
330
A
100
AcDbEntity
  8
SOLDERMASK_PADS_BTM
100
AcDbTrace
 10
9909.316999999999
 20
2524.896
 30
0.0
 11
10109.317
 21
2524.896
 31
0.0
 12
9909.316999999999
 22
3524.896
 32
0.0
 13
10109.317
 23
3524.896
 33
0.0
  0
SOLID
  5
EB2
330
A
100
AcDbEntity
  8
SOLDERMASK_PADS_BTM
100
AcDbTrace
 10
12869.943
 20
2675.9
 30
0.0
 11
13069.943
 21
2675.9
 31
0.0
 12
12869.943
 22
2825.9
 32
0.0
 13
13069.943
 23
2825.9
 33
0.0
  0
SOLID
  5
EB3
330
A
100
AcDbEntity
  8
SOLDERMASK_PADS_BTM
100
AcDbTrace
 10
12869.943
 20
2345.9
 30
0.0
 11
13069.943
 21
2345.9
 31
0.0
 12
12869.943
 22
2495.900000000001
 32
0.0
 13
13069.943
 23
2495.900000000001
 33
0.0
  0
SOLID
  5
EB4
330
A
100
AcDbEntity
  8
SOLDERMASK_PADS_BTM
100
AcDbTrace
 10
-4871.7
 20
-4847.72
 30
0.0
 11
-4671.7
 21
-4847.72
 31
0.0
 12
-4871.7
 22
-3847.72
 32
0.0
 13
-4671.7
 23
-3847.72
 33
0.0
  0
SOLID
  5
EB5
330
A
100
AcDbEntity
  8
SOLDERMASK_PADS_BTM
100
AcDbTrace
 10
-5271.7
 20
-4847.72
 30
0.0
 11
-5071.699999999999
 21
-4847.72
 31
0.0
 12
-5271.7
 22
-3847.72
 32
0.0
 13
-5071.699999999999
 23
-3847.72
 33
0.0
  0
SOLID
  5
EB6
330
A
100
AcDbEntity
  8
SOLDERMASK_PADS_BTM
100
AcDbTrace
 10
-5111.32
 20
-1784.566
 30
0.0
 11
-4735.32
 21
-1784.566
 31
0.0
 12
-5111.32
 22
-1284.566
 32
0.0
 13
-4735.32
 23
-1284.566
 33
0.0
  0
SOLID
  5
EB7
330
A
100
AcDbEntity
  8
SOLDERMASK_PADS_BTM
100
AcDbTrace
 10
-4285.32
 20
-1784.566
 30
0.0
 11
-3909.320000000001
 21
-1784.566
 31
0.0
 12
-4285.32
 22
-1284.566
 32
0.0
 13
-3909.320000000001
 23
-1284.566
 33
0.0
  0
SOLID
  5
EB8
330
A
100
AcDbEntity
  8
SOLDERMASK_PADS_BTM
100
AcDbTrace
 10
-4873.497
 20
778.587
 30
0.0
 11
-4673.497
 21
778.587
 31
0.0
 12
-4873.497
 22
1778.587
 32
0.0
 13
-4673.497
 23
1778.587
 33
0.0
  0
SOLID
  5
EB9
330
A
100
AcDbEntity
  8
SOLDERMASK_PADS_BTM
100
AcDbTrace
 10
-5273.496999999999
 20
778.587
 30
0.0
 11
-5073.497
 21
778.587
 31
0.0
 12
-5273.496999999999
 22
1778.587
 32
0.0
 13
-5073.497
 23
1778.587
 33
0.0
  0
SOLID
  5
EBA
330
A
100
AcDbEntity
  8
SOLDERMASK_PADS_BTM
100
AcDbTrace
 10
9509.316999999999
 20
1321.68
 30
0.0
 11
9709.316999999998
 21
1321.68
 31
0.0
 12
9509.316999999999
 22
2321.68
 32
0.0
 13
9709.316999999998
 23
2321.68
 33
0.0
  0
SOLID
  5
EBB
330
A
100
AcDbEntity
  8
SOLDERMASK_PADS_BTM
100
AcDbTrace
 10
9909.316999999999
 20
1321.68
 30
0.0
 11
10109.317
 21
1321.68
 31
0.0
 12
9909.316999999999
 22
2321.68
 32
0.0
 13
10109.317
 23
2321.68
 33
0.0
  0
SOLID
  5
EBC
330
A
100
AcDbEntity
  8
SOLDERMASK_PADS_BTM
100
AcDbTrace
 10
-4871.7
 20
-3645.536
 30
0.0
 11
-4671.7
 21
-3645.536
 31
0.0
 12
-4871.7
 22
-2645.536
 32
0.0
 13
-4671.7
 23
-2645.536
 33
0.0
  0
SOLID
  5
EBD
330
A
100
AcDbEntity
  8
SOLDERMASK_PADS_BTM
100
AcDbTrace
 10
-5271.7
 20
-3645.536
 30
0.0
 11
-5071.699999999999
 21
-3645.536
 31
0.0
 12
-5271.7
 22
-2645.536
 32
0.0
 13
-5071.699999999999
 23
-2645.536
 33
0.0
  0
SOLID
  5
EBE
330
A
100
AcDbEntity
  8
SOLDERMASK_PADS_BTM
100
AcDbTrace
 10
-5111.32
 20
-2459.566000000001
 30
0.0
 11
-4735.32
 21
-2459.566000000001
 31
0.0
 12
-5111.32
 22
-1959.566
 32
0.0
 13
-4735.32
 23
-1959.566
 33
0.0
  0
SOLID
  5
EBF
330
A
100
AcDbEntity
  8
SOLDERMASK_PADS_BTM
100
AcDbTrace
 10
-4285.32
 20
-2459.566000000001
 30
0.0
 11
-3909.320000000001
 21
-2459.566000000001
 31
0.0
 12
-4285.32
 22
-1959.566
 32
0.0
 13
-3909.320000000001
 23
-1959.566
 33
0.0
  0
SOLID
  5
EC0
330
A
100
AcDbEntity
  8
SOLDERMASK_PADS_BTM
100
AcDbTrace
 10
-4873.497
 20
-423.597
 30
0.0
 11
-4673.497
 21
-423.597
 31
0.0
 12
-4873.497
 22
576.4029999999999
 32
0.0
 13
-4673.497
 23
576.4029999999999
 33
0.0
  0
SOLID
  5
EC1
330
A
100
AcDbEntity
  8
SOLDERMASK_PADS_BTM
100
AcDbTrace
 10
-5273.496999999999
 20
-423.597
 30
0.0
 11
-5073.497
 21
-423.597
 31
0.0
 12
-5273.496999999999
 22
576.4029999999999
 32
0.0
 13
-5073.497
 23
576.4029999999999
 33
0.0
  0
SOLID
  5
EC2
330
A
100
AcDbEntity
  8
SOLDERMASK_PADS_BTM
100
AcDbTrace
 10
9509.316999999999
 20
118.464
 30
0.0
 11
9709.316999999998
 21
118.464
 31
0.0
 12
9509.316999999999
 22
1118.464
 32
0.0
 13
9709.316999999998
 23
1118.464
 33
0.0
  0
SOLID
  5
EC3
330
A
100
AcDbEntity
  8
SOLDERMASK_PADS_BTM
100
AcDbTrace
 10
9909.316999999999
 20
118.464
 30
0.0
 11
10109.317
 21
118.464
 31
0.0
 12
9909.316999999999
 22
1118.464
 32
0.0
 13
10109.317
 23
1118.464
 33
0.0
  0
SOLID
  5
EC4
330
A
100
AcDbEntity
  8
SOLDERMASK_PADS_BTM
100
AcDbTrace
 10
12494.943
 20
2675.9
 30
0.0
 11
12694.943
 21
2675.9
 31
0.0
 12
12494.943
 22
2825.9
 32
0.0
 13
12694.943
 23
2825.9
 33
0.0
  0
SOLID
  5
EC5
330
A
100
AcDbEntity
  8
SOLDERMASK_PADS_BTM
100
AcDbTrace
 10
12494.943
 20
2345.9
 30
0.0
 11
12694.943
 21
2345.9
 31
0.0
 12
12494.943
 22
2495.900000000001
 32
0.0
 13
12694.943
 23
2495.900000000001
 33
0.0
  0
SOLID
  5
EC6
330
A
100
AcDbEntity
  8
SOLDERMASK_PADS_BTM
100
AcDbTrace
 10
6034.316999999999
 20
-1084.752
 30
0.0
 11
6234.316999999999
 21
-1084.752
 31
0.0
 12
6034.316999999999
 22
-84.752
 32
0.0
 13
6234.316999999999
 23
-84.752
 33
0.0
  0
SOLID
  5
EC7
330
A
100
AcDbEntity
  8
SOLDERMASK_PADS_BTM
100
AcDbTrace
 10
5634.316999999999
 20
-1084.752
 30
0.0
 11
5834.316999999999
 21
-1084.752
 31
0.0
 12
5634.316999999999
 22
-84.752
 32
0.0
 13
5834.316999999999
 23
-84.752
 33
0.0
  0
SOLID
  5
EC8
330
A
100
AcDbEntity
  8
SOLDERMASK_PADS_BTM
100
AcDbTrace
 10
9509.316999999999
 20
-1084.752
 30
0.0
 11
9709.316999999998
 21
-1084.752
 31
0.0
 12
9509.316999999999
 22
-84.752
 32
0.0
 13
9709.316999999998
 23
-84.752
 33
0.0
  0
SOLID
  5
EC9
330
A
100
AcDbEntity
  8
SOLDERMASK_PADS_BTM
100
AcDbTrace
 10
9909.316999999999
 20
-1084.752
 30
0.0
 11
10109.317
 21
-1084.752
 31
0.0
 12
9909.316999999999
 22
-84.752
 32
0.0
 13
10109.317
 23
-84.752
 33
0.0
  0
SOLID
  5
ECA
330
A
100
AcDbEntity
  8
SOLDERMASK_PADS_BTM
100
AcDbTrace
 10
6034.316999999999
 20
-2362.915
 30
0.0
 11
6234.316999999999
 21
-2362.915
 31
0.0
 12
6034.316999999999
 22
-1362.915
 32
0.0
 13
6234.316999999999
 23
-1362.915
 33
0.0
  0
SOLID
  5
ECB
330
A
100
AcDbEntity
  8
SOLDERMASK_PADS_BTM
100
AcDbTrace
 10
5634.316999999999
 20
-2362.915
 30
0.0
 11
5834.316999999999
 21
-2362.915
 31
0.0
 12
5634.316999999999
 22
-1362.915
 32
0.0
 13
5834.316999999999
 23
-1362.915
 33
0.0
  0
SOLID
  5
ECC
330
A
100
AcDbEntity
  8
SOLDERMASK_PADS_BTM
100
AcDbTrace
 10
9509.316999999999
 20
-2362.915
 30
0.0
 11
9709.316999999998
 21
-2362.915
 31
0.0
 12
9509.316999999999
 22
-1362.915
 32
0.0
 13
9709.316999999998
 23
-1362.915
 33
0.0
  0
SOLID
  5
ECD
330
A
100
AcDbEntity
  8
SOLDERMASK_PADS_BTM
100
AcDbTrace
 10
9909.316999999999
 20
-2362.915
 30
0.0
 11
10109.317
 21
-2362.915
 31
0.0
 12
9909.316999999999
 22
-1362.915
 32
0.0
 13
10109.317
 23
-1362.915
 33
0.0
  0
SOLID
  5
ECE
330
A
100
AcDbEntity
  8
SOLDERMASK_PADS_BTM
100
AcDbTrace
 10
6034.316999999999
 20
-3566.131
 30
0.0
 11
6234.316999999999
 21
-3566.131
 31
0.0
 12
6034.316999999999
 22
-2566.131
 32
0.0
 13
6234.316999999999
 23
-2566.131
 33
0.0
  0
SOLID
  5
ECF
330
A
100
AcDbEntity
  8
SOLDERMASK_PADS_BTM
100
AcDbTrace
 10
5634.316999999999
 20
-3566.131
 30
0.0
 11
5834.316999999999
 21
-3566.131
 31
0.0
 12
5634.316999999999
 22
-2566.131
 32
0.0
 13
5834.316999999999
 23
-2566.131
 33
0.0
  0
SOLID
  5
ED0
330
A
100
AcDbEntity
  8
SOLDERMASK_PADS_BTM
100
AcDbTrace
 10
-6612.173000000002
 20
3641.989000000001
 30
0.0
 11
-6412.173000000001
 21
3641.989000000001
 31
0.0
 12
-6612.173000000002
 22
3791.989
 32
0.0
 13
-6412.173000000001
 23
3791.989
 33
0.0
  0
SOLID
  5
ED1
330
A
100
AcDbEntity
  8
SOLDERMASK_PADS_BTM
100
AcDbTrace
 10
-6612.173000000002
 20
3311.989
 30
0.0
 11
-6412.173000000001
 21
3311.989
 31
0.0
 12
-6612.173000000002
 22
3461.989
 32
0.0
 13
-6412.173000000001
 23
3461.989
 33
0.0
  0
SOLID
  5
ED2
330
A
100
AcDbEntity
  8
SOLDERMASK_PADS_BTM
100
AcDbTrace
 10
9509.316999999999
 20
-3566.131
 30
0.0
 11
9709.316999999998
 21
-3566.131
 31
0.0
 12
9509.316999999999
 22
-2566.131
 32
0.0
 13
9709.316999999998
 23
-2566.131
 33
0.0
  0
SOLID
  5
ED3
330
A
100
AcDbEntity
  8
SOLDERMASK_PADS_BTM
100
AcDbTrace
 10
9909.316999999999
 20
-3566.131
 30
0.0
 11
10109.317
 21
-3566.131
 31
0.0
 12
9909.316999999999
 22
-2566.131
 32
0.0
 13
10109.317
 23
-2566.131
 33
0.0
  0
SOLID
  5
ED4
330
A
100
AcDbEntity
  8
SOLDERMASK_PADS_BTM
100
AcDbTrace
 10
-2564.162
 20
3641.989000000001
 30
0.0
 11
-2364.162
 21
3641.989000000001
 31
0.0
 12
-2564.162
 22
3791.989
 32
0.0
 13
-2364.162
 23
3791.989
 33
0.0
  0
SOLID
  5
ED5
330
A
100
AcDbEntity
  8
SOLDERMASK_PADS_BTM
100
AcDbTrace
 10
-2564.162
 20
3311.989
 30
0.0
 11
-2364.162
 21
3311.989
 31
0.0
 12
-2564.162
 22
3461.989
 32
0.0
 13
-2364.162
 23
3461.989
 33
0.0
  0
SOLID
  5
ED6
330
A
100
AcDbEntity
  8
SOLDERMASK_PADS_BTM
100
AcDbTrace
 10
-2100.506
 20
-1109.566
 30
0.0
 11
-1724.506
 21
-1109.566
 31
0.0
 12
-2100.506
 22
-609.566
 32
0.0
 13
-1724.506
 23
-609.566
 33
0.0
  0
SOLID
  5
ED7
330
A
100
AcDbEntity
  8
SOLDERMASK_PADS_BTM
100
AcDbTrace
 10
-1274.506
 20
-1109.566
 30
0.0
 11
-898.506
 21
-1109.566
 31
0.0
 12
-1274.506
 22
-609.566
 32
0.0
 13
-898.506
 23
-609.566
 33
0.0
  0
SOLID
  5
ED8
330
A
100
AcDbEntity
  8
SOLDERMASK_PADS_BTM
100
AcDbTrace
 10
6034.316999999999
 20
-4769.346999999999
 30
0.0
 11
6234.316999999999
 21
-4769.346999999999
 31
0.0
 12
6034.316999999999
 22
-3769.347000000001
 32
0.0
 13
6234.316999999999
 23
-3769.347000000001
 33
0.0
  0
SOLID
  5
ED9
330
A
100
AcDbEntity
  8
SOLDERMASK_PADS_BTM
100
AcDbTrace
 10
5634.316999999999
 20
-4769.346999999999
 30
0.0
 11
5834.316999999999
 21
-4769.346999999999
 31
0.0
 12
5634.316999999999
 22
-3769.347000000001
 32
0.0
 13
5834.316999999999
 23
-3769.347000000001
 33
0.0
  0
SOLID
  5
EDA
330
A
100
AcDbEntity
  8
SOLDERMASK_PADS_BTM
100
AcDbTrace
 10
9509.316999999999
 20
-4769.346999999999
 30
0.0
 11
9709.316999999998
 21
-4769.346999999999
 31
0.0
 12
9509.316999999999
 22
-3769.347000000001
 32
0.0
 13
9709.316999999998
 23
-3769.347000000001
 33
0.0
  0
SOLID
  5
EDB
330
A
100
AcDbEntity
  8
SOLDERMASK_PADS_BTM
100
AcDbTrace
 10
9909.316999999999
 20
-4769.346999999999
 30
0.0
 11
10109.317
 21
-4769.346999999999
 31
0.0
 12
9909.316999999999
 22
-3769.347000000001
 32
0.0
 13
10109.317
 23
-3769.347000000001
 33
0.0
  0
SOLID
  5
EDC
330
A
100
AcDbEntity
  8
SOLDERMASK_PADS_BTM
100
AcDbTrace
 10
-2100.506
 20
-1784.566
 30
0.0
 11
-1724.506
 21
-1784.566
 31
0.0
 12
-2100.506
 22
-1284.566
 32
0.0
 13
-1724.506
 23
-1284.566
 33
0.0
  0
SOLID
  5
EDD
330
A
100
AcDbEntity
  8
SOLDERMASK_PADS_BTM
100
AcDbTrace
 10
-1274.506
 20
-1784.566
 30
0.0
 11
-898.506
 21
-1784.566
 31
0.0
 12
-1274.506
 22
-1284.566
 32
0.0
 13
-898.506
 23
-1284.566
 33
0.0
  0
SOLID
  5
EDE
330
A
100
AcDbEntity
  8
SOLDERMASK_PADS_BTM
100
AcDbTrace
 10
6034.316999999999
 20
-5972.563
 30
0.0
 11
6234.316999999999
 21
-5972.563
 31
0.0
 12
6034.316999999999
 22
-4972.563
 32
0.0
 13
6234.316999999999
 23
-4972.563
 33
0.0
  0
SOLID
  5
EDF
330
A
100
AcDbEntity
  8
SOLDERMASK_PADS_BTM
100
AcDbTrace
 10
5634.316999999999
 20
-5972.563
 30
0.0
 11
5834.316999999999
 21
-5972.563
 31
0.0
 12
5634.316999999999
 22
-4972.563
 32
0.0
 13
5834.316999999999
 23
-4972.563
 33
0.0
  0
SOLID
  5
EE0
330
A
100
AcDbEntity
  8
SOLDERMASK_PADS_BTM
100
AcDbTrace
 10
-2625.165
 20
1980.771
 30
0.0
 11
-2425.165
 21
1980.771
 31
0.0
 12
-2625.165
 22
2980.771
 32
0.0
 13
-2425.165
 23
2980.771
 33
0.0
  0
SOLID
  5
EE1
330
A
100
AcDbEntity
  8
SOLDERMASK_PADS_BTM
100
AcDbTrace
 10
-3025.165
 20
1980.771
 30
0.0
 11
-2825.165
 21
1980.771
 31
0.0
 12
-3025.165
 22
2980.771
 32
0.0
 13
-2825.165
 23
2980.771
 33
0.0
  0
SOLID
  5
EE2
330
A
100
AcDbEntity
  8
SOLDERMASK_PADS_BTM
100
AcDbTrace
 10
9509.316999999999
 20
-5972.563
 30
0.0
 11
9709.316999999998
 21
-5972.563
 31
0.0
 12
9509.316999999999
 22
-4972.563
 32
0.0
 13
9709.316999999998
 23
-4972.563
 33
0.0
  0
SOLID
  5
EE3
330
A
100
AcDbEntity
  8
SOLDERMASK_PADS_BTM
100
AcDbTrace
 10
9909.316999999999
 20
-5972.563
 30
0.0
 11
10109.317
 21
-5972.563
 31
0.0
 12
9909.316999999999
 22
-4972.563
 32
0.0
 13
10109.317
 23
-4972.563
 33
0.0
  0
SOLID
  5
EE4
330
A
100
AcDbEntity
  8
SOLDERMASK_PADS_BTM
100
AcDbTrace
 10
-2623.368
 20
-6049.904000000001
 30
0.0
 11
-2423.368
 21
-6049.904000000001
 31
0.0
 12
-2623.368
 22
-5049.904000000001
 32
0.0
 13
-2423.368
 23
-5049.904000000001
 33
0.0
  0
SOLID
  5
EE5
330
A
100
AcDbEntity
  8
SOLDERMASK_PADS_BTM
100
AcDbTrace
 10
-3023.368
 20
-6049.904000000001
 30
0.0
 11
-2823.368
 21
-6049.904000000001
 31
0.0
 12
-3023.368
 22
-5049.904000000001
 32
0.0
 13
-2823.368
 23
-5049.904000000001
 33
0.0
  0
SOLID
  5
EE6
330
A
100
AcDbEntity
  8
SOLDERMASK_PADS_BTM
100
AcDbTrace
 10
-2100.506
 20
-2459.566000000001
 30
0.0
 11
-1724.506
 21
-2459.566000000001
 31
0.0
 12
-2100.506
 22
-1959.566
 32
0.0
 13
-1724.506
 23
-1959.566
 33
0.0
  0
SOLID
  5
EE7
330
A
100
AcDbEntity
  8
SOLDERMASK_PADS_BTM
100
AcDbTrace
 10
-1274.506
 20
-2459.566000000001
 30
0.0
 11
-898.506
 21
-2459.566000000001
 31
0.0
 12
-1274.506
 22
-1959.566
 32
0.0
 13
-898.506
 23
-1959.566
 33
0.0
  0
SOLID
  5
EE8
330
A
100
AcDbEntity
  8
SOLDERMASK_PADS_BTM
100
AcDbTrace
 10
-595.099
 20
-1784.566
 30
0.0
 11
-219.099
 21
-1784.566
 31
0.0
 12
-595.099
 22
-1284.566
 32
0.0
 13
-219.099
 23
-1284.566
 33
0.0
  0
SOLID
  5
EE9
330
A
100
AcDbEntity
  8
SOLDERMASK_PADS_BTM
100
AcDbTrace
 10
230.901
 20
-1784.566
 30
0.0
 11
606.9009999999999
 21
-1784.566
 31
0.0
 12
230.901
 22
-1284.566
 32
0.0
 13
606.9009999999999
 23
-1284.566
 33
0.0
  0
SOLID
  5
EEA
330
A
100
AcDbEntity
  8
SOLDERMASK_PADS_BTM
100
AcDbTrace
 10
10284.317
 20
2450.9
 30
0.0
 11
10434.317
 21
2450.9
 31
0.0
 12
10284.317
 22
2650.9
 32
0.0
 13
10434.317
 23
2650.9
 33
0.0
  0
SOLID
  5
EEB
330
A
100
AcDbEntity
  8
SOLDERMASK_PADS_BTM
100
AcDbTrace
 10
10614.317
 20
2450.9
 30
0.0
 11
10764.317
 21
2450.9
 31
0.0
 12
10614.317
 22
2650.9
 32
0.0
 13
10764.317
 23
2650.9
 33
0.0
  0
SOLID
  5
EEC
330
A
100
AcDbEntity
  8
SOLDERMASK_PADS_BTM
100
AcDbTrace
 10
-2625.165
 20
778.587
 30
0.0
 11
-2425.165
 21
778.587
 31
0.0
 12
-2625.165
 22
1778.587
 32
0.0
 13
-2425.165
 23
1778.587
 33
0.0
  0
SOLID
  5
EED
330
A
100
AcDbEntity
  8
SOLDERMASK_PADS_BTM
100
AcDbTrace
 10
-3025.165
 20
778.587
 30
0.0
 11
-2825.165
 21
778.587
 31
0.0
 12
-3025.165
 22
1778.587
 32
0.0
 13
-2825.165
 23
1778.587
 33
0.0
  0
SOLID
  5
EEE
330
A
100
AcDbEntity
  8
SOLDERMASK_PADS_BTM
100
AcDbTrace
 10
-2623.368
 20
-4847.72
 30
0.0
 11
-2423.368
 21
-4847.72
 31
0.0
 12
-2623.368
 22
-3847.72
 32
0.0
 13
-2423.368
 23
-3847.72
 33
0.0
  0
SOLID
  5
EEF
330
A
100
AcDbEntity
  8
SOLDERMASK_PADS_BTM
100
AcDbTrace
 10
-3023.368
 20
-4847.72
 30
0.0
 11
-2823.368
 21
-4847.72
 31
0.0
 12
-3023.368
 22
-3847.72
 32
0.0
 13
-2823.368
 23
-3847.72
 33
0.0
  0
SOLID
  5
EF0
330
A
100
AcDbEntity
  8
SOLDERMASK_PADS_BTM
100
AcDbTrace
 10
-595.099
 20
-1109.566
 30
0.0
 11
-219.099
 21
-1109.566
 31
0.0
 12
-595.099
 22
-609.566
 32
0.0
 13
-219.099
 23
-609.566
 33
0.0
  0
SOLID
  5
EF1
330
A
100
AcDbEntity
  8
SOLDERMASK_PADS_BTM
100
AcDbTrace
 10
230.901
 20
-1109.566
 30
0.0
 11
606.9009999999999
 21
-1109.566
 31
0.0
 12
230.901
 22
-609.566
 32
0.0
 13
606.9009999999999
 23
-609.566
 33
0.0
  0
SOLID
  5
EF2
330
A
100
AcDbEntity
  8
SOLDERMASK_PADS_BTM
100
AcDbTrace
 10
-595.099
 20
-2459.566000000001
 30
0.0
 11
-219.099
 21
-2459.566000000001
 31
0.0
 12
-595.099
 22
-1959.566
 32
0.0
 13
-219.099
 23
-1959.566
 33
0.0
  0
SOLID
  5
EF3
330
A
100
AcDbEntity
  8
SOLDERMASK_PADS_BTM
100
AcDbTrace
 10
230.901
 20
-2459.566000000001
 30
0.0
 11
606.9009999999999
 21
-2459.566000000001
 31
0.0
 12
230.901
 22
-1959.566
 32
0.0
 13
606.9009999999999
 23
-1959.566
 33
0.0
  0
SOLID
  5
EF4
330
A
100
AcDbEntity
  8
SOLDERMASK_PADS_BTM
100
AcDbTrace
 10
6809.316999999999
 20
-1084.752
 30
0.0
 11
7009.316999999999
 21
-1084.752
 31
0.0
 12
6809.316999999999
 22
-84.752
 32
0.0
 13
7009.316999999999
 23
-84.752
 33
0.0
  0
SOLID
  5
EF5
330
A
100
AcDbEntity
  8
SOLDERMASK_PADS_BTM
100
AcDbTrace
 10
6409.316999999998
 20
-1084.752
 30
0.0
 11
6609.316999999998
 21
-1084.752
 31
0.0
 12
6409.316999999998
 22
-84.752
 32
0.0
 13
6609.316999999998
 23
-84.752
 33
0.0
  0
SOLID
  5
EF6
330
A
100
AcDbEntity
  8
SOLDERMASK_PADS_BTM
100
AcDbTrace
 10
10284.317
 20
2075.9
 30
0.0
 11
10434.317
 21
2075.9
 31
0.0
 12
10284.317
 22
2275.9
 32
0.0
 13
10434.317
 23
2275.9
 33
0.0
  0
SOLID
  5
EF7
330
A
100
AcDbEntity
  8
SOLDERMASK_PADS_BTM
100
AcDbTrace
 10
10614.317
 20
2075.9
 30
0.0
 11
10764.317
 21
2075.9
 31
0.0
 12
10614.317
 22
2275.9
 32
0.0
 13
10764.317
 23
2275.9
 33
0.0
  0
SOLID
  5
EF8
330
A
100
AcDbEntity
  8
SOLDERMASK_PADS_BTM
100
AcDbTrace
 10
-2625.165
 20
-423.597
 30
0.0
 11
-2425.165
 21
-423.597
 31
0.0
 12
-2625.165
 22
576.4029999999999
 32
0.0
 13
-2425.165
 23
576.4029999999999
 33
0.0
  0
SOLID
  5
EF9
330
A
100
AcDbEntity
  8
SOLDERMASK_PADS_BTM
100
AcDbTrace
 10
-3025.165
 20
-423.597
 30
0.0
 11
-2825.165
 21
-423.597
 31
0.0
 12
-3025.165
 22
576.4029999999999
 32
0.0
 13
-2825.165
 23
576.4029999999999
 33
0.0
  0
SOLID
  5
EFA
330
A
100
AcDbEntity
  8
SOLDERMASK_PADS_BTM
100
AcDbTrace
 10
-2623.368
 20
-3645.536
 30
0.0
 11
-2423.368
 21
-3645.536
 31
0.0
 12
-2623.368
 22
-2645.536
 32
0.0
 13
-2423.368
 23
-2645.536
 33
0.0
  0
SOLID
  5
EFB
330
A
100
AcDbEntity
  8
SOLDERMASK_PADS_BTM
100
AcDbTrace
 10
-3023.368
 20
-3645.536
 30
0.0
 11
-2823.368
 21
-3645.536
 31
0.0
 12
-3023.368
 22
-2645.536
 32
0.0
 13
-2823.368
 23
-2645.536
 33
0.0
  0
SOLID
  5
EFC
330
A
100
AcDbEntity
  8
SOLDERMASK_PADS_BTM
100
AcDbTrace
 10
6809.316999999999
 20
-2362.915
 30
0.0
 11
7009.316999999999
 21
-2362.915
 31
0.0
 12
6809.316999999999
 22
-1362.915
 32
0.0
 13
7009.316999999999
 23
-1362.915
 33
0.0
  0
SOLID
  5
EFD
330
A
100
AcDbEntity
  8
SOLDERMASK_PADS_BTM
100
AcDbTrace
 10
6409.316999999998
 20
-2362.915
 30
0.0
 11
6609.316999999998
 21
-2362.915
 31
0.0
 12
6409.316999999998
 22
-1362.915
 32
0.0
 13
6609.316999999998
 23
-1362.915
 33
0.0
  0
SOLID
  5
EFE
330
A
100
AcDbEntity
  8
SOLDERMASK_PADS_BTM
100
AcDbTrace
 10
10284.317
 20
1700.9
 30
0.0
 11
10434.317
 21
1700.9
 31
0.0
 12
10284.317
 22
1900.9
 32
0.0
 13
10434.317
 23
1900.9
 33
0.0
  0
SOLID
  5
EFF
330
A
100
AcDbEntity
  8
SOLDERMASK_PADS_BTM
100
AcDbTrace
 10
10614.317
 20
1700.9
 30
0.0
 11
10764.317
 21
1700.9
 31
0.0
 12
10614.317
 22
1900.9
 32
0.0
 13
10764.317
 23
1900.9
 33
0.0
  0
SOLID
  5
F00
330
A
100
AcDbEntity
  8
SOLDERMASK_PADS_BTM
100
AcDbTrace
 10
-4498.497
 20
1980.771
 30
0.0
 11
-4298.497
 21
1980.771
 31
0.0
 12
-4498.497
 22
2980.771
 32
0.0
 13
-4298.497
 23
2980.771
 33
0.0
  0
SOLID
  5
F01
330
A
100
AcDbEntity
  8
SOLDERMASK_PADS_BTM
100
AcDbTrace
 10
-4098.497
 20
1980.771
 30
0.0
 11
-3898.497000000001
 21
1980.771
 31
0.0
 12
-4098.497
 22
2980.771
 32
0.0
 13
-3898.497000000001
 23
2980.771
 33
0.0
  0
SOLID
  5
F02
330
A
100
AcDbEntity
  8
SOLDERMASK_PADS_BTM
100
AcDbTrace
 10
14015.9
 20
311.3
 30
0.0
 11
14165.9
 21
311.3
 31
0.0
 12
14015.9
 22
511.3
 32
0.0
 13
14165.9
 23
511.3
 33
0.0
  0
SOLID
  5
F03
330
A
100
AcDbEntity
  8
SOLDERMASK_PADS_BTM
100
AcDbTrace
 10
13685.9
 20
311.3
 30
0.0
 11
13835.9
 21
311.3
 31
0.0
 12
13685.9
 22
511.3
 32
0.0
 13
13835.9
 23
511.3
 33
0.0
  0
SOLID
  5
F04
330
A
100
AcDbEntity
  8
SOLDERMASK_PADS_BTM
100
AcDbTrace
 10
-4496.699999999999
 20
-6049.904000000001
 30
0.0
 11
-4296.7
 21
-6049.904000000001
 31
0.0
 12
-4496.699999999999
 22
-5049.904000000001
 32
0.0
 13
-4296.7
 23
-5049.904000000001
 33
0.0
  0
SOLID
  5
F05
330
A
100
AcDbEntity
  8
SOLDERMASK_PADS_BTM
100
AcDbTrace
 10
-4096.7
 20
-6049.904000000001
 30
0.0
 11
-3896.7
 21
-6049.904000000001
 31
0.0
 12
-4096.7
 22
-5049.904000000001
 32
0.0
 13
-3896.7
 23
-5049.904000000001
 33
0.0
  0
SOLID
  5
F06
330
A
100
AcDbEntity
  8
SOLDERMASK_PADS_BTM
100
AcDbTrace
 10
14015.9
 20
-689.7
 30
0.0
 11
14165.9
 21
-689.7
 31
0.0
 12
14015.9
 22
-489.7
 32
0.0
 13
14165.9
 23
-489.7
 33
0.0
  0
SOLID
  5
F07
330
A
100
AcDbEntity
  8
SOLDERMASK_PADS_BTM
100
AcDbTrace
 10
13685.9
 20
-689.7
 30
0.0
 11
13835.9
 21
-689.7
 31
0.0
 12
13685.9
 22
-489.7
 32
0.0
 13
13835.9
 23
-489.7
 33
0.0
  0
SOLID
  5
F08
330
A
100
AcDbEntity
  8
SOLDERMASK_PADS_BTM
100
AcDbTrace
 10
14015.9
 20
-2896.597
 30
0.0
 11
14165.9
 21
-2896.597
 31
0.0
 12
14015.9
 22
-2696.597000000001
 32
0.0
 13
14165.9
 23
-2696.597000000001
 33
0.0
  0
SOLID
  5
F09
330
A
100
AcDbEntity
  8
SOLDERMASK_PADS_BTM
100
AcDbTrace
 10
13685.9
 20
-2896.597
 30
0.0
 11
13835.9
 21
-2896.597
 31
0.0
 12
13685.9
 22
-2696.597000000001
 32
0.0
 13
13835.9
 23
-2696.597000000001
 33
0.0
  0
SOLID
  5
F0A
330
A
100
AcDbEntity
  8
SOLDERMASK_PADS_BTM
100
AcDbTrace
 10
6809.316999999999
 20
-3566.131
 30
0.0
 11
7009.316999999999
 21
-3566.131
 31
0.0
 12
6809.316999999999
 22
-2566.131
 32
0.0
 13
7009.316999999999
 23
-2566.131
 33
0.0
  0
SOLID
  5
F0B
330
A
100
AcDbEntity
  8
SOLDERMASK_PADS_BTM
100
AcDbTrace
 10
6409.316999999998
 20
-3566.131
 30
0.0
 11
6609.316999999998
 21
-3566.131
 31
0.0
 12
6409.316999999998
 22
-2566.131
 32
0.0
 13
6609.316999999998
 23
-2566.131
 33
0.0
  0
SOLID
  5
F0C
330
A
100
AcDbEntity
  8
SOLDERMASK_PADS_BTM
100
AcDbTrace
 10
13715.093
 20
-5688.076999999999
 30
0.0
 11
13865.093
 21
-5688.076999999999
 31
0.0
 12
13715.093
 22
-5488.076999999999
 32
0.0
 13
13865.093
 23
-5488.076999999999
 33
0.0
  0
SOLID
  5
F0D
330
A
100
AcDbEntity
  8
SOLDERMASK_PADS_BTM
100
AcDbTrace
 10
13385.093
 20
-5688.076999999999
 30
0.0
 11
13535.093
 21
-5688.076999999999
 31
0.0
 12
13385.093
 22
-5488.076999999999
 32
0.0
 13
13535.093
 23
-5488.076999999999
 33
0.0
  0
SOLID
  5
F0E
330
A
100
AcDbEntity
  8
SOLDERMASK_PADS_BTM
100
AcDbTrace
 10
10284.317
 20
-5176.010999999999
 30
0.0
 11
10434.317
 21
-5176.010999999999
 31
0.0
 12
10284.317
 22
-4976.010999999999
 32
0.0
 13
10434.317
 23
-4976.010999999999
 33
0.0
  0
SOLID
  5
F0F
330
A
100
AcDbEntity
  8
SOLDERMASK_PADS_BTM
100
AcDbTrace
 10
10614.317
 20
-5176.010999999999
 30
0.0
 11
10764.317
 21
-5176.010999999999
 31
0.0
 12
10614.317
 22
-4976.010999999999
 32
0.0
 13
10764.317
 23
-4976.010999999999
 33
0.0
  0
SOLID
  5
F10
330
A
100
AcDbEntity
  8
SOLDERMASK_PADS_BTM
100
AcDbTrace
 10
-4498.497
 20
778.587
 30
0.0
 11
-4298.497
 21
778.587
 31
0.0
 12
-4498.497
 22
1778.587
 32
0.0
 13
-4298.497
 23
1778.587
 33
0.0
  0
SOLID
  5
F11
330
A
100
AcDbEntity
  8
SOLDERMASK_PADS_BTM
100
AcDbTrace
 10
-4098.497
 20
778.587
 30
0.0
 11
-3898.497000000001
 21
778.587
 31
0.0
 12
-4098.497
 22
1778.587
 32
0.0
 13
-3898.497000000001
 23
1778.587
 33
0.0
  0
SOLID
  5
F12
330
A
100
AcDbEntity
  8
SOLDERMASK_PADS_BTM
100
AcDbTrace
 10
-4496.699999999999
 20
-4847.72
 30
0.0
 11
-4296.7
 21
-4847.72
 31
0.0
 12
-4496.699999999999
 22
-3847.72
 32
0.0
 13
-4296.7
 23
-3847.72
 33
0.0
  0
SOLID
  5
F13
330
A
100
AcDbEntity
  8
SOLDERMASK_PADS_BTM
100
AcDbTrace
 10
-4096.7
 20
-4847.72
 30
0.0
 11
-3896.7
 21
-4847.72
 31
0.0
 12
-4096.7
 22
-3847.72
 32
0.0
 13
-3896.7
 23
-3847.72
 33
0.0
  0
SOLID
  5
F14
330
A
100
AcDbEntity
  8
SOLDERMASK_PADS_BTM
100
AcDbTrace
 10
6809.316999999999
 20
-4769.346999999999
 30
0.0
 11
7009.316999999999
 21
-4769.346999999999
 31
0.0
 12
6809.316999999999
 22
-3769.347000000001
 32
0.0
 13
7009.316999999999
 23
-3769.347000000001
 33
0.0
  0
SOLID
  5
F15
330
A
100
AcDbEntity
  8
SOLDERMASK_PADS_BTM
100
AcDbTrace
 10
6409.316999999998
 20
-4769.346999999999
 30
0.0
 11
6609.316999999998
 21
-4769.346999999999
 31
0.0
 12
6409.316999999998
 22
-3769.347000000001
 32
0.0
 13
6609.316999999998
 23
-3769.347000000001
 33
0.0
  0
SOLID
  5
F16
330
A
100
AcDbEntity
  8
SOLDERMASK_PADS_BTM
100
AcDbTrace
 10
11029.019
 20
377.413
 30
0.0
 11
11229.019
 21
377.413
 31
0.0
 12
11029.019
 22
1377.412999999999
 32
0.0
 13
11229.019
 23
1377.412999999999
 33
0.0
  0
SOLID
  5
F17
330
A
100
AcDbEntity
  8
SOLDERMASK_PADS_BTM
100
AcDbTrace
 10
10629.019
 20
377.413
 30
0.0
 11
10829.019
 21
377.413
 31
0.0
 12
10629.019
 22
1377.412999999999
 32
0.0
 13
10829.019
 23
1377.412999999999
 33
0.0
  0
SOLID
  5
F18
330
A
100
AcDbEntity
  8
SOLDERMASK_PADS_BTM
100
AcDbTrace
 10
10284.317
 20
-5551.010999999999
 30
0.0
 11
10434.317
 21
-5551.010999999999
 31
0.0
 12
10284.317
 22
-5351.010999999999
 32
0.0
 13
10434.317
 23
-5351.010999999999
 33
0.0
  0
SOLID
  5
F19
330
A
100
AcDbEntity
  8
SOLDERMASK_PADS_BTM
100
AcDbTrace
 10
10614.317
 20
-5551.010999999999
 30
0.0
 11
10764.317
 21
-5551.010999999999
 31
0.0
 12
10614.317
 22
-5351.010999999999
 32
0.0
 13
10764.317
 23
-5351.010999999999
 33
0.0
  0
SOLID
  5
F1A
330
A
100
AcDbEntity
  8
SOLDERMASK_PADS_BTM
100
AcDbTrace
 10
-4498.497
 20
-423.597
 30
0.0
 11
-4298.497
 21
-423.597
 31
0.0
 12
-4498.497
 22
576.4029999999999
 32
0.0
 13
-4298.497
 23
576.4029999999999
 33
0.0
  0
SOLID
  5
F1B
330
A
100
AcDbEntity
  8
SOLDERMASK_PADS_BTM
100
AcDbTrace
 10
-4098.497
 20
-423.597
 30
0.0
 11
-3898.497000000001
 21
-423.597
 31
0.0
 12
-4098.497
 22
576.4029999999999
 32
0.0
 13
-3898.497000000001
 23
576.4029999999999
 33
0.0
  0
SOLID
  5
F1C
330
A
100
AcDbEntity
  8
SOLDERMASK_PADS_BTM
100
AcDbTrace
 10
10976.343
 20
-4769.346999999999
 30
0.0
 11
11176.343
 21
-4769.346999999999
 31
0.0
 12
10976.343
 22
-3769.347000000001
 32
0.0
 13
11176.343
 23
-3769.347000000001
 33
0.0
  0
SOLID
  5
F1D
330
A
100
AcDbEntity
  8
SOLDERMASK_PADS_BTM
100
AcDbTrace
 10
10576.343
 20
-4769.346999999999
 30
0.0
 11
10776.343
 21
-4769.346999999999
 31
0.0
 12
10576.343
 22
-3769.347000000001
 32
0.0
 13
10776.343
 23
-3769.347000000001
 33
0.0
  0
SOLID
  5
F1E
330
A
100
AcDbEntity
  8
SOLDERMASK_PADS_BTM
100
AcDbTrace
 10
-8817.51
 20
2780.771
 30
0.0
 11
-8667.51
 21
2780.771
 31
0.0
 12
-8817.51
 22
2980.771
 32
0.0
 13
-8667.51
 23
2980.771
 33
0.0
  0
SOLID
  5
F1F
330
A
100
AcDbEntity
  8
SOLDERMASK_PADS_BTM
100
AcDbTrace
 10
-8487.51
 20
2780.771
 30
0.0
 11
-8337.509999999999
 21
2780.771
 31
0.0
 12
-8487.51
 22
2980.771
 32
0.0
 13
-8337.509999999999
 23
2980.771
 33
0.0
  0
SOLID
  5
F20
330
A
100
AcDbEntity
  8
SOLDERMASK_PADS_BTM
100
AcDbTrace
 10
-4496.699999999999
 20
-3645.536
 30
0.0
 11
-4296.7
 21
-3645.536
 31
0.0
 12
-4496.699999999999
 22
-2645.536
 32
0.0
 13
-4296.7
 23
-2645.536
 33
0.0
  0
SOLID
  5
F21
330
A
100
AcDbEntity
  8
SOLDERMASK_PADS_BTM
100
AcDbTrace
 10
-4096.7
 20
-3645.536
 30
0.0
 11
-3896.7
 21
-3645.536
 31
0.0
 12
-4096.7
 22
-2645.536
 32
0.0
 13
-3896.7
 23
-2645.536
 33
0.0
  0
SOLID
  5
F22
330
A
100
AcDbEntity
  8
SOLDERMASK_PADS_BTM
100
AcDbTrace
 10
2415.715
 20
-1109.566
 30
0.0
 11
2791.715
 21
-1109.566
 31
0.0
 12
2415.715
 22
-609.566
 32
0.0
 13
2791.715
 23
-609.566
 33
0.0
  0
SOLID
  5
F23
330
A
100
AcDbEntity
  8
SOLDERMASK_PADS_BTM
100
AcDbTrace
 10
3241.715
 20
-1109.566
 30
0.0
 11
3617.715
 21
-1109.566
 31
0.0
 12
3241.715
 22
-609.566
 32
0.0
 13
3617.715
 23
-609.566
 33
0.0
  0
SOLID
  5
F24
330
A
100
AcDbEntity
  8
SOLDERMASK_PADS_BTM
100
AcDbTrace
 10
6809.316999999999
 20
-5972.563
 30
0.0
 11
7009.316999999999
 21
-5972.563
 31
0.0
 12
6809.316999999999
 22
-4972.563
 32
0.0
 13
7009.316999999999
 23
-4972.563
 33
0.0
  0
SOLID
  5
F25
330
A
100
AcDbEntity
  8
SOLDERMASK_PADS_BTM
100
AcDbTrace
 10
6409.316999999998
 20
-5972.563
 30
0.0
 11
6609.316999999998
 21
-5972.563
 31
0.0
 12
6409.316999999998
 22
-4972.563
 32
0.0
 13
6609.316999999998
 23
-4972.563
 33
0.0
  0
SOLID
  5
F26
330
A
100
AcDbEntity
  8
SOLDERMASK_PADS_BTM
100
AcDbTrace
 10
10939.317
 20
-5688.076999999999
 30
0.0
 11
11089.317
 21
-5688.076999999999
 31
0.0
 12
10939.317
 22
-5488.076999999999
 32
0.0
 13
11089.317
 23
-5488.076999999999
 33
0.0
  0
SOLID
  5
F27
330
A
100
AcDbEntity
  8
SOLDERMASK_PADS_BTM
100
AcDbTrace
 10
11269.317
 20
-5688.076999999999
 30
0.0
 11
11419.317
 21
-5688.076999999999
 31
0.0
 12
11269.317
 22
-5488.076999999999
 32
0.0
 13
11419.317
 23
-5488.076999999999
 33
0.0
  0
SOLID
  5
F28
330
A
100
AcDbEntity
  8
SOLDERMASK_PADS_BTM
100
AcDbTrace
 10
-6220.646
 20
3612.771
 30
0.0
 11
-6020.646
 21
3612.771
 31
0.0
 12
-6220.646
 22
3762.771
 32
0.0
 13
-6020.646
 23
3762.771
 33
0.0
  0
SOLID
  5
F29
330
A
100
AcDbEntity
  8
SOLDERMASK_PADS_BTM
100
AcDbTrace
 10
-6220.646
 20
3282.771
 30
0.0
 11
-6020.646
 21
3282.771
 31
0.0
 12
-6220.646
 22
3432.771
 32
0.0
 13
-6020.646
 23
3432.771
 33
0.0
  0
SOLID
  5
F2A
330
A
100
AcDbEntity
  8
SOLDERMASK_PADS_BTM
100
AcDbTrace
 10
-3711.831
 20
1854.771
 30
0.0
 11
-3211.831
 21
1854.771
 31
0.0
 12
-3711.831
 22
2230.771
 32
0.0
 13
-3211.831
 23
2230.771
 33
0.0
  0
SOLID
  5
F2B
330
A
100
AcDbEntity
  8
SOLDERMASK_PADS_BTM
100
AcDbTrace
 10
-3711.831
 20
1028.771
 30
0.0
 11
-3211.831
 21
1028.771
 31
0.0
 12
-3711.831
 22
1404.771
 32
0.0
 13
-3211.831
 23
1404.771
 33
0.0
  0
SOLID
  5
F2C
330
A
100
AcDbEntity
  8
SOLDERMASK_PADS_BTM
100
AcDbTrace
 10
-2115.01
 20
3612.771
 30
0.0
 11
-1915.01
 21
3612.771
 31
0.0
 12
-2115.01
 22
3762.771
 32
0.0
 13
-1915.01
 23
3762.771
 33
0.0
  0
SOLID
  5
F2D
330
A
100
AcDbEntity
  8
SOLDERMASK_PADS_BTM
100
AcDbTrace
 10
-2115.01
 20
3282.771
 30
0.0
 11
-1915.01
 21
3282.771
 31
0.0
 12
-2115.01
 22
3432.771
 32
0.0
 13
-1915.01
 23
3432.771
 33
0.0
  0
SOLID
  5
F2E
330
A
100
AcDbEntity
  8
SOLDERMASK_PADS_BTM
100
AcDbTrace
 10
-3710.034
 20
-5299.904000000001
 30
0.0
 11
-3210.034
 21
-5299.904000000001
 31
0.0
 12
-3710.034
 22
-4923.904
 32
0.0
 13
-3210.034
 23
-4923.904
 33
0.0
  0
SOLID
  5
F2F
330
A
100
AcDbEntity
  8
SOLDERMASK_PADS_BTM
100
AcDbTrace
 10
-3710.034
 20
-4473.904
 30
0.0
 11
-3210.034
 21
-4473.904
 31
0.0
 12
-3710.034
 22
-4097.904
 32
0.0
 13
-3210.034
 23
-4097.904
 33
0.0
  0
SOLID
  5
F30
330
A
100
AcDbEntity
  8
SOLDERMASK_PADS_BTM
100
AcDbTrace
 10
2415.715
 20
-1784.566
 30
0.0
 11
2791.715
 21
-1784.566
 31
0.0
 12
2415.715
 22
-1284.566
 32
0.0
 13
2791.715
 23
-1284.566
 33
0.0
  0
SOLID
  5
F31
330
A
100
AcDbEntity
  8
SOLDERMASK_PADS_BTM
100
AcDbTrace
 10
3241.715
 20
-1784.566
 30
0.0
 11
3617.715
 21
-1784.566
 31
0.0
 12
3241.715
 22
-1284.566
 32
0.0
 13
3617.715
 23
-1284.566
 33
0.0
  0
SOLID
  5
F32
330
A
100
AcDbEntity
  8
SOLDERMASK_PADS_BTM
100
AcDbTrace
 10
7584.316999999998
 20
2524.896
 30
0.0
 11
7784.316999999998
 21
2524.896
 31
0.0
 12
7584.316999999998
 22
3524.896
 32
0.0
 13
7784.316999999998
 23
3524.896
 33
0.0
  0
SOLID
  5
F33
330
A
100
AcDbEntity
  8
SOLDERMASK_PADS_BTM
100
AcDbTrace
 10
7184.316999999999
 20
2524.896
 30
0.0
 11
7384.316999999999
 21
2524.896
 31
0.0
 12
7184.316999999999
 22
3524.896
 32
0.0
 13
7384.316999999999
 23
3524.896
 33
0.0
  0
SOLID
  5
F34
330
A
100
AcDbEntity
  8
SOLDERMASK_PADS_BTM
100
AcDbTrace
 10
-3711.831
 20
-348.229
 30
0.0
 11
-3211.831
 21
-348.229
 31
0.0
 12
-3711.831
 22
27.771
 32
0.0
 13
-3211.831
 23
27.771
 33
0.0
  0
SOLID
  5
F35
330
A
100
AcDbEntity
  8
SOLDERMASK_PADS_BTM
100
AcDbTrace
 10
-3711.831
 20
477.7709999999999
 30
0.0
 11
-3211.831
 21
477.7709999999999
 31
0.0
 12
-3711.831
 22
853.771
 32
0.0
 13
-3211.831
 23
853.771
 33
0.0
  0
SOLID
  5
F36
330
A
100
AcDbEntity
  8
SOLDERMASK_PADS_BTM
100
AcDbTrace
 10
11600.943
 20
-4913.077000000001
 30
0.0
 11
12600.943
 21
-4913.077000000001
 31
0.0
 12
11600.943
 22
-4713.077000000001
 32
0.0
 13
12600.943
 23
-4713.077000000001
 33
0.0
  0
SOLID
  5
F37
330
A
100
AcDbEntity
  8
SOLDERMASK_PADS_BTM
100
AcDbTrace
 10
11600.943
 20
-5313.076999999999
 30
0.0
 11
12600.943
 21
-5313.076999999999
 31
0.0
 12
11600.943
 22
-5113.077
 32
0.0
 13
12600.943
 23
-5113.077
 33
0.0
  0
SOLID
  5
F38
330
A
100
AcDbEntity
  8
SOLDERMASK_PADS_BTM
100
AcDbTrace
 10
-3710.034
 20
-3096.904000000001
 30
0.0
 11
-3210.034
 21
-3096.904000000001
 31
0.0
 12
-3710.034
 22
-2720.904000000001
 32
0.0
 13
-3210.034
 23
-2720.904000000001
 33
0.0
  0
SOLID
  5
F39
330
A
100
AcDbEntity
  8
SOLDERMASK_PADS_BTM
100
AcDbTrace
 10
-3710.034
 20
-3922.904000000001
 30
0.0
 11
-3210.034
 21
-3922.904000000001
 31
0.0
 12
-3710.034
 22
-3546.904000000001
 32
0.0
 13
-3210.034
 23
-3546.904000000001
 33
0.0
  0
SOLID
  5
F3A
330
A
100
AcDbEntity
  8
SOLDERMASK_PADS_BTM
100
AcDbTrace
 10
11600.943
 20
-4538.077
 30
0.0
 11
12600.943
 21
-4538.077
 31
0.0
 12
11600.943
 22
-4338.077000000001
 32
0.0
 13
12600.943
 23
-4338.077000000001
 33
0.0
  0
SOLID
  5
F3B
330
A
100
AcDbEntity
  8
SOLDERMASK_PADS_BTM
100
AcDbTrace
 10
11600.943
 20
-4138.077
 30
0.0
 11
12600.943
 21
-4138.077
 31
0.0
 12
11600.943
 22
-3938.077000000001
 32
0.0
 13
12600.943
 23
-3938.077000000001
 33
0.0
  0
SOLID
  5
F3C
330
A
100
AcDbEntity
  8
SOLDERMASK_PADS_BTM
100
AcDbTrace
 10
2415.715
 20
-2459.566000000001
 30
0.0
 11
2791.715
 21
-2459.566000000001
 31
0.0
 12
2415.715
 22
-1959.566
 32
0.0
 13
2791.715
 23
-1959.566
 33
0.0
  0
SOLID
  5
F3D
330
A
100
AcDbEntity
  8
SOLDERMASK_PADS_BTM
100
AcDbTrace
 10
3241.715
 20
-2459.566000000001
 30
0.0
 11
3617.715
 21
-2459.566000000001
 31
0.0
 12
3241.715
 22
-1959.566
 32
0.0
 13
3617.715
 23
-1959.566
 33
0.0
  0
SOLID
  5
F3E
330
A
100
AcDbEntity
  8
SOLDERMASK_PADS_BTM
100
AcDbTrace
 10
11600.943
 20
-3271.597000000001
 30
0.0
 11
12600.943
 21
-3271.597000000001
 31
0.0
 12
11600.943
 22
-3071.597000000001
 32
0.0
 13
12600.943
 23
-3071.597000000001
 33
0.0
  0
SOLID
  5
F3F
330
A
100
AcDbEntity
  8
SOLDERMASK_PADS_BTM
100
AcDbTrace
 10
11600.943
 20
-3671.597000000001
 30
0.0
 11
12600.943
 21
-3671.597000000001
 31
0.0
 12
11600.943
 22
-3471.597000000001
 32
0.0
 13
12600.943
 23
-3471.597000000001
 33
0.0
  0
SOLID
  5
F40
330
A
100
AcDbEntity
  8
SOLDERMASK_PADS_BTM
100
AcDbTrace
 10
7584.316999999998
 20
1321.68
 30
0.0
 11
7784.316999999998
 21
1321.68
 31
0.0
 12
7584.316999999998
 22
2321.68
 32
0.0
 13
7784.316999999998
 23
2321.68
 33
0.0
  0
SOLID
  5
F41
330
A
100
AcDbEntity
  8
SOLDERMASK_PADS_BTM
100
AcDbTrace
 10
7184.316999999999
 20
1321.68
 30
0.0
 11
7384.316999999999
 21
1321.68
 31
0.0
 12
7184.316999999999
 22
2321.68
 32
0.0
 13
7384.316999999999
 23
2321.68
 33
0.0
  0
SOLID
  5
F42
330
A
100
AcDbEntity
  8
SOLDERMASK_PADS_BTM
100
AcDbTrace
 10
12775.943
 20
-5313.076999999999
 30
0.0
 11
13775.943
 21
-5313.076999999999
 31
0.0
 12
12775.943
 22
-5113.077
 32
0.0
 13
13775.943
 23
-5113.077
 33
0.0
  0
SOLID
  5
F43
330
A
100
AcDbEntity
  8
SOLDERMASK_PADS_BTM
100
AcDbTrace
 10
12775.943
 20
-4913.077000000001
 30
0.0
 11
13775.943
 21
-4913.077000000001
 31
0.0
 12
12775.943
 22
-4713.077000000001
 32
0.0
 13
13775.943
 23
-4713.077000000001
 33
0.0
  0
SOLID
  5
F44
330
A
100
AcDbEntity
  8
SOLDERMASK_PADS_BTM
100
AcDbTrace
 10
-3371.831
 20
2405.771
 30
0.0
 11
-3221.831
 21
2405.771
 31
0.0
 12
-3371.831
 22
2605.771000000001
 32
0.0
 13
-3221.831
 23
2605.771000000001
 33
0.0
  0
SOLID
  5
F45
330
A
100
AcDbEntity
  8
SOLDERMASK_PADS_BTM
100
AcDbTrace
 10
-3701.831
 20
2405.771
 30
0.0
 11
-3551.831
 21
2405.771
 31
0.0
 12
-3701.831
 22
2605.771000000001
 32
0.0
 13
-3551.831
 23
2605.771000000001
 33
0.0
  0
SOLID
  5
F46
330
A
100
AcDbEntity
  8
SOLDERMASK_PADS_BTM
100
AcDbTrace
 10
-367.0580000000001
 20
1980.771
 30
0.0
 11
-167.058
 21
1980.771
 31
0.0
 12
-367.0580000000001
 22
2980.771
 32
0.0
 13
-167.058
 23
2980.771
 33
0.0
  0
SOLID
  5
F47
330
A
100
AcDbEntity
  8
SOLDERMASK_PADS_BTM
100
AcDbTrace
 10
-767.058
 20
1980.771
 30
0.0
 11
-567.058
 21
1980.771
 31
0.0
 12
-767.058
 22
2980.771
 32
0.0
 13
-567.058
 23
2980.771
 33
0.0
  0
SOLID
  5
F48
330
A
100
AcDbEntity
  8
SOLDERMASK_PADS_BTM
100
AcDbTrace
 10
12775.943
 20
-4538.077
 30
0.0
 11
13775.943
 21
-4538.077
 31
0.0
 12
12775.943
 22
-4338.077000000001
 32
0.0
 13
13775.943
 23
-4338.077000000001
 33
0.0
  0
SOLID
  5
F49
330
A
100
AcDbEntity
  8
SOLDERMASK_PADS_BTM
100
AcDbTrace
 10
12775.943
 20
-4138.077
 30
0.0
 11
13775.943
 21
-4138.077
 31
0.0
 12
12775.943
 22
-3938.077000000001
 32
0.0
 13
13775.943
 23
-3938.077000000001
 33
0.0
  0
SOLID
  5
F4A
330
A
100
AcDbEntity
  8
SOLDERMASK_PADS_BTM
100
AcDbTrace
 10
-3700.034
 20
-5674.904000000001
 30
0.0
 11
-3550.034
 21
-5674.904000000001
 31
0.0
 12
-3700.034
 22
-5474.904000000001
 32
0.0
 13
-3550.034
 23
-5474.904000000001
 33
0.0
  0
SOLID
  5
F4B
330
A
100
AcDbEntity
  8
SOLDERMASK_PADS_BTM
100
AcDbTrace
 10
-3370.034
 20
-5674.904000000001
 30
0.0
 11
-3220.034
 21
-5674.904000000001
 31
0.0
 12
-3370.034
 22
-5474.904000000001
 32
0.0
 13
-3220.034
 23
-5474.904000000001
 33
0.0
  0
SOLID
  5
F4C
330
A
100
AcDbEntity
  8
SOLDERMASK_PADS_BTM
100
AcDbTrace
 10
-365.261
 20
-6049.904000000001
 30
0.0
 11
-165.261
 21
-6049.904000000001
 31
0.0
 12
-365.261
 22
-5049.904000000001
 32
0.0
 13
-165.261
 23
-5049.904000000001
 33
0.0
  0
SOLID
  5
F4D
330
A
100
AcDbEntity
  8
SOLDERMASK_PADS_BTM
100
AcDbTrace
 10
-765.2610000000001
 20
-6049.904000000001
 30
0.0
 11
-565.261
 21
-6049.904000000001
 31
0.0
 12
-765.2610000000001
 22
-5049.904000000001
 32
0.0
 13
-565.261
 23
-5049.904000000001
 33
0.0
  0
SOLID
  5
F4E
330
A
100
AcDbEntity
  8
SOLDERMASK_PADS_BTM
100
AcDbTrace
 10
12775.943
 20
-3271.597000000001
 30
0.0
 11
13775.943
 21
-3271.597000000001
 31
0.0
 12
12775.943
 22
-3071.597000000001
 32
0.0
 13
13775.943
 23
-3071.597000000001
 33
0.0
  0
SOLID
  5
F4F
330
A
100
AcDbEntity
  8
SOLDERMASK_PADS_BTM
100
AcDbTrace
 10
12775.943
 20
-3671.597000000001
 30
0.0
 11
13775.943
 21
-3671.597000000001
 31
0.0
 12
12775.943
 22
-3471.597000000001
 32
0.0
 13
13775.943
 23
-3471.597000000001
 33
0.0
  0
SOLID
  5
F50
330
A
100
AcDbEntity
  8
SOLDERMASK_PADS_BTM
100
AcDbTrace
 10
7584.316999999998
 20
118.464
 30
0.0
 11
7784.316999999998
 21
118.464
 31
0.0
 12
7584.316999999998
 22
1118.464
 32
0.0
 13
7784.316999999998
 23
1118.464
 33
0.0
  0
SOLID
  5
F51
330
A
100
AcDbEntity
  8
SOLDERMASK_PADS_BTM
100
AcDbTrace
 10
7184.316999999999
 20
118.464
 30
0.0
 11
7384.316999999999
 21
118.464
 31
0.0
 12
7184.316999999999
 22
1118.464
 32
0.0
 13
7384.316999999999
 23
1118.464
 33
0.0
  0
SOLID
  5
F52
330
A
100
AcDbEntity
  8
SOLDERMASK_PADS_BTM
100
AcDbTrace
 10
7584.316999999998
 20
-2362.915
 30
0.0
 11
7784.316999999998
 21
-2362.915
 31
0.0
 12
7584.316999999998
 22
-1362.915
 32
0.0
 13
7784.316999999998
 23
-1362.915
 33
0.0
  0
SOLID
  5
F53
330
A
100
AcDbEntity
  8
SOLDERMASK_PADS_BTM
100
AcDbTrace
 10
7184.316999999999
 20
-2362.915
 30
0.0
 11
7384.316999999999
 21
-2362.915
 31
0.0
 12
7184.316999999999
 22
-1362.915
 32
0.0
 13
7384.316999999999
 23
-1362.915
 33
0.0
  0
SOLID
  5
F54
330
A
100
AcDbEntity
  8
SOLDERMASK_PADS_BTM
100
AcDbTrace
 10
-3371.831
 20
2780.771
 30
0.0
 11
-3221.831
 21
2780.771
 31
0.0
 12
-3371.831
 22
2980.771
 32
0.0
 13
-3221.831
 23
2980.771
 33
0.0
  0
SOLID
  5
F55
330
A
100
AcDbEntity
  8
SOLDERMASK_PADS_BTM
100
AcDbTrace
 10
-3701.831
 20
2780.771
 30
0.0
 11
-3551.831
 21
2780.771
 31
0.0
 12
-3701.831
 22
2980.771
 32
0.0
 13
-3551.831
 23
2980.771
 33
0.0
  0
SOLID
  5
F56
330
A
100
AcDbEntity
  8
SOLDERMASK_PADS_BTM
100
AcDbTrace
 10
-367.0580000000001
 20
778.587
 30
0.0
 11
-167.058
 21
778.587
 31
0.0
 12
-367.0580000000001
 22
1778.587
 32
0.0
 13
-167.058
 23
1778.587
 33
0.0
  0
SOLID
  5
F57
330
A
100
AcDbEntity
  8
SOLDERMASK_PADS_BTM
100
AcDbTrace
 10
-767.058
 20
778.587
 30
0.0
 11
-567.058
 21
778.587
 31
0.0
 12
-767.058
 22
1778.587
 32
0.0
 13
-567.058
 23
1778.587
 33
0.0
  0
SOLID
  5
F58
330
A
100
AcDbEntity
  8
SOLDERMASK_PADS_BTM
100
AcDbTrace
 10
-3700.034
 20
-6049.904000000001
 30
0.0
 11
-3550.034
 21
-6049.904000000001
 31
0.0
 12
-3700.034
 22
-5849.904000000001
 32
0.0
 13
-3550.034
 23
-5849.904000000001
 33
0.0
  0
SOLID
  5
F59
330
A
100
AcDbEntity
  8
SOLDERMASK_PADS_BTM
100
AcDbTrace
 10
-3370.034
 20
-6049.904000000001
 30
0.0
 11
-3220.034
 21
-6049.904000000001
 31
0.0
 12
-3370.034
 22
-5849.904000000001
 32
0.0
 13
-3220.034
 23
-5849.904000000001
 33
0.0
  0
SOLID
  5
F5A
330
A
100
AcDbEntity
  8
SOLDERMASK_PADS_BTM
100
AcDbTrace
 10
-365.261
 20
-4847.72
 30
0.0
 11
-165.261
 21
-4847.72
 31
0.0
 12
-365.261
 22
-3847.72
 32
0.0
 13
-165.261
 23
-3847.72
 33
0.0
  0
SOLID
  5
F5B
330
A
100
AcDbEntity
  8
SOLDERMASK_PADS_BTM
100
AcDbTrace
 10
-765.2610000000001
 20
-4847.72
 30
0.0
 11
-565.261
 21
-4847.72
 31
0.0
 12
-765.2610000000001
 22
-3847.72
 32
0.0
 13
-565.261
 23
-3847.72
 33
0.0
  0
SOLID
  5
F5C
330
A
100
AcDbEntity
  8
SOLDERMASK_PADS_BTM
100
AcDbTrace
 10
7584.316999999998
 20
-1084.752
 30
0.0
 11
7784.316999999998
 21
-1084.752
 31
0.0
 12
7584.316999999998
 22
-84.752
 32
0.0
 13
7784.316999999998
 23
-84.752
 33
0.0
  0
SOLID
  5
F5D
330
A
100
AcDbEntity
  8
SOLDERMASK_PADS_BTM
100
AcDbTrace
 10
7184.316999999999
 20
-1084.752
 30
0.0
 11
7384.316999999999
 21
-1084.752
 31
0.0
 12
7184.316999999999
 22
-84.752
 32
0.0
 13
7384.316999999999
 23
-84.752
 33
0.0
  0
SOLID
  5
F5E
330
A
100
AcDbEntity
  8
SOLDERMASK_PADS_BTM
100
AcDbTrace
 10
7584.316999999998
 20
-3566.131
 30
0.0
 11
7784.316999999998
 21
-3566.131
 31
0.0
 12
7584.316999999998
 22
-2566.131
 32
0.0
 13
7784.316999999998
 23
-2566.131
 33
0.0
  0
SOLID
  5
F5F
330
A
100
AcDbEntity
  8
SOLDERMASK_PADS_BTM
100
AcDbTrace
 10
7184.316999999999
 20
-3566.131
 30
0.0
 11
7384.316999999999
 21
-3566.131
 31
0.0
 12
7184.316999999999
 22
-2566.131
 32
0.0
 13
7384.316999999999
 23
-2566.131
 33
0.0
  0
SOLID
  5
F60
330
A
100
AcDbEntity
  8
SOLDERMASK_PADS_BTM
100
AcDbTrace
 10
-367.0580000000001
 20
-423.597
 30
0.0
 11
-167.058
 21
-423.597
 31
0.0
 12
-367.0580000000001
 22
576.4029999999999
 32
0.0
 13
-167.058
 23
576.4029999999999
 33
0.0
  0
SOLID
  5
F61
330
A
100
AcDbEntity
  8
SOLDERMASK_PADS_BTM
100
AcDbTrace
 10
-767.058
 20
-423.597
 30
0.0
 11
-567.058
 21
-423.597
 31
0.0
 12
-767.058
 22
576.4029999999999
 32
0.0
 13
-567.058
 23
576.4029999999999
 33
0.0
  0
SOLID
  5
F62
330
A
100
AcDbEntity
  8
SOLDERMASK_PADS_BTM
100
AcDbTrace
 10
-365.261
 20
-3645.536
 30
0.0
 11
-165.261
 21
-3645.536
 31
0.0
 12
-365.261
 22
-2645.536
 32
0.0
 13
-165.261
 23
-2645.536
 33
0.0
  0
SOLID
  5
F63
330
A
100
AcDbEntity
  8
SOLDERMASK_PADS_BTM
100
AcDbTrace
 10
-765.2610000000001
 20
-3645.536
 30
0.0
 11
-565.261
 21
-3645.536
 31
0.0
 12
-765.2610000000001
 22
-2645.536
 32
0.0
 13
-565.261
 23
-2645.536
 33
0.0
  0
SOLID
  5
F64
330
A
100
AcDbEntity
  8
SOLDERMASK_PADS_BTM
100
AcDbTrace
 10
7584.316999999998
 20
-4769.346999999999
 30
0.0
 11
7784.316999999998
 21
-4769.346999999999
 31
0.0
 12
7584.316999999998
 22
-3769.347000000001
 32
0.0
 13
7784.316999999998
 23
-3769.347000000001
 33
0.0
  0
SOLID
  5
F65
330
A
100
AcDbEntity
  8
SOLDERMASK_PADS_BTM
100
AcDbTrace
 10
7184.316999999999
 20
-4769.346999999999
 30
0.0
 11
7384.316999999999
 21
-4769.346999999999
 31
0.0
 12
7184.316999999999
 22
-3769.347000000001
 32
0.0
 13
7384.316999999999
 23
-3769.347000000001
 33
0.0
  0
SOLID
  5
F66
330
A
100
AcDbEntity
  8
SOLDERMASK_PADS_BTM
100
AcDbTrace
 10
-2240.39
 20
1980.771
 30
0.0
 11
-2040.39
 21
1980.771
 31
0.0
 12
-2240.39
 22
2980.771
 32
0.0
 13
-2040.39
 23
2980.771
 33
0.0
  0
SOLID
  5
F67
330
A
100
AcDbEntity
  8
SOLDERMASK_PADS_BTM
100
AcDbTrace
 10
-1840.39
 20
1980.771
 30
0.0
 11
-1640.39
 21
1980.771
 31
0.0
 12
-1840.39
 22
2980.771
 32
0.0
 13
-1640.39
 23
2980.771
 33
0.0
  0
SOLID
  5
F68
330
A
100
AcDbEntity
  8
SOLDERMASK_PADS_BTM
100
AcDbTrace
 10
-2238.593
 20
-6049.904000000001
 30
0.0
 11
-2038.593
 21
-6049.904000000001
 31
0.0
 12
-2238.593
 22
-5049.904000000001
 32
0.0
 13
-2038.593
 23
-5049.904000000001
 33
0.0
  0
SOLID
  5
F69
330
A
100
AcDbEntity
  8
SOLDERMASK_PADS_BTM
100
AcDbTrace
 10
-1838.593
 20
-6049.904000000001
 30
0.0
 11
-1638.593
 21
-6049.904000000001
 31
0.0
 12
-1838.593
 22
-5049.904000000001
 32
0.0
 13
-1638.593
 23
-5049.904000000001
 33
0.0
  0
SOLID
  5
F6A
330
A
100
AcDbEntity
  8
SOLDERMASK_PADS_BTM
100
AcDbTrace
 10
-9219.924999999999
 20
-2080.442
 30
0.0
 11
-9019.924999999998
 21
-2080.442
 31
0.0
 12
-9219.924999999999
 22
-1080.442
 32
0.0
 13
-9019.924999999998
 23
-1080.442
 33
0.0
  0
SOLID
  5
F6B
330
A
100
AcDbEntity
  8
SOLDERMASK_PADS_BTM
100
AcDbTrace
 10
-9619.925
 20
-2080.442
 30
0.0
 11
-9419.924999999999
 21
-2080.442
 31
0.0
 12
-9619.925
 22
-1080.442
 32
0.0
 13
-9419.924999999999
 23
-1080.442
 33
0.0
  0
SOLID
  5
F6C
330
A
100
AcDbEntity
  8
SOLDERMASK_PADS_BTM
100
AcDbTrace
 10
-8844.924999999999
 20
-2200.71
 30
0.0
 11
-7844.925
 21
-2200.71
 31
0.0
 12
-8844.924999999999
 22
-2000.71
 32
0.0
 13
-7844.925
 23
-2000.71
 33
0.0
  0
SOLID
  5
F6D
330
A
100
AcDbEntity
  8
SOLDERMASK_PADS_BTM
100
AcDbTrace
 10
-8844.924999999999
 20
-1800.71
 30
0.0
 11
-7844.925
 21
-1800.71
 31
0.0
 12
-8844.924999999999
 22
-1600.71
 32
0.0
 13
-7844.925
 23
-1600.71
 33
0.0
  0
SOLID
  5
F6E
330
A
100
AcDbEntity
  8
SOLDERMASK_PADS_BTM
100
AcDbTrace
 10
7584.316999999998
 20
-5972.563
 30
0.0
 11
7784.316999999998
 21
-5972.563
 31
0.0
 12
7584.316999999998
 22
-4972.563
 32
0.0
 13
7784.316999999998
 23
-4972.563
 33
0.0
  0
SOLID
  5
F6F
330
A
100
AcDbEntity
  8
SOLDERMASK_PADS_BTM
100
AcDbTrace
 10
7184.316999999999
 20
-5972.563
 30
0.0
 11
7384.316999999999
 21
-5972.563
 31
0.0
 12
7184.316999999999
 22
-4972.563
 32
0.0
 13
7384.316999999999
 23
-4972.563
 33
0.0
  0
SOLID
  5
F70
330
A
100
AcDbEntity
  8
SOLDERMASK_PADS_BTM
100
AcDbTrace
 10
-6699.278000000001
 20
-1325.442
 30
0.0
 11
-6499.278000000001
 21
-1325.442
 31
0.0
 12
-6699.278000000001
 22
-325.442
 32
0.0
 13
-6499.278000000001
 23
-325.442
 33
0.0
  0
SOLID
  5
F71
330
A
100
AcDbEntity
  8
SOLDERMASK_PADS_BTM
100
AcDbTrace
 10
-6299.278000000001
 20
-1325.442
 30
0.0
 11
-6099.278
 21
-1325.442
 31
0.0
 12
-6299.278000000001
 22
-325.442
 32
0.0
 13
-6099.278
 23
-325.442
 33
0.0
  0
SOLID
  5
F72
330
A
100
AcDbEntity
  8
SOLDERMASK_PADS_BTM
100
AcDbTrace
 10
-2240.39
 20
778.587
 30
0.0
 11
-2040.39
 21
778.587
 31
0.0
 12
-2240.39
 22
1778.587
 32
0.0
 13
-2040.39
 23
1778.587
 33
0.0
  0
SOLID
  5
F73
330
A
100
AcDbEntity
  8
SOLDERMASK_PADS_BTM
100
AcDbTrace
 10
-1840.39
 20
778.587
 30
0.0
 11
-1640.39
 21
778.587
 31
0.0
 12
-1840.39
 22
1778.587
 32
0.0
 13
-1640.39
 23
1778.587
 33
0.0
  0
SOLID
  5
F74
330
A
100
AcDbEntity
  8
SOLDERMASK_PADS_BTM
100
AcDbTrace
 10
-2238.593
 20
-4847.72
 30
0.0
 11
-2038.593
 21
-4847.72
 31
0.0
 12
-2238.593
 22
-3847.72
 32
0.0
 13
-2038.593
 23
-3847.72
 33
0.0
  0
SOLID
  5
F75
330
A
100
AcDbEntity
  8
SOLDERMASK_PADS_BTM
100
AcDbTrace
 10
-1838.593
 20
-4847.72
 30
0.0
 11
-1638.593
 21
-4847.72
 31
0.0
 12
-1838.593
 22
-3847.72
 32
0.0
 13
-1638.593
 23
-3847.72
 33
0.0
  0
SOLID
  5
F76
330
A
100
AcDbEntity
  8
SOLDERMASK_PADS_BTM
100
AcDbTrace
 10
-10394.925
 20
1832.51
 30
0.0
 11
-10194.925
 21
1832.51
 31
0.0
 12
-10394.925
 22
2832.51
 32
0.0
 13
-10194.925
 23
2832.51
 33
0.0
  0
SOLID
  5
F77
330
A
100
AcDbEntity
  8
SOLDERMASK_PADS_BTM
100
AcDbTrace
 10
-9994.925
 20
1832.51
 30
0.0
 11
-9794.924999999999
 21
1832.51
 31
0.0
 12
-9994.925
 22
2832.51
 32
0.0
 13
-9794.924999999999
 23
2832.51
 33
0.0
  0
SOLID
  5
F78
330
A
100
AcDbEntity
  8
SOLDERMASK_PADS_BTM
100
AcDbTrace
 10
-9762.496999999999
 20
-5457.89
 30
0.0
 11
-9562.496999999998
 21
-5457.89
 31
0.0
 12
-9762.496999999999
 22
-4457.89
 32
0.0
 13
-9562.496999999998
 23
-4457.89
 33
0.0
  0
SOLID
  5
F79
330
A
100
AcDbEntity
  8
SOLDERMASK_PADS_BTM
100
AcDbTrace
 10
-10162.497
 20
-5457.89
 30
0.0
 11
-9962.496999999999
 21
-5457.89
 31
0.0
 12
-10162.497
 22
-4457.89
 32
0.0
 13
-9962.496999999999
 23
-4457.89
 33
0.0
  0
SOLID
  5
F7A
330
A
100
AcDbEntity
  8
SOLDERMASK_PADS_BTM
100
AcDbTrace
 10
8359.316999999998
 20
2524.896
 30
0.0
 11
8559.316999999998
 21
2524.896
 31
0.0
 12
8359.316999999998
 22
3524.896
 32
0.0
 13
8559.316999999998
 23
3524.896
 33
0.0
  0
SOLID
  5
F7B
330
A
100
AcDbEntity
  8
SOLDERMASK_PADS_BTM
100
AcDbTrace
 10
7959.316999999998
 20
2524.896
 30
0.0
 11
8159.316999999999
 21
2524.896
 31
0.0
 12
7959.316999999998
 22
3524.896
 32
0.0
 13
8159.316999999999
 23
3524.896
 33
0.0
  0
SOLID
  5
F7C
330
A
100
AcDbEntity
  8
SOLDERMASK_PADS_BTM
100
AcDbTrace
 10
-9971.700000000002
 20
-5832.89
 30
0.0
 11
-8971.700000000002
 21
-5832.89
 31
0.0
 12
-9971.700000000002
 22
-5632.89
 32
0.0
 13
-8971.700000000002
 23
-5632.89
 33
0.0
  0
SOLID
  5
F7D
330
A
100
AcDbEntity
  8
SOLDERMASK_PADS_BTM
100
AcDbTrace
 10
-9971.700000000002
 20
-6232.890000000001
 30
0.0
 11
-8971.700000000002
 21
-6232.890000000001
 31
0.0
 12
-9971.700000000002
 22
-6032.89
 32
0.0
 13
-8971.700000000002
 23
-6032.89
 33
0.0
  0
SOLID
  5
F7E
330
A
100
AcDbEntity
  8
SOLDERMASK_PADS_BTM
100
AcDbTrace
 10
-2240.39
 20
-423.597
 30
0.0
 11
-2040.39
 21
-423.597
 31
0.0
 12
-2240.39
 22
576.4029999999999
 32
0.0
 13
-2040.39
 23
576.4029999999999
 33
0.0
  0
SOLID
  5
F7F
330
A
100
AcDbEntity
  8
SOLDERMASK_PADS_BTM
100
AcDbTrace
 10
-1840.39
 20
-423.597
 30
0.0
 11
-1640.39
 21
-423.597
 31
0.0
 12
-1840.39
 22
576.4029999999999
 32
0.0
 13
-1640.39
 23
576.4029999999999
 33
0.0
  0
SOLID
  5
F80
330
A
100
AcDbEntity
  8
SOLDERMASK_PADS_BTM
100
AcDbTrace
 10
-7621.7
 20
-5057.89
 30
0.0
 11
-6621.7
 21
-5057.89
 31
0.0
 12
-7621.7
 22
-4857.890000000001
 32
0.0
 13
-6621.7
 23
-4857.890000000001
 33
0.0
  0
SOLID
  5
F81
330
A
100
AcDbEntity
  8
SOLDERMASK_PADS_BTM
100
AcDbTrace
 10
-7621.7
 20
-5457.89
 30
0.0
 11
-6621.7
 21
-5457.89
 31
0.0
 12
-7621.7
 22
-5257.89
 32
0.0
 13
-6621.7
 23
-5257.89
 33
0.0
  0
SOLID
  5
F82
330
A
100
AcDbEntity
  8
SOLDERMASK_PADS_BTM
100
AcDbTrace
 10
-2238.593
 20
-3645.536
 30
0.0
 11
-2038.593
 21
-3645.536
 31
0.0
 12
-2238.593
 22
-2645.536
 32
0.0
 13
-2038.593
 23
-2645.536
 33
0.0
  0
SOLID
  5
F83
330
A
100
AcDbEntity
  8
SOLDERMASK_PADS_BTM
100
AcDbTrace
 10
-1838.593
 20
-3645.536
 30
0.0
 11
-1638.593
 21
-3645.536
 31
0.0
 12
-1838.593
 22
-2645.536
 32
0.0
 13
-1638.593
 23
-2645.536
 33
0.0
  0
SOLID
  5
F84
330
A
100
AcDbEntity
  8
SOLDERMASK_PADS_BTM
100
AcDbTrace
 10
-10006.733
 20
3591.989
 30
0.0
 11
-9006.733
 21
3591.989
 31
0.0
 12
-10006.733
 22
3791.989
 32
0.0
 13
-9006.733
 23
3791.989
 33
0.0
  0
SOLID
  5
F85
330
A
100
AcDbEntity
  8
SOLDERMASK_PADS_BTM
100
AcDbTrace
 10
-10006.733
 20
3191.989
 30
0.0
 11
-9006.733
 21
3191.989
 31
0.0
 12
-10006.733
 22
3391.989000000001
 32
0.0
 13
-9006.733
 23
3391.989000000001
 33
0.0
  0
SOLID
  5
F86
330
A
100
AcDbEntity
  8
SOLDERMASK_PADS_BTM
100
AcDbTrace
 10
-5408.506
 20
3591.989
 30
0.0
 11
-4408.505999999999
 21
3591.989
 31
0.0
 12
-5408.506
 22
3791.989
 32
0.0
 13
-4408.505999999999
 23
3791.989
 33
0.0
  0
SOLID
  5
F87
330
A
100
AcDbEntity
  8
SOLDERMASK_PADS_BTM
100
AcDbTrace
 10
-5408.506
 20
3191.989
 30
0.0
 11
-4408.505999999999
 21
3191.989
 31
0.0
 12
-5408.506
 22
3391.989000000001
 32
0.0
 13
-4408.505999999999
 23
3391.989000000001
 33
0.0
  0
ENDSEC
  0
SECTION
  2
OBJECTS
  0
DICTIONARY
  5
16
330
0
100
AcDbDictionary
281
     1
  3
ACAD_CIP_PREVIOUS_PRODUCT_INFO
350
37A6
  3
ACAD_COLOR
350
3785
  3
ACAD_DETAILVIEWSTYLE
350
379F
  3
ACAD_GROUP
350
17
  3
ACAD_LAYOUT
350
3786
  3
ACAD_MATERIAL
350
3753
  3
ACAD_MLEADERSTYLE
350
379B
  3
ACAD_MLINESTYLE
350
18
  3
ACAD_PLOTSETTINGS
350
37A1
  3
ACAD_PLOTSTYLENAME
350
3751
  3
ACAD_SCALELIST
350
3789
  3
ACAD_SECTIONVIEWSTYLE
350
379D
  3
ACAD_TABLESTYLE
350
3787
  3
ACAD_VISUALSTYLE
350
376C
  3
ACDB_RECOMPOSE_DATA
350
37BE
  3
AcDbVariableDictionary
350
37B1
  3
ASE_INDEX_DICTIONARY
350
37AE
  0
DICTIONARY
  5
37A7
330
F88
100
AcDbDictionary
280
     1
281
     1
  3
ADSK_XREC_LAYER_RECONCILED
360
37A8
  0
DICTIONARY
  5
37A9
330
F89
100
AcDbDictionary
280
     1
281
     1
  3
ADSK_XREC_LAYER_RECONCILED
360
37AA
  0
DICTIONARY
  5
37AB
330
F8A
100
AcDbDictionary
280
     1
281
     1
  3
ADSK_XREC_LAYER_RECONCILED
360
37AC
  0
XRECORD
  5
37A6
102
{ACAD_REACTORS
330
16
102
}
330
16
100
AcDbXrecord
280
     1
300
ACD
300
2021
300
87393ACD_2021_0F
  0
DICTIONARY
  5
3785
102
{ACAD_REACTORS
330
16
102
}
330
16
100
AcDbDictionary
281
     1
  0
DICTIONARY
  5
379F
102
{ACAD_REACTORS
330
16
102
}
330
16
100
AcDbDictionary
281
     1
  3
Imperial24
350
37A0
  0
DICTIONARY
  5
17
102
{ACAD_REACTORS
330
16
102
}
330
16
100
AcDbDictionary
281
     1
  0
DICTIONARY
  5
3786
102
{ACAD_REACTORS
330
16
102
}
330
16
100
AcDbDictionary
281
     1
  3
Layout1
350
37A3
  3
Model
350
37A2
  0
DICTIONARY
  5
3753
102
{ACAD_REACTORS
330
16
102
}
330
16
100
AcDbDictionary
281
     1
  3
ByBlock
350
375C
  3
ByLayer
350
3754
  3
Global
350
3764
  0
DICTIONARY
  5
379B
102
{ACAD_REACTORS
330
16
102
}
330
16
100
AcDbDictionary
281
     1
  3
Standard
350
379C
  0
DICTIONARY
  5
18
102
{ACAD_REACTORS
330
16
102
}
330
16
100
AcDbDictionary
281
     1
  3
STANDARD
350
19
  0
DICTIONARY
  5
37A1
102
{ACAD_REACTORS
330
16
102
}
330
16
100
AcDbDictionary
281
     1
  0
ACDBDICTIONARYWDFLT
  5
3751
102
{ACAD_REACTORS
330
16
102
}
330
16
100
AcDbDictionary
281
     1
  3
Normal
350
3752
100
AcDbDictionaryWithDefault
340
3752
  0
DICTIONARY
  5
3789
102
{ACAD_REACTORS
330
16
102
}
330
16
100
AcDbDictionary
281
     1
  3
A0
350
378A
  3
A1
350
378B
  3
A2
350
378C
  3
A3
350
378D
  3
A4
350
378E
  3
A5
350
378F
  3
A6
350
3790
  3
A7
350
3791
  3
A8
350
3792
  3
A9
350
3793
  3
B0
350
3794
  3
B1
350
3795
  3
B2
350
3796
  3
B3
350
3797
  3
B4
350
3798
  3
B5
350
3799
  3
B6
350
379A
  0
DICTIONARY
  5
379D
102
{ACAD_REACTORS
330
16
102
}
330
16
100
AcDbDictionary
281
     1
  3
Imperial24
350
379E
  0
DICTIONARY
  5
3787
102
{ACAD_REACTORS
330
16
102
}
330
16
100
AcDbDictionary
281
     1
  3
Standard
350
3788
  0
DICTIONARY
  5
376C
102
{ACAD_REACTORS
330
16
102
}
330
16
100
AcDbDictionary
281
     1
  3
2dWireframe
350
3772
  3
Basic
350
3771
  3
Brighten
350
3778
  3
ColorChange
350
377C
  3
Conceptual
350
3775
  3
Dim
350
3777
  3
EdgeColorOff
350
3784
  3
Facepattern
350
377B
  3
Flat
350
376D
  3
FlatWithEdges
350
376E
  3
Gouraud
350
376F
  3
GouraudWithEdges
350
3770
  3
Hidden
350
3774
  3
JitterOff
350
3782
  3
Linepattern
350
377A
  3
OverhangOff
350
3783
  3
Realistic
350
3776
  3
Shaded
350
3781
  3
Shaded with edges
350
3780
  3
Shades of Gray
350
377D
  3
Sketchy
350
377E
  3
Thicken
350
3779
  3
Wireframe
350
3773
  3
X-Ray
350
377F
  0
XRECORD
  5
37BE
102
{ACAD_REACTORS
330
16
102
}
330
16
100
AcDbXrecord
280
     1
 90
        1
330
3788
  0
DICTIONARY
  5
37B1
102
{ACAD_REACTORS
330
16
102
}
330
16
100
AcDbDictionary
281
     1
  3
CANNOSCALE
350
37B7
  3
CMLEADERSTYLE
350
37B3
  3
CTABLESTYLE
350
37B2
  3
CVIEWDETAILSTYLE
350
37B4
  3
CVIEWSECTIONSTYLE
350
37B5
  3
LAYEREVAL
350
37B9
  3
LAYERNOTIFY
350
37BA
  3
LIGHTINGUNITS
350
37B8
  3
MSLTSCALE
350
37B6
  0
DICTIONARY
  5
37AE
102
{ACAD_REACTORS
330
16
102
}
330
16
100
AcDbDictionary
281
     1
  3
ASEBlockHierarchyIndexRecord
350
37B0
1001
DCO15
1040
2101268712.0
  0
XRECORD
  5
37A8
102
{ACAD_REACTORS
330
37A7
102
}
330
37A7
100
AcDbXrecord
280
     1
290
     1
  0
XRECORD
  5
37AA
102
{ACAD_REACTORS
330
37A9
102
}
330
37A9
100
AcDbXrecord
280
     1
290
     1
  0
XRECORD
  5
37AC
102
{ACAD_REACTORS
330
37AB
102
}
330
37AB
100
AcDbXrecord
280
     1
290
     1
  0
ACDBDETAILVIEWSTYLE
  5
37A0
102
{ACAD_REACTORS
330
379F
102
}
330
379F
100
AcDbModelDocViewStyle
 70
     0
  3
Imperial24
290
     0
300
Imperial24
 90
        0
100
AcDbDetailViewStyle
 70
     0
 71
     0
 90
        3
 71
     1
340
F8B
 62
   256
 40
0.24
340
0
 62
   256
 40
0.24
300

 40
0.36
280
     3
 71
     2
340
12
 90
       25
 62
   256
 71
     3
340
F8B
 62
   256
 40
0.24
 90
        1
 40
0.75
 90
        1
300
%<\AcVar ViewType \f "%tc1">% %<\AcVar ViewDetailId>%\PSCALE %<\AcVar ViewScale \f "%sn">%
 71
     4
340
12
 90
       25
 62
   256
340
12
 90
       25
 62
   256
280
     0
  0
LAYOUT
  5
37A3
102
{ACAD_REACTORS
330
3786
102
}
330
3786
100
AcDbPlotSettings
  1

  2
Intel Cloud Print
  4

  6

 40
0.0
 41
0.0
 42
0.0
 43
0.0
 44
0.0
 45
0.0
 46
0.0
 47
0.0
 48
0.0
 49
0.0
140
0.0
141
0.0
142
1.0
143
1.0
 70
   688
 72
     0
 73
     0
 74
     5
  7

 75
    16
147
1.0
 76
     0
 77
     2
 78
   300
148
0.0
149
0.0
100
AcDbLayout
  1
Layout1
 70
     0
 71
     1
 10
0.0
 20
0.0
 11
12.0
 21
9.0
 12
0.0
 22
0.0
 32
0.0
 14
1.000000000000000E+20
 24
1.000000000000000E+20
 34
1.000000000000000E+20
 15
-1.000000000000000E+20
 25
-1.000000000000000E+20
 35
-1.000000000000000E+20
146
0.0
 13
0.0
 23
0.0
 33
0.0
 16
1.0
 26
0.0
 36
0.0
 17
0.0
 27
1.0
 37
0.0
 76
     0
330
B
  0
LAYOUT
  5
37A2
102
{ACAD_REACTORS
330
3786
102
}
330
3786
100
AcDbPlotSettings
  1

  2
Intel Cloud Print
  4

  6

 40
0.0
 41
0.0
 42
0.0
 43
0.0
 44
0.0
 45
0.0
 46
0.0
 47
0.0
 48
0.0
 49
0.0
140
0.0
141
0.0
142
1.0
143
1.0
 70
  1712
 72
     0
 73
     0
 74
     0
  7

 75
     0
147
1.0
 76
     0
 77
     2
 78
   300
148
0.0
149
0.0
100
AcDbLayout
  1
Model
 70
     1
 71
     0
 10
0.0
 20
0.0
 11
12.0
 21
9.0
 12
0.0
 22
0.0
 32
0.0
 14
0.0
 24
0.0
 34
0.0
 15
0.0
 25
0.0
 35
0.0
146
0.0
 13
0.0
 23
0.0
 33
0.0
 16
1.0
 26
0.0
 36
0.0
 17
0.0
 27
1.0
 37
0.0
 76
     0
330
A
331
13
  0
MATERIAL
  5
375C
102
{ACAD_XDICTIONARY
360
375D
102
}
102
{ACAD_REACTORS
330
3753
102
}
330
3753
100
AcDbMaterial
  1
ByBlock
 72
     0
 43
0.0208333333333333
 43
0.0
 43
0.0
 43
0.0
 43
0.0
 43
0.0208333333333333
 43
0.0
 43
0.0
 43
0.0
 43
0.0
 43
1.0
 43
0.0
 43
0.0
 43
0.0
 43
0.0
 43
1.0
 77
     0
 47
0.0208333333333333
 47
0.0
 47
0.0
 47
0.0
 47
0.0
 47
0.0208333333333333
 47
0.0
 47
0.0
 47
0.0
 47
0.0
 47
1.0
 47
0.0
 47
0.0
 47
0.0
 47
0.0
 47
1.0
171
     0
 49
0.0208333333333333
 49
0.0
 49
0.0
 49
0.0
 49
0.0
 49
0.0208333333333333
 49
0.0
 49
0.0
 49
0.0
 49
0.0
 49
1.0
 49
0.0
 49
0.0
 49
0.0
 49
0.0
 49
1.0
175
     0
142
0.0208333333333333
142
0.0
142
0.0
142
0.0
142
0.0
142
0.0208333333333333
142
0.0
142
0.0
142
0.0
142
0.0
142
1.0
142
0.0
142
0.0
142
0.0
142
0.0
142
1.0
179
     0
144
0.0208333333333333
144
0.0
144
0.0
144
0.0
144
0.0
144
0.0208333333333333
144
0.0
144
0.0
144
0.0
144
0.0
144
1.0
144
0.0
144
0.0
144
0.0
144
0.0
144
1.0
147
0.0208333333333333
147
0.0
147
0.0
147
0.0
147
0.0
147
0.0208333333333333
147
0.0
147
0.0
147
0.0
147
0.0
147
1.0
147
0.0
147
0.0
147
0.0
147
0.0
147
1.0
  0
MATERIAL
  5
3754
102
{ACAD_XDICTIONARY
360
3755
102
}
102
{ACAD_REACTORS
330
3753
102
}
330
3753
100
AcDbMaterial
  1
ByLayer
 72
     0
 43
0.0208333333333333
 43
0.0
 43
0.0
 43
0.0
 43
0.0
 43
0.0208333333333333
 43
0.0
 43
0.0
 43
0.0
 43
0.0
 43
1.0
 43
0.0
 43
0.0
 43
0.0
 43
0.0
 43
1.0
 77
     0
 47
0.0208333333333333
 47
0.0
 47
0.0
 47
0.0
 47
0.0
 47
0.0208333333333333
 47
0.0
 47
0.0
 47
0.0
 47
0.0
 47
1.0
 47
0.0
 47
0.0
 47
0.0
 47
0.0
 47
1.0
171
     0
 49
0.0208333333333333
 49
0.0
 49
0.0
 49
0.0
 49
0.0
 49
0.0208333333333333
 49
0.0
 49
0.0
 49
0.0
 49
0.0
 49
1.0
 49
0.0
 49
0.0
 49
0.0
 49
0.0
 49
1.0
175
     0
142
0.0208333333333333
142
0.0
142
0.0
142
0.0
142
0.0
142
0.0208333333333333
142
0.0
142
0.0
142
0.0
142
0.0
142
1.0
142
0.0
142
0.0
142
0.0
142
0.0
142
1.0
179
     0
144
0.0208333333333333
144
0.0
144
0.0
144
0.0
144
0.0
144
0.0208333333333333
144
0.0
144
0.0
144
0.0
144
0.0
144
1.0
144
0.0
144
0.0
144
0.0
144
0.0
144
1.0
147
0.0208333333333333
147
0.0
147
0.0
147
0.0
147
0.0
147
0.0208333333333333
147
0.0
147
0.0
147
0.0
147
0.0
147
1.0
147
0.0
147
0.0
147
0.0
147
0.0
147
1.0
  0
MATERIAL
  5
3764
102
{ACAD_XDICTIONARY
360
3765
102
}
102
{ACAD_REACTORS
330
3753
102
}
330
3753
100
AcDbMaterial
  1
Global
 72
     0
 43
0.0208333333333333
 43
0.0
 43
0.0
 43
0.0
 43
0.0
 43
0.0208333333333333
 43
0.0
 43
0.0
 43
0.0
 43
0.0
 43
1.0
 43
0.0
 43
0.0
 43
0.0
 43
0.0
 43
1.0
 77
     0
 47
0.0208333333333333
 47
0.0
 47
0.0
 47
0.0
 47
0.0
 47
0.0208333333333333
 47
0.0
 47
0.0
 47
0.0
 47
0.0
 47
1.0
 47
0.0
 47
0.0
 47
0.0
 47
0.0
 47
1.0
171
     0
 49
0.0208333333333333
 49
0.0
 49
0.0
 49
0.0
 49
0.0
 49
0.0208333333333333
 49
0.0
 49
0.0
 49
0.0
 49
0.0
 49
1.0
 49
0.0
 49
0.0
 49
0.0
 49
0.0
 49
1.0
175
     0
142
0.0208333333333333
142
0.0
142
0.0
142
0.0
142
0.0
142
0.0208333333333333
142
0.0
142
0.0
142
0.0
142
0.0
142
1.0
142
0.0
142
0.0
142
0.0
142
0.0
142
1.0
179
     0
144
0.0208333333333333
144
0.0
144
0.0
144
0.0
144
0.0
144
0.0208333333333333
144
0.0
144
0.0
144
0.0
144
0.0
144
1.0
144
0.0
144
0.0
144
0.0
144
0.0
144
1.0
147
0.0208333333333333
147
0.0
147
0.0
147
0.0
147
0.0
147
0.0208333333333333
147
0.0
147
0.0
147
0.0
147
0.0
147
1.0
147
0.0
147
0.0
147
0.0
147
0.0
147
1.0
  0
MLEADERSTYLE
  5
379C
102
{ACAD_REACTORS
330
379B
102
}
330
379B
100
AcDbMLeaderStyle
179
     2
170
     2
171
     1
172
     0
 90
        2
 40
0.0
 41
0.0
173
     1
 91
-1056964608
340
10
 92
       -2
290
     1
 42
0.09
291
     1
 43
0.36
  3
Standard
 44
0.18
300

342
F8B
174
     1
178
     6
175
     1
176
     0
 93
-1056964608
 45
0.18
292
     0
297
     0
 46
0.18
 94
-1056964608
 47
1.0
 49
1.0
140
1.0
293
     1
141
0.0
294
     1
177
     0
142
1.0
295
     0
296
     0
143
0.125
271
     0
272
     9
273
     9
298
     0
  0
MLINESTYLE
  5
19
102
{ACAD_REACTORS
330
18
102
}
330
18
100
AcDbMlineStyle
  2
STANDARD
 70
     0
  3

 62
     0
 51
90.0
 52
90.0
 71
     2
 49
0.5
 62
   256
  6
BYLAYER
 49
-0.5
 62
   256
  6
BYLAYER
  0
ACDBPLACEHOLDER
  5
3752
102
{ACAD_REACTORS
330
3751
102
}
330
3751
  0
SCALE
  5
378A
102
{ACAD_REACTORS
330
3789
102
}
330
3789
100
AcDbScale
 70
     0
300
1:1
140
1.0
141
1.0
290
     1
  0
SCALE
  5
378B
102
{ACAD_REACTORS
330
3789
102
}
330
3789
100
AcDbScale
 70
     0
300
1/128" = 1'-0"
140
0.0078125
141
12.0
290
     0
  0
SCALE
  5
378C
102
{ACAD_REACTORS
330
3789
102
}
330
3789
100
AcDbScale
 70
     0
300
1/64" = 1'-0"
140
0.015625
141
12.0
290
     0
  0
SCALE
  5
378D
102
{ACAD_REACTORS
330
3789
102
}
330
3789
100
AcDbScale
 70
     0
300
1/32" = 1'-0"
140
0.03125
141
12.0
290
     0
  0
SCALE
  5
378E
102
{ACAD_REACTORS
330
3789
102
}
330
3789
100
AcDbScale
 70
     0
300
1/16" = 1'-0"
140
0.0625
141
12.0
290
     0
  0
SCALE
  5
378F
102
{ACAD_REACTORS
330
3789
102
}
330
3789
100
AcDbScale
 70
     0
300
3/32" = 1'-0"
140
0.09375
141
12.0
290
     0
  0
SCALE
  5
3790
102
{ACAD_REACTORS
330
3789
102
}
330
3789
100
AcDbScale
 70
     0
300
1/8" = 1'-0"
140
0.125
141
12.0
290
     0
  0
SCALE
  5
3791
102
{ACAD_REACTORS
330
3789
102
}
330
3789
100
AcDbScale
 70
     0
300
3/16" = 1'-0"
140
0.1875
141
12.0
290
     0
  0
SCALE
  5
3792
102
{ACAD_REACTORS
330
3789
102
}
330
3789
100
AcDbScale
 70
     0
300
1/4" = 1'-0"
140
0.25
141
12.0
290
     0
  0
SCALE
  5
3793
102
{ACAD_REACTORS
330
3789
102
}
330
3789
100
AcDbScale
 70
     0
300
3/8" = 1'-0"
140
0.375
141
12.0
290
     0
  0
SCALE
  5
3794
102
{ACAD_REACTORS
330
3789
102
}
330
3789
100
AcDbScale
 70
     0
300
1/2" = 1'-0"
140
0.5
141
12.0
290
     0
  0
SCALE
  5
3795
102
{ACAD_REACTORS
330
3789
102
}
330
3789
100
AcDbScale
 70
     0
300
3/4" = 1'-0"
140
0.75
141
12.0
290
     0
  0
SCALE
  5
3796
102
{ACAD_REACTORS
330
3789
102
}
330
3789
100
AcDbScale
 70
     0
300
1" = 1'-0"
140
1.0
141
12.0
290
     0
  0
SCALE
  5
3797
102
{ACAD_REACTORS
330
3789
102
}
330
3789
100
AcDbScale
 70
     0
300
1-1/2" = 1'-0"
140
1.5
141
12.0
290
     0
  0
SCALE
  5
3798
102
{ACAD_REACTORS
330
3789
102
}
330
3789
100
AcDbScale
 70
     0
300
3" = 1'-0"
140
3.0
141
12.0
290
     0
  0
SCALE
  5
3799
102
{ACAD_REACTORS
330
3789
102
}
330
3789
100
AcDbScale
 70
     0
300
6" = 1'-0"
140
6.0
141
12.0
290
     0
  0
SCALE
  5
379A
102
{ACAD_REACTORS
330
3789
102
}
330
3789
100
AcDbScale
 70
     0
300
1'-0" = 1'-0"
140
12.0
141
12.0
290
     0
  0
ACDBSECTIONVIEWSTYLE
  5
379E
102
{ACAD_REACTORS
330
379D
102
}
330
379D
100
AcDbModelDocViewStyle
 70
     0
  3
Imperial24
290
     0
300
Imperial24
 90
        0
100
AcDbSectionViewStyle
 70
     0
 71
     0
 90
       78
 71
     1
340
F8B
 62
   256
 40
0.24
340
0
340
0
 62
   256
 40
0.24
300
I, O, Q, S, X, Z
 40
0.48
 90
        3
 40
0.18
 90
        1
 71
     2
340
12
 90
       25
 62
   256
340
12
 90
       50
 62
   256
 40
0.24
 40
0.0
 40
0.24
 71
     3
340
F8B
 62
   256
 40
0.24
 90
        1
 40
0.75
 90
        1
300
%<\AcVar ViewType \f "%tc1">% %<\AcVar ViewSectionStartId>%-%<\AcVar ViewSectionEndId>%\PSCALE %<\AcVar ViewScale \f "%sn">%
 71
     4
 62
   256
 62
   257
300
ANSI31
 40
1.0
 90
        0
290
     0
290
     0
 90
        6
 40
0.0
 40
1.570796326794896
 40
0.2617993877991494
 40
1.308996938995747
 40
-0.2617993877991494
 40
1.832595714594046
  0
TABLESTYLE
  5
3788
102
{ACAD_XDICTIONARY
360
37BC
102
}
102
{ACAD_REACTORS
330
3787
102
}
330
3787
100
AcDbTableStyle
280
     0
  3
Standard
 70
     0
 71
     0
 40
0.06
 41
0.06
280
     0
281
     0
  7
STANDARD
140
0.18
170
     2
 62
     0
 63
     7
283
     0
 90
      512
 91
        0
  1

274
    -2
284
     1
 64
     0
275
    -2
285
     1
 65
     0
276
    -2
286
     1
 66
     0
277
    -2
287
     1
 67
     0
278
    -2
288
     1
 68
     0
279
    -2
289
     1
 69
     0
  7
STANDARD
140
0.25
170
     5
 62
     0
 63
     7
283
     0
 90
      512
 91
        0
  1

274
    -2
284
     1
 64
     0
275
    -2
285
     1
 65
     0
276
    -2
286
     1
 66
     0
277
    -2
287
     1
 67
     0
278
    -2
288
     1
 68
     0
279
    -2
289
     1
 69
     0
  7
STANDARD
140
0.18
170
     5
 62
     0
 63
     7
283
     0
 90
      512
 91
        0
  1

274
    -2
284
     1
 64
     0
275
    -2
285
     1
 65
     0
276
    -2
286
     1
 66
     0
277
    -2
287
     1
 67
     0
278
    -2
288
     1
 68
     0
279
    -2
289
     1
 69
     0
  0
VISUALSTYLE
  5
3772
102
{ACAD_REACTORS
330
376C
102
}
330
376C
100
AcDbVisualStyle
  2
2dWireframe
 70
     4
177
     3
291
     0
 70
    58
 90
        0
176
     1
 90
        2
176
     1
 90
        0
176
     1
 90
        0
176
     1
 40
0.6
176
     1
 40
30.0
176
     1
 62
     7
420
 16777215
176
     1
 90
        1
176
     1
 90
        4
176
     1
 62
     7
176
     1
 62
   257
176
     1
 90
        1
176
     1
 90
        1
176
     1
 40
1.0
176
     1
 90
        0
176
     1
 62
   257
176
     1
 40
1.0
176
     1
 90
        1
176
     1
 90
        6
176
     1
 90
        2
176
     1
 62
     7
176
     1
 90
        5
176
     1
 90
        0
176
     1
 90
        0
176
     1
290
     0
176
     1
 90
        1
176
     1
 40
0.0
176
     1
 90
        0
176
     1
290
     1
176
     1
290
     1
176
     1
290
     0
176
     1
290
     0
176
     1
290
     0
176
     1
290
     0
176
     1
290
     0
176
     1
290
     0
176
     1
290
     0
176
     1
 90
       50
176
     1
 40
0.0
176
     1
 40
1.0
176
     1
 90
        0
176
     1
 62
    18
420
        0
176
     1
 90
       50
176
     1
 90
        3
176
     1
 62
     5
420
      255
176
     1
290
     0
176
     1
 90
       50
176
     1
 90
       50
176
     1
 90
       50
176
     1
290
     0
176
     1
 90
       50
176
     1
 62
   256
176
     0
 40
1.0
176
     0
 90
        2
176
     1
  1
strokes_ogs.tif
176
     1
290
     0
176
     1
 40
1.0
176
     1
 40
1.0
176
     1
  0
VISUALSTYLE
  5
3771
102
{ACAD_REACTORS
330
376C
102
}
330
376C
100
AcDbVisualStyle
  2
Basic
 70
     7
177
     3
291
     1
 70
    58
 90
        1
176
     1
 90
        0
176
     1
 90
        1
176
     1
 90
        0
176
     1
 40
0.6
176
     1
 40
30.0
176
     1
 62
     7
420
 16777215
176
     1
 90
        0
176
     1
 90
        4
176
     1
 62
     7
176
     1
 62
   257
176
     1
 90
        1
176
     1
 90
        1
176
     1
 40
1.0
176
     1
 90
        8
176
     1
 62
     7
176
     1
 40
1.0
176
     1
 90
        1
176
     1
 90
        6
176
     1
 90
        2
176
     1
 62
     7
176
     1
 90
        5
176
     1
 90
        0
176
     1
 90
        0
176
     1
290
     0
176
     1
 90
        1
176
     1
 40
0.0
176
     1
 90
        0
176
     1
290
     0
176
     1
290
     1
176
     1
290
     1
176
     1
290
     0
176
     1
290
     0
176
     1
290
     0
176
     1
290
     0
176
     1
290
     0
176
     1
290
     0
176
     1
 90
       50
176
     1
 40
0.0
176
     1
 40
1.0
176
     1
 90
        0
176
     1
 62
    18
420
        0
176
     1
 90
       50
176
     1
 90
        3
176
     1
 62
     5
420
      255
176
     1
290
     0
176
     1
 90
       50
176
     1
 90
       50
176
     1
 90
       50
176
     1
290
     0
176
     1
 90
       50
176
     1
 62
   256
176
     0
 40
1.0
176
     0
 90
        2
176
     1
  1
strokes_ogs.tif
176
     1
290
     0
176
     1
 40
1.0
176
     1
 40
1.0
176
     1
  0
VISUALSTYLE
  5
3778
102
{ACAD_REACTORS
330
376C
102
}
330
376C
100
AcDbVisualStyle
  2
Brighten
 70
    12
177
     3
291
     1
 70
    58
 90
        2
176
     1
 90
        2
176
     1
 90
        0
176
     1
 90
        0
176
     1
 40
0.6
176
     1
 40
30.0
176
     1
 62
     7
420
 16777215
176
     1
 90
        1
176
     1
 90
        4
176
     1
 62
     7
176
     1
 62
   257
176
     1
 90
        1
176
     1
 90
        1
176
     1
 40
1.0
176
     1
 90
        8
176
     1
 62
     7
176
     1
 40
1.0
176
     1
 90
        1
176
     1
 90
        6
176
     1
 90
        2
176
     1
 62
     7
176
     1
 90
        5
176
     1
 90
        0
176
     1
 90
        0
176
     1
290
     0
176
     1
 90
        1
176
     1
 40
50.0
176
     1
 90
        0
176
     1
290
     0
176
     1
290
     1
176
     1
290
     1
176
     1
290
     0
176
     1
290
     0
176
     1
290
     0
176
     1
290
     0
176
     1
290
     0
176
     1
290
     0
176
     1
 90
       50
176
     1
 40
0.0
176
     1
 40
1.0
176
     1
 90
        0
176
     1
 62
    18
420
        0
176
     1
 90
       50
176
     1
 90
        3
176
     1
 62
     5
420
      255
176
     1
290
     0
176
     1
 90
       50
176
     1
 90
       50
176
     1
 90
       50
176
     1
290
     0
176
     1
 90
       50
176
     1
 62
   256
176
     0
 40
1.0
176
     0
 90
        2
176
     1
  1
strokes_ogs.tif
176
     1
290
     0
176
     1
 40
1.0
176
     1
 40
1.0
176
     1
  0
VISUALSTYLE
  5
377C
102
{ACAD_REACTORS
330
376C
102
}
330
376C
100
AcDbVisualStyle
  2
ColorChange
 70
    16
177
     3
291
     1
 70
    58
 90
        2
176
     1
 90
        2
176
     1
 90
        3
176
     1
 90
        0
176
     1
 40
0.6
176
     1
 40
30.0
176
     1
 62
     8
420
  8421504
176
     1
 90
        1
176
     1
 90
        4
176
     1
 62
     7
176
     1
 62
   257
176
     1
 90
        1
176
     1
 90
        1
176
     1
 40
1.0
176
     1
 90
        8
176
     1
 62
     8
420
  8421504
176
     1
 40
1.0
176
     1
 90
        1
176
     1
 90
        6
176
     1
 90
        2
176
     1
 62
     7
176
     1
 90
        5
176
     1
 90
        0
176
     1
 90
        0
176
     1
290
     0
176
     1
 90
        1
176
     1
 40
0.0
176
     1
 90
        0
176
     1
290
     0
176
     1
290
     1
176
     1
290
     1
176
     1
290
     0
176
     1
290
     0
176
     1
290
     0
176
     1
290
     0
176
     1
290
     0
176
     1
290
     0
176
     1
 90
       50
176
     1
 40
0.0
176
     1
 40
1.0
176
     1
 90
        0
176
     1
 62
    18
420
        0
176
     1
 90
       50
176
     1
 90
        3
176
     1
 62
     5
420
      255
176
     1
290
     0
176
     1
 90
       50
176
     1
 90
       50
176
     1
 90
       50
176
     1
290
     0
176
     1
 90
       50
176
     1
 62
   256
176
     0
 40
1.0
176
     0
 90
        2
176
     1
  1
strokes_ogs.tif
176
     1
290
     0
176
     1
 40
1.0
176
     1
 40
1.0
176
     1
  0
VISUALSTYLE
  5
3775
102
{ACAD_REACTORS
330
376C
102
}
330
376C
100
AcDbVisualStyle
  2
Conceptual
 70
     9
177
     3
291
     0
 70
    58
 90
        3
176
     1
 90
        2
176
     1
 90
        0
176
     1
 90
        0
176
     1
 40
0.6
176
     1
 40
30.0
176
     1
 62
     7
420
 16777215
176
     1
 90
        2
176
     1
 90
        2
176
     1
 62
     7
176
     1
 62
   257
176
     1
 90
        1
176
     1
 90
        1
176
     1
 40
179.0
176
     1
 90
        8
176
     1
 62
     7
176
     1
 40
1.0
176
     1
 90
        1
176
     1
 90
        6
176
     1
 90
        2
176
     1
 62
     7
176
     1
 90
        3
176
     1
 90
        0
176
     1
 90
        0
176
     1
290
     0
176
     1
 90
        1
176
     1
 40
0.0
176
     1
 90
        0
176
     1
290
     0
176
     1
290
     1
176
     1
290
     1
176
     1
290
     0
176
     1
290
     0
176
     1
290
     0
176
     1
290
     0
176
     1
290
     0
176
     1
290
     0
176
     1
 90
       50
176
     1
 40
0.0
176
     1
 40
1.0
176
     1
 90
        0
176
     1
 62
    18
420
        0
176
     1
 90
       50
176
     1
 90
        3
176
     1
 62
     5
420
      255
176
     1
290
     0
176
     1
 90
       50
176
     1
 90
       50
176
     1
 90
       50
176
     1
290
     0
176
     1
 90
       50
176
     1
 62
   256
176
     0
 40
1.0
176
     0
 90
        2
176
     1
  1
strokes_ogs.tif
176
     1
290
     0
176
     1
 40
1.0
176
     1
 40
1.0
176
     1
  0
VISUALSTYLE
  5
3777
102
{ACAD_REACTORS
330
376C
102
}
330
376C
100
AcDbVisualStyle
  2
Dim
 70
    11
177
     3
291
     1
 70
    58
 90
        2
176
     1
 90
        2
176
     1
 90
        0
176
     1
 90
        0
176
     1
 40
0.6
176
     1
 40
30.0
176
     1
 62
     7
420
 16777215
176
     1
 90
        1
176
     1
 90
        4
176
     1
 62
     7
176
     1
 62
   257
176
     1
 90
        1
176
     1
 90
        1
176
     1
 40
1.0
176
     1
 90
        8
176
     1
 62
     7
176
     1
 40
1.0
176
     1
 90
        1
176
     1
 90
        6
176
     1
 90
        2
176
     1
 62
     7
176
     1
 90
        5
176
     1
 90
        0
176
     1
 90
        0
176
     1
290
     0
176
     1
 90
        1
176
     1
 40
-50.0
176
     1
 90
        0
176
     1
290
     0
176
     1
290
     1
176
     1
290
     1
176
     1
290
     0
176
     1
290
     0
176
     1
290
     0
176
     1
290
     0
176
     1
290
     0
176
     1
290
     0
176
     1
 90
       50
176
     1
 40
0.0
176
     1
 40
1.0
176
     1
 90
        0
176
     1
 62
    18
420
        0
176
     1
 90
       50
176
     1
 90
        3
176
     1
 62
     5
420
      255
176
     1
290
     0
176
     1
 90
       50
176
     1
 90
       50
176
     1
 90
       50
176
     1
290
     0
176
     1
 90
       50
176
     1
 62
   256
176
     0
 40
1.0
176
     0
 90
        2
176
     1
  1
strokes_ogs.tif
176
     1
290
     0
176
     1
 40
1.0
176
     1
 40
1.0
176
     1
  0
VISUALSTYLE
  5
3784
102
{ACAD_REACTORS
330
376C
102
}
330
376C
100
AcDbVisualStyle
  2
EdgeColorOff
 70
    22
177
     3
291
     1
 70
    58
 90
        2
176
     0
 90
        2
176
     0
 90
        0
176
     0
 90
        0
176
     0
 40
0.6
176
     0
 40
30.0
176
     0
 62
     7
420
 16777215
176
     0
 90
        1
176
     0
 90
        4
176
     0
 62
     7
176
     0
 62
   257
176
     0
 90
        1
176
     0
 90
        1
176
     0
 40
1.0
176
     0
 90
        8
176
     2
 62
     7
176
     0
 40
1.0
176
     0
 90
        1
176
     0
 90
        6
176
     0
 90
        2
176
     0
 62
     7
176
     0
 90
        5
176
     0
 90
        0
176
     0
 90
        0
176
     0
290
     0
176
     0
 90
        1
176
     0
 40
0.0
176
     0
 90
        0
176
     0
290
     0
176
     1
290
     1
176
     1
290
     1
176
     1
290
     0
176
     1
290
     0
176
     1
290
     0
176
     1
290
     0
176
     1
290
     0
176
     1
290
     0
176
     1
 90
       50
176
     0
 40
0.0
176
     0
 40
1.0
176
     0
 90
        0
176
     0
 62
    18
420
        0
176
     0
 90
       50
176
     0
 90
        3
176
     0
 62
     5
420
      255
176
     0
290
     0
176
     1
 90
       50
176
     0
 90
       50
176
     0
 90
       50
176
     0
290
     0
176
     1
 90
       50
176
     0
 62
   256
176
     0
 40
1.0
176
     0
 90
        2
176
     0
  1
strokes_ogs.tif
176
     0
290
     0
176
     1
 40
1.0
176
     0
 40
1.0
176
     0
  0
VISUALSTYLE
  5
377B
102
{ACAD_REACTORS
330
376C
102
}
330
376C
100
AcDbVisualStyle
  2
Facepattern
 70
    15
177
     3
291
     1
 70
    58
 90
        2
176
     1
 90
        2
176
     1
 90
        0
176
     1
 90
        0
176
     1
 40
0.6
176
     1
 40
30.0
176
     1
 62
     7
420
 16777215
176
     1
 90
        1
176
     1
 90
        4
176
     1
 62
     7
176
     1
 62
   257
176
     1
 90
        1
176
     1
 90
        1
176
     1
 40
1.0
176
     1
 90
        8
176
     1
 62
     7
176
     1
 40
1.0
176
     1
 90
        1
176
     1
 90
        6
176
     1
 90
        2
176
     1
 62
     7
176
     1
 90
        5
176
     1
 90
        0
176
     1
 90
        0
176
     1
290
     0
176
     1
 90
        1
176
     1
 40
0.0
176
     1
 90
        0
176
     1
290
     0
176
     1
290
     1
176
     1
290
     1
176
     1
290
     0
176
     1
290
     0
176
     1
290
     0
176
     1
290
     0
176
     1
290
     0
176
     1
290
     0
176
     1
 90
       50
176
     1
 40
0.0
176
     1
 40
1.0
176
     1
 90
        0
176
     1
 62
    18
420
        0
176
     1
 90
       50
176
     1
 90
        3
176
     1
 62
     5
420
      255
176
     1
290
     0
176
     1
 90
       50
176
     1
 90
       50
176
     1
 90
       50
176
     1
290
     0
176
     1
 90
       50
176
     1
 62
   256
176
     0
 40
1.0
176
     0
 90
        2
176
     1
  1
strokes_ogs.tif
176
     1
290
     0
176
     1
 40
1.0
176
     1
 40
1.0
176
     1
  0
VISUALSTYLE
  5
376D
102
{ACAD_REACTORS
330
376C
102
}
330
376C
100
AcDbVisualStyle
  2
Flat
 70
     0
177
     3
291
     1
 70
    58
 90
        2
176
     1
 90
        1
176
     1
 90
        1
176
     1
 90
        2
176
     1
 40
0.6
176
     1
 40
30.0
176
     1
 62
     7
420
 16777215
176
     1
 90
        0
176
     1
 90
        0
176
     1
 62
     7
176
     1
 62
   257
176
     1
 90
        1
176
     1
 90
        1
176
     1
 40
1.0
176
     1
 90
        8
176
     1
 62
     7
176
     1
 40
1.0
176
     1
 90
        1
176
     1
 90
        6
176
     1
 90
        2
176
     1
 62
     7
176
     1
 90
        5
176
     1
 90
        0
176
     1
 90
        0
176
     1
290
     0
176
     1
 90
       13
176
     1
 40
0.0
176
     1
 90
        0
176
     1
290
     0
176
     1
290
     1
176
     1
290
     1
176
     1
290
     0
176
     1
290
     0
176
     1
290
     0
176
     1
290
     0
176
     1
290
     0
176
     1
290
     0
176
     1
 90
       50
176
     1
 40
0.0
176
     1
 40
1.0
176
     1
 90
        0
176
     1
 62
    18
420
        0
176
     1
 90
       50
176
     1
 90
        3
176
     1
 62
     5
420
      255
176
     1
290
     0
176
     1
 90
       50
176
     1
 90
       50
176
     1
 90
       50
176
     1
290
     0
176
     1
 90
       50
176
     1
 62
   256
176
     0
 40
1.0
176
     0
 90
        2
176
     1
  1
strokes_ogs.tif
176
     1
290
     0
176
     1
 40
1.0
176
     1
 40
1.0
176
     1
  0
VISUALSTYLE
  5
376E
102
{ACAD_REACTORS
330
376C
102
}
330
376C
100
AcDbVisualStyle
  2
FlatWithEdges
 70
     1
177
     3
291
     1
 70
    58
 90
        2
176
     1
 90
        1
176
     1
 90
        1
176
     1
 90
        2
176
     1
 40
0.6
176
     1
 40
30.0
176
     1
 62
     7
420
 16777215
176
     1
 90
        1
176
     1
 90
        0
176
     1
 62
     7
176
     1
 62
   257
176
     1
 90
        1
176
     1
 90
        1
176
     1
 40
1.0
176
     1
 90
        0
176
     1
 62
   257
176
     1
 40
1.0
176
     1
 90
        1
176
     1
 90
        6
176
     1
 90
        2
176
     1
 62
     7
176
     1
 90
        5
176
     1
 90
        0
176
     1
 90
        0
176
     1
290
     0
176
     1
 90
       13
176
     1
 40
0.0
176
     1
 90
        0
176
     1
290
     0
176
     1
290
     1
176
     1
290
     1
176
     1
290
     0
176
     1
290
     0
176
     1
290
     0
176
     1
290
     0
176
     1
290
     0
176
     1
290
     0
176
     1
 90
       50
176
     1
 40
0.0
176
     1
 40
1.0
176
     1
 90
        0
176
     1
 62
    18
420
        0
176
     1
 90
       50
176
     1
 90
        3
176
     1
 62
     5
420
      255
176
     1
290
     0
176
     1
 90
       50
176
     1
 90
       50
176
     1
 90
       50
176
     1
290
     0
176
     1
 90
       50
176
     1
 62
   256
176
     0
 40
1.0
176
     0
 90
        2
176
     1
  1
strokes_ogs.tif
176
     1
290
     0
176
     1
 40
1.0
176
     1
 40
1.0
176
     1
  0
VISUALSTYLE
  5
376F
102
{ACAD_REACTORS
330
376C
102
}
330
376C
100
AcDbVisualStyle
  2
Gouraud
 70
     2
177
     3
291
     1
 70
    58
 90
        2
176
     1
 90
        2
176
     1
 90
        1
176
     1
 90
        2
176
     1
 40
0.6
176
     1
 40
30.0
176
     1
 62
     7
420
 16777215
176
     1
 90
        0
176
     1
 90
        0
176
     1
 62
     7
176
     1
 62
   257
176
     1
 90
        1
176
     1
 90
        1
176
     1
 40
1.0
176
     1
 90
        0
176
     1
 62
     7
176
     1
 40
1.0
176
     1
 90
        1
176
     1
 90
        6
176
     1
 90
        2
176
     1
 62
     7
176
     1
 90
        5
176
     1
 90
        0
176
     1
 90
        0
176
     1
290
     0
176
     1
 90
       13
176
     1
 40
0.0
176
     1
 90
        0
176
     1
290
     0
176
     1
290
     1
176
     1
290
     1
176
     1
290
     0
176
     1
290
     0
176
     1
290
     0
176
     1
290
     0
176
     1
290
     0
176
     1
290
     0
176
     1
 90
       50
176
     1
 40
0.0
176
     1
 40
1.0
176
     1
 90
        0
176
     1
 62
    18
420
        0
176
     1
 90
       50
176
     1
 90
        3
176
     1
 62
     5
420
      255
176
     1
290
     0
176
     1
 90
       50
176
     1
 90
       50
176
     1
 90
       50
176
     1
290
     0
176
     1
 90
       50
176
     1
 62
   256
176
     0
 40
1.0
176
     0
 90
        2
176
     1
  1
strokes_ogs.tif
176
     1
290
     0
176
     1
 40
1.0
176
     1
 40
1.0
176
     1
  0
VISUALSTYLE
  5
3770
102
{ACAD_REACTORS
330
376C
102
}
330
376C
100
AcDbVisualStyle
  2
GouraudWithEdges
 70
     3
177
     3
291
     1
 70
    58
 90
        2
176
     1
 90
        2
176
     1
 90
        1
176
     1
 90
        2
176
     1
 40
0.6
176
     1
 40
30.0
176
     1
 62
     7
420
 16777215
176
     1
 90
        1
176
     1
 90
        0
176
     1
 62
     7
176
     1
 62
   257
176
     1
 90
        1
176
     1
 90
        1
176
     1
 40
1.0
176
     1
 90
        0
176
     1
 62
   257
176
     1
 40
1.0
176
     1
 90
        1
176
     1
 90
        6
176
     1
 90
        2
176
     1
 62
     7
176
     1
 90
        5
176
     1
 90
        0
176
     1
 90
        0
176
     1
290
     0
176
     1
 90
       13
176
     1
 40
0.0
176
     1
 90
        0
176
     1
290
     0
176
     1
290
     1
176
     1
290
     1
176
     1
290
     0
176
     1
290
     0
176
     1
290
     0
176
     1
290
     0
176
     1
290
     0
176
     1
290
     0
176
     1
 90
       50
176
     1
 40
0.0
176
     1
 40
1.0
176
     1
 90
        0
176
     1
 62
    18
420
        0
176
     1
 90
       50
176
     1
 90
        3
176
     1
 62
     5
420
      255
176
     1
290
     0
176
     1
 90
       50
176
     1
 90
       50
176
     1
 90
       50
176
     1
290
     0
176
     1
 90
       50
176
     1
 62
   256
176
     0
 40
1.0
176
     0
 90
        2
176
     1
  1
strokes_ogs.tif
176
     1
290
     0
176
     1
 40
1.0
176
     1
 40
1.0
176
     1
  0
VISUALSTYLE
  5
3774
102
{ACAD_REACTORS
330
376C
102
}
330
376C
100
AcDbVisualStyle
  2
Hidden
 70
     6
177
     3
291
     0
 70
    58
 90
        1
176
     1
 90
        2
176
     1
 90
        2
176
     1
 90
        0
176
     1
 40
0.6
176
     1
 40
30.0
176
     1
 62
     7
420
 16777215
176
     1
 90
        2
176
     1
 90
        2
176
     1
 62
     7
176
     1
 62
   257
176
     1
 90
        2
176
     1
 90
        1
176
     1
 40
40.0
176
     1
 90
        0
176
     1
 62
   257
176
     1
 40
1.0
176
     1
 90
        1
176
     1
 90
        6
176
     1
 90
        2
176
     1
 62
     7
176
     1
 90
        3
176
     1
 90
        0
176
     1
 90
        0
176
     1
290
     0
176
     1
 90
        1
176
     1
 40
0.0
176
     1
 90
        0
176
     1
290
     0
176
     1
290
     1
176
     1
290
     1
176
     1
290
     0
176
     1
290
     0
176
     1
290
     0
176
     1
290
     0
176
     1
290
     0
176
     1
290
     0
176
     1
 90
       50
176
     1
 40
0.0
176
     1
 40
1.0
176
     1
 90
        0
176
     1
 62
    18
420
        0
176
     1
 90
       50
176
     1
 90
        3
176
     1
 62
     5
420
      255
176
     1
290
     0
176
     1
 90
       50
176
     1
 90
       50
176
     1
 90
       50
176
     1
290
     0
176
     1
 90
       50
176
     1
 62
   256
176
     0
 40
1.0
176
     0
 90
        2
176
     1
  1
strokes_ogs.tif
176
     1
290
     0
176
     1
 40
1.0
176
     1
 40
1.0
176
     1
  0
VISUALSTYLE
  5
3782
102
{ACAD_REACTORS
330
376C
102
}
330
376C
100
AcDbVisualStyle
  2
JitterOff
 70
    20
177
     3
291
     1
 70
    58
 90
        2
176
     0
 90
        2
176
     0
 90
        0
176
     0
 90
        0
176
     0
 40
0.6
176
     0
 40
30.0
176
     0
 62
     7
420
 16777215
176
     0
 90
        1
176
     0
 90
        4
176
     0
 62
     7
176
     0
 62
   257
176
     0
 90
        1
176
     0
 90
        1
176
     0
 40
1.0
176
     0
 90
       10
176
     2
 62
     7
176
     0
 40
1.0
176
     0
 90
        1
176
     0
 90
        6
176
     0
 90
        2
176
     0
 62
     7
176
     0
 90
        5
176
     0
 90
        0
176
     0
 90
        0
176
     0
290
     0
176
     0
 90
        1
176
     0
 40
0.0
176
     0
 90
        0
176
     0
290
     0
176
     1
290
     1
176
     1
290
     1
176
     1
290
     0
176
     1
290
     0
176
     1
290
     0
176
     1
290
     0
176
     1
290
     0
176
     1
290
     0
176
     1
 90
       50
176
     0
 40
0.0
176
     0
 40
1.0
176
     0
 90
        0
176
     0
 62
    18
420
        0
176
     0
 90
       50
176
     0
 90
        3
176
     0
 62
     5
420
      255
176
     0
290
     0
176
     1
 90
       50
176
     0
 90
       50
176
     0
 90
       50
176
     0
290
     0
176
     1
 90
       50
176
     0
 62
   256
176
     0
 40
1.0
176
     0
 90
        2
176
     0
  1
strokes_ogs.tif
176
     0
290
     0
176
     1
 40
1.0
176
     0
 40
1.0
176
     0
  0
VISUALSTYLE
  5
377A
102
{ACAD_REACTORS
330
376C
102
}
330
376C
100
AcDbVisualStyle
  2
Linepattern
 70
    14
177
     3
291
     1
 70
    58
 90
        2
176
     1
 90
        2
176
     1
 90
        0
176
     1
 90
        0
176
     1
 40
0.6
176
     1
 40
30.0
176
     1
 62
     7
420
 16777215
176
     1
 90
        1
176
     1
 90
        4
176
     1
 62
     7
176
     1
 62
   257
176
     1
 90
        7
176
     1
 90
        7
176
     1
 40
1.0
176
     1
 90
        8
176
     1
 62
     7
176
     1
 40
1.0
176
     1
 90
        1
176
     1
 90
        6
176
     1
 90
        2
176
     1
 62
     7
176
     1
 90
        5
176
     1
 90
        0
176
     1
 90
        0
176
     1
290
     0
176
     1
 90
        1
176
     1
 40
0.0
176
     1
 90
        0
176
     1
290
     0
176
     1
290
     1
176
     1
290
     1
176
     1
290
     0
176
     1
290
     0
176
     1
290
     0
176
     1
290
     0
176
     1
290
     0
176
     1
290
     0
176
     1
 90
       50
176
     1
 40
0.0
176
     1
 40
1.0
176
     1
 90
        0
176
     1
 62
    18
420
        0
176
     1
 90
       50
176
     1
 90
        3
176
     1
 62
     5
420
      255
176
     1
290
     0
176
     1
 90
       50
176
     1
 90
       50
176
     1
 90
       50
176
     1
290
     0
176
     1
 90
       50
176
     1
 62
   256
176
     0
 40
1.0
176
     0
 90
        2
176
     1
  1
strokes_ogs.tif
176
     1
290
     0
176
     1
 40
1.0
176
     1
 40
1.0
176
     1
  0
VISUALSTYLE
  5
3783
102
{ACAD_REACTORS
330
376C
102
}
330
376C
100
AcDbVisualStyle
  2
OverhangOff
 70
    21
177
     3
291
     1
 70
    58
 90
        2
176
     0
 90
        2
176
     0
 90
        0
176
     0
 90
        0
176
     0
 40
0.6
176
     0
 40
30.0
176
     0
 62
     7
420
 16777215
176
     0
 90
        1
176
     0
 90
        4
176
     0
 62
     7
176
     0
 62
   257
176
     0
 90
        1
176
     0
 90
        1
176
     0
 40
1.0
176
     0
 90
        9
176
     2
 62
     7
176
     0
 40
1.0
176
     0
 90
        1
176
     0
 90
        6
176
     0
 90
        2
176
     0
 62
     7
176
     0
 90
        5
176
     0
 90
        0
176
     0
 90
        0
176
     0
290
     0
176
     0
 90
        1
176
     0
 40
0.0
176
     0
 90
        0
176
     0
290
     0
176
     1
290
     1
176
     1
290
     1
176
     1
290
     0
176
     1
290
     0
176
     1
290
     0
176
     1
290
     0
176
     1
290
     0
176
     1
290
     0
176
     1
 90
       50
176
     0
 40
0.0
176
     0
 40
1.0
176
     0
 90
        0
176
     0
 62
    18
420
        0
176
     0
 90
       50
176
     0
 90
        3
176
     0
 62
     5
420
      255
176
     0
290
     0
176
     1
 90
       50
176
     0
 90
       50
176
     0
 90
       50
176
     0
290
     0
176
     1
 90
       50
176
     0
 62
   256
176
     0
 40
1.0
176
     0
 90
        2
176
     0
  1
strokes_ogs.tif
176
     0
290
     0
176
     1
 40
1.0
176
     0
 40
1.0
176
     0
  0
VISUALSTYLE
  5
3776
102
{ACAD_REACTORS
330
376C
102
}
330
376C
100
AcDbVisualStyle
  2
Realistic
 70
     8
177
     3
291
     0
 70
    58
 90
        2
176
     1
 90
        3
176
     1
 90
        0
176
     1
 90
        2
176
     1
 40
0.6
176
     1
 40
30.0
176
     1
 62
     7
420
 16777215
176
     1
 90
        0
176
     1
 90
        0
176
     1
 62
     7
176
     1
 62
   257
176
     1
 90
        1
176
     1
 90
        1
176
     1
 40
1.0
176
     1
 90
        8
176
     1
 62
   257
176
     1
 40
1.0
176
     1
 90
        1
176
     1
 90
        6
176
     1
 90
        2
176
     1
 62
     7
176
     1
 90
        3
176
     1
 90
        0
176
     1
 90
        0
176
     1
290
     0
176
     1
 90
       13
176
     1
 40
0.0
176
     1
 90
        0
176
     1
290
     0
176
     1
290
     1
176
     1
290
     1
176
     1
290
     0
176
     1
290
     0
176
     1
290
     0
176
     1
290
     0
176
     1
290
     0
176
     1
290
     0
176
     1
 90
       50
176
     1
 40
0.0
176
     1
 40
1.0
176
     1
 90
        0
176
     1
 62
    18
420
        0
176
     1
 90
       50
176
     1
 90
        3
176
     1
 62
     5
420
      255
176
     1
290
     0
176
     1
 90
       50
176
     1
 90
       50
176
     1
 90
       50
176
     1
290
     0
176
     1
 90
       50
176
     1
 62
   256
176
     0
 40
1.0
176
     0
 90
        2
176
     1
  1
strokes_ogs.tif
176
     1
290
     0
176
     1
 40
1.0
176
     1
 40
1.0
176
     1
  0
VISUALSTYLE
  5
3781
102
{ACAD_REACTORS
330
376C
102
}
330
376C
100
AcDbVisualStyle
  2
Shaded
 70
    27
177
     3
291
     0
 70
    58
 90
        2
176
     1
 90
        2
176
     1
 90
        1
176
     1
 90
        2
176
     1
 40
0.6
176
     1
 40
30.0
176
     1
 62
     7
420
 16777215
176
     1
 90
        0
176
     1
 90
        4
176
     1
 62
     7
176
     1
 62
   257
176
     1
 90
        1
176
     1
 90
        1
176
     1
 40
1.0
176
     1
 90
        8
176
     1
 62
   257
176
     1
 40
1.0
176
     1
 90
        1
176
     1
 90
        6
176
     1
 90
        2
176
     1
 62
     8
420
  7895160
176
     1
 90
        3
176
     1
 90
        0
176
     1
 90
        0
176
     1
290
     0
176
     1
 90
        5
176
     1
 40
0.0
176
     1
 90
        0
176
     1
290
     0
176
     1
290
     1
176
     1
290
     1
176
     1
290
     0
176
     1
290
     0
176
     1
290
     0
176
     1
290
     0
176
     1
290
     0
176
     1
290
     0
176
     1
 90
       50
176
     1
 40
0.0
176
     1
 40
1.0
176
     1
 90
        0
176
     1
 62
    18
420
        0
176
     1
 90
       50
176
     1
 90
        3
176
     1
 62
     5
420
      255
176
     1
290
     0
176
     1
 90
       50
176
     1
 90
       50
176
     1
 90
       50
176
     1
290
     0
176
     1
 90
       50
176
     1
 62
   256
176
     0
 40
1.0
176
     0
 90
        2
176
     1
  1
strokes_ogs.tif
176
     1
290
     0
176
     1
 40
1.0
176
     1
 40
1.0
176
     1
  0
VISUALSTYLE
  5
3780
102
{ACAD_REACTORS
330
376C
102
}
330
376C
100
AcDbVisualStyle
  2
Shaded with edges
 70
    26
177
     3
291
     0
 70
    58
 90
        2
176
     1
 90
        2
176
     1
 90
        1
176
     1
 90
        2
176
     1
 40
0.6
176
     1
 40
30.0
176
     1
 62
     7
420
 16777215
176
     1
 90
        1
176
     1
 90
        2
176
     1
 62
     7
176
     1
 62
   257
176
     1
 90
        2
176
     1
 90
        1
176
     1
 40
1.0
176
     1
 90
        8
176
     1
 62
   257
176
     1
 40
1.0
176
     1
 90
        1
176
     1
 90
        6
176
     1
 90
        2
176
     1
 62
     7
176
     1
 90
        3
176
     1
 90
        0
176
     1
 90
        0
176
     1
290
     0
176
     1
 90
        5
176
     1
 40
0.0
176
     1
 90
        0
176
     1
290
     0
176
     1
290
     1
176
     1
290
     1
176
     1
290
     0
176
     1
290
     0
176
     1
290
     0
176
     1
290
     0
176
     1
290
     0
176
     1
290
     0
176
     1
 90
       50
176
     1
 40
0.0
176
     1
 40
1.0
176
     1
 90
        0
176
     1
 62
    18
420
        0
176
     1
 90
       50
176
     1
 90
        3
176
     1
 62
     5
420
      255
176
     1
290
     0
176
     1
 90
       50
176
     1
 90
       50
176
     1
 90
       50
176
     1
290
     0
176
     1
 90
       50
176
     1
 62
   256
176
     0
 40
1.0
176
     0
 90
        2
176
     1
  1
strokes_ogs.tif
176
     1
290
     0
176
     1
 40
1.0
176
     1
 40
1.0
176
     1
  0
VISUALSTYLE
  5
377D
102
{ACAD_REACTORS
330
376C
102
}
330
376C
100
AcDbVisualStyle
  2
Shades of Gray
 70
    23
177
     3
291
     0
 70
    58
 90
        2
176
     1
 90
        2
176
     1
 90
        3
176
     1
 90
        0
176
     1
 40
0.6
176
     1
 40
30.0
176
     1
 62
     7
420
 16777215
176
     1
 90
        2
176
     1
 90
        2
176
     1
 62
     7
176
     1
 62
     7
176
     1
 90
        1
176
     1
 90
        1
176
     1
 40
40.0
176
     1
 90
        8
176
     1
 62
     7
176
     1
 40
1.0
176
     1
 90
        1
176
     1
 90
        6
176
     1
 90
        2
176
     1
 62
     7
176
     1
 90
        3
176
     1
 90
        0
176
     1
 90
        0
176
     1
290
     0
176
     1
 90
        1
176
     1
 40
0.0
176
     1
 90
        0
176
     1
290
     0
176
     1
290
     1
176
     1
290
     1
176
     1
290
     0
176
     1
290
     0
176
     1
290
     0
176
     1
290
     0
176
     1
290
     0
176
     1
290
     0
176
     1
 90
       50
176
     1
 40
0.0
176
     1
 40
1.0
176
     1
 90
        0
176
     1
 62
    18
420
        0
176
     1
 90
       50
176
     1
 90
        3
176
     1
 62
     5
420
      255
176
     1
290
     0
176
     1
 90
       50
176
     1
 90
       50
176
     1
 90
       50
176
     1
290
     0
176
     1
 90
       50
176
     1
 62
   256
176
     0
 40
1.0
176
     0
 90
        2
176
     1
  1
strokes_ogs.tif
176
     1
290
     0
176
     1
 40
1.0
176
     1
 40
1.0
176
     1
  0
VISUALSTYLE
  5
377E
102
{ACAD_REACTORS
330
376C
102
}
330
376C
100
AcDbVisualStyle
  2
Sketchy
 70
    24
177
     3
291
     0
 70
    58
 90
        1
176
     1
 90
        2
176
     1
 90
        2
176
     1
 90
        0
176
     1
 40
0.6
176
     1
 40
30.0
176
     1
 62
     7
420
 16777215
176
     1
 90
        2
176
     1
 90
        2
176
     1
 62
     7
176
     1
 62
     7
176
     1
 90
        1
176
     1
 90
        1
176
     1
 40
40.0
176
     1
 90
       11
176
     1
 62
     7
176
     1
 40
1.0
176
     1
 90
        1
176
     1
 90
        6
176
     1
 90
        2
176
     1
 62
     7
176
     1
 90
        6
176
     1
 90
        0
176
     1
 90
        0
176
     1
290
     0
176
     1
 90
        1
176
     1
 40
0.0
176
     1
 90
        0
176
     1
290
     0
176
     1
290
     1
176
     1
290
     1
176
     1
290
     0
176
     1
290
     0
176
     1
290
     0
176
     1
290
     0
176
     1
290
     0
176
     1
290
     0
176
     1
 90
       50
176
     1
 40
0.0
176
     1
 40
1.0
176
     1
 90
        0
176
     1
 62
    18
420
        0
176
     1
 90
       50
176
     1
 90
        3
176
     1
 62
     5
420
      255
176
     1
290
     0
176
     1
 90
       50
176
     1
 90
       50
176
     1
 90
       50
176
     1
290
     0
176
     1
 90
       50
176
     1
 62
   256
176
     0
 40
1.0
176
     0
 90
        2
176
     1
  1
strokes_ogs.tif
176
     1
290
     0
176
     1
 40
1.0
176
     1
 40
1.0
176
     1
  0
VISUALSTYLE
  5
3779
102
{ACAD_REACTORS
330
376C
102
}
330
376C
100
AcDbVisualStyle
  2
Thicken
 70
    13
177
     3
291
     1
 70
    58
 90
        2
176
     1
 90
        2
176
     1
 90
        0
176
     1
 90
        0
176
     1
 40
0.6
176
     1
 40
30.0
176
     1
 62
     7
420
 16777215
176
     1
 90
        1
176
     1
 90
        4
176
     1
 62
     7
176
     1
 62
   257
176
     1
 90
        1
176
     1
 90
        1
176
     1
 40
1.0
176
     1
 90
       12
176
     1
 62
     7
176
     1
 40
1.0
176
     1
 90
        1
176
     1
 90
        6
176
     1
 90
        2
176
     1
 62
     7
176
     1
 90
        5
176
     1
 90
        0
176
     1
 90
        0
176
     1
290
     0
176
     1
 90
        1
176
     1
 40
0.0
176
     1
 90
        0
176
     1
290
     0
176
     1
290
     1
176
     1
290
     1
176
     1
290
     0
176
     1
290
     0
176
     1
290
     0
176
     1
290
     0
176
     1
290
     0
176
     1
290
     0
176
     1
 90
       50
176
     1
 40
0.0
176
     1
 40
1.0
176
     1
 90
        0
176
     1
 62
    18
420
        0
176
     1
 90
       50
176
     1
 90
        3
176
     1
 62
     5
420
      255
176
     1
290
     0
176
     1
 90
       50
176
     1
 90
       50
176
     1
 90
       50
176
     1
290
     0
176
     1
 90
       50
176
     1
 62
   256
176
     0
 40
1.0
176
     0
 90
        2
176
     1
  1
strokes_ogs.tif
176
     1
290
     0
176
     1
 40
1.0
176
     1
 40
1.0
176
     1
  0
VISUALSTYLE
  5
3773
102
{ACAD_REACTORS
330
376C
102
}
330
376C
100
AcDbVisualStyle
  2
Wireframe
 70
     5
177
     3
291
     0
 70
    58
 90
        0
176
     1
 90
        2
176
     1
 90
        0
176
     1
 90
        0
176
     1
 40
0.6
176
     1
 40
30.0
176
     1
 62
     7
420
 16777215
176
     1
 90
        1
176
     1
 90
        4
176
     1
 62
     7
176
     1
 62
   257
176
     1
 90
        1
176
     1
 90
        1
176
     1
 40
1.0
176
     1
 90
        0
176
     1
 62
   257
176
     1
 40
1.0
176
     1
 90
        1
176
     1
 90
        6
176
     1
 90
        2
176
     1
 62
     7
176
     1
 90
        3
176
     1
 90
        0
176
     1
 90
        0
176
     1
290
     0
176
     1
 90
        1
176
     1
 40
0.0
176
     1
 90
        0
176
     1
290
     0
176
     1
290
     1
176
     1
290
     1
176
     1
290
     0
176
     1
290
     0
176
     1
290
     0
176
     1
290
     0
176
     1
290
     0
176
     1
290
     0
176
     1
 90
       50
176
     1
 40
0.0
176
     1
 40
1.0
176
     1
 90
        0
176
     1
 62
    18
420
        0
176
     1
 90
       50
176
     1
 90
        3
176
     1
 62
     5
420
      255
176
     1
290
     0
176
     1
 90
       50
176
     1
 90
       50
176
     1
 90
       50
176
     1
290
     0
176
     1
 90
       50
176
     1
 62
   256
176
     0
 40
1.0
176
     0
 90
        2
176
     1
  1
strokes_ogs.tif
176
     1
290
     0
176
     1
 40
1.0
176
     1
 40
1.0
176
     1
  0
VISUALSTYLE
  5
377F
102
{ACAD_REACTORS
330
376C
102
}
330
376C
100
AcDbVisualStyle
  2
X-Ray
 70
    25
177
     3
291
     0
 70
    58
 90
        2
176
     1
 90
        2
176
     1
 90
        1
176
     1
 90
        1
176
     1
 40
0.5
176
     1
 40
30.0
176
     1
 62
     7
420
 16777215
176
     1
 90
        1
176
     1
 90
        0
176
     1
 62
     7
176
     1
 62
   257
176
     1
 90
        1
176
     1
 90
        1
176
     1
 40
1.0
176
     1
 90
        8
176
     1
 62
     7
176
     1
 40
1.0
176
     1
 90
        1
176
     1
 90
        6
176
     1
 90
        2
176
     1
 62
     7
176
     1
 90
        3
176
     1
 90
        0
176
     1
 90
        0
176
     1
290
     0
176
     1
 90
       13
176
     1
 40
0.0
176
     1
 90
        0
176
     1
290
     0
176
     1
290
     1
176
     1
290
     1
176
     1
290
     0
176
     1
290
     0
176
     1
290
     0
176
     1
290
     0
176
     1
290
     0
176
     1
290
     0
176
     1
 90
       50
176
     1
 40
0.0
176
     1
 40
1.0
176
     1
 90
        0
176
     1
 62
    18
420
        0
176
     1
 90
       50
176
     1
 90
        3
176
     1
 62
     5
420
      255
176
     1
290
     0
176
     1
 90
       50
176
     1
 90
       50
176
     1
 90
       50
176
     1
290
     0
176
     1
 90
       50
176
     1
 62
   256
176
     0
 40
1.0
176
     0
 90
        2
176
     1
  1
strokes_ogs.tif
176
     1
290
     0
176
     1
 40
1.0
176
     1
 40
1.0
176
     1
  0
DICTIONARYVAR
  5
37B7
102
{ACAD_REACTORS
330
37B1
102
}
330
37B1
100
DictionaryVariables
280
     0
  1
1:1
  0
DICTIONARYVAR
  5
37B3
102
{ACAD_REACTORS
330
37B1
102
}
330
37B1
100
DictionaryVariables
280
     0
  1
STANDARD
  0
DICTIONARYVAR
  5
37B2
102
{ACAD_REACTORS
330
37B1
102
}
330
37B1
100
DictionaryVariables
280
     0
  1
STANDARD
  0
DICTIONARYVAR
  5
37B4
102
{ACAD_REACTORS
330
37B1
102
}
330
37B1
100
DictionaryVariables
280
     0
  1
Imperial24
  0
DICTIONARYVAR
  5
37B5
102
{ACAD_REACTORS
330
37B1
102
}
330
37B1
100
DictionaryVariables
280
     0
  1
Imperial24
  0
DICTIONARYVAR
  5
37B9
102
{ACAD_REACTORS
330
37B1
102
}
330
37B1
100
DictionaryVariables
280
     0
  1
1
  0
DICTIONARYVAR
  5
37BA
102
{ACAD_REACTORS
330
37B1
102
}
330
37B1
100
DictionaryVariables
280
     0
  1
15
  0
DICTIONARYVAR
  5
37B8
102
{ACAD_REACTORS
330
37B1
102
}
330
37B1
100
DictionaryVariables
280
     0
  1
0
  0
DICTIONARYVAR
  5
37B6
102
{ACAD_REACTORS
330
37B1
102
}
330
37B1
100
DictionaryVariables
280
     0
  1
0
  0
XRECORD
  5
37B0
102
{ACAD_REACTORS
330
37AE
102
}
330
37AE
100
AcDbXrecord
280
     1
  0
DICTIONARY
  5
375D
330
375C
100
AcDbDictionary
280
     1
281
     1
  3
BUMPTILE
360
375F
  3
DIFFUSETILE
360
375E
  3
OPACITYTILE
360
3762
  3
REFLECTIONTILE
360
3761
  3
REFRACTIONTILE
360
3763
  3
SPECULARTILE
360
3760
  0
DICTIONARY
  5
3755
330
3754
100
AcDbDictionary
280
     1
281
     1
  3
BUMPTILE
360
3757
  3
DIFFUSETILE
360
3756
  3
OPACITYTILE
360
375A
  3
REFLECTIONTILE
360
3759
  3
REFRACTIONTILE
360
375B
  3
SPECULARTILE
360
3758
  0
DICTIONARY
  5
3765
330
3764
100
AcDbDictionary
280
     1
281
     1
  3
BUMPTILE
360
3767
  3
DIFFUSETILE
360
3766
  3
OPACITYTILE
360
376A
  3
REFLECTIONTILE
360
3769
  3
REFRACTIONTILE
360
376B
  3
SPECULARTILE
360
3768
  0
DICTIONARY
  5
37BC
330
3788
100
AcDbDictionary
280
     1
281
     1
  3
ACAD_ROUNDTRIP_2008_TABLESTYLE_CELLSTYLEMAP
360
37BD
  0
XRECORD
  5
375F
102
{ACAD_REACTORS
330
375D
102
}
330
375D
100
AcDbXrecord
280
     1
270
     1
271
     1
  0
XRECORD
  5
375E
102
{ACAD_REACTORS
330
375D
102
}
330
375D
100
AcDbXrecord
280
     1
270
     1
271
     1
  0
XRECORD
  5
3762
102
{ACAD_REACTORS
330
375D
102
}
330
375D
100
AcDbXrecord
280
     1
270
     1
271
     1
  0
XRECORD
  5
3761
102
{ACAD_REACTORS
330
375D
102
}
330
375D
100
AcDbXrecord
280
     1
270
     1
271
     1
  0
XRECORD
  5
3763
102
{ACAD_REACTORS
330
375D
102
}
330
375D
100
AcDbXrecord
280
     1
270
     1
271
     1
  0
XRECORD
  5
3760
102
{ACAD_REACTORS
330
375D
102
}
330
375D
100
AcDbXrecord
280
     1
270
     1
271
     1
  0
XRECORD
  5
3757
102
{ACAD_REACTORS
330
3755
102
}
330
3755
100
AcDbXrecord
280
     1
270
     1
271
     1
  0
XRECORD
  5
3756
102
{ACAD_REACTORS
330
3755
102
}
330
3755
100
AcDbXrecord
280
     1
270
     1
271
     1
  0
XRECORD
  5
375A
102
{ACAD_REACTORS
330
3755
102
}
330
3755
100
AcDbXrecord
280
     1
270
     1
271
     1
  0
XRECORD
  5
3759
102
{ACAD_REACTORS
330
3755
102
}
330
3755
100
AcDbXrecord
280
     1
270
     1
271
     1
  0
XRECORD
  5
375B
102
{ACAD_REACTORS
330
3755
102
}
330
3755
100
AcDbXrecord
280
     1
270
     1
271
     1
  0
XRECORD
  5
3758
102
{ACAD_REACTORS
330
3755
102
}
330
3755
100
AcDbXrecord
280
     1
270
     1
271
     1
  0
XRECORD
  5
3767
102
{ACAD_REACTORS
330
3765
102
}
330
3765
100
AcDbXrecord
280
     1
270
     1
271
     1
  0
XRECORD
  5
3766
102
{ACAD_REACTORS
330
3765
102
}
330
3765
100
AcDbXrecord
280
     1
270
     1
271
     1
  0
XRECORD
  5
376A
102
{ACAD_REACTORS
330
3765
102
}
330
3765
100
AcDbXrecord
280
     1
270
     1
271
     1
  0
XRECORD
  5
3769
102
{ACAD_REACTORS
330
3765
102
}
330
3765
100
AcDbXrecord
280
     1
270
     1
271
     1
  0
XRECORD
  5
376B
102
{ACAD_REACTORS
330
3765
102
}
330
3765
100
AcDbXrecord
280
     1
270
     1
271
     1
  0
XRECORD
  5
3768
102
{ACAD_REACTORS
330
3765
102
}
330
3765
100
AcDbXrecord
280
     1
270
     1
271
     1
  0
CELLSTYLEMAP
  5
37BD
102
{ACAD_REACTORS
330
37BC
102
}
330
37BC
100
AcDbCellStyleMap
 90
        3
300
CELLSTYLE
  1
TABLEFORMAT_BEGIN
 90
        5
170
     1
 91
        0
 92
    32768
 62
   257
 93
        1
300
CONTENTFORMAT
  1
CONTENTFORMAT_BEGIN
 90
        0
 91
        0
 92
      512
 93
        0
300

 40
0.0
140
1.0
 94
        5
 62
     0
340
F8B
144
0.25
309
CONTENTFORMAT_END
171
     0
 94
        0
309
TABLEFORMAT_END
  1
CELLSTYLE_BEGIN
 90
        1
 91
        1
300
_TITLE
309
CELLSTYLE_END
300
CELLSTYLE
  1
TABLEFORMAT_BEGIN
 90
        5
170
     1
 91
        0
 92
        0
 62
   257
 93
        1
300
CONTENTFORMAT
  1
CONTENTFORMAT_BEGIN
 90
        0
 91
        0
 92
      512
 93
        0
300

 40
0.0
140
1.0
 94
        5
 62
     0
340
F8B
144
0.18
309
CONTENTFORMAT_END
171
     0
 94
        0
309
TABLEFORMAT_END
  1
CELLSTYLE_BEGIN
 90
        2
 91
        1
300
_HEADER
309
CELLSTYLE_END
300
CELLSTYLE
  1
TABLEFORMAT_BEGIN
 90
        5
170
     1
 91
        0
 92
        0
 62
   257
 93
        1
300
CONTENTFORMAT
  1
CONTENTFORMAT_BEGIN
 90
        0
 91
        0
 92
      512
 93
        0
300

 40
0.0
140
1.0
 94
        2
 62
     0
340
F8B
144
0.18
309
CONTENTFORMAT_END
171
     0
 94
        0
309
TABLEFORMAT_END
  1
CELLSTYLE_BEGIN
 90
        3
 91
        2
300
_DATA
309
CELLSTYLE_END
  0
ENDSEC
  0
EOF
